<svg id="Layer_1" data-name="Layer 1" xmlns="http://www.w3.org/2000/svg" viewBox="0 0 90 58.72">
  <title>imag</title>
  <path d="M70.5,20.12a1.77,1.77,0,1,1-1.77,1.77h0a1.79,1.79,0,0,1,1.77-1.77m0-5a6.82,6.82,0,1,0,6.82,6.82h0A6.82,6.82,0,0,0,70.5,15.12Z" transform="translate(-3 -3.35)" style="fill: #f05050"/>
  <path d="M88,8.39V57H8V8.39H88m5-5H3V62.07H93V3.39Z" transform="translate(-3 -3.35)" style="fill: #f05050"/>
  <polygon points="15.36 47.23 11.79 43.67 36 19.46 60.21 43.67 56.64 47.23 36 26.59 15.36 47.23" style="fill: #f05050"/>
  <polygon points="74.05 45.98 62.67 34.59 56.03 41.23 52.46 37.67 62.67 27.46 77.62 42.41 74.05 45.98" style="fill: #f05050"/>
</svg>
