<svg id="Layer_3" data-name="Layer 3" xmlns="http://www.w3.org/2000/svg" viewBox="0 0 47 44.37"><title>course</title><rect x="-2.35" y="11.54" width="34.85" height="11.22" rx="5.61" ry="5.61" transform="translate(36.41 14.77) rotate(132.38)" style="fill:#f3f7fb"/><rect x="17.5" y="27.24" width="34.85" height="11.22" rx="5.61" ry="5.61" transform="translate(81.23 26.37) rotate(132.38)" style="fill:#f3f7fb"/><rect x="1.15" y="18.5" width="48.41" height="11.22" rx="5.61" ry="5.61" transform="translate(58.75 18.82) rotate(132.38)" style="fill:#f3f7fb"/><g style="isolation:isolate"><path d="M36.62,11.66a1.12,1.12,0,0,0-.72-1.33,1,1,0,0,0,1.33-.72A1.09,1.09,0,0,0,38,10.94C37.3,10.94,36.79,11.14,36.62,11.66Z" transform="translate(-1.5 -2.82)" style="fill:#323842"/></g><g style="isolation:isolate"><path d="M11.15,37.53a1.12,1.12,0,0,0-1.44-.46,1,1,0,0,0,.46-1.44,1.09,1.09,0,0,0,1.44.46A1.23,1.23,0,0,0,11.15,37.53Z" transform="translate(-1.5 -2.82)" style="fill:#4cbd91"/></g><path d="M7.78,37a.7.7,0,0,1-.51-.22.71.71,0,0,1,1-1,.66.66,0,0,1,.2.51.71.71,0,0,1-.21.5A.74.74,0,0,1,7.78,37Zm0-1.18a.46.46,0,0,0-.33.13.47.47,0,0,0,.32.81.47.47,0,0,0,.34-.13.53.53,0,0,0,.15-.33.48.48,0,0,0-.14-.34A.44.44,0,0,0,7.78,35.79Z" transform="translate(-1.5 -2.82)" style="fill:#323842"/><path d="M9.22,34.33h0a.71.71,0,0,1-.5-.21.72.72,0,0,1,0-1,.7.7,0,0,1,1,0,.63.63,0,0,1,.2.5.71.71,0,0,1-.21.5A.72.72,0,0,1,9.22,34.33Zm0-1.18a.48.48,0,0,0-.33.13.47.47,0,0,0,.66.68.46.46,0,0,0,.15-.33.48.48,0,0,0-.48-.48Z" transform="translate(-1.5 -2.82)" style="fill:#323842"/><g style="isolation:isolate"><path d="M42,14.53a1.1,1.1,0,0,0-1.44-.46A1,1,0,0,0,41,12.63a1.08,1.08,0,0,0,1.44.45A1.24,1.24,0,0,0,42,14.53Z" transform="translate(-1.5 -2.82)" style="fill:#4cbd91"/></g><path d="M38.61,14h0a.68.68,0,0,1-.5-.22.66.66,0,0,1-.2-.5.71.71,0,0,1,1.22-.49h0a.71.71,0,0,1,0,1A.68.68,0,0,1,38.61,14Zm0-1.19a.47.47,0,0,0-.33.14.49.49,0,0,0-.15.33.48.48,0,0,0,.14.34.47.47,0,0,0,.33.14.43.43,0,0,0,.34-.13.47.47,0,0,0,0-.67h0A.46.46,0,0,0,38.61,12.78Z" transform="translate(-1.5 -2.82)" style="fill:#323842"/><path d="M40.05,11.33a.68.68,0,0,1-.51-.22.7.7,0,0,1,0-1,.71.71,0,0,1,1,0h0a.72.72,0,0,1,0,1A.74.74,0,0,1,40.05,11.33Zm0-1.18a.46.46,0,0,0-.33.13.47.47,0,0,0,.32.81.43.43,0,0,0,.34-.13.47.47,0,0,0-.32-.81Z" transform="translate(-1.5 -2.82)" style="fill:#323842"/><g style="isolation:isolate"><rect x="13.78" y="27.2" width="21.62" height="5.02" style="fill:#ffd248"/></g><g style="opacity:0.15"><rect x="13.78" y="27.2" width="3.47" height="5.02"/></g><g style="isolation:isolate"><rect x="17.78" y="28.75" width="12.74" height="1.93" style="fill:#f1f5f7"/><path d="M32.26,33.73H19v-2.4H32.26Zm-12.74-.47H31.78V31.8H19.52Z" transform="translate(-1.5 -2.82)" style="fill:#323842"/></g><circle cx="33.27" cy="29.86" r="0.97" style="fill:#cdd7df"/><rect x="13.78" y="17.17" width="21.62" height="5.02" style="fill:#fff"/><g style="opacity:0.15"><rect x="31.92" y="17.17" width="3.47" height="5.02"/></g><rect x="18.79" y="18.71" width="12.74" height="1.93" style="fill:#f0f1f1"/><circle cx="16.29" cy="19.68" r="0.97" style="fill:#f0f1f1"/><rect x="11.51" y="12.15" width="21.62" height="5.02" style="fill:#e54a43"/><path d="M34.86,20.22H12.77V14.73H34.86Zm-21.61-.48H34.39V15.2H13.25Z" transform="translate(-1.5 -2.82)" style="fill:#323842"/><g style="opacity:0.15"><rect x="11.46" y="12.15" width="2.57" height="5.02"/></g><g style="isolation:isolate"><rect x="13.33" y="13.74" width="13.15" height="1.93" style="fill:#f1f5f7"/><path d="M28.22,18.72H14.59v-2.4H28.22Zm-13.15-.47H27.74V16.79H15.07Z" transform="translate(-1.5 -2.82)" style="fill:#323842"/></g><g style="isolation:isolate"><rect x="11.46" y="22.18" width="21.62" height="5.02" style="fill:#4cbf92"/></g><g style="isolation:isolate"><rect x="18.28" y="23.83" width="13.2" height="1.83" style="fill:#f1f5f7"/><path d="M33.21,28.71H19.54v-2.3H33.21ZM20,28.24H32.74V26.88H20Z" transform="translate(-1.5 -2.82)" style="fill:#323842"/></g><g style="opacity:0.15"><rect x="11.46" y="22.18" width="3.47" height="5.02"/></g><path d="M34.82,26.16c-.08,0,0-.07,0-.15v-.79a.15.15,0,0,1,.15-.15h2.27a.14.14,0,0,0,.14-.14V19.76a.14.14,0,0,0-.14-.14h-2a.15.15,0,0,1-.15-.15V14.74a.14.14,0,0,0-.14-.14H28.23a.14.14,0,0,0-.14.14v.15a.15.15,0,0,0,.14.15h6.25a.15.15,0,0,1,.15.14v4.63a.15.15,0,0,1-.15.15H13.25a.15.15,0,0,1-.14-.15V15.18a.14.14,0,0,1,.14-.14H26.79a.15.15,0,0,0,.14-.15v-.15a.14.14,0,0,0-.14-.14h-14a.14.14,0,0,0-.14.14V20.2a.14.14,0,0,0,.14.14h2a.15.15,0,0,1,.15.15v4a.15.15,0,0,1-.15.15h-2a.14.14,0,0,0-.14.14v5.46a.14.14,0,0,0,.14.14h2a.15.15,0,0,1,.15.15v4.73a.14.14,0,0,0,.14.14h7.41a.14.14,0,0,0,.14-.14v-.15a.15.15,0,0,0-.14-.15H15.62a.15.15,0,0,1-.15-.14V30.53a.15.15,0,0,1,.15-.15H36.8a.15.15,0,0,1,.14.15v4.29a.14.14,0,0,1-.14.14H24a.15.15,0,0,0-.15.15v.15a.15.15,0,0,0,.15.14h13.2a.14.14,0,0,0,.14-.14V30.14a.15.15,0,0,0-.14-.15H34.87a.14.14,0,0,1-.14-.14V27.46a.15.15,0,0,0-.15-.14h-.15a.14.14,0,0,0-.14.14v2.39a.15.15,0,0,1-.15.14H13.2a.14.14,0,0,1-.14-.14V25.17A.14.14,0,0,1,13.2,25H34.14a.15.15,0,0,1,.15.14V26a.15.15,0,0,0,.14.15m-19-1.52V20.49a.15.15,0,0,1,.15-.15H36.7a.15.15,0,0,1,.15.15v4a.15.15,0,0,1-.15.15Z" transform="translate(-1.5 -2.82)" style="fill:#1f191a"/><path d="M20.15,23.82H26.4a.15.15,0,0,0,.14-.15v-.24a.14.14,0,0,0-.14-.14l-5.76,0a.14.14,0,0,1-.15-.14v-1.4a.14.14,0,0,1,.14-.14H32.84a.14.14,0,0,1,.14.14v1.4a.14.14,0,0,1-.14.14h-5a.15.15,0,0,0-.15.15v.19a.15.15,0,0,0,.15.15h5.48a.15.15,0,0,0,.14-.15V21.31a.15.15,0,0,0-.14-.15H20.15a.15.15,0,0,0-.15.15v2.36A.15.15,0,0,0,20.15,23.82Z" transform="translate(-1.5 -2.82)" style="fill:#1f191a"/><path d="M14.77,18.85H21a.15.15,0,0,0,.14-.15v-.24a.15.15,0,0,0-.14-.15l-5.77.05a.14.14,0,0,1-.14-.14v-1.4a.14.14,0,0,1,.14-.14H27.46a.14.14,0,0,1,.14.14v1.4a.14.14,0,0,1-.14.14h-5a.15.15,0,0,0-.15.15v.19a.15.15,0,0,0,.15.15H28a.15.15,0,0,0,.14-.15V16.33a.14.14,0,0,0-.14-.14H14.77a.15.15,0,0,0-.15.14V18.7A.15.15,0,0,0,14.77,18.85Z" transform="translate(-1.5 -2.82)" style="fill:#1f191a"/><path d="M19.81,28.84h6.25a.15.15,0,0,0,.15-.15v-.24a.14.14,0,0,0-.15-.14l-5.76,0a.15.15,0,0,1-.15-.14v-1.4a.15.15,0,0,1,.15-.14H32.5a.15.15,0,0,1,.15.14v1.4a.15.15,0,0,1-.15.14h-5a.15.15,0,0,0-.14.15v.19a.15.15,0,0,0,.14.15H33a.15.15,0,0,0,.14-.15V26.33a.15.15,0,0,0-.14-.15H19.81a.15.15,0,0,0-.14.15v2.36A.15.15,0,0,0,19.81,28.84Z" transform="translate(-1.5 -2.82)" style="fill:#1f191a"/><path d="M19.2,34h6.25a.15.15,0,0,0,.15-.14v-.25a.15.15,0,0,0-.15-.14l-5.76,0a.15.15,0,0,1-.15-.14V32a.15.15,0,0,1,.15-.14h12.2A.15.15,0,0,1,32,32v1.4a.15.15,0,0,1-.15.15h-5a.14.14,0,0,0-.14.14v.2a.14.14,0,0,0,.14.14h5.48a.14.14,0,0,0,.14-.14V31.49a.15.15,0,0,0-.14-.15H19.2a.15.15,0,0,0-.14.15v2.37A.14.14,0,0,0,19.2,34Z" transform="translate(-1.5 -2.82)" style="fill:#1f191a"/><rect x="27.67" y="13.31" width="0.73" height="2.7" style="fill:#fff"/><rect x="30.76" y="13.31" width="0.73" height="2.7" style="fill:#fff"/><path d="M17.76,21.16a1.33,1.33,0,1,0,1.33,1.33A1.34,1.34,0,0,0,17.76,21.16Zm0,2.3a1,1,0,1,1,1-1A1,1,0,0,1,17.76,23.46Z" transform="translate(-1.5 -2.82)" style="fill:#1f191a"/><rect x="16.09" y="23.34" width="0.52" height="2.7" style="fill:#1f191a"/><rect x="13" y="23.34" width="0.53" height="2.7" style="fill:#fff"/><path d="M36.12,32.67A1.33,1.33,0,1,0,34.8,34,1.33,1.33,0,0,0,36.12,32.67Zm-2.31,0a1,1,0,1,1,1,1A1,1,0,0,1,33.81,32.67Z" transform="translate(-1.5 -2.82)" style="fill:#1f191a"/></svg>