<svg id="Layer_4" data-name="Layer 4" xmlns="http://www.w3.org/2000/svg" viewBox="0 0 47.08 44.47"><title>download failed</title><rect x="-2.1" y="11.67" width="34.53" height="11.12" rx="4.93" ry="4.93" transform="translate(36.65 14.87) rotate(132.38)" style="fill:#f3f7fb"/><rect x="17.57" y="27.22" width="34.53" height="11.12" rx="4.93" ry="4.93" transform="translate(81.06 26.37) rotate(132.38)" style="fill:#f3f7fb"/><rect x="1.37" y="18.56" width="47.96" height="11.12" rx="4.93" ry="4.93" transform="translate(58.79 18.89) rotate(132.38)" style="fill:#f3f7fb"/><g style="isolation:isolate"><path d="M15.84,12.72a1.11,1.11,0,0,0-.71-1.32,1,1,0,0,0,1.32-.71A1.07,1.07,0,0,0,17.16,12C16.52,12,16,12.21,15.84,12.72Z" transform="translate(-1.46 -2.76)" style="fill:#323842"/></g><path d="M18.11,11.24a.5.5,0,0,0-.32-.61.48.48,0,0,0,.61-.33.49.49,0,0,0,.33.61C18.43,10.91,18.19,11,18.11,11.24Z" transform="translate(-1.46 -2.76)" style="fill:#e54a43"/><path d="M16.89,15a.71.71,0,0,1-.7-.71.71.71,0,0,1,1.41,0A.71.71,0,0,1,16.89,15Zm0-1.18a.47.47,0,1,0,.47.47A.47.47,0,0,0,16.89,13.84Z" transform="translate(-1.46 -2.76)" style="fill:#323842"/><g style="isolation:isolate"><path d="M33.1,13.57a1.12,1.12,0,0,0-.77-1.29,1,1,0,0,0,1.28-.77,1.08,1.08,0,0,0,.77,1.29C33.74,12.83,33.24,13.05,33.1,13.57Z" transform="translate(-1.46 -2.76)" style="fill:#4cbd91"/></g><path d="M31.43,11.12a.71.71,0,0,1-.48-.19.69.69,0,0,1-.23-.48.74.74,0,0,1,.19-.51.71.71,0,0,1,.49-.23.69.69,0,0,1,.5.18.71.71,0,0,1,.23.49h0a.68.68,0,0,1-.18.51.71.71,0,0,1-.49.23Zm0-1.18h0a.46.46,0,0,0-.45.49.48.48,0,0,0,.15.32.42.42,0,0,0,.34.12.46.46,0,0,0,.33-.15.5.5,0,0,0,.12-.34h0a.48.48,0,0,0-.47-.45Z" transform="translate(-1.46 -2.76)" style="fill:#323842"/><path d="M33.32,21.91,32,20.25a1.24,1.24,0,0,0-1.07-.49H19.12a1.61,1.61,0,0,0-1.17.49l-1.27,1.66a2,2,0,0,0-.49,1.28V35.43a2,2,0,0,0,2,2H31.86a2,2,0,0,0,2-2V23.19a2,2,0,0,0-.49-1.28Zm-15.07-.19.78-1H30.78l.88,1Zm0,0" transform="translate(-1.46 -2.76)" style="fill:#e54a43"/><path d="M31.86,37.62H18.15A2.2,2.2,0,0,1,16,35.43V23.19a2.31,2.31,0,0,1,.54-1.42l1.3-1.69a1.85,1.85,0,0,1,1.33-.56H30.88a1.51,1.51,0,0,1,1.27.59l1.36,1.66a2.31,2.31,0,0,1,.54,1.42V35.43A2.2,2.2,0,0,1,31.86,37.62ZM18.13,20.4l-1.27,1.66a1.84,1.84,0,0,0-.44,1.13V35.43a1.73,1.73,0,0,0,1.73,1.72H31.86a1.73,1.73,0,0,0,1.72-1.72V23.19a1.78,1.78,0,0,0-.44-1.13l-1.37-1.67a1.05,1.05,0,0,0-.89-.4H19.12A1.38,1.38,0,0,0,18.13,20.4ZM32.19,22H17.76l1.16-1.45h12Zm-13.46-.47h12.4L30.68,21H19.14Z" transform="translate(-1.46 -2.76)" style="fill:#323842"/><g style="isolation:isolate"><rect x="16.84" y="9.86" width="12.99" height="8.97" rx="1" ry="1" style="fill:#f1f5f7"/><path d="M31.05,21.83H18.53a.47.47,0,0,1-.47-.47V12.85a.48.48,0,0,1,.47-.47H31.05a.48.48,0,0,1,.47.47v8.51A.47.47,0,0,1,31.05,21.83Zm-12.52-9v8.51H31.05V12.85Z" transform="translate(-1.46 -2.76)" style="fill:#323842"/></g><g style="isolation:isolate"><rect x="17.82" y="11.55" width="11.01" height="5.15" rx="1" ry="1" style="fill:#fff"/></g><g style="isolation:isolate"><path d="M23.62,18.66H20V15h3.6Zm-3.36-.24h3.12V15.25H20.26Z" transform="translate(-1.46 -2.76)" style="fill:#323842"/></g><g style="isolation:isolate"><path d="M29.85,16.14h-5.3a.23.23,0,0,1-.24-.23.24.24,0,0,1,.24-.24h5.3a.24.24,0,0,1,.24.24A.23.23,0,0,1,29.85,16.14Z" transform="translate(-1.46 -2.76)" style="fill:#c2c3c6"/></g><g style="isolation:isolate"><path d="M26.53,17h-2a.24.24,0,0,1-.24-.24.23.23,0,0,1,.24-.23h2a.23.23,0,0,1,.23.23A.23.23,0,0,1,26.53,17Z" transform="translate(-1.46 -2.76)" style="fill:#c2c3c6"/></g><path d="M28.41,28.32H26.46V25.4H23.54v2.92H21.59L25,31.72ZM21.59,32.7v1h6.82v-1Zm0,0" transform="translate(-1.46 -2.76)" style="fill:#fff"/><polygon points="21.17 14.55 20.71 14.08 21.18 13.62 20.84 13.27 20.37 13.72 19.91 13.25 19.55 13.6 20.01 14.07 19.54 14.53 19.88 14.88 20.36 14.42 20.81 14.9 21.17 14.55"/></svg>