<svg id="Layer_4" data-name="Layer 4" xmlns="http://www.w3.org/2000/svg" viewBox="0 0 47 44.37"><title>download complete</title><rect x="-2.35" y="11.54" width="34.85" height="11.22" rx="5.61" ry="5.61" transform="translate(36.41 14.77) rotate(132.38)" style="fill:#f3f7fb"/><rect x="17.5" y="27.24" width="34.85" height="11.22" rx="5.61" ry="5.61" transform="translate(81.23 26.37) rotate(132.38)" style="fill:#f3f7fb"/><rect x="1.15" y="18.5" width="48.41" height="11.22" rx="5.61" ry="5.61" transform="translate(58.75 18.82) rotate(132.38)" style="fill:#f3f7fb"/><g style="isolation:isolate"><path d="M15.75,12.61A1.11,1.11,0,0,0,15,11.28a1.06,1.06,0,0,0,1.34-.72,1.08,1.08,0,0,0,.71,1.33C16.44,11.89,15.92,12.09,15.75,12.61Z" transform="translate(-1.5 -2.82)" style="fill:#323842"/></g><path d="M18.05,11.11a.53.53,0,0,0-.33-.62.47.47,0,0,0,.61-.33.52.52,0,0,0,.34.62C18.37,10.78,18.13,10.87,18.05,11.11Z" transform="translate(-1.5 -2.82)" style="fill:#e54a43"/><path d="M16.82,14.92a.71.71,0,1,1,.71-.71A.71.71,0,0,1,16.82,14.92Zm0-1.18a.47.47,0,1,0,0,.94.47.47,0,0,0,0-.94Z" transform="translate(-1.5 -2.82)" style="fill:#323842"/><g style="isolation:isolate"><path d="M33.17,13.46a1.12,1.12,0,0,0-.78-1.3,1,1,0,0,0,1.3-.77,1.11,1.11,0,0,0,.78,1.3C33.82,12.71,33.32,12.94,33.17,13.46Z" transform="translate(-1.5 -2.82)" style="fill:#4cbd91"/></g><path d="M31.49,11a.72.72,0,0,1-.71-.68.7.7,0,0,1,.68-.74.68.68,0,0,1,.51.18.73.73,0,0,1,.23.5h0a.72.72,0,0,1-.68.74Zm0-1.19h0a.46.46,0,0,0-.33.16.42.42,0,0,0-.12.34.47.47,0,0,0,.82.3.49.49,0,0,0,.12-.34h0a.45.45,0,0,0-.15-.33A.48.48,0,0,0,31.49,9.8Z" transform="translate(-1.5 -2.82)" style="fill:#323842"/><path d="M33.4,21.89,32,20.2a1.3,1.3,0,0,0-1.09-.49H19.07a1.64,1.64,0,0,0-1.18.49L16.6,21.89a2,2,0,0,0-.49,1.28V35.52a2,2,0,0,0,2,2H31.92a2,2,0,0,0,2-2V23.17a2,2,0,0,0-.49-1.28Zm-15.22-.2.79-1H30.83l.89,1Zm0,0" transform="translate(-1.5 -2.82)" style="fill:#e54a43"/><path d="M31.92,37.73H18.09a2.21,2.21,0,0,1-2.22-2.21V23.17a2.36,2.36,0,0,1,.54-1.43L17.72,20a1.9,1.9,0,0,1,1.35-.56H30.93a1.52,1.52,0,0,1,1.28.6l1.38,1.67a2.36,2.36,0,0,1,.54,1.43V35.52A2.21,2.21,0,0,1,31.92,37.73ZM18.06,20.36,16.79,22a1.82,1.82,0,0,0-.45,1.14V35.52a1.74,1.74,0,0,0,1.75,1.74H31.92a1.74,1.74,0,0,0,1.74-1.74V23.17A1.87,1.87,0,0,0,33.22,22l-1.39-1.68a1,1,0,0,0-.9-.4H19.07A1.37,1.37,0,0,0,18.06,20.36Zm14.19,1.57H17.69l1.17-1.47H30.94Zm-13.58-.48H31.19l-.46-.51H19.09Z" transform="translate(-1.5 -2.82)" style="fill:#323842"/><g style="isolation:isolate"><rect x="16.73" y="9.69" width="13.11" height="9.06" rx="1" ry="1" style="fill:#f1f5f7"/><path d="M31.1,21.8H18.47a.48.48,0,0,1-.48-.48V12.74a.48.48,0,0,1,.48-.47H31.1a.47.47,0,0,1,.48.47v8.58A.47.47,0,0,1,31.1,21.8ZM18.47,12.74v8.58H31.1V12.74Z" transform="translate(-1.5 -2.82)" style="fill:#323842"/></g><g style="isolation:isolate"><rect x="17.73" y="11.39" width="11.11" height="5.2" rx="1" ry="1" style="fill:#fff"/></g><g style="isolation:isolate"><path d="M23.61,18.6H20V14.92h3.64Zm-3.4-.24h3.16v-3.2H20.21Z" transform="translate(-1.5 -2.82)" style="fill:#323842"/></g><g style="isolation:isolate"><polygon points="19.86 14.86 19.26 14.01 19.64 13.74 19.93 14.15 20.97 13.21 21.29 13.56 19.86 14.86" style="fill:#20cc40"/></g><g style="isolation:isolate"><path d="M29.9,16.06H24.54a.23.23,0,0,1-.23-.24.23.23,0,0,1,.23-.23H29.9a.23.23,0,0,1,.24.23A.24.24,0,0,1,29.9,16.06Z" transform="translate(-1.5 -2.82)" style="fill:#c2c3c6"/></g><g style="isolation:isolate"><path d="M26.54,16.91h-2a.23.23,0,0,1-.23-.24.23.23,0,0,1,.23-.23h2a.23.23,0,0,1,.24.23A.24.24,0,0,1,26.54,16.91Z" transform="translate(-1.5 -2.82)" style="fill:#c2c3c6"/></g><path d="M28.44,28.35h-2v-3H23.53v3h-2L25,31.79Zm-6.88,4.42v1h6.88v-1Zm0,0" transform="translate(-1.5 -2.82)" style="fill:#fff"/></svg>