<?xml version="1.0" encoding="utf-8"?>
<!-- Generator: Adobe Illustrator 22.1.0, SVG Export Plug-In . SVG Version: 6.00 Build 0)  -->
<svg version="1.0" id="Layer_1" xmlns="http://www.w3.org/2000/svg" xmlns:xlink="http://www.w3.org/1999/xlink" x="0px" y="0px"
	 viewBox="0 0 343 215" style="enable-background:new 0 0 343 215;" xml:space="preserve">
<style type="text/css">
	.st0{fill:#F3F7FB;}
	.st1{fill:#F1F5F7;}
	.st2{fill:none;stroke:#3B404A;stroke-width:1.8;stroke-miterlimit:10;}
	.st3{fill:#DFE7EA;}
	.st4{fill:#F9F9F9;}
	.st5{fill:#3B404A;}
	.st6{fill:none;stroke:#323842;stroke-miterlimit:10;}
	.st7{fill:#323842;}
</style>
<g>
	<path class="st0" d="M78.6,95.3l67.2-73.6c8.8-9.7,23.8-10.3,33.4-1.5l0,0c9.7,8.8,10.3,23.8,1.5,33.4l-67.2,73.6
		c-8.8,9.7-23.8,10.3-33.4,1.5l0,0C70.5,119.9,69.8,104.9,78.6,95.3z"/>
	<path class="st0" d="M162.3,161.4l67.2-73.6c8.8-9.7,23.8-10.3,33.4-1.5l0,0c9.7,8.8,10.3,23.8,1.5,33.4l-67.2,73.6
		c-8.8,9.7-23.8,10.3-33.4,1.5l0,0C154.2,186.1,153.5,171.1,162.3,161.4z"/>
	<path class="st0" d="M102.6,145.7L208.4,29.9c8.8-9.7,23.8-10.3,33.4-1.5l0,0c9.7,8.8,10.3,23.8,1.5,33.4L137.6,177.6
		c-8.8,9.7-23.8,10.3-33.4,1.5l0,0C94.5,170.3,93.8,155.4,102.6,145.7z"/>
</g>
<title>messages</title>
<g id="Layer_5">
	<path class="st1" d="M184.6,65.6c-14.2,0-28.3,0.1-42.5-0.1c-2.4,0-3.2,0.5-3.2,3.2c0.1,16.6,0.1,38.7,0,55.2
		c0,2.8,0.8,3.8,3.6,3.8c23.1-0.1,69.2,0,69.2,0c1.7,3.8,9.1,5.8,9.1,5.8l0.6-5.7c0,0,7.7,0,8.4-0.8c0.6-0.8,0.9-1.8,0.7-2.8
		c-0.1-16.7-0.1-38.9,0-55.6c0-2.7-0.9-3.1-3.2-3.1C213.2,65.7,198.9,65.6,184.6,65.6z"/>
	<path class="st2" d="M184.6,65.6c-14.2,0-28.3,0.1-42.5-0.1c-2.4,0-3.2,0.5-3.2,3.2c0.1,16.6,0.1,38.7,0,55.2
		c0,2.8,0.8,3.8,3.6,3.8c23.1-0.1,69.2,0,69.2,0c1.7,3.8,9.1,5.8,9.1,5.8l0.6-5.7c0,0,7.7,0,8.4-0.8c0.6-0.8,0.9-1.8,0.7-2.8
		c-0.1-16.7-0.1-38.9,0-55.6c0-2.7-0.9-3.1-3.2-3.1C213.2,65.7,198.9,65.6,184.6,65.6z"/>
	<path class="st3" d="M140.3,126.7c-0.4-0.5-0.6-1.1-0.5-1.7c0.1-10.2,0.2-34,0.2-34v-1.9h33.9c10.4,0,20.8,0,31.1,0
		c1.8,0,2.4,0.3,2.4,1.9c-0.1,10.1,0,33.7,0,33.7v2.3"/>
	<path class="st4" d="M158,94.6c14.2,0,28.3,0.1,42.5-0.1c2.4,0,3.2,0.5,3.2,3.2c-0.1,16.6-0.1,38.7,0,55.2c0,2.8-0.8,3.8-3.6,3.8
		c-23.1-0.1-69.2,0-69.2,0c-1.7,3.8-9.1,5.8-9.1,5.8l-0.6-5.7c0,0-7.7,0-8.4-0.8c-0.6-0.8-0.9-1.8-0.7-2.8c0.1-16.7,0.1-38.9,0-55.6
		c0-2.7,0.9-3.1,3.2-3.1C129.4,94.7,143.7,94.6,158,94.6z"/>
	<path class="st2" d="M158,94.6c14.2,0,28.3,0.1,42.5-0.1c2.4,0,3.2,0.5,3.2,3.2c-0.1,16.6-0.1,38.7,0,55.2c0,2.8-0.8,3.8-3.6,3.8
		c-23.1-0.1-69.2,0-69.2,0c-1.7,3.8-9.1,5.8-9.1,5.8l-0.6-5.7c0,0-7.7,0-8.4-0.8c-0.6-0.8-0.9-1.8-0.7-2.8c0.1-16.7,0.1-38.9,0-55.6
		c0-2.7,0.9-3.1,3.2-3.1C129.4,94.7,143.7,94.6,158,94.6z"/>
	<path class="st5" d="M157.3,118v0.9c0,0.5-0.4,0.9-0.9,0.9h-34.2c-0.5,0-0.9-0.4-0.9-0.9V118c0-0.5,0.4-0.9,0.9-0.9h34.2
		C156.9,117.1,157.3,117.5,157.3,118z"/>
	<path class="st5" d="M166.2,128.1v0.9c0,0.5-0.4,0.9-0.9,0.9h-43.1c-0.5,0-0.9-0.4-0.9-0.9v-0.9c0-0.5,0.4-0.9,0.9-0.9h43.1
		C165.8,127.2,166.2,127.6,166.2,128.1z"/>
	<path class="st5" d="M146.5,138.2v0.9c0,0.5-0.4,0.9-0.9,0.9h-23.4c-0.5,0-0.9-0.4-0.9-0.9v-0.9c0-0.5,0.4-0.9,0.9-0.9h23.4
		C146.1,137.2,146.5,137.7,146.5,138.2z"/>
	<circle class="st6" cx="238.4" cy="130.6" r="1.8"/>
	<circle class="st7" cx="233.4" cy="135.7" r="1.8"/>
	<path class="st7" d="M113.9,87.7L113.9,87.7c-0.5,0-0.9-0.4-0.9-0.9V83c0-0.5,0.4-0.9,0.9-0.9h0c0.5,0,0.9,0.4,0.9,0.9v3.8
		C114.8,87.3,114.4,87.7,113.9,87.7z"/>
	<path class="st7" d="M106.9,95.7L106.9,95.7c0,0.5-0.4,0.9-0.9,0.9h-3.8c-0.5,0-0.9-0.4-0.9-0.9l0,0c0-0.5,0.4-0.9,0.9-0.9h3.8
		C106.5,94.8,106.9,95.2,106.9,95.7z"/>
	<path class="st7" d="M108.9,90.1L108.9,90.1c-0.4,0.4-0.9,0.4-1.3,0l-2.7-2.7c-0.4-0.4-0.4-0.9,0-1.3l0,0c0.4-0.4,0.9-0.4,1.3,0
		l2.7,2.7C109.2,89.2,109.2,89.8,108.9,90.1z"/>
	<path class="st7" d="M236.1,64.7L236.1,64.7c0-0.5,0.5-0.9,1-0.9l3.8,0.3c0.5,0,0.9,0.5,0.9,1v0c0,0.5-0.5,0.9-1,0.9l-3.8-0.3
		C236.5,65.6,236.1,65.2,236.1,64.7z"/>
	<path class="st7" d="M229.4,58.1L229.4,58.1c-0.5,0-0.9-0.5-0.8-1l0.3-3.8c0-0.5,0.5-0.9,1-0.9l0,0c0.5,0,0.9,0.5,0.8,1l-0.3,3.8
		C230.3,57.8,229.9,58.1,229.4,58.1z"/>
	<path class="st7" d="M234.8,60.5L234.8,60.5c-0.3-0.4-0.3-1,0.1-1.3l2.9-2.5c0.4-0.3,1-0.3,1.3,0.1l0,0c0.3,0.4,0.3,1-0.1,1.3
		l-2.9,2.5C235.7,60.9,235.1,60.9,234.8,60.5z"/>
</g>
</svg>
