<?xml version="1.0" encoding="utf-8"?>
<!-- Generator: Adobe Illustrator 22.1.0, SVG Export Plug-In . SVG Version: 6.00 Build 0)  -->
<svg version="1.0" id="Layer_1" xmlns="http://www.w3.org/2000/svg" xmlns:xlink="http://www.w3.org/1999/xlink" x="0px" y="0px"
	 viewBox="0 0 343 215" style="enable-background:new 0 0 343 215;" xml:space="preserve">
<style type="text/css">
	.st0{fill:#F3F7FB;}
	.st1{fill:#F0F4F6;}
	.st2{fill:none;stroke:#323842;stroke-width:1.8;stroke-miterlimit:10;}
	.st3{fill:#323842;}
	.st4{fill:#FFFFFF;}
	.st5{fill:#4CBD91;}
	.st6{fill:none;stroke:#323842;stroke-miterlimit:10;}
</style>
<g>
	<path class="st0" d="M78.6,95.3l67.2-73.6c8.8-9.7,23.8-10.3,33.4-1.5l0,0c9.7,8.8,10.3,23.8,1.5,33.4l-67.2,73.6
		c-8.8,9.7-23.8,10.3-33.4,1.5l0,0C70.5,119.9,69.8,104.9,78.6,95.3z"/>
	<path class="st0" d="M162.3,161.4l67.2-73.6c8.8-9.7,23.8-10.3,33.4-1.5l0,0c9.7,8.8,10.3,23.8,1.5,33.4l-67.2,73.6
		c-8.8,9.7-23.8,10.3-33.4,1.5l0,0C154.2,186.1,153.5,171.1,162.3,161.4z"/>
	<path class="st0" d="M102.6,145.7L208.4,29.9c8.8-9.7,23.8-10.3,33.4-1.5l0,0c9.7,8.8,10.3,23.8,1.5,33.4L137.6,177.6
		c-8.8,9.7-23.8,10.3-33.4,1.5l0,0C94.5,170.3,93.8,155.4,102.6,145.7z"/>
</g>
<title>no search founf</title>
<g id="Layer_5">
	<path class="st1" d="M116.7,149.5c0,0,7-9.2,8.2-26.4s0-39.8,0-39.8c0.3-8.5,3.7-16.7,9.5-23c9.7-10.6,20.2-13.6,27.9-14.4
		s30.4,2.7,38.6,21.9c2.3,3.4,3.8,7.2,4.5,11.2c0.8,6,1.3,18.6,1.3,18.6v24.2c0,0,6.7,26,9.5,29.9s-15.7,5.5-23.4,4.2
		c0,0-10.2,7.5-30.9,6.5s-24.1-6.5-24.1-6.5S120.4,157.2,116.7,149.5z"/>
	<path class="st1" d="M125.3,94.2l-8.6,16.2c-0.5,2-0.2,4.1,1,5.7c1.8,2.2,4.8,3,7.5,2L125.3,94.2z"/>
	<path class="st2" d="M125.3,94.2l-8.6,16.2c-0.5,2-0.2,4.1,1,5.7c1.8,2.2,4.8,3,7.5,2L125.3,94.2z"/>
	<ellipse class="st3" cx="132.1" cy="90.6" rx="3.5" ry="5.9"/>
	<ellipse class="st3" cx="143.2" cy="93.1" rx="3.5" ry="5.9"/>
	<path class="st3" d="M128.6,113.4l3.5-9.2c0.9-1.5,2.5-2.5,4.2-2.7c2.2-0.2,4.4,0.8,5.6,2.7l4.8,11.1c0.4,0.6,0.5,1.4,0.3,2.1
		c-0.2,0.5-0.6,0.9-1.1,1.2l-15.9-2.9c-0.8,0.1-1.5-0.5-1.6-1.3C128.4,114,128.4,113.6,128.6,113.4L128.6,113.4z"/>
	<path class="st2" d="M116.7,149.5c0,0,7-9.2,8.2-26.4s0-39.8,0-39.8c0.3-8.5,3.7-16.7,9.5-23c9.7-10.6,20.2-13.6,27.9-14.4
		s30.4,2.7,38.6,21.9c2.3,3.4,3.8,7.2,4.5,11.2c0.8,6,1.3,18.6,1.3,18.6v24.2c0,0,6.7,26,9.5,29.9s-15.7,5.5-23.4,4.2
		c0,0-10.2,7.5-30.9,6.5s-24.1-6.5-24.1-6.5S120.4,157.2,116.7,149.5z"/>
	<ellipse class="st4" cx="192.9" cy="91.2" rx="30.2" ry="29.2"/>
	<path class="st5" d="M223.9,168l7.5-3.6c1-0.5,1.4-1.6,0.9-2.6l-17.5-36.9l-11,5.2l17.5,36.9C221.8,168,223,168.4,223.9,168z"/>
	<path class="st3" d="M198.8,74.7c-9.7-3.4-20.4,1.6-23.8,11.3c-0.3,0.9,0.2,1.9,1.1,2.3c0.9,0.3,1.9-0.2,2.3-1.1
		c2.8-7.9,11.5-12,19.3-9.2c0.9,0.3,1.9-0.2,2.3-1.1C200.2,76,199.7,75,198.8,74.7z"/>
	<path class="st3" d="M216.4,124.2c-0.4-0.9-1.5-1.2-2.3-0.8l-3.9,1.9l-2.5-5.2c15.5-8.4,21.2-27.7,12.9-43.2
		c-8.4-15.5-27.7-21.2-43.2-12.9s-21.2,27.7-12.9,43.2c7.7,14.3,25,20.5,40,14.4l2.5,5.2l-3.9,1.9c-0.9,0.4-1.2,1.4-0.8,2.3
		c0,0,0,0,0,0l16.6,35.1c1.3,2.8,4.7,4.1,7.6,2.7c0,0,0,0,0,0l3.9-1.8c2.8-1.3,4.1-4.7,2.7-7.6c0,0,0,0,0,0L216.4,124.2z
		 M166.1,82.9c5.2-14.6,21.3-22.2,35.9-17c14.6,5.2,22.2,21.3,17,35.9c-5.2,14.6-21.3,22.2-35.9,17
		C168.5,113.6,160.9,97.5,166.1,82.9z M228.9,163.7l-3.9,1.8c-1.1,0.6-2.4,0.1-3-0.9c0,0,0,0,0-0.1L206.1,131l7.9-3.7l15.9,33.5
		c0.3,0.5,0.3,1.1,0.1,1.7C229.8,163,229.4,163.5,228.9,163.7L228.9,163.7z"/>
	<circle class="st3" cx="112" cy="64.5" r="2.7"/>
	<circle class="st6" cx="213.6" cy="61.8" r="1.9"/>
	<circle class="st3" cx="209.7" cy="56.4" r="1.9"/>
	<polygon class="st3" points="118.6,58.5 117.4,55.4 114.8,53.3 117.9,52.2 120,49.5 121.1,52.6 123.8,54.7 120.6,55.8 	"/>
</g>
</svg>
