<?xml version="1.0" encoding="utf-8"?>
<!-- Generator: Adobe Illustrator 20.1.0, SVG Export Plug-In . SVG Version: 6.00 Build 0)  -->
<svg version="1.1" id="Layer_1" xmlns="http://www.w3.org/2000/svg" xmlns:xlink="http://www.w3.org/1999/xlink" x="0px" y="0px"
	 viewBox="0 0 210 210" style="enable-background:new 0 0 210 210;" xml:space="preserve">
<style type="text/css">
	.st0{fill:#F3F7FB;}
	.st1{fill:#FFFFFF;}
	.st2{fill:#DCDCDC;stroke:#DCDCDC;stroke-width:3.1926;stroke-linecap:round;stroke-miterlimit:10;}
	.st3{fill:#DCDCDC;}
	.st4{fill:none;stroke:#000000;stroke-width:3;stroke-linecap:round;stroke-miterlimit:10;}
	.st5{fill:none;stroke:#000000;stroke-width:2;stroke-miterlimit:10;}
</style>
<g>
	<path class="st0" d="M11.9,93l67.2-73.6c8.8-9.7,23.8-10.3,33.4-1.5l0,0c9.7,8.8,10.3,23.8,1.5,33.4l-67.2,73.6
		c-8.8,9.7-23.8,10.3-33.4,1.5l0,0C3.8,117.6,3.1,102.6,11.9,93z"/>
	<path class="st0" d="M95.6,159.1l67.2-73.6c8.8-9.7,23.8-10.3,33.4-1.5l0,0c9.7,8.8,10.3,23.8,1.5,33.4L130.5,191
		c-8.8,9.7-23.8,10.3-33.4,1.5l0,0C87.5,183.8,86.8,168.8,95.6,159.1z"/>
	<path class="st0" d="M35.9,143.4L141.7,27.6c8.8-9.7,23.8-10.3,33.4-1.5l0,0c9.7,8.8,10.3,23.8,1.5,33.4L70.9,175.3
		c-8.8,9.7-23.8,10.3-33.4,1.5l0,0C27.8,168,27.1,153.1,35.9,143.4z"/>
</g>
<circle cx="153.9" cy="35.1" r="2.5"/>
<circle cx="171.4" cy="98.4" r="1.5"/>
<circle cx="63.5" cy="166.6" r="1"/>
<g>
	<path class="st1" d="M89.9,170.3c-1.4,0-2.5-1.1-2.5-2.5V77.1c0-1.4,1.1-2.5,2.5-2.5h61.5c1.4,0,2.5,1.1,2.5,2.5v90.7
		c0,1.4-1.1,2.5-2.5,2.5H89.9z"/>
	<path d="M151.4,75.7c0.8,0,1.5,0.7,1.5,1.5v90.7c0,0.8-0.7,1.5-1.5,1.5H89.9c-0.8,0-1.5-0.7-1.5-1.5V77.1c0-0.8,0.7-1.5,1.5-1.5
		H151.4 M151.4,73.7H89.9c-1.9,0-3.5,1.6-3.5,3.5v90.7c0,1.9,1.6,3.5,3.5,3.5h61.5c1.9,0,3.5-1.6,3.5-3.5V77.1
		C154.9,75.2,153.3,73.7,151.4,73.7L151.4,73.7z"/>
</g>
<line class="st2" x1="93.1" y1="143.1" x2="148.9" y2="143.1"/>
<line class="st2" x1="93.1" y1="159.3" x2="148.9" y2="159.3"/>
<circle class="st3" cx="125.6" cy="102.7" r="14.3"/>
<line class="st2" x1="92.4" y1="151.2" x2="123.7" y2="151.2"/>
<line class="st2" x1="130.9" y1="151.2" x2="148.9" y2="151.2"/>
<path class="st3" d="M138.3,138l-16.8-16.8c-1.6-1.6-1.6-4.2,0-5.8l0.1-0.1c1.6-1.6,4.2-1.6,5.8,0l16.8,16.8c1.6,1.6,1.6,4.2,0,5.8
	l-0.1,0.1C142.5,139.6,139.9,139.6,138.3,138z"/>
<g>
	<path class="st1" d="M62.3,154.3c-3.2,0-5.8-2.6-5.8-5.8V45.4c0-3.2,2.6-5.8,5.8-5.8h66.6c3.2,0,5.8,2.6,5.8,5.8v103.1
		c0,3.2-2.6,5.8-5.8,5.8H62.3z"/>
	<path d="M128.9,40.6c2.7,0,4.8,2.2,4.8,4.8v103.1c0,2.7-2.2,4.8-4.8,4.8H62.3c-2.7,0-4.8-2.2-4.8-4.8V45.4c0-2.7,2.2-4.8,4.8-4.8
		H128.9 M128.9,38.6H62.3c-3.8,0-6.8,3.1-6.8,6.8v103.1c0,3.8,3.1,6.8,6.8,6.8h66.6c3.8,0,6.8-3.1,6.8-6.8V45.4
		C135.7,41.6,132.6,38.6,128.9,38.6L128.9,38.6z"/>
</g>
<path class="st4" d="M102.3,81.7c2.2,2.8,4.4,2.8,6.6,0"/>
<path class="st4" d="M81.3,81.6c2.2,2.8,4.4,2.8,6.6,0"/>
<path class="st4" d="M86.9,98.7c4.8-4.8,12.8-5,17.3,0"/>
<g>
	<path class="st1" d="M142.5,134.8c-0.8,0-1.6-0.3-2.2-0.9l-16.8-16.8c-0.6-0.6-0.9-1.4-0.9-2.2s0.3-1.6,0.9-2.2l0.1-0.1
		c0.6-0.6,1.4-0.9,2.2-0.9c0.8,0,1.6,0.3,2.2,0.9l16.8,16.8c1.2,1.2,1.2,3.2,0,4.4l-0.1,0.1C144.2,134.5,143.4,134.8,142.5,134.8z"
		/>
	<path d="M125.9,112.7c0.6,0,1.1,0.2,1.5,0.6l16.8,16.8c0.8,0.8,0.8,2.2,0,3l-0.1,0.1c-0.4,0.4-0.9,0.6-1.5,0.6s-1.1-0.2-1.5-0.6
		l-16.8-16.8c-0.4-0.4-0.6-0.9-0.6-1.5s0.2-1.1,0.6-1.5l0.1-0.1C124.8,112.9,125.3,112.7,125.9,112.7 M125.9,110.7
		c-1.1,0-2.1,0.4-2.9,1.2l-0.1,0.1c-1.6,1.6-1.6,4.2,0,5.8l16.8,16.8c0.8,0.8,1.9,1.2,2.9,1.2s2.1-0.4,2.9-1.2l0.1-0.1
		c1.6-1.6,1.6-4.2,0-5.8l-16.8-16.8C128,111.1,127,110.7,125.9,110.7L125.9,110.7z"/>
</g>
<line class="st5" x1="120.7" y1="109.4" x2="123.4" y2="112.1"/>
<polygon class="st3" points="77,69.7 82,64.7 117.6,64.7 122.1,69.7 "/>
<polygon class="st3" points="75.8,106.2 81,111.2 118.4,111.2 123.2,106.2 "/>
<line class="st2" x1="68.4" y1="47.2" x2="124.2" y2="47.2"/>
<line class="st2" x1="68.4" y1="55.6" x2="124.2" y2="55.6"/>
<line class="st2" x1="68.4" y1="125" x2="124.2" y2="125"/>
<line class="st2" x1="68.4" y1="141.1" x2="124.2" y2="141.1"/>
<line class="st2" x1="68.4" y1="133" x2="99.6" y2="133"/>
<line class="st2" x1="106.1" y1="133" x2="124.2" y2="133"/>
<path class="st3" d="M78.7,67.4l-9.3,0c-1.6,0-2.7,1.7-2.7,2.3l0,36c0,1.3,1.5,3.7,3.2,3.7h8.8l-3.2-3.2l-5.2,0
	c-0.7,0-0.9-0.3-0.9-0.9l0-5.9l0-22.8l0-5c0-0.6,0.3-0.9,0.9-0.9l5.6,0C76.5,69.3,77.1,68.2,78.7,67.4z"/>
<path class="st3" d="M123.4,105.8c0,0,0.9,0.6,0.9,1.7c0,0.9-0.8,2-3.6,2L123.4,105.8z"/>
<path class="st3" d="M123.4,71c0,0,0.9-0.6,0.9-1.7c0-0.9-0.8-2-3.6-2L123.4,71z"/>
<g>
	<path d="M99.6,60.3c15.5,0,28.1,12.6,28.1,28.1s-12.6,28.1-28.1,28.1s-28.1-12.6-28.1-28.1S84.1,60.3,99.6,60.3 M99.6,58.3
		c-16.6,0-30.1,13.5-30.1,30.1c0,16.6,13.5,30.1,30.1,30.1s30.1-13.5,30.1-30.1C129.7,71.8,116.2,58.3,99.6,58.3L99.6,58.3z"/>
</g>
</svg>
