<?xml version="1.0" encoding="utf-8"?>
<!-- Generator: Adobe Illustrator 22.1.0, SVG Export Plug-In . SVG Version: 6.00 Build 0)  -->
<svg version="1.0" id="Layer_1" xmlns="http://www.w3.org/2000/svg" xmlns:xlink="http://www.w3.org/1999/xlink" x="0px" y="0px"
	 viewBox="0 0 343 215" style="enable-background:new 0 0 343 215;" xml:space="preserve">
<style type="text/css">
	.st0{fill:#F3F7FB;}
	.st1{fill:#F7E28B;}
	.st2{fill:none;stroke:#323842;stroke-width:1.8;stroke-miterlimit:10;}
	.st3{fill:#F0F4F6;}
	.st4{fill:#323842;}
	.st5{opacity:0.7;fill:#ED694A;enable-background:new    ;}
	.st6{fill:#E13028;}
	.st7{fill:none;stroke:#323842;stroke-width:2;stroke-miterlimit:10;}
	.st8{fill:#FFFFFF;}
</style>
<g>
	<path class="st0" d="M78.6,95.3l67.2-73.6c8.8-9.7,23.8-10.3,33.4-1.5l0,0c9.7,8.8,10.3,23.8,1.5,33.4l-67.2,73.6
		c-8.8,9.7-23.8,10.3-33.4,1.5l0,0C70.5,119.9,69.8,104.9,78.6,95.3z"/>
	<path class="st0" d="M162.3,161.4l67.2-73.6c8.8-9.7,23.8-10.3,33.4-1.5l0,0c9.7,8.8,10.3,23.8,1.5,33.4l-67.2,73.6
		c-8.8,9.7-23.8,10.3-33.4,1.5l0,0C154.2,186.1,153.5,171.1,162.3,161.4z"/>
	<path class="st0" d="M102.6,145.7L208.4,29.9c8.8-9.7,23.8-10.3,33.4-1.5l0,0c9.7,8.8,10.3,23.8,1.5,33.4L137.6,177.6
		c-8.8,9.7-23.8,10.3-33.4,1.5l0,0C94.5,170.3,93.8,155.4,102.6,145.7z"/>
</g>
<title>notifications</title>
<g id="Layer_3">
	<path class="st1" d="M182.1,142.5v19.9c-0.8,4.9-4.4,8.5-8.7,8.8c-4.7,0.3-8.9-3.5-9.8-8.8v-19.9c0-0.3,0.1-0.6,0.3-0.8
		c0.2-0.3,0.6-0.5,0.9-0.5h16c0.4,0.1,0.7,0.2,0.9,0.5C181.9,141.9,182,142.2,182.1,142.5z"/>
	<path class="st2" d="M182.1,142.5v19.9c-0.8,4.9-4.4,8.5-8.7,8.8c-4.7,0.3-8.9-3.5-9.8-8.8v-19.9c0-0.3,0.1-0.6,0.3-0.8
		c0.2-0.3,0.6-0.5,0.9-0.5h16c0.4,0.1,0.7,0.2,0.9,0.5C181.9,141.9,182,142.2,182.1,142.5z"/>
	<path class="st3" d="M140.1,142.8V79.2c2.7-15.6,15.7-27.3,30.9-28.1c16.5-0.9,31.6,11.1,34.6,28.1v63.7c0,0.9-0.4,1.8-0.9,2.5
		c-0.8,1-2,1.6-3.3,1.7h-56.6c-1.3-0.2-2.5-0.8-3.3-1.7C140.7,144.7,140.3,143.8,140.1,142.8z"/>
	<path class="st2" d="M140.1,142.8V79.2c2.7-15.6,15.7-27.3,30.9-28.1c16.5-0.9,31.6,11.1,34.6,28.1v63.7c0,0.9-0.4,1.8-0.9,2.5
		c-0.8,1-2,1.6-3.3,1.7h-56.6c-1.3-0.2-2.5-0.8-3.3-1.7C140.7,144.7,140.3,143.8,140.1,142.8z"/>
	<circle class="st4" cx="161.6" cy="82.7" r="3.7"/>
	<circle class="st4" cx="124.7" cy="68.5" r="2.7"/>
	<circle class="st5" cx="152.4" cy="93.1" r="3.7"/>
	<circle class="st4" cx="183.7" cy="82.7" r="3.7"/>
	<circle class="st6" cx="201.5" cy="64.3" r="11.2"/>
	<circle class="st5" cx="192.5" cy="93.1" r="3.7"/>
	<path class="st4" d="M173.1,95.8c1.6,0,3.1,0,4.7,0c0.7,0,1,0.1,0.9,0.9c-0.3,2.9-2.8,5-5.7,4.9c-3.1,0.1-5.2-1.6-5.8-4.5
		c-0.2-0.9,0-1.3,1-1.3C169.8,95.9,171.5,95.8,173.1,95.8z"/>
	<path class="st5" d="M173,97.7c0.9,0,1.8,0,2.6,0c0.4,0,0.5,0.1,0.5,0.5c-0.1,1.6-1.6,2.8-3.2,2.7c-1.6,0.2-3-0.9-3.2-2.5
		c-0.1-0.5,0-0.8,0.6-0.7C171.2,97.8,172.1,97.7,173,97.7z"/>
	<polygon class="st4" points="131.1,57.8 130,54.7 127.3,52.6 130.4,51.5 132.5,48.8 133.6,52 136.3,54 133.2,55.2 	"/>
	<path class="st7" d="M208.2,43.8L208.2,43.8c0.5,0,0.9,0.4,0.9,0.9v3.8c0,0.5-0.4,0.9-0.9,0.9h0c-0.5,0-0.9-0.4-0.9-0.9v-3.8
		C207.3,44.2,207.7,43.8,208.2,43.8z"/>
	<path class="st7" d="M221,57.4L221,57.4c0,0.5-0.4,0.9-0.9,0.9h-3.8c-0.5,0-0.9-0.4-0.9-0.9v0c0-0.5,0.4-0.9,0.9-0.9h3.8
		C220.6,56.5,221,56.9,221,57.4z"/>
	<path class="st7" d="M217.3,47.8L217.3,47.8c0.4,0.4,0.4,0.9,0,1.3l-2.7,2.7c-0.4,0.4-0.9,0.4-1.3,0l0,0c-0.4-0.4-0.4-0.9,0-1.3
		l2.7-2.7C216.4,47.5,216.9,47.5,217.3,47.8z"/>
	<path class="st2" d="M140.1,118.6c1.5,3.1,9.9,7.7,13.8,3.3c2.5-2.9,2.2-7.9-2.9-11.4"/>
	<path class="st2" d="M205.7,118.6c-1.5,3.1-9.9,7.7-13.8,3.3c-2.5-2.9-2.2-7.9,2.9-11.4"/>
	<path class="st8" d="M206.3,64.2c0,3.9-1.6,6.6-4.9,6.6s-4.7-3-4.8-6.6s1.6-6.6,4.9-6.6S206.3,60.7,206.3,64.2z M199.7,64.3
		c0,2.9,0.7,4.3,1.8,4.3s1.8-1.4,1.8-4.3s-0.6-4.3-1.8-4.3S199.7,61.4,199.7,64.3L199.7,64.3z"/>
</g>
</svg>
