<svg id="Layer_2" data-name="Layer 2" xmlns="http://www.w3.org/2000/svg" viewBox="0 0 49.08 46.37"><title>payment description</title><rect x="-3.16" y="11.15" width="35.88" height="11.55" rx="4.93" ry="4.93" transform="translate(36.79 15.59) rotate(132.38)" style="fill:#f3f7fb"/><rect x="17.28" y="27.3" width="35.88" height="11.55" rx="4.93" ry="4.93" transform="translate(82.93 27.54) rotate(132.38)" style="fill:#f3f7fb"/><rect x="0.44" y="18.31" width="49.84" height="11.55" rx="4.93" ry="4.93" transform="translate(59.79 19.77) rotate(132.38)" style="fill:#f3f7fb"/><g style="isolation:isolate"><path d="M37.69,16.88A1.14,1.14,0,0,0,37,15.51a1.08,1.08,0,0,0,1.38-.74,1.11,1.11,0,0,0,.73,1.37C38.4,16.14,37.86,16.35,37.69,16.88Z" transform="translate(-0.46 -1.82)" style="fill:#323842"/></g><path d="M36.84,13.65a.74.74,0,1,1,.73-.73A.73.73,0,0,1,36.84,13.65Zm0-1.22a.49.49,0,1,0,.49.49A.49.49,0,0,0,36.84,12.43Z" transform="translate(-0.46 -1.82)" style="fill:#323842"/><g style="isolation:isolate"><path d="M13.68,41.31a1.16,1.16,0,0,0-1.49-.47,1.07,1.07,0,0,0,.47-1.48,1.13,1.13,0,0,0,1.49.47C13.67,40.29,13.43,40.81,13.68,41.31Z" transform="translate(-0.46 -1.82)" style="fill:#4cbd91"/></g><path d="M10.21,40.74a.71.71,0,0,1-.53-.22.74.74,0,0,1,0-1,.73.73,0,0,1,1,0,.71.71,0,0,1,0,1A.7.7,0,0,1,10.21,40.74Zm0-1.22a.48.48,0,0,0-.34.14.49.49,0,0,0,0,.69.58.58,0,0,0,.35.15.49.49,0,0,0,.34-.14.45.45,0,0,0,.15-.34.44.44,0,0,0-.13-.35A.5.5,0,0,0,10.21,39.52Z" transform="translate(-0.46 -1.82)" style="fill:#323842"/><path d="M11.69,38h0a.73.73,0,1,1,.53-1.24.73.73,0,0,1,.21.52.73.73,0,0,1-.22.52A.74.74,0,0,1,11.69,38Zm0-1.22a.49.49,0,0,0-.34.14.49.49,0,0,0-.15.34.5.5,0,0,0,.14.35.49.49,0,0,0,.69,0,.53.53,0,0,0,.15-.34A.52.52,0,0,0,12,37,.49.49,0,0,0,11.69,36.8Z" transform="translate(-0.46 -1.82)" style="fill:#323842"/><g style="isolation:isolate"><rect x="13.81" y="8.9" width="19.51" height="25.87" rx="1" ry="1" style="fill:#f1f5f7"/><path d="M33.53,36.84h-19a.48.48,0,0,1-.48-.49V11a.47.47,0,0,1,.48-.48h19A.48.48,0,0,1,34,11V36.35A.49.49,0,0,1,33.53,36.84ZM14.51,11V36.35h19V11Z" transform="translate(-0.46 -1.82)" style="fill:#323842"/></g><g style="isolation:isolate"><rect x="15.29" y="10.75" width="16.54" height="4.93" rx="1" ry="1" style="fill:#fff"/></g><g style="isolation:isolate"><rect x="15.29" y="17.12" width="16.54" height="4.93" rx="1" ry="1" style="fill:#fff"/></g><g style="isolation:isolate"><rect x="15.29" y="23.07" width="16.54" height="4.93" rx="1" ry="1" style="fill:#fff"/></g><g style="isolation:isolate"><path d="M20,16.5H17v-3h3Zm-2.78-.24h2.54V13.72H17.25Z" transform="translate(-0.46 -1.82)" style="fill:#323842"/></g><g style="isolation:isolate"><polygon points="17.69 13.99 17.17 13.26 17.57 12.98 17.77 13.27 18.58 12.54 18.91 12.91 17.69 13.99" style="fill:#20cc40"/></g><g style="isolation:isolate"><path d="M31.29,14.63H21a.25.25,0,1,1,0-.49H31.29a.25.25,0,0,1,0,.49Z" transform="translate(-0.46 -1.82)" style="fill:#c2c3c6"/></g><g style="isolation:isolate"><path d="M24.86,15.84H21a.24.24,0,1,1,0-.48h3.82a.24.24,0,1,1,0,.48Z" transform="translate(-0.46 -1.82)" style="fill:#c2c3c6"/></g><g style="isolation:isolate"><path d="M20,22.85H17v-3h3Zm-2.78-.24h2.54V20.07H17.25Z" transform="translate(-0.46 -1.82)" style="fill:#323842"/></g><g style="isolation:isolate"><polygon points="17.69 20.34 17.17 19.61 17.57 19.32 17.77 19.61 18.58 18.89 18.91 19.25 17.69 20.34" style="fill:#20cc40"/></g><g style="isolation:isolate"><path d="M31.29,21H21a.24.24,0,0,1-.25-.24.25.25,0,0,1,.25-.24H31.29a.24.24,0,0,1,.24.24A.24.24,0,0,1,31.29,21Z" transform="translate(-0.46 -1.82)" style="fill:#c2c3c6"/></g><g style="isolation:isolate"><path d="M24.86,22.19H21a.25.25,0,1,1,0-.49h3.82a.25.25,0,0,1,0,.49Z" transform="translate(-0.46 -1.82)" style="fill:#c2c3c6"/></g><g style="isolation:isolate"><path d="M20,29H17v-3h3Zm-2.78-.24h2.54V26.17H17.25Z" transform="translate(-0.46 -1.82)" style="fill:#323842"/></g><g style="isolation:isolate"><polygon points="17.69 26.44 17.17 25.71 17.57 25.43 17.77 25.71 18.58 24.99 18.91 25.36 17.69 26.44" style="fill:#20cc40"/></g><g style="isolation:isolate"><path d="M31.29,27.08H21a.25.25,0,1,1,0-.49H31.29a.25.25,0,0,1,0,.49Z" transform="translate(-0.46 -1.82)" style="fill:#c2c3c6"/></g><g style="isolation:isolate"><path d="M24.86,28.29H21a.25.25,0,0,1-.25-.24.24.24,0,0,1,.25-.24h3.82a.24.24,0,0,1,.24.24A.24.24,0,0,1,24.86,28.29Z" transform="translate(-0.46 -1.82)" style="fill:#c2c3c6"/></g><g style="isolation:isolate"><path d="M39.09,26.25v11.2q.87,1.47,1.59,0V26.25Z" transform="translate(-0.46 -1.82)" style="fill:#f1f5f7"/></g><path d="M29.35,26.25l9.74-.12L39,37.21c.25.43.39.82.25,1.09H30.33a1.57,1.57,0,0,1-1-1Z" transform="translate(-0.46 -1.82)" style="fill:#fff"/><path d="M38.93,26.36v11.3c1,0,1.57-.23,1.34-.9V26.45Z" transform="translate(-0.46 -1.82)" style="fill:#e54a43"/><g style="isolation:isolate"><path d="M29.6,33v3.71a1.13,1.13,0,0,0,1,1.22h8.91a1.14,1.14,0,0,0,1-1.22V26.44a.27.27,0,0,0-.24-.28H37.73a2.72,2.72,0,0,0-3.45-2.39l.45.22a2.35,2.35,0,0,1,2.76,2.17H36.37a2.3,2.3,0,0,0-2.08-2.39,2.3,2.3,0,0,0-2.09,2.39H29.83a.26.26,0,0,0-.23.28v5.29c0,.27.34.33.35,0V26.6H32.2v1.15a1,1,0,0,0-.65,1,.84.84,0,0,0,.88.83.83.83,0,0,0,.83-.87,1,1,0,0,0-.71-1V26.6H36v1.15a.93.93,0,0,0,.12,1.84.88.88,0,0,0,.89-.83,1,1,0,0,0-.65-1V26.6h2.25v9.68H37.44a.22.22,0,0,0,0,.44h1.19a1.18,1.18,0,0,0,.27.79H30.62a.83.83,0,0,1-.67-.78V33C30,32.68,29.6,32.68,29.6,33ZM33,28.67a.62.62,0,0,1-1.23,0,.63.63,0,0,1,.27-.52v.28a.35.35,0,0,0,.69,0v-.28A.63.63,0,0,1,33,28.67Zm3.73,0a.61.61,0,0,1-1.22,0,.63.63,0,0,1,.27-.52v.28a.34.34,0,0,0,.68,0v-.28A.61.61,0,0,1,36.76,28.67ZM34.3,24.05A2,2,0,0,1,36,26.2H32.57A2,2,0,0,1,34.3,24.05Zm5.91,12.79a.63.63,0,1,1-1.25,0V26.59h1.25Z" transform="translate(-0.46 -1.82)" style="fill:#323842"/></g><path d="M36.45,36.29a.22.22,0,0,0,0,.32.24.24,0,0,0,.17.07.23.23,0,0,0,.16-.39.2.2,0,0,0-.16-.07A.21.21,0,0,0,36.45,36.29Z" transform="translate(-0.46 -1.82)"/><rect x="-3.16" y="11.15" width="35.88" height="11.55" rx="4.93" ry="4.93" transform="translate(36.79 15.59) rotate(132.38)" style="fill:#f3f7fb"/><rect x="17.28" y="27.3" width="35.88" height="11.55" rx="4.93" ry="4.93" transform="translate(82.93 27.54) rotate(132.38)" style="fill:#f3f7fb"/><rect x="0.44" y="18.31" width="49.84" height="11.55" rx="4.93" ry="4.93" transform="translate(59.79 19.77) rotate(132.38)" style="fill:#f3f7fb"/><g style="isolation:isolate"><path d="M37.69,16.88A1.14,1.14,0,0,0,37,15.51a1.08,1.08,0,0,0,1.38-.74,1.11,1.11,0,0,0,.73,1.37C38.4,16.14,37.86,16.35,37.69,16.88Z" transform="translate(-0.46 -1.82)" style="fill:#323842"/></g><path d="M36.84,13.65a.74.74,0,1,1,.73-.73A.73.73,0,0,1,36.84,13.65Zm0-1.22a.49.49,0,1,0,.49.49A.49.49,0,0,0,36.84,12.43Z" transform="translate(-0.46 -1.82)" style="fill:#323842"/><g style="isolation:isolate"><path d="M13.68,41.31a1.16,1.16,0,0,0-1.49-.47,1.07,1.07,0,0,0,.47-1.48,1.13,1.13,0,0,0,1.49.47C13.67,40.29,13.43,40.81,13.68,41.31Z" transform="translate(-0.46 -1.82)" style="fill:#4cbd91"/></g><path d="M10.21,40.74a.71.71,0,0,1-.53-.22.74.74,0,0,1,0-1,.73.73,0,0,1,1,0,.71.71,0,0,1,0,1A.7.7,0,0,1,10.21,40.74Zm0-1.22a.48.48,0,0,0-.34.14.49.49,0,0,0,0,.69.58.58,0,0,0,.35.15.49.49,0,0,0,.34-.14.45.45,0,0,0,.15-.34.44.44,0,0,0-.13-.35A.5.5,0,0,0,10.21,39.52Z" transform="translate(-0.46 -1.82)" style="fill:#323842"/><path d="M11.69,38h0a.73.73,0,1,1,.53-1.24.73.73,0,0,1,.21.52.73.73,0,0,1-.22.52A.74.74,0,0,1,11.69,38Zm0-1.22a.49.49,0,0,0-.34.14.49.49,0,0,0-.15.34.5.5,0,0,0,.14.35.49.49,0,0,0,.69,0,.53.53,0,0,0,.15-.34A.52.52,0,0,0,12,37,.49.49,0,0,0,11.69,36.8Z" transform="translate(-0.46 -1.82)" style="fill:#323842"/><g style="isolation:isolate"><rect x="13.81" y="8.9" width="19.51" height="25.87" rx="1" ry="1" style="fill:#f1f5f7"/><path d="M33.53,36.84h-19a.48.48,0,0,1-.48-.49V11a.47.47,0,0,1,.48-.48h19A.48.48,0,0,1,34,11V36.35A.49.49,0,0,1,33.53,36.84ZM14.51,11V36.35h19V11Z" transform="translate(-0.46 -1.82)" style="fill:#323842"/></g><g style="isolation:isolate"><rect x="15.29" y="10.75" width="16.54" height="4.93" rx="1" ry="1" style="fill:#fff"/></g><g style="isolation:isolate"><rect x="15.29" y="17.12" width="16.54" height="4.93" rx="1" ry="1" style="fill:#fff"/></g><g style="isolation:isolate"><rect x="15.29" y="23.07" width="16.54" height="4.93" rx="1" ry="1" style="fill:#fff"/></g><g style="isolation:isolate"><path d="M20,16.5H17v-3h3Zm-2.78-.24h2.54V13.72H17.25Z" transform="translate(-0.46 -1.82)" style="fill:#323842"/></g><g style="isolation:isolate"><polygon points="17.69 13.99 17.17 13.26 17.57 12.98 17.77 13.27 18.58 12.54 18.91 12.91 17.69 13.99" style="fill:#20cc40"/></g><g style="isolation:isolate"><path d="M31.29,14.63H21a.25.25,0,1,1,0-.49H31.29a.25.25,0,0,1,0,.49Z" transform="translate(-0.46 -1.82)" style="fill:#c2c3c6"/></g><g style="isolation:isolate"><path d="M24.86,15.84H21a.24.24,0,1,1,0-.48h3.82a.24.24,0,1,1,0,.48Z" transform="translate(-0.46 -1.82)" style="fill:#c2c3c6"/></g><g style="isolation:isolate"><path d="M20,22.85H17v-3h3Zm-2.78-.24h2.54V20.07H17.25Z" transform="translate(-0.46 -1.82)" style="fill:#323842"/></g><g style="isolation:isolate"><polygon points="17.69 20.34 17.17 19.61 17.57 19.32 17.77 19.61 18.58 18.89 18.91 19.25 17.69 20.34" style="fill:#20cc40"/></g><g style="isolation:isolate"><path d="M31.29,21H21a.24.24,0,0,1-.25-.24.25.25,0,0,1,.25-.24H31.29a.24.24,0,0,1,.24.24A.24.24,0,0,1,31.29,21Z" transform="translate(-0.46 -1.82)" style="fill:#c2c3c6"/></g><g style="isolation:isolate"><path d="M24.86,22.19H21a.25.25,0,1,1,0-.49h3.82a.25.25,0,0,1,0,.49Z" transform="translate(-0.46 -1.82)" style="fill:#c2c3c6"/></g><g style="isolation:isolate"><path d="M20,29H17v-3h3Zm-2.78-.24h2.54V26.17H17.25Z" transform="translate(-0.46 -1.82)" style="fill:#323842"/></g><g style="isolation:isolate"><polygon points="17.69 26.44 17.17 25.71 17.57 25.43 17.77 25.71 18.58 24.99 18.91 25.36 17.69 26.44" style="fill:#20cc40"/></g><g style="isolation:isolate"><path d="M31.29,27.08H21a.25.25,0,1,1,0-.49H31.29a.25.25,0,0,1,0,.49Z" transform="translate(-0.46 -1.82)" style="fill:#c2c3c6"/></g><g style="isolation:isolate"><path d="M24.86,28.29H21a.25.25,0,0,1-.25-.24.24.24,0,0,1,.25-.24h3.82a.24.24,0,0,1,.24.24A.24.24,0,0,1,24.86,28.29Z" transform="translate(-0.46 -1.82)" style="fill:#c2c3c6"/></g><g style="isolation:isolate"><path d="M39.09,26.25v11.2q.87,1.47,1.59,0V26.25Z" transform="translate(-0.46 -1.82)" style="fill:#f1f5f7"/></g><path d="M29.35,26.25l9.74-.12L39,37.21c.25.43.39.82.25,1.09H30.33a1.57,1.57,0,0,1-1-1Z" transform="translate(-0.46 -1.82)" style="fill:#fff"/><path d="M38.93,26.36v11.3c1,0,1.57-.23,1.34-.9V26.45Z" transform="translate(-0.46 -1.82)" style="fill:#e54a43"/><g style="isolation:isolate"><path d="M29.6,33v3.71a1.13,1.13,0,0,0,1,1.22h8.91a1.14,1.14,0,0,0,1-1.22V26.44a.27.27,0,0,0-.24-.28H37.73a2.72,2.72,0,0,0-3.45-2.39l.45.22a2.35,2.35,0,0,1,2.76,2.17H36.37a2.3,2.3,0,0,0-2.08-2.39,2.3,2.3,0,0,0-2.09,2.39H29.83a.26.26,0,0,0-.23.28v5.29c0,.27.34.33.35,0V26.6H32.2v1.15a1,1,0,0,0-.65,1,.84.84,0,0,0,.88.83.83.83,0,0,0,.83-.87,1,1,0,0,0-.71-1V26.6H36v1.15a.93.93,0,0,0,.12,1.84.88.88,0,0,0,.89-.83,1,1,0,0,0-.65-1V26.6h2.25v9.68H37.44a.22.22,0,0,0,0,.44h1.19a1.18,1.18,0,0,0,.27.79H30.62a.83.83,0,0,1-.67-.78V33C30,32.68,29.6,32.68,29.6,33ZM33,28.67a.62.62,0,0,1-1.23,0,.63.63,0,0,1,.27-.52v.28a.35.35,0,0,0,.69,0v-.28A.63.63,0,0,1,33,28.67Zm3.73,0a.61.61,0,0,1-1.22,0,.63.63,0,0,1,.27-.52v.28a.34.34,0,0,0,.68,0v-.28A.61.61,0,0,1,36.76,28.67ZM34.3,24.05A2,2,0,0,1,36,26.2H32.57A2,2,0,0,1,34.3,24.05Zm5.91,12.79a.63.63,0,1,1-1.25,0V26.59h1.25Z" transform="translate(-0.46 -1.82)" style="fill:#323842"/></g><path d="M36.45,36.29a.22.22,0,0,0,0,.32.24.24,0,0,0,.17.07.23.23,0,0,0,.16-.39.2.2,0,0,0-.16-.07A.21.21,0,0,0,36.45,36.29Z" transform="translate(-0.46 -1.82)"/></svg>