<svg id="Layer_3" data-name="Layer 3" xmlns="http://www.w3.org/2000/svg" xmlns:xlink="http://www.w3.org/1999/xlink" viewBox="0 0 47 44.37"><defs><clipPath id="clip-path" transform="translate(-1.5 -2.82)"><rect x="30.92" y="10.42" width="10.65" height="10" style="fill:none"/></clipPath></defs><title>PAYMENT HISTORY</title><rect x="-2.35" y="11.54" width="34.85" height="11.22" rx="5.61" ry="5.61" transform="translate(36.41 14.77) rotate(132.38)" style="fill:#f3f7fb"/><rect x="17.5" y="27.24" width="34.85" height="11.22" rx="5.61" ry="5.61" transform="translate(81.23 26.37) rotate(132.38)" style="fill:#f3f7fb"/><rect x="1.15" y="18.5" width="48.41" height="11.22" rx="5.61" ry="5.61" transform="translate(58.75 18.82) rotate(132.38)" style="fill:#f3f7fb"/><g style="isolation:isolate"><path d="M11.15,37.53a1.12,1.12,0,0,0-1.44-.46,1,1,0,0,0,.46-1.44,1.09,1.09,0,0,0,1.44.46A1.23,1.23,0,0,0,11.15,37.53Z" transform="translate(-1.5 -2.82)" style="fill:#4cbd91"/></g><path d="M7.78,37a.7.7,0,0,1-.51-.22.71.71,0,0,1,1-1,.66.66,0,0,1,.2.51.71.71,0,0,1-.21.5A.74.74,0,0,1,7.78,37Zm0-1.18a.46.46,0,0,0-.33.13.47.47,0,0,0,.32.81.43.43,0,0,0,.34-.13.53.53,0,0,0,.15-.33.48.48,0,0,0-.14-.34A.44.44,0,0,0,7.78,35.79Z" transform="translate(-1.5 -2.82)" style="fill:#323842"/><path d="M9.22,34.33h0a.71.71,0,0,1-.5-.21.72.72,0,0,1,0-1,.7.7,0,0,1,1,0,.63.63,0,0,1,.2.5.71.71,0,0,1-.21.5A.72.72,0,0,1,9.22,34.33Zm0-1.18a.48.48,0,0,0-.33.13.47.47,0,0,0,.66.68.46.46,0,0,0,.15-.33.48.48,0,0,0-.48-.48Z" transform="translate(-1.5 -2.82)" style="fill:#323842"/><g style="isolation:isolate"><path d="M38.51,27.31A1.1,1.1,0,0,0,37.8,26a1,1,0,0,0,1.33-.72,1.08,1.08,0,0,0,.72,1.33C39.2,26.59,38.68,26.79,38.51,27.31Z" transform="translate(-1.5 -2.82)" style="fill:#323842"/></g><g style="isolation:isolate"><path d="M43.88,30.18a1.11,1.11,0,0,0-1.45-.46,1,1,0,0,0,.46-1.44,1.09,1.09,0,0,0,1.45.45A1.24,1.24,0,0,0,43.88,30.18Z" transform="translate(-1.5 -2.82)" style="fill:#4cbd91"/></g><path d="M40.51,29.62A.67.67,0,0,1,40,29.4a.7.7,0,0,1,0-1,.71.71,0,0,1,1,0h0a.72.72,0,0,1,0,1A.73.73,0,0,1,40.51,29.62Zm0-1.19a.47.47,0,0,0-.33.14.46.46,0,0,0-.15.33.48.48,0,0,0,.14.34.44.44,0,0,0,.33.14.43.43,0,0,0,.34-.13.48.48,0,0,0,0-.67h0A.48.48,0,0,0,40.51,28.43Z" transform="translate(-1.5 -2.82)" style="fill:#323842"/><path d="M42,27a.71.71,0,1,1,.49-.2A.71.71,0,0,1,42,27Zm0-1.18a.46.46,0,0,0-.33.13.47.47,0,0,0,0,.67.47.47,0,0,0,.68-.66A.45.45,0,0,0,42,25.8Z" transform="translate(-1.5 -2.82)" style="fill:#323842"/><g style="isolation:isolate"><circle cx="35.19" cy="12.52" r="4.44" style="fill:#fff"/></g><g style="isolation:isolate"><path d="M36,15.6a.37.37,0,0,0,0,.11v0a.37.37,0,0,0,0,.11l0,0,.07.06,0,0,2.59,1.47a.33.33,0,1,0,.33-.58l-2.39-1.37L37,13.58a.32.32,0,0,0-.29-.37.34.34,0,0,0-.38.29L36,15.6Zm0,0" transform="translate(-1.5 -2.82)" style="fill:#323842"/></g><g style="clip-path:url(#clip-path)"><g style="isolation:isolate"><path d="M36.72,10.56a4.83,4.83,0,0,0-4.82,4.81,5.56,5.56,0,0,0,.17,1.5l-.65-.38a.34.34,0,0,0-.46.12.35.35,0,0,0,.12.47l1.53.88h0l.05,0h.25l0,0,0,0a.08.08,0,0,0,0,0s0,0,0,0l0,0h0l0,0,.6-1.5a.33.33,0,1,0-.62-.25l-.31.77a4.53,4.53,0,0,1-.18-1.43,4.15,4.15,0,1,1,4.14,4.15.34.34,0,0,0,0,.67,4.83,4.83,0,1,0,0-9.65Zm0,0" transform="translate(-1.5 -2.82)" style="fill:#323842"/></g></g><g style="isolation:isolate"><rect x="10.6" y="15.66" width="22.98" height="13.99" rx="1.83" ry="1.83" style="fill:#f1f5f7"/></g><rect x="12.47" y="18.36" width="6.88" height="1.73" rx="0.86" ry="0.86" style="fill:#e54a43"/><g style="isolation:isolate"><rect x="12.47" y="20.96" width="4.39" height="2.88" rx="1" ry="1" style="fill:#ffd113"/><path d="M18.12,26.78H14.21a.36.36,0,0,1-.36-.36V24a.36.36,0,0,1,.36-.36h3.91a.36.36,0,0,1,.36.36v2.4A.36.36,0,0,1,18.12,26.78ZM14.21,23.9a.12.12,0,0,0-.12.12v2.4a.12.12,0,0,0,.12.12h3.91a.12.12,0,0,0,.12-.12V24a.12.12,0,0,0-.12-.12Z" transform="translate(-1.5 -2.82)" style="fill:#323842"/></g><g style="isolation:isolate"><rect x="12.47" y="26.35" width="4.27" height="0.91" rx="0.46" ry="0.46" style="fill:#c2c3c6"/></g><g style="isolation:isolate"><rect x="17.45" y="26.35" width="4.27" height="0.91" rx="0.46" ry="0.46" style="fill:#c2c3c6"/></g><g style="isolation:isolate"><rect x="22.43" y="26.35" width="4.27" height="0.91" rx="0.46" ry="0.46" style="fill:#c2c3c6"/></g><g style="isolation:isolate"><rect x="27.18" y="26.35" width="4.27" height="0.91" rx="0.46" ry="0.46" style="fill:#c2c3c6"/></g><g style="isolation:isolate"><circle cx="27.65" cy="19.22" r="1.55" style="fill:#4cbf92"/><path d="M29.15,23.7A1.67,1.67,0,1,1,30.82,22,1.67,1.67,0,0,1,29.15,23.7Zm0-3.09A1.43,1.43,0,1,0,30.58,22,1.43,1.43,0,0,0,29.15,20.61Z" transform="translate(-1.5 -2.82)" style="fill:#323842"/></g><g style="isolation:isolate"><circle cx="29.78" cy="19.22" r="1.55" style="fill:#e54a43"/><path d="M31.28,23.7A1.67,1.67,0,1,1,32.94,22,1.66,1.66,0,0,1,31.28,23.7Zm0-3.09A1.43,1.43,0,1,0,32.71,22,1.43,1.43,0,0,0,31.28,20.61Z" transform="translate(-1.5 -2.82)" style="fill:#323842"/></g><g style="opacity:0.4;isolation:isolate"><polygon points="32.39 16.14 32.39 29.89 33.34 29.89 33.34 15.99 32.39 16.14" style="fill:#c2c3c6"/></g><g style="isolation:isolate"><path d="M34.64,32.94H12.54a.67.67,0,0,1-.67-.67V19.15a.67.67,0,0,1,.67-.67h22.1a.68.68,0,0,1,.68.67V32.27A.68.68,0,0,1,34.64,32.94ZM12.54,19a.2.2,0,0,0-.2.2V32.27a.2.2,0,0,0,.2.2h22.1a.2.2,0,0,0,.2-.2V19.15a.2.2,0,0,0-.2-.2Z" transform="translate(-1.5 -2.82)" style="fill:#323842"/></g></svg>