<svg id="Layer_5" data-name="Layer 5" xmlns="http://www.w3.org/2000/svg" viewBox="0 0 45.55 43"><title>review</title><rect x="-1.51" y="11.96" width="33.78" height="10.87" rx="5.44" ry="5.44" transform="translate(36.37 14.26) rotate(132.38)" style="fill:#f3f7fb"/><rect x="17.73" y="27.17" width="33.78" height="10.87" rx="5.44" ry="5.44" transform="translate(79.81 25.5) rotate(132.38)" style="fill:#f3f7fb"/><rect x="1.88" y="18.7" width="46.92" height="10.87" rx="5.44" ry="5.44" transform="translate(58.03 18.19) rotate(132.38)" style="fill:#f3f7fb"/><g style="isolation:isolate"><path d="M36.26,12.07a1.08,1.08,0,0,0-.7-1.29,1,1,0,0,0,1.3-.7,1.06,1.06,0,0,0,.69,1.3C36.92,11.37,36.42,11.57,36.26,12.07Z" transform="translate(-2.22 -3.5)" style="fill:#323842"/></g><g style="isolation:isolate"><path d="M11.58,37.14a1.09,1.09,0,0,0-1.4-.44,1,1,0,0,0,.45-1.4,1,1,0,0,0,1.39.44C11.57,36.18,11.35,36.67,11.58,37.14Z" transform="translate(-2.22 -3.5)" style="fill:#4cbd91"/></g><path d="M8.31,36.6a.67.67,0,0,1-.49-.21.68.68,0,0,1,0-1,.69.69,0,0,1,1,0,.7.7,0,0,1,0,1A.66.66,0,0,1,8.31,36.6Zm0-1.15a.5.5,0,0,0-.32.13.47.47,0,0,0,0,.65.46.46,0,0,0,.65,0,.43.43,0,0,0,.14-.32.46.46,0,0,0-.13-.33A.47.47,0,0,0,8.31,35.45Z" transform="translate(-2.22 -3.5)" style="fill:#323842"/><path d="M9.71,34h0a.67.67,0,0,1-.49-.21.69.69,0,0,1,0-1,.69.69,0,1,1,1,1A.66.66,0,0,1,9.71,34Zm0-1.14a.44.44,0,0,0-.32.13.43.43,0,0,0-.14.32.46.46,0,0,0,.13.33.47.47,0,0,0,.65,0,.45.45,0,0,0,.14-.33A.42.42,0,0,0,10,33,.43.43,0,0,0,9.71,32.9Z" transform="translate(-2.22 -3.5)" style="fill:#323842"/><g style="isolation:isolate"><path d="M41.46,14.85a1.08,1.08,0,0,0-1.4-.44A1,1,0,0,0,40.5,13a1.06,1.06,0,0,0,1.4.44C41.45,13.89,41.22,14.37,41.46,14.85Z" transform="translate(-2.22 -3.5)" style="fill:#4cbd91"/></g><path d="M38.19,14.31h0a.69.69,0,0,1-.49-.21.73.73,0,0,1-.19-.49.69.69,0,0,1,1.18-.47h0a.68.68,0,0,1,0,1A.67.67,0,0,1,38.19,14.31Zm0-1.15a.44.44,0,0,0-.32.13.43.43,0,0,0-.14.32.44.44,0,0,0,.13.33.43.43,0,0,0,.32.14.41.41,0,0,0,.33-.13.46.46,0,0,0,0-.65h0A.47.47,0,0,0,38.19,13.16Z" transform="translate(-2.22 -3.5)" style="fill:#323842"/><path d="M39.59,11.75a.7.7,0,0,1-.5-.21.69.69,0,0,1,1-1h0a.68.68,0,0,1-.49,1.17Zm0-1.15a.46.46,0,0,0-.32.13.45.45,0,0,0,0,.65.43.43,0,0,0,.32.14.41.41,0,0,0,.33-.13.47.47,0,0,0,0-.65.5.5,0,0,0-.33-.14Z" transform="translate(-2.22 -3.5)" style="fill:#323842"/><g style="isolation:isolate"><rect x="15.1" y="11.96" width="20.63" height="15.4" rx="1.83" ry="1.83" style="fill:#e1e4e5"/><path d="M37.54,31.09H17.75a.65.65,0,0,1-.65-.65V15.88a.65.65,0,0,1,.65-.65H37.54a.65.65,0,0,1,.65.65V30.44A.65.65,0,0,1,37.54,31.09ZM17.75,15.69a.19.19,0,0,0-.19.19V30.44a.19.19,0,0,0,.19.19H37.54a.2.2,0,0,0,.19-.19V15.88a.2.2,0,0,0-.19-.19Z" transform="translate(-2.22 -3.5)" style="fill:#323842"/></g><polygon points="16.95 23.82 17.76 23.43 17.89 22.53 18.52 23.18 19.41 23.03 18.99 23.82 19.41 24.62 18.52 24.47 17.89 25.11 17.76 24.22 16.95 23.82" style="fill:#ffd113"/><polygon points="20.45 23.82 21.26 23.43 21.39 22.53 22.02 23.18 22.91 23.03 22.49 23.82 22.91 24.62 22.02 24.47 21.39 25.11 21.26 24.22 20.45 23.82" style="fill:#ffd113"/><polygon points="23.95 23.82 24.76 23.43 24.89 22.53 25.52 23.18 26.41 23.03 25.98 23.82 26.41 24.62 25.52 24.47 24.89 25.11 24.76 24.22 23.95 23.82" style="fill:#ffd113"/><polygon points="27.45 23.82 28.26 23.43 28.39 22.53 29.02 23.18 29.9 23.03 29.48 23.82 29.9 24.62 29.02 24.47 28.39 25.11 28.26 24.22 27.45 23.82" style="fill:#ffd113"/><polygon points="30.95 23.82 31.75 23.43 31.89 22.53 32.51 23.18 33.4 23.03 32.98 23.82 33.4 24.62 32.51 24.47 31.89 25.11 31.75 24.22 30.95 23.82" style="fill:#fff"/><rect x="16.95" y="17.1" width="16.93" height="0.88" style="fill:#fff"/><rect x="16.95" y="14.68" width="6.79" height="1.68" style="fill:#e54a43"/><rect x="16.95" y="19.92" width="16.93" height="0.88" style="fill:#fff"/><rect x="16.95" y="18.49" width="10.66" height="0.88" style="fill:#dedfe8"/><g style="isolation:isolate"><rect x="9.82" y="15.64" width="20.63" height="15.4" rx="1.83" ry="1.83" style="fill:#f1f5f7"/><path d="M32.25,34.77H12.46a.65.65,0,0,1-.65-.65V19.56a.65.65,0,0,1,.65-.65H32.25a.65.65,0,0,1,.65.65V34.12A.65.65,0,0,1,32.25,34.77ZM12.46,19.37a.2.2,0,0,0-.19.19V34.12a.2.2,0,0,0,.19.19H32.25a.19.19,0,0,0,.19-.19V19.56a.19.19,0,0,0-.19-.19Z" transform="translate(-2.22 -3.5)" style="fill:#323842"/></g><polygon points="11.66 27.5 12.47 27.1 12.6 26.21 13.23 26.86 14.12 26.7 13.7 27.5 14.12 28.3 13.23 28.15 12.6 28.79 12.47 27.9 11.66 27.5" style="fill:#ffd113"/><polygon points="15.16 27.5 15.97 27.1 16.1 26.21 16.73 26.86 17.62 26.7 17.2 27.5 17.62 28.3 16.73 28.15 16.1 28.79 15.97 27.9 15.16 27.5" style="fill:#ffd113"/><polygon points="18.66 27.5 19.47 27.1 19.6 26.21 20.23 26.86 21.12 26.7 20.7 27.5 21.12 28.3 20.23 28.15 19.6 28.79 19.47 27.9 18.66 27.5" style="fill:#ffd113"/><polygon points="22.16 27.5 22.97 27.1 23.1 26.21 23.73 26.86 24.62 26.7 24.2 27.5 24.62 28.3 23.73 28.15 23.1 28.79 22.97 27.9 22.16 27.5" style="fill:#ffd113"/><polygon points="25.66 27.5 26.47 27.1 26.6 26.21 27.23 26.86 28.12 26.7 27.7 27.5 28.12 28.3 27.23 28.15 26.6 28.79 26.47 27.9 25.66 27.5" style="fill:#fff"/><g style="isolation:isolate"><rect x="11.67" y="20.77" width="16.93" height="0.88" style="fill:#c2c3c6"/></g><rect x="11.67" y="18.36" width="6.79" height="1.68" style="fill:#e54a43"/><g style="isolation:isolate"><rect x="11.67" y="23.59" width="16.93" height="0.88" style="fill:#c2c3c6"/></g><g style="isolation:isolate"><rect x="11.67" y="22.17" width="10.66" height="0.88" style="fill:#c2c3c6"/></g></svg>