<svg id="Layer_1" data-name="Layer 1" xmlns="http://www.w3.org/2000/svg" xmlns:xlink="http://www.w3.org/1999/xlink" viewBox="0 0 47.67 45"><defs><clipPath id="clip-path" transform="translate(-1.17 -2.5)"><rect x="12.16" y="14" width="26.96" height="26.35" style="fill:none"/></clipPath></defs><title>wallet empty</title><rect x="-2.74" y="11.35" width="35.35" height="11.38" rx="5.69" ry="5.69" transform="translate(36.42 15) rotate(132.38)" style="fill:#f3f7fb"/><rect x="17.39" y="27.27" width="35.35" height="11.38" rx="5.69" ry="5.69" transform="translate(81.88 26.77) rotate(132.38)" style="fill:#f3f7fb"/><rect x="0.81" y="18.41" width="49.1" height="11.38" rx="5.69" ry="5.69" transform="translate(59.08 19.11) rotate(132.38)" style="fill:#f3f7fb"/><g style="isolation:isolate"><path d="M12.75,21.86V36.71l24,1.88a5.51,5.51,0,0,0,2-.22l-.19-14.11-1-.55Z" transform="translate(-1.17 -2.5)" style="fill:#f1f5f7"/></g><path d="M38.48,38.69l-25.73-2v1l24.83,2.35C38.49,39.81,38.79,39.35,38.48,38.69Z" transform="translate(-1.17 -2.5)" style="fill:#fff"/><path d="M13.09,21.65l19.78,1.8V15.58c0-1.29-.91-1.43-2.16-1.09Z" transform="translate(-1.17 -2.5)" style="fill:#fff"/><g style="isolation:isolate"><path d="M32,12.62a.36.36,0,0,1-.35-.34l-.2-2.6a.37.37,0,0,1,.34-.39.36.36,0,0,1,.38.33l.19,2.61a.34.34,0,0,1-.33.38Z" transform="translate(-1.17 -2.5)" style="fill:#e54a43"/></g><g style="isolation:isolate"><path d="M34.83,14.1a.36.36,0,0,1-.15-.69L37,12.27a.36.36,0,0,1,.48.17.37.37,0,0,1-.17.48L35,14.06A.29.29,0,0,1,34.83,14.1Z" transform="translate(-1.17 -2.5)" style="fill:#e54a43"/></g><g style="isolation:isolate"><path d="M33.8,12.79a.33.33,0,0,1-.17,0,.37.37,0,0,1-.15-.49l1.14-2.11a.36.36,0,1,1,.63.34L34.12,12.6A.37.37,0,0,1,33.8,12.79Z" transform="translate(-1.17 -2.5)" style="fill:#e54a43"/></g><path d="M12.51,21.86V25a4,4,0,0,0,3.38-2.81Z" transform="translate(-1.17 -2.5)" style="fill:#e54a43"/><g style="isolation:isolate"><path d="M41.65,28.62a1.14,1.14,0,0,0-.73-1.35,1.06,1.06,0,0,0,1.35-.73A1.11,1.11,0,0,0,43,27.9C42.34,27.89,41.82,28.1,41.65,28.62Z" transform="translate(-1.17 -2.5)" style="fill:#323842"/></g><g style="isolation:isolate"><path d="M9.16,28.92a1.13,1.13,0,0,0-.73-1.35,1.06,1.06,0,0,0,1.36-.73,1.11,1.11,0,0,0,.72,1.36C9.86,28.19,9.33,28.4,9.16,28.92Z" transform="translate(-1.17 -2.5)" style="fill:#4cbd91"/></g><path d="M40.81,25.44a.73.73,0,1,1,.72-.72A.73.73,0,0,1,40.81,25.44Zm0-1.2a.47.47,0,0,0-.48.48.48.48,0,0,0,.48.48.49.49,0,0,0,.48-.48A.48.48,0,0,0,40.81,24.24Z" transform="translate(-1.17 -2.5)" style="fill:#323842"/><path d="M7.6,26.34a.72.72,0,1,1,.72-.72A.72.72,0,0,1,7.6,26.34Zm0-1.2a.48.48,0,0,0-.48.48.49.49,0,0,0,.48.48.48.48,0,0,0,.48-.48A.47.47,0,0,0,7.6,25.14Z" transform="translate(-1.17 -2.5)" style="fill:#323842"/><path d="M10.51,25.44a.73.73,0,1,1,.73-.72A.73.73,0,0,1,10.51,25.44Zm0-1.2a.48.48,0,0,0-.48.48.49.49,0,1,0,.48-.48Z" transform="translate(-1.17 -2.5)" style="fill:#323842"/><g style="clip-path:url(#clip-path)"><g style="isolation:isolate"><path d="M37.45,23.47l-4.11-.34V15.59a1.57,1.57,0,0,0-.82-1.34,2,2,0,0,0-1.72-.11L12.45,21.43h0l-.13.07a.45.45,0,0,0-.16.33v16a.46.46,0,0,0,.45.44l24.5,2.06h.17a1.93,1.93,0,0,0,1.21-.42,1.53,1.53,0,0,0,.59-1.18V25.06a1.68,1.68,0,0,0-1.63-1.59Zm-13.38-1,8.54-3.39V23.2Zm7.35-7.73a.94.94,0,0,1,.8.06.7.7,0,0,1,.39.62V18.7L32,19V18a1.27,1.27,0,0,0-.68-1.1,1.66,1.66,0,0,0-1.41-.09L16.79,22l-2.94-.25ZM38.48,39a.67.67,0,0,1-.27.54.86.86,0,0,1-.63.19L12.75,37.62V22l25,2.1a.77.77,0,0,1,.74.73Zm-.41-.25" transform="translate(-1.17 -2.5)" style="fill:#323842"/></g></g><g style="isolation:isolate"><path d="M35,30.5a1.28,1.28,0,1,0,1.34,1.28A1.31,1.31,0,0,0,35,30.5Zm0,1.89" transform="translate(-1.17 -2.5)" style="fill:#4cbd91"/><path d="M35,33.29a1.52,1.52,0,1,1,1.58-1.51A1.55,1.55,0,0,1,35,33.29Zm0-2.55a1,1,0,1,0,0,2.07,1,1,0,1,0,0-2.07Z" transform="translate(-1.17 -2.5)" style="fill:#323842"/></g><line x1="18.63" y1="34.65" x2="37.32" y2="36.19" style="fill:#323842"/><path d="M38.48,38.91h0L19.77,37.36a.22.22,0,0,1-.22-.23.24.24,0,0,1,.27-.19l18.69,1.54a.21.21,0,0,1,.21.23A.23.23,0,0,1,38.48,38.91Z" transform="translate(-1.17 -2.5)" style="fill:#323842"/><line x1="11.58" y1="34.07" x2="16.8" y2="34.5" style="fill:#323842"/><path d="M18,37.21h0l-5.21-.43a.22.22,0,0,1-.22-.23.23.23,0,0,1,.26-.19l5.21.43a.22.22,0,0,1,.22.23A.23.23,0,0,1,18,37.21Z" transform="translate(-1.17 -2.5)" style="fill:#323842"/></svg>