<svg xmlns="http://www.w3.org/2000/svg" width="54" height="54" viewBox="0 0 54 54">
    <g transform="translate(-10 -588)">
        <circle cx="27" cy="27" r="27" fill="#fff6f6" transform="translate(10 588)"/>
        <g>
            <g>
                <path fill="#f7a7a7" d="M19 2H1a.945.945 0 0 0-1 1v14a.945.945 0 0 0 1 1h18a.945.945 0 0 0 1-1V3a.945.945 0 0 0-1-1zM6 13l-1-1-1 1V9.8A2.913 2.913 0 0 1 2 7a2.946 2.946 0 0 1 3-3 2.946 2.946 0 0 1 3 3 2.913 2.913 0 0 1-2 2.8zm11 2H8a1 1 0 1 1 0-2h9a1 1 0 1 1 0 2zm0-4h-6a.945.945 0 0 1-1-1 .945.945 0 0 1 1-1h6a.945.945 0 0 1 1 1 .945.945 0 0 1-1 1zm0-4h-6a.945.945 0 0 1-1-1 .945.945 0 0 1 1-1h6a.945.945 0 0 1 1 1 .945.945 0 0 1-1 1z" transform="translate(27 605) translate(0 2) translate(0 -2)"/>
            </g>
        </g>
    </g>
</svg>
