<svg xmlns="http://www.w3.org/2000/svg" width="16" height="16.035" viewBox="0 0 16 16.035">
    <g>
        <path fill="#959696" d="M41.467 6.872a.922.922 0 0 1-.266.654l-9.1 9.1a.922.922 0 0 1-.408.239l-5.066 1.418a.924.924 0 0 1-.242.033.922.922 0 0 1-.887-1.161l1.35-5.078a.924.924 0 0 1 .235-.41l9.1-9.113a.922.922 0 0 1 .652-.273h.024a4.617 4.617 0 0 1 4.61 4.592zm-10.512 8.294a2.768 2.768 0 0 0-2.391-2.366l-.53 1.979a1.853 1.853 0 0 1 .946.935z" transform="translate(-25.467 -2.28)"/>
    </g>
</svg>
