<svg xmlns="http://www.w3.org/2000/svg" width="16" height="15.698" viewBox="0 0 16 15.698">
    <path fill="#878888" d="M25 22.538a2.813 2.813 0 0 1-5.625 0 2.993 2.993 0 0 1 .047-.515l-5.773-2.433a2.78 2.78 0 0 1-1.838.687 2.811 2.811 0 1 1 0-5.623 2.778 2.778 0 0 1 1.838.687l5.771-2.433a2.975 2.975 0 0 1-.047-.515 2.813 2.813 0 1 1 3.108 2.8 2.926 2.926 0 0 1-.295.014 2.817 2.817 0 0 1-2.164-1.024l-5.56 2.345a2.78 2.78 0 0 1 0 1.881l5.56 2.341A2.8 2.8 0 0 1 25 22.538z" transform="translate(-9 -9.579)"/>
</svg>
