<svg id="Layer_6" data-name="Layer 6" xmlns="http://www.w3.org/2000/svg" viewBox="0 0 18 14.82"><title>add_image</title><g id="Icon-Camera">
<path id="Fill-21" d="M17.37,17.41H2.59A1.6,1.6,0,0,1,1,15.82V6.31a1.6,1.6,0,0,1,1.59-1.6H5.77a.51.51,0,0,0,.31-.19l.57-1.17A1.51,1.51,0,0,1,7.9,2.59h4.2a1.51,1.51,0,0,1,1.25.76l.57,1.17a.42.42,0,0,0,.31.19h3.18A1.6,1.6,0,0,1,19,6.31v9.51a1.66,1.66,0,0,1-1.63,1.59ZM2.82,6a.5.5,0,0,0-.51.51v9.16a.49.49,0,0,0,.51.51H17.14a.5.5,0,0,0,.52-.51V6.48A.5.5,0,0,0,17.14,6H14.06a1.49,1.49,0,0,1-1.21-.73L12.29,4.1A.4.4,0,0,0,12,3.92H7.92a.53.53,0,0,0-.29.18L7.08,5.24A1.49,1.49,0,0,1,5.87,6Z" transform="translate(-1 -2.59)" style="fill:#f05050;"/>
<path id="Fill-23" d="M15.78,6.84a.53.53,0,0,1-1.06,0,.52.52,0,0,1,.53-.53.54.54,0,0,1,.53.53" transform="translate(-1 -2.59)" style="fill:#f05050;"/>
<path id="Fill-22" d="M10,15.51a4.58,4.58,0,1,1,4.58-4.58A4.58,4.58,0,0,1,10,15.51Zm0-7.93a3.35,3.35,0,1,0,3.35,3.35A3.35,3.35,0,0,0,10,7.58Z" transform="translate(-1 -2.59)" style="fill:#f05050;"/>
<path id="Fill-25" d="M10.14,8.69V8.13A2.83,2.83,0,0,0,7.32,11h.57a2.25,2.25,0,0,1,2.25-2.26" transform="translate(-1 -2.59)" style="fill:#f05050;"/>
</g></svg>