<svg id="Layer_7" data-name="Layer 7" xmlns="http://www.w3.org/2000/svg" viewBox="0 0 13.32 18">
	<title>private_new</title>
	<path d="M14.62,19H5.38l-.16,0a2.1,2.1,0,0,1-1.68-1.29,6,6,0,0,1-.2-.6V9.72s0-.05,0-.08A2.15,2.15,0,0,1,5.25,7.82c.24,0,.48,0,.75-.05V7.58c0-1,0-2.08,0-3.12a3.18,3.18,0,0,1,.11-.82A3.46,3.46,0,0,1,8.56,1.25,11.21,11.21,0,0,1,9.74,1h.52l.12,0a4.37,4.37,0,0,1,1.74.5,3.24,3.24,0,0,1,1.88,3V7.79h.53a2.14,2.14,0,0,1,1.94,1.33,6,6,0,0,1,.19.6V17s0,.1,0,.15a2.1,2.1,0,0,1-1.25,1.6A6.45,6.45,0,0,1,14.62,19ZM10,17.53h4.4a.76.76,0,0,0,.82-.84V12c0-.65,0-1.29,0-1.94A.82.82,0,0,0,15,9.41a.76.76,0,0,0-.54-.17H5.61a.74.74,0,0,0-.82.83v5.56c0,.42,0,.85,0,1.28a.77.77,0,0,0,.16.36.7.7,0,0,0,.64.27Zm2.54-9.75,0,0c0-1.16,0-2.32,0-3.48a1.32,1.32,0,0,0-.31-.82,3.08,3.08,0,0,0-4-.44,1.76,1.76,0,0,0-.81,1.57c0,1,0,2,0,3v.21Z" transform="translate(-3.34 -1)" style="fill:#f05050;"/>
	<path d="M11.56,13.38a1.38,1.38,0,0,1-1.38,1.39,1.39,1.39,0,1,1,1.38-1.39Z" transform="translate(-3.34 -1)" style="fill:#f05050;"/></svg>