<svg id="Layer_13" data-name="Layer 13" xmlns="http://www.w3.org/2000/svg" viewBox="0 0 17 17"><title>phone new</title><path d="M18.06,14,16,11.93a1.48,1.48,0,0,0-2.11,0l-1,1a1.15,1.15,0,0,1-1.61,0L7.11,8.72a1.13,1.13,0,0,1,0-1.6l1-1A1.5,1.5,0,0,0,8.07,4L6,1.94a1.48,1.48,0,0,0-2.11,0l-.77.76a5.38,5.38,0,0,0,0,7.62l6.59,6.6a5.38,5.38,0,0,0,7.62,0l.77-.77A1.48,1.48,0,0,0,18.06,14Zm-2.82-1.41,2.12,2.11a.51.51,0,0,1,0,.71L17,15.8,14.19,13l.35-.35A.5.5,0,0,1,15.24,12.63Zm-10-10L7.37,4.75a.5.5,0,0,1,0,.7L7,5.8,4.2,3l.35-.35A.5.5,0,0,1,5.25,2.64Zm5.13,13.58-6.6-6.6A4.39,4.39,0,0,1,3.51,3.7l2.8,2.81a2.13,2.13,0,0,0,.1,2.91l4.16,4.17h0a2.12,2.12,0,0,0,2.91.09l2.81,2.81A4.37,4.37,0,0,1,10.38,16.22Z" transform="translate(-1.5 -1.5)" style="fill:#f05050;"/></svg>