<svg id="Layer_14" data-name="Layer 14" xmlns="http://www.w3.org/2000/svg" viewBox="0 0 18 12.35">
	<title>pagename</title>
<path d="M17.34,3.82H2.66A1.66,1.66,0,0,0,1,5.48v9a1.66,1.66,0,0,0,1.66,1.66H17.34A1.66,1.66,0,0,0,19,14.52v-9a1.66,1.66,0,0,0-1.66-1.66ZM18,14.52a.62.62,0,0,1-.62.62H2.66A.62.62,0,0,1,2,14.52v-9a.62.62,0,0,1,.62-.62H17.34a.62.62,0,0,1,.62.62Zm0,0" transform="translate(-1 -3.82)" style="fill:#f05050;"/>
<path d="M15.92,12.39H11.16a.42.42,0,1,0,0,.83h4.76a.42.42,0,0,0,0-.83Zm0,0" transform="translate(-1 -3.82)" style="fill:#f05050;"/>
<path d="M15.92,9.18H13a.41.41,0,0,0-.42.41A.42.42,0,0,0,13,10h2.88a.41.41,0,0,0,.41-.42.41.41,0,0,0-.41-.41Zm0,0" transform="translate(-1 -3.82)" style="fill:#f05050;"/>
<path d="M15.92,10.78H13a.42.42,0,0,0-.42.42.41.41,0,0,0,.42.41h2.88a.41.41,0,0,0,.41-.41.41.41,0,0,0-.41-.42Zm0,0" transform="translate(-1 -3.82)" style="fill:#f05050;"/>
<path d="M6.61,6.39a3.61,3.61,0,0,0,0,7.22.47.47,0,0,0,0-.93A2.68,2.68,0,1,1,9.29,10v.79a.32.32,0,0,1-.64,0V10a2,2,0,1,0-2,2A2,2,0,0,0,8,11.52,1.27,1.27,0,0,0,9,12a1.25,1.25,0,0,0,1.25-1.25V10A3.61,3.61,0,0,0,6.61,6.39Zm0,4.72A1.11,1.11,0,1,1,7.72,10a1.11,1.11,0,0,1-1.11,1.11Zm0,0" transform="translate(-1 -3.82)" style="fill:#f05050;"/>
</svg>