<svg id="Layer_12" data-name="Layer 12" xmlns="http://www.w3.org/2000/svg" viewBox="0 0 16 15.03"><title>new url</title><path d="M18,15.33V4.7H14.24a5.16,5.16,0,0,0-8.48,0H2V15.33H8.28v1.25H6.88v.94h6.25v-.94H11.72V15.33ZM6.23,5.74a6.85,6.85,0,0,0,1.47.49,10.78,10.78,0,0,0-.09,1.41A10.67,10.67,0,0,0,7.7,9.05a6.85,6.85,0,0,0-1.47.49,4.24,4.24,0,0,1,0-3.8ZM10,3.42c.4,0,.92.75,1.22,2A12,12,0,0,1,10,5.53a12,12,0,0,1-1.22-.07C9.08,4.17,9.6,3.42,10,3.42Zm0,3a10.34,10.34,0,0,0,1.38-.08,12.26,12.26,0,0,1,.07,1.26,12.26,12.26,0,0,1-.07,1.26A10.34,10.34,0,0,0,10,8.82a10.34,10.34,0,0,0-1.38.08,12.26,12.26,0,0,1-.07-1.26,12.26,12.26,0,0,1,.07-1.26A10.34,10.34,0,0,0,10,6.46ZM7.86,10a6.78,6.78,0,0,0,.35,1.15,3.14,3.14,0,0,0,.19.41,4.15,4.15,0,0,1-1.65-1.21A5.81,5.81,0,0,1,7.86,10Zm.92-.16A12,12,0,0,1,10,9.75a12,12,0,0,1,1.22.07c-.3,1.29-.82,2-1.22,2S9.08,11.11,8.78,9.82Zm3,1.31A6.78,6.78,0,0,0,12.14,10a5.81,5.81,0,0,1,1.11.35,4.15,4.15,0,0,1-1.65,1.21A3.14,3.14,0,0,0,11.79,11.13Zm2-1.59a6.85,6.85,0,0,0-1.47-.49,10.67,10.67,0,0,0,.09-1.41,10.78,10.78,0,0,0-.09-1.41,6.85,6.85,0,0,0,1.47-.49,4.24,4.24,0,0,1,0,3.8ZM13.25,5a5.81,5.81,0,0,1-1.11.35,7.07,7.07,0,0,0-.35-1.15,3.89,3.89,0,0,0-.19-.41A4.15,4.15,0,0,1,13.25,5ZM8.4,3.74a3.89,3.89,0,0,0-.19.41A7.07,7.07,0,0,0,7.86,5.3,5.81,5.81,0,0,1,6.75,5,4.15,4.15,0,0,1,8.4,3.74ZM2.94,5.64H5.25a5.16,5.16,0,1,0,9.5,0h2.31v8.75H2.94Zm7.84,10.94H9.22V15.33h1.56Z" transform="translate(-2 -2.48)" style="fill:#f05050"/></svg>