<svg id="Layer_1" data-name="Layer 1" xmlns="http://www.w3.org/2000/svg" viewBox="0 0 80.69 96"><title>boy</title><path d="M88,61.05a7.46,7.46,0,0,0-6.79-7.43v-14A26.8,26.8,0,0,0,54.5,12.86h-9A26.8,26.8,0,0,0,18.78,39.58v14a7.46,7.46,0,0,0,0,14.86v.46A26.8,26.8,0,0,0,45.5,95.66h9A26.8,26.8,0,0,0,81.22,68.94v-.46A7.47,7.47,0,0,0,88,61.05Z" transform="translate(-9.65 -2)" style="fill:#fff"/><path d="M54.5,98h-9a29.1,29.1,0,0,1-29-27.61,9.81,9.81,0,0,1,0-18.68V39.58A29.1,29.1,0,0,1,45.5,10.52h9A29.1,29.1,0,0,1,83.56,39.58V51.71a9.81,9.81,0,0,1,0,18.68A29.1,29.1,0,0,1,54.5,98Zm-9-82.8A24.41,24.41,0,0,0,21.12,39.58V55.75L19,56a5.12,5.12,0,0,0,0,10.2l2.13.19v2.6A24.41,24.41,0,0,0,45.5,93.32h9A24.41,24.41,0,0,0,78.88,68.94v-2.6L81,66.15A5.12,5.12,0,0,0,81,56l-2.13-.2V39.58A24.41,24.41,0,0,0,54.5,15.2Z" transform="translate(-9.65 -2)"/><path d="M50.75,69c-2.76,0-4.68-2.88-4.89-3.21a1.17,1.17,0,1,1,2-1.26c.37.56,1.67,2.13,2.93,2.13h0c1,0,1.9-1.15,2.46-2.09a1.17,1.17,0,0,1,2,1.19C54,67.83,52.51,68.92,50.82,69Z" transform="translate(-9.65 -2)"/><path d="M50.21,80c-6.62,0-13.5-1.13-15.87-4.29a1.75,1.75,0,0,1,2.81-2.1c1.11,1.47,6,3,14,2.87C59,76.32,63.44,74.75,64,74a1.72,1.72,0,0,1,2.21-1.06,1.79,1.79,0,0,1,1.08,2.26c-.24.72-1,2.92-8.42,4.13A56.32,56.32,0,0,1,50.21,80Z" transform="translate(-9.65 -2)"/><path d="M58.23,55.49a1.19,1.19,0,0,1-.77-.29,1.16,1.16,0,0,1-.11-1.65c.14-.16,3.48-4,7.45-4.12a6.31,6.31,0,0,1,4.8,1.94A1.17,1.17,0,0,1,68,53.05a4,4,0,0,0-3.06-1.28c-2.47.1-5,2.43-5.79,3.32A1.17,1.17,0,0,1,58.23,55.49Z" transform="translate(-9.65 -2)"/><circle cx="53.93" cy="51.38" r="2.17"/><path d="M41.2,55.45a1.16,1.16,0,0,1-.88-.39s-3-3.3-6.07-3.43a4.19,4.19,0,0,0-3.17,1.28,1.18,1.18,0,0,1-1.66,0,1.17,1.17,0,0,1,0-1.65,6.53,6.53,0,0,1,4.89-1.91c4.09.18,7.56,4,7.71,4.21a1.17,1.17,0,0,1-.1,1.65A1.19,1.19,0,0,1,41.2,55.45Z" transform="translate(-9.65 -2)"/><ellipse cx="36.17" cy="53.75" rx="2.38" ry="2.45" transform="translate(-33.95 75.02) rotate(-77.11)"/><path d="M56.79,44.08H73.08c0-2.25-3.65-4.07-8.15-4.07S56.79,41.83,56.79,44.08Z" transform="translate(-9.65 -2)"/><path d="M28.28,44.08H44.57c0-2.25-3.65-4.07-8.14-4.07S28.28,41.83,28.28,44.08Z" transform="translate(-9.65 -2)"/><path d="M22.17,54.26V39.33L42.53,27.11s.68,7.47-1.35,12.22c3.39,2,20.36-9.5,20.36-9.5l1.36,6.78,15.61-8.82V54.94h5.43s.67-27.83,0-29.86C83.26,24.4,89.36,3.36,54.07,2,22.85,2,18.78,11.5,16.74,16.25c-.68,7.47,0,38,0,38h5.43" transform="translate(-9.65 -2)"/><path d="M65.05,63.83c-7.43,0-13.48-4.63-13.48-10.32a8.22,8.22,0,0,1,.6-3.07,7.17,7.17,0,0,1,1.41-2.37c.23-.3.45-.57.62-.76a2.41,2.41,0,0,1,.49-.41,15.38,15.38,0,0,1,10.36-3.71c7.43,0,13.48,4.63,13.48,10.32S72.48,63.83,65.05,63.83ZM54.64,50.64l-.23.52a5.78,5.78,0,0,0-.5,2.35c0,4.4,5,8,11.14,8s11.14-3.58,11.14-8-5-8-11.14-8a12.91,12.91,0,0,0-8.89,3.2l-.51.48C55.33,49.62,54.89,50.23,54.64,50.64Z" transform="translate(-9.65 -2)"/><path d="M35,63.83c-7.43,0-13.48-4.63-13.48-10.32S27.52,43.19,35,43.19A15.32,15.32,0,0,1,45.38,47a5,5,0,0,1,.9,1,8.6,8.6,0,0,1,1.53,2.44,8.22,8.22,0,0,1,.62,3.11C48.43,59.2,42.38,63.83,35,63.83Zm0-18.3c-6.14,0-11.14,3.58-11.14,8s5,8,11.14,8,11.14-3.58,11.14-8a5.78,5.78,0,0,0-.5-2.35l-.13-.29c-.28-.46-1-1.41-1.33-1.87l-.29-.27A12.91,12.91,0,0,0,35,45.53Z" transform="translate(-9.65 -2)"/><path d="M44.64,47.88a8.65,8.65,0,0,1,2,2.81h6.68a8.65,8.65,0,0,1,2-2.81Z" transform="translate(-9.65 -2)"/><path d="M53.72,51.28H46.28l-.15-.35a8.08,8.08,0,0,0-1.89-2.63l-1.06-1H56.82l-1.06,1a8.19,8.19,0,0,0-1.89,2.63ZM47,50.11H53A9.22,9.22,0,0,1,54,48.46H46A9.81,9.81,0,0,1,47,50.11Z" transform="translate(-9.65 -2)"/></svg>