<svg xmlns="http://www.w3.org/2000/svg" xmlns:xlink="http://www.w3.org/1999/xlink" width="150" height="149.999" viewBox="0 0 150 149.999">
  <defs>
    <clipPath id="clip-path">
      <rect id="Rectangle_289" data-name="Rectangle 289" width="149.999" height="149.999" transform="translate(0 0)" fill="#7eb0e1" stroke="#707070" stroke-width="1"/>
    </clipPath>
    <filter id="Path_1506" x="17.512" y="18.178" width="112.999" height="151.143" filterUnits="userSpaceOnUse">
      <feOffset input="SourceAlpha"/>
      <feGaussianBlur stdDeviation="2" result="blur"/>
      <feFlood flood-opacity="0.078"/>
      <feComposite operator="in" in2="blur"/>
      <feComposite in="SourceGraphic"/>
    </filter>
  </defs>
  <g id="Group_1973" data-name="Group 1973" transform="translate(-543.001 334)">
    <g id="dsadsad">
      <rect id="Rectangle_288" data-name="Rectangle 288" width="149.999" height="149.999" transform="translate(543.001 -334)" fill="#7eb0e1"/>
      <g id="Mask_Group_360" data-name="Mask Group 360" transform="translate(543.002 -334)" clip-path="url(#clip-path)">
        <g transform="matrix(1, 0, 0, 1, 0, 0)" filter="url(#Path_1506)">
          <path id="Path_1506-2" data-name="Path 1506" d="M1225.913,124.159a4.077,4.077,0,0,0-1.975.021c.453-4.61.945-12.664-.414-17.855a23.575,23.575,0,0,0-1.56-4.079c-.01-.112-.021-.23-.032-.345s-.022-.234-.032-.356c-.033-.318-.069-.648-.11-.984l-.007-.059c-.007-.052-.013-.1-.018-.154s-.011-.1-.018-.156h0c-.016-.112-.032-.229-.047-.344-.006-.045-.012-.093-.017-.139l0,0c-1.291-9.229-6.267-24.041-24.763-26.834a47.46,47.46,0,0,0-4.822-.485h-.008c-.191-.008-.372-.006-.56-.011-.548-.02-1.092-.036-1.619-.032-.284,0-.554.017-.833.025-.415.011-.832.02-1.234.045-.294.018-.577.049-.865.073-.369.032-.738.062-1.095.105-.289.034-.568.079-.85.121-.336.049-.676.1-1,.156-.28.051-.55.108-.822.165-.313.064-.624.13-.927.2-.268.065-.527.136-.788.206-.29.08-.579.16-.86.247-.253.077-.5.16-.746.244-.273.093-.542.187-.807.286-.238.09-.47.181-.7.275q-.385.158-.757.324-.333.149-.658.3c-.239.115-.474.234-.7.355-.207.109-.414.217-.617.329-.225.126-.443.255-.66.386-.19.115-.383.23-.568.348-.215.136-.419.276-.624.416-.175.119-.353.237-.521.359-.2.146-.394.295-.588.443-.158.122-.32.243-.476.367-.193.157-.376.317-.563.477-.139.119-.282.237-.415.357-.194.175-.375.352-.56.529-.114.109-.234.217-.344.328-.277.275-.542.552-.8.83-.071.078-.135.156-.2.233-.2.222-.392.443-.577.665-.1.116-.185.233-.277.349-.139.172-.278.345-.408.517-.1.129-.188.255-.28.383-.115.158-.231.316-.341.471-.091.132-.175.259-.261.39-.1.15-.2.3-.294.447-.084.128-.159.252-.236.377-.089.146-.178.29-.262.433-.072.123-.139.243-.208.363-.077.137-.154.273-.226.407s-.125.234-.184.348q-.1.2-.2.387c-.019.035-.038.073-.056.107a25.6,25.6,0,0,0-2.849,1.492,23.607,23.607,0,0,0-6.949,6.562,26.361,26.361,0,0,0-1.879,3.117c-.276.534-.533,1.077-.773,1.624a35.945,35.945,0,0,0-2.446,8.4,48.779,48.779,0,0,0-.64,6.479q-.027.768-.03,1.506c0,.491,0,.972.008,1.44a52.746,52.746,0,0,0,.853,8.8l.021.052.021.055c.019.046.042.109.074.186l.01.025,0,.008c-3.407,1.353-4.545,7.59-2.518,14.209q.2.662.439,1.3c.051.135.107.264.159.4.109.283.22.567.339.839.066.151.136.3.2.445.114.245.227.491.347.728.075.149.154.29.233.435.12.224.241.449.365.663.083.14.168.275.251.411.129.208.26.414.392.611.087.128.175.251.264.374q.2.29.415.562.135.172.27.337c.146.177.292.346.441.512.091.1.181.2.273.293.154.16.307.31.461.456.055.052.107.111.162.16-.012-.013-.021-.029-.033-.042,1.764,1.607,3.669,2.342,5.356,1.826.1-.031.193-.081.289-.119,2.016,7.087,4.186,12.814,6.087,14.814a71.266,71.266,0,0,0,7.74,7.078l-.792,17.071c-8.4,1.715-32.691,5.612-33.535,8.977.046-.071,18.387-.331,18.387.127,0,5.789,16.309,12.757,34.288,12.757s30.823-6.893,30.823-12.683v-.018l17.5-.032c0-3.665-23.345-6.615-32.2-8.489L1206.48,172q.751-.717,1.459-1.458c2.828-2.954,5.188-6.126,7.261-8.674,1.6-1.959,2.974-6.387,4.118-11.9.212-1.019.414-2.078.608-3.163.118.041.23.091.352.121,3.571.883,7.728-3.5,9.282-9.781S1229.484,125.042,1225.913,124.159Z" transform="translate(-1115.03 -48.16)" fill="#dfe5eb"/>
        </g>
      </g>
    </g>
  </g>
</svg>
