<svg id="Layer_1" data-name="Layer 1" xmlns="http://www.w3.org/2000/svg" viewBox="0 0 32 32"><title>faces</title><path d="M25.3,18.19V11.81a7.27,7.27,0,0,0-7.25-7.25H14A7.27,7.27,0,0,0,6.7,11.81v6.38a2.48,2.48,0,0,0,0,5v.6A7.27,7.27,0,0,0,14,31h4.1a7.27,7.27,0,0,0,7.25-7.25v-.6a2.48,2.48,0,0,0,0-5Z" style="fill:#fff"/><path d="M18.05,31.73H14a8,8,0,0,1-8-7.94,3.2,3.2,0,0,1,0-6.24V11.81a8,8,0,0,1,8-8h4.1a8,8,0,0,1,8,8v5.74a3.2,3.2,0,0,1,0,6.24A8,8,0,0,1,18.05,31.73ZM6.7,18.92a1.76,1.76,0,0,0,0,3.51h.73v1.32A6.53,6.53,0,0,0,14,30.28h4.1a6.53,6.53,0,0,0,6.52-6.53V22.43h.73a1.76,1.76,0,0,0,0-3.51h-.73V11.81a6.53,6.53,0,0,0-6.52-6.53H14a6.53,6.53,0,0,0-6.52,6.53v7.11Z"/><path d="M22.58,18.74h0a.19.19,0,0,1-.17-.19c0-.08-.08-.15-.15-.2a4.48,4.48,0,0,0-3.12-.18c-.08,0-.18.1-.18.17a.18.18,0,0,1-.19.17.17.17,0,0,1-.17-.19.58.58,0,0,1,.37-.48,4.84,4.84,0,0,1,3.49.21.59.59,0,0,1,.32.52A.19.19,0,0,1,22.58,18.74Z"/><path d="M9.27,18.85a.18.18,0,0,1-.18-.18,1,1,0,0,1,.69-.89,3.58,3.58,0,0,1,1.39-.28,3.85,3.85,0,0,1,1.39.23,1,1,0,0,1,.72.88.18.18,0,0,1-.18.18h0a.18.18,0,0,1-.18-.18c0-.27-.28-.45-.5-.54a3.3,3.3,0,0,0-1.25-.21c-.84,0-1.72.3-1.72.8a.17.17,0,0,1-.17.19Z"/><path d="M20.45,22.76c-2.3,0-4.17-1.44-4.17-3.2a2.44,2.44,0,0,1,.19-.95,2.9,2.9,0,0,1,.78-1.1,4.74,4.74,0,0,1,3.2-1.15c2.31,0,4.18,1.44,4.18,3.2S22.76,22.76,20.45,22.76Zm-3.22-4.09-.07.16a1.75,1.75,0,0,0-.16.73C17,20.92,18.55,22,20.45,22s3.46-1.11,3.46-2.47-1.55-2.47-3.46-2.47a4,4,0,0,0-2.75,1l-.16.15C17.44,18.36,17.31,18.54,17.23,18.67Z"/><path d="M11.13,22.76c-2.3,0-4.18-1.44-4.18-3.2s1.88-3.2,4.18-3.2a4.77,4.77,0,0,1,3.25,1.19h0a4.41,4.41,0,0,1,.71,1h0a2.64,2.64,0,0,1,.22,1C15.31,21.32,13.43,22.76,11.13,22.76Zm0-5.67c-1.91,0-3.45,1.11-3.45,2.47S9.22,22,11.13,22s3.45-1.11,3.45-2.47a1.91,1.91,0,0,0-.15-.73l0-.09a6.92,6.92,0,0,0-.42-.57l-.09-.09A4,4,0,0,0,11.13,17.09Z"/><path d="M14.13,17.82a2.76,2.76,0,0,1,.63.87h2.06a2.76,2.76,0,0,1,.63-.87Z"/><path d="M16.94,18.87h-2.3l-.05-.11A2.59,2.59,0,0,0,14,18l-.33-.31H17.9l-.32.31a2.47,2.47,0,0,0-.59.81Zm-2.07-.36h1.84A2.78,2.78,0,0,1,17,18H14.55A2.29,2.29,0,0,1,14.87,18.51Z"/><circle cx="11.25" cy="19.02" r="0.83"/><circle cx="20.34" cy="19.02" r="0.83"/><path d="M15.73,27.28c-1.44,0-3-.22-3.55-.9a.55.55,0,1,1,.84-.7c.11.14.62.38,1.83.48a8.65,8.65,0,0,0,3.76-.39.54.54,0,0,1,1,.45c-.16.44-.7.72-1.74.89A12.53,12.53,0,0,1,15.73,27.28Zm2.85-1.44h0Z"/><path d="M16.25,24.75a.82.82,0,0,1-.44-.13c-1.16-.72-.88-4.68-.77-5.87a.37.37,0,0,1,.4-.33.36.36,0,0,1,.32.4c-.21,2.23-.11,4.85.43,5.18,0,0,.09.06.28-.06a.36.36,0,0,1,.39.61A1.21,1.21,0,0,1,16.25,24.75Z"/><path d="M7.57,16.47V11.84l6.09-3.79a9.84,9.84,0,0,1-.4,3.79c1,.63,6.09-2.94,6.09-2.94l.41,2.1,4.67-2.74v8.42h1.62s.21-8.63,0-9.26c-.2-.21,1.63-6.73-8.93-7.15C7.77.27,6.55,3.22,6,4.69,5.74,7,6,16.47,6,16.47H7.57"/></svg>