<svg id="Layer_1" data-name="Layer 1" xmlns="http://www.w3.org/2000/svg" viewBox="0 0 32 32"><title>faces</title><path d="M24.41,14.25h-.17v-4c0-3.38-1.7-6.15-6.3-6.15H14.5a6.24,6.24,0,0,0-6.3,6.15v4H8a2.23,2.23,0,1,0,0,4.46H8.2v.5a6.24,6.24,0,0,0,6.3,6.15h3.44a6.25,6.25,0,0,0,6.3-6.15v-.5h.17a2.23,2.23,0,1,0,0-4.46Z" style="fill:#fff"/><path d="M17.94,25.88H14.5a6.75,6.75,0,0,1-6.82-6.67,2.74,2.74,0,0,1,0-5.46V10.27A6.76,6.76,0,0,1,14.5,3.6h3.44c4.33,0,6.82,2.44,6.82,6.67v3.48a2.74,2.74,0,0,1,0,5.46A6.76,6.76,0,0,1,17.94,25.88ZM8.72,18.15v1.06a5.71,5.71,0,0,0,5.78,5.63h3.44a5.71,5.71,0,0,0,5.78-5.63V18.15l.56,0h.13a1.72,1.72,0,1,0,0-3.43h-.13l-.56,0V10.27c0-2.57-1-5.63-5.78-5.63H14.5a5.71,5.71,0,0,0-5.78,5.63v4.54l-.56,0H8A1.72,1.72,0,1,0,8,18.2h.14Z"/><path d="M10.27,15.2a.17.17,0,0,1-.18-.17c0-.74,1.05-1.09,2.11-1.11s2.16.3,2.17,1.05a.18.18,0,0,1-.17.18h0A.18.18,0,0,1,14,15c0-.49-.94-.74-1.81-.72s-1.78.29-1.77.77a.18.18,0,0,1-.17.17Z"/><ellipse cx="12.3" cy="15.12" rx="0.85" ry="0.79"/><path d="M22.25,15.27h0a.17.17,0,0,1-.16-.19.51.51,0,0,0-.29-.44,3.69,3.69,0,0,0-2.93-.17q-.34.16-.36.42a.17.17,0,0,1-.18.16.18.18,0,0,1-.17-.18.86.86,0,0,1,.56-.71,4,4,0,0,1,3.27.19.81.81,0,0,1,.44.76A.17.17,0,0,1,22.25,15.27Z"/><ellipse cx="19.94" cy="15.14" rx="0.85" ry="0.79"/><path d="M16.12,23.55c-2.35,0-2.52-.51-2.59-.72a.51.51,0,0,1,.33-.66.5.5,0,0,1,.57.18,8.74,8.74,0,0,0,3.38,0,.5.5,0,0,1,.57-.18.52.52,0,0,1,.33.66C18.64,23,18.47,23.55,16.12,23.55Zm1.61-1.05Zm-3.22,0Z"/><path d="M7.2,3.47l-.85-.42S8.05.5,14,.07c9.34,0,10.61,4.67,10.61,6.37s-.85,2.13-.85,2.13,0-4.67-8.07-4.25c-4.24,0-5.94,2.12-5.94,2.12a32.23,32.23,0,0,1-5.1,7.22A10.93,10.93,0,0,1,7.2,3.47Z"/><rect x="15.8" y="24.28" width="1.06" height="1.27"/><path d="M10.75,24.35l-.07-.51a3.91,3.91,0,0,1,.59-2.74,1.89,1.89,0,0,1,1.44-.62h6.82c.09,0,2,0,2,3.29v.52h-1v-.52c0-2.16-1-2.25-1-2.25H12.71a.8.8,0,0,0-.65.27,2.86,2.86,0,0,0-.35,1.91l.07.51Z"/><path d="M18.18,13.48a.35.35,0,0,1-.3-.52c.09-.15,1-1.41,4.66-1.24a.35.35,0,0,1,.33.36.34.34,0,0,1-.36.33c-3.26-.15-4,.91-4,.92A.35.35,0,0,1,18.18,13.48Z"/><path d="M16.64,19.14a1.36,1.36,0,0,1-.93-.32c-.65-.58-.6-1.75-.55-2.89A4.23,4.23,0,0,0,15,13.86a2.53,2.53,0,0,0-1.79-1.15A4.94,4.94,0,0,0,10,13.92a.34.34,0,0,1-.49,0,.35.35,0,0,1,0-.49A5.65,5.65,0,0,1,13.27,12a3.22,3.22,0,0,1,2.28,1.44,4.4,4.4,0,0,1,.3,2.5c0,.93-.08,2,.32,2.34a.85.85,0,0,0,.74.12.35.35,0,0,1,.12.68A2.87,2.87,0,0,1,16.64,19.14Z"/><path d="M7.62,19.19S11,26,16.33,25.77c6.58.21,7.43-7,9.77-7.22C25,20.46,23.76,31.93,16.54,31.93,9.32,31.5,7.62,20.46,7.62,19.19Z"/></svg>