<svg id="Layer_1" data-name="Layer 1" xmlns="http://www.w3.org/2000/svg" viewBox="0 0 32 32"><title>faces</title><path d="M28.67,19.68a2.48,2.48,0,0,0-2.26-2.47V12.53A8.94,8.94,0,0,0,17.5,3.62h-3a8.94,8.94,0,0,0-8.91,8.91v4.68a2.49,2.49,0,0,0,0,4.95v.15a8.94,8.94,0,0,0,8.91,8.91h3a8.94,8.94,0,0,0,8.91-8.91v-.15A2.49,2.49,0,0,0,28.67,19.68Z" style="fill:#fff"/><path d="M17.5,32h-3a9.69,9.69,0,0,1-9.67-9.2,3.27,3.27,0,0,1,0-6.23v-4A9.7,9.7,0,0,1,14.5,2.84h3a9.7,9.7,0,0,1,9.69,9.69v4a3.27,3.27,0,0,1,0,6.23A9.69,9.69,0,0,1,17.5,32Zm-3-27.6a8.14,8.14,0,0,0-8.13,8.13v5.39L5.66,18a1.71,1.71,0,0,0,0,3.4l.71.07v.86a8.14,8.14,0,0,0,8.13,8.13h3a8.14,8.14,0,0,0,8.13-8.13v-.86l.71-.07a1.71,1.71,0,0,0,0-3.4l-.71-.06V12.53A8.14,8.14,0,0,0,17.5,4.4Z"/><path d="M16.25,22.32a2.25,2.25,0,0,1-1.63-1.07.39.39,0,0,1,.12-.54.38.38,0,0,1,.53.12h0c.13.18.56.71,1,.71h0c.34,0,.63-.39.82-.7a.39.39,0,0,1,.54-.14.4.4,0,0,1,.13.54,1.83,1.83,0,0,1-1.48,1.08Z"/><path d="M16.07,26c-2.21,0-4.5-.38-5.29-1.43a.59.59,0,1,1,.94-.7c.36.49,2,1,4.66.95s4.1-.56,4.28-.82a.57.57,0,0,1,.73-.35.6.6,0,0,1,.37.75c-.08.24-.33,1-2.81,1.38A19.18,19.18,0,0,1,16.07,26Z"/><path d="M18.74,17.83a.35.35,0,0,1-.25-.1.38.38,0,0,1,0-.55,4.12,4.12,0,0,1,2.48-1.37,2.06,2.06,0,0,1,1.6.65.38.38,0,0,1,0,.55A.39.39,0,0,1,22,17a1.29,1.29,0,0,0-1-.43A3.21,3.21,0,0,0,19,17.7.43.43,0,0,1,18.74,17.83Z"/><circle cx="20.53" cy="17.13" r="0.72"/><path d="M13.07,17.82a.43.43,0,0,1-.3-.13,3.61,3.61,0,0,0-2-1.15A1.43,1.43,0,0,0,9.69,17a.39.39,0,1,1-.53-.57,2.14,2.14,0,0,1,1.63-.63,4.3,4.3,0,0,1,2.57,1.4.4.4,0,0,1-.29.65Z"/><ellipse cx="11.39" cy="17.25" rx="0.79" ry="0.82" transform="translate(-7.97 24.51) rotate(-77.11)"/><path d="M18.26,14h5.43c0-.75-1.21-1.36-2.71-1.36S18.26,13.28,18.26,14Z"/><path d="M8.76,14h5.43c0-.75-1.22-1.36-2.71-1.36S8.76,13.28,8.76,14Z"/><path d="M6.72,17.42v-5l6.79-4.07a10.23,10.23,0,0,1-.45,4.07c1.13.68,6.79-3.16,6.79-3.16l.45,2.26L25.5,8.6v9h1.81s.23-9.28,0-10C27.09,7.47,29.12.45,17.36,0,7,0,5.59,3.17,4.91,4.75c-.22,2.49,0,12.67,0,12.67H6.72"/><path d="M21,20.61c-2.48,0-4.5-1.54-4.5-3.44a2.76,2.76,0,0,1,.2-1,2.41,2.41,0,0,1,.47-.79l.21-.26a.83.83,0,0,1,.16-.13A5.12,5.12,0,0,1,21,13.73c2.47,0,4.49,1.54,4.49,3.44S23.49,20.61,21,20.61Zm-3.47-4.4-.08.18a2,2,0,0,0-.17.78c0,1.47,1.67,2.66,3.72,2.66s3.71-1.19,3.71-2.66S23.06,14.51,21,14.51a4.33,4.33,0,0,0-3,1.07l-.17.16A5,5,0,0,0,17.55,16.21Z"/><path d="M11,20.61c-2.47,0-4.49-1.54-4.49-3.44s2-3.44,4.49-3.44A5.12,5.12,0,0,1,14.46,15a1.55,1.55,0,0,1,.3.33,2.94,2.94,0,0,1,.51.81,2.72,2.72,0,0,1,.21,1C15.48,19.07,13.46,20.61,11,20.61Zm0-6.1c-2,0-3.71,1.19-3.71,2.66S8.94,19.83,11,19.83s3.72-1.19,3.72-2.66a2,2,0,0,0-.17-.78l0-.1c-.1-.15-.32-.47-.45-.62L14,15.58A4.33,4.33,0,0,0,11,14.51Z"/><path d="M14.21,15.29a2.89,2.89,0,0,1,.68.94h2.22a2.89,2.89,0,0,1,.68-.94Z"/><path d="M17.24,16.43H14.76l0-.12a2.76,2.76,0,0,0-.63-.88l-.35-.33h4.54l-.35.33a2.76,2.76,0,0,0-.63.88ZM15,16h2a2.69,2.69,0,0,1,.35-.55H14.66A2.69,2.69,0,0,1,15,16Z"/></svg>