<svg id="Layer_1" data-name="Layer 1" xmlns="http://www.w3.org/2000/svg" viewBox="0 0 200 72.69"><title>LOGO</title><path d="M71.09,136.35q0-24.45,0-48.9c0-.74.13-1,.86-1,3.15.05,6.3,0,9.45,0C87.32,86.52,92,91.44,92,97.92c.06,9.11,0,18.23,0,27.34a11.33,11.33,0,0,1-7.2,10.86c-.16.06-.37,0-.48.23Z" transform="translate(0 -63.65)" style="fill:#2c2e2f"/>
<path d="M54.16,136.35a13,13,0,0,1-4.22-2.64,11.66,11.66,0,0,1-3.43-8.48c0-12.64,0-25.28,0-37.92A1.75,1.75,0,0,1,47,86c.8-.82,1.58-1.68,2.34-2.55.26-.29.42-.29.68,0,.81.92,1.64,1.84,2.5,2.72a1.45,1.45,0,0,1,.29,1.16V125a4.51,4.51,0,0,0,3.41,4.71,4.23,4.23,0,0,0,4.89-4c0-.3,0-.61,0-.92q0-18.66,0-37.33A1.86,1.86,0,0,1,61.64,86c.78-.77,1.51-1.6,2.23-2.43.28-.31.46-.42.79,0,.79.91,1.61,1.8,2.44,2.67a1.17,1.17,0,0,1,.32.89c0,12.9,0,25.79,0,38.68a11.15,11.15,0,0,1-7.28,10.44,3.17,3.17,0,0,0-.42.19Z" transform="translate(0 -63.65)" style="fill:#f05050"/><path d="M145.38,136.35c0-4.92,0-9.84,0-14.76,0-.71-.17-.87-.8-.87-3.9,0-7.79,0-11.69,0-.57,0-.73-.16-.72-.79.05-1.81,0-3.63,0-5.45a2.77,2.77,0,0,1,.31-1.27q6.24-13,12.44-26c.3-.63.61-.9,1.28-.87,1.59.06,3.18.05,4.77,0,.6,0,.71.2.71.81,0,8.58,0,17.17,0,25.75,0,.72.11,1.11.85,1,.54-.12.62.19.61.7,0,1.82,0,3.64,0,5.46,0,.58-.12.83-.67.72s-.8.15-.79.85c0,4.92,0,9.84,0,14.76Z" transform="translate(0 -63.65)" style="fill:#2c2e2f"/><path d="M113.85,136.35c0-3.39.09-6.77,0-10.15a20.36,20.36,0,0,1,3.93-12.56,103.79,103.79,0,0,1,6.82-8.07,15.26,15.26,0,0,0,3.7-6.75,4.43,4.43,0,0,0-3-5.31,4.14,4.14,0,0,0-5,3.07c-.11.42,0,1.11-.27,1.23a3.19,3.19,0,0,1-1.43.11c-1.38,0-2.76,0-4.15,0-.47,0-.66-.09-.64-.67.19-6.39,5.93-11.63,11.73-10.69a11,11,0,0,1,9.18,10.86,15,15,0,0,1-2.06,7.27,39.15,39.15,0,0,1-6.46,8.59c-2.57,2.73-4.85,5.68-5.8,9.59a26.1,26.1,0,0,0-.24,5.59c0,1.3,0,1.31,1.21,1.31,4.15,0,8.31,0,12.46,0,.7,0,1,.12.93,1-.07,1.87,0,3.74,0,5.62Z" transform="translate(0 -63.65)" style="fill:#2c2e2f"/><path d="M7.71,136.35a11.61,11.61,0,0,1-5.07-3.47,1,1,0,0,1-.14-1.28c1.25-2.2,2.44-4.44,3.75-6.83,0,.57,0,1,.11,1.36a4.27,4.27,0,0,0,4.57,3.64,4.54,4.54,0,0,0,3.65-5,16.6,16.6,0,0,0-3.93-9c-1.69-2.17-3.71-4-5.39-6.19a27,27,0,0,1-4.86-9c-1.66-5.72,2-12.75,8.26-13.88a9.77,9.77,0,0,1,9.43,3.44.81.81,0,0,1,.11,1.13c-1.18,2.11-2.32,4.25-3.49,6.4-.23-.24-.18-.51-.23-.74a4.17,4.17,0,0,0-4.9-3.42,4.43,4.43,0,0,0-3.15,5.36,14,14,0,0,0,2.65,5.42c1.46,2,3.23,3.66,4.82,5.53,2.46,2.9,4.83,5.87,6,9.69a15.35,15.35,0,0,1,.41,9.36,10.78,10.78,0,0,1-6.5,7.19c-.2.08-.46,0-.6.3Z" transform="translate(0 -63.65)" style="fill:#2c2e2f"/><path d="M29.24,136.35q0-21,0-42c0-.75-.15-1-.86-.95-1.95.06-3.9,0-5.85,0-.52,0-.63-.18-.63-.71,0-1.84,0-3.69,0-5.53,0-.51.11-.67.6-.66q9.87,0,19.76,0c.48,0,.6.15.59.66,0,1.84,0,3.69,0,5.53,0,.53-.1.72-.63.71-2,0-4,0-5.92,0-.65,0-.78.18-.78.87q0,21,0,42.11Z" transform="translate(0 -63.65)" style="fill:#2c2e2f"/><path d="M99.54,136.35c0-7.89,0-15.77,0-23.65a8.07,8.07,0,0,0-.41-2.45c-2.32-7.62-4.62-15.24-7-22.85-.21-.72-.18-1,.59-.91,1.59.07,3.18.05,4.77,0,.56,0,.77.18.93.76,1.27,4.88,2.58,9.75,3.93,14.84.47-1.73.88-3.26,1.29-4.79.9-3.37,1.81-6.74,2.68-10.12.14-.52.34-.7.84-.69,1.84,0,3.69,0,5.59,0a7.44,7.44,0,0,1-.45,1.76q-3.43,11.36-6.88,22.7a5,5,0,0,0-.21,1.48v23c0,.3,0,.61,0,.92Z" transform="translate(0 -63.65)" style="fill:#2c2e2f"/><path d="M180,136.35a46.79,46.79,0,0,1,1.64-5.11q6.26-18.59,12.53-37.14c.09-.26.15-.52.25-.85h-4c-3.28,0-6.56,0-9.84,0-.56,0-.8-.09-.78-.8.06-1.81,0-3.63,0-5.45,0-.51.12-.66.6-.65q9.49,0,19,0c.51,0,.58.21.58.68,0,2.69,0,5.37,0,8.06a3.31,3.31,0,0,1-.24,1.13q-6.62,19.59-13.22,39.17a2.1,2.1,0,0,0-.24,1Z" transform="translate(0 -63.65)" style="fill:#2c2e2f"/><path d="M155.28,111.46l5.37-9.47c.47-.83.92-1.68,1.42-2.49a.93.93,0,0,0,0-1.12c-2.14-3.74-4.26-7.49-6.39-11.25-.11-.2-.36-.41-.26-.65s.42-.11.63-.11c1.77,0,3.54,0,5.31,0a1,1,0,0,1,1,.61c1,1.79,2,3.56,3,5.34.12.21.24.42.41.69,1.15-2,2.28-4,3.37-6a1.09,1.09,0,0,1,1.1-.66c1.94,0,3.89,0,5.84,0,.1.35-.14.54-.27.76-2.09,3.71-4.18,7.42-6.3,11.1a1.22,1.22,0,0,0,0,1.42c2.12,3.68,4.21,7.39,6.31,11.1.12.2.23.42.42.76-1.42,0-2.74,0-4.05,0-.89,0-1.94.34-2.64-.14s-1-1.53-1.43-2.34l-2.22-3.91-.16-.2a49.84,49.84,0,0,0-2.51,4.5c-.75,1.71-1.78,2.37-3.52,2.13a30.21,30.21,0,0,0-4.15,0Z" transform="translate(0 -63.65)" style="fill:#2c2e2f"/><path d="M57,63.65l3.53,7.73H53.9c-.3,0-.45-.1-.3-.44C54.71,68.53,55.83,66.13,57,63.65Z" transform="translate(0 -63.65)" style="fill:#2c2e2f"/><path d="M77.39,111.55c0-5.79,0-11.58,0-17.37,0-.67.17-.83.76-.81,1.12,0,2.25,0,3.38,0a4.36,4.36,0,0,1,4.17,4.53q0,13.68,0,27.35a4.36,4.36,0,0,1-4.1,4.52c-1.18,0-2.36,0-3.54,0-.54,0-.67-.14-.67-.74C77.4,123.24,77.39,117.39,77.39,111.55Z" transform="translate(0 -63.65)" style="fill:#fff"/><path d="M145.21,100.5c.21.15.14.31.14.43,0,4.08,0,8.16,0,12.24,0,.43,0,.72-.54.71-2,0-4.1,0-6.3,0Z" transform="translate(0 -63.65)" style="fill:#fff"/></svg>