<?xml version="1.0" encoding="utf-8"?>
<!-- Generator: Adobe Illustrator 23.0.0, SVG Export Plug-In . SVG Version: 6.00 Build 0)  -->
<svg version="1.1" id="Layer_1" xmlns="http://www.w3.org/2000/svg" xmlns:xlink="http://www.w3.org/1999/xlink" x="0px" y="0px"
	 viewBox="0 0 128 128" style="enable-background:new 0 0 128 128;" xml:space="preserve">
<style type="text/css">
	.st0{fill:#FFFFFF;}
	.st1{fill:#444B54;}
	.st2{fill:#9EB9D3;}
</style>
<g>
	<g>
		<g>
			<path class="st0" d="M113.1,64.2c-0.3,26-22.2,46.5-48.1,46.5H23.4c-2.4,0-4.1-1.9-4.1-4.3V64.3c0-26,20.5-47.9,46.2-48.4
				C92,15.8,113.6,37.4,113.1,64.2z"/>
		</g>
		<g>
			<path class="st1" d="M65.2,115.4H23.4c-4.9,0-8.8-3.9-8.8-9V64.5c0-28.8,22.9-52.6,50.9-53.1c14-0.2,27.3,5.2,37.2,15.1
				C112.8,36.6,118.2,50,118,64.2C117.5,92.4,93.7,115.4,65.2,115.4z M23.9,106H65c23.5,0,43-18.8,43.3-41.9l0,0
				c0.2-11.7-4.3-22.7-12.5-30.9C87.7,24.9,77,20.7,65.5,20.8c-22.9,0.3-41.6,20-41.6,43.7V106z"/>
		</g>
		<g>
			<g>
				<path class="st2" d="M65.2,79.2h-21c-2.7,0-4.7-2-4.7-4.7c0-2.7,2-4.7,4.7-4.7H65c2.7,0,4.7,2,4.7,4.7
					C69.8,77.1,67.7,79.2,65.2,79.2z"/>
			</g>
		</g>
		<g>
			<g>
				<path class="st2" d="M84.1,79.2h-0.3c-2.7,0-4.7-2-4.7-4.7c0-2.7,2-4.7,4.7-4.7h0.3c2.7,0,4.7,2,4.7,4.7
					C88.8,77.1,86.6,79.2,84.1,79.2z"/>
			</g>
		</g>
		<g>
			<g>
				<path class="st2" d="M85.7,63.4H43.9c-2.7,0-4.7-2-4.7-4.7c0-2.7,2-4.7,4.7-4.7h41.8c2.7,0,4.7,2,4.7,4.7
					C90.4,61.4,88.2,63.4,85.7,63.4z"/>
			</g>
		</g>
	</g>
</g>
</svg>
