<svg xmlns="http://www.w3.org/2000/svg" width="32" height="32" viewBox="0 0 32 32">
    <defs>
        <style>
            .cls-2{fill:#fff}
        </style>
    </defs>
    <g id="Group_2108" transform="translate(-63 -224)">
        <g id="Ellipse_91" fill="#f7a7a7" stroke="#fff" stroke-width="1.5px" transform="translate(63 224)">
            <circle cx="16" cy="16" r="16" stroke="none"/>
            <circle cx="16" cy="16" r="15.25" fill="none"/>
        </g>
        <g id="Multimedia" transform="translate(-132.634 -1793.817)">
            <path id="Path_1541" d="M218.029 2030.06h-2.314l-.731-1.584h-6.578l-.853 1.584h-2.314a.611.611 0 0 0-.609.609v8.039a.611.611 0 0 0 .609.609h12.79a.611.611 0 0 0 .609-.609v-8.039a.611.611 0 0 0-.609-.609zm-6.376 8.442a4.1 4.1 0 1 1 4.1-4.1 4.1 4.1 0 0 1-4.1 4.098z" class="cls-2"/>
            <circle id="Ellipse_93" cx="2.455" cy="2.455" r="2.455" class="cls-2" transform="translate(209.191 2031.949)"/>
        </g>
    </g>
</svg>
