<svg xmlns="http://www.w3.org/2000/svg" xmlns:xlink="http://www.w3.org/1999/xlink" viewBox="0 0 50 50"><defs><clipPath id="clip-path"><rect x="3.35" y="3.23" width="43.54" height="43.54" rx="21.77" ry="21.77" style="fill:none"/></clipPath><clipPath id="clip-path-2"><path d="M28.16,24.47s-1.72.1-1.81,3.06,1.46,5.53,2.74,5.76,2.48-.08,2.83-3.42S29.8,24.48,28.16,24.47Z" style="fill:none"/></clipPath><clipPath id="clip-path-3"><path d="M27.5,29.9a1.85,1.85,0,0,0,1.7,1.93,1.81,1.81,0,0,0,1.5-2A1.84,1.84,0,0,0,29,27.85,1.81,1.81,0,0,0,27.5,29.9Z" style="fill:none;clip-rule:evenodd"/></clipPath><clipPath id="clip-path-4"><path d="M30,28.2a2.06,2.06,0,0,1-.62,2.19,1.48,1.48,0,0,1-1.65.39,2.53,2.53,0,0,1-.22-.9A1.81,1.81,0,0,1,29,27.83,1.41,1.41,0,0,1,30,28.2Z" style="fill:none;clip-rule:evenodd"/></clipPath><clipPath id="clip-path-5"><path d="M22,24.36s1.72.1,1.81,3.06S22.37,33,21.09,33.18s-2.48-.08-2.82-3.42S20.38,24.37,22,24.36Z" style="fill:none"/></clipPath><clipPath id="clip-path-6"><path d="M22.68,29.79A1.85,1.85,0,0,1,21,31.72a1.81,1.81,0,0,1-1.5-2,1.84,1.84,0,0,1,1.7-1.93A1.81,1.81,0,0,1,22.68,29.79Z" style="fill:none;clip-rule:evenodd"/></clipPath><clipPath id="clip-path-7"><path d="M20.19,28.09a2.06,2.06,0,0,0,.62,2.19,1.48,1.48,0,0,0,1.65.39,2.17,2.17,0,0,0,.22-.9,1.81,1.81,0,0,0-1.5-2.05A1.41,1.41,0,0,0,20.19,28.09Z" style="fill:none;clip-rule:evenodd"/></clipPath><clipPath id="clip-path-8"><path d="M26.72,40.56c0-.11.29-.09.65-.2s.62-.32.66-.2-.21.3-.57.41S26.76,40.68,26.72,40.56Z" style="fill:none"/></clipPath></defs><title>supp</title><g style="isolation:isolate"><g id="Layer_1" data-name="Layer 1"><g style="opacity:0.1"><rect x="3.12" y="3" width="43.54" height="43.54" rx="21.77" ry="21.77" style="fill:#2c2e2f"/></g><g style="clip-path:url(#clip-path)"><polygon points="22.02 11.43 25.36 6.05 28.68 11.44 22.02 11.43" style="fill:#323742"/><path d="M35.05,20.38l-3-2.65-3,2.67V50.71a3.79,3.79,0,0,1-4,3.57,3.79,3.79,0,0,1-4-3.57l0-30.33-3-2.65-3,2.67V50.71c0,4.93,4.45,8.92,9.93,8.92s9.94-4,9.94-8.92V20.4Z" style="fill:#ef5051"/><path d="M25.14,60c-5.69,0-10.32-4.18-10.32-9.31V20.23l3.37-3,3.35,3,0,30.5a3.39,3.39,0,0,0,3.57,3.17,3.39,3.39,0,0,0,3.58-3.17V20.23l3.37-3,3.38,3v30.5C35.47,55.84,30.84,60,25.14,60ZM15.61,20.58V50.71c0,4.7,4.28,8.52,9.53,8.52s9.54-3.82,9.54-8.52V20.58l-2.59-2.32-2.58,2.32V50.71a4.18,4.18,0,0,1-4.37,4,4.18,4.18,0,0,1-4.36-4l0-30.15-2.56-2.3Z" style="fill:#323742"/><path d="M22.81,22.81h0A11.52,11.52,0,0,0,18.5,23.9h0l-.31-1.21h0a11.34,11.34,0,0,1,4.32-1.09h0Z" style="fill:#323742"/><path d="M27.34,22.81h0a11.52,11.52,0,0,1,4.32,1.09h0l.3-1.21h0a11.29,11.29,0,0,0-4.31-1.09h0Z" style="fill:#323742"/><g style="clip-path:url(#clip-path-2)"><rect x="26.27" y="24.47" width="5.99" height="9.05" style="fill:#dedfe8"/><ellipse cx="30.09" cy="27.57" rx="6.32" ry="5.68" style="fill:#dedfe8"/><ellipse cx="30.09" cy="27.57" rx="6.1" ry="5.47" style="fill:#e0e1e9"/><ellipse cx="30.09" cy="27.57" rx="5.87" ry="5.27" style="fill:#e2e2e9"/><ellipse cx="30.09" cy="27.57" rx="5.65" ry="5.07" style="fill:#e4e5eb"/><ellipse cx="30.09" cy="27.57" rx="5.42" ry="4.86" style="fill:#e5e6ec"/><ellipse cx="30.09" cy="27.57" rx="5.19" ry="4.66" style="fill:#e7e7ed"/><ellipse cx="30.09" cy="27.57" rx="4.97" ry="4.46" style="fill:#e8e8ee"/><ellipse cx="30.09" cy="27.57" rx="4.74" ry="4.26" style="fill:#eaeaef"/><ellipse cx="30.09" cy="27.57" rx="4.52" ry="4.05" style="fill:#ebecf0"/><ellipse cx="30.09" cy="27.57" rx="4.29" ry="3.85" style="fill:#ecedf2"/><ellipse cx="30.09" cy="27.57" rx="4.06" ry="3.65" style="fill:#eeeef2"/><ellipse cx="30.09" cy="27.57" rx="3.84" ry="3.45" style="fill:#eff0f4"/><ellipse cx="30.09" cy="27.57" rx="3.61" ry="3.24" style="fill:#f0f0f4"/><ellipse cx="30.09" cy="27.57" rx="3.39" ry="3.04" style="fill:#f1f1f4"/><ellipse cx="30.09" cy="27.57" rx="3.16" ry="2.84" style="fill:#f2f3f6"/><ellipse cx="30.09" cy="27.57" rx="2.94" ry="2.64" style="fill:#f4f4f7"/><ellipse cx="30.09" cy="27.57" rx="2.71" ry="2.43" style="fill:#f5f5f7"/><ellipse cx="30.09" cy="27.57" rx="2.48" ry="2.23" style="fill:#f6f6f9"/><ellipse cx="30.09" cy="27.57" rx="2.26" ry="2.03" style="fill:#f7f7fa"/><ellipse cx="30.09" cy="27.57" rx="2.03" ry="1.82" style="fill:#f9f9fa"/><ellipse cx="30.09" cy="27.57" rx="1.81" ry="1.62" style="fill:#fafafc"/><ellipse cx="30.09" cy="27.57" rx="1.58" ry="1.42" style="fill:#fafbfd"/><ellipse cx="30.09" cy="27.57" rx="1.35" ry="1.22" style="fill:#fcfcfd"/><ellipse cx="30.09" cy="27.57" rx="1.13" ry="1.01" style="fill:#fcfdff"/><ellipse cx="30.09" cy="27.57" rx="0.9" ry="0.81" style="fill:#fff"/><ellipse cx="30.09" cy="27.57" rx="0.68" ry="0.61" style="fill:#fff"/><ellipse cx="30.09" cy="27.57" rx="0.45" ry="0.41" style="fill:#fff"/><ellipse cx="30.09" cy="27.57" rx="0.23" ry="0.2" style="fill:#fff"/></g><path d="M27.26,29.89A2.06,2.06,0,0,0,29.19,32a2,2,0,0,0,1.71-2.26A2.06,2.06,0,0,0,29,27.63,2,2,0,0,0,27.26,29.89Z" style="fill:#59595c;fill-rule:evenodd"/><g style="clip-path:url(#clip-path-3)"><polygon points="30.75 31 30.61 27.81 30.75 27.81 30.75 31" style="fill:#5f96a8"/><polygon points="30.74 31.87 30.57 27.81 30.61 27.81 30.75 31 30.75 31.87 30.74 31.87" style="fill:#5f96a8"/><polygon points="30.7 31.87 30.52 27.81 30.57 27.81 30.74 31.87 30.7 31.87" style="fill:#5e95a8"/><polygon points="30.65 31.87 30.47 27.81 30.52 27.81 30.7 31.87 30.65 31.87" style="fill:#5d95a8"/><polygon points="30.6 31.87 30.42 27.81 30.47 27.81 30.65 31.87 30.6 31.87" style="fill:#5c94a8"/><polygon points="30.55 31.87 30.38 27.81 30.42 27.81 30.6 31.87 30.55 31.87" style="fill:#5b93a8"/><polygon points="30.5 31.87 30.33 27.81 30.38 27.81 30.55 31.87 30.5 31.87" style="fill:#5b93a8"/><polygon points="30.46 31.87 30.28 27.81 30.33 27.81 30.5 31.87 30.46 31.87" style="fill:#5a92a8"/><polygon points="30.41 31.87 30.23 27.81 30.28 27.81 30.46 31.87 30.41 31.87" style="fill:#5991a9"/><polygon points="30.36 31.87 30.18 27.81 30.23 27.81 30.41 31.87 30.36 31.87" style="fill:#5891a8"/><polygon points="30.31 31.87 30.14 27.81 30.18 27.81 30.36 31.87 30.31 31.87" style="fill:#5790a8"/><polygon points="30.27 31.87 30.09 27.81 30.14 27.81 30.31 31.87 30.27 31.87" style="fill:#578fa9"/><polygon points="30.22 31.87 30.04 27.81 30.09 27.81 30.27 31.87 30.22 31.87" style="fill:#568fa9"/><polygon points="30.17 31.87 29.99 27.81 30.04 27.81 30.22 31.87 30.17 31.87" style="fill:#558ea8"/><polygon points="30.12 31.87 29.95 27.81 29.99 27.81 30.17 31.87 30.12 31.87" style="fill:#548da9"/><polygon points="30.07 31.87 29.9 27.81 29.95 27.81 30.12 31.87 30.07 31.87" style="fill:#538ca9"/><polygon points="30.03 31.87 29.85 27.81 29.9 27.81 30.07 31.87 30.03 31.87" style="fill:#538ca9"/><polygon points="29.98 31.87 29.8 27.81 29.85 27.81 30.03 31.87 29.98 31.87" style="fill:#538ba9"/><polygon points="29.93 31.87 29.75 27.81 29.8 27.81 29.98 31.87 29.93 31.87" style="fill:#518ba9"/><polygon points="29.88 31.87 29.7 27.81 29.75 27.81 29.93 31.87 29.88 31.87" style="fill:#508aa9"/><polygon points="29.84 31.87 29.66 27.81 29.7 27.81 29.88 31.87 29.84 31.87" style="fill:#4f89a9"/><polygon points="29.79 31.87 29.61 27.81 29.66 27.81 29.84 31.87 29.79 31.87" style="fill:#5089a9"/><polygon points="29.74 31.87 29.56 27.81 29.61 27.81 29.79 31.87 29.74 31.87" style="fill:#4f88a9"/><polygon points="29.69 31.87 29.51 27.81 29.56 27.81 29.74 31.87 29.69 31.87" style="fill:#4d87a9"/><polygon points="29.64 31.87 29.47 27.81 29.51 27.81 29.69 31.87 29.64 31.87" style="fill:#4c87a9"/><polygon points="29.6 31.87 29.42 27.81 29.47 27.81 29.64 31.87 29.6 31.87" style="fill:#4b86a9"/><polygon points="29.55 31.87 29.37 27.81 29.42 27.81 29.6 31.87 29.55 31.87" style="fill:#4c86a9"/><polygon points="29.5 31.87 29.32 27.81 29.37 27.81 29.55 31.87 29.5 31.87" style="fill:#4b85a9"/><polygon points="29.45 31.87 29.27 27.81 29.32 27.81 29.5 31.87 29.45 31.87" style="fill:#4984a9"/><polygon points="29.4 31.87 29.23 27.81 29.27 27.81 29.45 31.87 29.4 31.87" style="fill:#4884a9"/><polygon points="29.36 31.87 29.18 27.81 29.23 27.81 29.4 31.87 29.36 31.87" style="fill:#4783a9"/><polygon points="29.31 31.87 29.13 27.81 29.18 27.81 29.36 31.87 29.31 31.87" style="fill:#4882a9"/><polygon points="29.26 31.87 29.08 27.81 29.13 27.81 29.31 31.87 29.26 31.87" style="fill:#4682aa"/><polygon points="29.21 31.87 29.04 27.81 29.08 27.81 29.26 31.87 29.21 31.87" style="fill:#4681a9"/><polygon points="29.16 31.87 28.99 27.81 29.04 27.81 29.21 31.87 29.16 31.87" style="fill:#4480a9"/><polygon points="29.12 31.87 28.94 27.81 28.99 27.81 29.16 31.87 29.12 31.87" style="fill:#4380aa"/><polygon points="29.07 31.87 28.89 27.81 28.94 27.81 29.12 31.87 29.07 31.87" style="fill:#4480aa"/><polygon points="29.02 31.87 28.84 27.81 28.89 27.81 29.07 31.87 29.02 31.87" style="fill:#4280a9"/><polygon points="28.97 31.87 28.8 27.81 28.84 27.81 29.02 31.87 28.97 31.87" style="fill:#417fa9"/><polygon points="28.93 31.87 28.75 27.81 28.8 27.81 28.97 31.87 28.93 31.87" style="fill:#407eaa"/><polygon points="28.88 31.87 28.7 27.81 28.75 27.81 28.93 31.87 28.88 31.87" style="fill:#3f7eaa"/><polygon points="28.83 31.87 28.65 27.81 28.7 27.81 28.88 31.87 28.83 31.87" style="fill:#407da9"/><polygon points="28.78 31.87 28.61 27.81 28.65 27.81 28.83 31.87 28.78 31.87" style="fill:#3f7ca9"/><polygon points="28.73 31.87 28.56 27.81 28.61 27.81 28.78 31.87 28.73 31.87" style="fill:#3d7ca9"/><polygon points="28.69 31.87 28.51 27.81 28.56 27.81 28.73 31.87 28.69 31.87" style="fill:#3c7ba9"/><polygon points="28.64 31.87 28.46 27.81 28.51 27.81 28.69 31.87 28.64 31.87" style="fill:#3b7aa9"/><polygon points="28.59 31.87 28.41 27.81 28.46 27.81 28.64 31.87 28.59 31.87" style="fill:#3b7aa9"/><polygon points="28.54 31.87 28.37 27.81 28.41 27.81 28.59 31.87 28.54 31.87" style="fill:#3a79a9"/><polygon points="28.5 31.87 28.32 27.81 28.37 27.81 28.54 31.87 28.5 31.87" style="fill:#3979a9"/><polygon points="28.45 31.87 28.27 27.81 28.32 27.81 28.5 31.87 28.45 31.87" style="fill:#3878a9"/><polygon points="28.4 31.87 28.22 27.81 28.27 27.81 28.45 31.87 28.4 31.87" style="fill:#3677a9"/><polygon points="28.35 31.87 28.18 27.81 28.22 27.81 28.4 31.87 28.35 31.87" style="fill:#3777a9"/><polygon points="28.3 31.87 28.13 27.81 28.18 27.81 28.35 31.87 28.3 31.87" style="fill:#3676a9"/><polygon points="28.26 31.87 28.08 27.81 28.13 27.81 28.3 31.87 28.26 31.87" style="fill:#3476a9"/><polygon points="28.21 31.87 28.03 27.81 28.08 27.81 28.26 31.87 28.21 31.87" style="fill:#3375a9"/><polygon points="28.16 31.87 27.98 27.81 28.03 27.81 28.21 31.87 28.16 31.87" style="fill:#3275aa"/><polygon points="28.11 31.87 27.94 27.81 27.98 27.81 28.16 31.87 28.11 31.87" style="fill:#3274a9"/><polygon points="28.07 31.87 27.89 27.81 27.94 27.81 28.11 31.87 28.07 31.87" style="fill:#3173a9"/><polygon points="28.02 31.87 27.84 27.81 27.89 27.81 28.07 31.87 28.02 31.87" style="fill:#3073a9"/><polygon points="27.97 31.87 27.79 27.81 27.84 27.81 28.02 31.87 27.97 31.87" style="fill:#2e72aa"/><polygon points="27.92 31.87 27.74 27.81 27.79 27.81 27.97 31.87 27.92 31.87" style="fill:#2f72a9"/><polygon points="27.87 31.87 27.7 27.81 27.74 27.81 27.92 31.87 27.87 31.87" style="fill:#2d71a9"/><polygon points="27.83 31.87 27.65 27.81 27.7 27.81 27.87 31.87 27.83 31.87" style="fill:#2c71aa"/><polygon points="27.78 31.87 27.6 27.81 27.65 27.81 27.83 31.87 27.78 31.87" style="fill:#2a70aa"/><polygon points="27.73 31.87 27.55 27.81 27.6 27.81 27.78 31.87 27.73 31.87" style="fill:#2970a9"/><polygon points="27.68 31.87 27.5 27.81 27.55 27.81 27.73 31.87 27.68 31.87" style="fill:#2a6faa"/><polygon points="27.64 31.87 27.46 27.81 27.5 27.81 27.68 31.87 27.64 31.87" style="fill:#286faa"/><polygon points="27.59 31.87 27.45 28.71 27.45 27.81 27.46 27.81 27.64 31.87 27.59 31.87" style="fill:#266eaa"/><polygon points="27.45 28.71 27.59 31.87 27.45 31.87 27.45 28.71" style="fill:#266eaa"/></g><g style="clip-path:url(#clip-path-4)"><polygon points="30.18 31 30.04 27.81 30.19 27.81 30.19 31 30.18 31" style="fill:#b8e2f8"/><polygon points="30.16 31 30.02 27.81 30.04 27.81 30.18 31 30.16 31" style="fill:#b8e2f8"/><polygon points="30.14 31 30 27.81 30.02 27.81 30.16 31 30.14 31" style="fill:#b7e0f7"/><polygon points="30.13 31 29.99 27.81 30 27.81 30.14 31 30.13 31" style="fill:#b6dff6"/><polygon points="30.11 31 29.97 27.81 29.99 27.81 30.13 31 30.11 31" style="fill:#b5def6"/><polygon points="30.09 31 29.95 27.81 29.97 27.81 30.11 31 30.09 31" style="fill:#b4ddf5"/><polygon points="30.08 31 29.94 27.81 29.95 27.81 30.09 31 30.08 31" style="fill:#b3dcf4"/><polygon points="30.06 31 29.92 27.81 29.94 27.81 30.08 31 30.06 31" style="fill:#b2dbf4"/><polygon points="30.04 31 29.9 27.81 29.92 27.81 30.06 31 30.04 31" style="fill:#b1daf2"/><polygon points="30.03 31 29.89 27.81 29.9 27.81 30.04 31 30.03 31" style="fill:#b0d9f2"/><polygon points="30.01 31 29.87 27.81 29.89 27.81 30.03 31 30.01 31" style="fill:#afd8f1"/><polygon points="29.99 31 29.85 27.81 29.87 27.81 30.01 31 29.99 31" style="fill:#aed7f1"/><polygon points="29.98 31 29.84 27.81 29.85 27.81 29.99 31 29.98 31" style="fill:#add6f0"/><polygon points="29.96 31 29.82 27.81 29.84 27.81 29.98 31 29.96 31" style="fill:#acd5f0"/><polygon points="29.94 31 29.8 27.81 29.82 27.81 29.96 31 29.94 31" style="fill:#abd4ef"/><polygon points="29.93 31 29.79 27.81 29.8 27.81 29.94 31 29.93 31" style="fill:#aad3ed"/><polygon points="29.91 31 29.77 27.81 29.79 27.81 29.93 31 29.91 31" style="fill:#a9d2ed"/><polygon points="29.89 31 29.75 27.81 29.77 27.81 29.91 31 29.89 31" style="fill:#a8d1ed"/><polygon points="29.88 31 29.74 27.81 29.75 27.81 29.89 31 29.88 31" style="fill:#a7d0ec"/><polygon points="29.86 31 29.72 27.81 29.74 27.81 29.88 31 29.86 31" style="fill:#a6d0ec"/><polygon points="29.84 31 29.7 27.81 29.72 27.81 29.86 31 29.84 31" style="fill:#a5cfeb"/><polygon points="29.82 31 29.69 27.81 29.7 27.81 29.84 31 29.82 31" style="fill:#a4ceeb"/><polygon points="29.81 31 29.67 27.81 29.69 27.81 29.82 31 29.81 31" style="fill:#a4cde9"/><polygon points="29.79 31 29.65 27.81 29.67 27.81 29.81 31 29.79 31" style="fill:#a3cce9"/><polygon points="29.77 31 29.64 27.81 29.65 27.81 29.79 31 29.77 31" style="fill:#a2cbe8"/><polygon points="29.76 31 29.62 27.81 29.64 27.81 29.77 31 29.76 31" style="fill:#a1cae8"/><polygon points="29.74 31 29.6 27.81 29.62 27.81 29.76 31 29.74 31" style="fill:#a0c9e7"/><polygon points="29.73 31 29.59 27.81 29.6 27.81 29.74 31 29.73 31" style="fill:#9fc8e7"/><polygon points="29.71 31 29.57 27.81 29.59 27.81 29.73 31 29.71 31" style="fill:#9ec7e7"/><polygon points="29.69 31 29.55 27.81 29.57 27.81 29.71 31 29.69 31" style="fill:#9dc6e5"/><polygon points="29.68 31 29.54 27.81 29.55 27.81 29.69 31 29.68 31" style="fill:#9cc5e5"/><polygon points="29.66 31 29.52 27.81 29.54 27.81 29.68 31 29.66 31" style="fill:#9bc4e4"/><polygon points="29.64 31 29.5 27.81 29.52 27.81 29.66 31 29.64 31" style="fill:#9ac4e4"/><polygon points="29.63 31 29.48 27.81 29.5 27.81 29.64 31 29.63 31" style="fill:#99c3e3"/><polygon points="29.61 31 29.47 27.81 29.48 27.81 29.63 31 29.61 31" style="fill:#98c2e3"/><polygon points="29.59 31 29.45 27.81 29.47 27.81 29.61 31 29.59 31" style="fill:#97c1e2"/><polygon points="29.57 31 29.43 27.81 29.45 27.81 29.59 31 29.57 31" style="fill:#96c0e1"/><polygon points="29.56 31 29.42 27.81 29.43 27.81 29.57 31 29.56 31" style="fill:#95c0e1"/><polygon points="29.54 31 29.4 27.81 29.42 27.81 29.56 31 29.54 31" style="fill:#95bfe0"/><polygon points="29.52 31 29.39 27.81 29.4 27.81 29.54 31 29.52 31" style="fill:#94bee0"/><polygon points="29.51 31 29.37 27.81 29.39 27.81 29.52 31 29.51 31" style="fill:#93bddf"/><polygon points="29.49 31 29.35 27.81 29.37 27.81 29.51 31 29.49 31" style="fill:#92bcdf"/><polygon points="29.47 31 29.34 27.81 29.35 27.81 29.49 31 29.47 31" style="fill:#91bbde"/><polygon points="29.46 31 29.32 27.81 29.34 27.81 29.47 31 29.46 31" style="fill:#90badd"/><polygon points="29.44 31 29.3 27.81 29.32 27.81 29.46 31 29.44 31" style="fill:#8fb9dd"/><polygon points="29.42 31 29.28 27.81 29.3 27.81 29.44 31 29.42 31" style="fill:#8eb8dc"/><polygon points="29.41 31 29.27 27.81 29.28 27.81 29.42 31 29.41 31" style="fill:#8db8dc"/><polygon points="29.39 31 29.25 27.81 29.27 27.81 29.41 31 29.39 31" style="fill:#8cb7dc"/><polygon points="29.37 31 29.23 27.81 29.25 27.81 29.39 31 29.37 31" style="fill:#8cb6db"/><polygon points="29.36 31 29.22 27.81 29.23 27.81 29.37 31 29.36 31" style="fill:#8bb5da"/><polygon points="29.34 31 29.2 27.81 29.22 27.81 29.36 31 29.34 31" style="fill:#8ab4da"/><polygon points="29.32 31 29.18 27.81 29.2 27.81 29.34 31 29.32 31" style="fill:#89b4d9"/><polygon points="29.31 31 29.17 27.81 29.18 27.81 29.32 31 29.31 31" style="fill:#88b3d9"/><polygon points="29.29 31 29.15 27.81 29.17 27.81 29.31 31 29.29 31" style="fill:#87b2d8"/><polygon points="29.27 31 29.13 27.81 29.15 27.81 29.29 31 29.27 31" style="fill:#87b1d8"/><polygon points="29.26 31 29.12 27.81 29.13 27.81 29.27 31 29.26 31" style="fill:#86b0d7"/><polygon points="29.24 31 29.1 27.81 29.12 27.81 29.26 31 29.24 31" style="fill:#85b0d7"/><polygon points="29.22 31 29.08 27.81 29.1 27.81 29.24 31 29.22 31" style="fill:#84afd6"/><polygon points="29.21 31 29.07 27.81 29.08 27.81 29.22 31 29.21 31" style="fill:#83aed6"/><polygon points="29.19 31 29.05 27.81 29.07 27.81 29.21 31 29.19 31" style="fill:#82add5"/><polygon points="29.17 31 29.03 27.81 29.05 27.81 29.19 31 29.17 31" style="fill:#81acd5"/><polygon points="29.16 31 29.02 27.81 29.03 27.81 29.17 31 29.16 31" style="fill:#80acd4"/><polygon points="29.14 31 29 27.81 29.02 27.81 29.16 31 29.14 31" style="fill:#80abd4"/><polygon points="29.12 31 28.98 27.81 29 27.81 29.14 31 29.12 31" style="fill:#80aad3"/><polygon points="29.11 31 28.97 27.81 28.98 27.81 29.12 31 29.11 31" style="fill:#7fa9d2"/><polygon points="29.09 31 28.95 27.81 28.97 27.81 29.11 31 29.09 31" style="fill:#7ea8d2"/><polygon points="29.07 31 28.93 27.81 28.95 27.81 29.09 31 29.07 31" style="fill:#7da8d2"/><polygon points="29.06 31 28.92 27.81 28.93 27.81 29.07 31 29.06 31" style="fill:#7ca7d1"/><polygon points="29.04 31 28.9 27.81 28.92 27.81 29.06 31 29.04 31" style="fill:#7ba6d1"/><polygon points="29.02 31 28.88 27.81 28.9 27.81 29.04 31 29.02 31" style="fill:#7ba5d0"/><polygon points="29 31 28.87 27.81 28.88 27.81 29.02 31 29 31" style="fill:#7aa5cf"/><polygon points="28.99 31 28.85 27.81 28.87 27.81 29 31 28.99 31" style="fill:#79a4cf"/><polygon points="28.97 31 28.83 27.81 28.85 27.81 28.99 31 28.97 31" style="fill:#78a3ce"/><polygon points="28.95 31 28.82 27.81 28.83 27.81 28.97 31 28.95 31" style="fill:#78a2ce"/><polygon points="28.94 31 28.8 27.81 28.82 27.81 28.95 31 28.94 31" style="fill:#77a1cd"/><polygon points="28.92 31 28.78 27.81 28.8 27.81 28.94 31 28.92 31" style="fill:#76a1cd"/><polygon points="28.91 31 28.77 27.81 28.78 27.81 28.92 31 28.91 31" style="fill:#75a0cc"/><polygon points="28.89 31 28.75 27.81 28.77 27.81 28.91 31 28.89 31" style="fill:#74a0cc"/><polygon points="28.87 31 28.73 27.81 28.75 27.81 28.89 31 28.87 31" style="fill:#739fcb"/><polygon points="28.86 31 28.72 27.81 28.73 27.81 28.87 31 28.86 31" style="fill:#739ecb"/><polygon points="28.84 31 28.7 27.81 28.72 27.81 28.86 31 28.84 31" style="fill:#729dcb"/><polygon points="28.82 31 28.68 27.81 28.7 27.81 28.84 31 28.82 31" style="fill:#719cca"/><polygon points="28.8 31 28.66 27.81 28.68 27.81 28.82 31 28.8 31" style="fill:#709cca"/><polygon points="28.79 31 28.65 27.81 28.66 27.81 28.8 31 28.79 31" style="fill:#709bc9"/><polygon points="28.77 31 28.63 27.81 28.65 27.81 28.79 31 28.77 31" style="fill:#6f9ac8"/><polygon points="28.75 31 28.61 27.81 28.63 27.81 28.77 31 28.75 31" style="fill:#6e99c8"/><polygon points="28.74 31 28.6 27.81 28.61 27.81 28.75 31 28.74 31" style="fill:#6d99c8"/><polygon points="28.72 31 28.58 27.81 28.6 27.81 28.74 31 28.72 31" style="fill:#6c98c7"/><polygon points="28.7 31 28.57 27.81 28.58 27.81 28.72 31 28.7 31" style="fill:#6b97c7"/><polygon points="28.69 31 28.55 27.81 28.57 27.81 28.7 31 28.69 31" style="fill:#6a97c6"/><polygon points="28.67 31 28.53 27.81 28.55 27.81 28.69 31 28.67 31" style="fill:#6a96c5"/><polygon points="28.65 31 28.52 27.81 28.53 27.81 28.67 31 28.65 31" style="fill:#6995c5"/><polygon points="28.64 31 28.5 27.81 28.52 27.81 28.65 31 28.64 31" style="fill:#6894c5"/><polygon points="28.62 31 28.48 27.81 28.5 27.81 28.64 31 28.62 31" style="fill:#6794c4"/><polygon points="28.6 31 28.46 27.81 28.48 27.81 28.62 31 28.6 31" style="fill:#6693c4"/><polygon points="28.59 31 28.45 27.81 28.46 27.81 28.6 31 28.59 31" style="fill:#6593c4"/><polygon points="28.57 31 28.43 27.81 28.45 27.81 28.59 31 28.57 31" style="fill:#6592c3"/><polygon points="28.55 31 28.41 27.81 28.43 27.81 28.57 31 28.55 31" style="fill:#6491c2"/><polygon points="28.54 31 28.4 27.81 28.41 27.81 28.55 31 28.54 31" style="fill:#6390c2"/><polygon points="28.52 31 28.38 27.81 28.4 27.81 28.54 31 28.52 31" style="fill:#6290c1"/><polygon points="28.5 31 28.36 27.81 28.38 27.81 28.52 31 28.5 31" style="fill:#608fc1"/><polygon points="28.49 31 28.35 27.81 28.36 27.81 28.5 31 28.49 31" style="fill:#5f8ec0"/><polygon points="28.47 31 28.33 27.81 28.35 27.81 28.49 31 28.47 31" style="fill:#5f8dc0"/><polygon points="28.45 31 28.31 27.81 28.33 27.81 28.47 31 28.45 31" style="fill:#5e8dc0"/><polygon points="28.44 31 28.3 27.81 28.31 27.81 28.45 31 28.44 31" style="fill:#5d8cbf"/><polygon points="28.42 31 28.28 27.81 28.3 27.81 28.44 31 28.42 31" style="fill:#5c8cbf"/><polygon points="28.4 31 28.26 27.81 28.28 27.81 28.42 31 28.4 31" style="fill:#5b8bbe"/><polygon points="28.39 31 28.25 27.81 28.26 27.81 28.4 31 28.39 31" style="fill:#5a8abe"/><polygon points="28.37 31 28.23 27.81 28.25 27.81 28.39 31 28.37 31" style="fill:#598abd"/><polygon points="28.35 31 28.21 27.81 28.23 27.81 28.37 31 28.35 31" style="fill:#5989bd"/><polygon points="28.34 31 28.2 27.81 28.21 27.81 28.35 31 28.34 31" style="fill:#5888bc"/><polygon points="28.32 31 28.18 27.81 28.2 27.81 28.34 31 28.32 31" style="fill:#5787bc"/><polygon points="28.3 31 28.16 27.81 28.18 27.81 28.32 31 28.3 31" style="fill:#5687bb"/><polygon points="28.29 31 28.15 27.81 28.16 27.81 28.3 31 28.29 31" style="fill:#5586bb"/><polygon points="28.27 31 28.13 27.81 28.15 27.81 28.29 31 28.27 31" style="fill:#5485bb"/><polygon points="28.25 31 28.11 27.81 28.13 27.81 28.27 31 28.25 31" style="fill:#5385ba"/><polygon points="28.24 31 28.1 27.81 28.11 27.81 28.25 31 28.24 31" style="fill:#5284ba"/><polygon points="28.22 31 28.08 27.81 28.1 27.81 28.24 31 28.22 31" style="fill:#5284b9"/><polygon points="28.2 31 28.06 27.81 28.08 27.81 28.22 31 28.2 31" style="fill:#5183b9"/><polygon points="28.19 31 28.05 27.81 28.06 27.81 28.2 31 28.19 31" style="fill:#5082b8"/><polygon points="28.17 31 28.03 27.81 28.05 27.81 28.19 31 28.17 31" style="fill:#4f82b8"/><polygon points="28.15 31 28.01 27.81 28.03 27.81 28.17 31 28.15 31" style="fill:#4e81b8"/><polygon points="28.14 31 28 27.81 28.01 27.81 28.15 31 28.14 31" style="fill:#4d80b7"/><polygon points="28.12 31 27.98 27.81 28 27.81 28.14 31 28.12 31" style="fill:#4c80b7"/><polygon points="28.1 31 27.96 27.81 27.98 27.81 28.12 31 28.1 31" style="fill:#4b80b6"/><polygon points="28.09 31 27.95 27.81 27.96 27.81 28.1 31 28.09 31" style="fill:#4a80b6"/><polygon points="28.07 31 27.93 27.81 27.95 27.81 28.09 31 28.07 31" style="fill:#497fb6"/><polygon points="28.05 31 27.91 27.81 27.93 27.81 28.07 31 28.05 31" style="fill:#487fb5"/><polygon points="28.04 31 27.9 27.81 27.91 27.81 28.05 31 28.04 31" style="fill:#477eb5"/><polygon points="28.02 31 27.88 27.81 27.9 27.81 28.04 31 28.02 31" style="fill:#467db4"/><polygon points="28 31 27.86 27.81 27.88 27.81 28.02 31 28 31" style="fill:#457db4"/><polygon points="27.98 31 27.84 27.81 27.86 27.81 28 31 27.98 31" style="fill:#457cb3"/><polygon points="27.97 31 27.83 27.81 27.84 27.81 27.98 31 27.97 31" style="fill:#447cb3"/><polygon points="27.95 31 27.81 27.81 27.83 27.81 27.97 31 27.95 31" style="fill:#437bb3"/><polygon points="27.93 31 27.8 27.81 27.81 27.81 27.95 31 27.93 31" style="fill:#427ab2"/><polygon points="27.92 31 27.78 27.81 27.8 27.81 27.93 31 27.92 31" style="fill:#407ab2"/><polygon points="27.9 31 27.76 27.81 27.78 27.81 27.92 31 27.9 31" style="fill:#3f79b2"/><polygon points="27.88 31 27.75 27.81 27.76 27.81 27.9 31 27.88 31" style="fill:#3e79b1"/><polygon points="27.87 31 27.73 27.81 27.75 27.81 27.88 31 27.87 31" style="fill:#3d78b1"/><polygon points="27.85 31 27.71 27.81 27.73 27.81 27.87 31 27.85 31" style="fill:#3c78b0"/><polygon points="27.83 31 27.7 27.81 27.71 27.81 27.85 31 27.83 31" style="fill:#3b77b0"/><polygon points="27.82 31 27.68 27.81 27.7 27.81 27.83 31 27.82 31" style="fill:#3a76b0"/><polygon points="27.8 31 27.66 27.81 27.68 27.81 27.82 31 27.8 31" style="fill:#3976af"/><polygon points="27.78 31 27.64 27.81 27.66 27.81 27.8 31 27.78 31" style="fill:#3875af"/><polygon points="27.77 31 27.63 27.81 27.64 27.81 27.78 31 27.77 31" style="fill:#3775ae"/><polygon points="27.75 31 27.61 27.81 27.63 27.81 27.77 31 27.75 31" style="fill:#3674ae"/><polygon points="27.73 31 27.59 27.81 27.61 27.81 27.75 31 27.73 31" style="fill:#3474ae"/><polygon points="27.72 31 27.58 27.81 27.59 27.81 27.73 31 27.72 31" style="fill:#3373ad"/><polygon points="27.7 31 27.56 27.81 27.58 27.81 27.72 31 27.7 31" style="fill:#3273ad"/><polygon points="27.68 31 27.54 27.81 27.56 27.81 27.7 31 27.68 31" style="fill:#3172ad"/><polygon points="27.67 31 27.53 27.81 27.54 27.81 27.68 31 27.67 31" style="fill:#3071ac"/><polygon points="27.65 31 27.51 27.81 27.53 27.81 27.67 31 27.65 31" style="fill:#2f71ac"/><polygon points="27.63 31 27.49 27.81 27.51 27.81 27.65 31 27.63 31" style="fill:#2e70ab"/><polygon points="27.62 31 27.48 27.81 27.49 27.81 27.63 31 27.62 31" style="fill:#2c70ab"/><polygon points="27.6 31 27.46 27.81 27.48 27.81 27.62 31 27.6 31" style="fill:#2a70ab"/><polygon points="27.58 31 27.45 27.87 27.45 27.81 27.46 27.81 27.6 31 27.58 31" style="fill:#296fab"/><polygon points="27.57 31 27.45 28.26 27.45 27.87 27.58 31 27.57 31" style="fill:#286faa"/><polygon points="27.55 31 27.45 28.64 27.45 28.26 27.57 31 27.55 31" style="fill:#266eaa"/><polygon points="27.45 28.64 27.55 31 27.45 31 27.45 28.64" style="fill:#266eaa"/></g><path d="M28.08,29.78a1.25,1.25,0,0,0,1.13,1.3,1.22,1.22,0,0,0,1-1.39,1.24,1.24,0,0,0-1.12-1.3A1.21,1.21,0,0,0,28.08,29.78Z" style="fill-rule:evenodd"/><path d="M28.24,28.6a.41.41,0,0,0,.4.43.42.42,0,0,0,.37-.46.43.43,0,0,0-.41-.43A.41.41,0,0,0,28.24,28.6Z" style="fill:#fff;fill-rule:evenodd"/><path d="M29.8,30.6a.18.18,0,1,0,.16-.23C29.87,30.37,29.79,30.48,29.8,30.6Z" style="fill:#fff;fill-rule:evenodd"/><path d="M26.89,31.09c.4,1.06,1.22,2.45,2.68,2.46A2.52,2.52,0,0,0,32,31.27a7.25,7.25,0,0,0-.44-4.59c-.55-1.05-1.88-2.47-3.37-2.21a2.49,2.49,0,0,0-2,2A9.4,9.4,0,0,0,26.89,31.09Zm-.25-2.31c-.11-1.31-.26-3.2,1-3.81,1.51-.73,3.2.82,3.66,2a7.72,7.72,0,0,1,.37,3.72c-.16,1.08-.8,2.94-2.46,2.45a3.55,3.55,0,0,1-2.18-2.74C26.91,29.89,26.75,29.33,26.64,28.78Z" style="fill:#323742"/><g style="clip-path:url(#clip-path-5)"><rect x="17.92" y="24.36" width="5.99" height="9.05" style="fill:#dedfe8"/><ellipse cx="20.09" cy="27.46" rx="6.32" ry="5.68" style="fill:#dedfe8"/><ellipse cx="20.09" cy="27.46" rx="6.1" ry="5.47" style="fill:#e0e1e9"/><ellipse cx="20.09" cy="27.46" rx="5.87" ry="5.27" style="fill:#e2e2e9"/><ellipse cx="20.09" cy="27.46" rx="5.65" ry="5.07" style="fill:#e4e5eb"/><ellipse cx="20.09" cy="27.46" rx="5.42" ry="4.86" style="fill:#e5e6ec"/><ellipse cx="20.09" cy="27.46" rx="5.19" ry="4.66" style="fill:#e7e7ed"/><ellipse cx="20.09" cy="27.46" rx="4.97" ry="4.46" style="fill:#e8e8ee"/><ellipse cx="20.09" cy="27.46" rx="4.74" ry="4.26" style="fill:#eaeaef"/><ellipse cx="20.09" cy="27.46" rx="4.52" ry="4.05" style="fill:#ebecf0"/><ellipse cx="20.09" cy="27.46" rx="4.29" ry="3.85" style="fill:#ecedf2"/><ellipse cx="20.09" cy="27.46" rx="4.06" ry="3.65" style="fill:#eeeef2"/><ellipse cx="20.09" cy="27.46" rx="3.84" ry="3.45" style="fill:#eff0f4"/><ellipse cx="20.09" cy="27.46" rx="3.61" ry="3.24" style="fill:#f0f0f4"/><ellipse cx="20.09" cy="27.46" rx="3.39" ry="3.04" style="fill:#f1f1f4"/><ellipse cx="20.09" cy="27.46" rx="3.16" ry="2.84" style="fill:#f2f3f6"/><ellipse cx="20.09" cy="27.46" rx="2.94" ry="2.64" style="fill:#f4f4f7"/><ellipse cx="20.09" cy="27.46" rx="2.71" ry="2.43" style="fill:#f5f5f7"/><ellipse cx="20.09" cy="27.46" rx="2.48" ry="2.23" style="fill:#f6f6f9"/><ellipse cx="20.09" cy="27.46" rx="2.26" ry="2.03" style="fill:#f7f7fa"/><ellipse cx="20.09" cy="27.46" rx="2.03" ry="1.82" style="fill:#f9f9fa"/><ellipse cx="20.09" cy="27.46" rx="1.81" ry="1.62" style="fill:#fafafc"/><ellipse cx="20.09" cy="27.46" rx="1.58" ry="1.42" style="fill:#fafbfd"/><ellipse cx="20.09" cy="27.46" rx="1.35" ry="1.22" style="fill:#fcfcfd"/><ellipse cx="20.09" cy="27.46" rx="1.13" ry="1.01" style="fill:#fcfdff"/><ellipse cx="20.09" cy="27.46" rx="0.9" ry="0.81" style="fill:#fff"/><ellipse cx="20.09" cy="27.46" rx="0.68" ry="0.61" style="fill:#fff"/><ellipse cx="20.09" cy="27.46" rx="0.45" ry="0.41" style="fill:#fff"/><ellipse cx="20.09" cy="27.46" rx="0.23" ry="0.2" style="fill:#fff"/></g><path d="M22.92,29.78A2.06,2.06,0,0,1,21,31.9a2,2,0,0,1-1.71-2.26,2.06,2.06,0,0,1,1.93-2.12A2,2,0,0,1,22.92,29.78Z" style="fill:#59595c;fill-rule:evenodd"/><g style="clip-path:url(#clip-path-6)"><polygon points="19.57 27.7 19.43 30.89 19.43 27.7 19.57 27.7" style="fill:#5f96a8"/><polygon points="19.61 27.7 19.44 31.76 19.43 31.76 19.43 30.89 19.57 27.7 19.61 27.7" style="fill:#5f96a8"/><polygon points="19.66 27.7 19.48 31.76 19.44 31.76 19.61 27.7 19.66 27.7" style="fill:#5e95a8"/><polygon points="19.71 27.7 19.53 31.76 19.48 31.76 19.66 27.7 19.71 27.7" style="fill:#5d95a8"/><polygon points="19.76 27.7 19.58 31.76 19.53 31.76 19.71 27.7 19.76 27.7" style="fill:#5c94a8"/><polygon points="19.81 27.7 19.63 31.76 19.58 31.76 19.76 27.7 19.81 27.7" style="fill:#5b93a8"/><polygon points="19.85 27.7 19.68 31.76 19.63 31.76 19.81 27.7 19.85 27.7" style="fill:#5b93a8"/><polygon points="19.9 27.7 19.72 31.76 19.68 31.76 19.85 27.7 19.9 27.7" style="fill:#5a92a8"/><polygon points="19.95 27.7 19.77 31.76 19.72 31.76 19.9 27.7 19.95 27.7" style="fill:#5991a9"/><polygon points="20 27.7 19.82 31.76 19.77 31.76 19.95 27.7 20 27.7" style="fill:#5891a8"/><polygon points="20.05 27.7 19.87 31.76 19.82 31.76 20 27.7 20.05 27.7" style="fill:#5790a8"/><polygon points="20.09 27.7 19.92 31.76 19.87 31.76 20.05 27.7 20.09 27.7" style="fill:#578fa9"/><polygon points="20.14 27.7 19.96 31.76 19.92 31.76 20.09 27.7 20.14 27.7" style="fill:#568fa9"/><polygon points="20.19 27.7 20.01 31.76 19.96 31.76 20.14 27.7 20.19 27.7" style="fill:#558ea8"/><polygon points="20.24 27.7 20.06 31.76 20.01 31.76 20.19 27.7 20.24 27.7" style="fill:#548da9"/><polygon points="20.28 27.7 20.11 31.76 20.06 31.76 20.24 27.7 20.28 27.7" style="fill:#538ca9"/><polygon points="20.33 27.7 20.16 31.76 20.11 31.76 20.28 27.7 20.33 27.7" style="fill:#538ca9"/><polygon points="20.38 27.7 20.2 31.76 20.16 31.76 20.33 27.7 20.38 27.7" style="fill:#538ba9"/><polygon points="20.43 27.7 20.25 31.76 20.2 31.76 20.38 27.7 20.43 27.7" style="fill:#518ba9"/><polygon points="20.48 27.7 20.3 31.76 20.25 31.76 20.43 27.7 20.48 27.7" style="fill:#508aa9"/><polygon points="20.52 27.7 20.35 31.76 20.3 31.76 20.48 27.7 20.52 27.7" style="fill:#4f89a9"/><polygon points="20.57 27.7 20.39 31.76 20.35 31.76 20.52 27.7 20.57 27.7" style="fill:#5089a9"/><polygon points="20.62 27.7 20.44 31.76 20.39 31.76 20.57 27.7 20.62 27.7" style="fill:#4f88a9"/><polygon points="20.67 27.7 20.49 31.76 20.44 31.76 20.62 27.7 20.67 27.7" style="fill:#4d87a9"/><polygon points="20.71 27.7 20.54 31.76 20.49 31.76 20.67 27.7 20.71 27.7" style="fill:#4c87a9"/><polygon points="20.76 27.7 20.59 31.76 20.54 31.76 20.71 27.7 20.76 27.7" style="fill:#4b86a9"/><polygon points="20.81 27.7 20.63 31.76 20.59 31.76 20.76 27.7 20.81 27.7" style="fill:#4c86a9"/><polygon points="20.86 27.7 20.68 31.76 20.63 31.76 20.81 27.7 20.86 27.7" style="fill:#4b85a9"/><polygon points="20.91 27.7 20.73 31.76 20.68 31.76 20.86 27.7 20.91 27.7" style="fill:#4984a9"/><polygon points="20.95 27.7 20.78 31.76 20.73 31.76 20.91 27.7 20.95 27.7" style="fill:#4884a9"/><polygon points="21 27.7 20.82 31.76 20.78 31.76 20.95 27.7 21 27.7" style="fill:#4783a9"/><polygon points="21.05 27.7 20.87 31.76 20.82 31.76 21 27.7 21.05 27.7" style="fill:#4882a9"/><polygon points="21.1 27.7 20.92 31.76 20.87 31.76 21.05 27.7 21.1 27.7" style="fill:#4682aa"/><polygon points="21.14 27.7 20.97 31.76 20.92 31.76 21.1 27.7 21.14 27.7" style="fill:#4681a9"/><polygon points="21.19 27.7 21.02 31.76 20.97 31.76 21.14 27.7 21.19 27.7" style="fill:#4480a9"/><polygon points="21.24 27.7 21.06 31.76 21.02 31.76 21.19 27.7 21.24 27.7" style="fill:#4380aa"/><polygon points="21.29 27.7 21.11 31.76 21.06 31.76 21.24 27.7 21.29 27.7" style="fill:#4480aa"/><polygon points="21.34 27.7 21.16 31.76 21.11 31.76 21.29 27.7 21.34 27.7" style="fill:#4280a9"/><polygon points="21.38 27.7 21.21 31.76 21.16 31.76 21.34 27.7 21.38 27.7" style="fill:#417fa9"/><polygon points="21.43 27.7 21.25 31.76 21.21 31.76 21.38 27.7 21.43 27.7" style="fill:#407eaa"/><polygon points="21.48 27.7 21.3 31.76 21.25 31.76 21.43 27.7 21.48 27.7" style="fill:#3f7eaa"/><polygon points="21.53 27.7 21.35 31.76 21.3 31.76 21.48 27.7 21.53 27.7" style="fill:#407da9"/><polygon points="21.58 27.7 21.4 31.76 21.35 31.76 21.53 27.7 21.58 27.7" style="fill:#3f7ca9"/><polygon points="21.62 27.7 21.45 31.76 21.4 31.76 21.58 27.7 21.62 27.7" style="fill:#3d7ca9"/><polygon points="21.67 27.7 21.49 31.76 21.45 31.76 21.62 27.7 21.67 27.7" style="fill:#3c7ba9"/><polygon points="21.72 27.7 21.54 31.76 21.49 31.76 21.67 27.7 21.72 27.7" style="fill:#3b7aa9"/><polygon points="21.77 27.7 21.59 31.76 21.54 31.76 21.72 27.7 21.77 27.7" style="fill:#3b7aa9"/><polygon points="21.82 27.7 21.64 31.76 21.59 31.76 21.77 27.7 21.82 27.7" style="fill:#3a79a9"/><polygon points="21.86 27.7 21.68 31.76 21.64 31.76 21.82 27.7 21.86 27.7" style="fill:#3979a9"/><polygon points="21.91 27.7 21.73 31.76 21.68 31.76 21.86 27.7 21.91 27.7" style="fill:#3878a9"/><polygon points="21.96 27.7 21.78 31.76 21.73 31.76 21.91 27.7 21.96 27.7" style="fill:#3677a9"/><polygon points="22.01 27.7 21.83 31.76 21.78 31.76 21.96 27.7 22.01 27.7" style="fill:#3777a9"/><polygon points="22.05 27.7 21.88 31.76 21.83 31.76 22.01 27.7 22.05 27.7" style="fill:#3676a9"/><polygon points="22.1 27.7 21.92 31.76 21.88 31.76 22.05 27.7 22.1 27.7" style="fill:#3476a9"/><polygon points="22.15 27.7 21.97 31.76 21.92 31.76 22.1 27.7 22.15 27.7" style="fill:#3375a9"/><polygon points="22.2 27.7 22.02 31.76 21.97 31.76 22.15 27.7 22.2 27.7" style="fill:#3275aa"/><polygon points="22.25 27.7 22.07 31.76 22.02 31.76 22.2 27.7 22.25 27.7" style="fill:#3274a9"/><polygon points="22.29 27.7 22.12 31.76 22.07 31.76 22.25 27.7 22.29 27.7" style="fill:#3173a9"/><polygon points="22.34 27.7 22.16 31.76 22.12 31.76 22.29 27.7 22.34 27.7" style="fill:#3073a9"/><polygon points="22.39 27.7 22.21 31.76 22.16 31.76 22.34 27.7 22.39 27.7" style="fill:#2e72aa"/><polygon points="22.44 27.7 22.26 31.76 22.21 31.76 22.39 27.7 22.44 27.7" style="fill:#2f72a9"/><polygon points="22.48 27.7 22.31 31.76 22.26 31.76 22.44 27.7 22.48 27.7" style="fill:#2d71a9"/><polygon points="22.53 27.7 22.36 31.76 22.31 31.76 22.48 27.7 22.53 27.7" style="fill:#2c71aa"/><polygon points="22.58 27.7 22.4 31.76 22.36 31.76 22.53 27.7 22.58 27.7" style="fill:#2a70aa"/><polygon points="22.63 27.7 22.45 31.76 22.4 31.76 22.58 27.7 22.63 27.7" style="fill:#2970a9"/><polygon points="22.68 27.7 22.5 31.76 22.45 31.76 22.63 27.7 22.68 27.7" style="fill:#2a6faa"/><polygon points="22.72 27.7 22.55 31.76 22.5 31.76 22.68 27.7 22.72 27.7" style="fill:#286faa"/><polygon points="22.73 28.6 22.59 31.76 22.55 31.76 22.72 27.7 22.73 27.7 22.73 28.6" style="fill:#266eaa"/><polygon points="22.59 31.76 22.73 28.6 22.73 31.76 22.59 31.76" style="fill:#266eaa"/></g><g style="clip-path:url(#clip-path-7)"><polygon points="20.14 27.7 20 30.89 19.99 30.89 19.99 27.7 20.14 27.7" style="fill:#b8e2f8"/><polygon points="20.16 27.7 20.02 30.89 20 30.89 20.14 27.7 20.16 27.7" style="fill:#b8e2f8"/><polygon points="20.18 27.7 20.04 30.89 20.02 30.89 20.16 27.7 20.18 27.7" style="fill:#b7e0f7"/><polygon points="20.19 27.7 20.05 30.89 20.04 30.89 20.18 27.7 20.19 27.7" style="fill:#b6dff6"/><polygon points="20.21 27.7 20.07 30.89 20.05 30.89 20.19 27.7 20.21 27.7" style="fill:#b5def6"/><polygon points="20.23 27.7 20.09 30.89 20.07 30.89 20.21 27.7 20.23 27.7" style="fill:#b4ddf5"/><polygon points="20.24 27.7 20.11 30.89 20.09 30.89 20.23 27.7 20.24 27.7" style="fill:#b3dcf4"/><polygon points="20.26 27.7 20.12 30.89 20.11 30.89 20.24 27.7 20.26 27.7" style="fill:#b2dbf4"/><polygon points="20.28 27.7 20.14 30.89 20.12 30.89 20.26 27.7 20.28 27.7" style="fill:#b1daf2"/><polygon points="20.29 27.7 20.16 30.89 20.14 30.89 20.28 27.7 20.29 27.7" style="fill:#b0d9f2"/><polygon points="20.31 27.7 20.17 30.89 20.16 30.89 20.29 27.7 20.31 27.7" style="fill:#afd8f1"/><polygon points="20.33 27.7 20.19 30.89 20.17 30.89 20.31 27.7 20.33 27.7" style="fill:#aed7f1"/><polygon points="20.34 27.7 20.2 30.89 20.19 30.89 20.33 27.7 20.34 27.7" style="fill:#add6f0"/><polygon points="20.36 27.7 20.22 30.89 20.2 30.89 20.34 27.7 20.36 27.7" style="fill:#acd5f0"/><polygon points="20.38 27.7 20.24 30.89 20.22 30.89 20.36 27.7 20.38 27.7" style="fill:#abd4ef"/><polygon points="20.39 27.7 20.25 30.89 20.24 30.89 20.38 27.7 20.39 27.7" style="fill:#aad3ed"/><polygon points="20.41 27.7 20.27 30.89 20.25 30.89 20.39 27.7 20.41 27.7" style="fill:#a9d2ed"/><polygon points="20.43 27.7 20.29 30.89 20.27 30.89 20.41 27.7 20.43 27.7" style="fill:#a8d1ed"/><polygon points="20.45 27.7 20.3 30.89 20.29 30.89 20.43 27.7 20.45 27.7" style="fill:#a7d0ec"/><polygon points="20.46 27.7 20.32 30.89 20.3 30.89 20.45 27.7 20.46 27.7" style="fill:#a6d0ec"/><polygon points="20.48 27.7 20.34 30.89 20.32 30.89 20.46 27.7 20.48 27.7" style="fill:#a5cfeb"/><polygon points="20.5 27.7 20.36 30.89 20.34 30.89 20.48 27.7 20.5 27.7" style="fill:#a4ceeb"/><polygon points="20.51 27.7 20.37 30.89 20.36 30.89 20.5 27.7 20.51 27.7" style="fill:#a4cde9"/><polygon points="20.53 27.7 20.39 30.89 20.37 30.89 20.51 27.7 20.53 27.7" style="fill:#a3cce9"/><polygon points="20.55 27.7 20.41 30.89 20.39 30.89 20.53 27.7 20.55 27.7" style="fill:#a2cbe8"/><polygon points="20.56 27.7 20.42 30.89 20.41 30.89 20.55 27.7 20.56 27.7" style="fill:#a1cae8"/><polygon points="20.58 27.7 20.44 30.89 20.42 30.89 20.56 27.7 20.58 27.7" style="fill:#a0c9e7"/><polygon points="20.59 27.7 20.46 30.89 20.44 30.89 20.58 27.7 20.59 27.7" style="fill:#9fc8e7"/><polygon points="20.61 27.7 20.47 30.89 20.46 30.89 20.59 27.7 20.61 27.7" style="fill:#9ec7e7"/><polygon points="20.63 27.7 20.49 30.89 20.47 30.89 20.61 27.7 20.63 27.7" style="fill:#9dc6e5"/><polygon points="20.64 27.7 20.51 30.89 20.49 30.89 20.63 27.7 20.64 27.7" style="fill:#9cc5e5"/><polygon points="20.66 27.7 20.52 30.89 20.51 30.89 20.64 27.7 20.66 27.7" style="fill:#9bc4e4"/><polygon points="20.68 27.7 20.54 30.89 20.52 30.89 20.66 27.7 20.68 27.7" style="fill:#9ac4e4"/><polygon points="20.7 27.7 20.56 30.89 20.54 30.89 20.68 27.7 20.7 27.7" style="fill:#99c3e3"/><polygon points="20.71 27.7 20.57 30.89 20.56 30.89 20.7 27.7 20.71 27.7" style="fill:#98c2e3"/><polygon points="20.73 27.7 20.59 30.89 20.57 30.89 20.71 27.7 20.73 27.7" style="fill:#97c1e2"/><polygon points="20.75 27.7 20.61 30.89 20.59 30.89 20.73 27.7 20.75 27.7" style="fill:#96c0e1"/><polygon points="20.76 27.7 20.62 30.89 20.61 30.89 20.75 27.7 20.76 27.7" style="fill:#95c0e1"/><polygon points="20.78 27.7 20.64 30.89 20.62 30.89 20.76 27.7 20.78 27.7" style="fill:#95bfe0"/><polygon points="20.8 27.7 20.66 30.89 20.64 30.89 20.78 27.7 20.8 27.7" style="fill:#94bee0"/><polygon points="20.81 27.7 20.67 30.89 20.66 30.89 20.8 27.7 20.81 27.7" style="fill:#93bddf"/><polygon points="20.83 27.7 20.69 30.89 20.67 30.89 20.81 27.7 20.83 27.7" style="fill:#92bcdf"/><polygon points="20.85 27.7 20.71 30.89 20.69 30.89 20.83 27.7 20.85 27.7" style="fill:#91bbde"/><polygon points="20.86 27.7 20.72 30.89 20.71 30.89 20.85 27.7 20.86 27.7" style="fill:#90badd"/><polygon points="20.88 27.7 20.74 30.89 20.72 30.89 20.86 27.7 20.88 27.7" style="fill:#8fb9dd"/><polygon points="20.9 27.7 20.76 30.89 20.74 30.89 20.88 27.7 20.9 27.7" style="fill:#8eb8dc"/><polygon points="20.91 27.7 20.77 30.89 20.76 30.89 20.9 27.7 20.91 27.7" style="fill:#8db8dc"/><polygon points="20.93 27.7 20.79 30.89 20.77 30.89 20.91 27.7 20.93 27.7" style="fill:#8cb7dc"/><polygon points="20.95 27.7 20.81 30.89 20.79 30.89 20.93 27.7 20.95 27.7" style="fill:#8cb6db"/><polygon points="20.96 27.7 20.82 30.89 20.81 30.89 20.95 27.7 20.96 27.7" style="fill:#8bb5da"/><polygon points="20.98 27.7 20.84 30.89 20.82 30.89 20.96 27.7 20.98 27.7" style="fill:#8ab4da"/><polygon points="21 27.7 20.86 30.89 20.84 30.89 20.98 27.7 21 27.7" style="fill:#89b4d9"/><polygon points="21.01 27.7 20.87 30.89 20.86 30.89 21 27.7 21.01 27.7" style="fill:#88b3d9"/><polygon points="21.03 27.7 20.89 30.89 20.87 30.89 21.01 27.7 21.03 27.7" style="fill:#87b2d8"/><polygon points="21.05 27.7 20.91 30.89 20.89 30.89 21.03 27.7 21.05 27.7" style="fill:#87b1d8"/><polygon points="21.06 27.7 20.92 30.89 20.91 30.89 21.05 27.7 21.06 27.7" style="fill:#86b0d7"/><polygon points="21.08 27.7 20.94 30.89 20.92 30.89 21.06 27.7 21.08 27.7" style="fill:#85b0d7"/><polygon points="21.1 27.7 20.96 30.89 20.94 30.89 21.08 27.7 21.1 27.7" style="fill:#84afd6"/><polygon points="21.11 27.7 20.98 30.89 20.96 30.89 21.1 27.7 21.11 27.7" style="fill:#83aed6"/><polygon points="21.13 27.7 20.99 30.89 20.98 30.89 21.11 27.7 21.13 27.7" style="fill:#82add5"/><polygon points="21.15 27.7 21.01 30.89 20.99 30.89 21.13 27.7 21.15 27.7" style="fill:#81acd5"/><polygon points="21.16 27.7 21.02 30.89 21.01 30.89 21.15 27.7 21.16 27.7" style="fill:#80acd4"/><polygon points="21.18 27.7 21.04 30.89 21.02 30.89 21.16 27.7 21.18 27.7" style="fill:#80abd4"/><polygon points="21.2 27.7 21.06 30.89 21.04 30.89 21.18 27.7 21.2 27.7" style="fill:#80aad3"/><polygon points="21.21 27.7 21.07 30.89 21.06 30.89 21.2 27.7 21.21 27.7" style="fill:#7fa9d2"/><polygon points="21.23 27.7 21.09 30.89 21.07 30.89 21.21 27.7 21.23 27.7" style="fill:#7ea8d2"/><polygon points="21.25 27.7 21.11 30.89 21.09 30.89 21.23 27.7 21.25 27.7" style="fill:#7da8d2"/><polygon points="21.27 27.7 21.13 30.89 21.11 30.89 21.25 27.7 21.27 27.7" style="fill:#7ca7d1"/><polygon points="21.28 27.7 21.14 30.89 21.13 30.89 21.27 27.7 21.28 27.7" style="fill:#7ba6d1"/><polygon points="21.3 27.7 21.16 30.89 21.14 30.89 21.28 27.7 21.3 27.7" style="fill:#7ba5d0"/><polygon points="21.32 27.7 21.18 30.89 21.16 30.89 21.3 27.7 21.32 27.7" style="fill:#7aa5cf"/><polygon points="21.33 27.7 21.19 30.89 21.18 30.89 21.32 27.7 21.33 27.7" style="fill:#79a4cf"/><polygon points="21.35 27.7 21.21 30.89 21.19 30.89 21.33 27.7 21.35 27.7" style="fill:#78a3ce"/><polygon points="21.36 27.7 21.23 30.89 21.21 30.89 21.35 27.7 21.36 27.7" style="fill:#78a2ce"/><polygon points="21.38 27.7 21.24 30.89 21.23 30.89 21.36 27.7 21.38 27.7" style="fill:#77a1cd"/><polygon points="21.4 27.7 21.26 30.89 21.24 30.89 21.38 27.7 21.4 27.7" style="fill:#76a1cd"/><polygon points="21.41 27.7 21.28 30.89 21.26 30.89 21.4 27.7 21.41 27.7" style="fill:#75a0cc"/><polygon points="21.43 27.7 21.29 30.89 21.28 30.89 21.41 27.7 21.43 27.7" style="fill:#74a0cc"/><polygon points="21.45 27.7 21.31 30.89 21.29 30.89 21.43 27.7 21.45 27.7" style="fill:#739fcb"/><polygon points="21.46 27.7 21.33 30.89 21.31 30.89 21.45 27.7 21.46 27.7" style="fill:#739ecb"/><polygon points="21.48 27.7 21.34 30.89 21.33 30.89 21.46 27.7 21.48 27.7" style="fill:#729dcb"/><polygon points="21.5 27.7 21.36 30.89 21.34 30.89 21.48 27.7 21.5 27.7" style="fill:#719cca"/><polygon points="21.52 27.7 21.38 30.89 21.36 30.89 21.5 27.7 21.52 27.7" style="fill:#709cca"/><polygon points="21.53 27.7 21.39 30.89 21.38 30.89 21.52 27.7 21.53 27.7" style="fill:#709bc9"/><polygon points="21.55 27.7 21.41 30.89 21.39 30.89 21.53 27.7 21.55 27.7" style="fill:#6f9ac8"/><polygon points="21.57 27.7 21.43 30.89 21.41 30.89 21.55 27.7 21.57 27.7" style="fill:#6e99c8"/><polygon points="21.58 27.7 21.44 30.89 21.43 30.89 21.57 27.7 21.58 27.7" style="fill:#6d99c8"/><polygon points="21.6 27.7 21.46 30.89 21.44 30.89 21.58 27.7 21.6 27.7" style="fill:#6c98c7"/><polygon points="21.62 27.7 21.48 30.89 21.46 30.89 21.6 27.7 21.62 27.7" style="fill:#6b97c7"/><polygon points="21.63 27.7 21.49 30.89 21.48 30.89 21.62 27.7 21.63 27.7" style="fill:#6a97c6"/><polygon points="21.65 27.7 21.51 30.89 21.49 30.89 21.63 27.7 21.65 27.7" style="fill:#6a96c5"/><polygon points="21.67 27.7 21.53 30.89 21.51 30.89 21.65 27.7 21.67 27.7" style="fill:#6995c5"/><polygon points="21.68 27.7 21.54 30.89 21.53 30.89 21.67 27.7 21.68 27.7" style="fill:#6894c5"/><polygon points="21.7 27.7 21.56 30.89 21.54 30.89 21.68 27.7 21.7 27.7" style="fill:#6794c4"/><polygon points="21.72 27.7 21.58 30.89 21.56 30.89 21.7 27.7 21.72 27.7" style="fill:#6693c4"/><polygon points="21.73 27.7 21.59 30.89 21.58 30.89 21.72 27.7 21.73 27.7" style="fill:#6593c4"/><polygon points="21.75 27.7 21.61 30.89 21.59 30.89 21.73 27.7 21.75 27.7" style="fill:#6592c3"/><polygon points="21.77 27.7 21.63 30.89 21.61 30.89 21.75 27.7 21.77 27.7" style="fill:#6491c2"/><polygon points="21.78 27.7 21.64 30.89 21.63 30.89 21.77 27.7 21.78 27.7" style="fill:#6390c2"/><polygon points="21.8 27.7 21.66 30.89 21.64 30.89 21.78 27.7 21.8 27.7" style="fill:#6290c1"/><polygon points="21.82 27.7 21.68 30.89 21.66 30.89 21.8 27.7 21.82 27.7" style="fill:#608fc1"/><polygon points="21.83 27.7 21.69 30.89 21.68 30.89 21.82 27.7 21.83 27.7" style="fill:#5f8ec0"/><polygon points="21.85 27.7 21.71 30.89 21.69 30.89 21.83 27.7 21.85 27.7" style="fill:#5f8dc0"/><polygon points="21.87 27.7 21.73 30.89 21.71 30.89 21.85 27.7 21.87 27.7" style="fill:#5e8dc0"/><polygon points="21.88 27.7 21.74 30.89 21.73 30.89 21.87 27.7 21.88 27.7" style="fill:#5d8cbf"/><polygon points="21.9 27.7 21.76 30.89 21.74 30.89 21.88 27.7 21.9 27.7" style="fill:#5c8cbf"/><polygon points="21.92 27.7 21.78 30.89 21.76 30.89 21.9 27.7 21.92 27.7" style="fill:#5b8bbe"/><polygon points="21.93 27.7 21.8 30.89 21.78 30.89 21.92 27.7 21.93 27.7" style="fill:#5a8abe"/><polygon points="21.95 27.7 21.81 30.89 21.8 30.89 21.93 27.7 21.95 27.7" style="fill:#598abd"/><polygon points="21.97 27.7 21.83 30.89 21.81 30.89 21.95 27.7 21.97 27.7" style="fill:#5989bd"/><polygon points="21.98 27.7 21.84 30.89 21.83 30.89 21.97 27.7 21.98 27.7" style="fill:#5888bc"/><polygon points="22 27.7 21.86 30.89 21.84 30.89 21.98 27.7 22 27.7" style="fill:#5787bc"/><polygon points="22.02 27.7 21.88 30.89 21.86 30.89 22 27.7 22.02 27.7" style="fill:#5687bb"/><polygon points="22.03 27.7 21.89 30.89 21.88 30.89 22.02 27.7 22.03 27.7" style="fill:#5586bb"/><polygon points="22.05 27.7 21.91 30.89 21.89 30.89 22.03 27.7 22.05 27.7" style="fill:#5485bb"/><polygon points="22.07 27.7 21.93 30.89 21.91 30.89 22.05 27.7 22.07 27.7" style="fill:#5385ba"/><polygon points="22.08 27.7 21.95 30.89 21.93 30.89 22.07 27.7 22.08 27.7" style="fill:#5284ba"/><polygon points="22.1 27.7 21.96 30.89 21.95 30.89 22.08 27.7 22.1 27.7" style="fill:#5284b9"/><polygon points="22.12 27.7 21.98 30.89 21.96 30.89 22.1 27.7 22.12 27.7" style="fill:#5183b9"/><polygon points="22.14 27.7 22 30.89 21.98 30.89 22.12 27.7 22.14 27.7" style="fill:#5082b8"/><polygon points="22.15 27.7 22.01 30.89 22 30.89 22.14 27.7 22.15 27.7" style="fill:#4f82b8"/><polygon points="22.17 27.7 22.03 30.89 22.01 30.89 22.15 27.7 22.17 27.7" style="fill:#4e81b8"/><polygon points="22.18 27.7 22.05 30.89 22.03 30.89 22.17 27.7 22.18 27.7" style="fill:#4d80b7"/><polygon points="22.2 27.7 22.06 30.89 22.05 30.89 22.18 27.7 22.2 27.7" style="fill:#4c80b7"/><polygon points="22.22 27.7 22.08 30.89 22.06 30.89 22.2 27.7 22.22 27.7" style="fill:#4b80b6"/><polygon points="22.23 27.7 22.1 30.89 22.08 30.89 22.22 27.7 22.23 27.7" style="fill:#4a80b6"/><polygon points="22.25 27.7 22.11 30.89 22.1 30.89 22.23 27.7 22.25 27.7" style="fill:#497fb6"/><polygon points="22.27 27.7 22.13 30.89 22.11 30.89 22.25 27.7 22.27 27.7" style="fill:#487fb5"/><polygon points="22.29 27.7 22.15 30.89 22.13 30.89 22.27 27.7 22.29 27.7" style="fill:#477eb5"/><polygon points="22.3 27.7 22.16 30.89 22.15 30.89 22.29 27.7 22.3 27.7" style="fill:#467db4"/><polygon points="22.32 27.7 22.18 30.89 22.16 30.89 22.3 27.7 22.32 27.7" style="fill:#457db4"/><polygon points="22.34 27.7 22.2 30.89 22.18 30.89 22.32 27.7 22.34 27.7" style="fill:#457cb3"/><polygon points="22.35 27.7 22.21 30.89 22.2 30.89 22.34 27.7 22.35 27.7" style="fill:#447cb3"/><polygon points="22.37 27.7 22.23 30.89 22.21 30.89 22.35 27.7 22.37 27.7" style="fill:#437bb3"/><polygon points="22.39 27.7 22.25 30.89 22.23 30.89 22.37 27.7 22.39 27.7" style="fill:#427ab2"/><polygon points="22.4 27.7 22.26 30.89 22.25 30.89 22.39 27.7 22.4 27.7" style="fill:#407ab2"/><polygon points="22.42 27.7 22.28 30.89 22.26 30.89 22.4 27.7 22.42 27.7" style="fill:#3f79b2"/><polygon points="22.44 27.7 22.3 30.89 22.28 30.89 22.42 27.7 22.44 27.7" style="fill:#3e79b1"/><polygon points="22.45 27.7 22.31 30.89 22.3 30.89 22.44 27.7 22.45 27.7" style="fill:#3d78b1"/><polygon points="22.47 27.7 22.33 30.89 22.31 30.89 22.45 27.7 22.47 27.7" style="fill:#3c78b0"/><polygon points="22.49 27.7 22.35 30.89 22.33 30.89 22.47 27.7 22.49 27.7" style="fill:#3b77b0"/><polygon points="22.5 27.7 22.36 30.89 22.35 30.89 22.49 27.7 22.5 27.7" style="fill:#3a76b0"/><polygon points="22.52 27.7 22.38 30.89 22.36 30.89 22.5 27.7 22.52 27.7" style="fill:#3976af"/><polygon points="22.54 27.7 22.4 30.89 22.38 30.89 22.52 27.7 22.54 27.7" style="fill:#3875af"/><polygon points="22.55 27.7 22.41 30.89 22.4 30.89 22.54 27.7 22.55 27.7" style="fill:#3775ae"/><polygon points="22.57 27.7 22.43 30.89 22.41 30.89 22.55 27.7 22.57 27.7" style="fill:#3674ae"/><polygon points="22.59 27.7 22.45 30.89 22.43 30.89 22.57 27.7 22.59 27.7" style="fill:#3474ae"/><polygon points="22.6 27.7 22.46 30.89 22.45 30.89 22.59 27.7 22.6 27.7" style="fill:#3373ad"/><polygon points="22.62 27.7 22.48 30.89 22.46 30.89 22.6 27.7 22.62 27.7" style="fill:#3273ad"/><polygon points="22.64 27.7 22.5 30.89 22.48 30.89 22.62 27.7 22.64 27.7" style="fill:#3172ad"/><polygon points="22.65 27.7 22.51 30.89 22.5 30.89 22.64 27.7 22.65 27.7" style="fill:#3071ac"/><polygon points="22.67 27.7 22.53 30.89 22.51 30.89 22.65 27.7 22.67 27.7" style="fill:#2f71ac"/><polygon points="22.69 27.7 22.55 30.89 22.53 30.89 22.67 27.7 22.69 27.7" style="fill:#2e70ab"/><polygon points="22.7 27.7 22.56 30.89 22.55 30.89 22.69 27.7 22.7 27.7" style="fill:#2c70ab"/><polygon points="22.72 27.7 22.58 30.89 22.56 30.89 22.7 27.7 22.72 27.7" style="fill:#2a70ab"/><polygon points="22.73 27.77 22.6 30.89 22.58 30.89 22.72 27.7 22.73 27.7 22.73 27.77" style="fill:#296fab"/><polygon points="22.73 28.15 22.61 30.89 22.6 30.89 22.73 27.77 22.73 28.15" style="fill:#286faa"/><polygon points="22.73 28.53 22.63 30.89 22.61 30.89 22.73 28.15 22.73 28.53" style="fill:#266eaa"/><polygon points="22.63 30.89 22.73 28.53 22.73 30.89 22.63 30.89" style="fill:#266eaa"/></g><path d="M22.1,29.67A1.25,1.25,0,0,1,21,31a1.21,1.21,0,0,1-1-1.39,1.25,1.25,0,0,1,1.13-1.3A1.21,1.21,0,0,1,22.1,29.67Z" style="fill-rule:evenodd"/><path d="M21.94,28.49a.41.41,0,0,1-.4.43.41.41,0,0,1-.36-.46.41.41,0,0,1,.4-.43A.41.41,0,0,1,21.94,28.49Z" style="fill:#fff;fill-rule:evenodd"/><path d="M20.38,30.49a.21.21,0,0,1-.18.21.21.21,0,0,1-.17-.23.18.18,0,1,1,.35,0Z" style="fill:#fff;fill-rule:evenodd"/><path d="M24,26.34a2.18,2.18,0,0,0-.89-1.48,2.13,2.13,0,0,0-1.08-.5c-1.49-.26-2.82,1.16-3.37,2.21a7.25,7.25,0,0,0-.44,4.59,2.52,2.52,0,0,0,2.4,2.28c1.46,0,2.28-1.39,2.68-2.46A9.29,9.29,0,0,0,24,26.34Zm-.86,4A3.53,3.53,0,0,1,21,33.05c-1.66.49-2.3-1.37-2.46-2.45a7.72,7.72,0,0,1,.37-3.72c.46-1.2,2.15-2.75,3.67-2,1.27.61,1.12,2.5,1,3.81C23.43,29.23,23.27,29.78,23.13,30.31Z" style="fill:#323742"/><g style="mix-blend-mode:overlay"><g style="clip-path:url(#clip-path-8)"><rect x="26.67" y="40.04" width="1.41" height="0.64" style="fill:#fff"/><ellipse cx="27.36" cy="40.45" rx="0.57" ry="0.19" transform="translate(-10.45 9.54) rotate(-16.66)" style="fill:#fff"/><path d="M27.09,40.54s.09-.13.24-.18.29,0,.3,0-.08.12-.24.17S27.1,40.58,27.09,40.54Z" style="fill:#fff"/></g></g><path d="M25,35.36a33,33,0,0,0,6.38-.72,6,6,0,0,1-6.16,5.73,6,6,0,0,1-6.15-5.73A29.15,29.15,0,0,0,25,35.36Z" style="fill:#242a33"/><path d="M18.26,35a1.05,1.05,0,0,1,.15-.31,1.49,1.49,0,0,1,.24-.28,1.44,1.44,0,0,1,.37-.26l.22-.08a.87.87,0,0,1,.22,0,.76.76,0,0,1,.21,0,.59.59,0,0,1,.19,0,.76.76,0,0,1,.16,0l.11,0,.1,0h-.55l-.19,0a1.39,1.39,0,0,0-.19.06.64.64,0,0,0-.19.08,1.3,1.3,0,0,0-.34.21,1.25,1.25,0,0,0-.27.23A1.72,1.72,0,0,0,18.26,35Z" style="fill:#323742"/><path d="M30.48,34a1.46,1.46,0,0,1,.39,0,2.16,2.16,0,0,1,.39.12,1.53,1.53,0,0,1,.41.23,1.29,1.29,0,0,1,.17.16,1.18,1.18,0,0,1,.13.18.71.71,0,0,1,.08.18.58.58,0,0,1,0,.18,1.23,1.23,0,0,1,0,.26.62.62,0,0,0,0,.09.25.25,0,0,1,0-.09l0-.11a1.12,1.12,0,0,0-.05-.13.47.47,0,0,0-.06-.15l-.1-.15-.06-.08-.07-.08a.93.93,0,0,0-.15-.13,1.09,1.09,0,0,0-.17-.13l-.18-.1-.35-.15Z" style="fill:#323742"/><path d="M20.23,35.09v.45a.67.67,0,0,0,.66.64h0a22.43,22.43,0,0,0,7.79.65l.69-.07a.69.69,0,0,0,.74-.47L30.48,35A37.46,37.46,0,0,1,20.23,35.09Z" style="fill:#fff"/><path d="M22.75,39.13c.43-.16,3.4-1.26,2.6.44a1.13,1.13,0,0,0,.29-.53c.21-.78,1.87-1.21,3.4-.84a.43.43,0,0,1,.2.77,6.57,6.57,0,0,1-6.5,1A.43.43,0,0,1,22.75,39.13Z" style="fill:#bb2726"/><path d="M25,35.34l.81,0,.4,0,.4,0,.79-.09.8-.12.78-.14c.27,0,.53-.09.79-.15l.78-.15.77-.16.3-.07v.26l0,.58c0,.18-.06.37-.09.56s-.11.37-.16.55a5,5,0,0,1-.23.53,5.05,5.05,0,0,1-.28.51,5.11,5.11,0,0,1-.33.48,5.32,5.32,0,0,1-.38.45c-.13.15-.28.28-.42.42s-.3.25-.46.38l-.49.34-.53.3-.55.25-.58.21-.6.16-.62.1-.63,0h-.62L24,40.43l-.62-.14-.6-.19-.58-.24-.54-.3-.51-.35-.46-.39-.43-.44c-.12-.15-.26-.3-.37-.46s-.23-.33-.32-.5-.19-.35-.26-.53-.15-.36-.21-.54S19,36,19,35.79s-.06-.38-.08-.57l0-.58v-.28l.32.07.71.17.73.16.72.16c.25,0,.49.1.74.13l.73.12.37,0,.38,0a6,6,0,0,0,.74.06Zm0,0-.75,0H23.9l-.37,0-.75,0L22,35.26l-.75-.07q-.37,0-.75-.09a6.29,6.29,0,0,1-.74-.11c-.25,0-.5-.08-.75-.13l.31-.22,0,.54c0,.17.06.35.09.52s.1.34.14.51.13.34.19.5.17.33.24.49.2.3.29.46.23.29.34.43a3.69,3.69,0,0,0,.38.41c.13.13.28.25.42.37l.46.34.49.29.53.25.55.2.57.14.58.11.6,0h.6l.6-.07c.2,0,.4-.08.59-.12l.57-.18.55-.24.51-.3c.16-.11.32-.22.47-.34a5.3,5.3,0,0,0,.43-.38c.13-.14.27-.28.38-.42s.23-.3.33-.46.2-.31.28-.48.16-.33.22-.5a5.08,5.08,0,0,0,.17-.51c0-.18.1-.35.13-.52l.07-.53,0-.54.28.2c-.26.06-.53.11-.79.15l-.8.12-.81.09-.8.07-.81,0c-.27,0-.54,0-.81,0l-.4,0h-.4Z" style="fill:#323742"/><path d="M18.32,42.34S14.65,46.62,14.4,48L12,47.27l1-1.87,1.67-2.75,1.58-2.08Z" style="fill:#ef5051"/><path d="M16.21,40.57s-4.69,5.56-4.1,8.27" style="fill:none"/><path d="M16.21,40.57A4.93,4.93,0,0,1,15.44,42a29.81,29.81,0,0,0-1.75,2.62,10.64,10.64,0,0,0-1.23,2.8c-.18.37-.17,1.35-.35,1.47-.27,0-.13-2-.15-1.57a11.58,11.58,0,0,1,1.29-2.91A30.46,30.46,0,0,1,15,41.7C14.77,42,16,40.54,16.21,40.57Z" style="fill:#323742"/><path d="M17.92,42.66s-4.69,5.56-4.11,8.27" style="fill:none"/><path d="M17.92,42.66A5,5,0,0,1,17.14,44a30.72,30.72,0,0,0-1.74,2.62,11.22,11.22,0,0,0-1.24,2.8c-.17.37-.16,1.35-.35,1.47-.26,0-.12-2-.14-1.57A11.29,11.29,0,0,1,15,46.45c.85-1.46,1.9-2.82,1.77-2.66C16.48,44.11,17.69,42.63,17.92,42.66Z" style="fill:#323742"/><path d="M12.66,46.5c-1.42-.14-2.89.83-3,1.93s1.09,2,2.51,2.11,3-.7,3.13-1.8S14.08,46.64,12.66,46.5Z" style="fill:#323742"/><path d="M14.74,48.59a1.93,1.93,0,0,1,0,.34c-.11.93-1.25,1.59-2.54,1.46s-2.24-1-2.13-1.92a1.5,1.5,0,0,1,.73-1.07C11.9,46.84,14.07,47,14.74,48.59Z" style="fill:#e5e5e4"/><path d="M14.15,54.8c1-.71.37-3.81.37-3.81a3.15,3.15,0,0,0,2.15.24c1-.35,1.79-1.65.64-2.08s-1.53-.28-2.11-.57a5.47,5.47,0,0,0-3.33-.17L9.43,50.07l.15,0s-1.36,2.05-1.06,3.05a1.53,1.53,0,0,0,1.33,1.07s-.09,1.49.84,1.45a2.69,2.69,0,0,0,1.61-.76A1.66,1.66,0,0,0,14.15,54.8Z" style="fill:#fff"/><path d="M10.75,53.5s-.78.39-1.13-.13,0-2.21.42-3a5.34,5.34,0,0,0,.59-1.14L9.54,50c-1.34,1.75-1,3.18-.53,4S10.75,53.5,10.75,53.5Z" style="fill:#e5e5e4"/><path d="M11.34,48.73a4.08,4.08,0,0,1,3.76,0c1,.4,1.66.14,2.33.54s.69,1.6-.76,2a3,3,0,0,1-2.88-.93" style="fill:none"/><path d="M13.79,50.3a6.86,6.86,0,0,0,1.56.73,2.26,2.26,0,0,0,1.7-.23c.55-.28.74-1.08.15-1.38s-1.62-.17-2.3-.54-.5-.71.21-.45,1.39.12,2.39.53a1.25,1.25,0,0,1-.15,2.25,2.68,2.68,0,0,1-2.12.18C14.07,51,13.73,50.32,13.79,50.3Z" style="fill:#323742"/><path d="M10.17,49.52C9,50.22,8.07,53.2,9,54s2.09-.17,2-1.6" style="fill:none"/><path d="M11.26,52.38a2.21,2.21,0,0,1-.55,1.73,1.36,1.36,0,0,1-1.89.07,2.7,2.7,0,0,1-.18-2.71c.49-1.48,1.49-2,1.53-1.95a4.92,4.92,0,0,0-1.13,2c-.16.64-.37,1.68.16,2.25.71.7,1.65-.39,1.46-1.4" style="fill:#323742"/><path d="M32,42.34s3.68,4.28,3.92,5.7l2.44-.77-1-1.87-1.67-2.75-1.58-2.08Z" style="fill:#ef5051"/><path d="M34.09,40.57s4.69,5.56,4.11,8.27" style="fill:none"/><path d="M34.09,40.57A4.75,4.75,0,0,0,34.87,42a30.72,30.72,0,0,1,1.74,2.62,11.22,11.22,0,0,1,1.24,2.8c.17.37.16,1.35.35,1.47.26,0,.12-2,.14-1.57a11.29,11.29,0,0,0-1.28-2.91,29,29,0,0,0-1.78-2.66C35.53,42,34.32,40.54,34.09,40.57Z" style="fill:#323742"/><path d="M32.38,42.66s4.69,5.56,4.11,8.27" style="fill:none"/><path d="M32.38,42.66A5,5,0,0,0,33.16,44a30.72,30.72,0,0,1,1.74,2.62,10.82,10.82,0,0,1,1.24,2.8c.18.37.16,1.35.35,1.47.26,0,.12-2,.14-1.57a10.87,10.87,0,0,0-1.28-2.91,30.46,30.46,0,0,0-1.77-2.66C33.83,44.11,32.61,42.63,32.38,42.66Z" style="fill:#323742"/><path d="M37.64,46.5c1.42-.14,2.89.83,3,1.93s-1.09,2-2.51,2.11-3-.7-3.13-1.8S36.22,46.64,37.64,46.5Z" style="fill:#323742"/><path d="M35.57,48.59a1.28,1.28,0,0,0,0,.34c.12.93,1.26,1.59,2.55,1.46s2.24-1,2.12-1.92a1.5,1.5,0,0,0-.73-1.07C38.41,46.84,36.23,47,35.57,48.59Z" style="fill:#e5e5e4"/><path d="M36.15,54.8c-1-.71-.36-3.81-.36-3.81a3.18,3.18,0,0,1-2.16.24c-1-.35-1.79-1.65-.64-2.08s1.54-.28,2.12-.57a5.45,5.45,0,0,1,3.32-.17l2.44,1.66-.14,0s1.35,2.05,1.05,3.05a1.53,1.53,0,0,1-1.33,1.07s.09,1.49-.84,1.45A2.69,2.69,0,0,1,38,54.93,1.65,1.65,0,0,1,36.15,54.8Z" style="fill:#fff"/><path d="M39.56,53.5s.77.39,1.12-.13,0-2.21-.42-3a4.72,4.72,0,0,1-.58-1.14l1.08.74c1.34,1.75,1,3.18.53,4S39.56,53.5,39.56,53.5Z" style="fill:#e5e5e4"/><path d="M39,48.73a4.08,4.08,0,0,0-3.76,0c-1.05.4-1.66.14-2.33.54s-.68,1.6.76,2a3,3,0,0,0,2.88-.93" style="fill:none"/><path d="M36.51,50.3A6.6,6.6,0,0,1,35,51a2.27,2.27,0,0,1-1.7-.23c-.55-.28-.74-1.08-.15-1.38s1.62-.17,2.31-.54.49-.71-.21-.45-1.4.12-2.4.53A1.25,1.25,0,0,0,33,51.21a2.7,2.7,0,0,0,2.13.18C36.23,51,36.58,50.32,36.51,50.3Z" style="fill:#323742"/><path d="M40.14,49.52c1.21.7,2.1,3.68,1.15,4.48s-2.09-.17-1.95-1.6" style="fill:none"/><path d="M39.05,52.38a2.2,2.2,0,0,0,.54,1.73,1.36,1.36,0,0,0,1.89.07,2.68,2.68,0,0,0,.18-2.71c-.49-1.48-1.49-2-1.52-1.95a5,5,0,0,1,1.12,2c.17.64.38,1.68-.15,2.25-.72.7-1.65-.39-1.47-1.4" style="fill:#323742"/></g><rect x="3.23" y="3.11" width="43.54" height="43.54" rx="21.77" ry="21.77" style="fill:none"/></g></g></svg>