<svg version="1.1" id="Слой_1" xmlns="http://www.w3.org/2000/svg" xmlns:xlink="http://www.w3.org/1999/xlink" x="0px" y="0px" viewBox="0 0 128 128" enable-background="new 0 0 128 128" xml:space="preserve" width="128" height="128" style="fill: rgb(0, 0, 0);">
<g>
	<g>
		<g>
			<g>
				<ellipse fill="#F7F7FB" cx="64" cy="64" rx="51.8" ry="52"/>
			</g>
		</g>
		<g>
			<g>
				<g>
					<path fill="#7CA5C6" d="M64,12c-28.6,0-51.8,23.3-51.8,52s23.2,52,51.8,52s51.8-23.3,51.8-52S92.6,12,64,12z M64,103&#10;&#9;&#9;&#9;&#9;&#9;&#9;c-21.5,0-38.9-17.5-38.9-39S42.5,25,64,25s38.9,17.5,38.9,39S85.5,103,64,103z"/>
				</g>
			</g>
			<g opacity="0.2">
				<g>
					<g>
						<path fill="#0C0F13" d="M64,12c-2.2,0-4.4,0.2-6.5,0.4c24.9,3.1,44.3,24,45.3,49.5c0,0.7,0.1,1.4,0.1,2c0,0.7,0,1.4-0.1,2&#10;&#9;&#9;&#9;&#9;&#9;&#9;&#9;c-1,25.6-20.4,46.4-45.3,49.5c2.1,0.3,4.3,0.4,6.5,0.4c28.6,0,51.8-23.3,51.8-52S92.6,12,64,12z"/>
					</g>
				</g>
			</g>
			<g>
				<g>
					<ellipse fill="#D7D7D5" cx="64" cy="64" rx="4.3" ry="4.3"/>
				</g>
			</g>
		</g>
		<g>
			<g>
				<path fill="#454B54" d="M64.2,118.9c-14.7,0-28.5-5.7-38.9-16.1C14.8,92.4,9.1,78.6,9.1,63.9c0-14.7,5.7-28.5,16-38.8&#10;&#9;&#9;&#9;&#9;&#9;c10.3-10.3,24.1-16,38.7-16c14.7,0,28.5,5.7,38.9,16.1c21.4,21.4,21.5,56.3,0.1,77.7C92.6,113.2,78.8,118.9,64.2,118.9z&#10;&#9;&#9;&#9;&#9;&#9; M63.8,15.1c-13,0-25.3,5.1-34.5,14.3c-9.2,9.2-14.3,21.5-14.3,34.6c0,13.1,5.1,25.4,14.4,34.6c9.3,9.3,21.6,14.4,34.7,14.4&#10;&#9;&#9;&#9;&#9;&#9;c13,0,25.3-5.1,34.5-14.3c19-19,19-50.1-0.1-69.2C89.3,20.2,76.9,15.1,63.8,15.1z"/>
			</g>
		</g>
		<g>
			<g>
				<path fill="#F26C6D" d="M78.3,83.1c-1.3,0-2.6-0.5-3.5-1.5L60.6,67.5c-2-2-2-5.1,0-7.1c2-2,5.1-2,7.1,0l14.1,14.1&#10;&#9;&#9;&#9;&#9;&#9;c2,2,2,5.1,0,7.1C80.9,82.7,79.6,83.1,78.3,83.1z"/>
			</g>
		</g>
		<g>
			<g>
				<path fill="#87CCEE" d="M64.2,69c-1.3,0-2.6-0.5-3.5-1.5L45.1,52c-2-2-2-5.1,0-7.1c2-2,5.1-2,7.1,0l15.6,15.6c2,2,2,5.1,0,7.1&#10;&#9;&#9;&#9;&#9;&#9;C66.7,68.5,65.4,69,64.2,69z"/>
			</g>
		</g>
		<g>
			<g>
				<path fill="#454B54" d="M64,71.3c-4,0-7.3-3.3-7.3-7.3s3.3-7.3,7.3-7.3s7.3,3.3,7.3,7.3S68,71.3,64,71.3z M64,62.7&#10;&#9;&#9;&#9;&#9;&#9;c-0.7,0-1.3,0.6-1.3,1.3s0.6,1.3,1.3,1.3s1.3-0.6,1.3-1.3S64.7,62.7,64,62.7z"/>
			</g>
		</g>
	</g>
	<g>
		<g>
			<path fill="#454B54" d="M64,38c-0.8,0-1.6-0.3-2.1-0.9C61.3,36.6,61,35.8,61,35s0.3-1.6,0.9-2.1c1.1-1.1,3.1-1.1,4.2,0&#10;&#9;&#9;&#9;&#9;c0.6,0.6,0.9,1.3,0.9,2.1s-0.3,1.6-0.9,2.1C65.6,37.7,64.8,38,64,38z"/>
		</g>
	</g>
	<g>
		<g>
			<path fill="#454B54" d="M92.9,67c-0.8,0-1.6-0.3-2.1-0.9c-0.5-0.6-0.9-1.3-0.9-2.1s0.3-1.6,0.9-2.1c1.1-1.1,3.1-1.1,4.2,0&#10;&#9;&#9;&#9;&#9;c0.6,0.6,0.9,1.3,0.9,2.1s-0.3,1.6-0.9,2.1C94.4,66.7,93.7,67,92.9,67z"/>
		</g>
	</g>
	<g>
		<g>
			<path fill="#454B54" d="M64,96c-0.8,0-1.6-0.3-2.1-0.9C61.3,94.6,61,93.8,61,93s0.3-1.6,0.9-2.1c1.1-1.1,3.1-1.1,4.2,0&#10;&#9;&#9;&#9;&#9;c0.6,0.6,0.9,1.3,0.9,2.1s-0.3,1.6-0.9,2.1C65.6,95.7,64.8,96,64,96z"/>
		</g>
	</g>
	<g>
		<g>
			<path fill="#454B54" d="M34,67c-0.8,0-1.6-0.3-2.1-0.9C31.3,65.6,31,64.8,31,64s0.3-1.6,0.9-2.1c1.1-1.1,3.1-1.1,4.2,0&#10;&#9;&#9;&#9;&#9;c0.6,0.6,0.9,1.3,0.9,2.1s-0.3,1.6-0.9,2.1C35.6,66.7,34.8,67,34,67z"/>
		</g>
	</g>
</g>
</svg>