<svg id="Layer_53" data-name="Layer 53" xmlns="http://www.w3.org/2000/svg" viewBox="0 0 18 18"><title>GENERAL</title><path d="M1,2.71V17.29A1.7,1.7,0,0,0,2.71,19H17.29A1.7,1.7,0,0,0,19,17.29V2.71A1.7,1.7,0,0,0,17.29,1H2.71A1.7,1.7,0,0,0,1,2.71Zm14.4.1h1.28a.5.5,0,0,1,.5.5V4.6H15.4Zm-3.59,0h1.78V4.6H11.81Zm-8.51,0H10V4.6H2.8V3.31A.5.5,0,0,1,3.3,2.81ZM16.7,17.2H3.3a.5.5,0,0,1-.5-.5V6.4H17.2V16.7A.5.5,0,0,1,16.7,17.2Z" transform="translate(-1 -1)" style="fill:#f05050"/><rect x="3.6" y="7.2" width="3.6" height="3.6" style="fill:#f05050"/><rect x="3.6" y="12.6" width="10.8" height="1.8" style="fill:#f05050"/></svg>