<svg id="Layer_54" data-name="Layer 54" xmlns="http://www.w3.org/2000/svg" viewBox="0 0 18 18.59"><title>page info</title><path d="M18.23,2.35H14.74V1.47A.76.76,0,0,0,14,.71h0a.77.77,0,0,0-.77.76v.9H6.79v-.9A.76.76,0,0,0,6,.71H6a.76.76,0,0,0-.77.76v.9H1.77A.77.77,0,0,0,1,3.14V18.53a.76.76,0,0,0,.77.76H18.23a.76.76,0,0,0,.77-.76V3.14a.77.77,0,0,0-.74-.79Zm-.77,15.38H2.54V3.88H5.26v.47A.77.77,0,0,0,6,5.12H6a.77.77,0,0,0,.76-.77V3.88H13.2v.47a.78.78,0,0,0,.77.77h0a.77.77,0,0,0,.77-.77V3.88h2.72Z" transform="translate(-1 -0.71)" style="fill:#f05050"/><rect x="3.69" y="7.74" width="6.74" height="1.54" style="fill:#f05050"/><rect x="3.69" y="11.85" width="10.59" height="1.54" style="fill:#f05050"/></svg>