<svg id="Layer_1" data-name="Layer 1" xmlns="http://www.w3.org/2000/svg" viewBox="0 0 17 14.62"><title>my_pages</title><path d="M15.11.71H1.89V9.43H15.11ZM4.8,2.86H9.58a.48.48,0,0,1,.48.47.5.5,0,0,1-.48.48H4.8a.48.48,0,0,1-.47-.48A.47.47,0,0,1,4.8,2.86Zm7.4,3.59H4.8a.5.5,0,0,1,0-1h7.4a.5.5,0,0,1,0,1Z" transform="translate(0 0.03)" style="fill:none"/><polygon points="4.8 12.25 12 12.25 11.86 10.66 4.94 10.66 4.8 12.25" style="fill:none"/><path d="M16.7,9.43h-.88v-9A.47.47,0,0,0,15.35,0H1.65a.47.47,0,0,0-.47.46v9H.3a.29.29,0,0,0-.3.3H0v.57a.31.31,0,0,0,.3.31H4.23l-.3,3.6a.34.34,0,0,0,.3.38h0a.36.36,0,0,0,.35-.32l.11-1.36H12l.12,1.36a.36.36,0,0,0,.35.32h0a.34.34,0,0,0,.32-.36v0l-.31-3.6H16.7a.31.31,0,0,0,.3-.31V9.73A.29.29,0,0,0,16.7,9.43ZM1.89.71H15.11V9.43H1.89ZM12,12.22H4.8l.14-1.6h6.92Z" transform="translate(0 0.03)" style="fill:#f05050"/><path d="M12.2,5.5H4.8a.5.5,0,0,0,0,1h7.4a.5.5,0,0,0,0-1Z" transform="translate(0 0.03)" style="fill:#f05050"/><path d="M4.8,3.8H9.58a.5.5,0,0,0,.48-.48.48.48,0,0,0-.48-.47H4.8a.47.47,0,0,0-.47.47A.48.48,0,0,0,4.8,3.8Z" transform="translate(0 0.03)" style="fill:#f05050"/></svg>