<svg  xmlns="http://www.w3.org/2000/svg"
	 viewBox="0 0 112 2280"   style="width: 512px;height: 512px;" >

<view id="home"          viewBox="0 0 112 112"/>
<view id="connection"    viewBox="0 120 112 112"/>	
<view id="interest"      viewBox="0 240 112 112"/>
<view id="question"      viewBox="0 360 112 112"/>
<view id="article"       viewBox="0 480 112 112"/>
<view id="saved"         viewBox="0 600 112 112"/>
<view id="page"          viewBox="0 720 112 112"/>
<view id="marketplace"   viewBox="0 840 112 112"/>
<view id="mycourse"      viewBox="0 960 112 112"/>

<view id="copyiconprofile"      viewBox="0 1080 112 112"/>
<view id="mypoint"              viewBox="0 1200 112 112"/>
<view id="shield"               viewBox="0 1320 112 112"/>
<view id="wallet"               viewBox="0 1440 112 112"/>
<view id="activitylog"          viewBox="0 1560 112 112"/>
<view id="setting"              viewBox="0 1680 112 112"/>
<view id="logout"               viewBox="0 1800 112 112"/>
<view id="gettheapp"            viewBox="0 1920 112 112"/>
<view id="contactus"            viewBox="0 2040 112 112"/>
<view id="arrowright"           viewBox="0 2160 256 256"/>

<view id="home1"            viewBox="200 0 112 112"/>
<view id="connection1"      viewBox="200 120 112 112"/>	
<view id="interest1"        viewBox="200 240 112 112"/>
<view id="question1"        viewBox="200 360 112 112"/>
<view id="article1"         viewBox="200 480 112 112"/>
<view id="saved1"           viewBox="200 600 112 112"/>
<view id="page1"            viewBox="200 720 112 112"/>
<view id="marketplace1"     viewBox="200 840 112 112"/>
<view id="mycourse1"        viewBox="200 960 112 112"/>

<view id="copyiconprofile1"      viewBox="200 1080 112 112"/>
<view id="mypoint1"              viewBox="200 1200 112 112"/>
<view id="shield1"               viewBox="200 1320 112 112"/>
<view id="wallet1"               viewBox="200 1440 112 112"/>
<view id="activitylog1"          viewBox="200 1560 112 112"/>
<view id="setting1"              viewBox="200 1680 112 112"/>
<view id="logout1"               viewBox="200 1800 112 112"/>
<view id="gettheapp1"            viewBox="200 1920 112 112"/>
<view id="contactus1"            viewBox="200 2040 112 112"/>

<defs>
<style>.cls-1{fill-rule:evenodd;fill:url(#radial-gradient);}</style>
<radialGradient id="radial-gradient" cx="20.16" cy="84.12" r="3.52" gradientTransform="matrix(15.92, 0, 0, -13.68, -264.83, 1206.47)" gradientUnits="userSpaceOnUse">
<stop offset="0" stop-color="#f05050"/><stop offset="1" stop-color="#cf0404"/>
</radialGradient>
</defs>
// page svg start
	<g  transform="translate(0 0)">
	 <path d="M92.4,109H19.6A19.62,19.62,0,0,1,0,89.37V60.25A21.24,21.24,0,0,1,5.42,46.09c3.7-4.12,7.08-8,10.19-11.47C34.13,13.64,43.43,3.11,55,3h.13C67.49,3,78.42,15.09,102.28,41.4L106.49,46A21.2,21.2,0,0,1,112,60.29V89.37A19.62,19.62,0,0,1,92.4,109ZM55.13,12.36h-.06c-7.41.05-16.31,10.13-32.46,28.43-3.13,3.54-6.52,7.39-10.24,11.53a11.89,11.89,0,0,0-3,7.93V89.37A10.29,10.29,0,0,0,19.6,99.64H92.4a10.29,10.29,0,0,0,10.27-10.27V60.29a11.88,11.88,0,0,0-3.09-8l-4.22-4.64C74.74,24.92,63.35,12.36,55.13,12.36Z"/><path d="M56.47,85.87a23.8,23.8,0,1,1,23.8-23.8A23.82,23.82,0,0,1,56.47,85.87Zm0-38.27A14.47,14.47,0,1,0,70.93,62.07,14.48,14.48,0,0,0,56.47,47.6Z"/>
	</g>
	<g  transform="translate(200 0)">
	 <path d="M92.4,109H19.6A19.62,19.62,0,0,1,0,89.37V60.25A21.24,21.24,0,0,1,5.42,46.09c3.7-4.12,7.08-8,10.19-11.47C34.13,13.64,43.43,3.11,55,3h.13C67.49,3,78.42,15.09,102.28,41.4L106.49,46A21.2,21.2,0,0,1,112,60.29V89.37A19.62,19.62,0,0,1,92.4,109ZM55.13,12.36h-.06c-7.41.05-16.31,10.13-32.46,28.43-3.13,3.54-6.52,7.39-10.24,11.53a11.89,11.89,0,0,0-3,7.93V89.37A10.29,10.29,0,0,0,19.6,99.64H92.4a10.29,10.29,0,0,0,10.27-10.27V60.29a11.88,11.88,0,0,0-3.09-8l-4.22-4.64C74.74,24.92,63.35,12.36,55.13,12.36Z"/><path d="M56.47,85.87a23.8,23.8,0,1,1,23.8-23.8A23.82,23.82,0,0,1,56.47,85.87Zm0-38.27A14.47,14.47,0,1,0,70.93,62.07,14.48,14.48,0,0,0,56.47,47.6Z"/>
	</g>
// page 

// connection svg start
	<g transform="translate(0 120)">
	 <path d="M56,112a56,56,0,1,1,56-56A56.06,56.06,0,0,1,56,112ZM56,9a47,47,0,1,0,47,47A47,47,0,0,0,56,9Z"/><path d="M46.06,75.87a26.2,26.2,0,1,1,26.2-26.19A26.22,26.22,0,0,1,46.06,75.87Zm0-43.35A17.16,17.16,0,1,0,63.23,49.68,17.18,17.18,0,0,0,46.06,32.52Z"/><path d="M73.8,107a4.17,4.17,0,0,1-1-.11,4.51,4.51,0,0,1-3.42-5.39c.23-1,5-23.57-10.22-29a28.82,28.82,0,0,1-30-3.25c-2.87,1.65-8.25,6.62-7.28,20.41a4.52,4.52,0,0,1-9,.63C11,63.85,28.25,59.87,29,59.71l2.2-.47,1.7,1.48c11.73,10.17,22.87,3.44,23.34,3.14l1.63-1,1.89.45c20.57,5.19,21.07,28.57,18.45,40.21A4.5,4.5,0,0,1,73.8,107Z"/><path d="M82.19,64.13a4.45,4.45,0,0,1-1.87-.41,4.51,4.51,0,0,1-2.23-6c5.66-12.4-2.18-19.74-2.52-20.05a4.52,4.52,0,0,1,6-6.77c4.63,4,11.57,15.65,4.75,30.57A4.52,4.52,0,0,1,82.19,64.13Z"/><path d="M91.65,95.83H91.5a4.51,4.51,0,0,1-4.36-4.67c.34-10-4.2-14.49-4.39-14.68a4.54,4.54,0,0,1-.23-6.36,4.48,4.48,0,0,1,6.29-.33c.33.29,7.85,7.18,7.36,21.68A4.52,4.52,0,0,1,91.65,95.83Z"/>
	</g>
	<g transform="translate(200 120)">
	 <path d="M56,112a56,56,0,1,1,56-56A56.06,56.06,0,0,1,56,112ZM56,9a47,47,0,1,0,47,47A47,47,0,0,0,56,9Z"/><path d="M46.06,75.87a26.2,26.2,0,1,1,26.2-26.19A26.22,26.22,0,0,1,46.06,75.87Zm0-43.35A17.16,17.16,0,1,0,63.23,49.68,17.18,17.18,0,0,0,46.06,32.52Z"/><path d="M73.8,107a4.17,4.17,0,0,1-1-.11,4.51,4.51,0,0,1-3.42-5.39c.23-1,5-23.57-10.22-29a28.82,28.82,0,0,1-30-3.25c-2.87,1.65-8.25,6.62-7.28,20.41a4.52,4.52,0,0,1-9,.63C11,63.85,28.25,59.87,29,59.71l2.2-.47,1.7,1.48c11.73,10.17,22.87,3.44,23.34,3.14l1.63-1,1.89.45c20.57,5.19,21.07,28.57,18.45,40.21A4.5,4.5,0,0,1,73.8,107Z"/><path d="M82.19,64.13a4.45,4.45,0,0,1-1.87-.41,4.51,4.51,0,0,1-2.23-6c5.66-12.4-2.18-19.74-2.52-20.05a4.52,4.52,0,0,1,6-6.77c4.63,4,11.57,15.65,4.75,30.57A4.52,4.52,0,0,1,82.19,64.13Z"/><path d="M91.65,95.83H91.5a4.51,4.51,0,0,1-4.36-4.67c.34-10-4.2-14.49-4.39-14.68a4.54,4.54,0,0,1-.23-6.36,4.48,4.48,0,0,1,6.29-.33c.33.29,7.85,7.18,7.36,21.68A4.52,4.52,0,0,1,91.65,95.83Z"/>
	</g>
// connection svg end
// interest svg start
	<g transform="translate(0 240)">
    <path d="M30.93,110A15.47,15.47,0,0,1,15.72,91.93l2.82-16.47a6.6,6.6,0,0,0-1.89-5.84L4.68,58A15.45,15.45,0,0,1,13.24,31.6l16.55-2.41a6.54,6.54,0,0,0,5-3.6l7.4-15a15.46,15.46,0,0,1,27.72,0l7.39,15a6.58,6.58,0,0,0,5,3.6L98.76,31.6A15.45,15.45,0,0,1,107.32,58l-12,11.67a6.6,6.6,0,0,0-1.89,5.84l2.82,16.47a15.45,15.45,0,0,1-22.42,16.29l-14.79-7.78a6.6,6.6,0,0,0-6.14,0l-14.79,7.78A15.45,15.45,0,0,1,30.93,110ZM56,10.85a6.48,6.48,0,0,0-5.91,3.67l-7.4,15A15.48,15.48,0,0,1,31.06,38l-16.54,2.4a6.59,6.59,0,0,0-3.66,11.24l12,11.67A15.44,15.44,0,0,1,27.28,77L24.45,93.43A6.59,6.59,0,0,0,34,100.38l14.8-7.78a15.43,15.43,0,0,1,14.38,0L78,100.38a6.59,6.59,0,0,0,9.56-6.95L84.72,77a15.42,15.42,0,0,1,4.45-13.67l12-11.67a6.59,6.59,0,0,0-3.66-11.24L80.94,38a15.48,15.48,0,0,1-11.63-8.46l-7.4-15A6.48,6.48,0,0,0,56,10.85ZM50.87,96.52h0Z"/>
   </g>
   <g transform="translate(200 240)">
    <path d="M30.93,110A15.47,15.47,0,0,1,15.72,91.93l2.82-16.47a6.6,6.6,0,0,0-1.89-5.84L4.68,58A15.45,15.45,0,0,1,13.24,31.6l16.55-2.41a6.54,6.54,0,0,0,5-3.6l7.4-15a15.46,15.46,0,0,1,27.72,0l7.39,15a6.58,6.58,0,0,0,5,3.6L98.76,31.6A15.45,15.45,0,0,1,107.32,58l-12,11.67a6.6,6.6,0,0,0-1.89,5.84l2.82,16.47a15.45,15.45,0,0,1-22.42,16.29l-14.79-7.78a6.6,6.6,0,0,0-6.14,0l-14.79,7.78A15.45,15.45,0,0,1,30.93,110ZM56,10.85a6.48,6.48,0,0,0-5.91,3.67l-7.4,15A15.48,15.48,0,0,1,31.06,38l-16.54,2.4a6.59,6.59,0,0,0-3.66,11.24l12,11.67A15.44,15.44,0,0,1,27.28,77L24.45,93.43A6.59,6.59,0,0,0,34,100.38l14.8-7.78a15.43,15.43,0,0,1,14.38,0L78,100.38a6.59,6.59,0,0,0,9.56-6.95L84.72,77a15.42,15.42,0,0,1,4.45-13.67l12-11.67a6.59,6.59,0,0,0-3.66-11.24L80.94,38a15.48,15.48,0,0,1-11.63-8.46l-7.4-15A6.48,6.48,0,0,0,56,10.85ZM50.87,96.52h0Z"/>
   </g>
// interest svg end

// question svg start
	<g transform="translate(0 360)">
    <path d="M92.4,111.07H19.6A19.63,19.63,0,0,1,0,91.47V20.53A19.63,19.63,0,0,1,19.6.93H92.4A19.63,19.63,0,0,1,112,20.53V91.47A19.63,19.63,0,0,1,92.4,111.07ZM19.6,10.27A10.28,10.28,0,0,0,9.33,20.53V91.47A10.28,10.28,0,0,0,19.6,101.73H92.4a10.28,10.28,0,0,0,10.27-10.26V20.53A10.28,10.28,0,0,0,92.4,10.27Z"/><path d="M56,85.87a7.47,7.47,0,1,1,7.47-7.47A7.48,7.48,0,0,1,56,85.87Zm0-11.2a3.73,3.73,0,1,0,3.73,3.73A3.73,3.73,0,0,0,56,74.67Z"/><path d="M55.07,64.4a4.67,4.67,0,1,1,0-9.33c3.84,0,6.63-.93,8.27-2.76,2.45-2.72,2-6.93,2-7s0-.37,0-.54a10.27,10.27,0,1,0-20.53,0,4.67,4.67,0,1,1-9.33,0,19.6,19.6,0,0,1,39.19-.26c.16,1.71.45,8.55-4.28,13.91C66.89,62.4,61.74,64.4,55.07,64.4Z"/>
    </g>
	<g transform="translate(200 360)">
    <path d="M92.4,111.07H19.6A19.63,19.63,0,0,1,0,91.47V20.53A19.63,19.63,0,0,1,19.6.93H92.4A19.63,19.63,0,0,1,112,20.53V91.47A19.63,19.63,0,0,1,92.4,111.07ZM19.6,10.27A10.28,10.28,0,0,0,9.33,20.53V91.47A10.28,10.28,0,0,0,19.6,101.73H92.4a10.28,10.28,0,0,0,10.27-10.26V20.53A10.28,10.28,0,0,0,92.4,10.27Z"/><path d="M56,85.87a7.47,7.47,0,1,1,7.47-7.47A7.48,7.48,0,0,1,56,85.87Zm0-11.2a3.73,3.73,0,1,0,3.73,3.73A3.73,3.73,0,0,0,56,74.67Z"/><path d="M55.07,64.4a4.67,4.67,0,1,1,0-9.33c3.84,0,6.63-.93,8.27-2.76,2.45-2.72,2-6.93,2-7s0-.37,0-.54a10.27,10.27,0,1,0-20.53,0,4.67,4.67,0,1,1-9.33,0,19.6,19.6,0,0,1,39.19-.26c.16,1.71.45,8.55-4.28,13.91C66.89,62.4,61.74,64.4,55.07,64.4Z"/>
    </g>
// question svg start
// article svg start
    <g transform="translate(0 480)">
	<path d="M90.17,112H21.83A20,20,0,0,1,1.9,92.07V19.93A20,20,0,0,1,21.83,0H65.27A19.07,19.07,0,0,1,78.72,5.6l25.87,26A18.88,18.88,0,0,1,110.1,45V92.07A20,20,0,0,1,90.17,112ZM21.83,9.49A10.45,10.45,0,0,0,11.39,19.93V92.07a10.45,10.45,0,0,0,10.44,10.44H90.17a10.45,10.45,0,0,0,10.44-10.44V45a9.44,9.44,0,0,0-2.75-6.68L72,12.29a9.53,9.53,0,0,0-6.72-2.8Z"/><path d="M105.36,51.25H58.85V6.64a4.75,4.75,0,0,1,9.49,0V41.76h37a4.75,4.75,0,0,1,0,9.49Z"/><path d="M40.81,55.05H29.42a4.75,4.75,0,0,1,0-9.49H40.81a4.75,4.75,0,1,1,0,9.49Z"/><path d="M78.78,72.14H29.42a4.75,4.75,0,0,1,0-9.5H78.78a4.75,4.75,0,0,1,0,9.5Z"/><path d="M78.78,89.22H29.42a4.75,4.75,0,0,1,0-9.49H78.78a4.75,4.75,0,1,1,0,9.49Z"/>
	</g>
	<g transform="translate(200 480)">
	<path d="M90.17,112H21.83A20,20,0,0,1,1.9,92.07V19.93A20,20,0,0,1,21.83,0H65.27A19.07,19.07,0,0,1,78.72,5.6l25.87,26A18.88,18.88,0,0,1,110.1,45V92.07A20,20,0,0,1,90.17,112ZM21.83,9.49A10.45,10.45,0,0,0,11.39,19.93V92.07a10.45,10.45,0,0,0,10.44,10.44H90.17a10.45,10.45,0,0,0,10.44-10.44V45a9.44,9.44,0,0,0-2.75-6.68L72,12.29a9.53,9.53,0,0,0-6.72-2.8Z"/><path d="M105.36,51.25H58.85V6.64a4.75,4.75,0,0,1,9.49,0V41.76h37a4.75,4.75,0,0,1,0,9.49Z"/><path d="M40.81,55.05H29.42a4.75,4.75,0,0,1,0-9.49H40.81a4.75,4.75,0,1,1,0,9.49Z"/><path d="M78.78,72.14H29.42a4.75,4.75,0,0,1,0-9.5H78.78a4.75,4.75,0,0,1,0,9.5Z"/><path d="M78.78,89.22H29.42a4.75,4.75,0,0,1,0-9.49H78.78a4.75,4.75,0,1,1,0,9.49Z"/>
	</g>
// article svg end
	
// saved svg start
	<g transform="translate(0 600)">
	<path d="M16.12,112a15.39,15.39,0,0,1-4.74-.76A14.34,14.34,0,0,1,1.27,97.69V25.81A25.84,25.84,0,0,1,27.08,0H84.92a25.84,25.84,0,0,1,25.81,25.81V97.68a14.2,14.2,0,0,1-10.2,13.5,14.56,14.56,0,0,1-16.46-5.56L61.17,73.16a5.6,5.6,0,0,0-4.27-2.09,5.66,5.66,0,0,0-4.33,2L27.94,106A14.66,14.66,0,0,1,16.12,112Zm11-102.72A16.54,16.54,0,0,0,10.55,25.81V97.4a5.18,5.18,0,0,0,3.68,5,5.53,5.53,0,0,0,6.28-2L45.34,67.22a14.86,14.86,0,0,1,23.21.32l.13.17,23,32.57a5.39,5.39,0,0,0,6.14,2,5,5,0,0,0,3.66-4.78V25.81A16.54,16.54,0,0,0,84.92,9.28Z"/><path d="M85.68,52a4.64,4.64,0,0,1-4.61-4.18C79.62,33.32,65.4,31.58,64.79,31.51a4.63,4.63,0,0,1,.95-9.22c7.72.77,22.79,6.9,24.56,24.56a4.64,4.64,0,0,1-4.15,5.07Z"/>
	</g>
	<g transform="translate(200 600)">
	<path d="M16.12,112a15.39,15.39,0,0,1-4.74-.76A14.34,14.34,0,0,1,1.27,97.69V25.81A25.84,25.84,0,0,1,27.08,0H84.92a25.84,25.84,0,0,1,25.81,25.81V97.68a14.2,14.2,0,0,1-10.2,13.5,14.56,14.56,0,0,1-16.46-5.56L61.17,73.16a5.6,5.6,0,0,0-4.27-2.09,5.66,5.66,0,0,0-4.33,2L27.94,106A14.66,14.66,0,0,1,16.12,112Zm11-102.72A16.54,16.54,0,0,0,10.55,25.81V97.4a5.18,5.18,0,0,0,3.68,5,5.53,5.53,0,0,0,6.28-2L45.34,67.22a14.86,14.86,0,0,1,23.21.32l.13.17,23,32.57a5.39,5.39,0,0,0,6.14,2,5,5,0,0,0,3.66-4.78V25.81A16.54,16.54,0,0,0,84.92,9.28Z"/><path d="M85.68,52a4.64,4.64,0,0,1-4.61-4.18C79.62,33.32,65.4,31.58,64.79,31.51a4.63,4.63,0,0,1,.95-9.22c7.72.77,22.79,6.9,24.56,24.56a4.64,4.64,0,0,1-4.15,5.07Z"/>
	</g>
// saved svg end
// page svg start
	<g  transform="translate(0 720)">
	 <path d="M92.07,112H19.93A20,20,0,0,1,0,92.07V50.31A20,20,0,0,1,19.93,30.37H92.07A20,20,0,0,1,112,50.31V92.07A20,20,0,0,1,92.07,112ZM19.93,39.86A10.46,10.46,0,0,0,9.49,50.31V92.07a10.46,10.46,0,0,0,10.44,10.44H92.07a10.46,10.46,0,0,0,10.44-10.44V50.31A10.46,10.46,0,0,0,92.07,39.86Z"/><path d="M82.58,39.86H29.42a4.74,4.74,0,0,1-4.74-4.74V29.31A29.34,29.34,0,0,1,54,0h4a29.34,29.34,0,0,1,29.3,29.31v5.81A4.74,4.74,0,0,1,82.58,39.86ZM34.17,30.37H77.83V29.31A19.84,19.84,0,0,0,58,9.49H54A19.84,19.84,0,0,0,34.17,29.31Z"/><path d="M107.25,69.66H4.75a4.75,4.75,0,1,1,0-9.49h102.5a4.75,4.75,0,1,1,0,9.49Z"/><path d="M40.81,79.73A4.75,4.75,0,0,1,36.07,75V56a4.75,4.75,0,1,1,9.49,0V75A4.75,4.75,0,0,1,40.81,79.73Z"/><path d="M71.19,79.73A4.75,4.75,0,0,1,66.44,75V56a4.75,4.75,0,1,1,9.49,0V75A4.75,4.75,0,0,1,71.19,79.73Z"/>
	</g>
	<g  transform="translate(200 720)">
	 <path d="M92.07,112H19.93A20,20,0,0,1,0,92.07V50.31A20,20,0,0,1,19.93,30.37H92.07A20,20,0,0,1,112,50.31V92.07A20,20,0,0,1,92.07,112ZM19.93,39.86A10.46,10.46,0,0,0,9.49,50.31V92.07a10.46,10.46,0,0,0,10.44,10.44H92.07a10.46,10.46,0,0,0,10.44-10.44V50.31A10.46,10.46,0,0,0,92.07,39.86Z"/><path d="M82.58,39.86H29.42a4.74,4.74,0,0,1-4.74-4.74V29.31A29.34,29.34,0,0,1,54,0h4a29.34,29.34,0,0,1,29.3,29.31v5.81A4.74,4.74,0,0,1,82.58,39.86ZM34.17,30.37H77.83V29.31A19.84,19.84,0,0,0,58,9.49H54A19.84,19.84,0,0,0,34.17,29.31Z"/><path d="M107.25,69.66H4.75a4.75,4.75,0,1,1,0-9.49h102.5a4.75,4.75,0,1,1,0,9.49Z"/><path d="M40.81,79.73A4.75,4.75,0,0,1,36.07,75V56a4.75,4.75,0,1,1,9.49,0V75A4.75,4.75,0,0,1,40.81,79.73Z"/><path d="M71.19,79.73A4.75,4.75,0,0,1,66.44,75V56a4.75,4.75,0,1,1,9.49,0V75A4.75,4.75,0,0,1,71.19,79.73Z"/>
	</g>
// page svg end
// marketplace svg start
	<g  transform="translate(0 840)">
    <path d="M106.9,53a5.11,5.11,0,0,1-5-4L95,18.2c-1.43-3.64-4.33-6-7.45-6H24.4c-3.13,0-6,2.33-7.45,6L10.06,49A5.09,5.09,0,0,1,.12,46.74L7.27,15C10.15,7.12,16.87,2,24.4,2H87.51C95,2,101.76,7.12,104.63,15l.18.62,7.06,31.13A5.09,5.09,0,0,1,108,52.82,4.92,4.92,0,0,1,106.9,53Z"/><path d="M20.36,71.27C8.56,71.27,0,61.85,0,48.87a5.09,5.09,0,0,1,10.18,0c0,5.64,2.67,12.22,10.18,12.22A12.23,12.23,0,0,0,32.58,48.87a5.09,5.09,0,0,1,10.18,0A22.42,22.42,0,0,1,20.36,71.27Z"/><path d="M55,71.27a22.43,22.43,0,0,1-22.4-22.4,5.09,5.09,0,0,1,10.18,0,12.22,12.22,0,0,0,24.44,0,5.09,5.09,0,1,1,10.18,0A22.43,22.43,0,0,1,55,71.27Z"/><path d="M89.6,71.27a22.43,22.43,0,0,1-22.4-22.4,5.09,5.09,0,1,1,10.18,0,12.22,12.22,0,1,0,24.44,0,5.09,5.09,0,0,1,10.18,0A22.43,22.43,0,0,1,89.6,71.27Z"/><path d="M86.54,110h-57A21.4,21.4,0,0,1,8.15,88.58v-22a5.09,5.09,0,0,1,10.18,0v22a11.21,11.21,0,0,0,11.2,11.2h57a11.21,11.21,0,0,0,11.2-11.2V60.51a5.1,5.1,0,0,1,10.19,0V88.58A21.41,21.41,0,0,1,86.54,110Z"/>
   </g>
   <g  transform="translate(200 840)">
    <path d="M106.9,53a5.11,5.11,0,0,1-5-4L95,18.2c-1.43-3.64-4.33-6-7.45-6H24.4c-3.13,0-6,2.33-7.45,6L10.06,49A5.09,5.09,0,0,1,.12,46.74L7.27,15C10.15,7.12,16.87,2,24.4,2H87.51C95,2,101.76,7.12,104.63,15l.18.62,7.06,31.13A5.09,5.09,0,0,1,108,52.82,4.92,4.92,0,0,1,106.9,53Z"/><path d="M20.36,71.27C8.56,71.27,0,61.85,0,48.87a5.09,5.09,0,0,1,10.18,0c0,5.64,2.67,12.22,10.18,12.22A12.23,12.23,0,0,0,32.58,48.87a5.09,5.09,0,0,1,10.18,0A22.42,22.42,0,0,1,20.36,71.27Z"/><path d="M55,71.27a22.43,22.43,0,0,1-22.4-22.4,5.09,5.09,0,0,1,10.18,0,12.22,12.22,0,0,0,24.44,0,5.09,5.09,0,1,1,10.18,0A22.43,22.43,0,0,1,55,71.27Z"/><path d="M89.6,71.27a22.43,22.43,0,0,1-22.4-22.4,5.09,5.09,0,1,1,10.18,0,12.22,12.22,0,1,0,24.44,0,5.09,5.09,0,0,1,10.18,0A22.43,22.43,0,0,1,89.6,71.27Z"/><path d="M86.54,110h-57A21.4,21.4,0,0,1,8.15,88.58v-22a5.09,5.09,0,0,1,10.18,0v22a11.21,11.21,0,0,0,11.2,11.2h57a11.21,11.21,0,0,0,11.2-11.2V60.51a5.1,5.1,0,0,1,10.19,0V88.58A21.41,21.41,0,0,1,86.54,110Z"/>
   </g>
// marketplace svg end
// mycourse svg end
	<g  transform="translate(0 960)">
    <path d="M72.86,112H39.14A35,35,0,0,1,4.24,74.48l3.06-42A35.12,35.12,0,0,1,42.2,0H69.8a35.12,35.12,0,0,1,34.9,32.45l3.06,42A35,35,0,0,1,72.86,112ZM42.2,9.33a25.75,25.75,0,0,0-25.59,23.8l-3.06,42a25.66,25.66,0,0,0,25.59,27.52H72.86A25.66,25.66,0,0,0,98.45,75.15l-3.06-42A25.75,25.75,0,0,0,69.8,9.33Z"/><path d="M56.93,48.53c-19.26,0-27.29-14.66-28.84-22.41a4.67,4.67,0,0,1,9.15-1.86c.33,1.55,3.66,14.94,19.69,14.94,16.52,0,19.57-14.31,19.69-14.92a4.67,4.67,0,1,1,9.16,1.84C84.23,33.87,76.2,48.53,56.93,48.53Z"/>
    </g>
    <g  transform="translate(200 960)">
    <path d="M72.86,112H39.14A35,35,0,0,1,4.24,74.48l3.06-42A35.12,35.12,0,0,1,42.2,0H69.8a35.12,35.12,0,0,1,34.9,32.45l3.06,42A35,35,0,0,1,72.86,112ZM42.2,9.33a25.75,25.75,0,0,0-25.59,23.8l-3.06,42a25.66,25.66,0,0,0,25.59,27.52H72.86A25.66,25.66,0,0,0,98.45,75.15l-3.06-42A25.75,25.75,0,0,0,69.8,9.33Z"/><path d="M56.93,48.53c-19.26,0-27.29-14.66-28.84-22.41a4.67,4.67,0,0,1,9.15-1.86c.33,1.55,3.66,14.94,19.69,14.94,16.52,0,19.57-14.31,19.69-14.92a4.67,4.67,0,1,1,9.16,1.84C84.23,33.87,76.2,48.53,56.93,48.53Z"/>
    </g>
// mycourse svg end







// setting svg start
	<g transform="translate(0 1080)">
	<path d="M57.08,112H28.34A28.37,28.37,0,0,1,0,83.66V54.92A28.37,28.37,0,0,1,28.34,26.58H57.08A28.37,28.37,0,0,1,85.42,54.92V83.66A28.37,28.37,0,0,1,57.08,112ZM28.34,36.07A18.87,18.87,0,0,0,9.49,54.92V83.66a18.88,18.88,0,0,0,18.85,18.85H57.08A18.87,18.87,0,0,0,75.93,83.66V54.92A18.86,18.86,0,0,0,57.08,36.07Z"/><path d="M107.25,69.38a4.75,4.75,0,0,1-4.74-4.75V28.69a19.23,19.23,0,0,0-19.2-19.2H45.47a4.75,4.75,0,1,1,0-9.49H83.31A28.72,28.72,0,0,1,112,28.69V64.63A4.75,4.75,0,0,1,107.25,69.38Z"/>
	</g>
	<g transform="translate(200 1080)">
	<path d="M57.08,112H28.34A28.37,28.37,0,0,1,0,83.66V54.92A28.37,28.37,0,0,1,28.34,26.58H57.08A28.37,28.37,0,0,1,85.42,54.92V83.66A28.37,28.37,0,0,1,57.08,112ZM28.34,36.07A18.87,18.87,0,0,0,9.49,54.92V83.66a18.88,18.88,0,0,0,18.85,18.85H57.08A18.87,18.87,0,0,0,75.93,83.66V54.92A18.86,18.86,0,0,0,57.08,36.07Z"/><path d="M107.25,69.38a4.75,4.75,0,0,1-4.74-4.75V28.69a19.23,19.23,0,0,0-19.2-19.2H45.47a4.75,4.75,0,1,1,0-9.49H83.31A28.72,28.72,0,0,1,112,28.69V64.63A4.75,4.75,0,0,1,107.25,69.38Z"/>
	</g>
// setting svg 

// mypoint svg start
	<g transform="translate(0 1200)">
	<path d="M56,82.62A41.31,41.31,0,1,1,97.31,41.31,41.35,41.35,0,0,1,56,82.62ZM56,9.39A31.93,31.93,0,1,0,87.92,41.31,32,32,0,0,0,56,9.39Z"/><path d="M76.89,112a8.7,8.7,0,0,1-3.77-.87l-7.66-3.72-11.4-5.52c-2.56,1.23-7.31,3.55-11.34,5.52l-7.58,3.69a8.52,8.52,0,0,1-8.63-.64,8.63,8.63,0,0,1-3.72-7.84L25.67,68a4.7,4.7,0,0,1,9.36.78l-2.78,33.29L38.6,99c14.25-7,14.25-7,15.45-7S55.24,92,69.56,99L76,102.08c-.44-5.16-.88-9.59-1.32-14-.48-4.77-1-9.7-1.45-15.52a4.69,4.69,0,1,1,9.35-.77c.48,5.74,1,10.55,1.44,15.36s1,9.71,1.45,15.52a8.65,8.65,0,0,1-3.71,7.83A8.52,8.52,0,0,1,76.89,112Z"/>
	</g>
	<g transform="translate(200 1200)">
	<path d="M56,82.62A41.31,41.31,0,1,1,97.31,41.31,41.35,41.35,0,0,1,56,82.62ZM56,9.39A31.93,31.93,0,1,0,87.92,41.31,32,32,0,0,0,56,9.39Z"/><path d="M76.89,112a8.7,8.7,0,0,1-3.77-.87l-7.66-3.72-11.4-5.52c-2.56,1.23-7.31,3.55-11.34,5.52l-7.58,3.69a8.52,8.52,0,0,1-8.63-.64,8.63,8.63,0,0,1-3.72-7.84L25.67,68a4.7,4.7,0,0,1,9.36.78l-2.78,33.29L38.6,99c14.25-7,14.25-7,15.45-7S55.24,92,69.56,99L76,102.08c-.44-5.16-.88-9.59-1.32-14-.48-4.77-1-9.7-1.45-15.52a4.69,4.69,0,1,1,9.35-.77c.48,5.74,1,10.55,1.44,15.36s1,9.71,1.45,15.52a8.65,8.65,0,0,1-3.71,7.83A8.52,8.52,0,0,1,76.89,112Z"/>
	</g>
// mypoint svg end

// shield svg start
	<g transform="translate(0 1320)">
	<path id="Path_12" data-name="Path 12" class="cls-1" d="M87.37,98.75H23.74a2.63,2.63,0,0,1-.27-5.26h63.9a2.63,2.63,0,0,1,.28,5.26A1.31,1.31,0,0,1,87.37,98.75Zm-75-52.9a2,2,0,0,1,.35.57A18.56,18.56,0,0,0,30.58,60c10.3,0,19.1-26,21.69-38.31A7.22,7.22,0,0,1,47.43,15a7.52,7.52,0,0,1,15,0,7.13,7.13,0,0,1-3.61,6.15C61.26,33.21,70.17,60,80.64,60a18.52,18.52,0,0,0,17.55-12.8,2.67,2.67,0,0,1,1-1.18A7,7,0,0,1,97,40.89a7.51,7.51,0,1,1,7.83,7.19h-.91a2.56,2.56,0,0,1-.14,1.37L91.41,89.16a7.91,7.91,0,0,1,4.22,6.92,8.17,8.17,0,0,1-8.28,8H23.77a8.16,8.16,0,0,1-8.32-8,8,8,0,0,1,4.34-7L7.07,48.44A2.47,2.47,0,0,1,7,48.08H6.9a7.2,7.2,0,1,1,7.5-7.2A7,7,0,0,1,12.33,45.85ZM54.71,58.16,62,68.92,54.71,79.69,47.43,68.92Z"/>
	</g>
	<g transform="translate(200 1320)">
	<path  d="M87.37,98.75H23.74a2.63,2.63,0,0,1-.27-5.26h63.9a2.63,2.63,0,0,1,.28,5.26A1.31,1.31,0,0,1,87.37,98.75Zm-75-52.9a2,2,0,0,1,.35.57A18.56,18.56,0,0,0,30.58,60c10.3,0,19.1-26,21.69-38.31A7.22,7.22,0,0,1,47.43,15a7.52,7.52,0,0,1,15,0,7.13,7.13,0,0,1-3.61,6.15C61.26,33.21,70.17,60,80.64,60a18.52,18.52,0,0,0,17.55-12.8,2.67,2.67,0,0,1,1-1.18A7,7,0,0,1,97,40.89a7.51,7.51,0,1,1,7.83,7.19h-.91a2.56,2.56,0,0,1-.14,1.37L91.41,89.16a7.91,7.91,0,0,1,4.22,6.92,8.17,8.17,0,0,1-8.28,8H23.77a8.16,8.16,0,0,1-8.32-8,8,8,0,0,1,4.34-7L7.07,48.44A2.47,2.47,0,0,1,7,48.08H6.9a7.2,7.2,0,1,1,7.5-7.2A7,7,0,0,1,12.33,45.85ZM54.71,58.16,62,68.92,54.71,79.69,47.43,68.92Z"/>
	</g>
// shield svg end

// wallet svg start
	<g transform="translate(0 1440)">
	<path d="M92.4,112H19.6A19.62,19.62,0,0,1,0,92.4V19.6A19.62,19.62,0,0,1,19.6,0H92.4A19.62,19.62,0,0,1,112,19.6V92.4A19.62,19.62,0,0,1,92.4,112ZM19.6,9.33A10.29,10.29,0,0,0,9.33,19.6V92.4A10.29,10.29,0,0,0,19.6,102.67H92.4A10.29,10.29,0,0,0,102.67,92.4V19.6A10.29,10.29,0,0,0,92.4,9.33Z"/><path d="M107.33,83.07H71.87C56.94,83.07,44.8,71.55,44.8,57.4S56.94,31.73,71.87,31.73h33.6a4.67,4.67,0,0,1,0,9.34H71.87c-9.78,0-17.74,7.32-17.74,16.33s8,16.33,17.74,16.33h35.46a4.67,4.67,0,0,1,0,9.34Z"/><path d="M80.27,62.53A6.53,6.53,0,1,1,86.8,56,6.54,6.54,0,0,1,80.27,62.53Zm0-9.33a2.8,2.8,0,1,0,2.8,2.8A2.8,2.8,0,0,0,80.27,53.2Z"/>
	</g>
	<g transform="translate(200 1440)">
	<path d="M92.4,112H19.6A19.62,19.62,0,0,1,0,92.4V19.6A19.62,19.62,0,0,1,19.6,0H92.4A19.62,19.62,0,0,1,112,19.6V92.4A19.62,19.62,0,0,1,92.4,112ZM19.6,9.33A10.29,10.29,0,0,0,9.33,19.6V92.4A10.29,10.29,0,0,0,19.6,102.67H92.4A10.29,10.29,0,0,0,102.67,92.4V19.6A10.29,10.29,0,0,0,92.4,9.33Z"/><path d="M107.33,83.07H71.87C56.94,83.07,44.8,71.55,44.8,57.4S56.94,31.73,71.87,31.73h33.6a4.67,4.67,0,0,1,0,9.34H71.87c-9.78,0-17.74,7.32-17.74,16.33s8,16.33,17.74,16.33h35.46a4.67,4.67,0,0,1,0,9.34Z"/><path d="M80.27,62.53A6.53,6.53,0,1,1,86.8,56,6.54,6.54,0,0,1,80.27,62.53Zm0-9.33a2.8,2.8,0,1,0,2.8,2.8A2.8,2.8,0,0,0,80.27,53.2Z"/>
	</g>
// wallet svg end

// activitylog svg start
	<g transform="translate(0 1560)">
	<path d="M101.56,51.25H55.05A10.45,10.45,0,0,1,44.61,40.81V30.37A10.45,10.45,0,0,1,55.05,19.93h46.51A10.45,10.45,0,0,1,112,30.37V40.81A10.45,10.45,0,0,1,101.56,51.25ZM55.05,29.42a1,1,0,0,0-.95.95V40.81a1,1,0,0,0,.95.95h46.51a1,1,0,0,0,1-.95V30.37a1,1,0,0,0-1-.95Z"/><path d="M101.56,93H55.05A10.45,10.45,0,0,1,44.61,82.58V72.14A10.46,10.46,0,0,1,55.05,61.69h46.51A10.46,10.46,0,0,1,112,72.14V82.58A10.45,10.45,0,0,1,101.56,93ZM55.05,71.19a1,1,0,0,0-.95,1V82.58a1,1,0,0,0,.95,1h46.51a1,1,0,0,0,1-1V72.14a1,1,0,0,0-1-1Z"/><path d="M16.14,51.25A16.14,16.14,0,1,1,32.27,35.12,16.15,16.15,0,0,1,16.14,51.25Zm0-22.78a6.65,6.65,0,1,0,6.64,6.65A6.66,6.66,0,0,0,16.14,28.47Z"/><path d="M16.14,93A16.14,16.14,0,1,1,32.27,76.88,16.16,16.16,0,0,1,16.14,93Zm0-22.78a6.65,6.65,0,1,0,6.64,6.64A6.65,6.65,0,0,0,16.14,70.24Z"/>
	</g>
	<g transform="translate(200 1560)">
	<path d="M101.56,51.25H55.05A10.45,10.45,0,0,1,44.61,40.81V30.37A10.45,10.45,0,0,1,55.05,19.93h46.51A10.45,10.45,0,0,1,112,30.37V40.81A10.45,10.45,0,0,1,101.56,51.25ZM55.05,29.42a1,1,0,0,0-.95.95V40.81a1,1,0,0,0,.95.95h46.51a1,1,0,0,0,1-.95V30.37a1,1,0,0,0-1-.95Z"/><path d="M101.56,93H55.05A10.45,10.45,0,0,1,44.61,82.58V72.14A10.46,10.46,0,0,1,55.05,61.69h46.51A10.46,10.46,0,0,1,112,72.14V82.58A10.45,10.45,0,0,1,101.56,93ZM55.05,71.19a1,1,0,0,0-.95,1V82.58a1,1,0,0,0,.95,1h46.51a1,1,0,0,0,1-1V72.14a1,1,0,0,0-1-1Z"/><path d="M16.14,51.25A16.14,16.14,0,1,1,32.27,35.12,16.15,16.15,0,0,1,16.14,51.25Zm0-22.78a6.65,6.65,0,1,0,6.64,6.65A6.66,6.66,0,0,0,16.14,28.47Z"/><path d="M16.14,93A16.14,16.14,0,1,1,32.27,76.88,16.16,16.16,0,0,1,16.14,93Zm0-22.78a6.65,6.65,0,1,0,6.64,6.64A6.65,6.65,0,0,0,16.14,70.24Z"/>
	</g>
// activitylog svg end

// setting svg start
	<g transform="translate(0 1680)">
	<path d="M56,112a13.29,13.29,0,0,1-12.32-8L38.35,91.88a4.49,4.49,0,0,0-4.6-2.65L20.62,90.66A13.47,13.47,0,0,1,8.3,69.31l7.8-10.66a4.47,4.47,0,0,0,0-5.3L8.3,42.69A13.47,13.47,0,0,1,20.62,21.34l13.13,1.43a4.49,4.49,0,0,0,4.6-2.65L43.68,8A13.46,13.46,0,0,1,68.32,8l5.33,12.08a4.48,4.48,0,0,0,4.6,2.65l13.13-1.43A13.47,13.47,0,0,1,103.7,42.69L95.9,53.35a4.47,4.47,0,0,0,0,5.3l7.8,10.66A13.47,13.47,0,0,1,91.38,90.66L78.25,89.23a4.46,4.46,0,0,0-4.6,2.65L68.33,104A13.31,13.31,0,0,1,56,112ZM34.26,80.22a13.41,13.41,0,0,1,12.3,8l5.33,12.08a4.49,4.49,0,0,0,8.22,0l5.32-12.08a13.44,13.44,0,0,1,13.79-8l13.13,1.43a4.49,4.49,0,0,0,4.1-7.12L88.65,64a13.44,13.44,0,0,1,0-15.92l7.8-10.65a4.49,4.49,0,0,0-4.1-7.12L79.22,31.7a13.41,13.41,0,0,1-13.78-8L60.11,11.66a4.49,4.49,0,0,0-8.22,0L46.56,23.74a13.45,13.45,0,0,1-13.78,8L19.65,30.27a4.49,4.49,0,0,0-4.1,7.12L23.35,48a13.44,13.44,0,0,1,0,15.92l-7.8,10.65a4.49,4.49,0,0,0,4.1,7.12L32.78,80.3C33.28,80.25,33.77,80.22,34.26,80.22Z"/><path d="M56,78.46A20.66,20.66,0,1,1,76.65,57.81,20.67,20.67,0,0,1,56,78.46Zm0-32.33A11.68,11.68,0,1,0,67.67,57.81,11.69,11.69,0,0,0,56,46.13Z"/>
	</g>
	<g transform="translate(200 1680)">
	<path d="M56,112a13.29,13.29,0,0,1-12.32-8L38.35,91.88a4.49,4.49,0,0,0-4.6-2.65L20.62,90.66A13.47,13.47,0,0,1,8.3,69.31l7.8-10.66a4.47,4.47,0,0,0,0-5.3L8.3,42.69A13.47,13.47,0,0,1,20.62,21.34l13.13,1.43a4.49,4.49,0,0,0,4.6-2.65L43.68,8A13.46,13.46,0,0,1,68.32,8l5.33,12.08a4.48,4.48,0,0,0,4.6,2.65l13.13-1.43A13.47,13.47,0,0,1,103.7,42.69L95.9,53.35a4.47,4.47,0,0,0,0,5.3l7.8,10.66A13.47,13.47,0,0,1,91.38,90.66L78.25,89.23a4.46,4.46,0,0,0-4.6,2.65L68.33,104A13.31,13.31,0,0,1,56,112ZM34.26,80.22a13.41,13.41,0,0,1,12.3,8l5.33,12.08a4.49,4.49,0,0,0,8.22,0l5.32-12.08a13.44,13.44,0,0,1,13.79-8l13.13,1.43a4.49,4.49,0,0,0,4.1-7.12L88.65,64a13.44,13.44,0,0,1,0-15.92l7.8-10.65a4.49,4.49,0,0,0-4.1-7.12L79.22,31.7a13.41,13.41,0,0,1-13.78-8L60.11,11.66a4.49,4.49,0,0,0-8.22,0L46.56,23.74a13.45,13.45,0,0,1-13.78,8L19.65,30.27a4.49,4.49,0,0,0-4.1,7.12L23.35,48a13.44,13.44,0,0,1,0,15.92l-7.8,10.65a4.49,4.49,0,0,0,4.1,7.12L32.78,80.3C33.28,80.25,33.77,80.22,34.26,80.22Z"/><path d="M56,78.46A20.66,20.66,0,1,1,76.65,57.81,20.67,20.67,0,0,1,56,78.46Zm0-32.33A11.68,11.68,0,1,0,67.67,57.81,11.69,11.69,0,0,0,56,46.13Z"/>
	</g>
// setting svg end

// logout svg start
	<g transform="translate(0 1800)">
	<path d="M55.81,112A56.07,56.07,0,0,1,.08,62.21,56,56,0,0,1,11.75,20.68a6.36,6.36,0,0,1,10,7.89A43.7,43.7,0,0,0,90.3,82.77,44,44,0,0,0,90,28.18a6.36,6.36,0,0,1,9.89-8,56.8,56.8,0,0,1,.4,70.47A56,56,0,0,1,62.56,111.6,57,57,0,0,1,55.81,112Z"/><path d="M56.91,59.42c-3.52,0-6.36-2.56-6.36-5.71v-48C50.55,2.56,53.39,0,56.91,0s6.35,2.56,6.35,5.71v48C63.26,56.86,60.42,59.42,56.91,59.42Z"/>
	</g>
	<g transform="translate(200 1800)">
	<path d="M55.81,112A56.07,56.07,0,0,1,.08,62.21,56,56,0,0,1,11.75,20.68a6.36,6.36,0,0,1,10,7.89A43.7,43.7,0,0,0,90.3,82.77,44,44,0,0,0,90,28.18a6.36,6.36,0,0,1,9.89-8,56.8,56.8,0,0,1,.4,70.47A56,56,0,0,1,62.56,111.6,57,57,0,0,1,55.81,112Z"/><path d="M56.91,59.42c-3.52,0-6.36-2.56-6.36-5.71v-48C50.55,2.56,53.39,0,56.91,0s6.35,2.56,6.35,5.71v48C63.26,56.86,60.42,59.42,56.91,59.42Z"/>
	</g>
// logout svg end
// gettheapp svg start
	<g transform="translate(0 1920)">
	<path d="M80.87,112H31.13A14.26,14.26,0,0,1,16.88,97.75V14.25A14.26,14.26,0,0,1,31.13,0H80.87A14.26,14.26,0,0,1,95.12,14.25v83.5A14.26,14.26,0,0,1,80.87,112ZM31.13,7.67a6.59,6.59,0,0,0-6.58,6.58v83.5a6.59,6.59,0,0,0,6.58,6.58H80.87a6.59,6.59,0,0,0,6.58-6.58V14.25a6.59,6.59,0,0,0-6.58-6.58Z"/><path d="M65.21,95.12H46.79a3.84,3.84,0,0,1,0-7.67H65.21a3.84,3.84,0,0,1,0,7.67Z"/>
	</g>
	<g transform="translate(200 1920)">
	<path d="M80.87,112H31.13A14.26,14.26,0,0,1,16.88,97.75V14.25A14.26,14.26,0,0,1,31.13,0H80.87A14.26,14.26,0,0,1,95.12,14.25v83.5A14.26,14.26,0,0,1,80.87,112ZM31.13,7.67a6.59,6.59,0,0,0-6.58,6.58v83.5a6.59,6.59,0,0,0,6.58,6.58H80.87a6.59,6.59,0,0,0,6.58-6.58V14.25a6.59,6.59,0,0,0-6.58-6.58Z"/><path d="M65.21,95.12H46.79a3.84,3.84,0,0,1,0-7.67H65.21a3.84,3.84,0,0,1,0,7.67Z"/>
	</g>
// gettheapp svg end
// contactus svg start
	<g transform="translate(0 2040)">
	<path d="M19.28,82.28C8.65,82.28,0,72.39,0,60.24s8.65-22,19.28-22c13.77,0,13.77,15.44,13.77,22S33.05,82.28,19.28,82.28Zm0-34.89c-5.57,0-10.1,5.77-10.1,12.85S13.71,73.1,19.28,73.1c2,0,4.59,0,4.59-12.86S21.32,47.39,19.28,47.39Z"/><path d="M92.72,82.28C79,82.28,79,66.84,79,60.24s0-22,13.77-22c10.63,0,19.28,9.88,19.28,22S103.35,82.28,92.72,82.28Zm0-34.89c-2,0-4.59,0-4.59,12.85S90.68,73.1,92.72,73.1c5.57,0,10.1-5.77,10.1-12.86S98.29,47.39,92.72,47.39Z"/><path d="M20.66,47.38A4.58,4.58,0,0,1,16.08,43c0-.75-.56-18.65,11.2-30.86C34.21,4.91,43.8,1.27,55.78,1.27,68.3,1.27,78.18,5,85.14,12.32,96.23,24,95.51,40.51,95.47,41.2a4.59,4.59,0,1,1-9.17-.48c0-.11.51-13.35-7.87-22.13-5.16-5.4-12.78-8.14-22.65-8.14-9.36,0-16.71,2.68-21.84,8-9.06,9.35-8.69,24.06-8.68,24.21a4.6,4.6,0,0,1-4.43,4.74Z"/><path d="M56,104.31a4.59,4.59,0,0,1,0-9.18c20.42,0,28.56-18.45,28.89-19.24a4.59,4.59,0,0,1,8.46,3.57C92.93,80.48,82.61,104.31,56,104.31Z"/><circle cx="56.92" cy="100.64" r="10.1"/>
	</g>
	<g transform="translate(200 2040)">
	<path d="M19.28,82.28C8.65,82.28,0,72.39,0,60.24s8.65-22,19.28-22c13.77,0,13.77,15.44,13.77,22S33.05,82.28,19.28,82.28Zm0-34.89c-5.57,0-10.1,5.77-10.1,12.85S13.71,73.1,19.28,73.1c2,0,4.59,0,4.59-12.86S21.32,47.39,19.28,47.39Z"/><path d="M92.72,82.28C79,82.28,79,66.84,79,60.24s0-22,13.77-22c10.63,0,19.28,9.88,19.28,22S103.35,82.28,92.72,82.28Zm0-34.89c-2,0-4.59,0-4.59,12.85S90.68,73.1,92.72,73.1c5.57,0,10.1-5.77,10.1-12.86S98.29,47.39,92.72,47.39Z"/><path d="M20.66,47.38A4.58,4.58,0,0,1,16.08,43c0-.75-.56-18.65,11.2-30.86C34.21,4.91,43.8,1.27,55.78,1.27,68.3,1.27,78.18,5,85.14,12.32,96.23,24,95.51,40.51,95.47,41.2a4.59,4.59,0,1,1-9.17-.48c0-.11.51-13.35-7.87-22.13-5.16-5.4-12.78-8.14-22.65-8.14-9.36,0-16.71,2.68-21.84,8-9.06,9.35-8.69,24.06-8.68,24.21a4.6,4.6,0,0,1-4.43,4.74Z"/><path d="M56,104.31a4.59,4.59,0,0,1,0-9.18c20.42,0,28.56-18.45,28.89-19.24a4.59,4.59,0,0,1,8.46,3.57C92.93,80.48,82.61,104.31,56,104.31Z"/><circle cx="56.92" cy="100.64" r="10.1"/>
	</g>
// contactus svg end

// arrowright svg start
	<g transform="translate(0 2160)">
	  <polygon points="79.093,0 48.907,30.187 146.72,128 48.907,225.813 79.093,256 207.093,128 		"/>
	</g>

// arrowright svg end




</svg>