<svg  xmlns="http://www.w3.org/2000/svg"
	 viewBox="0 0 18 1100"   style="width: 512px;height: 512px;" >

<view id="earth"        viewBox="0 0 18 18"/>
<view id="earth_h"      viewBox="0 20 18 18"/>
<view id="saved"        viewBox="0 40 16 16"/>
<view id="saved_h"      viewBox="0 60 16 16"/>
<view id="interest"     viewBox="0 80 18 18"/>
<view id="interest_h"   viewBox="0 100 18 18"/>
<view id="mypage"       viewBox="0 120 17 14.62"/>
<view id="mypage_h"     viewBox="0 140 17 14.62"/>
<view id="createpage"   viewBox="0 160 18 18"/>
<view id="createpage_h" viewBox="0 180 18 18"/>
<view id="allcourse"    viewBox="0 200 16 15.2"/>
<view id="allcourse_h"  viewBox="0 220 16 15.2"/>
<view id="mycourse"     viewBox="0 240 16 14.9"/>
<view id="mycourse_h"   viewBox="0 260 16 14.9"/>
<view id="question"     viewBox="0 280 14.86 17.64"/>
<view id="question_h"   viewBox="0 300 14.86 17.64"/>
<view id="article"     viewBox="0 1000 18 18"/>
<view id="article_h"   viewBox="0 1020 18 18"/>

//header view area
<view id="message"      viewBox="0 320 19 19"/>
<view id="notification" viewBox="0 340 19 19"/>
<view id="connection"   viewBox="0 360 18 16"/>
<view id="myprofile"    viewBox="0 380 18 18"/>
<view id="myprofile_h"  viewBox="0 400 18 18"/>
<view id="activitylog"  viewBox="0 420 15.95 11.83"/>
<view id="activitylog_h"  viewBox="0 440 15.95 11.83"/>
<view id="wallet"       viewBox="0 460 16 13.71"/>
<view id="wallet_h"     viewBox="0 480 16 13.71"/>
<view id="setting"      viewBox="0 500 17.7 17.7"/>
<view id="setting_h"    viewBox="0 520 17.7 17.7"/>
<view id="logout"       viewBox="0 540 16.69 17"/>
<view id="logout_h"     viewBox="0 560 16.69 17"/>
<view id="compose"      viewBox="0 580 18 18.95"/>
<view id="compose_h"    viewBox="0 600 18 18.95"/>
<view id="search"       viewBox="0 620 17.87 17.9"/>
<view id="greaterarrow" viewBox="0 640 8 14"/>
//notofication icon

<view id="courseN"      viewBox="0 660 16 19.69"/>
<view id="connectionReqN" viewBox="0 680 18 18"/>
<view id="importantN"   viewBox="0 700 18 18"/>
<view id="NewCommentN"  viewBox="0 720 18 18"/>
<view id="NewInterest"  viewBox="0 740 18 18"/>
<view id="NormalPostN"  viewBox="0 760 18 18"/>
<view id="passwordN"    viewBox="0 780 18 17.68"/>
<view id="questionN"    viewBox="0 800 18 18"/>
<view id="verifyMailN"  viewBox="0 820 18 18"/>
<view id="verifyMobileN" viewBox="0 840 18 18"/>
<view id="verifyPageN"  viewBox="0 860 16 16"/>
//setting icon
<view id="personalInfoS"  viewBox="0 880 16 18"/>
<view id="personalInfoS_h"  viewBox="0 900 16 18"/>
<view id="securityS" viewBox="0 920 14.76 17.98"/>
<view id="securityS_h" viewBox="0 940 14.76 17.98"/>
<view id="contactlInfoS"  viewBox="0 960 18 18"/>
<view id="contactlInfoS_h"  viewBox="0 980 18 18"/>
//header livewall

<view id="liveWallS"  viewBox="0 1040 18 18"/>
<view id="liveWallS_h"  viewBox="0 1060 18 18"/>


<style><![CDATA[

  ]]>
  </style>
// earth svg start
	<g class="earth" transform="translate(0 0)">
	 <path d="M10,1a9,9,0,1,0,9,9A9,9,0,0,0,10,1ZM9.4,2.51V9.4H5.82C6,6.26,7.5,3.56,9.4,2.51Zm1.2,0C12.5,3.56,14,6.26,14.18,9.4H10.6Zm-3.41.21A10.52,10.52,0,0,0,4.62,9.4H2.23A7.78,7.78,0,0,1,7.19,2.72Zm5.62,0a7.78,7.78,0,0,1,5,6.68H15.38A10.52,10.52,0,0,0,12.81,2.72ZM2.23,10.6H4.62a10.52,10.52,0,0,0,2.57,6.68A7.78,7.78,0,0,1,2.23,10.6Zm3.59,0H9.4v6.89C7.5,16.44,6,13.74,5.82,10.6Zm4.78,0h3.58c-.17,3.14-1.68,5.84-3.58,6.89Zm4.78,0h2.39a7.78,7.78,0,0,1-5,6.68A10.52,10.52,0,0,0,15.38,10.6Z" transform="translate(-1 -1)" style="fill:#2c2e2f;fill-opacity:.8;"/>
	</g>
    //hover
	<g transform="translate(0 20)">
	 <path d="M10,1a9,9,0,1,0,9,9A9,9,0,0,0,10,1ZM9.4,2.51V9.4H5.82C6,6.26,7.5,3.56,9.4,2.51Zm1.2,0C12.5,3.56,14,6.26,14.18,9.4H10.6Zm-3.41.21A10.52,10.52,0,0,0,4.62,9.4H2.23A7.78,7.78,0,0,1,7.19,2.72Zm5.62,0a7.78,7.78,0,0,1,5,6.68H15.38A10.52,10.52,0,0,0,12.81,2.72ZM2.23,10.6H4.62a10.52,10.52,0,0,0,2.57,6.68A7.78,7.78,0,0,1,2.23,10.6Zm3.59,0H9.4v6.89C7.5,16.44,6,13.74,5.82,10.6Zm4.78,0h3.58c-.17,3.14-1.68,5.84-3.58,6.89Zm4.78,0h2.39a7.78,7.78,0,0,1-5,6.68A10.52,10.52,0,0,0,15.38,10.6Z" transform="translate(-1 -1)" style="fill:#f05050;fill-opacity:.8;"/>
	</g>
// earth svg end

// saved svg start
	<g transform="translate(0 40)">
		<path d="M17.35,2h-3V3.36h2.24V16.64H3.36V3.36H5.61V2h-3A.65.65,0,0,0,2,2.65v14.7a.65.65,0,0,0,.65.65h14.7a.65.65,0,0,0,.65-.65V2.65A.65.65,0,0,0,17.35,2Z" transform="translate(-2 -2)" style="fill:#2c2e2f;fill-opacity:.8;"/>
		<path d="M7.33,14.37A.85.85,0,0,1,7,14.28a.82.82,0,0,1-.48-.75V2h7.09V13.51a.84.84,0,0,1-.49.76.91.91,0,0,1-1-.11L10,12.43l-2.1,1.73A.9.9,0,0,1,7.33,14.37Zm0-1Zm.38-10v9.45l1.83-1.5a.8.8,0,0,1,1,0l1.84,1.51V3.39Zm2.44,9h0Z" transform="translate(-2 -2)" style="fill:#2c2e2f;fill-opacity:.8;"/>
	</g>
    // hover
	<g transform="translate(0 60)">
		<path d="M17.35,2h-3V3.36h2.24V16.64H3.36V3.36H5.61V2h-3A.65.65,0,0,0,2,2.65v14.7a.65.65,0,0,0,.65.65h14.7a.65.65,0,0,0,.65-.65V2.65A.65.65,0,0,0,17.35,2Z" transform="translate(-2 -2)" style="fill:#f05050;fill-opacity:.8;"/>
		<path d="M7.33,14.37A.85.85,0,0,1,7,14.28a.82.82,0,0,1-.48-.75V2h7.09V13.51a.84.84,0,0,1-.49.76.91.91,0,0,1-1-.11L10,12.43l-2.1,1.73A.9.9,0,0,1,7.33,14.37Zm0-1Zm.38-10v9.45l1.83-1.5a.8.8,0,0,1,1,0l1.84,1.51V3.39Zm2.44,9h0Z" transform="translate(-2 -2)" style="fill:#f05050;fill-opacity:.8;"/>
	</g>
// saved svg end

//intereat svg start
	<g transform="translate(0 80)">
		<path d="M10.27,1.45a.65.65,0,0,0-.83.31L7,6.69l-5.44.78A.63.63,0,0,0,1,8.19a.65.65,0,0,0,.18.37l3.93,3.85-.94,5.42a.64.64,0,0,0,.52.74.71.71,0,0,0,.41-.06L10,16l4.87,2.57a.64.64,0,0,0,.86-.27.65.65,0,0,0,.07-.41l-.92-5.42,3.95-3.84a.63.63,0,0,0,0-.9.66.66,0,0,0-.37-.19L13,6.7,10.59,1.76a.64.64,0,0,0-.32-.31Zm-.26,2,2,4.07a.64.64,0,0,0,.48.36L17,8.58l-3.26,3.16a.64.64,0,0,0-.18.57l.75,4.47-4-2.12a.68.68,0,0,0-.59,0l-4,2.11.77-4.48a.62.62,0,0,0-.18-.56L3,8.55l4.49-.64A.63.63,0,0,0,8,7.56Z" transform="translate(-1 -1.4)" style="fill:#2c2e2f;fill-opacity:0.8"/>
	</g>
    //hover
	<g transform="translate(0 100)">
		<path d="M10.27,1.45a.65.65,0,0,0-.83.31L7,6.69l-5.44.78A.63.63,0,0,0,1,8.19a.65.65,0,0,0,.18.37l3.93,3.85-.94,5.42a.64.64,0,0,0,.52.74.71.71,0,0,0,.41-.06L10,16l4.87,2.57a.64.64,0,0,0,.86-.27.65.65,0,0,0,.07-.41l-.92-5.42,3.95-3.84a.63.63,0,0,0,0-.9.66.66,0,0,0-.37-.19L13,6.7,10.59,1.76a.64.64,0,0,0-.32-.31Zm-.26,2,2,4.07a.64.64,0,0,0,.48.36L17,8.58l-3.26,3.16a.64.64,0,0,0-.18.57l.75,4.47-4-2.12a.68.68,0,0,0-.59,0l-4,2.11.77-4.48a.62.62,0,0,0-.18-.56L3,8.55l4.49-.64A.63.63,0,0,0,8,7.56Z" transform="translate(-1 -1.4)" style="fill:#f05050;fill-opacity:0.8"/>
	</g>
//intereat svg end

//mypage svg start
	<g transform="translate(0 120)">
		<path d="M15.11.71H1.89V9.43H15.11ZM4.8,2.86H9.58a.48.48,0,0,1,.48.47.5.5,0,0,1-.48.48H4.8a.48.48,0,0,1-.47-.48A.47.47,0,0,1,4.8,2.86Zm7.4,3.59H4.8a.5.5,0,0,1,0-1h7.4a.5.5,0,0,1,0,1Z" transform="translate(0 0.03)" style="fill:none"/>
		<polygon points="4.8 12.25 12 12.25 11.86 10.66 4.94 10.66 4.8 12.25" style="fill:none"/>
		<path d="M16.7,9.43h-.88v-9A.47.47,0,0,0,15.35,0H1.65a.47.47,0,0,0-.47.46v9H.3a.29.29,0,0,0-.3.3H0v.57a.31.31,0,0,0,.3.31H4.23l-.3,3.6a.34.34,0,0,0,.3.38h0a.36.36,0,0,0,.35-.32l.11-1.36H12l.12,1.36a.36.36,0,0,0,.35.32h0a.34.34,0,0,0,.32-.36v0l-.31-3.6H16.7a.31.31,0,0,0,.3-.31V9.73A.29.29,0,0,0,16.7,9.43ZM1.89.71H15.11V9.43H1.89ZM12,12.22H4.8l.14-1.6h6.92Z" transform="translate(0 0.03)" style="fill:#2c2e2f;"/>
		<path d="M12.2,5.5H4.8a.5.5,0,0,0,0,1h7.4a.5.5,0,0,0,0-1Z" transform="translate(0 0.03)" style="fill:#2c2e2f;"/><path d="M4.8,3.8H9.58a.5.5,0,0,0,.48-.48.48.48,0,0,0-.48-.47H4.8a.47.47,0,0,0-.47.47A.48.48,0,0,0,4.8,3.8Z" transform="translate(0 0.03)" style="fill:#2c2e2f;"/>
	</g>
    //hover
	<g transform="translate(0 140)">
		<path d="M15.11.71H1.89V9.43H15.11ZM4.8,2.86H9.58a.48.48,0,0,1,.48.47.5.5,0,0,1-.48.48H4.8a.48.48,0,0,1-.47-.48A.47.47,0,0,1,4.8,2.86Zm7.4,3.59H4.8a.5.5,0,0,1,0-1h7.4a.5.5,0,0,1,0,1Z" transform="translate(0 0.03)" style="fill:none"/>
		<polygon points="4.8 12.25 12 12.25 11.86 10.66 4.94 10.66 4.8 12.25" style="fill:none"/>
		<path d="M16.7,9.43h-.88v-9A.47.47,0,0,0,15.35,0H1.65a.47.47,0,0,0-.47.46v9H.3a.29.29,0,0,0-.3.3H0v.57a.31.31,0,0,0,.3.31H4.23l-.3,3.6a.34.34,0,0,0,.3.38h0a.36.36,0,0,0,.35-.32l.11-1.36H12l.12,1.36a.36.36,0,0,0,.35.32h0a.34.34,0,0,0,.32-.36v0l-.31-3.6H16.7a.31.31,0,0,0,.3-.31V9.73A.29.29,0,0,0,16.7,9.43ZM1.89.71H15.11V9.43H1.89ZM12,12.22H4.8l.14-1.6h6.92Z" transform="translate(0 0.03)" style="fill:#f05050;fill-opacity:.8;"/>
		<path d="M12.2,5.5H4.8a.5.5,0,0,0,0,1h7.4a.5.5,0,0,0,0-1Z" transform="translate(0 0.03)" style="fill:#f05050;fill-opacity:.8;"/>
		<path d="M4.8,3.8H9.58a.5.5,0,0,0,.48-.48.48.48,0,0,0-.48-.47H4.8a.47.47,0,0,0-.47.47A.48.48,0,0,0,4.8,3.8Z" transform="translate(0 0.03)" style="fill:#f05050;fill-opacity:.8;"/>
	</g>
//mypage svg end

//create page svg  start
	<g transform="translate(0 160)">
		<path d="M10,19h8a.91.91,0,0,0,1-1V15.32c0-2.74,0-5.49,0-8.24a.93.93,0,0,0-.29-.69L13.64,1.3a1,1,0,0,0-.73-.3h-11A.85.85,0,0,0,1,1.92V18.05A.87.87,0,0,0,2,19Z" transform="translate(-1 -1)" style="fill:#fff"/>
		<path d="M10,19H2A.87.87,0,0,1,1,18.05V1.92A.85.85,0,0,1,1.92,1h11a1,1,0,0,1,.73.3L18.7,6.39a.93.93,0,0,1,.29.69c0,2.75,0,5.5,0,8.24V18a.91.91,0,0,1-1,1ZM2.73,2.73V17.26H17.26V7.87H13.05a.88.88,0,0,1-1-1V2.73Z" transform="translate(-1 -1)" style="fill:#2c2e2f;fill-opacirty:0.8;"/>
		<path d="M12.17,2.5V6.81a.9.9,0,0,0,1,1H17.5V17.5H2.5V2.5" transform="translate(-1 -1)" style="fill:#fff"/>
		<path d="M8.94,11.06V8.61A.6.6,0,0,0,8.33,8h0a.61.61,0,0,0-.61.61v2.45H5.28a.6.6,0,0,0-.61.61h0a.61.61,0,0,0,.61.61H7.72v2.44a.61.61,0,0,0,.61.61h0a.6.6,0,0,0,.61-.61V12.28h2.45a.61.61,0,0,0,.61-.61h0a.6.6,0,0,0-.61-.61Z" transform="translate(-1 -1)" style="fill:#2c2e2f;fill-opacirty:0.8;"/>
	</g>
    //hover
	<g transform="translate(0 180)">
		<path d="M10,19h8a.91.91,0,0,0,1-1V15.32c0-2.74,0-5.49,0-8.24a.93.93,0,0,0-.29-.69L13.64,1.3a1,1,0,0,0-.73-.3h-11A.85.85,0,0,0,1,1.92V18.05A.87.87,0,0,0,2,19Z" transform="translate(-1 -1)" style="fill:#fff"/>
		<path d="M10,19H2A.87.87,0,0,1,1,18.05V1.92A.85.85,0,0,1,1.92,1h11a1,1,0,0,1,.73.3L18.7,6.39a.93.93,0,0,1,.29.69c0,2.75,0,5.5,0,8.24V18a.91.91,0,0,1-1,1ZM2.73,2.73V17.26H17.26V7.87H13.05a.88.88,0,0,1-1-1V2.73Z" transform="translate(-1 -1)" style="fill:#f05050;fill-opacirty:0.8;"/>
		<path d="M12.17,2.5V6.81a.9.9,0,0,0,1,1H17.5V17.5H2.5V2.5" transform="translate(-1 -1)" style="fill:#fff"/>
		<path d="M8.94,11.06V8.61A.6.6,0,0,0,8.33,8h0a.61.61,0,0,0-.61.61v2.45H5.28a.6.6,0,0,0-.61.61h0a.61.61,0,0,0,.61.61H7.72v2.44a.61.61,0,0,0,.61.61h0a.6.6,0,0,0,.61-.61V12.28h2.45a.61.61,0,0,0,.61-.61h0a.6.6,0,0,0-.61-.61Z" transform="translate(-1 -1)" style="fill:#f05050;fill-opacirty:0.8;"/>
	</g>
//create page svg end

//all course svg  start
	  <g transform="translate(0 200)" style="opacity: 0.7000000000000001">
		<path d="M3.94,2.4A.6.6,0,0,0,4,3.6a7.78,7.78,0,0,1,3.5.61A3.2,3.2,0,0,1,8.92,5.59a7.07,7.07,0,0,0-1.66-.72A17.14,17.14,0,0,0,2.6,4.4H2.54A.6.6,0,0,0,2,5v9.8a.6.6,0,0,0,.6.6h0a15.77,15.77,0,0,1,4.32.41,5.65,5.65,0,0,1,2.58,1.54v0a.52.52,0,0,0,.3.2h.32l.15-.06h0a.7.7,0,0,0,.16-.14h0a5.65,5.65,0,0,1,2.6-1.56,15.64,15.64,0,0,1,4.31-.41.6.6,0,0,0,.61-.59h0V5a.6.6,0,0,0-.6-.6,17.14,17.14,0,0,0-4.66.47,7.07,7.07,0,0,0-1.66.72A3.2,3.2,0,0,1,12.5,4.21,7.78,7.78,0,0,1,16,3.6.61.61,0,0,0,16.61,3,.6.6,0,0,0,16,2.4h0A8.75,8.75,0,0,0,12,3.14,4.5,4.5,0,0,0,10,5.1a4.5,4.5,0,0,0-1.95-2A8.75,8.75,0,0,0,4,2.4ZM3.2,5.62A15.42,15.42,0,0,1,6.93,6,5.59,5.59,0,0,1,9.4,7.45v8.26a6.68,6.68,0,0,0-2.14-1.05,15.31,15.31,0,0,0-4.06-.44Zm13.6,0v8.6a15.31,15.31,0,0,0-4.06.44,6.68,6.68,0,0,0-2.14,1.05V7.45A5.57,5.57,0,0,1,13.08,6,15.27,15.27,0,0,1,16.8,5.62Z" transform="translate(-2 -2.4)"/>
	  </g>
      //hover
	  <g transform="translate(0 220)" style="opacity: 0.7000000000000001">
		<path d="M3.94,2.4A.6.6,0,0,0,4,3.6a7.78,7.78,0,0,1,3.5.61A3.2,3.2,0,0,1,8.92,5.59a7.07,7.07,0,0,0-1.66-.72A17.14,17.14,0,0,0,2.6,4.4H2.54A.6.6,0,0,0,2,5v9.8a.6.6,0,0,0,.6.6h0a15.77,15.77,0,0,1,4.32.41,5.65,5.65,0,0,1,2.58,1.54v0a.52.52,0,0,0,.3.2h.32l.15-.06h0a.7.7,0,0,0,.16-.14h0a5.65,5.65,0,0,1,2.6-1.56,15.64,15.64,0,0,1,4.31-.41.6.6,0,0,0,.61-.59h0V5a.6.6,0,0,0-.6-.6,17.14,17.14,0,0,0-4.66.47,7.07,7.07,0,0,0-1.66.72A3.2,3.2,0,0,1,12.5,4.21,7.78,7.78,0,0,1,16,3.6.61.61,0,0,0,16.61,3,.6.6,0,0,0,16,2.4h0A8.75,8.75,0,0,0,12,3.14,4.5,4.5,0,0,0,10,5.1a4.5,4.5,0,0,0-1.95-2A8.75,8.75,0,0,0,4,2.4ZM3.2,5.62A15.42,15.42,0,0,1,6.93,6,5.59,5.59,0,0,1,9.4,7.45v8.26a6.68,6.68,0,0,0-2.14-1.05,15.31,15.31,0,0,0-4.06-.44Zm13.6,0v8.6a15.31,15.31,0,0,0-4.06.44,6.68,6.68,0,0,0-2.14,1.05V7.45A5.57,5.57,0,0,1,13.08,6,15.27,15.27,0,0,1,16.8,5.62Z" transform="translate(-2 -2.4)" style="fill:#f05050;"/>
	  </g>
//all course svg end

//my course svg  start
	<g transform="translate(0 240)">
		<path d="M6.55,2.55h-4A.51.51,0,0,0,2,3.06V14.81a.51.51,0,0,0,.51.51H10.4a4,4,0,1,0,7.12-3.83,4.12,4.12,0,0,0-2.31-1.93V3.06a.51.51,0,0,0-.51-.51h-4a.51.51,0,0,0-.51.51V4.93H7.06V3.06a.51.51,0,0,0-.51-.51ZM6,14.3H3V3.57H6ZM11.17,3.57h3v5.8H14a4,4,0,0,0-2.78,1.12ZM14,10.38a3,3,0,1,1-3,3A3,3,0,0,1,14,10.38ZM10.15,6V12A4,4,0,0,0,10,14.3H7.06V6Z" transform="translate(-2 -2.55)" style="fill:#2c2e2f;fill-opacity:.8;"/>
		<rect x="1.47" y="9.54" width="2.13" height="1.02" style="fill:#2c2e2f;fill-opacity:.8;"/>
		<rect x="1.47" y="2.21" width="2.13" height="1.02" style="fill:#2c2e2f;fill-opacity:.8;"/>
		<rect x="5.54" y="9.54" width="2.13" height="1.02" style="fill:#2c2e2f;fill-opacity:.8;"/>
		<rect x="5.54" y="4.58" width="2.13" height="1.02" style="fill:#2c2e2f;fill-opacity:.8;"/>
		<rect x="9.62" y="2.21" width="2.13" height="1.02" style="fill:#2c2e2f;fill-opacity:.8;"/>
		<polygon points="14.25 9.89 13.53 9.17 11.43 11.27 10.26 10.1 9.54 10.82 11.43 12.71 14.25 9.89" style="fill:#2c2e2f;fill-opacity:.8;"/>
	</g>
     //hover

	<g transform="translate(0 260)">
		<path d="M6.55,2.55h-4A.51.51,0,0,0,2,3.06V14.81a.51.51,0,0,0,.51.51H10.4a4,4,0,1,0,7.12-3.83,4.12,4.12,0,0,0-2.31-1.93V3.06a.51.51,0,0,0-.51-.51h-4a.51.51,0,0,0-.51.51V4.93H7.06V3.06a.51.51,0,0,0-.51-.51ZM6,14.3H3V3.57H6ZM11.17,3.57h3v5.8H14a4,4,0,0,0-2.78,1.12ZM14,10.38a3,3,0,1,1-3,3A3,3,0,0,1,14,10.38ZM10.15,6V12A4,4,0,0,0,10,14.3H7.06V6Z" transform="translate(-2 -2.55)" style="fill: #f05050"/>
		<rect x="1.47" y="9.54" width="2.13" height="1.02" style="fill: #f05050"/>
		<rect x="1.47" y="2.21" width="2.13" height="1.02" style="fill: #f05050"/>
		<rect x="5.54" y="9.54" width="2.13" height="1.02" style="fill: #f05050"/>
		<rect x="5.54" y="4.58" width="2.13" height="1.02" style="fill: #f05050"/>
		<rect x="9.62" y="2.21" width="2.13" height="1.02" style="fill: #f05050"/>
		<polygon points="14.25 9.89 13.53 9.17 11.43 11.27 10.26 10.1 9.54 10.82 11.43 12.71 14.25 9.89" style="fill: #f05050"/>

	</g>
//my course svg end

// question svg start
	<g transform="translate(0 280)">
		<defs><clipPath id="clip-path" transform="translate(-2.5 -1.11)"><rect x="2.5" y="1.11" width="15" height="17.79" style="fill:none"/></clipPath></defs>
		<title>QUESTION</title>
		<g style="clip-path:url(#clip-path)"><path d="M5.36,18.74a2.7,2.7,0,0,0,2.44-2v0c.52-2.17,1.35-5.61,2-8.12H12A.75.75,0,1,0,12,7H10.16c.2-.79.34-1.35.4-1.55l.06-.21c.24-.8.78-2.67,1.63-2.67s.9,1.21.91,1.27a.74.74,0,0,0,.8.69.75.75,0,0,0,.7-.81c-.07-.92-.67-2.65-2.41-2.65-2,0-2.72,2.53-3.07,3.75l-.07.2C9,5.3,8.85,6,8.6,7H6a.75.75,0,1,0,0,1.5H8.23c-.77,3.14-1.77,7.28-1.88,7.74,0,.12-.35,1-1,1-1,0-1.38-1.36-1.38-1.37A.75.75,0,0,0,3,15.36a.74.74,0,0,0-.51.93,3.18,3.18,0,0,0,2.83,2.45Zm0,0" transform="translate(-2.5 -1.11)" style="fill:#2c2e2f;fill-opacity:.8;"/></g>
		<path d="M16.54,16.8a.79.79,0,0,0,.82-.82,1,1,0,0,0-.29-.67l-1.57-1.8L17,11.73a.94.94,0,0,0,.25-.61.79.79,0,0,0-.83-.77,1,1,0,0,0-.77.46l-1.18,1.54-1.16-1.54a1,1,0,0,0-.83-.46.8.8,0,0,0-.82.82,1.09,1.09,0,0,0,.29.68l1.47,1.68-1.61,1.89a.9.9,0,0,0-.24.61.79.79,0,0,0,.83.77,1,1,0,0,0,.77-.45l1.26-1.66,1.26,1.66a1,1,0,0,0,.83.45Zm0,0" transform="translate(-2.5 -1.11)" style="fill:#2c2e2f;fill-opacity:.8;"/>
	</g>
    //hover
	<g transform="translate(0 300)">
		<defs><clipPath id="clip-path" transform="translate(-2.5 -1.11)">
		<rect x="2.5" y="1.11" width="15" height="17.79" style="fill:none"/></clipPath>
		</defs><title>QUESTION</title>
		<g style="clip-path:url(#clip-path)"><path d="M5.36,18.74a2.7,2.7,0,0,0,2.44-2v0c.52-2.17,1.35-5.61,2-8.12H12A.75.75,0,1,0,12,7H10.16c.2-.79.34-1.35.4-1.55l.06-.21c.24-.8.78-2.67,1.63-2.67s.9,1.21.91,1.27a.74.74,0,0,0,.8.69.75.75,0,0,0,.7-.81c-.07-.92-.67-2.65-2.41-2.65-2,0-2.72,2.53-3.07,3.75l-.07.2C9,5.3,8.85,6,8.6,7H6a.75.75,0,1,0,0,1.5H8.23c-.77,3.14-1.77,7.28-1.88,7.74,0,.12-.35,1-1,1-1,0-1.38-1.36-1.38-1.37A.75.75,0,0,0,3,15.36a.74.74,0,0,0-.51.93,3.18,3.18,0,0,0,2.83,2.45Zm0,0" transform="translate(-2.5 -1.11)" style="fill:#f05050;"/></g>
		<path d="M16.54,16.8a.79.79,0,0,0,.82-.82,1,1,0,0,0-.29-.67l-1.57-1.8L17,11.73a.94.94,0,0,0,.25-.61.79.79,0,0,0-.83-.77,1,1,0,0,0-.77.46l-1.18,1.54-1.16-1.54a1,1,0,0,0-.83-.46.8.8,0,0,0-.82.82,1.09,1.09,0,0,0,.29.68l1.47,1.68-1.61,1.89a.9.9,0,0,0-.24.61.79.79,0,0,0,.83.77,1,1,0,0,0,.77-.45l1.26-1.66,1.26,1.66a1,1,0,0,0,.83.45Zm0,0" transform="translate(-2.5 -1.11)" style="fill:#f05050;"/>
	</g>
// question svg end
	// article svg start here
		<g transform="translate(0 1000)" >
		    <path id="Path_9" data-name="Path 9" d="M17.5,2.4A2.52,2.52,0,0,0,14.87,0H3.13A2.52,2.52,0,0,0,.5,2.4V15.6A2.52,2.52,0,0,0,3.13,18H14.87a2.53,2.53,0,0,0,2.63-2.4ZM15.88,15.6a1,1,0,0,1-1,.91H3.13a1,1,0,0,1-1-.91V2.4a1,1,0,0,1,1-.91H14.87a1,1,0,0,1,1,.91Z" style="fill:#2c2e2f;fill-opacity:.8;"/>
			<path id="Path_10" data-name="Path 10" d="M13.27,12.35H4.73a.85.85,0,0,0,0,1.7h8.54a.85.85,0,0,0,0-1.7Z" style="fill:#2c2e2f;fill-opacity:.8;"/>
			<path id="Path_11" data-name="Path 11" d="M13.27,8.51H4.73a.85.85,0,0,0,0,1.7h8.54a.85.85,0,0,0,0-1.7Z" style="fill:#2c2e2f;fill-opacity:.8;"/>
			<path id="Path_12" data-name="Path 12" d="M4.59,6.37H8.34a.86.86,0,0,0,0-1.7H4.59a.85.85,0,0,0,0,1.7Z" style="fill:#2c2e2f;fill-opacity:.8;"/>
		</g>
		//hover
		
		<g transform="translate(0 1020)">
		   <path id="Path_9" data-name="Path 9" d="M17.5,2.4A2.52,2.52,0,0,0,14.87,0H3.13A2.52,2.52,0,0,0,.5,2.4V15.6A2.52,2.52,0,0,0,3.13,18H14.87a2.53,2.53,0,0,0,2.63-2.4ZM15.88,15.6a1,1,0,0,1-1,.91H3.13a1,1,0,0,1-1-.91V2.4a1,1,0,0,1,1-.91H14.87a1,1,0,0,1,1,.91Z" style="fill:#f05050;fill-opacity:.8;"/>
			<path id="Path_10" data-name="Path 10" d="M13.27,12.35H4.73a.85.85,0,0,0,0,1.7h8.54a.85.85,0,0,0,0-1.7Z" style="fill: #f05050;fill-opacity:.8;"/>
			<path id="Path_11" data-name="Path 11" d="M13.27,8.51H4.73a.85.85,0,0,0,0,1.7h8.54a.85.85,0,0,0,0-1.7Z" style="fill: #f05050;fill-opacity:.8;"/>
			<path id="Path_12" data-name="Path 12" d="M4.59,6.37H8.34a.86.86,0,0,0,0-1.7H4.59a.85.85,0,0,0,0,1.7Z" style="fill: #f05050;fill-opacity:.8;"/>
		</g>	
    // article svg end here




// header svg here start
     // Message svg start
		<g transform="translate(0 320)">
			<path d="M15.94,4.17H3.06L9.5,8.66Z" style="fill:none"/><path d="M9.9,9.87a.73.73,0,0,1-.8,0L1.7,4.63v9a1.28,1.28,0,0,0,1.2,1.29H16.1a1.28,1.28,0,0,0,1.2-1.29v-9Z" style="fill:none"/><path d="M18.5,5.3A2.38,2.38,0,0,0,16.1,3H2.9A2.38,2.38,0,0,0,.5,5.35v8.3A2.38,2.38,0,0,0,2.9,16H16.1a2.38,2.38,0,0,0,2.4-2.36ZM15.94,4.17,9.5,8.66,3.06,4.17Zm1.36,9.48a1.28,1.28,0,0,1-1.2,1.29H2.9a1.28,1.28,0,0,1-1.2-1.29v-9L9.1,9.87a.73.73,0,0,0,.8,0l7.4-5.23v9Z" style="fill:#2c2e2f;fill-opacity:0.8;"/>
		</g>
	//Message svg end
	// Notification svg start
		<g transform="translate(0 340)">
			<path id="_6" data-name=" 6" d="M12.47,16.1l0,0a3,3,0,0,1-5.88,0l0,0H1.12s0,0,0,0l2.38-4.74V6.8A6.21,6.21,0,0,1,9.34.5a6,6,0,0,1,6.18,6v4.8l2.38,4.74s0,0,0,0Zm-3,1.2a1.79,1.79,0,0,0,1.69-1.2H7.81A1.79,1.79,0,0,0,9.5,17.3Zm4.86-6c0-.11,0-.22,0-.34,0-.74,0-1.48,0-2.22s0-1.47,0-2.21a4.81,4.81,0,0,0-9.62,0v4.15a2.4,2.4,0,0,1-.3,1.22l-.6,1.2L2.9,14.86s0,0,0,0H16.07s0,0,0,0c-.39-.77-.78-1.54-1.16-2.31A5.76,5.76,0,0,1,14.36,11.29Z" style="fill:#2c2e2f;fill-opacity:0.8;"/>
		</g>
	//Notification svg end

	// connection svg start
		<g transform="translate(0 360)">
			<path d="M7.2,3.8A3.2,3.2,0,0,0,5.41,9.66a6.31,6.31,0,0,0-2.59,1.47A5.87,5.87,0,0,0,1,15.33H1a2.62,2.62,0,0,0,0,.28.6.6,0,0,0,.6.58H14.8a.61.61,0,0,0,.61-.59.6.6,0,0,0-.59-.61H13.36a5.94,5.94,0,0,0-.93-2.83A3.93,3.93,0,0,1,14,11.8a4,4,0,0,1,2.7,1.06,3.59,3.59,0,0,1,1.1,2.54v.17a.6.6,0,0,0,.57.63.62.62,0,0,0,.63-.58V15.4h0A4.71,4.71,0,0,0,17.52,12a5,5,0,0,0-1.93-1.14,2.6,2.6,0,1,0-3.15,0,7,7,0,0,0-.79.34l-.08-.08A6.25,6.25,0,0,0,9,9.66,3.2,3.2,0,0,0,7.2,3.8ZM7.2,5a2,2,0,1,1-2,2A2,2,0,0,1,7.2,5ZM14,7.4a1.4,1.4,0,1,1-1.4,1.4A1.39,1.39,0,0,1,14,7.4ZM7.2,10.6A5.23,5.23,0,0,1,10.75,12a4.7,4.7,0,0,1,1.41,3H2.24a4.66,4.66,0,0,1,1.42-3A5.18,5.18,0,0,1,7.2,10.6ZM16.6,15a.6.6,0,1,0,.6.6A.6.6,0,0,0,16.6,15Z" transform="translate(-1 -3.8)" style="fill:#2c2e2f;fill-opacity:0.8;"/>
		</g>
	//connection svg end
	//profile svg start
		<g transform="translate(0 380)">
			<path d="M1,10.53V9.47l0-.15a15.61,15.61,0,0,1,.34-1.81A8.84,8.84,0,0,1,8.49,1.14c.32-.07.65-.09,1-.14h1.06l.1,0a13.73,13.73,0,0,1,1.7.3A8.84,8.84,0,0,1,18.86,8.5c.07.32.1.65.14,1v1.06l0,.13a15.52,15.52,0,0,1-.3,1.68,8.84,8.84,0,0,1-7.17,6.52c-.32.07-.65.1-1,.14H9.47l-.13,0A7.88,7.88,0,0,1,7,18.48a8.86,8.86,0,0,1-5.9-7C1.07,11.2,1.05,10.86,1,10.53Zm6.83,1.25-.06-.06a3.64,3.64,0,0,1-1-1.42A3.85,3.85,0,0,1,7.9,5.73a3.3,3.3,0,0,1,2.73-.66,3.76,3.76,0,0,1,2.83,4.65,3.85,3.85,0,0,1-1.3,2.06,6.74,6.74,0,0,1,3.93,2.7,7.57,7.57,0,1,0-12.17,0A6.65,6.65,0,0,1,7.83,11.78Zm7.26,3.82-.16-.3a4.93,4.93,0,0,0-2.37-1.88A6.57,6.57,0,0,0,9.4,13a6,6,0,0,0-3.64,1.53,3.43,3.43,0,0,0-.85,1.12A7.56,7.56,0,0,0,15.09,15.6ZM12.15,8.79a2.39,2.39,0,0,0-.6-1.65A2.06,2.06,0,0,0,8.82,6.8a2.48,2.48,0,0,0,0,3.91,2,2,0,0,0,2.46,0A2.32,2.32,0,0,0,12.15,8.79Z" transform="translate(-1 -1)" style="fill:#2e2e2e;fill-opacity: .5;"/>
		</g>
	    //hover
	   <g transform="translate(0 400)">
			<path d="M1,10.53V9.47l0-.15a15.61,15.61,0,0,1,.34-1.81A8.84,8.84,0,0,1,8.49,1.14c.32-.07.65-.09,1-.14h1.06l.1,0a13.73,13.73,0,0,1,1.7.3A8.84,8.84,0,0,1,18.86,8.5c.07.32.1.65.14,1v1.06l0,.13a15.52,15.52,0,0,1-.3,1.68,8.84,8.84,0,0,1-7.17,6.52c-.32.07-.65.1-1,.14H9.47l-.13,0A7.88,7.88,0,0,1,7,18.48a8.86,8.86,0,0,1-5.9-7C1.07,11.2,1.05,10.86,1,10.53Zm6.83,1.25-.06-.06a3.64,3.64,0,0,1-1-1.42A3.85,3.85,0,0,1,7.9,5.73a3.3,3.3,0,0,1,2.73-.66,3.76,3.76,0,0,1,2.83,4.65,3.85,3.85,0,0,1-1.3,2.06,6.74,6.74,0,0,1,3.93,2.7,7.57,7.57,0,1,0-12.17,0A6.65,6.65,0,0,1,7.83,11.78Zm7.26,3.82-.16-.3a4.93,4.93,0,0,0-2.37-1.88A6.57,6.57,0,0,0,9.4,13a6,6,0,0,0-3.64,1.53,3.43,3.43,0,0,0-.85,1.12A7.56,7.56,0,0,0,15.09,15.6ZM12.15,8.79a2.39,2.39,0,0,0-.6-1.65A2.06,2.06,0,0,0,8.82,6.8a2.48,2.48,0,0,0,0,3.91,2,2,0,0,0,2.46,0A2.32,2.32,0,0,0,12.15,8.79Z" transform="translate(-1 -1)" style="fill:#f05050;fill-opacity: .5;"/>
	</g>
	//profile svg end
	//activity log svg start
		<g transform="translate(0 420)">
			<path d="M12.17,9.05H17a1,1,0,0,1,1,.71A1,1,0,0,1,17,11H7.36a1,1,0,0,1-1-.71,1,1,0,0,1,1-1.2h4.84Z" transform="translate(-2.03 -4.09)" style="fill:#2e2e2e;fill-opacity:.5;"/>
			<path d="M12.15,15.6H7.35a1,1,0,0,1-1-.7,1,1,0,0,1,.91-1.21h9.66a1,1,0,0,1,1,.72,1,1,0,0,1-1,1.19H12.15Z" transform="translate(-2.03 -4.09)" style="fill:#2e2e2e;fill-opacity:.5;"/>
			<path d="M12.15,6.31H7.35a1,1,0,0,1-1-.76,1,1,0,0,1,.92-1.14h9.67a1,1,0,1,1,0,1.9h-4.8Z" transform="translate(-2.03 -4.09)" style="fill:#2e2e2e;fill-opacity:.5;"/>
			<path d="M4.55,5.35A1.26,1.26,0,1,1,3.29,4.09,1.27,1.27,0,0,1,4.55,5.35Z" transform="translate(-2.03 -4.09)" style="fill:#2e2e2e;fill-opacity:.5;"/>
			<path d="M4.55,10a1.29,1.29,0,0,1-1.26,1.27A1.28,1.28,0,1,1,4.55,10Z" transform="translate(-2.03 -4.09)" style="fill:#2e2e2e;fill-opacity:.5;"/>
			<path d="M4.55,14.67a1.24,1.24,0,0,1-1.27,1.24A1.25,1.25,0,0,1,2,14.59a1.28,1.28,0,0,1,1.28-1.22A1.28,1.28,0,0,1,4.55,14.67Z" transform="translate(-2.03 -4.09)" style="fill:#2e2e2e;fill-opacity:.5;"/>
		</g>
	    //hover
	   <g transform="translate(0 440)">
			<path d="M12.17,9.05H17a1,1,0,0,1,1,.71A1,1,0,0,1,17,11H7.36a1,1,0,0,1-1-.71,1,1,0,0,1,1-1.2h4.84Z" transform="translate(-2.03 -4.09)" style="fill:#f05050;fill-opacity:.5;"/>
			<path d="M12.15,15.6H7.35a1,1,0,0,1-1-.7,1,1,0,0,1,.91-1.21h9.66a1,1,0,0,1,1,.72,1,1,0,0,1-1,1.19H12.15Z" transform="translate(-2.03 -4.09)" style="fill:#f05050;fill-opacity:.5;"/>
			<path d="M12.15,6.31H7.35a1,1,0,0,1-1-.76,1,1,0,0,1,.92-1.14h9.67a1,1,0,1,1,0,1.9h-4.8Z" transform="translate(-2.03 -4.09)" style="fill:#f05050;fill-opacity:.5;"/>
			<path d="M4.55,5.35A1.26,1.26,0,1,1,3.29,4.09,1.27,1.27,0,0,1,4.55,5.35Z" transform="translate(-2.03 -4.09)" style="fill:#f05050;fill-opacity:.5;"/>
			<path d="M4.55,10a1.29,1.29,0,0,1-1.26,1.27A1.28,1.28,0,1,1,4.55,10Z" transform="translate(-2.03 -4.09)" style="fill:#f05050;fill-opacity:.5;"/>
			<path d="M4.55,14.67a1.24,1.24,0,0,1-1.27,1.24A1.25,1.25,0,0,1,2,14.59a1.28,1.28,0,0,1,1.28-1.22A1.28,1.28,0,0,1,4.55,14.67Z" transform="translate(-2.03 -4.09)" style="fill:#f05050;fill-opacity:.5;"/>
	</g>
	//activity log  svg end
	//wallet svg start
		<g transform="translate(0 460)">
			<path d="M16.29,6.06V4.86a1.69,1.69,0,0,0-1.72-1.72H4a2,2,0,0,0-2,2V14a2.83,2.83,0,0,0,2.86,2.86H16.29A1.69,1.69,0,0,0,18,15.14V7.77A1.68,1.68,0,0,0,16.29,6.06ZM4,4.29H14.57a.54.54,0,0,1,.57.57v1.2H4a.88.88,0,0,1-.8-.92A.83.83,0,0,1,4,4.29ZM16.29,15.71H4.86A1.69,1.69,0,0,1,3.14,14V7A2.3,2.3,0,0,0,4,7.2H16.29a.54.54,0,0,1,.57.57V9.43H14A2.29,2.29,0,1,0,14,14h2.86v1.14A.54.54,0,0,1,16.29,15.71Zm.57-2.85H14a1.15,1.15,0,0,1,0-2.29h2.86Z" transform="translate(-2 -3.14)" style="fill: #2c2e2f;fill-opacity: .5;"/>
		</g>
	    //hover
	   <g transform="translate(0 480)">
			<path d="M16.29,6.06V4.86a1.69,1.69,0,0,0-1.72-1.72H4a2,2,0,0,0-2,2V14a2.83,2.83,0,0,0,2.86,2.86H16.29A1.69,1.69,0,0,0,18,15.14V7.77A1.68,1.68,0,0,0,16.29,6.06ZM4,4.29H14.57a.54.54,0,0,1,.57.57v1.2H4a.88.88,0,0,1-.8-.92A.83.83,0,0,1,4,4.29ZM16.29,15.71H4.86A1.69,1.69,0,0,1,3.14,14V7A2.3,2.3,0,0,0,4,7.2H16.29a.54.54,0,0,1,.57.57V9.43H14A2.29,2.29,0,1,0,14,14h2.86v1.14A.54.54,0,0,1,16.29,15.71Zm.57-2.85H14a1.15,1.15,0,0,1,0-2.29h2.86Z" transform="translate(-2 -3.14)" style="fill: #f05050;fill-opacity: .5;"/>
	</g>
	//wallet svg end
	//Setting svg start
		<g transform="translate(0 500)">
			<path d="M10,13a3,3,0,1,1,3-3A3,3,0,0,1,10,13Zm0-4.36A1.33,1.33,0,1,0,11.33,10,1.34,1.34,0,0,0,10,8.67Z" transform="translate(-1.15 -1.15)" style="fill: #2c2e2f;fill-opacity: .5;"/>
            <path d="M10.06,18.85a2.31,2.31,0,0,1-2.31-2.3.37.37,0,0,0-.22-.37.38.38,0,0,0-.44.05,2.3,2.3,0,0,1-4-1.59A2.25,2.25,0,0,1,3.79,13a.38.38,0,0,0,.11-.43.37.37,0,0,0-.33-.22H3.45a2.31,2.31,0,0,1,0-4.61.36.36,0,0,0,.37-.22.38.38,0,0,0,0-.44,2.3,2.3,0,0,1,1.59-4h0A2.29,2.29,0,0,1,7,3.79a.37.37,0,0,0,.43.11l.14,0a.4.4,0,0,0,.14-.28V3.45a2.3,2.3,0,0,1,4.6,0,.39.39,0,0,0,.22.39.35.35,0,0,0,.39-.07A2.31,2.31,0,1,1,16.21,7a.38.38,0,0,0-.11.43.58.58,0,0,1,0,.14.4.4,0,0,0,.28.14h.12a2.3,2.3,0,1,1,0,4.6.39.39,0,0,0-.39.22h0a.35.35,0,0,0,.07.39,2.33,2.33,0,0,1,0,3.3l0,0a2.31,2.31,0,0,1-3.23,0,.38.38,0,0,0-.43-.11.37.37,0,0,0-.22.33v.12A2.3,2.3,0,0,1,10.06,18.85ZM7.34,14.43a2.11,2.11,0,0,1,.82.17,2,2,0,0,1,1.29,1.86.63.63,0,0,0,.61.69.6.6,0,0,0,.6-.6v-.13A2.06,2.06,0,0,1,14.16,15a.6.6,0,0,0,.9,0l0,0a.61.61,0,0,0,0-.84,2.06,2.06,0,0,1,1.42-3.55.62.62,0,0,0,.67-.6.6.6,0,0,0-.6-.6h-.13a2.07,2.07,0,0,1-1.88-1.25.73.73,0,0,1-.06-.21A2,2,0,0,1,15,5.84a.63.63,0,0,0,0-.9.6.6,0,0,0-.86,0A2.06,2.06,0,0,1,10.6,3.52a.62.62,0,0,0-.6-.67.6.6,0,0,0-.6.6v.13A2.07,2.07,0,0,1,8.15,5.46a.73.73,0,0,1-.21.06A2,2,0,0,1,5.84,5a.59.59,0,0,0-.9,0,.6.6,0,0,0-.18.43.58.58,0,0,0,.18.43A2.06,2.06,0,0,1,5.4,8.16,2,2,0,0,1,3.54,9.45a.63.63,0,0,0-.69.61.6.6,0,0,0,.6.6h.13A2.06,2.06,0,0,1,5,14.16a.66.66,0,0,0-.22.48.59.59,0,0,0,.17.42.6.6,0,0,0,.86,0A2.13,2.13,0,0,1,7.34,14.43Zm8-2.25h0Z" transform="translate(-1.15 -1.15)" style="fill: #2c2e2f;fill-opacity: .5;"/>
		</g>
	    //hover
		<g transform="translate(0 520)">
				<path d="M10,13a3,3,0,1,1,3-3A3,3,0,0,1,10,13Zm0-4.36A1.33,1.33,0,1,0,11.33,10,1.34,1.34,0,0,0,10,8.67Z" transform="translate(-1.15 -1.15)" style="fill: #f05050;fill-opacity: .5;"/>
				<path d="M10.06,18.85a2.31,2.31,0,0,1-2.31-2.3.37.37,0,0,0-.22-.37.38.38,0,0,0-.44.05,2.3,2.3,0,0,1-4-1.59A2.25,2.25,0,0,1,3.79,13a.38.38,0,0,0,.11-.43.37.37,0,0,0-.33-.22H3.45a2.31,2.31,0,0,1,0-4.61.36.36,0,0,0,.37-.22.38.38,0,0,0,0-.44,2.3,2.3,0,0,1,1.59-4h0A2.29,2.29,0,0,1,7,3.79a.37.37,0,0,0,.43.11l.14,0a.4.4,0,0,0,.14-.28V3.45a2.3,2.3,0,0,1,4.6,0,.39.39,0,0,0,.22.39.35.35,0,0,0,.39-.07A2.31,2.31,0,1,1,16.21,7a.38.38,0,0,0-.11.43.58.58,0,0,1,0,.14.4.4,0,0,0,.28.14h.12a2.3,2.3,0,1,1,0,4.6.39.39,0,0,0-.39.22h0a.35.35,0,0,0,.07.39,2.33,2.33,0,0,1,0,3.3l0,0a2.31,2.31,0,0,1-3.23,0,.38.38,0,0,0-.43-.11.37.37,0,0,0-.22.33v.12A2.3,2.3,0,0,1,10.06,18.85ZM7.34,14.43a2.11,2.11,0,0,1,.82.17,2,2,0,0,1,1.29,1.86.63.63,0,0,0,.61.69.6.6,0,0,0,.6-.6v-.13A2.06,2.06,0,0,1,14.16,15a.6.6,0,0,0,.9,0l0,0a.61.61,0,0,0,0-.84,2.06,2.06,0,0,1,1.42-3.55.62.62,0,0,0,.67-.6.6.6,0,0,0-.6-.6h-.13a2.07,2.07,0,0,1-1.88-1.25.73.73,0,0,1-.06-.21A2,2,0,0,1,15,5.84a.63.63,0,0,0,0-.9.6.6,0,0,0-.86,0A2.06,2.06,0,0,1,10.6,3.52a.62.62,0,0,0-.6-.67.6.6,0,0,0-.6.6v.13A2.07,2.07,0,0,1,8.15,5.46a.73.73,0,0,1-.21.06A2,2,0,0,1,5.84,5a.59.59,0,0,0-.9,0,.6.6,0,0,0-.18.43.58.58,0,0,0,.18.43A2.06,2.06,0,0,1,5.4,8.16,2,2,0,0,1,3.54,9.45a.63.63,0,0,0-.69.61.6.6,0,0,0,.6.6h.13A2.06,2.06,0,0,1,5,14.16a.66.66,0,0,0-.22.48.59.59,0,0,0,.17.42.6.6,0,0,0,.86,0A2.13,2.13,0,0,1,7.34,14.43Zm8-2.25h0Z" transform="translate(-1.15 -1.15)" style="fill: #f05050;fill-opacity: .5;"/>
		</g>
	//Setting svg end

	//logout svg start
		<g transform="translate(0 540)">
			<path d="M18.35,10.15a8.34,8.34,0,0,0-3.7-6.93,1,1,0,0,0-1.42.28,1,1,0,0,0,.27,1.4,5.93,5.93,0,0,1,1.94,1.92,6.37,6.37,0,0,1-7.13,9.42,6.18,6.18,0,0,1-4.13-3.62,6.34,6.34,0,0,1,2.29-7.7,1,1,0,0,0,.28-1.41,1,1,0,0,0-1.42-.28,8.35,8.35,0,1,0,13,6.92Zm0,0" transform="translate(-1.65 -1.5)" style="fill:#2c2e2f;fill-opacity: 0.5;"/>
            <rect x="7.1" width="2.5" height="8.48" rx="1.25" ry="1.25" style="fill:#2c2e2f;fill-opacity:0.5;"/>
		</g>
	   //hover
	   <g transform="translate(0 560)">
			<path d="M18.35,10.15a8.34,8.34,0,0,0-3.7-6.93,1,1,0,0,0-1.42.28,1,1,0,0,0,.27,1.4,5.93,5.93,0,0,1,1.94,1.92,6.37,6.37,0,0,1-7.13,9.42,6.18,6.18,0,0,1-4.13-3.62,6.34,6.34,0,0,1,2.29-7.7,1,1,0,0,0,.28-1.41,1,1,0,0,0-1.42-.28,8.35,8.35,0,1,0,13,6.92Zm0,0" transform="translate(-1.65 -1.5)" style="fill:#f05050;fill-opacity: 0.5;"/>
            <rect x="7.1" width="2.5" height="8.48" rx="1.25" ry="1.25" style="fill:#f05050;fill-opacity:0.5;"/>
	  </g>
	//logout svg end
	//compose msg svg start
		<g transform="translate(0 580)">
			<path d="M7.33,9.7l6-5.94,2.31,2.31-6,6L6.27,13.13Zm7.32-7.26L17,4.75l1.91-1.91L16.57.53Z" transform="translate(-1 -0.53)" style="fill:#2e2e2e;fill-opacity:0.6;"/><path d="M19,19.47H1v-18h9a.9.9,0,1,1,0,1.8H2.8v14.4H17.2V7.77a.9.9,0,0,1,1.8,0Z" transform="translate(-1 -0.53)" style="fill:#2e2e2e;fill-opacity:0.6;"/>
		</g>
	    //hover
	   <g transform="translate(0 600)">
			<path d="M7.33,9.7l6-5.94,2.31,2.31-6,6L6.27,13.13Zm7.32-7.26L17,4.75l1.91-1.91L16.57.53Z" transform="translate(-1 -0.53)" style="fill:#f05050;fill-opacity:0.6;"/><path d="M19,19.47H1v-18h9a.9.9,0,1,1,0,1.8H2.8v14.4H17.2V7.77a.9.9,0,0,1,1.8,0Z" transform="translate(-1 -0.53)" style="fill:#f05050;fill-opacity:0.6;"/>
	  </g>
	//compose msg  svg end
	//search svg start
	 <g transform="translate(0 620)">
	        <path d="M13.86,12.32H13l-.3-.32a6.56,6.56,0,0,0,1.13-6.9A6.69,6.69,0,1,0,5.1,13.86,6.56,6.56,0,0,0,12,12.73l.32.3v.83L17,18.53a1.16,1.16,0,0,0,1.39.23l0,0A1.16,1.16,0,0,0,18.5,17Zm-6.18.37a5,5,0,0,1-5-5,5.07,5.07,0,0,1,5-5,5,5,0,1,1,0,10Zm0-.37" transform="translate(-1 -1)" style="fill:#2c2e2f"/>
	 </g>
	//search  svg end
	//greaterarrow svg start
    <g transform="translate(0 640)" stroke="none" stroke-width="1" fill="none" fill-rule="evenodd">
        <g id="menu" transform="translate(-339.000000, -494.000000)" fill="#9B9B9B" fill-rule="nonzero">
            <g id="General-settings" transform="translate(0.000000, 328.000000)">
                <g id="Security" transform="translate(15.000000, 148.000000)">
                    <path d="M327.997592,28.9865271 C327.746769,28.9865271 327.495977,28.8906512 327.304747,28.6993023 L321.287101,22.6749302 C320.9043,22.2917054 320.9043,21.6703721 321.287101,21.2873023 C321.669747,20.9042326 322.290269,20.9042326 322.673101,21.2873023 L327.997592,26.618 L333.322114,21.2874884 C333.704915,20.9044186 334.325375,20.9044186 334.70799,21.2874884 C335.090977,21.6705581 335.090977,22.2918915 334.70799,22.6751163 L328.690437,28.6994884 C328.499114,28.8908682 328.248322,28.9865271 327.997592,28.9865271 Z" id="Shape" transform="translate(327.997615, 24.993264) rotate(270.000000) translate(-327.997615, -24.993264) "></path>
                </g>
            </g>
        </g>
    </g>
	//greaterarrow  svg end
//header svg end here

//Notificaton svg start
	// course_notification svg start
		<g transform="translate(0 660)">
			<path d="M17.73.15H5.29a2.66,2.66,0,0,0-2,.78,2.88,2.88,0,0,0-.8,1.91V17a2.71,2.71,0,0,0,2.79,2.82H17.73a.77.77,0,0,0,.77-.78V.93A.79.79,0,0,0,17.73.15ZM17,18.32H5.29a1.16,1.16,0,0,1-1.24-1.26,1.17,1.17,0,0,1,1.24-1.24H17Zm0-4.05H5.29a2.75,2.75,0,0,0-1.24.26V3A1.44,1.44,0,0,1,4.38,2a1.25,1.25,0,0,1,.91-.34H17Z" transform="translate(-2.5 -0.15)" style="fill: #2c2e2f"/>
			<path d="M7.09,5.68h6.58a.77.77,0,0,0,.78-.78.76.76,0,0,0-.78-.77H7.09a.75.75,0,0,0-.77.77A.78.78,0,0,0,7.09,5.68Z" transform="translate(-2.5 -0.15)" style="fill: #2c2e2f"/>
			<path d="M7.09,9.29h6.58a.78.78,0,1,0,0-1.55H7.09a.76.76,0,0,0-.77.78A.78.78,0,0,0,7.09,9.29Z" transform="translate(-2.5 -0.15)" style="fill: #2c2e2f"/>
		</g>
	//course_notification svg end

	// connection-request-notification svg start
		<g transform="translate(0 680)">
			  <defs>
				<style>
				  .cls-1, .cls-2 {fill: none;stroke: #2c2e2f;stroke-width: 1px;}
				  .cls-2 {fill-rule: evenodd;}
				</style>
			  </defs>
				  <circle class="cls-1" cx="9" cy="5" r="3"/>
				  <path class="cls-2" d="M1,17s-0.062-6.969,8-7,8,7,8,7H1Z"/>
		</g>
	//connection-request-notification svg end

	//important-notification svg start
		<g transform="translate(0 700)">
		  <defs>
			<style>
			  .cls-1 {fill: none; stroke: #F05050;stroke-width: 1px;fill-rule: evenodd;}
			</style>
		  </defs>
          <path class="cls-1" d="M1,10L4,7l3,3,7-7,3,3L8,15H6Z"/>
		</g>
	//important-notification svg end

	//new-comment-notification log svg start
		<g transform="translate(0 720)">
			 <defs>
				<style>
				  .cls-1, .cls-2 { fill: none; stroke: #2c2e2f; stroke-width: 1px;}
				  .cls-1 { fill-rule: evenodd; }
				</style>
		   </defs>
			  <path class="cls-1" d="M14.031,14H15a2,2,0,0,0,2-2V4a2,2,0,0,0-2-2H3A2,2,0,0,0,1,4v8a2,2,0,0,0,2,2h7.063C10.126,14,14,17,14,17S14.013,14,14.031,14Z"/>
			  <rect class="cls-2" x="5" y="5" width="8" height="1"/>
			  <rect id="Rectangle_3_copy" data-name="Rectangle 3 copy" class="cls-2" x="5" y="7" width="8" height="1"/>
			  <rect id="Rectangle_3_copy_2" data-name="Rectangle 3 copy 2" class="cls-2" x="5" y="9" width="8" height="1"/>
		</g>
	//new-comment-notification log  svg end

	//new-interest-notification svg start
		<g transform="translate(0 740)">
			  <defs>
				<style>
				  .cls-1 {fill: none;stroke: #2c2e2f;stroke-width: 1px;fill-rule: evenodd;}
				</style>
			  </defs>
            <path class="cls-1" d="M1,7H7L9,1l2,6h6l-5,4,2,6L9,13,4,17l2-6Z"/>
		</g>
	//new-interest-notification svg end

	//normal-post-notification svg start
		<g transform="translate(0 760)">
			  <defs>
				<style>
				  .cls-1 {fill: none;stroke: #2c2e2f;stroke-width: 1px;fill-rule: evenodd;}
				</style>
			  </defs>
			  <path class="cls-1" d="M1,7L17,2,11,17Z"/>
			  <path class="cls-1" d="M17,2L6,11v4l2-2"/>
		</g>
	//normal-post-notification svg end

	//password-notification svg start
		<g transform="translate(0 780)">
			<path d="M15.47,12A5.5,5.5,0,0,1,9.9,11.1L9.76,11,6.6,13.69,8,15.32l-1.3,1.11L5.3,14.8l-1.06.9,1.71,2L4.62,18.84l-1.72-2c-.51.49-1,.93-1.72.35l0,0c-.44-.79.12-1.22.69-1.7L4,13.57l4.4-3.72c.15-.13.19-.2.09-.4a5.6,5.6,0,0,1,2.55-7.8,5.65,5.65,0,0,1,2.32-.49,5.58,5.58,0,0,1,5.39,4,5.77,5.77,0,0,1-2.1,6.18A5.11,5.11,0,0,1,15.47,12Zm1-7.71a3.91,3.91,0,0,0-5.49-.5,4,4,0,0,0-.58,5.39,3.9,3.9,0,1,0,6.07-4.89Z" transform="translate(-1 -1.16)" style="fill:#2c2e2f"/>
		</g>
	//password-notification svg end

	//question-notification svg start
		<g transform="translate(0 800)">
			<path id="Shape" d="M10,1a9,9,0,1,0,9,9,9,9,0,0,0-9-9Zm0,16.4A7.4,7.4,0,1,1,17.4,10,7.42,7.42,0,0,1,10,17.4Zm.45-11.9H9.1v5.4l4.68,2.88.72-1.17-4.05-2.43Z" transform="translate(-1 -1)" style="fill-opacity:0.7"/>
		</g>
	//question-notification svg end

	//verify-mail-notification svg start
		<g transform="translate(0 820)">
			 <defs>
				<style>
				  .cls-1, .cls-2 {fill: none;stroke: #2c2e2f;stroke-width: 1px;}
				  .cls-2 {fill-rule: evenodd;}
				</style>
			  </defs>
			  <rect class="cls-1" x="1" y="4" width="16" height="10"/>
			  <path class="cls-2" d="M1,4l8,6,8-6"/>
		</g>
	//verify-mail-notification svg end

	//verify-mobile-notification svg start
		<g transform="translate(0 840)">
			  <defs>
				<style>
				  .cls-1 {fill: none;stroke: #2c2e2f;stroke-width: 1px;}
				</style>
			  </defs>
			  <rect class="cls-1" x="4" y="1" width="10" height="16"/>
			  <rect class="cls-1" x="4" y="3" width="10" height="10"/>
			  <rect class="cls-1" x="8" y="14.531" width="2" height="0.469"/>
		</g>
	//verify-mobile-notification svg end

	//verify-page-notification svg start
		<g transform="translate(0 860)">
			<path d="M16.5,3.5v13H3.5V3.5h13M18,2H2V18H18V2Z" transform="translate(-2 -2)" style="fill:#2c2e2f;"/><path d="M2.47,14.09,6.83,10.6l1.7,2.54a.49.49,0,0,0,.73.11l5.21-4.16a.75.75,0,0,0-.94-1.18L9.17,11.4,7.56,9a.65.65,0,0,0-.94-.14L2.7,12a1.5,1.5,0,0,0-.23,2.11Z" transform="translate(-2 -2)" style="fill:#2c2e2f;"/>
		</g>
	//verify-page-notification svg end

//Notificaton svg end here

//Setting svg start here
		<g transform="translate(0 880)">
			<defs><style>.cls-11{fill:none;}</style></defs>
			<g>
			<path class="cls-11" d="M10,7.42A1.71,1.71,0,1,0,8.27,5.71,1.73,1.73,0,0,0,10,7.42Z" transform="translate(-2 -1)"/>
			<path class="cls-11" d="M10,9.27a8.25,8.25,0,0,1,6.2,3A6.85,6.85,0,0,0,17,8.94a7,7,0,0,0-14,0,6.85,6.85,0,0,0,.83,3.28A8.13,8.13,0,0,1,10,9.27ZM10,3A2.71,2.71,0,1,1,7.27,5.71,2.72,2.72,0,0,1,10,3Z" transform="translate(-2 -1)"/>
			<path class="cls-11" d="M10,10.27A7.25,7.25,0,0,0,4.4,13.09a7,7,0,0,0,11.2,0A7.41,7.41,0,0,0,10,10.27Z" transform="translate(-2 -1)"/><path d="M18,8.94A8,8,0,1,0,7.89,16.6L10,19l2.1-2.4A8,8,0,0,0,18,8.94ZM10,2a7,7,0,0,1,7,6.94,6.85,6.85,0,0,1-.83,3.28,8.25,8.25,0,0,0-6.2-3,8.13,8.13,0,0,0-6.14,3A6.85,6.85,0,0,1,3,8.94,7,7,0,0,1,10,2Zm0,13.89a7,7,0,0,1-5.6-2.8A7.25,7.25,0,0,1,10,10.27,7.41,7.41,0,0,1,15.6,13.1,7,7,0,0,1,10,15.89Z" transform="translate(-2 -1)"/><path d="M10,8.42A2.71,2.71,0,1,0,7.27,5.71,2.72,2.72,0,0,0,10,8.42ZM10,4A1.71,1.71,0,1,1,8.27,5.71,1.73,1.73,0,0,1,10,4Z" transform="translate(-2 -1)"/>
		    </g>
		</g>
		// hover
		<g transform="translate(0 900)">
		  <defs><style>.cls-12{fill:none;}.cls-21{fill:#f05050;}</style></defs>
		  <path class="cls-12" d="M10,7.42A1.71,1.71,0,1,0,8.27,5.71,1.73,1.73,0,0,0,10,7.42Z" transform="translate(-2 -1)"/><path class="cls-12" d="M10,9.27a8.25,8.25,0,0,1,6.2,3A6.85,6.85,0,0,0,17,8.94a7,7,0,0,0-14,0,6.85,6.85,0,0,0,.83,3.28A8.13,8.13,0,0,1,10,9.27ZM10,3A2.71,2.71,0,1,1,7.27,5.71,2.72,2.72,0,0,1,10,3Z" transform="translate(-2 -1)"/><path class="cls-12" d="M10,10.27A7.25,7.25,0,0,0,4.4,13.09a7,7,0,0,0,11.2,0A7.41,7.41,0,0,0,10,10.27Z" transform="translate(-2 -1)"/><path class="cls-21" d="M18,8.94A8,8,0,1,0,7.89,16.6L10,19l2.1-2.4A8,8,0,0,0,18,8.94ZM10,2a7,7,0,0,1,7,6.94,6.85,6.85,0,0,1-.83,3.28,8.25,8.25,0,0,0-6.2-3,8.13,8.13,0,0,0-6.14,3A6.85,6.85,0,0,1,3,8.94,7,7,0,0,1,10,2Zm0,13.89a7,7,0,0,1-5.6-2.8A7.25,7.25,0,0,1,10,10.27,7.41,7.41,0,0,1,15.6,13.1,7,7,0,0,1,10,15.89Z" transform="translate(-2 -1)"/><path class="cls-21" d="M10,8.42A2.71,2.71,0,1,0,7.27,5.71,2.72,2.72,0,0,0,10,8.42ZM10,4A1.71,1.71,0,1,1,8.27,5.71,1.73,1.73,0,0,1,10,4Z" transform="translate(-2 -1)"/>
		</g>
    // Personal Information svg end here
	// Security svg start here
		<g transform="translate(0 920)">
		  <defs><style>.clss-1{fill:none;}.clss-2{clip-path:url(#sec-path);}</style>
		  <clipPath id="sec-path" transform="translate(-2.61 -1.01)">
		  <rect class="clss-1" x="6.13" y="6.93" width="7.75" height="6.14"/></clipPath></defs>
		  <title>security</title>
		  <g id="Layer_125" data-name="Layer 125"><path d="M10,19l-.13,0c-4.81-1.34-7.24-4.67-7.24-9.91V4.17c-.07-.3-.07-.3,4.73-2.14l2.46-.95L10,1l.77.3c6.4,2.45,6.66,2.55,6.6,2.9s0,3.29,0,4.85c0,5.23-2.43,8.56-7.23,9.9ZM3.56,4.5V9.05c0,4.78,2.11,7.71,6.43,9,4.32-1.25,6.41-4.18,6.41-9,0-1.35,0-3.7,0-4.56l-6-2.3L10,2l-2.3.89Z" transform="translate(-2.61 -1.01)"/>
		  <g class="clss-2"><path d="M13.63,7.34l-.22-.22a.62.62,0,0,0-.89,0L8.75,10.88,7.42,9.55a.62.62,0,0,0-.89,0l-.22.22a.62.62,0,0,0,0,.89l2,2a.64.64,0,0,0,.89,0l4.43-4.44a.63.63,0,0,0,0-.88Zm0,0" transform="translate(-2.61 -1.01)"/></g></g>
		</g>
		//hover
		<g transform="translate(0 940)">
		 <defs><style>.clsss-1{fill:#f05050;}.clsss-2{fill:#f05050;}.clss-3{clip-path:url(#sec-path-red);}</style>
		 <clipPath id="sec-path-red" transform="translate(-2.61 -1.01)">
		 <rect class="clsss-1" x="6.13" y="6.93" width="7.75" height="6.14"/></clipPath></defs>
		 <title>security2</title>
		 <g id="Layer_125" data-name="Layer 125"><path class="clsss-2" d="M10,19l-.13,0c-4.81-1.34-7.24-4.67-7.24-9.91V4.17c-.07-.3-.07-.3,4.73-2.14l2.46-.95L10,1l.77.3c6.4,2.45,6.66,2.55,6.6,2.9s0,3.29,0,4.85c0,5.23-2.43,8.56-7.23,9.9ZM3.56,4.5V9.05c0,4.78,2.11,7.71,6.43,9,4.32-1.25,6.41-4.18,6.41-9,0-1.35,0-3.7,0-4.56l-6-2.3L10,2l-2.3.89Z" transform="translate(-2.61 -1.01)"/>
		 <g class="clss-3"><path class="clsss-2" d="M13.63,7.34l-.22-.22a.62.62,0,0,0-.89,0L8.75,10.88,7.42,9.55a.62.62,0,0,0-.89,0l-.22.22a.62.62,0,0,0,0,.89l2,2a.64.64,0,0,0,.89,0l4.43-4.44a.63.63,0,0,0,0-.88Zm0,0" transform="translate(-2.61 -1.01)"/></g></g>
		</g>
    // Security svg end here
	// Contact Information svg start here
		<g transform="translate(0 960)">
		 <g id="Layer_124" data-name="Layer 124"><path d="M16.36,3.64A9,9,0,1,0,3.64,16.36a9,9,0,0,0,10.63,1.56.53.53,0,0,0,.22-.73.54.54,0,0,0-.73-.22,7.92,7.92,0,1,1,4.16-7,7.72,7.72,0,0,1-.48,2.72,1.78,1.78,0,0,1-1.4,1,1.49,1.49,0,0,1-1.48-1.49V6.5a.55.55,0,0,0-1.09,0v.55a4.56,4.56,0,1,0,.08,5.8A2.58,2.58,0,0,0,16,14.78a2.84,2.84,0,0,0,2.37-1.58A8.7,8.7,0,0,0,19,10,8.94,8.94,0,0,0,16.36,3.64ZM10,13.47A3.47,3.47,0,1,1,13.47,10,3.47,3.47,0,0,1,10,13.47Z" transform="translate(-1 -1)"/></g>
		</g>
		//hover
		<g transform="translate(0 980)">
		  <defs><style>.clsred{fill:#f05050;}</style></defs><title>contact2</title><g id="Layer_124" data-name="Layer 124"><path class="clsred" d="M16.36,3.64A9,9,0,1,0,3.64,16.36a9,9,0,0,0,10.63,1.56.53.53,0,0,0,.22-.73.54.54,0,0,0-.73-.22,7.92,7.92,0,1,1,4.16-7,7.72,7.72,0,0,1-.48,2.72,1.78,1.78,0,0,1-1.4,1,1.49,1.49,0,0,1-1.48-1.49V6.5a.55.55,0,0,0-1.09,0v.55a4.56,4.56,0,1,0,.08,5.8A2.58,2.58,0,0,0,16,14.78a2.84,2.84,0,0,0,2.37-1.58A8.7,8.7,0,0,0,19,10,8.94,8.94,0,0,0,16.36,3.64ZM10,13.47A3.47,3.47,0,1,1,13.47,10,3.47,3.47,0,0,1,10,13.47Z" transform="translate(-1 -1)"/></g>
		</g>	
    // Contact Information svg end here
	
	// livewall svg start here
		<g transform="translate(0 1040)">
		    <g transform="translate(-118.129 -273)"><g transform="translate(118.279 273)">
			<g transform="translate(0 1.693)"><g transform="translate(0 0)"><path d="M10.106,437.814a.315.315,0,0,1-.3.353H7.387a.314.314,0,0,1-.3-.353H0v.25a.8.8,0,0,0,.759.913H16.407a.815.815,0,0,0,.784-.913v-.25Z" transform="translate(0 -428.377)" fill="#565859" stroke="#565859" stroke-width="0.3"/><path d="M58.3,133.97v-.041a.4.4,0,0,1,.393-.412H71.234a.4.4,0,0,1,.393.412v7.933h.887v-7.933a1.314,1.314,0,0,0-1.28-1.342H58.693a1.314,1.314,0,0,0-1.279,1.342v7.933H58.3Z" transform="translate(-56.272 -132.586)" fill="#565859" stroke="#565859" stroke-width="0.3"/></g></g>
			<g transform="translate(8.061)"><g transform="translate(0)"><path d="M52.677,60H60.9a.861.861,0,0,1,.859.859V66.7a.861.861,0,0,1-.859.859H55.708l-2.025,2.012V67.559H52.677a.854.854,0,0,1-.859-.859V60.859A.87.87,0,0,1,52.677,60Z" transform="translate(-51.818 -60)" fill="#f05050"/></g>
			<g transform="translate(3.706 2.167)"><g transform="translate(0 0)"><path d="M2.492,1.313.331.069C.118-.079-.062.036-.062.282V2.77c-.016.246.164.36.377.229L2.476,1.755C2.705,1.641,2.705,1.428,2.492,1.313Z" transform="translate(0.063 -0.003)" fill="#fff" fill-rule="evenodd"/></g></g></g></g></g>
		</g>
		//hover
		<g transform="translate(0 1060)">
		  
		  <g transform="translate(-118.129 -273)"><g transform="translate(118.279 273)">
			<g transform="translate(0 1.693)"><g transform="translate(0 0)">
			<path d="M10.106,437.814a.315.315,0,0,1-.3.353H7.387a.314.314,0,0,1-.3-.353H0v.25a.8.8,0,0,0,.759.913H16.407a.815.815,0,0,0,.784-.913v-.25Z" transform="translate(0 -428.377)" fill="#f05050" stroke="#f05050" stroke-width="0.3"/>
			<path d="M58.3,133.97v-.041a.4.4,0,0,1,.393-.412H71.234a.4.4,0,0,1,.393.412v7.933h.887v-7.933a1.314,1.314,0,0,0-1.28-1.342H58.693a1.314,1.314,0,0,0-1.279,1.342v7.933H58.3Z" transform="translate(-56.272 -132.586)" fill="#f05050" stroke="#f05050" stroke-width="0.3"/></g></g>
			<g transform="translate(8.061)"><g transform="translate(0)"><path d="M52.677,60H60.9a.861.861,0,0,1,.859.859V66.7a.861.861,0,0,1-.859.859H55.708l-2.025,2.012V67.559H52.677a.854.854,0,0,1-.859-.859V60.859A.87.87,0,0,1,52.677,60Z" transform="translate(-51.818 -60)" fill="#f05050"/></g>
			<g transform="translate(3.706 2.167)"><g transform="translate(0 0)"><path d="M2.492,1.313.331.069C.118-.079-.062.036-.062.282V2.77c-.016.246.164.36.377.229L2.476,1.755C2.705,1.641,2.705,1.428,2.492,1.313Z" transform="translate(0.063 -0.003)" fill="#fff" fill-rule="evenodd"/></g></g></g></g></g>
		</g>	
    // livewall svg end here
	
//Setting svg start here
  
</svg>
