<svg xmlns="http://www.w3.org/2000/svg" width="18.15" height="12.443" viewBox="0 0 18.15 12.443">
<g transform="translate(-118.129 -273)"><g transform="translate(118.279 273)">
<g transform="translate(0 1.693)"><g transform="translate(0 0)"><path d="M10.106,437.814a.315.315,0,0,1-.3.353H7.387a.314.314,0,0,1-.3-.353H0v.25a.8.8,0,0,0,.759.913H16.407a.815.815,0,0,0,.784-.913v-.25Z" transform="translate(0 -428.377)" fill="#565859" stroke="#565859" stroke-width="0.3"/><path d="M58.3,133.97v-.041a.4.4,0,0,1,.393-.412H71.234a.4.4,0,0,1,.393.412v7.933h.887v-7.933a1.314,1.314,0,0,0-1.28-1.342H58.693a1.314,1.314,0,0,0-1.279,1.342v7.933H58.3Z" transform="translate(-56.272 -132.586)" fill="#565859" stroke="#565859" stroke-width="0.3"/></g></g>
<g transform="translate(8.061)"><g transform="translate(0)"><path d="M52.677,60H60.9a.861.861,0,0,1,.859.859V66.7a.861.861,0,0,1-.859.859H55.708l-2.025,2.012V67.559H52.677a.854.854,0,0,1-.859-.859V60.859A.87.87,0,0,1,52.677,60Z" transform="translate(-51.818 -60)" fill="#f05050"/></g>
<g transform="translate(3.706 2.167)"><g transform="translate(0 0)"><path d="M2.492,1.313.331.069C.118-.079-.062.036-.062.282V2.77c-.016.246.164.36.377.229L2.476,1.755C2.705,1.641,2.705,1.428,2.492,1.313Z" transform="translate(0.063 -0.003)" fill="#fff" fill-rule="evenodd"/></g></g></g></g></g>
</svg>