<svg  xmlns="http://www.w3.org/2000/svg" xmlns:xlink="http://www.w3.org/1999/xlink" viewBox="0 0 112 3000"   style="width: 112px;height: 112px;background: #fbd0d0;" >

<view id="arrow"        viewBox="0 0 18 18"/>
<view id="white-arrow"        viewBox="0 112 18 18"/>
<view id="bookmark"      viewBox="0 20 18 18"/>
<view id="comment"      viewBox="0 40 18 18"/>
<view id="dot"      viewBox="0 60 18 18"/>
<view id="error"      viewBox="0 80 18 18"/>
<view id="threedot"      viewBox="0 100 18 18"/>


<view id="chechbox"        viewBox="0 120 18 18"/>
<view id="white-chechbox"      viewBox="0 140 18 18"/>
<view id="left-arrow"      viewBox="0 160 18 18"/>
<view id="star-filled"      viewBox="0 180 18 18"/>
<view id="star-half-filled"      viewBox="0 200 18 18"/>

<view id="facebook-white"        viewBox="0 220 18 18"/>
<view id="img-atachment"      viewBox="0 240 18 18"/>
<view id="gray-tik"      viewBox="0 260 18 18"/>
<view id="mobile-icon"      viewBox="0 280 18 18"/>



<view id="star-white"        viewBox="0 320 18 18"/>
<view id="globe-icon"      viewBox="0 340 18 18"/>
<view id="tagcross"       viewBox="0 360 18 18"/>
<view id="share"          viewBox="0 380 18 18"/>
<view id="whiteenrollments"      viewBox="0 400 18 18"/>








<style><![CDATA[

  ]]>
  </style>
   
// arrow svg start
<g transform="translate(0 0)">
  <path d="M24.86,56a7.6,7.6,0,0,1,2.24-5.4l47-47A7.65,7.65,0,1,1,84.89,14.45L43.33,56,84.88,97.56a7.65,7.65,0,0,1-10.81,10.83l-47-47A7.6,7.6,0,0,1,24.86,56Z"/>
</g>
// arrow svg end

// white-arrow svg start
<g transform="translate(0 120)">
   <path d="M18.14,55.92a7.44,7.44,0,0,1,2.19-5.28L66.24,4.73A7.47,7.47,0,1,1,76.81,15.3L36.19,55.92,76.81,96.54a7.48,7.48,0,1,1-10.57,10.58L20.33,61.21A7.45,7.45,0,0,1,18.14,55.92Z" style="fill: #fff"/>
</g>
// white-arrow svg end


// bookmark-01 svg start
<g transform="translate(0 240)">
  <path d="M22.91,111.93a3.61,3.61,0,0,1-1.39,0,3.62,3.62,0,0,1-2.28-3.39V18.73A18.24,18.24,0,0,1,37,0H72A18.24,18.24,0,0,1,90.27,18.17V108A3.62,3.62,0,0,1,88,111.38a3.54,3.54,0,0,1-3.94-.83l-29.29-29-29.3,29.23A3.38,3.38,0,0,1,22.91,111.93Zm31.85-39.1a3.62,3.62,0,0,1,2.56,1L83,99.49V18.17A10.92,10.92,0,0,0,72,7.6H37.48A10.92,10.92,0,0,0,26.57,18.17V99.49L52.2,73.86A3.59,3.59,0,0,1,54.76,72.83Z" style="fill: #2c2e2f"/>
</g>

// bookmark-01 svg start

// comment svg start
<g transform="translate(0 360)">
   <path id="_3" data-name=" 3" d="M56,96.5a63,63,0,0,1-10.08-.84L22.28,110V86A45.29,45.29,0,0,1,2,49.28C2,23,26.18,2,56,2s54,21.18,54,47.28S85.82,96.5,56,96.5ZM56,8.78c-26.1,0-47.22,18-47.22,40.5A39,39,0,0,0,29,82.4V98.06l15.6-9.54A60.67,60.67,0,0,0,56,89.78c26.1,0,47.28-18,47.28-40.5S82.1,8.78,56,8.78ZM83,56a6.78,6.78,0,1,1,6.78-6.78h0v.06A6.72,6.72,0,0,1,83.06,56ZM56,56a6.78,6.78,0,1,1,6.78-6.78h0v.06A6.72,6.72,0,0,1,56.06,56ZM29,56a6.78,6.78,0,1,1,6.78-6.78h0v.06A6.72,6.72,0,0,1,29.06,56Z" transform="translate(-2 -2)" style="fill: #8c8c8c"/>
</g>
// comment svg start

// dot svg start
<g transform="translate(0 480)">
<path d="M104.49,27.91A55.86,55.86,0,0,0,84.13,7.54,54.77,54.77,0,0,0,56,0,54.77,54.77,0,0,0,27.91,7.54,55.81,55.81,0,0,0,7.54,27.91,54.77,54.77,0,0,0,0,56a54.76,54.76,0,0,0,7.54,28.1,55.81,55.81,0,0,0,20.37,20.37A54.77,54.77,0,0,0,56,112a54.85,54.85,0,0,0,28.11-7.52,55.83,55.83,0,0,0,20.36-20.36A54.79,54.79,0,0,0,112,56,54.78,54.78,0,0,0,104.49,27.91Z" style="fill: #2c2e2f;fill-opacity: 0.800000011920929"/>
</g>
// dot svg start
//error svg start
<g transform="translate(0 600)">
<path d="M56,1a55,55,0,1,0,55,55A55,55,0,0,0,56,1Zm0,104.35A49.36,49.36,0,1,1,105.37,56,49.36,49.36,0,0,1,56,105.35h0Z" style="fill: #d80027"/>
    <polygon points="62.29 68.5 64.7 19.02 47.44 19.02 49.84 68.5 62.29 68.5" style="fill: #d80027"/>
    <path d="M56.07,74c-5.78,0-9.83,4-9.83,9.93,0,5.68,3.93,10,9.61,10h.22c5.9,0,9.71-4.27,9.71-10C65.68,78,61.85,74,56.07,74Z" style="fill: #d80027"/>
</g>
//error svg end
//threedot svg start
<g transform="translate(0 720)">
<path id="Ellipse_1_copy_2" data-name="Ellipse 1 copy 2" d="M43.37,98.43A12.6,12.6,0,1,1,56,111h0a12.53,12.53,0,0,1-12.6-12.46h0Zm0-42.43A12.6,12.6,0,1,1,56,68.6h0A12.6,12.6,0,0,1,43.37,56Zm0-42.44a12.64,12.64,0,1,1,0,.07Z" style="fill: #2c2e2f"/>
</g>
//threedot svg end
//chechbox svg start
<g transform="translate(0 840)">
<path d="M2.79,60.18a4.06,4.06,0,0,1,0-5.88l5.88-5.88a4.06,4.06,0,0,1,5.88,0l.42.42L38.08,73.63a2,2,0,0,0,2.94,0l56.31-58.4h.42a4,4,0,0,1,5.88,0l5.88,5.88a4.06,4.06,0,0,1,0,5.88h0L42.28,96.74a4.06,4.06,0,0,1-5.88,0L3.63,61.44Z" style="fill: #f05050"/>
</g>
//chechbox svg end
//white-chechbox svg start
<g transform="translate(0 960)">
 <path d="M3.27,63.67a4,4,0,0,1,0-5.81l5.81-5.81a4,4,0,0,1,5.82,0l.41.41L38.15,77a2,2,0,0,0,2.9,0L96.69,19.25h.41a4,4,0,0,1,5.82,0l5.81,5.81a4,4,0,0,1,0,5.81h0L42.3,99.79a4,4,0,0,1-5.81,0L4.1,64.92Z" style="fill: #fff"/>
</g>
//white-chechbox svg end
//login-error svg start
<g transform="translate(0 1080)">
    <path d="M56.5,2A53.5,53.5,0,1,0,110,55.5,53.5,53.5,0,0,0,56.5,2Zm0,97.25a43.69,43.69,0,1,1,.12,0Z" style="fill: #f05050"/>
    <rect x="51.63" y="28.75" width="9.75" height="36.5" style="fill: #f05050"/>
    <rect x="51.63" y="72.5" width="9.75" height="9.75" style="fill: #f05050"/>
</g>
//login-error svg end
//left-arrow svg start
<g transform="translate(0 1200)">
<path d="M36.9,19.43a3.8,3.8,0,0,1,5.4,5.34L15,52.11h90.21A3.8,3.8,0,0,1,109,55.88a3.85,3.85,0,0,1-3.83,3.83H15L42.3,87a3.88,3.88,0,0,1,0,5.39,3.78,3.78,0,0,1-5.4,0L3.09,58.58a3.8,3.8,0,0,1,0-5.34Z" style="fill: #1e201d"/>
</g>
//left-arrow svg end
//star-filled svg start
<g transform="translate(0 1320)">
<polygon points="56 5 72.98 38.01 109.62 43.97 83.53 70.3 89.13 107 56 90.32 22.87 107 28.47 70.3 2.38 43.97 39.02 38.01 56 5" style="fill: #ffbb58"/>
</g>
//star-filled svg end
//star-half-filled svg start
<g transform="translate(0 1440)">
  <defs>
    <clipPath id="clip-path">
      <polygon points="56.19 4 73.42 37.51 110.63 43.56 84.13 70.3 89.82 107.56 56.19 90.62 22.55 107.56 28.24 70.3 1.74 43.56 38.95 37.51 56.19 4" style="fill: none"/>
    </clipPath>
  </defs>
      <polygon points="56.19 4 73.42 37.51 110.63 43.56 84.13 70.3 89.82 107.56 56.19 90.62 22.55 107.56 28.24 70.3 1.74 43.56 38.95 37.51 56.19 4" style="fill: #e8ecf1"/>
    <g style="clip-path: url(#clip-path)">
      <path d="M56.49-41.67V135.2h-75.8V-41.67Z" style="fill: #ffbb58"/>
    </g>
</g>
//star-half-filled svg end

// facebook-white svg start
<g transform="translate(0 1560)">
  <path d="M-.27,0V112H59.38V68.74H44.8V51.08H59.38V36.24A19.53,19.53,0,0,1,78.91,16.71H94.15V32.59H83.24A6.21,6.21,0,0,0,77,38.8V51.08H93.88L91.55,68.74H77V112h34.69V0Z" style="fill: #fff"/>
</g>
// facebook-white svg end
// img-atachment svg start
<g transform="translate(0 1680)">
  <path id="_6" data-name=" 6" d="M96.63,110H16.38A13.38,13.38,0,0,1,3,96.63V16.38A13.38,13.38,0,0,1,16.38,3H96.63A13.38,13.38,0,0,1,110,16.38V96.63A13.38,13.38,0,0,1,96.63,110Zm0-6.66a6.77,6.77,0,0,0,6.71-6.71V69.88L83.25,49.78,54.72,78.38l24.61,25ZM9.72,96.63a6.71,6.71,0,0,0,6.66,6.71h53.5L36.23,69.7,9.72,93.47Zm93.62-80.25a6.71,6.71,0,0,0-6.71-6.66H16.38a6.66,6.66,0,0,0-6.66,6.66v68L36.47,59.83,50,73.62,83.25,39.8l20.09,20.45ZM29.75,43.13A13.38,13.38,0,1,1,43.12,29.75,13.37,13.37,0,0,1,29.75,43.13Zm0-20a6.66,6.66,0,1,0,6.72,6.66A6.66,6.66,0,0,0,29.75,23.09Z" style="fill: #2c2e2f"/>
</g>
// img-atachment svg end
// gray-tik svg start
<g transform="translate(0 1800)">
  <path d="M10.5,50.59,47.34,72.31s51-55.73,55.72-59.5,10.39.94,6.61,5.66l-59.5,85c-1,.94-1.89,1.89-3.78,0L2,61Z" style="fill: #8c8c8c"/>
</g>
// gray-tik svg end
// mobile-icon svg start
<g transform="translate(0 1920)">
  <path d="M74.9,1H37.57A11.73,11.73,0,0,0,25.83,12.52V100A11.62,11.62,0,0,0,37.45,111.5l37.39,0A11.54,11.54,0,0,0,86.38,100l.06-87.44A11.53,11.53,0,0,0,74.9,1ZM50.84,7.91H61.67a1.73,1.73,0,1,1,0,3.45H50.84a1.73,1.73,0,1,1,0-3.45Zm-6.51.55a1.78,1.78,0,0,1,2.44,0,1.71,1.71,0,0,1,0,2.44,1.71,1.71,0,0,1-1.21.51,1.78,1.78,0,0,1-1.23-.51,1.74,1.74,0,0,1-.5-1.22A1.72,1.72,0,0,1,44.33,8.46Zm11.58,99.62a5.17,5.17,0,1,1,5.16-5.17A5.18,5.18,0,0,1,55.91,108.08ZM81.08,94.23H31.87V17.4H81.08V94.23Z"/>
</g>
// mobile-icon svg end

  // star-white svg start
<g transform="translate(0 2160)">
   <path d="M24.71,106.48a3.07,3.07,0,0,1-1.27-.42,2.39,2.39,0,0,1-.85-2.34l9.34-34.78-28-22.7a2,2,0,0,1-.85-2.33A2,2,0,0,1,5,42.43l36.06-1.91L54,6.79a2.82,2.82,0,0,1,2.13-1.27A2.13,2.13,0,0,1,58,6.79L71,40.52,107,42.43a2,2,0,0,1,1.91,1.48,2.38,2.38,0,0,1-.64,2.33l-28,22.7,9.33,34.78a2.13,2.13,0,0,1-.85,2.34,1.92,1.92,0,0,1-2.33,0L56.11,86.54,25.77,106.06a1.16,1.16,0,0,1-1.06.42Z" style="fill: #fff"/>
</g>
// star-white svg end  
  // globe-icon svg start
<g transform="translate(0 2280)">
    <path d="M110.12,49a51.12,51.12,0,0,0-9.86-25.14,53.61,53.61,0,0,0-35.43-22A49.69,49.69,0,0,0,55.76,1h-.43c-2.8.3-5.6.49-8.34.91a54.8,54.8,0,0,0-45.66,60A53.46,53.46,0,0,0,18.74,96.46a53.1,53.1,0,0,0,42.62,14.19,52,52,0,0,0,32.32-15,53.63,53.63,0,0,0,16.44-46.39ZM98.37,77.1a43,43,0,0,1-3.89-8.64c-1.16-4.2-3.84,0-4.08,2.55s-2.07,4.81-5.73.73-4.32-3.22-5.41-3.22S76,71.26,76.52,84c.3,9.13,3.89,10.59,6.08,11.2A48,48,0,0,1,67.93,102a47.06,47.06,0,0,1-48.7-74.58c0,2.07.55,3.9.73,6.09a46,46,0,0,1-.73,14.67,7.31,7.31,0,0,0,0,3.29,2.06,2.06,0,0,0,1.58,1.34,2.13,2.13,0,0,0,1.46-1.28,13,13,0,0,0,.49-3.16V45.69a12.29,12.29,0,0,1,1.76,1.46c1.22,1.22,2.44,2.37,3.54,3.65A3.71,3.71,0,0,1,29,52.87a6,6,0,0,0,1.4,3.65,21.87,21.87,0,0,1,1.89,4.39,11.88,11.88,0,0,0,.54,1.94,3.55,3.55,0,0,0,3.05,2.26c1.64,0,2.25.73,2.49,2.43l-.85.43a2.61,2.61,0,0,0-2.92,3.1,14,14,0,0,0,4.57,10.29l2.49,2.32a5.7,5.7,0,0,1,1.58,6.39A18.16,18.16,0,0,0,42,93.6a9.92,9.92,0,0,0,0,3.84c0,1.27,0,4,1.46,3.83,2.31-.43,3.65,0,3.83-2.56a2,2,0,0,0,0-1,16.07,16.07,0,0,1,4.33-10.59,41.69,41.69,0,0,0,4.62-3.41,6.07,6.07,0,0,0,2.13-6.94,5.55,5.55,0,0,1,2-6.09,7.76,7.76,0,0,0,2.92-6.09c0-2.56-1.82-4.44-4-4.2a14.69,14.69,0,0,0-3.17,1,47.55,47.55,0,0,1-4.69,1.53c-2.25.42-3.59-1-4.56-2.8s-1.1-1.53-2.5-.67S42,61,40.78,61.64s-2,.42-2.92-.61a9.62,9.62,0,0,0-2.13-1.52,12.55,12.55,0,0,1-1.65-.8c-.55-.54-1.34-1.4-1.28-2a2.82,2.82,0,0,1,1.59-1.83,20.58,20.58,0,0,1,4-.91,13.14,13.14,0,0,0,2.07-.55c.92-.37.86-1,0-1.52l-1.21-.61-6.09-2.38L31.4,47.7c-1.21-.86-1.4-1.77,0-2.74a9.19,9.19,0,0,1,12.92-1.52A8.69,8.69,0,0,1,45.83,45c1.4,1.64,2.38,3.65,3.78,5.35A20.73,20.73,0,0,0,53.26,54a2.63,2.63,0,0,0,2.44,0c1-.49,1-1.65.48-2.62A10.06,10.06,0,0,0,54.72,49a8.82,8.82,0,0,1,2-12.33c.25-.18.52-.35.79-.51A7.48,7.48,0,0,0,61.84,32l-2.43.67c-3.9,1.22-1.16-1.71.61-2.25s-1-1.16-1-1.16a26.18,26.18,0,0,0,2.86-1.1,12,12,0,0,0,2.93-1.58,6,6,0,0,0,1.09-2h0l-3.1.43c-1.77,0-2.19,0-2.38-1.95a1.64,1.64,0,0,0-1.76-1.52,1.58,1.58,0,0,0-.73.24c-.79.43-1.46,1-2.19,1.52C54,24.44,52.71,24,52,22s-1.28-1.64-2.31-1-1,.79-1.52,1.1a28.8,28.8,0,0,1-2.74,1.33c-1,0-2.07.55-2.74-.48a2.19,2.19,0,0,1,.91-2.86,26.32,26.32,0,0,1,3.53-2.2c1.71-1,3.53-1.76,5.18-2.8a3.1,3.1,0,0,0,1.34-3.53c-.31-1.28-1.16-1.7-2.32-1.09a26.56,26.56,0,0,1-2.8,1.58,4.19,4.19,0,0,1-2.43,0,4.9,4.9,0,0,1-.61-1.28c-.06-.42.54-.73.91-.79l7.18-1a1.44,1.44,0,0,1,1,.42,11.71,11.71,0,0,0,6.09,3.66c2,.6,2.25.3,2.55-1.71,2.5-.61,5.06-1.76,7.61,0a20.83,20.83,0,0,1,3.84,3.17c.3,0,0,1.21,0,1.76a11.94,11.94,0,0,1-.85,2.25,2.06,2.06,0,0,0,1.35,2.6,2.17,2.17,0,0,0,.84.08h1.46c1.46,0,1.95.49,1.83,1.95s0,2.31,2.19,2a4.51,4.51,0,0,1,2,.36,5,5,0,0,1,.91.74c2,1.46,3.41.91,4-1.47a5.21,5.21,0,0,0,0-.79c0-1.09.85-1.4,1.58-.61s3,3.35,4.51,5.12a5.14,5.14,0,0,0-1.34,5.23,8.9,8.9,0,0,1-.92,5.6A33.46,33.46,0,0,0,90,44.59c-.79,2.68,0,3.9,2.86,4.51s3,1.09,3.11,3.65a8.35,8.35,0,0,0,5,7.43l2.07.85A41.54,41.54,0,0,1,98.37,77.1Z" style="fill: #8c8c8c"/>
</g>
// globe-icon svg end  
// tagcross svg start
<g transform="translate(0 2400)">
   <path d="M64.61,55.5,105.12,15A6.44,6.44,0,0,0,96,5.89L55.5,46.39,15,5.89A6.44,6.44,0,0,0,5.89,15l40.5,40.5L5.89,96a6.44,6.44,0,1,0,9.11,9.1l40.5-40.5L96,105.11A6.44,6.44,0,0,0,105.12,96Z"/>
</g>
// tagcross svg end  
// share svg start
<g transform="translate(0 2520)">
    <path d="M107.26,44.62l-39-42.49a4,4,0,0,0-5.58,0,4,4,0,0,0-1.09,3.22v22.7A58.51,58.51,0,0,0,7.9,110,54.63,54.63,0,0,1,61.5,67.08V90a4,4,0,0,0,1.09,3.22h0a3.7,3.7,0,0,0,5.23.1l.11-.1a1.33,1.33,0,0,0,.42-.43l38.91-42.31A4.48,4.48,0,0,0,107.26,44.62ZM69.45,80.32v-21H57.61a71.86,71.86,0,0,0-46.8,23.37c0-14.62,19.24-46,46.8-46.86H69.39v-21L99.25,47.6Z" style="fill: #8c8c8c"/>
</g>
// share svg end  
// whiteenrollments svg start
<g transform="translate(0 2640)">
   <path d="M56.75,27.76h-.88L6.66,47.2a3.49,3.49,0,0,0-2.23,3.38V79.2A5.88,5.88,0,0,0,2,83.93a6,6,0,1,0,12,0,5.88,5.88,0,0,0-2.43-4.73V55.84l12,4.66V77a8.54,8.54,0,0,0,3.78,6.76,25.75,25.75,0,0,0,7.5,3.57,75.66,75.66,0,0,0,22.34,3,75.31,75.31,0,0,0,22.28-3A25.7,25.7,0,0,0,87,83.73,8.51,8.51,0,0,0,90.77,77V60.5l17-6.75a3.59,3.59,0,0,0,2-4.63l0,0a3.36,3.36,0,0,0-2-2L58.5,28A3.86,3.86,0,0,0,56.75,27.76Zm.47,7.49L96.51,50.58,57.22,65.7,17.93,50.58ZM30.82,63.34,56,73.13a3.62,3.62,0,0,0,2.63,0l25.11-9.79v13.5a4.41,4.41,0,0,1-.94.94,18.37,18.37,0,0,1-5.4,2.43,67.42,67.42,0,0,1-20.26,2.71A68,68,0,0,1,36.9,80.21a17.75,17.75,0,0,1-5.33-2.43c-.75-.54-.95-.81-.95-.87Z" style="fill: #fff"/>
</g>
// whiteenrollments svg end
  //googleicon svg start
<g transform="translate(0 2760)">
    <path d="M26.49,66.06,22.8,79.83l-13.48.29a53.06,53.06,0,0,1-.39-49.49h0l12,2.2,5.25,11.93a31.63,31.63,0,0,0,.3,21.3Z" style="fill: #fbbb00"/>
    <path d="M108.07,45.1A53,53,0,0,1,89.18,96.33h0l-15.12-.77L71.91,82.2a31.69,31.69,0,0,0,13.6-16.13H57.17v-21h50.9Z" style="fill: #518ef8"/>
    <path d="M89.18,96.33h0A53,53,0,0,1,9.32,80.12L26.49,66.06A31.52,31.52,0,0,0,71.91,82.2Z" style="fill: #28b446"/>
    <path d="M89.83,14.2,72.66,28.26a31.51,31.51,0,0,0-46.47,16.5L8.93,30.63h0A53,53,0,0,1,89.83,14.2Z" style="fill: #f14336"/>
</g>
//googleicon svg end
  //public-info svg start
<g transform="translate(0 2880)">
   <path d="M57,2.5a53,53,0,1,0,53,53A53,53,0,0,0,57,2.5Zm0,96.34A43.34,43.34,0,1,1,100.34,55.5,43.33,43.33,0,0,1,57,98.84Z" style="fill: #fff"/>
    <path d="M57,25a6.42,6.42,0,1,0,6.42,6.41A6.41,6.41,0,0,0,57,25Z" style="fill: #fff"/>
    <path d="M57,47.49a4.83,4.83,0,0,0-4.83,4.77V81.18a4.83,4.83,0,0,0,9.66,0h0V52.26A4.83,4.83,0,0,0,57,47.49Z" style="fill: #fff"/>
</g>
//public-info svg end
</svg>