<svg xmlns="http://www.w3.org/2000/svg" viewBox="0 0 15 18"><defs><style>.cls-1{fill:#f05050;}</style></defs><title>about</title><g id="Layer_118" data-name="Layer 118"><path class="cls-1" d="M10,4.25A2.13,2.13,0,1,1,7.88,6.38,2.13,2.13,0,0,1,10,4.25m0-1a3.13,3.13,0,1,0,3.13,3.13A3.12,3.12,0,0,0,10,3.25Z" transform="translate(-2.5 -1)"/><path class="cls-1" d="M2.5,1V19h15V1ZM16.31,2V13.23a8.86,8.86,0,0,0-6.49-2.74,8.47,8.47,0,0,0-6.13,2.69V2ZM3.69,18V15.05a0,0,0,0,1,0,0,7.22,7.22,0,0,1,6.14-3.48,7.61,7.61,0,0,1,6.47,3.49h0V18Z" transform="translate(-2.5 -1)"/></g></svg>