<svg id="Layer_1" data-name="Layer 1" xmlns="http://www.w3.org/2000/svg" viewBox="0 0 17 14.47"><title>FOLLOWED_PAGE-01-01</title><path d="M17.71,11.92a.34.34,0,0,0,0-.1l-.09-.23s0,0,0,0L15.38,5.71h0a.27.27,0,0,0,0-.12A2.42,2.42,0,0,0,14,4.18a0,0,0,0,0,0,0l-.34-.9v0a.39.39,0,0,0-.08-.1,1.26,1.26,0,0,0-2.4.51V4.72a.28.28,0,0,0,0,.13,2.49,2.49,0,0,0-.59,1.56v0h0v.7H8.4V6.55a.36.36,0,0,0,0-.1,2.47,2.47,0,0,0-.6-1.57.31.31,0,0,0,.06-.16V3.63a.23.23,0,0,0,0-.11A1.25,1.25,0,0,0,5.43,3.2h0a.09.09,0,0,0,0,.06l-.34.9h0s0,0,0,0A2.4,2.4,0,0,0,3.68,5.63h0a.16.16,0,0,0-.06.08l-2.2,5.81,0,.15-.07.16h0a.17.17,0,0,0,0,.07A3.75,3.75,0,0,0,1.11,13,3.65,3.65,0,0,0,8.4,13V10.27h2.2V13a3.65,3.65,0,0,0,7.29,0A3.74,3.74,0,0,0,17.71,11.92Zm-5.55-9a.75.75,0,0,1,1,.45v0a.15.15,0,0,0,.06.09l.2.53-.33,0a2.42,2.42,0,0,0-1.4.44V3.63A.75.75,0,0,1,12.16,2.92Zm-6.29.53v0a.13.13,0,0,0,0-.06.76.76,0,0,1,1.47.26v.84a2.81,2.81,0,0,0-.57-.3,2.36,2.36,0,0,0-1.17-.11ZM4.75,16.11A3.13,3.13,0,1,1,7.89,13,3.13,3.13,0,0,1,4.75,16.11Zm0-6.77a3.56,3.56,0,0,0-2.27.82L4.1,5.9a.22.22,0,0,0,0-.11s0,0,0,0a1.94,1.94,0,0,1,3.76.66v0h0v4.71A3.65,3.65,0,0,0,4.75,9.34Zm3.65.43V7.65h2.2V9.77Zm2.71.26V6.44h0a.17.17,0,0,0,0-.07,1.93,1.93,0,0,1,3.75-.57h0a.26.26,0,0,0,.05.09h0l1.62,4.26a3.56,3.56,0,0,0-2.27-.82,3.65,3.65,0,0,0-3.14,1.81Zm3.15,6.08a3.13,3.13,0,1,1,0-6.26h0a3.13,3.13,0,0,1,2.87,1.88l0,.11a3.12,3.12,0,0,1-2.9,4.27Z" transform="translate(-1 -2.27)" style="stroke:#f05050;stroke-miterlimit:10;stroke-width:0.22695658197715218px;fill:#fff;"/></svg>
