<svg xmlns="http://www.w3.org/2000/svg" viewBox="0 0 19 19"><title>interest feeds</title><path id="_3" data-name=" 3" d="M9.5,18.5a9,9,0,1,1,9-9A9,9,0,0,1,9.5,18.5ZM16,13.9a7.67,7.67,0,0,0,1.33-3.84h-4.5a22,22,0,0,1-.28,3A20.32,20.32,0,0,1,16,13.9ZM7.28,10.06A18.75,18.75,0,0,0,7.57,13c.63-.05,1.27-.08,1.93-.08s1.3,0,1.93.08a18.75,18.75,0,0,0,.29-2.9Zm4.44-1.12A18.75,18.75,0,0,0,11.43,6c-.63,0-1.27.09-1.93.09S8.2,6.09,7.57,6a18.75,18.75,0,0,0-.29,2.9Zm3.53,5.93a20.62,20.62,0,0,0-2.9-.66,17.67,17.67,0,0,1-.92,2.92,7.91,7.91,0,0,0,3.82-2.26ZM9,17.35l.55,0,.55,0a17.1,17.1,0,0,0,1.15-3.29c-.56,0-1.13-.07-1.7-.07s-1.14,0-1.7.07A17.1,17.1,0,0,0,9,17.35Zm-1.38-.22a18.67,18.67,0,0,1-.92-2.92,20.62,20.62,0,0,0-2.9.66A7.91,7.91,0,0,0,7.57,17.13Zm-1.14-4a22,22,0,0,1-.28-3H1.65A7.67,7.67,0,0,0,3,13.9,20.32,20.32,0,0,1,6.43,13.1ZM3,5.1A7.67,7.67,0,0,0,1.65,8.94h4.5a22,22,0,0,1,.28-3A20.32,20.32,0,0,1,3,5.1Zm.77-1a20.62,20.62,0,0,0,2.9.66,18.67,18.67,0,0,1,.92-2.92A7.91,7.91,0,0,0,3.75,4.13Zm6.3-2.48-.55,0L9,1.65A17.1,17.1,0,0,0,7.8,4.94C8.36,5,8.93,5,9.5,5s1.14,0,1.7-.07A17.1,17.1,0,0,0,10.05,1.65Zm1.38.22a18.67,18.67,0,0,1,.92,2.92,20.62,20.62,0,0,0,2.9-.66A7.91,7.91,0,0,0,11.43,1.87Zm1.14,4a22,22,0,0,1,.28,3h4.5A7.67,7.67,0,0,0,16,5.1a20.32,20.32,0,0,1-3.45.8Z" style="fill:#f05050;"/></svg>