<svg id="Layer_46" data-name="Layer 46" xmlns="http://www.w3.org/2000/svg" viewBox="0 0 18 17.2"><title>interest</title><path d="M10.27,1.45a.65.65,0,0,0-.83.31L7,6.69l-5.44.78A.63.63,0,0,0,1,8.19a.65.65,0,0,0,.18.37l3.93,3.85-.94,5.42a.64.64,0,0,0,.52.74.71.71,0,0,0,.41-.06L10,16l4.87,2.57a.64.64,0,0,0,.86-.27.65.65,0,0,0,.07-.41l-.92-5.42,3.95-3.84a.63.63,0,0,0,0-.9.66.66,0,0,0-.37-.19L13,6.7,10.59,1.76a.64.64,0,0,0-.32-.31Zm-.26,2,2,4.07a.64.64,0,0,0,.48.36L17,8.58l-3.26,3.16a.64.64,0,0,0-.18.57l.75,4.47-4-2.12a.68.68,0,0,0-.59,0l-4,2.11.77-4.48a.62.62,0,0,0-.18-.56L3,8.55l4.49-.64A.63.63,0,0,0,8,7.56Z" transform="translate(-1 -1.4)" style="fill:#f05050;fill-opacity:0.8"/></svg>