<svg id="Layer_5" data-name="Layer 5" xmlns="http://www.w3.org/2000/svg" viewBox="0 0 19 19"><title>interest</title><path d="M11.68,6.94,9.49,2.53,7.32,7A.51.51,0,0,1,7,7.23L2.08,8l3.53,3.43a.48.48,0,0,1,.14.44l-.81,4.86,4.35-2.31a.53.53,0,0,1,.46,0l4.37,2.28-.85-4.85a.51.51,0,0,1,.14-.44l3.52-3.45-4.87-.69A.54.54,0,0,1,11.68,6.94Z" style="fill:none"/><path d="M18.48,7.4a.51.51,0,0,0-.41-.34l-5.61-.8L9.93,1.18A.49.49,0,0,0,9.48.91.47.47,0,0,0,9,1.19L6.54,6.28.93,7.12a.51.51,0,0,0-.41.34A.53.53,0,0,0,.65,8l4.08,4-.94,5.59a.49.49,0,0,0,.49.58A.46.46,0,0,0,4.51,18l5-2.65,5,2.62a.49.49,0,0,0,.23.06.51.51,0,0,0,.5-.5.2.2,0,0,0,0-.11l-1-5.56,4.05-4A.51.51,0,0,0,18.48,7.4Zm-5.07,4a.51.51,0,0,0-.14.44l.85,4.85L9.75,14.37a.53.53,0,0,0-.46,0L4.94,16.68l.81-4.86a.48.48,0,0,0-.14-.44L2.08,8,7,7.23A.51.51,0,0,0,7.32,7L9.49,2.53l2.19,4.41a.54.54,0,0,0,.38.28l4.87.69Z" style="fill:#f05050;"/></svg>