<svg xmlns="http://www.w3.org/2000/svg" viewBox="0 0 17 17"><title>reviewstar</title><g id="Layer_91" data-name="Layer 91"><path d="M9.5,2.063A7.437,7.437,0,1,1,6.286,16.209l-.317-.152-.346.067L2.2,16.791l.655-3.468.064-.339-.148-.312A7.441,7.441,0,0,1,9.5,2.063M9.5,1A8.5,8.5,0,0,0,1.811,13.126l-.742,3.931c-.185.684.049.922.461.922a1.546,1.546,0,0,0,.317-.037l3.979-.775A8.5,8.5,0,1,0,9.5,1Z" transform="translate(-1 -1)"/><path d="M9.5,7.351,9.99,8.4l.227.483.528.081,1.179.179-.885.906-.353.362.081.5.2,1.225-.984-.543L9.5,11.319l-.483.267-.984.543.2-1.225.081-.5-.353-.362-.885-.906,1.179-.179.528-.081L9.01,8.4,9.5,7.351M9.5,5,8.1,7.97,5,8.444l2.246,2.3L6.714,14,9.5,12.462,12.286,14l-.532-3.257L14,8.444,10.9,7.97,9.5,5Z" transform="translate(-1 -1)"/></g></svg>