<svg id="Layer_66" data-name="Layer 66" xmlns="http://www.w3.org/2000/svg" viewBox="0 0 18 18"><defs><style>.cls-1{fill:#fff;}</style></defs><title>validity</title><path class="cls-1" d="M10,2.62A7.38,7.38,0,1,1,2.62,10,7.39,7.39,0,0,1,10,2.62M10,1a8.93,8.93,0,0,0-3.5.7A8.81,8.81,0,0,0,3.65,3.63,9,9,0,0,0,1.7,13.49a8.81,8.81,0,0,0,1.93,2.86,9,9,0,0,0,9.86,1.95,8.81,8.81,0,0,0,2.86-1.93A9,9,0,0,0,18.3,6.51a8.81,8.81,0,0,0-1.93-2.86A8.89,8.89,0,0,0,10,1Z" transform="translate(-1 -1)"/><path class="cls-1" d="M14.06,9.47H10.54V5.94a.82.82,0,0,0-1.63,0v4.33a.81.81,0,0,0,.81.81h4.33a.82.82,0,0,0,.81-.81A.81.81,0,0,0,14.06,9.47Z" transform="translate(-1 -1)"/></svg>