<svg id="Layer_58" data-name="Layer 58" xmlns="http://www.w3.org/2000/svg" viewBox="0 0 18 18">
	<title>clocker</title>
	<g id="Ecommerce">
		<path id="_Compound_Path_" data-name="&lt;Compound Path&gt;" d="M10,1a9,9,0,1,0,9,9A9,9,0,0,0,10,1ZM5.05,15A7,7,0,1,1,15,15,7,7,0,0,1,5.05,15Zm6.11-3.79a1.64,1.64,0,0,1-2.32,0,1.66,1.66,0,0,1-.42-1.58l-1-1A.4.4,0,0,1,7.4,8L8,7.42a.45.45,0,0,1,.6,0l1,1a1,1,0,0,1,.86,0l2.16-2.16a.42.42,0,0,1,.59,0l.57.57a.43.43,0,0,1,0,.6L11.58,9.58A1.82,1.82,0,0,1,11.16,11.16Z" transform="translate(-1 -1)" style="fill:#2c2e2f;fill-opacity:0.8;"/></g></svg>