<svg id="Layer_1" data-name="Layer 1" xmlns="http://www.w3.org/2000/svg" viewBox="0 0 110.47 110.47">
  <title>article icon</title>
  <g id="Group_3" data-name="Group 3" style="opacity: 0.6000000238418579">
    <path id="Path_9" data-name="Path 9" d="M107.59,14.71A15.5,15.5,0,0,0,91.41,0H19.06A15.5,15.5,0,0,0,2.88,14.71V95.76a15.5,15.5,0,0,0,16.18,14.69H91.4a15.49,15.49,0,0,0,16.18-14.69Zm-10,81.05a5.88,5.88,0,0,1-6.15,5.58H19.06a5.9,5.9,0,0,1-6.15-5.58V14.71a5.9,5.9,0,0,1,6.15-5.58H91.4a5.89,5.89,0,0,1,6.15,5.58Z" style="fill: #383838"/>
    <path id="Path_10" data-name="Path 10" d="M81.55,75.76H28.93a5.27,5.27,0,0,0,0,10.48H81.55a5.27,5.27,0,0,0,0-10.48Z" style="fill: #383838"/>
    <path id="Path_11" data-name="Path 11" d="M81.55,52.2H28.93a5.27,5.27,0,0,0,0,10.48H81.55a5.27,5.27,0,0,0,0-10.48Z" style="fill: #383838"/>
    <path id="Path_12" data-name="Path 12" d="M28.05,39.11H51.14a5.27,5.27,0,0,0,0-10.48H28.05a5.27,5.27,0,0,0,0,10.48Z" style="fill: #383838"/>
  </g>
</svg>
