<svg xmlns="http://www.w3.org/2000/svg" width="18" height="16.873" viewBox="0 0 18 16.873">
    <defs>
        <style>
            .cls-1{fill:#fff}
        </style>
    </defs>
    <g id="insert-picture-icon" transform="translate(0 -9.35)">
        <path id="Path_1" d="M15.965 9.35H2.036A2.038 2.038 0 0 0 0 11.387v12.8a2.037 2.037 0 0 0 2.036 2.035h13.929A2.036 2.036 0 0 0 18 24.189v-12.8a2.037 2.037 0 0 0-2.035-2.039zm-4.325 3.029a1.966 1.966 0 1 1-1.966 1.966 1.967 1.967 0 0 1 1.966-1.966zm3.687 11.962H2.955a.556.556 0 0 1-.54-.878l3.374-6.683a.568.568 0 0 1 1.041-.1l3.393 4.435a.832.832 0 0 0 1.289.082l.83-.841a.79.79 0 0 1 1.255.106l2.15 3.071c.31.448.123.808-.42.808z" class="cls-1" data-name="Path 1"/>
    </g>
</svg>
