<svg xmlns="http://www.w3.org/2000/svg" width="18" height="17.27" viewBox="0 0 18 17.27">
    <defs>
        <style>
            .cls-1{fill:#fff}
        </style>
    </defs>
    <g id="noun_Video_1273798_1_" data-name="noun_Video_1273798 (1)" transform="translate(-13.351 -14.837)">
        <g id="Group_1" data-name="Group 1" transform="translate(13.351 14.837)">
            <path id="Path_2" d="M13.351 34.122V44.1a1.168 1.168 0 0 0 1.268 1.027h15.464a1.168 1.168 0 0 0 1.268-1.027V33.134h-18zm1.563-.155h14.873v9.691H14.914z" class="cls-1" data-name="Path 2" transform="translate(-13.351 -27.855)"/>
            <path id="Path_3" d="M30.083 14.837H14.619a1.394 1.394 0 0 0-1.268 1.489v3.393h18v-3.393a1.394 1.394 0 0 0-1.268-1.489zm-13.24 3.839l-1.35-2.747h2.258l1.35 2.747zm4.69 0l-1.35-2.747h2.258l1.35 2.747zm4.69 0l-1.35-2.747h2.258l1.35 2.747z" class="cls-1" data-name="Path 3" transform="translate(-13.351 -14.837)"/>
            <path id="Path_4" d="M40.61 45.893v7.4l3.2-1.85 3.2-1.85-3.2-1.85z" class="cls-1" data-name="Path 4" transform="translate(-34.425 -39.032)"/>
        </g>
    </g>
</svg>
