<svg id="Layer_59" data-name="Layer 59" xmlns="http://www.w3.org/2000/svg" viewBox="0 0 18 12.39"><title>connection new</title><path d="M7.2,3.8A3.2,3.2,0,0,0,5.41,9.66a6.31,6.31,0,0,0-2.59,1.47A5.87,5.87,0,0,0,1,15.33H1a2.62,2.62,0,0,0,0,.28.6.6,0,0,0,.6.58H14.8a.61.61,0,0,0,.61-.59.6.6,0,0,0-.59-.61H13.36a5.94,5.94,0,0,0-.93-2.83A3.93,3.93,0,0,1,14,11.8a4,4,0,0,1,2.7,1.06,3.59,3.59,0,0,1,1.1,2.54v.17a.6.6,0,0,0,.57.63.62.62,0,0,0,.63-.58V15.4h0A4.71,4.71,0,0,0,17.52,12a5,5,0,0,0-1.93-1.14,2.6,2.6,0,1,0-3.15,0,7,7,0,0,0-.79.34l-.08-.08A6.25,6.25,0,0,0,9,9.66,3.2,3.2,0,0,0,7.2,3.8ZM7.2,5a2,2,0,1,1-2,2A2,2,0,0,1,7.2,5ZM14,7.4a1.4,1.4,0,1,1-1.4,1.4A1.39,1.39,0,0,1,14,7.4ZM7.2,10.6A5.23,5.23,0,0,1,10.75,12a4.7,4.7,0,0,1,1.41,3H2.24a4.66,4.66,0,0,1,1.42-3A5.18,5.18,0,0,1,7.2,10.6ZM16.6,15a.6.6,0,1,0,.6.6A.6.6,0,0,0,16.6,15Z" transform="translate(-1 -3.8)" style="fill:#2c2e2f;fill-opacity:0.8;"/></svg>