<svg id="Layer_3" data-name="Layer 3" xmlns="http://www.w3.org/2000/svg" xmlns:xlink="http://www.w3.org/1999/xlink" viewBox="0 0 14.86 17.64"><defs><clipPath id="clip-path" transform="translate(-2.5 -1.11)"><rect x="2.5" y="1.11" width="15" height="17.79" style="fill:none"/></clipPath></defs><title>QUESTION</title><g style="clip-path:url(#clip-path)"><path d="M5.36,18.74a2.7,2.7,0,0,0,2.44-2v0c.52-2.17,1.35-5.61,2-8.12H12A.75.75,0,1,0,12,7H10.16c.2-.79.34-1.35.4-1.55l.06-.21c.24-.8.78-2.67,1.63-2.67s.9,1.21.91,1.27a.74.74,0,0,0,.8.69.75.75,0,0,0,.7-.81c-.07-.92-.67-2.65-2.41-2.65-2,0-2.72,2.53-3.07,3.75l-.07.2C9,5.3,8.85,6,8.6,7H6a.75.75,0,1,0,0,1.5H8.23c-.77,3.14-1.77,7.28-1.88,7.74,0,.12-.35,1-1,1-1,0-1.38-1.36-1.38-1.37A.75.75,0,0,0,3,15.36a.74.74,0,0,0-.51.93,3.18,3.18,0,0,0,2.83,2.45Zm0,0" transform="translate(-2.5 -1.11)" style="fill:#8c8c8c;fill-opacity:.6;"/></g>
<path d="M16.54,16.8a.79.79,0,0,0,.82-.82,1,1,0,0,0-.29-.67l-1.57-1.8L17,11.73a.94.94,0,0,0,.25-.61.79.79,0,0,0-.83-.77,1,1,0,0,0-.77.46l-1.18,1.54-1.16-1.54a1,1,0,0,0-.83-.46.8.8,0,0,0-.82.82,1.09,1.09,0,0,0,.29.68l1.47,1.68-1.61,1.89a.9.9,0,0,0-.24.61.79.79,0,0,0,.83.77,1,1,0,0,0,.77-.45l1.26-1.66,1.26,1.66a1,1,0,0,0,.83.45Zm0,0" transform="translate(-2.5 -1.11)" style="fill:#8c8c8c;fill-opacity:.6;"/></svg>