<svg id="Layer_2" data-name="Layer 2" xmlns="http://www.w3.org/2000/svg" viewBox="0 0 18 18.04">
<title>public</title>
<path d="M18.93,8.89a8.4,8.4,0,0,0-1.62-4.13,8.81,8.81,0,0,0-5.82-3.62C11,1.05,10.51,1,10,1H9.93c-.46.05-.92.08-1.37.15A9,9,0,0,0,1.06,11a8.79,8.79,0,0,0,2.86,5.68,8.72,8.72,0,0,0,7,2.33,8.54,8.54,0,0,0,5.31-2.46,8.81,8.81,0,0,0,2.7-7.62ZM17,13.5a7.06,7.06,0,0,1-.64-1.42c-.19-.69-.63,0-.67.42s-.34.79-.94.12-.71-.53-.89-.53-.53.45-.45,2.54c.05,1.5.64,1.74,1,1.84A7.9,7.9,0,0,1,12,17.59,7.73,7.73,0,0,1,4,5.34c0,.34.09.64.12,1A7.53,7.53,0,0,1,4,8.75a1.23,1.23,0,0,0,0,.54.34.34,0,0,0,.26.22.35.35,0,0,0,.24-.21,2.17,2.17,0,0,0,.08-.52c0-.12,0-.25,0-.44a2,2,0,0,1,.29.24c.2.2.4.39.58.6a.61.61,0,0,1,.15.34,1,1,0,0,0,.23.6,3.56,3.56,0,0,1,.31.72,1.92,1.92,0,0,0,.09.32.58.58,0,0,0,.5.37c.27,0,.37.12.41.4L7,12c-.33,0-.5.18-.48.51a2.31,2.31,0,0,0,.75,1.69l.41.38a.94.94,0,0,1,.26,1.05,3.06,3.06,0,0,0-.2.58,1.66,1.66,0,0,0,0,.63c0,.21,0,.66.24.63.38-.07.6,0,.63-.42a.33.33,0,0,0,0-.17,2.64,2.64,0,0,1,.71-1.74,6.75,6.75,0,0,0,.76-.56,1,1,0,0,0,.35-1.14.91.91,0,0,1,.32-1,1.28,1.28,0,0,0,.48-1c0-.42-.3-.73-.66-.69a2.43,2.43,0,0,0-.52.17,7.66,7.66,0,0,1-.77.25c-.37.07-.59-.17-.75-.46s-.18-.25-.41-.11-.38.25-.58.36-.32.07-.48-.1a1.57,1.57,0,0,0-.35-.25,2.24,2.24,0,0,1-.27-.13c-.09-.09-.22-.23-.21-.33a.46.46,0,0,1,.26-.3,3.42,3.42,0,0,1,.65-.15,2.14,2.14,0,0,0,.34-.09c.15-.06.14-.16,0-.25l-.2-.1-1-.39L6,8.67c-.2-.14-.23-.29,0-.45a1.51,1.51,0,0,1,2.37,0c.23.27.39.6.62.88a3.46,3.46,0,0,0,.6.61.43.43,0,0,0,.4,0c.16-.08.16-.27.08-.43a1.63,1.63,0,0,0-.24-.4,1.45,1.45,0,0,1,.45-2.11A1.23,1.23,0,0,0,11,6.09l-.4.11c-.64.2-.19-.28.1-.37s-.16-.19-.16-.19.23-.07.47-.18a2,2,0,0,0,.48-.26,1,1,0,0,0,.18-.33l0,0-.51.07c-.29,0-.36,0-.39-.32a.27.27,0,0,0-.41-.21c-.13.07-.24.17-.36.25-.29.19-.5.11-.62-.21S9.17,4.18,9,4.29s-.16.13-.25.18a4.66,4.66,0,0,1-.45.22c-.16,0-.34.09-.45-.08A.36.36,0,0,1,8,4.14a4.32,4.32,0,0,1,.58-.36c.28-.16.58-.29.85-.46a.51.51,0,0,0,.22-.58c-.05-.21-.19-.28-.38-.18s-.3.2-.46.26a.68.68,0,0,1-.4,0s-.09-.14-.1-.21.09-.12.15-.13l1.18-.16a.24.24,0,0,1,.16.07,1.92,1.92,0,0,0,1,.6c.33.1.37.05.42-.28.41-.1.83-.29,1.25,0a3.49,3.49,0,0,1,.63.52c.05,0,0,.2,0,.29s-.1.25-.14.37a.34.34,0,0,0,.36.44l.24,0c.24,0,.32.08.3.32s0,.38.36.32a.73.73,0,0,1,.32.06.79.79,0,0,1,.15.12c.32.24.56.15.66-.24a.62.62,0,0,0,0-.13c0-.18.14-.23.26-.1s.49.55.74.84a.85.85,0,0,0-.22.86,1.47,1.47,0,0,1-.15.92,5.35,5.35,0,0,0-.35.86c-.13.44,0,.64.47.74s.5.18.51.6a1.37,1.37,0,0,0,.82,1.22l.34.14A6.83,6.83,0,0,1,17,13.5Zm0,0" transform="translate(-1 -0.98)" style="fill:#8c8c8c;"/></svg>