<svg xmlns="http://www.w3.org/2000/svg" xmlns:xlink="http://www.w3.org/1999/xlink" width="18" height="18" viewBox="0 0 18 18">
  <defs>
    <clipPath id="clip-calendar">
      <rect width="18" height="18"/>
    </clipPath>
  </defs>
  <g id="calendar" clip-path="url(#clip-calendar)">
    <rect width="18" height="18" fill="#fff"/>
    <g id="Multimedia" transform="translate(-206.975 -2116.389)" opacity="0.8">
      <path id="Path_320" data-name="Path 320" d="M231,2120.008a1.086,1.086,0,0,0,.948-1.187v-1.243a.972.972,0,1,0-1.9,0v1.243A1.085,1.085,0,0,0,231,2120.008Z" transform="translate(-10.713)" fill="#2c2e2f"/>
      <path id="Path_321" data-name="Path 321" d="M214.295,2120.008a1.1,1.1,0,0,0,.992-1.187v-1.243a1.008,1.008,0,1,0-1.983,0v1.243A1.1,1.1,0,0,0,214.295,2120.008Z" transform="translate(-2.937)" fill="#2c2e2f"/>
      <g id="Group_213" data-name="Group 213" transform="translate(206.975 2118.416)">
        <path id="Path_322" data-name="Path 322" d="M224.7,2120.417h-2.513v.639a1.9,1.9,0,1,1-3.8,0v-.639h-5.072v.639a1.9,1.9,0,1,1-3.8,0v-.639l-2.536-.031v15.973H223.45l1.267,0Zm-1.249,14.669H208.243v-10.205H223.45Z" transform="translate(-206.975 -2120.385)" fill="#2c2e2f"/>
        <g id="Group_212" data-name="Group 212" transform="translate(3.344 6.408)">
          <rect id="Rectangle_112" data-name="Rectangle 112" width="1.902" height="1.679" transform="translate(3.057)" fill="#2c2e2f"/>
          <rect id="Rectangle_113" data-name="Rectangle 113" width="1.904" height="1.679" transform="translate(6.132)" fill="#2c2e2f"/>
          <rect id="Rectangle_114" data-name="Rectangle 114" width="1.902" height="1.679" transform="translate(9.151)" fill="#2c2e2f"/>
          <rect id="Rectangle_115" data-name="Rectangle 115" width="1.902" height="1.677" transform="translate(3.057 2.788)" fill="#2c2e2f"/>
          <rect id="Rectangle_116" data-name="Rectangle 116" width="1.904" height="1.677" transform="translate(6.132 2.788)" fill="#2c2e2f"/>
          <rect id="Rectangle_117" data-name="Rectangle 117" width="1.902" height="1.677" transform="translate(9.151 2.788)" fill="#2c2e2f"/>
          <rect id="Rectangle_118" data-name="Rectangle 118" width="1.902" height="1.677" transform="translate(3.057 5.631)" fill="#2c2e2f"/>
          <rect id="Rectangle_119" data-name="Rectangle 119" width="1.901" height="1.677" transform="translate(0.001 2.788)" fill="#2c2e2f"/>
          <rect id="Rectangle_120" data-name="Rectangle 120" width="1.901" height="1.677" transform="translate(0.001 5.631)" fill="#2c2e2f"/>
          <rect id="Rectangle_121" data-name="Rectangle 121" width="1.904" height="1.677" transform="translate(6.132 5.631)" fill="#2c2e2f"/>
          <rect id="Rectangle_122" data-name="Rectangle 122" width="1.902" height="1.677" transform="translate(0 0.001)" fill="#2c2e2f"/>
        </g>
      </g>
    </g>
  </g>
</svg>
