<svg xmlns="http://www.w3.org/2000/svg" xmlns:xlink="http://www.w3.org/1999/xlink" viewBox="0 0 500 428.32">
  <defs>
    <clipPath id="clip-path">
      <rect width="468.65" height="428.32" rx="4.75" style="fill: none"/>
    </clipPath>
    <clipPath id="clip-path-2">
      <path d="M392.1,101.23c-27.53,5.41-54.92-16.33-62.89-31.92-15-29.31-50.39-18.4-79.46-19.14C213.1,49.25,179.2,38,145.17,21.24,114.75,6.29,86-8.15,52-12.39,16.13-16.87-21.45-5.5-50.41,17.09c-38.56,30-53.44,79.65-67.1,125.12-15.91,53-35.06,99.12-69,143-33.43,43.28-62.68,92.59-11.8,137,28.63,25,66,34.62,101.94,42.49,85.1,18.65,179.07,50.75,264.86,18.81,26.74-9.95,45.21-31.36,62.6-53.71,30.34-39,44.9-67.47,102.63-92.89,64-28.18,116-65.17,125-121.08a173.22,173.22,0,0,0,2.29-32c0-34.22-15.13-74.74-51.19-82.32A44.87,44.87,0,0,0,392.1,101.23Z" style="fill: none"/>
    </clipPath>
    <clipPath id="clip-path-3">
      <polygon points="325.35 146.09 78.17 146.09 97.56 80.12 344.74 80.12 325.35 146.09" style="fill: none"/>
    </clipPath>
    <linearGradient id="Áåçûìÿííûé_ãðàäèåíò_20" data-name="Áåçûìÿííûé ãðàäèåíò 20" x1="95.68" y1="210.42" x2="166.4" y2="210.42" gradientUnits="userSpaceOnUse">
      <stop offset="0" stop-color="#818181"/>
      <stop offset="1" stop-color="#d7d6d6"/>
    </linearGradient>
    <linearGradient id="Áåçûìÿííûé_ãðàäèåíò_20-2" x1="95.68" y1="210.42" x2="166.4" y2="210.42" xlink:href="#Áåçûìÿííûé_ãðàäèåíò_20"/>
    <linearGradient id="Áåçûìÿííûé_ãðàäèåíò_20-3" x1="184.52" y1="312.17" x2="238.34" y2="312.17" gradientTransform="translate(92.12 -91.65) rotate(2.8)" xlink:href="#Áåçûìÿííûé_ãðàäèåíò_20"/>
    <linearGradient id="Áåçûìÿííûé_ãðàäèåíò_20-4" x1="184.52" y1="324.47" x2="238.34" y2="324.47" gradientTransform="translate(92.12 -91.65) rotate(2.8)" xlink:href="#Áåçûìÿííûé_ãðàäèåíò_20"/>
    <clipPath id="clip-path-4">
      <polygon points="463.27 128.1 452.85 166.37 373.4 167.86 385.18 129.46 385.18 129.46 463.27 128.1" style="fill: none"/>
    </clipPath>
    <clipPath id="clip-path-5">
      <rect x="397.98" y="92.41" width="93.52" height="161.14" transform="translate(648.01 -258.75) rotate(93.96)" style="fill: #94c13d"/>
    </clipPath>
  </defs>
  <title>course girl</title>
  <g style="isolation: isolate">
    <g id="Layer_1" data-name="Layer 1">
      <g>
        <g style="clip-path: url(#clip-path)">
          <path d="M399.32,146.12c-35.21,6.74-45.19.44-61.33-30.3C323.38,88,288.85,98.35,260.5,97.65c-35.74-.88-68.79-11.6-102-27.47C128.87,56,100.85,42.28,67.71,38.25,32.7,34-4,44.8-32.2,66.24-69.8,94.72-84.31,141.86-97.62,185c-15.52,50.32-34.2,94.1-67.27,135.79-32.6,41.09-61.13,87.91-11.51,130,27.92,23.71,64.4,32.87,99.4,40.34,83,17.7,174.63,48.18,258.29,17.86,26.07-9.45,44.08-29.78,61-51,29.58-37,43.78-64.05,100.08-88.19C404.84,343.12,455.55,308,464.29,254.93a161,161,0,0,0,2.23-30.42c0-32.48-14.76-71-49.92-78.14A44.74,44.74,0,0,0,399.32,146.12Z" style="fill: #dfe5ec;opacity: 0.6"/>
          <g style="clip-path: url(#clip-path-2)">
            <g style="opacity: 0.3;mix-blend-mode: multiply">
              <path d="M349.91,311.44c-4.55,15.63-21.59,28.42-37.87,28.42H51c-16.28,0-25.88-12.79-21.33-28.42L80.52,136.6c4.55-15.63,21.59-28.41,37.88-28.41H379.46c16.28,0,25.88,12.78,21.33,28.41Z" style="fill: #b9bbd6"/>
            </g>
          </g>
          <path d="M335.94,247.46c-4.55,15.63-21.6,28.43-37.87,28.43H37c-16.27,0-25.87-12.8-21.32-28.43L66.55,72.63C71.1,57,88.14,44.2,104.42,44.2H365.49c16.28,0,25.88,12.8,21.33,28.43Z" style="fill: #828ac4"/>
          <path d="M324.49,241c-3.61,12.39-17.12,22.53-30,22.53H50.27c-12.91,0-20.52-10.14-16.91-22.53L81.53,75.51C85.14,63.11,98.65,53,111.56,53H355.75c12.91,0,20.52,10.14,16.91,22.54Z" style="fill: #dfe5ec"/>
          <polygon points="344.88 77.32 97.7 77.32 102.95 60.67 350.13 60.67 344.88 77.32" style="fill: #fff"/>
          <g>
            <polygon points="297.06 230.95 244.35 230.95 270.82 150.84 323.53 150.84 297.06 230.95" style="fill: #fff"/>
            <path d="M291.36,223.48l-32.76-.83a4.59,4.59,0,0,1-4.3-5.85h0a4.59,4.59,0,0,1,4.53-3.33l32.76.83a4.59,4.59,0,0,1,4.3,5.85h0A4.6,4.6,0,0,1,291.36,223.48Z" style="fill: #ffd69a"/>
            <polygon points="320.04 160.41 267.33 160.41 270.82 150.84 323.53 150.84 320.04 160.41" style="fill: #ffd177"/>
          </g>
          <g>
            <polygon points="233.41 245.45 102.92 245.45 122.31 191.5 252.81 191.5 233.41 245.45" style="fill: #fff"/>
            <g>
              <path d="M172.52,220.22H119.17a1,1,0,0,1,0-2.07h53.35a1,1,0,0,1,0,2.07Z" style="fill: #dfe5ec"/>
              <path d="M148.58,226.28H117.2a.83.83,0,0,1,0-1.65h31.38a.83.83,0,1,1,0,1.65Z" style="fill: #dfe5ec"/>
              <path d="M214,139.65H182.62a.83.83,0,1,1,0-1.65H214a.83.83,0,1,1,0,1.65Z" style="fill: #dfe5ec"/>
              <path d="M234.71,213.74H122.63a1,1,0,0,1,0-2.06H234.71a1,1,0,0,1,0,2.06Z" style="fill: #dfe5ec"/>
            </g>
            <path d="M131.38,205c-3.07,1.77-6.69,1.22-8.09-1.23s-.05-5.84,3-7.6,6.69-1.22,8.09,1.22S134.46,203.21,131.38,205Z" style="fill: #828ac4;opacity: 0.5"/>
          </g>
          <path d="M207.46,129.91c-7.42,4.26-16.18,2.93-19.57-3s-.11-14.13,7.32-18.39,16.18-2.93,19.56,3S214.88,125.65,207.46,129.91Z" style="fill: #74c1ec;opacity: 0.5"/>
          <path d="M337.38,72.82c-2.14,1.23-4.68.85-5.66-.86s0-4.09,2.12-5.32,4.68-.85,5.66.86S339.53,71.59,337.38,72.82Z" style="fill: #ffd177"/>
          <path d="M325.58,72.82c-2.14,1.23-4.68.85-5.66-.86s0-4.09,2.12-5.32,4.68-.85,5.66.86S327.73,71.59,325.58,72.82Z" style="fill: #f05252;opacity: 0.6"/>
          <g>
            <polygon points="103.98 231.07 51.27 230.57 78.5 150.72 131.21 151.22 103.98 231.07" style="fill: #fff"/>
            <polygon points="127.63 160.75 74.92 160.25 78.5 150.72 131.21 151.22 127.63 160.75" style="fill: #b9bbd6;opacity: 0.6"/>
            <path d="M82.84,171.34c-1.88,1-4.08.7-4.92-.8s0-3.55,1.89-4.6,4.08-.7,4.92.79S84.72,170.29,82.84,171.34Z" style="fill: #828ac4;opacity: 0.5"/>
            <path d="M79.19,183.68c-1.88,1.06-4.08.7-4.92-.79s0-3.56,1.89-4.61,4.08-.7,4.91.79S81.07,182.63,79.19,183.68Z" style="fill: #828ac4;opacity: 0.5"/>
            <path d="M75.54,196c-1.88,1.06-4.08.7-4.92-.79s0-3.56,1.88-4.61,4.08-.7,4.92.79S77.41,195,75.54,196Z" style="fill: #828ac4;opacity: 0.5"/>
          </g>
          <polygon points="254.63 186.93 124.13 186.93 136.46 150.84 266.96 150.84 254.63 186.93" style="fill: #fff"/>
          <g>
            <path d="M291.52,208.45c-10.64,6.1-23.18,4.2-28-4.25S263.33,184,274,177.86s23.19-4.2,28,4.26S302.15,202.35,291.52,208.45Z" style="fill: #828ac4;opacity: 0.2"/>
            <path d="M288.63,203.42c-7.14,4.1-15.56,2.82-18.82-2.86s-.11-13.58,7-17.68,15.56-2.81,18.81,2.86S295.77,199.33,288.63,203.42Z" style="fill: #828ac4;opacity: 0.5"/>
            <path d="M286.1,199c-4.08,2.33-8.88,1.61-10.73-1.62s-.06-7.75,4-10.09,8.87-1.61,10.73,1.62S290.17,196.67,286.1,199Z" style="fill: #fff"/>
          </g>
          <g>
            <g style="clip-path: url(#clip-path-3)">
              <g>
                <rect x="113.03" y="-59.41" width="204.69" height="352.7" transform="translate(98.43 332.32) rotate(-90)" style="fill: #ffd14e"/>
                <path d="M95,190.84l8.42-14.63,1.93,10.14Zm36.55-174-9.35-2.28h-9L120,22.76ZM68.3,14.6h-4L50.81,17.81,51,35.21ZM277.89,47.36l-31.68-9.79,13.08,17.88ZM134.4,45.42l-2.1-17.79-16.36,24.3ZM110.71,28.67,90.83,14.6h-2l-16.62,15Zm60.61,29.22,7.15-18.64L167.2,46.39Zm-48.83,5.72,5,22.55,6.33-14.07Zm59.85,1.64,27.22,5.43,10.31-23.22Zm16.29-40.89,23.75,17.82,20.67-17.63Zm-8.89,2.26L183.51,54l14.24-12.18ZM111,86.66l1.78-11.81L98,87.6Zm55.85,66.9L177,167.51l14.5-6.27ZM318,153.49l-18.3-5.59,7.58,10.3ZM69.18,79.11l6.17-17.25-26,14.81ZM143,205.65,169.53,174l-26.83,6.43Zm145.11-54.52L269,148.65l-6.06,16.6ZM102.6,164,64,156.64,81.79,176Zm27.23,6.5,7.82-10.42-20.8,4.58Zm35.42-33-16.16,5.21,1.4,15.48Zm.24-46.41L142.38,85l-10.12,19.41ZM135.81,55.94l24.11,16.94-6.18-18.7Zm-17.88,83.54-11.33-1,13,13.34ZM59.4,114.61l30.17-26L63,90.53Zm94.4-100H142l21.3,28.05-.26-26.07ZM76.38,142.21,63,127.65l1.35,13.13ZM96,105.93,79.64,126.7,94.9,145.45ZM111.3,42.58,87,49.52l1.33,23.07Zm260.83,77.59-16.48,16.46,15.4-2.26ZM63.77,42.59,57.41,53.94l20-7.3Zm266.81,62.47L326.4,92l-8.71,20.63ZM286.11,14.6H277.5l-2.29,5.08Zm15,204.69-3.82-17.66-17.8-.14,1-.92L254.6,203.3l-1.87,16h7.46l18-16.6,19,16.6ZM304.49,134,331,141.36l11.87-22.22ZM251.25,14.6h-9.68l5,3.86Zm43.55,97.51,14.43-19-15.3,4.41Zm-18.88-76.6L268.14,19,251.8,22.58Zm-85.19,81.55,9.12-15.59L187.76,90.19Zm7.82-35.23,9.36,10,10.85-6.34Zm-22.81,70,16.34-10.69-6.26-16.74ZM253.4,72.86l8.49,16,15.95-4.37Zm-8.07,13.71L229.27,73.21l3.28,13.57Zm-108.65,54.3-3.47-23.47-7.49,14Zm64.28-1.7L220.77,151l-11.94-35.79Zm-31.8-55.8,10.48,6.31-6.27-19Zm72.63,18.38L226.87,97.9l-6.43,12.54ZM104.5,112.86,121,111.17l-9.51-5.67Zm132.25,5.79-8.85,8.23,19.75-.77ZM179.18,124l-28-23.35,5.7,23.68ZM63.93,171.66,39,170.23v17.83Zm174.38,47.63,5.87-7.48L237,203l-.43,16.32Zm153.41-4.2-8.13-6.44-11.79,9.54,19.92.6Zm-346.78,4.2L39,211.11v8.18Zm32.66,0h26.72l6.77-19.4Zm267.76-8.53-6.92,6.89,15.93-1.16Zm-14.15-8.95-15.1,4.33.77,13.15h1ZM228.9,206.55l-14.05-15.1,1.08,27.84h4.25ZM40.56,84.89,39,82.17v4.11Zm.36-21.72,3.7-11.66L39,48.24v9.44Zm.47,85.61L52,122.21,39,113.37v26.55Zm1.41,18.94,9.53-14.79L39,156.87v9.46ZM43.25,22.9,39,18.55V29.34ZM86,194.31,46,206.07l26.14,9.65ZM391.72,18.56l-2.25,3.13,2.25,2.54Zm-77,2.07,25.78,11.22L353.12,14.6H340.59Zm49.34,2.89,19.21-7.9-4-1H368.58ZM227.71,18.91l-3.38-4.31H212Zm71.18-2.48h15.72l-2.47-1.83H301Zm89.57,77.71,3.26,8.9V96Zm-2.18,36.05-1.2,11.7,6.64-6.3v-6.05Zm4.86,32,.58.86v-1.49ZM368.05,61.91l15.2,19.68,8.47-4V68.56ZM389.8,185.73l-11.33,7.89L391.72,195v-7.49ZM353.51,39.88l24.28,12.41,13.93-16.76V33.45ZM256.6,109.74l7.67,26,18.16-40.37Zm15.26,78.43,6.44-14.25L269.17,179ZM335.29,158l12,11.29-2.89-26.83ZM221.81,184.88l39.73,2L241,169.94ZM179.91,14.6l-1.25,8.68,10-8.68ZM365.7,167.37l12.5,4.19-11-18.53Zm-54.84,21.34,20.57.25,4.35-18.31ZM294.6,170.46l-6.25,15.74,24.52-12.86Zm-137,48.83-7.21-8.7L139.8,216l13.66,3.34Zm11.66-.33,22.47.33h16.23l-20.38-15.62Zm11.85-40.14L162.7,204.31l20-6.34Zm14.48-2.28,8.92,19.72,10-34ZM363.38,198.2l-4.53-11L348.08,189ZM350.92,31.8,321.57,56.67,347.23,55ZM228.09,55.13,244.56,66l-4.51-12.39Zm40.65,7.66,33.44,21.12-9.51-24.66ZM312.92,49l3.93-15.3L295.67,48.43ZM291.21,24.73l-5.11,9.71,16.68-6.6Zm16.91,50.66,13.32,7.87-8.12-24ZM228,159.21l30.5-12.4-21.3-5.51Zm-98,59.74,0-37.81-15.06,20.29ZM301.83,133.5l-8.36-12.27-12.63,5Zm65.11-55-23.12,36.3L370.7,104.5Zm-45.09.17L365,80.53,342.61,62.32Z" style="fill: #724b9e;opacity: 0.2"/>
              </g>
            </g>
            <path d="M211.63,132.57c-10.34,5.94-22.53,4.08-27.24-4.14s-.16-19.66,10.19-25.59,22.52-4.08,27.23,4.13S222,126.65,211.63,132.57Z" style="fill: #f4f4f4"/>
          </g>
          <g>
            <g>
              <g>
                <path d="M146.79,142.11s13.78,10,12,36.83a86.35,86.35,0,0,0,4.38,16.78c3.14,8,6.39,31.57-3,47.36,0,0-7,10.47-40.47.13,0,0-4,27.81-.56,35.52l-23.49-2.45s2.44-71.22,2.63-72.91,11.08-25.56,11.08-25.56Z" style="fill: #f4af9f"/>
                <path d="M132.26,188.71c13.85-10.53,17.37-33.21,18.25-42.74a21.1,21.1,0,0,0-3.72-3.86l-37.4,35.7s-10.9,23.87-11.08,25.56-2.63,72.91-2.63,72.91l23.49,2.45c-3.39-7.71.56-35.52.56-35.52,29.44,9.09,38.4,2.09,40.12.28C133.12,243.4,115,201.86,132.26,188.71Z" style="fill: #f6917e"/>
              </g>
              <g style="opacity: 0.72;mix-blend-mode: overlay">
                <path d="M146.79,142.11s13.78,10,12,36.83a86.35,86.35,0,0,0,4.38,16.78c3.14,8,6.39,31.57-3,47.36,0,0-7,10.47-40.47.13,0,0-4,27.81-.56,35.52l-23.49-2.45s2.44-71.22,2.63-72.91,11.08-25.56,11.08-25.56Z" style="fill: url(#Áåçûìÿííûé_ãðàäèåíò_20)"/>
                <path d="M132.26,188.71c13.85-10.53,17.37-33.21,18.25-42.74a21.1,21.1,0,0,0-3.72-3.86l-37.4,35.7s-10.9,23.87-11.08,25.56-2.63,72.91-2.63,72.91l23.49,2.45c-3.39-7.71.56-35.52.56-35.52,29.44,9.09,38.4,2.09,40.12.28C133.12,243.4,115,201.86,132.26,188.71Z" style="fill: url(#Áåçûìÿííûé_ãðàäèåíò_20-2)"/>
              </g>
            </g>
            <g>
              <g>
                <path d="M262.34,261.22s3.75-.37,1.08-9.47-4.18-10.4-1.15-16.92,17.8-41.74,18.83-43.79,4.43-2.17,3.46,1.58-4.62,26.7-2.79,27.57,31.54,5.25,32.88,14.36S298,268.9,293.85,271.41Z" style="fill: #f4af9f"/>
                <path d="M287.14,244.75c-19.82-6.55-16.58-27-15.73-31.09-3.88,9.11-7.75,18.17-9.14,21.17-3,6.52-1.51,7.83,1.15,16.92s-1.08,9.47-1.08,9.47l31.51,10.19c3.37-2,15.67-18.79,19.63-30C308.35,245.29,299.69,248.91,287.14,244.75Z" style="fill: #f6917e"/>
              </g>
              <g style="opacity: 0.72;mix-blend-mode: overlay">
                <path d="M262.34,261.22s3.75-.37,1.08-9.47-4.18-10.4-1.15-16.92,17.8-41.74,18.83-43.79,4.43-2.17,3.46,1.58-4.62,26.7-2.79,27.57,31.54,5.25,32.88,14.36S298,268.9,293.85,271.41Z" style="fill: url(#Áåçûìÿííûé_ãðàäèåíò_20-3)"/>
                <path d="M287.14,244.75c-19.82-6.55-16.58-27-15.73-31.09-3.88,9.11-7.75,18.17-9.14,21.17-3,6.52-1.51,7.83,1.15,16.92s-1.08,9.47-1.08,9.47l31.51,10.19c3.37-2,15.67-18.79,19.63-30C308.35,245.29,299.69,248.91,287.14,244.75Z" style="fill: url(#Áåçûìÿííûé_ãðàäèåíò_20-4)"/>
              </g>
            </g>
            <path d="M263.68,258.24l-47.36,86.83c-36.92-59.22-103.57-69.85-118.41-71.51h0c-.69,1.06-1.42,2.08-2.17,3.08l-.22.3c-.68.89-1.38,1.75-2.11,2.59l-.45.54c-.68.75-1.39,1.49-2.11,2.21-.2.2-.39.41-.6.6-.91.88-1.86,1.74-2.84,2.55C58.59,309,12.61,346.94,11.87,394.29c-.69,42.84,26,120.42,117.59,138a1.64,1.64,0,0,1,.78.26c2.88-.1,5.78-.21,8.72-.35,33.06-1.52,52.3-5.45,66-12.44-67.63-1.93-93-87.94-68.28-90.48,25.56-2.63,33.08-29.69,33.08-29.69s22.17,26.31,56,25.18S297.5,268,297.5,268Z" style="fill: #f37b7e"/>
            <path d="M226.72,355.08l45.55-94.36-8.59-2.48-47.36,86.83S228,361.6,230.47,367.61Z" style="fill: #f26f6e"/>
            <path d="M136.64,429.25a35.25,35.25,0,0,0,5.78-1.09c17-4.64,24.38-20.58,26.56-26.43a.08.08,0,0,0,0-.05q.1-.3.21-.57l0-.07.16-.47a.25.25,0,0,1,0-.07l.12-.36a.64.64,0,0,0,0-.07l.08-.24a.19.19,0,0,1,0-.07,2,2,0,0,1,.06-.2l-34-31.45,20.3,29.57S146.54,429,109,422.24c0,0,8.33,4.94,14.74,6.89-.77,3.33-3.49,19.9,11.25,43.34v-.05C124.57,451.4,124.51,430.5,136.64,429.25Z" style="fill: #f26f6e"/>
            <path d="M-109.61,375.15c-6,70.36,26.21,167.28,248.57,157-75.2-32.51-100.5-89-99.79-133.66.75-47.36,19.42-89.53,48.24-113.08s25.37-78.87,25.37-78.87-11.28-9-6.2-18,18.6-.95,18.6-.95a27.91,27.91,0,0,0,5-3.53,26.65,26.65,0,0,0,4.34-4.54,58,58,0,0,0,6.66-12.61A83.45,83.45,0,0,0,145.6,153c1-4.42,1.9-8.89,2.62-13.36.91-5.54.84-11.2.84-16.8,0-.94,0-1.89,0-2.82a30.26,30.26,0,0,0-4.14-.43c-1.3-.13-2.6-.27-3.91-.33l-4.38-.26q-13-.77-26-.49a258.56,258.56,0,0,0-27.13,2l.14,0c-22.83,2.6-49.92,10.24-62.85,31-10,16.1-3.58,36.43-9.34,53.79-5.26,15.83-15,31.06-29,40.55C-33.11,256.36-104.11,310-109.61,375.15Z" style="fill: #512a2c"/>
          </g>
        </g>
        <g>
          <path d="M443.75,250.86l-85.28,1.84a1.51,1.51,0,0,1-1.48-1.94L390.8,135.2a1.52,1.52,0,0,1,1.41-1.09l85.29-1.83a1.51,1.51,0,0,1,1.48,1.93L445.17,249.78A1.5,1.5,0,0,1,443.75,250.86Z" style="fill: #dfe5ec;opacity: 0.5"/>
          <g>
            <g>
              <g style="opacity: 0.5;mix-blend-mode: multiply">
                <path d="M458.51,313.91c-2.35,8.1-11.18,14.72-19.61,14.72H379.3c-8.44,0-13.41-6.62-11.05-14.72L378.68,278c2.36-8.1,11.18-14.72,19.62-14.72h59.61c8.43,0,13.4,6.62,11,14.72Z" style="fill: #828ac4"/>
              </g>
              <path d="M410.56,276.78,402.16,307a.54.54,0,0,0,.72.64l31.94-13.45a.54.54,0,0,0,.1-.93l-23.53-16.81A.54.54,0,0,0,410.56,276.78Z" style="fill: #fff"/>
            </g>
            <g style="opacity: 0.5;mix-blend-mode: multiply">
              <path d="M383.38,364.8a11.83,11.83,0,0,1-10.7,8H340.17c-4.6,0-7.31-3.61-6-8l5.69-19.56a11.84,11.84,0,0,1,10.7-8h32.52c4.6,0,7.31,3.61,6,8Z" style="fill: #828ac4"/>
            </g>
            <g>
              <path d="M434.85,242l-85.28,1.83a1.51,1.51,0,0,1-1.48-1.93l33.8-115.57a1.51,1.51,0,0,1,1.42-1.08l85.28-1.84a1.52,1.52,0,0,1,1.49,1.94L436.27,240.87A1.53,1.53,0,0,1,434.85,242Z" style="fill: #fff;stroke: #f6f7f8;stroke-miterlimit: 10;stroke-width: 0.5px"/>
              <g>
                <polygon points="431.53 233.92 389.94 235.54 393.57 222.42 435.16 220.8 431.53 233.92" style="fill: #f05252;opacity: 0.6"/>
                <g>
                  <g style="clip-path: url(#clip-path-4)">
                    <g>
                      <rect x="397.98" y="92.41" width="93.52" height="161.14" transform="translate(648.01 -258.75) rotate(93.96)" style="fill: #94c13d"/>
                      <g style="clip-path: url(#clip-path-5)">
                        <path d="M546.24,171.37l-.33,12.22L455.44,175ZM454.92,177l82,39.2,4.52-11.36Zm-1.16,1.65,63.48,65,8.15-9.11Zm-1.66,1.15,37.21,82.9,10.79-5.74Zm-2,.51,6.41,90.65,12.11-1.68Zm-2-.19L423,267.39,434.89,270Zm-1.82-.88-53.7,73.31,10.32,6.55Zm-1.41-1.45L369.25,228.1l7.44,9.7Zm-.83-1.84-88.35,21.23,3.65,11.67Zm-.14-2-90.26-10.48-.59,12.21Zm.57-1.94L363.35,131,358.6,142.3Zm1.2-1.63L383.59,104l-8.34,8.94Zm1.68-1.12L411.9,85.54,401,91.06Zm2-.46L444.83,78,432.69,79.4Zm2,.23,27-86.76-11.89-2.84Zm1.81.92,55.22-72.17L498.19,91Zm1.38,1.47,76.68-48.75L524,112.76Zm.78,1.87,88.78-19.38-3.4-11.74Z" style="fill: #c2d42f"/>
                      </g>
                    </g>
                  </g>
                  <path d="M395.43,174.32c-5.31,3.17-11.66,2.32-14.18-1.91S381,162.2,386.31,159s11.66-2.32,14.18,1.9S400.75,171.15,395.43,174.32Z" style="fill: #ffd14e"/>
                </g>
                <path d="M444.16,184.21l-72.08,1.26a1.07,1.07,0,0,1-1-1.08,1,1,0,0,1,1-1.1L444.13,182a1.09,1.09,0,0,1,0,2.17Z" style="fill: #dfe5ec"/>
                <path d="M408.7,193.73l-40,.7a1.09,1.09,0,0,1,0-2.18l40-.69a1.09,1.09,0,0,1,0,2.17Z" style="fill: #dfe5ec"/>
              </g>
            </g>
            <g>
              <polygon points="361.63 364.5 358.56 364.37 358.99 360.97 362.06 361.11 361.63 364.5" style="fill: #fff"/>
              <path d="M364.79,355.38c-1,.76-2.06,1.37-2.44,2.83l-.11,1-2.85-.13.14-1.12a5.69,5.69,0,0,1,2.33-3.84c.91-.73,1.7-1.27,1.87-2.62.19-1.53-.39-2.28-1.51-2.33-1.51-.07-2.33,1.38-2.57,3.15l-3.1-.14c.51-3.56,2.82-6.07,5.89-5.94,4,.18,4.89,3.13,4.64,5.05A5.41,5.41,0,0,1,364.79,355.38Z" style="fill: #fff"/>
            </g>
          </g>
        </g>
        <ellipse cx="45.75" cy="167.86" rx="14.83" ry="9.54" transform="translate(-124.92 134.03) rotate(-63.54)" style="fill: #fff;opacity: 0.2"/>
      </g>
    </g>
  </g>
</svg>
