<svg id="Layer_69" data-name="Layer 69" xmlns="http://www.w3.org/2000/svg" viewBox="0 0 18 18">
  <title>downloadable</title>
  <g style="opacity: 0.4">
    <path d="M12.55,1H7.42A6.43,6.43,0,0,0,1,7.42v5.16A6.43,6.43,0,0,0,7.42,19h5.16A6.43,6.43,0,0,0,19,12.58V7.42A6.47,6.47,0,0,0,12.55,1ZM17.4,12.55a4.87,4.87,0,0,1-4.85,4.85H7.42a4.87,4.87,0,0,1-4.85-4.85V7.42A4.87,4.87,0,0,1,7.42,2.57H9.2v9.64L6.7,9.7a.78.78,0,0,0-1.1,1.1l3.82,3.82a.84.84,0,0,0,1.13,0l3.82-3.82a.78.78,0,1,0-1.1-1.1l-2.5,2.51V2.57h1.78A4.87,4.87,0,0,1,17.4,7.42Z" transform="translate(-1 -1)" style="fill: #2c2e2f"/>
  </g>
</svg>
