<svg id="Layer_2" data-name="Layer 2" xmlns="http://www.w3.org/2000/svg" xmlns:xlink="http://www.w3.org/1999/xlink" viewBox="0 0 61.84 73.68">
  <defs>
    <linearGradient id="linear-gradient" x1="39.2" y1="47.63" x2="45.61" y2="47.63" gradientUnits="userSpaceOnUse">
      <stop offset="0" stop-color="#f05252"/>
      <stop offset="0.29" stop-color="#ec5051"/>
      <stop offset="0.57" stop-color="#e04c4c"/>
      <stop offset="0.86" stop-color="#cc4445"/>
      <stop offset="1" stop-color="#bf3f40"/>
    </linearGradient>
    <linearGradient id="linear-gradient-2" x1="11.14" y1="37.48" x2="70.92" y2="37.48" xlink:href="#linear-gradient"/>
    <linearGradient id="linear-gradient-3" x1="23.82" y1="51.15" x2="27.93" y2="51.15" xlink:href="#linear-gradient"/>
    <linearGradient id="linear-gradient-4" x1="37.14" y1="53.81" x2="43.55" y2="53.81" xlink:href="#linear-gradient"/>
    <linearGradient id="linear-gradient-5" x1="9.08" y1="42.63" x2="68.86" y2="42.63" xlink:href="#linear-gradient"/>
  </defs>
  <title>document</title>
  <g style="opacity: 0.6000000000000001">
    <g id="Files" style="opacity: 0.30000000000000004">
      <path d="M45.32,49.67a7.36,7.36,0,0,0,0-4.09,4.21,4.21,0,0,0-.82-1.51,3.65,3.65,0,0,0-1.31-1,4.52,4.52,0,0,0-1.78-.33H39.2v9.68h2.21a4.56,4.56,0,0,0,1.78-.34,3.66,3.66,0,0,0,1.31-.94A4.34,4.34,0,0,0,45.32,49.67Z" transform="translate(-9.08 -3.73)" style="fill: url(#linear-gradient)"/>
      <path d="M52.3,3.73H14.13a2.85,2.85,0,0,0-3,2.68V68.55a2.86,2.86,0,0,0,3,2.68h53.8a2.86,2.86,0,0,0,3-2.68V20.82Z" transform="translate(-9.08 -3.73)" style="fill:#8c8c8c;"/>
    </g>
    <g>
      <g id="Files-2" data-name="Files" style="opacity: 0.9">
        <path d="M27.79,50.16a1.84,1.84,0,0,0-1.19-1.11,3.3,3.3,0,0,0-1.11-.16H23.82v4.53h1.67a2.5,2.5,0,0,0,1.88-.61,2.51,2.51,0,0,0,.56-1.74A2.9,2.9,0,0,0,27.79,50.16Z" transform="translate(-9.08 -3.73)" style="fill: url(#linear-gradient-3)"/>
        <path d="M43.26,55.85a7.36,7.36,0,0,0,0-4.09,4.34,4.34,0,0,0-.82-1.52,3.75,3.75,0,0,0-1.31-.94A4.49,4.49,0,0,0,39.35,49H37.14v9.68h2.21a4.56,4.56,0,0,0,1.78-.34,3.66,3.66,0,0,0,1.31-.94A4.34,4.34,0,0,0,43.26,55.85Z" transform="translate(-9.08 -3.73)" style="fill: url(#linear-gradient-4)"/>
        <path d="M50.24,7.85H12.07a2.89,2.89,0,0,0-3,2.76v64a2.89,2.89,0,0,0,3,2.76h53.8a2.89,2.89,0,0,0,3-2.76V25.47Zm-1.83,19.6V14.15l14.38,13.3Z" transform="translate(-9.08 -3.73)" style="fill:#8c8c8c;"/>
      </g>
      <g style="opacity: 0.8">
        <path d="M51.07,50.8a27,27,0,0,0-4.8.54A46.4,46.4,0,0,1,39,40.41c1.9-8.13,1-9.28.53-9.81s-1.09-1.52-1.8-1.52a6.65,6.65,0,0,0-1.45.24,2.84,2.84,0,0,0-1.64,1.76c-1,2.4.4,6.45,1.8,9.59A97,97,0,0,1,31,56.19c-5.41,2.5-8.29,5-8.53,7.3a3.45,3.45,0,0,0,1.59,3.22,2.14,2.14,0,0,0,1.37.48c1.27,0,2.51-1,4-3A41,41,0,0,0,32.86,58,68.17,68.17,0,0,1,45.47,54c2.25,2.18,4.28,3.3,6,3.3a3.76,3.76,0,0,0,3.17-1.73,2.94,2.94,0,0,0,.55-3.09c-.55-1.09-1.9-1.63-4.14-1.63Zm-25.57,14c-.66-.54-.64-.88-.61-1,.08-.8,1.32-2.22,4.38-3.95-2.32,4.32-3.56,4.88-3.77,5ZM37.21,31.69c.08,0,1.51,1.6.16,4.64a3.48,3.48,0,0,1-.16-4.64ZM34.28,54.8a100.52,100.52,0,0,0,3.8-10.9,50,50,0,0,0,5.47,8,74.08,74.08,0,0,0-9.27,2.91Zm18.42-.67a2.13,2.13,0,0,1-1.74.62c-.76,0-1-.46-2.19-1.36a22.7,22.7,0,0,1,2.59-.14,3,3,0,0,1,1.66.27,2.35,2.35,0,0,1-.32.61Z" transform="translate(-9.08 -3.73)" style="fill: #fff"/>
      </g>
    </g>
  </g>
</svg>
