<svg id="Layer_1" data-name="Layer 1" xmlns="http://www.w3.org/2000/svg" xmlns:xlink="http://www.w3.org/1999/xlink" viewBox="0 0 78.63 73.7">
  <defs>
    <linearGradient id="linear-gradient" x1="6.61" y1="38.02" x2="79.32" y2="38.02" gradientUnits="userSpaceOnUse">
      <stop offset="0" stop-color="#f05252"/>
      <stop offset="0.29" stop-color="#ec5051"/>
      <stop offset="0.57" stop-color="#e04c4c"/>
      <stop offset="0.86" stop-color="#cc4445"/>
      <stop offset="1" stop-color="#bf3f40"/>
    </linearGradient>
    <linearGradient id="linear-gradient-2" x1="0.68" y1="41.98" x2="73.39" y2="41.98" xlink:href="#linear-gradient"/>
  </defs>
  <title>video</title>
  <g style="opacity: 0.8">
    <path id="Multimedia" d="M62.29,66a34.87,34.87,0,1,0-20.8,6.89H79.32V66ZM45.05,54.08a8.26,8.26,0,1,1,8.25,8.26A8.25,8.25,0,0,1,45.05,54.08ZM60.3,24A8.26,8.26,0,1,1,52,32.21,8.26,8.26,0,0,1,60.3,24ZM41.49,9.88a8.26,8.26,0,1,1-8.26,8.26A8.26,8.26,0,0,1,41.49,9.88ZM14.42,32.21a8.26,8.26,0,1,1,8.25,8.26A8.25,8.25,0,0,1,14.42,32.21ZM29.67,62.34a8.26,8.26,0,1,1,8.26-8.26A8.26,8.26,0,0,1,29.67,62.34ZM37.05,38a4.44,4.44,0,1,1,4.44,4.44A4.43,4.43,0,0,1,37.05,38Z" transform="translate(-0.68 -3.15)" style="opacity: 0.30000000000000004;fill: #8c8c8c;"/>
    <path id="Multimedia-2" data-name="Multimedia" d="M56.36,70a34.88,34.88,0,1,0-20.8,6.88H73.39V70ZM39.11,58a8.26,8.26,0,1,1,8.26,8.26A8.26,8.26,0,0,1,39.11,58ZM54.37,27.91a8.26,8.26,0,1,1-8.26,8.25A8.25,8.25,0,0,1,54.37,27.91ZM35.56,13.83a8.26,8.26,0,1,1-8.26,8.26A8.26,8.26,0,0,1,35.56,13.83ZM8.48,36.16a8.26,8.26,0,1,1,8.26,8.26A8.25,8.25,0,0,1,8.48,36.16ZM23.74,66.3A8.26,8.26,0,1,1,32,58,8.26,8.26,0,0,1,23.74,66.3ZM31.12,42a4.44,4.44,0,1,1,4.44,4.43A4.44,4.44,0,0,1,31.12,42Z" transform="translate(-0.68 -3.15)" style="opacity: 0.9; fill: #8c8c8c;"/>
  </g>
</svg>
