<svg id="Layer_3" data-name="Layer 3" xmlns="http://www.w3.org/2000/svg" xmlns:xlink="http://www.w3.org/1999/xlink" viewBox="0 0 62.44 74.92">
  <defs>
    <linearGradient id="linear-gradient" x1="8.78" y1="46.85" x2="67.55" y2="46.85" gradientUnits="userSpaceOnUse">
      <stop offset="0" stop-color="#f05252"/>
      <stop offset="0.29" stop-color="#ec5051"/>
      <stop offset="0.57" stop-color="#e04c4c"/>
      <stop offset="0.86" stop-color="#cc4445"/>
      <stop offset="1" stop-color="#bf3f40"/>
    </linearGradient>
    <linearGradient id="linear-gradient-2" x1="22.47" y1="9.2" x2="36.52" y2="9.2" xlink:href="#linear-gradient"/>
    <linearGradient id="linear-gradient-3" x1="19.62" y1="47.88" x2="56.7" y2="47.88" xlink:href="#linear-gradient"/>
    <linearGradient id="linear-gradient-4" x1="8.78" y1="45.33" x2="71.22" y2="45.33" xlink:href="#linear-gradient"/>
    <linearGradient id="linear-gradient-5" x1="23.88" y1="5.48" x2="38.8" y2="5.48" xlink:href="#linear-gradient"/>
  </defs>
  <title>quiz</title>
  <g style="opacity: 0.8">
    <g style="opacity: 0.8">
      <path d="M57.61,25.71l1.85-2.28,2.28,1.85a.58.58,0,0,0,.81-.08l2-2.51a.56.56,0,0,0-.09-.8l-6.34-5.15a.58.58,0,0,0-.81.08l-2,2.51a.56.56,0,0,0,.09.8L57.68,22l-1.84,2.27a29.52,29.52,0,1,0,1.77,1.45ZM55.39,63,54.2,64.28a23,23,0,0,1-15.06,6.48H37.42a23,23,0,0,1-15-6.17l-1.21-1.21a23,23,0,0,1-6.14-14.82V46.85A23,23,0,0,1,21.6,31.67l1.24-1.19a23,23,0,0,1,14.58-5.83h1.72a23,23,0,0,1,14.7,6.14L55.05,32a23,23,0,0,1,6.17,14.84v1.72A23,23,0,0,1,55.39,63Z" transform="translate(-8.78 -2.54)" style="fill: #8c8c8c;"/>
      <polygon points="25.2 14.36 33.8 14.36 33.8 10.92 36.52 10.92 36.52 4.04 22.47 4.04 22.47 10.92 25.2 10.92 25.2 14.36" style="fill: #8c8c8c;"/>
      <path id="Edit" d="M51.27,34.77a18.54,18.54,0,1,0,0,26.22A18.54,18.54,0,0,0,51.27,34.77ZM35.84,56.91a2.18,2.18,0,0,1-.49-.73,2.32,2.32,0,0,1-.19-.91,2.27,2.27,0,0,1,.19-.9,2.14,2.14,0,0,1,.49-.72,2.46,2.46,0,0,1,.75-.5,2.52,2.52,0,0,1,1.87,0,2.46,2.46,0,0,1,.75.5,2.05,2.05,0,0,1,.51.72,2.26,2.26,0,0,1,.18.9,2.31,2.31,0,0,1-.18.91,2.09,2.09,0,0,1-.51.73,2.27,2.27,0,0,1-.75.49,2.6,2.6,0,0,1-.93.17m1.94-8.43L39.09,51H36.24L36,48.86l0-.16v-.16a1.88,1.88,0,0,1,.28-1,4.13,4.13,0,0,1,.71-.81,11.37,11.37,0,0,1,.93-.71,9.74,9.74,0,0,0,.93-.74,3.76,3.76,0,0,0,.71-.89,2.29,2.29,0,0,0,.28-1.16,1.63,1.63,0,0,0-.53-1.29,2.09,2.09,0,0,0-1.46-.47,4.09,4.09,0,0,0-1.19.14,5.37,5.37,0,0,0-.82.33l-.6.33a1,1,0,0,1-.51.15.94.94,0,0,1-.86-.5l-1.1-1.69a8.77,8.77,0,0,1,1.08-.78A8.27,8.27,0,0,1,35,38.77a7.91,7.91,0,0,1,1.45-.43,8.69,8.69,0,0,1,1.67-.16,7.38,7.38,0,0,1,2.28.34,5.17,5.17,0,0,1,1.73,1A4.21,4.21,0,0,1,43.25,41a4.8,4.8,0,0,1,.39,2,4.93,4.93,0,0,1-.29,1.77A4.48,4.48,0,0,1,42.63,46a5.69,5.69,0,0,1-1,1l-1,.74" transform="translate(-8.78 -2.54)" style="fill: #8c8c8c;"/>
    </g>
    <g style="opacity: 0.30000000000000004">
      <path d="M60.66,22.87l2-2.43,2.42,2a.62.62,0,0,0,.86-.09l2.15-2.66A.61.61,0,0,0,68,18.8l-6.74-5.46a.61.61,0,0,0-.86.08l-2.16,2.67a.6.6,0,0,0,.09.85l2.42,2-1.95,2.41a31.57,31.57,0,1,0,1.88,1.55ZM58.31,62.53,57,63.85a24.44,24.44,0,0,1-16,6.89H39.21a24.41,24.41,0,0,1-15.89-6.55L22,62.9A24.45,24.45,0,0,1,15.5,47.16V45.33A24.46,24.46,0,0,1,22.4,29.2l1.31-1.26a24.41,24.41,0,0,1,15.5-6.2H41a24.41,24.41,0,0,1,15.62,6.52L58,29.56A24.45,24.45,0,0,1,64.5,45.33v1.83A24.44,24.44,0,0,1,58.31,62.53Z" transform="translate(-8.78 -2.54)" style="fill: #8c8c8c;"/>
      <polygon points="26.77 10.96 35.91 10.96 35.91 7.31 38.8 7.31 38.8 0 23.88 0 23.88 7.31 26.77 7.31 26.77 10.96" style="fill: #8c8c8c;"/>
    </g>
  </g>
</svg>
