<svg id="Layer_70" data-name="Layer 70" xmlns="http://www.w3.org/2000/svg" viewBox="0 0 16 16.87">
  <title>lesson</title>
  <g >
    <path d="M18,3.81a2.37,2.37,0,0,0-2.47-2.25H4.47A2.37,2.37,0,0,0,2,3.81V16.19a2.37,2.37,0,0,0,2.47,2.25H15.53A2.37,2.37,0,0,0,18,16.19ZM16.47,16.19a.9.9,0,0,1-.94.85H4.47a.9.9,0,0,1-.94-.85V3.81A.9.9,0,0,1,4.47,3H15.53a.9.9,0,0,1,.94.85Z" transform="translate(-2 -1.56)" style="fill: #f05050"/>
    <path d="M14.13,13.19H5.87a.77.77,0,1,0,0,1.53h8.26a.77.77,0,1,0,0-1.53Z" transform="translate(-2 -1.56)" style="fill: #f05050"/>
    <path d="M14.13,9.57H5.87a.77.77,0,1,0,0,1.53h8.26a.77.77,0,1,0,0-1.53Z" transform="translate(-2 -1.56)" style="fill: #f05050"/>
    <path d="M5.87,7.49H9.25A.77.77,0,0,0,9.25,6H5.87a.77.77,0,0,0,0,1.54Z" transform="translate(-2 -1.56)" style="fill: #f05050"/>
  </g>
</svg>
