<svg id="Layer_67" data-name="Layer 67" xmlns="http://www.w3.org/2000/svg" viewBox="0 0 14.73 18">
  <title>lock</title>
  <g>
    <g style="opacity: 0.4">
      <path d="M17,9.54a1.15,1.15,0,0,0-.86-.36h-.41V6.73a5.52,5.52,0,0,0-1.69-4A5.5,5.5,0,0,0,10,1,5.48,5.48,0,0,0,6,2.69a5.52,5.52,0,0,0-1.69,4V9.18H3.86A1.19,1.19,0,0,0,3,9.54a1.22,1.22,0,0,0-.35.87v7.36a1.22,1.22,0,0,0,.35.87,1.19,1.19,0,0,0,.87.36H16.14a1.19,1.19,0,0,0,.87-.36,1.22,1.22,0,0,0,.35-.87V10.41A1.19,1.19,0,0,0,17,9.54Zm-3.73-.36H6.73V6.73a3.16,3.16,0,0,1,1-2.32,3.26,3.26,0,0,1,4.62,0,3.16,3.16,0,0,1,1,2.32Zm0,0" transform="translate(-2.64 -1)" style="fill: #f05050;"/>
    </g>
    <circle cx="7.34" cy="13.91" r="1.64" style="fill: #fff"/>
  </g>
</svg>
