<svg id="Layer_69" data-name="Layer 69" xmlns="http://www.w3.org/2000/svg" viewBox="0 0 16.5 17.6"><defs><style>.cls-1{fill:#2c2e2f;}</style></defs><title>upload image and video icon</title>
<path class="cls-1" d="M14.58,18.8H5.42a3.68,3.68,0,0,1-3.67-3.67V12.38a.86.86,0,0,1,.92-.91.86.86,0,0,1,.91.91v2.75A1.85,1.85,0,0,0,5.42,17h9.16a1.85,1.85,0,0,0,1.84-1.84V12.38a.92.92,0,0,1,1.83,0v2.75A3.68,3.68,0,0,1,14.58,18.8Z" transform="translate(-1.75 -1.2)" style="fill-opacity:.8;"/>
<path class="cls-1" d="M10,14.22a.87.87,0,0,1-.92-.92V3.22A.87.87,0,0,1,10,2.3a.87.87,0,0,1,.92.92V13.3A.87.87,0,0,1,10,14.22Z" transform="translate(-1.75 -1.2)" style="fill-opacity:.8;"/>
<path class="cls-1" d="M13.85,6.88a.84.84,0,0,1-.64-.27L10,3.4,6.79,6.61A.91.91,0,0,1,5.51,5.32L9.36,1.48a.88.88,0,0,1,1.28,0l3.85,3.84a.89.89,0,0,1,0,1.29A.71.71,0,0,1,13.85,6.88Z" transform="translate(-1.75 -1.2)" style="fill-opacity:.8;"/></svg>