<svg id="Layer_63" data-name="Layer 63" xmlns="http://www.w3.org/2000/svg" viewBox="0 0 15.98 15.98"><defs><style>.cls-1{opacity:0.6;}.cls-2{fill:#2c2e2f;}</style></defs><title>validity</title><g class="cls-1"><path class="cls-2" d="M10,3.45A6.55,6.55,0,1,1,3.45,10,6.55,6.55,0,0,1,10,3.45M10,2A8,8,0,0,0,2.65,6.88a8,8,0,0,0,1.69,8.76,8.07,8.07,0,0,0,2.54,1.71,8,8,0,0,0,8.76-1.69,8.07,8.07,0,0,0,1.71-2.54,8,8,0,0,0-1.69-8.76,8.07,8.07,0,0,0-2.54-1.71A7.87,7.87,0,0,0,10,2Z" transform="translate(-2.01 -2.01)"/><path class="cls-2" d="M13.6,9.53H10.48V6.4a.75.75,0,0,0-.21-.51.72.72,0,0,0-1.23.51v3.84a.72.72,0,0,0,.72.72H13.6a.75.75,0,0,0,.51-.21.72.72,0,0,0-.51-1.23Z" transform="translate(-2.01 -2.01)"/></g></svg>