<?xml version="1.0" encoding="utf-8"?>
<!-- Generator: Adobe Illustrator 16.0.0, SVG Export Plug-In . SVG Version: 6.00 Build 0)  -->
<!DOCTYPE svg PUBLIC "-//W3C//DTD SVG 1.1//EN" "http://www.w3.org/Graphics/SVG/1.1/DTD/svg11.dtd">
<svg version="1.1" id="Layer_1" xmlns="http://www.w3.org/2000/svg" xmlns:xlink="http://www.w3.org/1999/xlink" x="0px" y="0px"
	 width="150px" height="150px" viewBox="0 0 150 150" enable-background="new 0 0 150 150" xml:space="preserve">
<g>
	<circle cx="82.828" cy="75" r="46.891"/>
	<path d="M91.816,102.004h49.881c1.656,0,3,1.344,3,3v0.012c0,1.657-1.344,3-3,3H91.816c-1.656,0-3-1.343-3-3v-0.012
		C88.816,103.348,90.16,102.004,91.816,102.004z"/>
	<path d="M19.973,92.016h49.882c1.657,0,2.999,1.342,2.999,3c0,1.655-1.342,2.998-2.999,2.998H19.973c-1.657,0-3-1.343-3-2.998
		C16.973,93.357,18.316,92.016,19.973,92.016z"/>
	<path d="M60.356,46.009h74.126c0.826,0,1.496,0.67,1.496,1.496c0,0.827-0.67,1.497-1.496,1.497H60.356
		c-0.826,0-1.496-0.67-1.496-1.497C58.86,46.679,59.53,46.009,60.356,46.009z"/>
	<path d="M84.341,112.006h46.89c0.826,0,1.496,0.67,1.496,1.496c0,0.827-0.67,1.496-1.496,1.496h-46.89
		c-0.827,0-1.497-0.669-1.497-1.496C82.844,112.676,83.514,112.006,84.341,112.006z"/>
	<path d="M1.489,86.018h46.903c0.823,0,1.49,0.666,1.49,1.489c0,0.822-0.667,1.489-1.49,1.489H1.489C0.667,88.996,0,88.329,0,87.507
		C0,86.684,0.667,86.018,1.489,86.018z"/>
	<path d="M74.405,63.007h74.099c0.826,0,1.496,0.67,1.496,1.496c0,0.827-0.67,1.496-1.496,1.496H74.405
		c-0.826,0-1.496-0.669-1.496-1.496C72.909,63.677,73.579,63.007,74.405,63.007z"/>
</g>
<path fill="none" d="z"/>
<image overflow="visible" enable-background="new    " width="64" height="46" xlink:href="84CB6980.png"  transform="matrix(1 0 0 1 46 77)">
</image>
</svg>
