<svg id="Layer_52" data-name="Layer 52" xmlns="http://www.w3.org/2000/svg" viewBox="0 0 21 21"><title>INTEREST PAGE</title><path d="M10,20h8a.91.91,0,0,0,1-1V16.32c0-2.74,0-5.49,0-8.24a.93.93,0,0,0-.29-.69L13.64,2.3a1,1,0,0,0-.73-.3h-11A.85.85,0,0,0,1,2.92V19.05A.87.87,0,0,0,2,20Z" transform="translate(-1 1)" style="fill:#fff"/><path d="M10,20H2A.87.87,0,0,1,1,19.05V2.92A.85.85,0,0,1,1.92,2h11a1,1,0,0,1,.73.3L18.7,7.39a.93.93,0,0,1,.29.69c0,2.75,0,5.5,0,8.24V19a.91.91,0,0,1-1,1ZM2.73,3.73V18.26H17.26V8.87H13.05a.88.88,0,0,1-1-1V3.73Z" transform="translate(-1 1)"/><path d="M12.17,3.5V7.81a.9.9,0,0,0,1,1H17.5V18.5H2.5V3.5" transform="translate(-1 1)" style="fill:#fff"/><circle cx="13" cy="8" r="8" style="fill:#fff"/><path d="M14-1a8,8,0,1,0,8,8A8,8,0,0,0,14-1ZM13.47.34V6.47H10.28C10.44,3.68,11.78,1.28,13.47.34Zm1.06,0c1.69.94,3,3.34,3.19,6.13H14.53Zm-3,.19A9.4,9.4,0,0,0,9.22,6.47H7.09A6.93,6.93,0,0,1,11.5.53Zm5,0a6.93,6.93,0,0,1,4.41,5.94H18.78A9.4,9.4,0,0,0,16.5.53Zm-9.41,7H9.22a9.4,9.4,0,0,0,2.28,5.94A6.93,6.93,0,0,1,7.09,7.53Zm3.19,0h3.19v6.13C11.78,12.72,10.44,10.32,10.28,7.53Zm4.25,0h3.19c-.16,2.79-1.5,5.19-3.19,6.13Zm4.25,0h2.13a6.93,6.93,0,0,1-4.41,5.94A9.4,9.4,0,0,0,18.78,7.53Z" transform="translate(-1 1)" style="fill:#f05050"/></svg>