<svg xmlns="http://www.w3.org/2000/svg" width="16" height="11.955" viewBox="0 0 16 11.955">
  <g id="Group_293" data-name="Group 293" transform="translate(-1 -3.913)">
    <path id="Subtraction_1" data-name="Subtraction 1" d="M13.146,11.851H1.185a1.185,1.185,0,1,1,0-2.371h9.63l2.329,2.369Zm-4.66-4.74h-7.3a1.185,1.185,0,1,1,0-2.371H8.393l-.106.108a1.47,1.47,0,0,0,0,2.06l.2.2ZM11.8,6.286h0l-.4-.406.376-.382a1.188,1.188,0,0,1,.025.788ZM10.725,2.371H1.185A1.185,1.185,0,1,1,1.185,0H13.057L10.725,2.37Z" transform="translate(1 4.016)" fill="#2c2e2f"/>
    <g id="noun_Arrow_Left_2624517" data-name="noun_Arrow Left_2624517" transform="translate(17 3.913) rotate(90)">
      <g id="Group_289" data-name="Group 289" transform="translate(0 0)">
        <path id="Path_45" data-name="Path 45" d="M6.787,2.02l-3.934,4L6.626,9.853a1.188,1.188,0,1,1-1.694,1.665L.341,6.849a1.187,1.187,0,0,1,0-1.665L5.09.355A1.188,1.188,0,1,1,6.784,2.02Z" transform="translate(0 7.125) rotate(-90)" fill="#2c2e2f"/>
      </g>
    </g>
  </g>
</svg>
