<svg id="Layer_19" data-name="Layer 19" xmlns="http://www.w3.org/2000/svg" viewBox="0 0 15.95 11.83"><title>activity</title><path d="M12.17,9.05H17a1,1,0,0,1,1,.71A1,1,0,0,1,17,11H7.36a1,1,0,0,1-1-.71,1,1,0,0,1,1-1.2h4.84Z" transform="translate(-2.03 -4.09)" style="fill:#f05050"/><path d="M12.15,15.6H7.35a1,1,0,0,1-1-.7,1,1,0,0,1,.91-1.21h9.66a1,1,0,0,1,1,.72,1,1,0,0,1-1,1.19H12.15Z" transform="translate(-2.03 -4.09)" style="fill:#f05050"/><path d="M12.15,6.31H7.35a1,1,0,0,1-1-.76,1,1,0,0,1,.92-1.14h9.67a1,1,0,1,1,0,1.9h-4.8Z" transform="translate(-2.03 -4.09)" style="fill:#f05050"/><path d="M4.55,5.35A1.26,1.26,0,1,1,3.29,4.09,1.27,1.27,0,0,1,4.55,5.35Z" transform="translate(-2.03 -4.09)" style="fill:#f05050"/><path d="M4.55,10a1.29,1.29,0,0,1-1.26,1.27A1.28,1.28,0,1,1,4.55,10Z" transform="translate(-2.03 -4.09)" style="fill:#f05050"/><path d="M4.55,14.67a1.24,1.24,0,0,1-1.27,1.24A1.25,1.25,0,0,1,2,14.59a1.28,1.28,0,0,1,1.28-1.22A1.28,1.28,0,0,1,4.55,14.67Z" transform="translate(-2.03 -4.09)" style="fill:#f05050"/></svg>