<svg id="logout" xmlns="http://www.w3.org/2000/svg" viewBox="0 0 16.69 17"><title>logout</title>
<path d="M18.35,10.15a8.34,8.34,0,0,0-3.7-6.93,1,1,0,0,0-1.42.28,1,1,0,0,0,.27,1.4,5.93,5.93,0,0,1,1.94,1.92,6.37,6.37,0,0,1-7.13,9.42,6.18,6.18,0,0,1-4.13-3.62,6.34,6.34,0,0,1,2.29-7.7,1,1,0,0,0,.28-1.41,1,1,0,0,0-1.42-.28,8.35,8.35,0,1,0,13,6.92Zm0,0" transform="translate(-1.65 -1.5)" style="fill:#f05050;fill-opacity: 0.5;"/>
<rect x="7.1" width="2.5" height="8.48" rx="1.25" ry="1.25" style="fill:#f05050;fill-opacity:0.5;"/></svg>