<svg id="Layer_10" data-name="Layer 10" xmlns="http://www.w3.org/2000/svg" viewBox="0 0 17.7 17.7">
<title>set</title>
<path d="M10,13a3,3,0,1,1,3-3A3,3,0,0,1,10,13Zm0-4.36A1.33,1.33,0,1,0,11.33,10,1.34,1.34,0,0,0,10,8.67Z" transform="translate(-1.15 -1.15)" style="fill: #f05050;fill-opacity: .5;"/>
<path d="M10.06,18.85a2.31,2.31,0,0,1-2.31-2.3.37.37,0,0,0-.22-.37.38.38,0,0,0-.44.05,2.3,2.3,0,0,1-4-1.59A2.25,2.25,0,0,1,3.79,13a.38.38,0,0,0,.11-.43.37.37,0,0,0-.33-.22H3.45a2.31,2.31,0,0,1,0-4.61.36.36,0,0,0,.37-.22.38.38,0,0,0,0-.44,2.3,2.3,0,0,1,1.59-4h0A2.29,2.29,0,0,1,7,3.79a.37.37,0,0,0,.43.11l.14,0a.4.4,0,0,0,.14-.28V3.45a2.3,2.3,0,0,1,4.6,0,.39.39,0,0,0,.22.39.35.35,0,0,0,.39-.07A2.31,2.31,0,1,1,16.21,7a.38.38,0,0,0-.11.43.58.58,0,0,1,0,.14.4.4,0,0,0,.28.14h.12a2.3,2.3,0,1,1,0,4.6.39.39,0,0,0-.39.22h0a.35.35,0,0,0,.07.39,2.33,2.33,0,0,1,0,3.3l0,0a2.31,2.31,0,0,1-3.23,0,.38.38,0,0,0-.43-.11.37.37,0,0,0-.22.33v.12A2.3,2.3,0,0,1,10.06,18.85ZM7.34,14.43a2.11,2.11,0,0,1,.82.17,2,2,0,0,1,1.29,1.86.63.63,0,0,0,.61.69.6.6,0,0,0,.6-.6v-.13A2.06,2.06,0,0,1,14.16,15a.6.6,0,0,0,.9,0l0,0a.61.61,0,0,0,0-.84,2.06,2.06,0,0,1,1.42-3.55.62.62,0,0,0,.67-.6.6.6,0,0,0-.6-.6h-.13a2.07,2.07,0,0,1-1.88-1.25.73.73,0,0,1-.06-.21A2,2,0,0,1,15,5.84a.63.63,0,0,0,0-.9.6.6,0,0,0-.86,0A2.06,2.06,0,0,1,10.6,3.52a.62.62,0,0,0-.6-.67.6.6,0,0,0-.6.6v.13A2.07,2.07,0,0,1,8.15,5.46a.73.73,0,0,1-.21.06A2,2,0,0,1,5.84,5a.59.59,0,0,0-.9,0,.6.6,0,0,0-.18.43.58.58,0,0,0,.18.43A2.06,2.06,0,0,1,5.4,8.16,2,2,0,0,1,3.54,9.45a.63.63,0,0,0-.69.61.6.6,0,0,0,.6.6h.13A2.06,2.06,0,0,1,5,14.16a.66.66,0,0,0-.22.48.59.59,0,0,0,.17.42.6.6,0,0,0,.86,0A2.13,2.13,0,0,1,7.34,14.43Zm8-2.25h0Z" transform="translate(-1.15 -1.15)" style="fill: #f05050;fill-opacity: .5;"/></svg>