<svg xmlns="http://www.w3.org/2000/svg" viewBox="0 0 18 18"><title>about</title><g id="Layer_43" data-name="Layer 43"><path d="M15.92,19H4.08A3.08,3.08,0,0,1,1,15.92V4.08A3.08,3.08,0,0,1,4.08,1H15.92A3.08,3.08,0,0,1,19,4.08V15.92A3.08,3.08,0,0,1,15.92,19ZM4.08,2.23A1.85,1.85,0,0,0,2.23,4.08V15.92a1.85,1.85,0,0,0,1.85,1.85H15.92a1.85,1.85,0,0,0,1.85-1.85V4.08a1.85,1.85,0,0,0-1.85-1.85Z" transform="translate(-1 -1)" style="fill:#f05050;fill-opacity:0.8;"/><circle cx="9" cy="5.56" r="2.23" style="fill:#f05050;fill-opacity:0.8;"/><path d="M13.48,15.67h-7V13.25c0-2.06,1.3-3.74,2.9-3.74h1.16c1.6,0,2.9,1.68,2.9,3.74Z" transform="translate(-1 -1)" style="fill:#f05050;fill-opacity:0.8;"/></g></svg>