<svg xmlns="http://www.w3.org/2000/svg" viewBox="0 0 16 13.62"><title>PHOTOS</title><g id="Layer_37" data-name="Layer 37"><circle cx="3.45" cy="6" r="1.11" style="fill:#f05050"/><path d="M13.88,12.05,11.66,9.62a.27.27,0,0,0-.34,0L7.47,13.81l-1.83-2a.25.25,0,0,0-.17-.07.33.33,0,0,0-.17.07L3.85,13.38V15h10Z" transform="translate(-2 -3.19)" style="fill:#f05050"/><path d="M17.91,4.47a.51.51,0,0,0-.32-.17L4.84,3.19a.47.47,0,0,0-.5.42L4.14,5.9H2.45A.46.46,0,0,0,2,6.36v10a.45.45,0,0,0,.45.45h12.8a.45.45,0,0,0,.45-.45V15.09l.91.09h0a.6.6,0,0,0,.31-.1.45.45,0,0,0,.16-.32L18,4.81A.46.46,0,0,0,17.91,4.47ZM14.81,15.9H2.94V6.83H14.81Zm1.45-1.67-.54-.05V6.37a.45.45,0,0,0-.46-.45H5.08l.15-1.75,11.82,1Z" transform="translate(-2 -3.19)" style="fill:#f05050"/></g></svg>