<svg xmlns="http://www.w3.org/2000/svg" xmlns:xlink="http://www.w3.org/1999/xlink" width="125.944" height="169.127" viewBox="0 0 125.944 169.127">
    <defs>
        <style>
            .cls-1{fill:#dfe5eb}.cls-2{opacity:.8}.cls-3{fill:url(#linear-gradient)}.cls-4{fill:#d38f62}.cls-5{fill:#ffad76}.cls-6{fill:url(#linear-gradient-2)}.cls-7{fill:url(#linear-gradient-3)}.cls-8{fill:url(#linear-gradient-4)}.cls-9{fill:url(#linear-gradient-5)}.cls-10{fill:#f05050;opacity:.2}.cls-11{clip-path:url(#clip-path)}.cls-12,.cls-17{fill:#383838}.cls-12{opacity:.4}.cls-13,.cls-15{opacity:.75}.cls-14{fill:#edcaca}.cls-15{fill:#fff}.cls-16{fill:#7231ff}
        </style>
        <linearGradient id="linear-gradient" x2="1" y1=".5" y2=".5" gradientUnits="objectBoundingBox">
            <stop offset="0" stop-color="#f05050"/>
            <stop offset=".281" stop-color="#ec4e4e"/>
            <stop offset=".56" stop-color="#e04a4a"/>
            <stop offset=".838" stop-color="#c44"/>
            <stop offset="1" stop-color="#bd3f3f"/>
        </linearGradient>
        <linearGradient id="linear-gradient-2" x1=".5" x2=".5" y1="1.831" y2="-1.637" gradientUnits="objectBoundingBox">
            <stop offset="0"/>
            <stop offset=".455" stop-color="#060606"/>
            <stop offset="1" stop-color="#161616"/>
        </linearGradient>
        <linearGradient id="linear-gradient-3" x1=".5" x2=".5" y1="1.724" y2="-2.041" xlink:href="#linear-gradient-2"/>
        <linearGradient id="linear-gradient-4" x1=".5" x2=".5" y1="1.685" y2="-.517" xlink:href="#linear-gradient-2"/>
        <linearGradient id="linear-gradient-5" x1=".5" x2=".5" y1="3.85" y2="-2.434" xlink:href="#linear-gradient-2"/>
        <clipPath id="clip-path">
            <circle id="Ellipse_2" cx="56.606" cy="56.606" r="56.606" class="cls-1" data-name="Ellipse 2"/>
        </clipPath>
    </defs>
    <g id="Group_22" class="cls-2" data-name="Group 22" transform="translate(-13 -2629.873)">
        <g id="Group_9" data-name="Group 9" transform="translate(27.999 2629.873)">
            <g id="Group_2" data-name="Group 2" transform="translate(8.442)">
                <path id="Path_1" d="M104.722 2654.237a48.319 48.319 0 0 0 2.878 5.023 22.451 22.451 0 0 0 3.826 4.5 13.459 13.459 0 0 0 4.8 2.811 9.75 9.75 0 0 0 5.906-.081 8.9 8.9 0 0 0 6.35-5.651q1.51-4.233-.173-9.974-.694-2.362-1.406-4.171a23.578 23.578 0 0 0-1.57-3.268q-.857-1.462-1.841-2.945t-2.192-3.081a37.4 37.4 0 0 1 5.32-4.371 28.207 28.207 0 0 1 6.166-3.152q1.871 2.627 3.329 4.891t2.6 4.494a42.875 42.875 0 0 1 2.006 4.547q.862 2.315 1.654 5.016 3.961 13.508-.162 22.173T127.4 2682.8a20.052 20.052 0 0 1-9.712.646 24.9 24.9 0 0 1-7.909-3 30.135 30.135 0 0 1-6.01-4.656q-2.525-2.559-3.873-4.244l-10.244 3a46.46 46.46 0 0 1-2.886-7.343 37.6 37.6 0 0 1-1.4-7.29zm-45.134 12.008a53.522 53.522 0 0 1 8.021-3.083 55.683 55.683 0 0 1 8.527-1.768 53.561 53.561 0 0 1 3.085 8.02 55.674 55.674 0 0 1 1.766 8.528 54.891 54.891 0 0 1-8.02 3.084 53.9 53.9 0 0 1-8.528 1.767 54.872 54.872 0 0 1-3.085-8.019 54.137 54.137 0 0 1-1.766-8.529z" class="cls-3" data-name="Path 1" transform="translate(-59.588 -2629.873)"/>
            </g>
            <g id="Group_6" data-name="Group 6" transform="translate(0 66.186)">
                <path id="Path_2" d="M116.494 2827.643l-5.528 4.546c-5.537 4.546-9.8 3.018-9.8 3.018.136 2.946 1.782 5.555 5.046 6.046a9.562 9.562 0 0 0 10-5.337.885.885 0 0 0 .064-.655 1.066 1.066 0 0 0 .045-.245 68.84 68.84 0 0 1 .173-7.373z" class="cls-4" data-name="Path 2" transform="translate(-71.803 -2794.319)"/>
                <path id="Path_3" d="M117.55 2786.265a19.957 19.957 0 0 1-2.155 5.537c.736 2.091-1.655 4.827-3.128 6a9.522 9.522 0 0 1-1.263.827v.009c-1.025 1.114-4.822 4.278-5.273 4.652-5.1 4.221-9.688 3.159-9.688 3.159a8.96 8.96 0 0 1-2.867-.992 5.824 5.824 0 0 1-3.028-6.036c.091-1.673 1.837-7.346 2.391-10.682.354-2.082.482-4.182.7-6.273-.009-.209-.027-.409-.027-.618a12.578 12.578 0 1 1 24.338 4.418z" class="cls-5" data-name="Path 3" transform="translate(-66.313 -2765.314)"/>
                <g id="Group_5" data-name="Group 5">
                    <path id="Path_4" d="M55.757 2804.618c-2.792 2.809-7.766 2.979-10.484 6.114a11.209 11.209 0 0 0-1.61 11.391c2.122 5.451 7.77 9.329 13.261 8.875a164.5 164.5 0 0 1-1.167-26.38z" class="cls-6" data-name="Path 4" transform="translate(-42.809 -2782.879)"/>
                    <path id="Path_5" d="M182.49 2817.363q-.7 2.883-1.555 5.955c-1.844 6.512-4.584 13.824-6.364 18.377a12.406 12.406 0 0 0 7.5-2.387 14.6 14.6 0 0 0 5.172-9.034c.771-4.685-.888-10.23-4.753-12.911z" class="cls-7" data-name="Path 5" transform="translate(-108.273 -2789.211)"/>
                    <g id="Group_4" data-name="Group 4" transform="translate(21.063)">
                        <path id="Path_6" d="M124.045 2780.351a14.767 14.767 0 0 0-3.281-1.686c-.627-.247-1.355-.376-1.958-.669a3.954 3.954 0 0 1-2.424-2.817c-1.126-5.119-3.171-9.937-8.281-12.385a15.043 15.043 0 0 0-14.963 1.417 5.944 5.944 0 0 0-7.667 3.383 7.2 7.2 0 0 0-.307 5.828 5.768 5.768 0 0 0 2.444 2.586c.136 3.257 5.854 4.037 8.439 3.961a20.269 20.269 0 0 0 5.3-.833 12.49 12.49 0 0 0 5.6 7.978.386.386 0 0 0 .39.033c.1.034.22.017.359-.146a3.153 3.153 0 0 1 4.318-.585l.018.019c.013.011.023.025.035.037a2.809 2.809 0 0 1 .749 2.2c0 1.951-1.959 4.2-3.26 5.236a9.407 9.407 0 0 1-1.263.831 40.959 40.959 0 0 0-.282 8.279c.054-.034 8.863-5.618 17.3-21.458a6.63 6.63 0 0 0-1.266-1.209z" class="cls-8" data-name="Path 6" transform="translate(-84.671 -2761.413)"/>
                        <g id="Group_3" data-name="Group 3" transform="translate(2.01 13.977)">
                            <path id="Path_7" d="M91.823 2798.637c-.243 1.444-.707 3.325-1.163 5.132-.806-4.531-1.47-9.729-1.994-14.578a4.039 4.039 0 0 0 .927.618c.062 1.5 1.306 2.464 2.879 3.072-.192 1.919-.328 3.85-.649 5.756z" class="cls-9" data-name="Path 7" transform="translate(-88.666 -2789.192)"/>
                        </g>
                    </g>
                </g>
            </g>
            <g id="Group_8" data-name="Group 8" transform="translate(12.862 47.884)">
                <g id="Group_7" data-name="Group 7" transform="translate(0 14.334)">
                    <path id="Path_8" d="M161.821 2753.818a10.809 10.809 0 0 1-7.4-.291l.054.19c-.218.782-.427 1.555-.655 2.319-.109.382-.218.764-.336 1.136a8.312 8.312 0 0 1-.127.418c-.082.273-.164.555-.255.828q-.314 1.036-.655 2.045a105.792 105.792 0 0 1-1.445 4.137 69.354 69.354 0 0 1-.691 1.837l-.436 1.091a68.015 68.015 0 0 1-.664 1.627l-.491 1.146c-.127.3-.255.6-.391.891a115.16 115.16 0 0 1-1.182 2.573c-.127.273-.264.545-.4.818s-.264.545-.4.809a51.235 51.235 0 0 1-.8 1.573 87.861 87.861 0 0 1-4.018 6.928c-.264.418-.527.818-.791 1.209s-.527.782-.791 1.155c-.236.346-.482.691-.718 1.019a.283.283 0 0 0-.055.072 71.428 71.428 0 0 1-2.982 3.837.09.09 0 0 0-.036.045 42.022 42.022 0 0 1-1.355 1.555c-.227.255-.445.491-.664.727s-.418.455-.637.673a1.337 1.337 0 0 1-.109.118c-.282.291-.564.573-.827.837-.291.282-.564.545-.828.791a8.554 8.554 0 0 1-.527.491 26.386 26.386 0 0 1-3.318 2.673 10.145 10.145 0 0 1-3.217 3.738 137.94 137.94 0 0 0 5.381 32.7 136.51 136.51 0 0 0 6.218 17.019 67.248 67.248 0 0 0 3.61 7.137c.263-.154.527-.3.781-.464.227-.136.446-.272.673-.409a39.429 39.429 0 0 0 1.864-1.245v.018c.309-.228.609-.445.9-.664v-.018a32.4 32.4 0 0 0 5.991-5.9 28.793 28.793 0 0 0 1.846-2.7c.1-.164.2-.327.291-.491.118-.2.227-.391.328-.582.127-.246.246-.473.364-.691.154-.318.3-.618.418-.891.045-.091.081-.182.118-.264.091-.209.173-.4.236-.573.037-.082.064-.154.091-.227.227-.591.337-.982.382-1.109a.252.252 0 0 0 .009-.054 78.368 78.368 0 0 0-5.3-9.092c-5.764-9.091-1.673-17.882-.154-21.665s5.155-13.037 7.428-21.064c5.746-20.4 5.564-34.856 5.473-37.456a5.35 5.35 0 0 1 .199-.33z" class="cls-10" data-name="Path 8" transform="translate(-96.345 -2753.527)"/>
                    <path id="Path_9" d="M84.886 2799.422a9.714 9.714 0 0 1-2.513-.94 5.818 5.818 0 0 1-3.025-6.037 45.241 45.241 0 0 1 1.23-5.56c-2.307-12.972-3.452-31.424-3.452-31.424a.009.009 0 0 1 .009-.009 52.41 52.41 0 0 1-1.718.154 15.822 15.822 0 0 1-3.936-.136 8.267 8.267 0 0 1-.991-.246c.009.028.018.046.027.073-4.236 31.683-1.727 56.657 3.4 68.485 3.383-7.408 6.941-14.8 11.837-21.345a6.478 6.478 0 0 1-.868-3.015z" class="cls-10" data-name="Path 9" transform="translate(-68.371 -2754.371)"/>
                </g>
                <path id="Path_10" d="M182.017 2734.126a19.093 19.093 0 0 0 .909 5.446 10.336 10.336 0 0 0 7.227.347c1.6-2.664 4-7.439 1.7-9.784-.109-1.427-.637-2.891-1.809-3.455a2.1 2.1 0 0 0-1.163-1.491 1.617 1.617 0 0 0-1.937.446 6.543 6.543 0 0 0-2.982 2.891 10.636 10.636 0 0 0-1.928 4.891c-.008.237-.017.473-.017.709z" class="cls-5" data-name="Path 10" transform="translate(-124.834 -2725.04)"/>
                <path id="Path_11" d="M71.373 2739.963a3.849 3.849 0 0 1 .145.464 8.306 8.306 0 0 0 .991.245 15.827 15.827 0 0 0 3.937.136c.573-.046 1.146-.091 1.718-.155 1.555-2.391 4.582-7.91 2.027-10.519-.109-1.427-.646-2.891-1.818-3.455a2.062 2.062 0 0 0-1.154-1.491 1.63 1.63 0 0 0-1.946.446 6.586 6.586 0 0 0-2.982 2.891 10.622 10.622 0 0 0-1.919 4.891 18.693 18.693 0 0 0 1.001 6.547z" class="cls-5" data-name="Path 11" transform="translate(-69.355 -2725.04)"/>
            </g>
        </g>
        <g id="Group_20" data-name="Group 20" transform="translate(13 2685.788)">
            <circle id="Ellipse_1" cx="56.606" cy="56.606" r="56.606" class="cls-1" data-name="Ellipse 1"/>
            <g id="Group_19" class="cls-11" data-name="Group 19">
                <g id="Group_18" data-name="Group 18" transform="translate(14.999 -55.915)">
                    <path id="Path_12" d="M146.739 3163.614c0-3.228-16.884-5.844-37.711-5.844s-37.711 2.616-37.711 5.844 16.884 5.844 37.711 5.844 37.711-2.616 37.711-5.844z" class="cls-12" data-name="Path 12" transform="translate(-56.973 -2892.151)"/>
                    <g id="Group_10" class="cls-13" data-name="Group 10" transform="translate(8.442)">
                        <path id="Path_13" d="M104.722 2654.237a48.319 48.319 0 0 0 2.878 5.023 22.451 22.451 0 0 0 3.826 4.5 13.459 13.459 0 0 0 4.8 2.811 9.75 9.75 0 0 0 5.906-.081 8.9 8.9 0 0 0 6.35-5.651q1.51-4.233-.173-9.974-.694-2.362-1.406-4.171a23.578 23.578 0 0 0-1.57-3.268q-.857-1.462-1.841-2.945t-2.192-3.081a37.4 37.4 0 0 1 5.32-4.371 28.207 28.207 0 0 1 6.166-3.152q1.871 2.627 3.329 4.891t2.6 4.494a42.875 42.875 0 0 1 2.006 4.547q.862 2.315 1.654 5.016 3.961 13.508-.162 22.173T127.4 2682.8a20.052 20.052 0 0 1-9.712.646 24.9 24.9 0 0 1-7.909-3 30.135 30.135 0 0 1-6.01-4.656q-2.525-2.559-3.873-4.244l-10.244 3a46.46 46.46 0 0 1-2.886-7.343 37.6 37.6 0 0 1-1.4-7.29zm-45.134 12.008a53.522 53.522 0 0 1 8.021-3.083 55.683 55.683 0 0 1 8.527-1.768 53.561 53.561 0 0 1 3.085 8.02 55.674 55.674 0 0 1 1.766 8.528 54.891 54.891 0 0 1-8.02 3.084 53.9 53.9 0 0 1-8.528 1.767 54.872 54.872 0 0 1-3.085-8.019 54.137 54.137 0 0 1-1.766-8.529z" class="cls-3" data-name="Path 13" transform="translate(-59.588 -2629.873)"/>
                    </g>
                    <g id="Group_14" data-name="Group 14" transform="translate(0 66.186)">
                        <path id="Path_14" d="M116.494 2827.643l-5.528 4.546c-5.537 4.546-9.8 3.018-9.8 3.018.136 2.946 1.782 5.555 5.046 6.046a9.562 9.562 0 0 0 10-5.337.885.885 0 0 0 .064-.655 1.066 1.066 0 0 0 .045-.245 68.84 68.84 0 0 1 .173-7.373z" class="cls-4" data-name="Path 14" transform="translate(-71.803 -2794.319)"/>
                        <path id="Path_15" d="M117.55 2786.265a19.957 19.957 0 0 1-2.155 5.537c.736 2.091-1.655 4.827-3.128 6a9.522 9.522 0 0 1-1.263.827v.009c-1.025 1.114-4.822 4.278-5.273 4.652-5.1 4.221-9.688 3.159-9.688 3.159a8.96 8.96 0 0 1-2.867-.992 5.824 5.824 0 0 1-3.028-6.036c.091-1.673 1.837-7.346 2.391-10.682.354-2.082.482-4.182.7-6.273-.009-.209-.027-.409-.027-.618a12.578 12.578 0 1 1 24.338 4.418z" class="cls-5" data-name="Path 15" transform="translate(-66.313 -2765.314)"/>
                        <g id="Group_13" data-name="Group 13">
                            <path id="Path_16" d="M55.757 2804.618c-2.792 2.809-7.766 2.979-10.484 6.114a11.209 11.209 0 0 0-1.61 11.391c2.122 5.451 7.77 9.329 13.261 8.875a164.5 164.5 0 0 1-1.167-26.38z" class="cls-6" data-name="Path 16" transform="translate(-42.809 -2782.879)"/>
                            <path id="Path_17" d="M182.49 2817.363q-.7 2.883-1.555 5.955c-1.844 6.512-4.584 13.824-6.364 18.377a12.406 12.406 0 0 0 7.5-2.387 14.6 14.6 0 0 0 5.172-9.034c.771-4.685-.888-10.23-4.753-12.911z" class="cls-7" data-name="Path 17" transform="translate(-108.273 -2789.211)"/>
                            <g id="Group_12" data-name="Group 12" transform="translate(21.063)">
                                <path id="Path_18" d="M124.045 2780.351a14.767 14.767 0 0 0-3.281-1.686c-.627-.247-1.355-.376-1.958-.669a3.954 3.954 0 0 1-2.424-2.817c-1.126-5.119-3.171-9.937-8.281-12.385a15.043 15.043 0 0 0-14.963 1.417 5.944 5.944 0 0 0-7.667 3.383 7.2 7.2 0 0 0-.307 5.828 5.768 5.768 0 0 0 2.444 2.586c.136 3.257 5.854 4.037 8.439 3.961a20.269 20.269 0 0 0 5.3-.833 12.49 12.49 0 0 0 5.6 7.978.386.386 0 0 0 .39.033c.1.034.22.017.359-.146a3.153 3.153 0 0 1 4.318-.585l.018.019c.013.011.023.025.035.037a2.809 2.809 0 0 1 .749 2.2c0 1.951-1.959 4.2-3.26 5.236a9.407 9.407 0 0 1-1.263.831 40.959 40.959 0 0 0-.282 8.279c.054-.034 8.863-5.618 17.3-21.458a6.63 6.63 0 0 0-1.266-1.209z" class="cls-8" data-name="Path 18" transform="translate(-84.671 -2761.413)"/>
                                <g id="Group_11" data-name="Group 11" transform="translate(2.01 13.977)">
                                    <path id="Path_19" d="M91.823 2798.637c-.243 1.444-.707 3.325-1.163 5.132-.806-4.531-1.47-9.729-1.994-14.578a4.039 4.039 0 0 0 .927.618c.062 1.5 1.306 2.464 2.879 3.072-.192 1.919-.328 3.85-.649 5.756z" class="cls-9" data-name="Path 19" transform="translate(-88.666 -2789.192)"/>
                                </g>
                            </g>
                        </g>
                    </g>
                    <g id="Group_16" data-name="Group 16" transform="translate(3.881 47.884)">
                        <g id="Group_15" data-name="Group 15" transform="translate(0 14.334)">
                            <path id="Path_20" d="M161.821 2753.818a10.809 10.809 0 0 1-7.4-.291l.054.19c-.218.782-.427 1.555-.655 2.319-.109.382-.218.764-.336 1.136a8.312 8.312 0 0 1-.127.418c-.082.273-.164.555-.255.828q-.314 1.036-.655 2.045a105.792 105.792 0 0 1-1.445 4.137 69.354 69.354 0 0 1-.691 1.837l-.436 1.091a68.015 68.015 0 0 1-.664 1.627l-.491 1.146c-.127.3-.255.6-.391.891a115.16 115.16 0 0 1-1.182 2.573c-.127.273-.264.545-.4.818s-.264.545-.4.809a51.235 51.235 0 0 1-.8 1.573 87.861 87.861 0 0 1-4.018 6.928c-.264.418-.527.818-.791 1.209s-.527.782-.791 1.155c-.236.346-.482.691-.718 1.019a.283.283 0 0 0-.055.072 71.428 71.428 0 0 1-2.982 3.837.09.09 0 0 0-.036.045 42.022 42.022 0 0 1-1.355 1.555c-.227.255-.445.491-.664.727s-.418.455-.637.673a1.337 1.337 0 0 1-.109.118c-.282.291-.564.573-.827.837-.291.282-.564.545-.828.791a8.554 8.554 0 0 1-.527.491 26.386 26.386 0 0 1-3.318 2.673 10.145 10.145 0 0 1-3.217 3.738 137.94 137.94 0 0 0 5.381 32.7 136.51 136.51 0 0 0 6.218 17.019 67.248 67.248 0 0 0 3.61 7.137c.263-.154.527-.3.781-.464.227-.136.446-.272.673-.409a39.429 39.429 0 0 0 1.864-1.245v.018c.309-.228.609-.445.9-.664v-.018a32.4 32.4 0 0 0 5.991-5.9 28.793 28.793 0 0 0 1.846-2.7c.1-.164.2-.327.291-.491.118-.2.227-.391.328-.582.127-.246.246-.473.364-.691.154-.318.3-.618.418-.891.045-.091.081-.182.118-.264.091-.209.173-.4.236-.573.037-.082.064-.154.091-.227.227-.591.337-.982.382-1.109a.252.252 0 0 0 .009-.054 78.368 78.368 0 0 0-5.3-9.092c-5.764-9.091-1.673-17.882-.154-21.665s5.155-13.037 7.428-21.064c5.746-20.4 5.564-34.856 5.473-37.456a5.35 5.35 0 0 1 .199-.33z" class="cls-14" data-name="Path 20" transform="translate(-87.364 -2753.527)"/>
                            <path id="Path_21" d="M65.968 2909.739a24.23 24.23 0 0 1-1.28-4.435 69.794 69.794 0 0 1-14.029 18.668.4.4 0 0 0-.067.526.469.469 0 0 0 .032.123 20.1 20.1 0 0 0 10.433 9.718c.711-7.27 4.911-24.6 4.911-24.6z" class="cls-10" data-name="Path 21" transform="translate(-50.523 -2828.935)"/>
                            <path id="Path_22" d="M84.886 2799.422a9.714 9.714 0 0 1-2.513-.94 5.818 5.818 0 0 1-3.025-6.037 45.241 45.241 0 0 1 1.23-5.56c-2.307-12.972-3.452-31.424-3.452-31.424a.009.009 0 0 1 .009-.009 52.41 52.41 0 0 1-1.718.154 15.822 15.822 0 0 1-3.936-.136 8.267 8.267 0 0 1-.991-.246c.009.028.018.046.027.073-4.236 31.683-1.727 56.657 3.4 68.485 3.383-7.408 6.941-14.8 11.837-21.345a6.478 6.478 0 0 1-.868-3.015z" class="cls-14" data-name="Path 22" transform="translate(-59.39 -2754.371)"/>
                        </g>
                        <path id="Path_23" d="M103.528 2883a137.9 137.9 0 0 1-5.381-32.7 9.288 9.288 0 0 1-6.783 1.6 5.54 5.54 0 0 1-4.164-2.834c-4.9 6.545-8.454 13.936-11.837 21.344 0 .009.009.018.009.027-1.973 4.546.909 11.364.909 11.364s-4.7 19.392-5 25.756c4.391 4.246 12.574 6.673 25.91 5a48.469 48.469 0 0 0 16.165-5.4 67.275 67.275 0 0 1-3.61-7.137 136.491 136.491 0 0 1-6.218-17.02z" class="cls-15" data-name="Path 23" transform="translate(-60.836 -2786.657)"/>
                        <path id="Path_24" d="M182.017 2734.126a19.093 19.093 0 0 0 .909 5.446 10.336 10.336 0 0 0 7.227.347c1.6-2.664 4-7.439 1.7-9.784-.109-1.427-.637-2.891-1.809-3.455a2.1 2.1 0 0 0-1.163-1.491 1.617 1.617 0 0 0-1.937.446 6.543 6.543 0 0 0-2.982 2.891 10.636 10.636 0 0 0-1.928 4.891c-.008.237-.017.473-.017.709z" class="cls-5" data-name="Path 24" transform="translate(-115.854 -2725.04)"/>
                        <path id="Path_25" d="M71.373 2739.963a3.849 3.849 0 0 1 .145.464 8.306 8.306 0 0 0 .991.245 15.827 15.827 0 0 0 3.937.136c.573-.046 1.146-.091 1.718-.155 1.555-2.391 4.582-7.91 2.027-10.519-.109-1.427-.646-2.891-1.818-3.455a2.062 2.062 0 0 0-1.154-1.491 1.63 1.63 0 0 0-1.946.446 6.586 6.586 0 0 0-2.982 2.891 10.622 10.622 0 0 0-1.919 4.891 18.693 18.693 0 0 0 1.001 6.547z" class="cls-5" data-name="Path 25" transform="translate(-60.374 -2725.04)"/>
                    </g>
                    <g id="Group_17" data-name="Group 17" transform="translate(19.833 157.64)">
                        <path id="Path_26" d="M112.461 3150.542s-6.414 7.931-12.4 10.658c4.019 2.121 14.424.858 21.455-2.779 1.576-3.333-.545-7.88-.545-7.88z" class="cls-16" data-name="Path 26" transform="translate(-91.09 -3046.2)"/>
                        <path id="Path_27" d="M253.732 3004.8s-.455-4.546 1.969-6.364c3.182.606 12.425 2.727 19.092 3.182 1.666 2.879-15.675 6.4-15.91 6.97a49.967 49.967 0 0 0-5.151-3.788z" class="cls-16" data-name="Path 27" transform="translate(-167.42 -2970.631)"/>
                        <path id="Path_28" d="M168.538 2977.344s-16.516 16.062-19.243 5.758c-2.524-9.535-8.347-32.6-18.844-39.931-3.17 4.952-9.868 11.913-23.277 15.2l-.328.078c-.816.194-1.653.377-2.519.544-.562.108-1.113.223-1.7.318-9.021 1.131-15.677.383-20.4-1.531 1.8 13.154 8.51 57.179 21.358 89.812a37.8 37.8 0 0 0 8.528-.076c-.283-6.511-1.532-45.6 1.951-69.076 2.457 2.893 12.7 13.947 21.626 20.361 0 0 5.919 4.212 9.425 4.933 4.5 1.369 9.016 1.141 13.12-1.839 6.85-4.974 12.273-12.728 15.455-20.759z" class="cls-17" data-name="Path 28" transform="translate(-82.227 -2943.171)"/>
                    </g>
                </g>
            </g>
        </g>
        <g id="Group_21" data-name="Group 21" transform="translate(110.464 2715.105)">
            <path id="Path_29" d="M219.234 2813.123a18.881 18.881 0 0 0 1.987 1.078 8.772 8.772 0 0 0 2.2.711 5.265 5.265 0 0 0 2.171-.051 3.813 3.813 0 0 0 1.946-1.24 3.478 3.478 0 0 0 .95-3.181 6.259 6.259 0 0 0-2.105-3.279q-.715-.642-1.324-1.1a9.23 9.23 0 0 0-1.193-.764q-.585-.309-1.216-.6t-1.361-.577a14.594 14.594 0 0 1 .87-2.544 11.021 11.021 0 0 1 1.4-2.313q1.162.489 2.111.941t1.787.959a16.761 16.761 0 0 1 1.6 1.1q.762.592 1.579 1.327 4.089 3.675 4.5 7.4a8.722 8.722 0 0 1-2.5 6.963 7.833 7.833 0 0 1-3.094 2.208 9.728 9.728 0 0 1-3.244.627 11.773 11.773 0 0 1-2.953-.313q-1.365-.332-2.158-.615l-2.788 3.1a18.21 18.21 0 0 1-2.467-1.847 14.711 14.711 0 0 1-1.963-2.134zm-12.534 13.256a20.954 20.954 0 0 1 2.032-2.671 21.7 21.7 0 0 1 2.471-2.338 20.889 20.889 0 0 1 2.671 2.032 21.687 21.687 0 0 1 2.338 2.471 21.447 21.447 0 0 1-2.032 2.67 21.018 21.018 0 0 1-2.471 2.338 21.409 21.409 0 0 1-2.671-2.031 21.115 21.115 0 0 1-2.338-2.471z" class="cls-3" data-name="Path 29" transform="translate(-206.703 -2799.266)"/>
        </g>
    </g>
</svg>
