<svg id="Layer_21" data-name="Layer 21" xmlns="http://www.w3.org/2000/svg" viewBox="0 0 19 19"><title>comment</title><path id="_3" data-name=" 3" d="M9.5,16.25a10.48,10.48,0,0,1-1.68-.14L3.88,18.5v-4A7.55,7.55,0,0,1,.5,8.38C.5,4,4.53.5,9.5.5s9,3.53,9,7.88S14.47,16.25,9.5,16.25Zm0-14.62c-4.35,0-7.87,3-7.87,6.75A6.51,6.51,0,0,0,5,13.9l0,2.61L7.6,14.92a10.05,10.05,0,0,0,1.9.21c4.35,0,7.88-3,7.88-6.75S13.85,1.63,9.5,1.63ZM14,9.5a1.13,1.13,0,1,1,1.13-1.12A1.12,1.12,0,0,1,14,9.5Zm-4.5,0a1.13,1.13,0,1,1,1.13-1.12A1.12,1.12,0,0,1,9.5,9.5ZM5,9.5A1.13,1.13,0,1,1,6.13,8.38,1.12,1.12,0,0,1,5,9.5Z" style="fill:#8c8c8c;"/></svg>