<svg id="Layer_48" data-name="Layer 48" xmlns="http://www.w3.org/2000/svg" viewBox="0 0 19 19"><title>img</title><path id="_6" data-name=" 6" d="M16.25,18.5H2.75A2.25,2.25,0,0,1,.5,16.25V2.75A2.25,2.25,0,0,1,2.75.5h13.5A2.25,2.25,0,0,1,18.5,2.75v13.5A2.25,2.25,0,0,1,16.25,18.5Zm0-1.12a1.14,1.14,0,0,0,1.13-1.13v-4.5L14,8.37,9.2,13.18l4.14,4.2ZM1.63,16.25a1.13,1.13,0,0,0,1.12,1.13h9L6.09,11.72l-4.46,4ZM17.38,2.75a1.13,1.13,0,0,0-1.13-1.12H2.75A1.12,1.12,0,0,0,1.63,2.75V14.19l4.5-4.13,2.28,2.32L14,6.69l3.38,3.44V2.75ZM5,7.25A2.25,2.25,0,1,1,7.25,5,2.25,2.25,0,0,1,5,7.25ZM5,3.88A1.12,1.12,0,1,0,6.13,5,1.13,1.13,0,0,0,5,3.88Z" style="fill:#2c2e2f"/></svg>