<svg xmlns="http://www.w3.org/2000/svg" id="prefix__noun_hint_3358032" width="18" height="17.54" viewBox="0 0 18 17.54">
    <defs>
        <style>
            .prefix__cls-2{fill:rgba(44,46,47,.8);opacity:.6}
        </style>
    </defs>
    <g id="prefix__Group_343" data-name="Group 343">
        <path id="prefix__Path_318" fill="rgba(44,46,47,0.8)" d="M28.294 24.1a5.472 5.472 0 0 0-2.946 10.032l.557 3.344a.793.793 0 0 0 .776.665h3.225a.793.793 0 0 0 .776-.665l.557-3.364A5.459 5.459 0 0 0 28.294 24.1zm.936 12.449h-1.871l-.279-1.692a5.3 5.3 0 0 0 2.428 0zM29 33.245a9.939 9.939 0 0 1-1.592 0 4.5 4.5 0 0 1-2.826-3.706 4.213 4.213 0 0 1 3.712-3.739 4.144 4.144 0 0 1 3.641 3.736A4.622 4.622 0 0 1 29 33.245z" data-name="Path 318" transform="translate(-19.294 -20.6)"/>
        <path id="prefix__Path_319" d="M46.806 8.88a.808.808 0 0 0 .806-.806V6.906a.806.806 0 1 0-1.612 0v1.168a.808.808 0 0 0 .806.806z" class="prefix__cls-2" data-name="Path 319" transform="translate(-37.806 -6.1)"/>
        <path id="prefix__Path_320" d="M73.1 18.342a.779.779 0 0 0-1.128 0l-.826.826a.779.779 0 0 0 0 1.128.779.779 0 0 0 1.128 0l.826-.826a.779.779 0 0 0 0-1.128z" class="prefix__cls-2" data-name="Path 320" transform="translate(-57.755 -15.683)"/>
        <path id="prefix__Path_321" d="M83.174 47.2h-1.168a.806.806 0 1 0 0 1.612h1.168a.806.806 0 1 0 0-1.612z" class="prefix__cls-2" data-name="Path 321" transform="translate(-65.98 -38.986)"/>
        <path id="prefix__Path_322" d="M19.2 20.3a.779.779 0 0 0 0-1.128l-.826-.826a.8.8 0 0 0-1.128 1.128l.826.826a.779.779 0 0 0 1.128 0z" class="prefix__cls-2" data-name="Path 322" transform="translate(-14.583 -15.683)"/>
        <path id="prefix__Path_323" d="M6.954 47.2H5.806a.806.806 0 1 0 0 1.612h1.168a.808.808 0 0 0 .806-.806.826.826 0 0 0-.826-.806z" class="prefix__cls-2" data-name="Path 323" transform="translate(-5 -38.986)"/>
    </g>
</svg>
