<svg xmlns="http://www.w3.org/2000/svg" width="55.105" height="62.542" viewBox="0 0 55.105 62.542">
    <g>
        <path fill="#cee1f2" d="M108.395 34.02a14.025 14.025 0 0 1 9.692-13.338 14.02 14.02 0 1 0 0 26.676 14.025 14.025 0 0 1-9.692-13.338z" transform="translate(-30.5) translate(-60.798 -17.562)"/>
        <path fill="#4897ff" d="M32.938 62.42a2.438 2.438 0 0 1-2.438-2.438 22.213 22.213 0 0 1 22.188-22.189h3.657a22.107 22.107 0 0 1 7.807 1.413 2.438 2.438 0 1 1-1.716 4.565 17.249 17.249 0 0 0-6.091-1.1h-3.657a17.331 17.331 0 0 0-17.311 17.311 2.438 2.438 0 0 1-2.438 2.438zm37.794-45.962a16.458 16.458 0 1 0-16.459 16.459 16.477 16.477 0 0 0 16.459-16.459zm-4.877 0A11.582 11.582 0 1 1 54.273 4.877a11.595 11.595 0 0 1 11.582 11.581z" transform="translate(-30.5)"/>
        <path fill="#f05050" d="M242.979 354.336a2.438 2.438 0 0 1-2.438-2.438v-6.44a2.585 2.585 0 0 0-2.582-2.582h-6.44a2.438 2.438 0 0 1 0-4.877h6.44a7.467 7.467 0 0 1 7.458 7.458v6.44a2.438 2.438 0 0 1-2.438 2.439zm-6.04-3.925a2.438 2.438 0 0 0-3.527-3.368 24.078 24.078 0 0 1-17.334 7.415h-1.139a2.438 2.438 0 1 0 0 4.877h1.139a28.977 28.977 0 0 0 20.86-8.924z" transform="translate(-30.5) translate(-159.812 -296.793)"/>
    </g>
</svg>
