<svg xmlns="http://www.w3.org/2000/svg" width="63.605" height="53.495" viewBox="0 0 63.605 53.495">
    <defs>
        <style>
            .cls-1{fill:#fff}.cls-3{fill:#454b54}
        </style>
    </defs>
    <g id="icons8-area-chart" transform="translate(-5.988 -15.2)">
        <path id="Path_623" d="M59.262 68.407H19.03A10.035 10.035 0 0 1 9 58.376V28.23A10.035 10.035 0 0 1 19.03 18.2h40.177a10.035 10.035 0 0 1 10.03 10.03v30.146a9.954 9.954 0 0 1-9.975 10.031z" class="cls-1" data-name="Path 623" transform="translate(-1.361 -1.356)"/>
        <path id="Path_624" d="M59.262 68.407H19.03A10.035 10.035 0 0 1 9 58.376V28.23A10.035 10.035 0 0 1 19.03 18.2h40.177a10.035 10.035 0 0 1 10.03 10.03v30.146a9.954 9.954 0 0 1-9.975 10.031z" class="cls-1" data-name="Path 624" transform="translate(-1.361 -1.356)"/>
        <path id="Path_625" fill="#f05050" d="M59.262 82.28H19.03A10.035 10.035 0 0 1 9 72.249V58.163l14.58 10.03 15.566-18.087L53.726 61.4l15.566-12.5v23.349a10.035 10.035 0 0 1-10.03 10.031z" data-name="Path 625" transform="translate(-1.361 -15.229)"/>
        <path id="Path_626" d="M22.219 68.567a1.848 1.848 0 0 1-.932-.274L6.707 58.208a1.657 1.657 0 1 1 1.864-2.741l13.374 9.208 14.634-16.991a1.625 1.625 0 0 1 2.247-.219l13.539 10.579 14.58-11.73a1.639 1.639 0 0 1 2.028 2.576l-15.566 12.5a1.575 1.575 0 0 1-2.028 0L38 51.083 23.479 67.965a1.726 1.726 0 0 1-1.26.602z" class="cls-3" data-name="Path 626" transform="translate(0 -13.904)"/>
        <circle id="Ellipse_35" cx="5.043" cy="5.043" r="5.043" class="cls-1" data-name="Ellipse 35" transform="translate(17.176 47.977)"/>
        <circle id="Ellipse_36" cx="5.043" cy="5.043" r="5.043" class="cls-1" data-name="Ellipse 36" transform="translate(47.322 41.18)"/>
        <circle id="Ellipse_37" cx="5.043" cy="5.043" r="5.043" class="cls-1" data-name="Ellipse 37" transform="translate(32.742 29.889)"/>
        <path id="Path_627" d="M30.087 85.274a6.687 6.687 0 1 1 6.687-6.687 6.714 6.714 0 0 1-6.687 6.687zm0-10.03a3.4 3.4 0 1 0 3.4 3.4 3.415 3.415 0 0 0-3.4-3.401z" class="cls-3" data-name="Path 627" transform="translate(-7.868 -25.622)"/>
        <path id="Path_628" d="M85.087 72.974a6.687 6.687 0 1 1 6.687-6.687 6.714 6.714 0 0 1-6.687 6.687zm0-10.085a3.4 3.4 0 1 0 3.4 3.4 3.415 3.415 0 0 0-3.4-3.4z" class="cls-3" data-name="Path 628" transform="translate(-32.722 -20.064)"/>
        <path id="Path_629" d="M58.487 52.319a6.66 6.66 0 1 1 6.687-6.632 6.714 6.714 0 0 1-6.687 6.632zm0-10.03a3.4 3.4 0 1 0 3.4 3.4 3.415 3.415 0 0 0-3.4-3.4z" class="cls-3" data-name="Path 629" transform="translate(-20.702 -10.755)"/>
        <path id="Path_630" d="M57.906 68.7H17.675A11.684 11.684 0 0 1 6 57.021V26.875A11.684 11.684 0 0 1 17.675 15.2h40.176a11.684 11.684 0 0 1 11.675 11.675v30.146A11.6 11.6 0 0 1 57.906 68.7zM17.675 18.489a8.386 8.386 0 0 0-8.386 8.386v30.146a8.386 8.386 0 0 0 8.386 8.386h40.176a8.386 8.386 0 0 0 8.386-8.386V26.875a8.386 8.386 0 0 0-8.386-8.386z" class="cls-3" data-name="Path 630" transform="translate(-.005)"/>
    </g>
</svg>
