<svg xmlns="http://www.w3.org/2000/svg" width="421.673" height="568.103" viewBox="0 0 421.673 568.103">
    <defs>
        <style>
            .cls-2{fill:#212a54}.cls-3{fill:#f7b68b}.cls-4{fill:#ec9568}.cls-6{fill:#98d14a}.cls-9{fill:#0450cf}.cls-10{fill:#f4da80}.cls-11{fill:#0561fc}.cls-12{fill:#fd8838}.cls-15{fill:#c5e1f9}.cls-17{fill:#69aeeb}.cls-18{fill:#fff}
        </style>
    </defs>
    <g id="Group_686" data-name="Group 686" transform="translate(-170 -1480.77)">
        <g id="Group_517" data-name="Group 517" transform="translate(-2639.82 -311.377)">
            <g id="Group_488" data-name="Group 488" transform="translate(2819.677 1792.147)">
                <path id="Path_678" fill="#4897ff" d="M3138.163 1792.743c38.7 4.156 135.589 26.183 128.108 108.471-6.774 74.51-99.277 60.621-155.027 73.426-95.579 21.954-101.189 103.307-176.932 78.059-78.809-26.269-102.28-80.535-55.51-127.421s79.037-14.786 88.452-60.86 121.316-77.003 170.909-71.675z" data-name="Path 678" opacity="0.34" transform="translate(-2854.864 -1792.147)"/>
            </g>
            <g id="Group_501" data-name="Group 501" transform="translate(2873.667 1802.693)">
                <g id="Group_489" data-name="Group 489">
                    <path id="Path_679" d="M3132.239 1963.677s-16.372-53.633-27.286-59.379 7.274-19.152 20.01-9.576 1.819 17.238 1.819 17.238-36.383-36.392-7.277-45.97 36.382-11.493 41.839 5.746-21.829 17.238-16.372 1.915 60.03-55.547 52.754-17.238-5.457 24.9-14.552 21.07 23.648-36.395 32.743-21.07 7.275 38.309 1.818 44.056-1.818 0-7.275 15.323-32.743 9.577-43.657 24.9-9.098 15.324-34.564 22.985z" class="cls-2" data-name="Path 679" transform="translate(-3101.606 -1840.343)"/>
                </g>
                <g id="Group_490" data-name="Group 490" transform="translate(34.764 110.079)">
                    <path id="Path_680" d="M3286.157 2349.508s7.961 7.959-3.185 30.251-35.027 21.493-14.33 81.2 63.687-6.368 78.813-12.737 6.369-36.62-3.185-50.95-31.047-10.348-37.416-23.883-4.776-16.718 1.593-26.27-22.29 2.389-22.29 2.389z" class="cls-3" data-name="Path 680" transform="translate(-3260.482 -2343.416)"/>
                </g>
                <g id="Group_491" data-name="Group 491" transform="translate(57.015 110.079)">
                    <path id="Path_681" d="M3362.171 2380.222a78 78 0 0 0 22.123-11.4c-3.9-9.847-1.991-13.329 3.592-21.7 6.369-9.552-22.291 2.389-22.291 2.389s7.961 7.959-3.185 30.251c-.078.154-.16.305-.239.46z" class="cls-4" data-name="Path 681" transform="translate(-3362.171 -2343.416)"/>
                </g>
                <g id="Group_493" data-name="Group 493" transform="translate(34.12 149.86)">
                    <g id="Group_492" data-name="Group 492">
                        <path id="Path_682" fill="#b3db53" d="M3341.972 2539.3c-5.921-8.884-16.432-10.732-25.085-14.075.935 8.078-1.963 15.65-8.243 19.4-9.249 5.521-22.319.664-29.193-10.851a29.958 29.958 0 0 1-2.627-5.658c-11.8 16.454-30.463 21.933-10.479 74.871 19.7 52.191 70.954-4.174 82.237-14.9 7.128-6.787 2.943-34.459-6.61-48.787z" data-name="Path 682" transform="translate(-3257.539 -2525.223)"/>
                    </g>
                </g>
                <g id="Group_494" data-name="Group 494" transform="translate(13.857 35.265)">
                    <path id="Path_683" d="M3181.265 2037.037s15.125 7.165 24.679-12.737l9.553-19.9s16.718 7.165 22.291-1.592 18.311 28.659 15.922 57.319-28.066 45.808-54.931 26.27c-8.757-6.368-14.782-6.664-23.086-9.553-18.311-6.367-9.554-23.882-.8-20.7s8.756 9.552 11.94 5.572 2.751-17.78-5.568-24.679z" class="cls-3" data-name="Path 683" transform="translate(-3164.935 -2001.508)"/>
                </g>
                <g id="Group_495" data-name="Group 495" transform="translate(34.764 170.977)">
                    <path id="Path_684" d="M3314.095 2694.038c-7.854-17.752-13.147-28.555-31.122-56.264-5.578-8.6-11.9-13.464-18.063-16.046-5.655 10.108-7.328 24.736 3.734 56.646 11.25 32.451 29.085 27.745 45.451 15.664z" class="cls-6" data-name="Path 684" transform="translate(-3260.484 -2621.728)"/>
                </g>
                <g id="Group_496" data-name="Group 496" transform="translate(107.385 154.987)">
                    <path id="Path_685" d="M3603.537 2557.6a25.523 25.523 0 0 0-11.168-8.948c4.974 8.788 13.4 27.3 17.886 57.6 9.992-9.426 1.97-35.619-6.718-48.652z" class="cls-6" data-name="Path 685" transform="translate(-3592.369 -2548.652)"/>
                </g>
                <g id="Group_497" data-name="Group 497" transform="translate(73.452 60.143)">
                    <path id="Path_686" d="M3445.055 2138.171c-5.934-9.913-7.747-22.71-7.765-22.838l.926-.127c.018.126 1.807 12.739 7.641 22.485z" class="cls-2" data-name="Path 686" transform="translate(-3437.29 -2115.206)"/>
                </g>
                <g id="Group_498" data-name="Group 498" transform="translate(53.843 67.609)">
                    <path id="Path_687" d="M3348.332 2165.057c-.689-4.137-2.125-12.746 3.993-15.367a4.477 4.477 0 0 1 3.581.013c4.591 1.885 8.036 10.235 8.181 10.589l-.866.353c-.034-.083-3.441-8.342-7.67-10.077a3.527 3.527 0 0 0-2.856-.019c-5.443 2.332-4.089 10.451-3.439 14.353z" class="cls-2" data-name="Path 687" transform="translate(-3347.677 -2149.323)"/>
                </g>
                <g id="Group_499" data-name="Group 499" transform="translate(84.068 59.604)">
                    <path id="Path_688" d="M3487.025 2129.609a54.931 54.931 0 0 1-1.105-7.135c-.412-5.078.3-8.205 2.116-9.294a3.5 3.5 0 0 1 3.672.175c3.486 1.974 7.385 8.958 7.385 15.351h-.935c0-5.984-3.715-12.728-6.911-14.538a2.6 2.6 0 0 0-2.729-.187c-3.024 1.814-1.445 11.741-.582 15.413z" class="cls-2" data-name="Path 688" transform="translate(-3485.807 -2112.74)"/>
                </g>
                <g id="Group_500" data-name="Group 500" transform="translate(70.6 101.094)">
                    <path id="Path_689" d="M3434.78 2307.793c-5.151 0-10.285-4.531-10.522-4.742l.623-.7c.06.054 6.072 5.355 11.221 4.385 2.15-.405 3.88-1.871 5.141-4.357l.834.423c-1.4 2.759-3.353 4.392-5.8 4.853a8.06 8.06 0 0 1-1.497.138z" class="cls-2" data-name="Path 689" transform="translate(-3424.258 -2302.354)"/>
                </g>
            </g>
            <g id="Group_510" data-name="Group 510" transform="translate(3045.903 1902.595)">
                <g id="Group_502" data-name="Group 502" transform="translate(9.358)">
                    <path id="Path_690" fill="#fec12f" d="M4052.479 2401.391c22.635-28.733 23.68-65.661-7.671-90.358s-67.006-15.034-89.642 13.705c-17.657 22.413-8.072 42.576-9.378 71.674-.259 5.76-14.273 18.119-14.273 18.119l39.2 30.88s8.733-16.523 14.272-18.117c27.988-8.094 49.834-3.486 67.492-25.903z" data-name="Path 690" transform="translate(-3931.516 -2296.907)"/>
                </g>
                <g id="Group_503" data-name="Group 503" transform="translate(9.358 4.227)">
                    <path id="Path_691" fill="#ffab01" d="M3955.432 2432.93c1.808-40.212-11.441-68.074 12.96-99.049a115.8 115.8 0 0 1 17.15-17.655c-11.364 4.58-21.8 12.72-30.375 23.6-17.657 22.413-8.072 42.576-9.378 71.674-.259 5.76-14.273 18.119-14.273 18.119l17.98 14.164c3.24-3.983 5.812-8.003 5.936-10.853z" data-name="Path 691" transform="translate(-3931.516 -2316.226)"/>
                </g>
                <g id="Group_504" data-name="Group 504" transform="translate(0 117.093)">
                    <path id="Path_692" d="M3897.435 2832.035l-4.257 5.4a20.646 20.646 0 0 0 3.44 29l8.109 6.387a20.648 20.648 0 0 0 29-3.445l4.255-5.4z" class="cls-9" data-name="Path 692" transform="translate(-3888.748 -2832.035)"/>
                </g>
                <g id="Group_505" data-name="Group 505" transform="translate(60.878 40.99)">
                    <path id="Path_693" d="M4219.93 2530.014l-5.162-.06.113-9.666-12.622 3.208.172-13.006-12.607 3.209.171-13-12.6 3.219.172-13-9.321 2.39-1.282-5 15.854-4.065-.172 13.007 12.6-3.219-.171 13.009 12.607-3.209-.172 13.009 12.611-3.2z" class="cls-10" data-name="Path 693" transform="translate(-4166.967 -2484.238)"/>
                </g>
                <g id="Group_506" data-name="Group 506" transform="translate(22.144 59.422)">
                    <path id="Path_694" d="M3994 2638.837l-4.054-3.194 26.54-33.687 11.983-33.482 4.86 1.74-12.267 34.275z" class="cls-10" data-name="Path 694" transform="translate(-3989.95 -2568.474)"/>
                </g>
                <g id="Group_507" data-name="Group 507" transform="translate(34.586 82.092)">
                    <path id="Path_695" d="M4050.863 2729.572l-4.054-3.194 27.062-34.352 30.448-19.95 2.829 4.317-29.743 19.488z" class="cls-10" data-name="Path 695" transform="translate(-4046.809 -2672.075)"/>
                </g>
                <g id="Group_508" data-name="Group 508" transform="translate(14.208 128.578)">
                    <path id="Rectangle_63" d="M0 0H5.362V32.259H0z" class="cls-11" data-name="Rectangle 63" transform="rotate(-51.768 4.34 2.106)"/>
                </g>
                <g id="Group_509" data-name="Group 509" transform="translate(8.218 136.181)">
                    <path id="Path_696" d="M3944.55 2937.854l-18.244-14.373 3.317-4.211 18.245 14.371z" class="cls-11" data-name="Path 696" transform="translate(-3926.307 -2919.271)"/>
                </g>
            </g>
            <g id="Group_511" data-name="Group 511" transform="translate(2997.484 1822.801)">
                <path id="Path_697" d="M3766.393 2121.375l-.027-1.87c2.4-.035 4.905-.128 7.436-.278l.111 1.867c-2.559.151-5.088.246-7.52.281zm-7.53-.084c-2.59-.1-5.121-.275-7.523-.523l.191-1.86c2.362.243 4.853.417 7.4.515zm22.546-.791l-.183-1.861c2.417-.237 4.908-.526 7.4-.857l.247 1.854c-2.514.335-5.026.626-7.465.864zm-37.55-.8a72.036 72.036 0 0 1-7.369-1.759l.534-1.792a70.242 70.242 0 0 0 7.177 1.713zm52.449-1.174l-.3-1.846c2.417-.4 4.885-.844 7.337-1.323l.359 1.836c-2.475.483-4.962.932-7.397 1.334zm14.738-2.878l-.411-1.824c2.42-.544 4.86-1.129 7.253-1.737l.461 1.813c-2.41.613-4.867 1.2-7.304 1.749zm-81.682-.365a40.144 40.144 0 0 1-6.624-3.814l1.091-1.519a38.273 38.273 0 0 0 6.315 3.635zm96.237-3.338l-.513-1.8c2.417-.689 4.818-1.413 7.139-2.152l.567 1.782c-2.338.747-4.758 1.477-7.194 2.171zm14.316-4.572l-.63-1.761c2.435-.871 4.774-1.763 6.955-2.653l.707 1.732c-2.206.9-4.572 1.803-7.032 2.683zm-122.84-1.1a27.955 27.955 0 0 1-4.111-6.512l1.7-.771a26.093 26.093 0 0 0 3.836 6.077zm136.771-4.635l-.814-1.684q.538-.26 1.056-.519c1.879-.939 3.722-1.937 5.478-2.965l.945 1.614c-1.791 1.048-3.67 2.065-5.586 3.023q-.527.267-1.079.533zm13.018-7.645l-1.081-1.526c2.034-1.44 3.992-2.97 5.819-4.548l1.222 1.416c-1.872 1.618-3.877 3.186-5.96 4.665zm-156.131-1.585a38.068 38.068 0 0 1-.536-6.481c0-.377 0-.763.015-1.147l1.87.049c-.01.368-.015.737-.015 1.1a36.116 36.116 0 0 0 .509 6.161zm167.56-8.313l-1.365-1.28a65.489 65.489 0 0 0 4.733-5.647l1.5 1.117a67.484 67.484 0 0 1-4.868 5.815zM3713 2077.681l-1.793-.531a27 27 0 0 1 3.314-6.974l1.568 1.019a25.158 25.158 0 0 0-3.089 6.486zm174.323-5.732l-1.621-.931a60.63 60.63 0 0 0 3.272-6.593l1.723.728a62.511 62.511 0 0 1-3.369 6.796zm-166.683-6.477l-1.364-1.279a65.463 65.463 0 0 1 5.527-5.209l1.206 1.429a63.672 63.672 0 0 0-5.364 5.059zm172.584-7.472l-1.8-.514a62.751 62.751 0 0 0 1.6-7.187l1.846.3a64.628 64.628 0 0 1-1.646 7.401zm-161.339-2.11l-1.08-1.527c2.027-1.433 4.156-2.825 6.33-4.138l.967 1.6c-2.136 1.292-4.227 2.659-6.218 4.066zm163.777-12.832l-1.868-.091c.053-1.1.081-2.221.081-3.331 0-1.337-.039-2.7-.116-4.05l1.867-.107c.079 1.385.119 2.784.119 4.156-.001 1.142-.029 2.293-.084 3.423zm-2.689-14.811c-.375-2.4-.872-4.832-1.477-7.242l1.814-.456c.619 2.464 1.127 4.957 1.511 7.408zm-3.585-14.332c-.79-2.3-1.692-4.62-2.684-6.9l1.715-.745c1.01 2.325 1.931 4.693 2.737 7.038zm-5.89-13.58c-1.136-2.16-2.375-4.325-3.682-6.435l1.59-.985c1.33 2.147 2.59 4.35 3.747 6.549zm-7.8-12.6c-1.425-1.99-2.943-3.972-4.513-5.891l1.448-1.184c1.595 1.95 3.137 3.964 4.585 5.985zm-9.387-11.487c-1.668-1.8-3.421-3.579-5.209-5.29l1.293-1.352c1.815 1.736 3.594 3.543 5.288 5.37zm-10.725-10.261c-1.872-1.591-3.822-3.153-5.8-4.642l1.126-1.493c2 1.511 3.98 3.1 5.88 4.71zm-187.126-.967l-.994-1.584c2.128-1.334 4.288-2.644 6.42-3.893l.945 1.614c-2.114 1.235-4.258 2.534-6.37 3.859zm12.858-7.528l-.894-1.643c2.2-1.2 4.444-2.37 6.655-3.48l.839 1.672c-2.19 1.096-4.412 2.259-6.598 3.447zm162.419-.451c-2.045-1.369-4.16-2.7-6.286-3.955l.951-1.61c2.156 1.273 4.3 2.623 6.375 4.011zm-149.106-6.227l-.781-1.7c2.28-1.047 4.6-2.061 6.883-3.013l.719 1.727c-2.264.939-4.559 1.944-6.819 2.982zm136.322-1.324c-2.187-1.132-4.436-2.219-6.687-3.231l.766-1.706c2.283 1.026 4.564 2.128 6.781 3.276zm-122.576-4.394l-.653-1.752c2.351-.877 4.738-1.714 7.092-2.488l.584 1.776c-2.33.768-4.692 1.592-7.021 2.46zm109.033-1.7c-2.3-.885-4.653-1.719-7-2.48l.576-1.779c2.38.771 4.768 1.616 7.1 2.513zm-94.895-2.947l-.511-1.8c2.414-.685 4.861-1.325 7.275-1.9l.434 1.819c-2.385.57-4.807 1.203-7.195 1.881zm80.768-1.63c-2.38-.631-4.812-1.207-7.228-1.711l.382-1.831c2.448.511 4.913 1.094 7.325 1.734zm-66.3-1.821l-.354-1.836c2.465-.475 4.96-.9 7.416-1.257l.271 1.851c-2.424.355-4.891.773-7.329 1.244zm51.762-1.214c-2.428-.374-4.908-.69-7.369-.939l.188-1.861c2.493.252 5 .572 7.466.951zm-37.049-.931l-.184-1.861c2.5-.246 5.022-.434 7.5-.559l.094 1.868c-2.444.123-4.939.308-7.406.552zm22.273-.564c-2.407-.119-4.859-.179-7.287-.179h-.142v-1.87h.142c2.458 0 4.941.061 7.379.182z" class="cls-12" data-name="Path 697" transform="translate(-3667.468 -1932.239)"/>
            </g>
            <g id="Group_512" data-name="Group 512" transform="translate(3073.363 1914.559)">
                <path id="Path_698" d="M4036.718 2406.179h-.093c-2.569 0-5.074-.079-7.445-.234l.122-1.866c2.33.153 4.794.23 7.323.23h.093zm7.533-.213l-.1-1.868c2.4-.131 4.9-.324 7.423-.575l.186 1.861c-2.551.254-5.076.45-7.509.582zm-22.587-.824a64.109 64.109 0 0 1-7.425-1.564l.5-1.8a62.354 62.354 0 0 0 7.207 1.517zm37.566-.655l-.259-1.852c2.415-.337 4.892-.729 7.364-1.165l.324 1.842c-2.493.44-4.993.835-7.429 1.175zm14.82-2.6l-.386-1.83c2.41-.508 4.857-1.064 7.273-1.655l.443 1.817c-2.435.591-4.901 1.152-7.33 1.663zm14.6-3.565l-.5-1.8c2.4-.667 4.805-1.378 7.153-2.113l.559 1.785c-2.369.735-4.796 1.452-7.213 2.124zm14.35-4.5l-.619-1.765c2.378-.835 4.729-1.709 6.986-2.6l.686 1.74c-2.281.898-4.653 1.78-7.053 2.623zm14-5.53l-.76-1.709c2.343-1.042 4.6-2.118 6.717-3.2l.85 1.666c-2.146 1.096-4.437 2.185-6.807 3.241zm13.418-6.888l-.964-1.6a72.8 72.8 0 0 0 6.145-4.1l1.122 1.5a74.7 74.7 0 0 1-6.305 4.196zm12.03-9.264l-1.37-1.273a17.883 17.883 0 0 0 3.861-5.883l1.759.636a19.7 19.7 0 0 1-4.253 6.517zm2.1-13.449c-1.034-1.534-2.94-2.754-5.668-3.626l.57-1.781c3.137 1 5.374 2.471 6.649 4.362zm-34.97-4.019l-.295-1.847c.031 0 3.155-.5 7.511-.858l.154 1.864c-4.28.35-7.34.834-7.37.838zm22.158-.946c-1.9-.178-4.008-.268-6.251-.268q-.566 0-1.127.008l-.024-1.87q.573-.007 1.152-.007c2.3 0 4.462.093 6.425.276z" class="cls-12" data-name="Path 698" transform="translate(-4014.239 -2351.585)"/>
            </g>
            <g id="Group_513" data-name="Group 513" transform="translate(3025.539 1810.779)">
                <path id="Path_699" fill="#fccc42" d="M3851.785 1905.346a28.052 28.052 0 1 1-28.052-28.051 28.051 28.051 0 0 1 28.052 28.051z" data-name="Path 699" transform="translate(-3795.682 -1877.295)"/>
            </g>
            <g id="Group_514" data-name="Group 514" transform="translate(2809.82 1932.203)">
                <path id="Path_700" d="M2869.012 2432.22l-3.9 32-3.9 32-25.693-19.214-25.699-19.206 29.6-12.79z" class="cls-11" data-name="Path 700" transform="translate(-2809.82 -2432.22)"/>
            </g>
            <g id="Group_515" data-name="Group 515" transform="translate(3004.097 1845.643)">
                <path id="Path_701" d="M3727.057 2116.912l-.382-.382-28.989-28.989 10.772-40.141 40.141-10.773 29.372 29.373-10.772 40.142-.521.14zm-27.285-29.929l27.844 27.843 38.056-10.211 10.213-38.056-27.844-27.844-38.056 10.213z" class="cls-12" data-name="Path 701" transform="translate(-3697.686 -2036.627)"/>
            </g>
            <g id="Group_516" data-name="Group 516" transform="translate(3121.677 1851.654)">
                <path id="Rectangle_64" d="M0 0H16.832V17.767H0z" class="cls-6" data-name="Rectangle 64"/>
            </g>
        </g>
        <g id="Group_676" data-name="Group 676" transform="translate(-2482.603 1577.241)">
            <g id="Group_518" data-name="Group 518" transform="translate(2674.247 197.759)">
                <path id="Path_702" fill="#9ac7ff" d="M3002 468.219c-21.812 1.907-57.778 7.223-113.149-1.2-58.5-8.9-276.854-104.723-197.409-197.409s243.805-91.062 311.764-21.667c45.047 45.997 135.059 208.362-1.206 220.276z" data-name="Path 702" transform="translate(-2674.247 -197.759)"/>
            </g>
            <g id="Group_614" data-name="Group 614" transform="translate(2748.99 276.327)">
                <g id="Group_520" data-name="Group 520" transform="translate(148.908 5.708)">
                    <g id="Group_519" data-name="Group 519">
                        <path id="Path_703" d="M3865.955 657.316h-.742V646.54h.742v10.776z" class="cls-15" data-name="Path 703" transform="translate(-3865.213 -646.54)"/>
                    </g>
                </g>
                <g id="Group_522" data-name="Group 522" transform="translate(147.425 5.708)">
                    <g id="Group_521" data-name="Group 521">
                        <path id="Path_704" d="M3858.059 657.316h-.742V646.54h.742v10.776z" class="cls-15" data-name="Path 704" transform="translate(-3857.317 -646.54)"/>
                    </g>
                </g>
                <g id="Group_598" data-name="Group 598" transform="translate(8.218)">
                    <g id="Group_524" data-name="Group 524" transform="translate(37.627 5.708)">
                        <g id="Group_523" data-name="Group 523">
                            <path id="Path_705" d="M3316.765 663.025l-.371-.643 9.147-5.281V646.54h.741v10.989l-9.517 5.5z" class="cls-15" data-name="Path 705" transform="translate(-3316.394 -646.54)"/>
                        </g>
                    </g>
                    <g id="Group_526" data-name="Group 526" transform="translate(65.861 16.164)">
                        <g id="Group_525" data-name="Group 525">
                            <path id="Path_706" d="M3476.259 708.351l-9.517-5.5.371-.641 9.146 5.281 9.147-5.281.37.641-9.517 5.5z" class="cls-15" data-name="Path 706" transform="translate(-3466.742 -702.215)"/>
                        </g>
                    </g>
                    <g id="Group_528" data-name="Group 528" transform="translate(84.645)">
                        <g id="Group_527" data-name="Group 527">
                            <path id="Path_707" d="M3576.287 638.442l-9.517-5.5.372-.641 9.146 5.281 8.961-5.174v-10.343l-9.146-5.281.371-.642 9.517 5.495v11.2l-9.7 5.6z" class="cls-15" data-name="Path 707" transform="translate(-3566.77 -616.142)"/>
                        </g>
                    </g>
                    <g id="Group_530" data-name="Group 530" transform="translate(103.243)">
                        <g id="Group_529" data-name="Group 529">
                            <path id="Path_708" d="M3675.5 638.442l-9.7-5.6v-11.2l9.517-5.495.371.642-9.147 5.281v10.347l8.961 5.174 9.148-5.281.37.641-9.518 5.5z" class="cls-15" data-name="Path 708" transform="translate(-3665.803 -616.142)"/>
                        </g>
                    </g>
                    <g id="Group_532" data-name="Group 532" transform="translate(.089 16.125)">
                        <g id="Group_531" data-name="Group 531">
                            <path id="Path_709" d="M3126.017 724.312l-9.518-5.5.372-.642 9.146 5.281 8.962-5.174v-10.343l-9.147-5.281.371-.643 9.517 5.5v11.2l-9.7 5.6z" class="cls-15" data-name="Path 709" transform="translate(-3116.499 -702.01)"/>
                        </g>
                    </g>
                    <g id="Group_534" data-name="Group 534" transform="translate(18.688 16.019)">
                        <g id="Group_533" data-name="Group 533">
                            <path id="Path_710" d="M3225.243 723.854l-9.7-5.6v-11.2l9.7-5.6 9.7 5.6v11.2l-9.7 5.6zm-8.961-6.03l8.961 5.174 8.961-5.174v-10.347l-8.961-5.174-8.961 5.174v10.348z" class="cls-15" data-name="Path 710" transform="translate(-3215.541 -701.447)"/>
                        </g>
                    </g>
                    <g id="Group_541" data-name="Group 541" transform="translate(20.11 17.554)">
                        <g id="Group_536" data-name="Group 536">
                            <g id="Group_535" data-name="Group 535">
                                <path id="Path_711" d="M3223.481 714.934l-.37-.642 8.1-4.674.372.641-8.1 4.674z" class="cls-15" data-name="Path 711" transform="translate(-3223.111 -709.618)"/>
                            </g>
                        </g>
                        <g id="Group_538" data-name="Group 538" transform="translate(0 14.023)">
                            <g id="Group_537" data-name="Group 537">
                                <path id="Path_712" d="M3231.207 789.608l-8.1-4.674.37-.641 8.1 4.673-.372.643z" class="cls-15" data-name="Path 712" transform="translate(-3223.111 -784.292)"/>
                            </g>
                        </g>
                        <g id="Group_540" data-name="Group 540" transform="translate(16.006 4.995)">
                            <g id="Group_539" data-name="Group 539">
                                <path id="Path_713" d="M3309.085 745.563h-.741v-9.348h.741v9.348z" class="cls-15" data-name="Path 713" transform="translate(-3308.344 -736.215)"/>
                            </g>
                        </g>
                    </g>
                    <g id="Group_548" data-name="Group 548" transform="translate(48.284 33.741)">
                        <g id="Group_543" data-name="Group 543">
                            <g id="Group_542" data-name="Group 542">
                                <path id="Path_714" d="M3373.514 801.134l-.372-.643 8.1-4.675.37.642-8.1 4.676z" class="cls-15" data-name="Path 714" transform="translate(-3373.143 -795.816)"/>
                            </g>
                        </g>
                        <g id="Group_545" data-name="Group 545" transform="translate(0 14.023)">
                            <g id="Group_544" data-name="Group 544">
                                <path id="Path_715" d="M3381.24 875.807l-8.1-4.676.372-.641 8.1 4.674-.37.643z" class="cls-15" data-name="Path 715" transform="translate(-3373.143 -870.49)"/>
                            </g>
                        </g>
                        <g id="Group_547" data-name="Group 547" transform="translate(16.006 4.996)">
                            <g id="Group_546" data-name="Group 546">
                                <path id="Path_716" d="M3459.12 831.769h-.741v-9.348h.741v9.348z" class="cls-15" data-name="Path 716" transform="translate(-3458.379 -822.421)"/>
                            </g>
                        </g>
                    </g>
                    <g id="Group_555" data-name="Group 555" transform="translate(95.242 17.678)">
                        <g id="Group_550" data-name="Group 550">
                            <g id="Group_549" data-name="Group 549">
                                <path id="Path_717" d="M3623.571 715.594l-.37-.643 8.1-4.674.372.641-8.1 4.675z" class="cls-15" data-name="Path 717" transform="translate(-3623.201 -710.277)"/>
                            </g>
                        </g>
                        <g id="Group_552" data-name="Group 552" transform="translate(0 14.022)">
                            <g id="Group_551" data-name="Group 551">
                                <path id="Path_718" d="M3631.3 790.262l-8.1-4.675.37-.642 8.1 4.674-.372.643z" class="cls-15" data-name="Path 718" transform="translate(-3623.201 -784.945)"/>
                            </g>
                        </g>
                        <g id="Group_554" data-name="Group 554" transform="translate(16.007 4.995)">
                            <g id="Group_553" data-name="Group 553">
                                <path id="Path_719" d="M3709.183 746.224h-.741v-9.348h.741v9.348z" class="cls-15" data-name="Path 719" transform="translate(-3708.441 -736.876)"/>
                            </g>
                        </g>
                    </g>
                    <g id="Group_557" data-name="Group 557" transform="translate(37.471 16.019)">
                        <g id="Group_556" data-name="Group 556">
                            <path id="Path_720" d="M3325.262 723.854l-9.7-5.6v-11.2l9.7-5.6 9.7 5.6v11.2l-9.7 5.6zm-8.962-6.03l8.962 5.174 8.961-5.174v-10.347l-8.961-5.174-8.962 5.174v10.348z" class="cls-15" data-name="Path 720" transform="translate(-3315.559 -701.447)"/>
                        </g>
                    </g>
                    <g id="Group_559" data-name="Group 559" transform="translate(56.255 16.125)">
                        <g id="Group_558" data-name="Group 558">
                            <path id="Path_721" d="M3425.288 724.312l-9.7-5.6V707.72h.741v10.562l8.961 5.174 8.962-5.174v-10.348l-9.147-5.281.372-.643 9.517 5.5v11.2l-9.7 5.6z" class="cls-15" data-name="Path 721" transform="translate(-3415.586 -702.01)"/>
                        </g>
                    </g>
                    <g id="Group_561" data-name="Group 561" transform="translate(75.037 16.019)">
                        <g id="Group_560" data-name="Group 560">
                            <path id="Path_722" d="M3525.306 723.854l-9.7-5.6v-11.2l9.7-5.6 9.7 5.6v11.2l-9.7 5.6zm-8.962-6.03l8.962 5.174 8.961-5.174v-10.347l-8.961-5.174-8.962 5.174v10.348z" class="cls-15" data-name="Path 722" transform="translate(-3515.603 -701.447)"/>
                        </g>
                    </g>
                    <g id="Group_563" data-name="Group 563" transform="translate(93.821 16.019)">
                        <g id="Group_562" data-name="Group 562">
                            <path id="Path_723" d="M3625.333 723.854l-9.7-5.6v-11.2l9.7-5.6 9.7 5.6v11.2l-9.7 5.6zm-8.961-6.03l8.961 5.174 8.962-5.174v-10.347l-8.962-5.174-8.961 5.174v10.348z" class="cls-15" data-name="Path 723" transform="translate(-3615.631 -701.447)"/>
                        </g>
                    </g>
                    <g id="Group_565" data-name="Group 565" transform="translate(112.603 16.019)">
                        <g id="Group_564" data-name="Group 564">
                            <path id="Path_724" d="M3725.351 723.854l-9.7-5.6v-11.2l9.7-5.6 9.7 5.6v11.2l-9.7 5.6zm-8.96-6.03l8.96 5.174 8.963-5.174v-10.347l-8.963-5.174-8.96 5.174v10.348z" class="cls-15" data-name="Path 724" transform="translate(-3715.649 -701.447)"/>
                        </g>
                    </g>
                    <g id="Group_567" data-name="Group 567" transform="translate(131.387 16.019)">
                        <g id="Group_566" data-name="Group 566">
                            <path id="Path_725" d="M3816.417 718.037h-.741v-10.988l9.7-5.6 9.517 5.494-.37.643-9.147-5.281-8.961 5.174v10.56z" class="cls-15" data-name="Path 725" transform="translate(-3815.676 -701.447)"/>
                        </g>
                    </g>
                    <g id="Group_569" data-name="Group 569" transform="translate(0 32.253)">
                        <g id="Group_568" data-name="Group 568">
                            <path id="Path_726" d="M3116.395 810.086l-.371-.641 9.147-5.281v-10.348l-9.147-5.281.371-.641 9.518 5.495v11.2l-9.518 5.495z" class="cls-15" data-name="Path 726" transform="translate(-3116.023 -787.893)"/>
                        </g>
                    </g>
                    <g id="Group_571" data-name="Group 571" transform="translate(9.265 32.147)">
                        <g id="Group_570" data-name="Group 570">
                            <path id="Path_727" d="M3174.877 809.625l-9.517-5.495v-11.2l9.7-5.6 9.7 5.6v10.989h-.741v-10.565l-8.961-5.173-8.962 5.173V803.7l9.147 5.281-.372.641z" class="cls-15" data-name="Path 727" transform="translate(-3165.36 -787.326)"/>
                        </g>
                    </g>
                    <g id="Group_573" data-name="Group 573" transform="translate(28.049 32.147)">
                        <g id="Group_572" data-name="Group 572">
                            <path id="Path_728" d="M3275.09 809.732l-9.7-5.6v-11.2l9.7-5.6 9.7 5.6v11.2l-9.7 5.6zm-8.961-6.03l8.961 5.174 8.961-5.174v-10.347l-8.961-5.173-8.961 5.173V803.7z" class="cls-15" data-name="Path 728" transform="translate(-3265.387 -787.326)"/>
                        </g>
                    </g>
                    <g id="Group_575" data-name="Group 575" transform="translate(46.831 32.147)">
                        <g id="Group_574" data-name="Group 574">
                            <path id="Path_729" d="M3375.109 809.732l-9.7-5.6v-11.2l9.7-5.6 9.7 5.6v11.2l-9.7 5.6zm-8.962-6.03l8.962 5.174 8.961-5.174v-10.347l-8.961-5.173-8.962 5.173V803.7z" class="cls-15" data-name="Path 729" transform="translate(-3365.405 -787.326)"/>
                        </g>
                    </g>
                    <g id="Group_577" data-name="Group 577" transform="translate(65.615 32.147)">
                        <g id="Group_576" data-name="Group 576">
                            <path id="Path_730" d="M3475.135 809.732l-9.7-5.6v-11.2l9.7-5.6 9.7 5.6v11.2l-9.7 5.6zm-8.962-6.03l8.962 5.174 8.961-5.174v-10.347l-8.961-5.173-8.962 5.173V803.7z" class="cls-15" data-name="Path 730" transform="translate(-3465.432 -787.326)"/>
                        </g>
                    </g>
                    <g id="Group_579" data-name="Group 579" transform="translate(84.397 32.147)">
                        <g id="Group_578" data-name="Group 578">
                            <path id="Path_731" d="M3575.154 809.732l-9.7-5.6v-11.2l9.7-5.6 9.7 5.6v11.2l-9.7 5.6zm-8.962-6.03l8.962 5.174 8.961-5.174v-10.347l-8.961-5.173-8.962 5.173V803.7z" class="cls-15" data-name="Path 731" transform="translate(-3565.45 -787.326)"/>
                        </g>
                    </g>
                    <g id="Group_581" data-name="Group 581" transform="translate(103.182 32.147)">
                        <g id="Group_580" data-name="Group 580">
                            <path id="Path_732" d="M3674.995 809.625l-9.517-5.495v-11.2l9.7-5.6 9.7 5.6v10.989h-.741v-10.565l-8.961-5.173-8.962 5.173V803.7l9.148 5.281-.372.641z" class="cls-15" data-name="Path 732" transform="translate(-3665.478 -787.326)"/>
                        </g>
                    </g>
                    <g id="Group_583" data-name="Group 583" transform="translate(121.964 32.253)">
                        <g id="Group_582" data-name="Group 582">
                            <path id="Path_733" d="M3766.238 804.377h-.742v-10.989l9.517-5.495.371.641-9.147 5.281v10.562z" class="cls-15" data-name="Path 733" transform="translate(-3765.496 -787.893)"/>
                        </g>
                    </g>
                    <g id="Group_585" data-name="Group 585" transform="translate(.03 48.272)">
                        <g id="Group_584" data-name="Group 584">
                            <path id="Path_734" d="M3134.845 879.331l-9.146-5.28-9.147 5.28-.37-.641 9.517-5.5 9.516 5.5-.371.641z" class="cls-15" data-name="Path 734" transform="translate(-3116.182 -873.194)"/>
                        </g>
                    </g>
                    <g id="Group_587" data-name="Group 587" transform="translate(18.812 48.379)">
                        <g id="Group_586" data-name="Group 586">
                            <path id="Path_735" d="M3225.717 896.068l-9.517-5.5.37-.643 9.147 5.282 8.961-5.175V879.69l-9.148-5.281.372-.642 9.517 5.494v11.2l-9.7 5.6z" class="cls-15" data-name="Path 735" transform="translate(-3216.2 -873.768)"/>
                        </g>
                    </g>
                    <g id="Group_589" data-name="Group 589" transform="translate(37.41 48.272)">
                        <g id="Group_588" data-name="Group 588">
                            <path id="Path_736" d="M3324.941 895.6l-9.7-5.6v-11.2l9.7-5.6 9.7 5.6V890l-9.7 5.6zm-8.962-6.03l8.962 5.175 8.961-5.175v-10.346l-8.961-5.174-8.962 5.174v10.348z" class="cls-15" data-name="Path 736" transform="translate(-3315.238 -873.194)"/>
                        </g>
                    </g>
                    <g id="Group_591" data-name="Group 591" transform="translate(56.193 48.272)">
                        <g id="Group_590" data-name="Group 590">
                            <path id="Path_737" d="M3434.661 889.786h-.741v-10.562l-8.961-5.174-8.959 5.174v10.562h-.742V878.8l9.7-5.6 9.7 5.6v10.99z" class="cls-15" data-name="Path 737" transform="translate(-3415.256 -873.194)"/>
                        </g>
                    </g>
                    <g id="Group_593" data-name="Group 593" transform="translate(74.977 48.272)">
                        <g id="Group_592" data-name="Group 592">
                            <path id="Path_738" d="M3524.986 895.6l-9.7-5.6v-11.2l9.7-5.6 9.7 5.6V890l-9.7 5.6zm-8.962-6.03l8.962 5.175 8.961-5.175v-10.346l-8.961-5.174-8.962 5.174v10.348z" class="cls-15" data-name="Path 738" transform="translate(-3515.283 -873.194)"/>
                        </g>
                    </g>
                    <g id="Group_595" data-name="Group 595" transform="translate(93.759 48.272)">
                        <g id="Group_594" data-name="Group 594">
                            <path id="Path_739" d="M3634.706 889.786h-.741v-10.562l-8.965-5.173-8.961 5.174v10.562h-.742V878.8l9.7-5.6 9.7 5.6v10.99z" class="cls-15" data-name="Path 739" transform="translate(-3615.301 -873.194)"/>
                        </g>
                    </g>
                    <g id="Group_597" data-name="Group 597" transform="translate(27.988 64.399)">
                        <g id="Group_596" data-name="Group 596">
                            <path id="Path_740" d="M3265.8 975.668h-.741v-10.991l9.7-5.6 9.517 5.494-.371.643-9.146-5.281-8.959 5.167v10.563z" class="cls-15" data-name="Path 740" transform="translate(-3265.062 -959.076)"/>
                        </g>
                    </g>
                </g>
                <g id="Group_601" data-name="Group 601" transform="translate(8.65 13.893)">
                    <g id="Group_599" data-name="Group 599">
                        <path id="Path_741" d="M3120.922 693.507a2.175 2.175 0 0 1-.906.163 1.6 1.6 0 0 1-1.689-1.741 1.7 1.7 0 0 1 1.791-1.8 1.857 1.857 0 0 1 .815.152l-.113.362a1.559 1.559 0 0 0-.686-.143 1.276 1.276 0 0 0-1.34 1.415 1.244 1.244 0 0 0 1.314 1.379 1.779 1.779 0 0 0 .728-.143z" class="cls-15" data-name="Path 741" transform="translate(-3118.327 -690.126)"/>
                    </g>
                    <g id="Group_600" data-name="Group 600" transform="translate(3.147 .056)">
                        <path id="Path_742" d="M3135.535 690.425v1.437h1.66v-1.437h.448v3.431h-.448v-1.609h-1.66v1.609h-.448v-3.431z" class="cls-15" data-name="Path 742" transform="translate(-3135.087 -690.425)"/>
                    </g>
                </g>
                <g id="Group_605" data-name="Group 605" transform="translate(52.148 .3)">
                    <g id="Group_602" data-name="Group 602">
                        <path id="Path_743" d="M3352.553 621.121a2.18 2.18 0 0 1-.906.163 1.6 1.6 0 0 1-1.691-1.741 1.706 1.706 0 0 1 1.793-1.8 1.855 1.855 0 0 1 .814.153l-.111.362a1.569 1.569 0 0 0-.688-.142 1.276 1.276 0 0 0-1.339 1.415 1.244 1.244 0 0 0 1.313 1.38 1.793 1.793 0 0 0 .729-.142z" class="cls-15" data-name="Path 743" transform="translate(-3349.956 -617.74)"/>
                    </g>
                    <g id="Group_603" data-name="Group 603" transform="translate(3.149 .057)">
                        <path id="Path_744" d="M3367.173 618.041v1.435h1.66v-1.435h.448v3.43h-.448v-1.609h-1.66v1.609h-.448v-3.43z" class="cls-15" data-name="Path 744" transform="translate(-3366.725 -618.041)"/>
                    </g>
                    <g id="Group_604" data-name="Group 604" transform="translate(6.216 2.27)">
                        <path id="Path_745" d="M3383.059 631.785v-.16l.2-.2c.493-.469.717-.718.717-1.008a.34.34 0 0 0-.379-.376.655.655 0 0 0-.409.162l-.083-.185a.858.858 0 0 1 .542-.2.543.543 0 0 1 .591.56c0 .355-.259.643-.665 1.035l-.15.142v.005h.862v.216z" class="cls-15" data-name="Path 745" transform="translate(-3383.059 -629.826)"/>
                    </g>
                </g>
                <g id="Group_608" data-name="Group 608" transform="translate(34.107 83.711)">
                    <g id="Group_606" data-name="Group 606" transform="translate(0 .127)">
                        <path id="Path_746" d="M3256.481 1065.967a2.182 2.182 0 0 1-.907.163 1.6 1.6 0 0 1-1.69-1.741 1.7 1.7 0 0 1 1.792-1.8 1.856 1.856 0 0 1 .815.153l-.111.362a1.565 1.565 0 0 0-.688-.143 1.275 1.275 0 0 0-1.338 1.415 1.243 1.243 0 0 0 1.313 1.38 1.775 1.775 0 0 0 .728-.143z" class="cls-15" data-name="Path 746" transform="translate(-3253.885 -1062.587)"/>
                    </g>
                    <g id="Group_607" data-name="Group 607" transform="translate(3.138)">
                        <path id="Path_747" d="M3270.6 1061.911h.448v3.614h-.448z" class="cls-15" data-name="Path 747" transform="translate(-3270.596 -1061.911)"/>
                    </g>
                </g>
                <g id="Group_610" data-name="Group 610" transform="translate(147.055 .544)">
                    <g id="Group_609" data-name="Group 609">
                        <path id="Path_748" d="M3858.484 620.777a1.61 1.61 0 0 1-1.594 1.808 1.576 1.576 0 0 1-1.542-1.747 1.626 1.626 0 0 1 1.588-1.8 1.566 1.566 0 0 1 1.548 1.739zm-2.668.05c0 .738.4 1.4 1.1 1.4s1.1-.647 1.1-1.425c0-.688-.355-1.4-1.094-1.4s-1.105.679-1.105 1.426z" class="cls-15" data-name="Path 748" transform="translate(-3855.348 -619.036)"/>
                    </g>
                </g>
                <g id="Group_613" data-name="Group 613" transform="translate(0 53.186)">
                    <g id="Group_611" data-name="Group 611">
                        <path id="Path_749" d="M3075.4 901.107a1.61 1.61 0 0 1-1.594 1.808 1.575 1.575 0 0 1-1.542-1.747 1.627 1.627 0 0 1 1.589-1.8 1.566 1.566 0 0 1 1.547 1.739zm-2.668.051c0 .737.4 1.395 1.1 1.395s1.1-.647 1.1-1.426c0-.687-.356-1.4-1.094-1.4s-1.108.682-1.108 1.431z" class="cls-15" data-name="Path 749" transform="translate(-3072.262 -899.365)"/>
                    </g>
                    <g id="Group_612" data-name="Group 612" transform="translate(3.703 .062)">
                        <path id="Path_750" d="M3092.427 899.693v1.437h1.66v-1.437h.448v3.431h-.448v-1.609h-1.66v1.609h-.447v-3.431z" class="cls-15" data-name="Path 750" transform="translate(-3091.98 -899.693)"/>
                    </g>
                </g>
            </g>
            <g id="Group_626" data-name="Group 626" transform="translate(2870.149 263.515)">
                <g id="Group_615" data-name="Group 615" transform="translate(44.203 103.929)">
                    <path id="Path_751" d="M4002.109 1106.176s-9.83 22.066-5.917 31.425c7.2 17.227-4.83 48.927-42.509 12.276-6.319-6.146 24.866-20.29 20.057-38.8s28.369-4.901 28.369-4.901z" class="cls-3" data-name="Path 751" transform="translate(-3952.835 -1101.352)"/>
                </g>
                <g id="Group_616" data-name="Group 616" transform="translate(63.513 104.524)">
                    <path id="Path_752" d="M4089.3 1110.514s-8.6 3.965-11.248 31.822c0 .031-17.451.333-22.385-14.362a18.739 18.739 0 0 0 1.6-14.325c-4.815-18.512 32.033-3.135 32.033-3.135z" class="cls-4" data-name="Path 752" transform="translate(-4055.664 -1104.522)"/>
                </g>
                <g id="Group_617" data-name="Group 617" transform="translate(20.711)">
                    <path id="Path_753" fill="#202954" d="M3904.083 648.578s28.357 6.467 32.191-5.4-8.478-20.276 1.89-27.908 24.3-11.994 3.9-23.984-1.025-29.622-16.61-34.466-20.775 4.655-35.708 1.37-30.505-19.49-43.746-2.961-16.733 34.481-7.886 38.111-4.385 8.8-8.564 14.575-4.409 31.527 36.833 26.743 20.608 8.973 37.7 13.92z" data-name="Path 753" transform="translate(-3827.738 -547.918)"/>
                </g>
                <g id="Group_618" data-name="Group 618" transform="translate(47.315 40.422)">
                    <path id="Path_754" d="M3980.036 763.172s-9.421 16.032-10.557 43.991 11.074 37.881 34.611 37.2 30.655-27.476 31.115-34.265 21.119 1.431 18.421-14.665-12.862-11.48-14.779-5.547-6.954 13.168-11.123 7.582 8.73-28.2-2.788-25.953-31.386 4.696-44.9-8.343z" class="cls-3" data-name="Path 754" transform="translate(-3969.406 -763.172)"/>
                </g>
                <g id="Group_619" data-name="Group 619" transform="translate(69.342 51.606)">
                    <path id="Path_755" d="M4087.258 852.026l-.556-.579c7.89-7.579 7.9-28.507 7.9-28.717h.8a82.284 82.284 0 0 1-.979 11.649c-1.323 8.421-3.74 14.356-7.165 17.647z" class="cls-2" data-name="Path 755" transform="translate(-4086.702 -822.727)"/>
                </g>
                <g id="Group_620" data-name="Group 620" transform="translate(83.179 60.301)">
                    <path id="Path_756" d="M4166.657 885.115a5.408 5.408 0 0 1-1.422-.194 5.76 5.76 0 0 1-3.634-2.85c-2.583-4.62-.25-12.7-.149-13.042l.769.227c-.023.081-2.338 8.1.081 12.425a4.983 4.983 0 0 0 3.143 2.467 4.593 4.593 0 0 0 3.615-.519c4.744-2.747 7.4-12.71 7.424-12.81l.776.2c-.11.423-2.767 10.389-7.8 13.3a5.549 5.549 0 0 1-2.803.796z" class="cls-2" data-name="Path 756" transform="translate(-4160.388 -869.029)"/>
                </g>
                <g id="Group_621" data-name="Group 621" transform="translate(54.051 52.333)">
                    <path id="Path_757" d="M4010.444 843.254a9.724 9.724 0 0 1-1.726-.161 3.7 3.7 0 0 1-2.734-1.949c-2.327-4.321 1.822-14.13 2-14.545l.738.316c-.042.1-4.176 9.868-2.031 13.849a2.9 2.9 0 0 0 2.17 1.539 6.881 6.881 0 0 0 5.7-1.241c3.984-3.118 4.5-10.474 4.507-10.548l.8.051c-.021.316-.544 7.786-4.812 11.128a7.281 7.281 0 0 1-4.612 1.561z" class="cls-2" data-name="Path 757" transform="translate(-4005.276 -826.599)"/>
                </g>
                <g id="Group_622" data-name="Group 622" transform="translate(74.677 87.725)">
                    <path id="Path_758" d="M4117.338 1022.508a15.441 15.441 0 0 1-2.224-.167l.116-.794c3.891.566 6.986-.345 9.195-2.708a9.72 9.72 0 0 0 2.183-3.771l.778.2a10.348 10.348 0 0 1-2.349 4.1 10.089 10.089 0 0 1-7.699 3.14z" class="cls-2" data-name="Path 758" transform="translate(-4115.114 -1015.067)"/>
                </g>
                <g id="Group_623" data-name="Group 623" transform="translate(0 137.332)">
                    <path id="Path_759" d="M3838.927 1307.1c-15.125-11.633-23.9-16-32.667-21.157-1.457-.856-3.3 26.3-25.669 21s-8.172-24.8-8.773-27.116c-.269-1.036-37.227-4.788-48.515 33.843a161.274 161.274 0 0 0-5.856 27.458 160.1 160.1 0 0 0 18.7 4.269c55.372 8.426 91.337 3.111 113.149 1.2.923-.081 1.829-.17 2.728-.263-.572-12.241-3.112-31.553-13.097-39.234z" class="cls-9" data-name="Path 759" transform="translate(-3717.448 -1279.226)"/>
                </g>
                <g id="Group_624" data-name="Group 624" transform="translate(.008 138.054)">
                    <path id="Path_760" d="M3717.49 1344.254c3.752 1.059 7.255 1.954 10.474 2.681 10.386-34.106 24.772-55.536 31.08-63.86-11.87 2.123-28.712 9.787-35.706 33.719a160.892 160.892 0 0 0-5.848 27.46z" class="cls-11" data-name="Path 760" transform="translate(-3717.49 -1283.075)"/>
                </g>
                <g id="Group_625" data-name="Group 625" transform="translate(87.636 159.041)">
                    <path id="Path_761" d="M4228.334 1440.494c.923-.081 1.829-.171 2.728-.263-.574-12.241-3.115-31.554-13.1-39.233-3.028-2.328-5.791-4.355-8.36-6.166-7.719 7.373-16.686 21.743-25.484 48.941 18.747-.507 33.267-2.322 44.216-3.279z" class="cls-11" data-name="Path 761" transform="translate(-4184.119 -1394.831)"/>
                </g>
            </g>
            <g id="Group_628" data-name="Group 628" transform="translate(2840.749 413.114)">
                <g id="Group_627" data-name="Group 627">
                    <path id="Path_762" d="M3560.889 1349.622v-5.071h22.993v5.071zm0 8.961v-5.071h22.993v5.071z" class="cls-15" data-name="Path 762" transform="translate(-3560.889 -1344.551)"/>
                </g>
            </g>
            <g id="Group_630" data-name="Group 630" transform="translate(2799.12 399.787)">
                <g id="Group_629" data-name="Group 629">
                    <path id="Path_763" d="M3355.761 1290.581q6.828 0 10.869 3.832t4.042 10.5q0 7.889-4.863 12.14t-13.909 4.247q-7.857 0-12.688-2.544v-8.6a28.605 28.605 0 0 0 12.334 3.06q9.113 0 9.113-7.472 0-7.116-9.435-7.116a23.365 23.365 0 0 0-3.767.339 27.428 27.428 0 0 0-3.35.724l-3.961-2.125 1.771-23.99h25.536v8.436h-16.81l-.869 9.242 1.127-.225a22.19 22.19 0 0 1 4.86-.448z" class="cls-15" data-name="Path 763" transform="translate(-3339.209 -1273.579)"/>
                </g>
            </g>
            <g id="Group_634" data-name="Group 634" transform="translate(2846.546 227.195)">
                <g id="Group_631" data-name="Group 631" transform="translate(0 1.7)">
                    <path id="Path_764" d="M3598.016 372.588l-5.942-9.03h5.711l3.582 5.877 3.615-5.877h5.712l-6.008 9.03 6.289 9.426h-5.728l-3.879-6.322-3.9 6.322h-5.711z" class="cls-15" data-name="Path 764" transform="translate(-3591.76 -363.558)"/>
                </g>
                <g id="Group_632" data-name="Group 632" transform="translate(20.832)">
                    <path id="Path_765" d="M3709.08 364.559h-6.389v-3.615h6.389v-6.438h3.614v6.438h6.389v3.615h-6.389v6.355h-3.614z" class="cls-15" data-name="Path 765" transform="translate(-3702.691 -354.506)"/>
                </g>
                <g id="Group_633" data-name="Group 633" transform="translate(38.677 1.7)">
                    <path id="Path_766" d="M3797.718 363.558h5.512l3.484 10.383a14.366 14.366 0 0 1 .611 3.2h.1a14.174 14.174 0 0 1 .71-3.2l3.417-10.383h5.4l-7.808 20.816a9.019 9.019 0 0 1-3.062 4.325 7.728 7.728 0 0 1-4.647 1.436 11.7 11.7 0 0 1-2.558-.281v-3.994a8.607 8.607 0 0 0 1.982.215 3.576 3.576 0 0 0 2.335-.817 5.288 5.288 0 0 0 1.56-2.468l.3-.908z" class="cls-15" data-name="Path 766" transform="translate(-3797.718 -363.558)"/>
                </g>
            </g>
            <g id="Group_636" data-name="Group 636" transform="translate(3031.588 372.16)">
                <g id="Group_635" data-name="Group 635">
                    <path id="Path_767" d="M4586.093 1140.566h-8.961v-5.072h8.961v-9.031h5.07v9.031h8.961v5.072h-8.961v8.915h-5.07z" class="cls-15" data-name="Path 767" transform="translate(-4577.132 -1126.464)"/>
                </g>
            </g>
            <g id="Group_638" data-name="Group 638" transform="translate(2999.265 378.801)">
                <g id="Group_637" data-name="Group 637">
                    <path id="Path_768" d="M4428.544 1195.853H4405.1v-4.933l8.419-8.512q3.741-3.831 4.887-5.311a11.7 11.7 0 0 0 1.652-2.741 6.979 6.979 0 0 0 .5-2.615 3.81 3.81 0 0 0-1.113-3.005 4.311 4.311 0 0 0-2.97-.987 8.54 8.54 0 0 0-3.785.894 19.522 19.522 0 0 0-3.832 2.547l-3.854-4.566a25.188 25.188 0 0 1 4.106-2.983 15.116 15.116 0 0 1 3.557-1.342 18.22 18.22 0 0 1 4.313-.47 12.776 12.776 0 0 1 5.553 1.147 8.862 8.862 0 0 1 3.74 3.212 8.541 8.541 0 0 1 1.33 4.726 11.587 11.587 0 0 1-.814 4.348 16.679 16.679 0 0 1-2.524 4.164 61.634 61.634 0 0 1-6.023 6.08l-4.312 4.061v.322h14.614z" class="cls-15" data-name="Path 768" transform="translate(-4405.006 -1161.829)"/>
                </g>
            </g>
            <g id="Group_646" data-name="Group 646" transform="translate(2825.295 337.368)">
                <g id="Group_639" data-name="Group 639" transform="translate(2.259 31.613)">
                    <path id="Path_769" d="M3501.739 1123.013h-11.116v-13.476h11.116zm-9.511-1.605h7.906v-10.266h-7.906z" class="cls-17" data-name="Path 769" transform="translate(-3490.623 -1109.537)"/>
                </g>
                <g id="Group_640" data-name="Group 640" transform="translate(17.936 15.657)">
                    <path id="Path_770" d="M3585.227 1054h-11.121v-29.431h11.121zm-9.516-1.6h7.911v-26.221h-7.911z" class="cls-17" data-name="Path 770" transform="translate(-3574.106 -1024.572)"/>
                </g>
                <g id="Group_641" data-name="Group 641" transform="translate(33.615 23.188)">
                    <path id="Path_771" d="M3668.719 1086.573H3657.6v-21.9h11.121zm-9.516-1.6h7.911v-18.691h-7.914z" class="cls-17" data-name="Path 771" transform="translate(-3657.598 -1064.672)"/>
                </g>
                <g id="Group_642" data-name="Group 642" transform="translate(49.297 9.214)">
                    <path id="Path_772" d="M3752.224 1026.135h-11.118v-35.874h11.118zm-9.513-1.6h7.908v-32.669h-7.908z" class="cls-17" data-name="Path 772" transform="translate(-3741.106 -990.261)"/>
                </g>
                <g id="Group_643" data-name="Group 643" transform="translate(13.245)">
                    <path id="Path_773" d="M3567.909 941.195H3550.4a1.268 1.268 0 0 0-1.271 1.268v7.276a1.266 1.266 0 0 0 1.271 1.268h7.027l.464.8 1.259 2.193 1.265-2.187.462-.8h7.031a1.268 1.268 0 0 0 1.27-1.268v-7.276a1.269 1.269 0 0 0-1.269-1.274z" class="cls-17" data-name="Path 773" transform="translate(-3549.125 -941.195)"/>
                </g>
                <g id="Group_644" data-name="Group 644" transform="translate(18.547 4.169)">
                    <path id="Rectangle_65" d="M0 0H9.448V1.605H0z" class="cls-18" data-name="Rectangle 65"/>
                </g>
                <g id="Group_645" data-name="Group 645" transform="translate(0 43.483)">
                    <path id="Rectangle_66" d="M0 0H64.736V1.605H0z" class="cls-17" data-name="Rectangle 66"/>
                </g>
            </g>
            <g id="Group_657" data-name="Group 657" transform="translate(3016.282 402.447)">
                <g id="Group_647" data-name="Group 647" transform="translate(4.688 29.243)">
                    <path id="Path_774" d="M4553.473 1450.2h-1.6v-5.132H4522.2v5.132h-1.6v-6.737h32.881z" class="cls-17" data-name="Path 774" transform="translate(-4520.592 -1443.467)"/>
                </g>
                <g id="Group_648" data-name="Group 648" transform="translate(0 14.744)">
                    <path id="Path_775" d="M4522.952 1377.038h-27.325v-10.777h27.325zm-25.72-1.6h24.114v-7.567h-24.114z" class="cls-17" data-name="Path 775" transform="translate(-4495.627 -1366.261)"/>
                </g>
                <g id="Group_649" data-name="Group 649" transform="translate(31.48 14.744)">
                    <path id="Path_776" d="M4674.038 1377.038h-10.776v-10.777h10.776zm-9.171-1.6h7.566v-7.567h-7.566z" class="cls-17" data-name="Path 776" transform="translate(-4663.262 -1366.261)"/>
                </g>
                <g id="Group_650" data-name="Group 650" transform="translate(20.3 9.905)">
                    <path id="Rectangle_67" d="M0 0H1.605V5.731H0z" class="cls-17" data-name="Rectangle 67"/>
                </g>
                <g id="Group_651" data-name="Group 651" transform="translate(35.964 9.905)">
                    <path id="Rectangle_68" d="M0 0H1.605V5.731H0z" class="cls-17" data-name="Rectangle 68"/>
                </g>
                <g id="Group_652" data-name="Group 652" transform="translate(20.3 24.949)">
                    <path id="Rectangle_69" d="M0 0H1.605V10.616H0z" class="cls-17" data-name="Rectangle 69"/>
                </g>
                <g id="Group_653" data-name="Group 653">
                    <path id="Path_777" d="M4537.883 1298.523h-42.256v-10.776h42.256zm-40.651-1.6h39.046v-7.566h-39.046z" class="cls-17" data-name="Path 777" transform="translate(-4495.627 -1287.747)"/>
                </g>
                <g id="Group_654" data-name="Group 654" transform="translate(15.74 34.905)">
                    <path id="Path_778" d="M4590.22 1484.4h-10.777v-10.78h10.777zm-9.173-1.6h7.568v-7.566h-7.568z" class="cls-17" data-name="Path 778" transform="translate(-4579.443 -1473.62)"/>
                </g>
                <g id="Group_655" data-name="Group 655" transform="translate(31.48 34.905)">
                    <path id="Path_779" d="M4674.038 1484.4h-10.776v-10.78h10.776zm-9.171-1.6h7.566v-7.566h-7.566z" class="cls-17" data-name="Path 779" transform="translate(-4663.262 -1473.62)"/>
                </g>
                <g id="Group_656" data-name="Group 656" transform="translate(0 34.905)">
                    <path id="Path_780" d="M4506.4 1484.4h-10.777v-10.78h10.777zm-9.172-1.6h7.567v-7.566h-7.567z" class="cls-17" data-name="Path 780" transform="translate(-4495.627 -1473.62)"/>
                </g>
            </g>
            <g id="Group_658" data-name="Group 658" transform="translate(2915.785 225.226)">
                <circle id="Ellipse_42" cx="9.43" cy="9.43" r="9.43" class="cls-17" data-name="Ellipse 42" transform="rotate(-13.283 18.606 2.166)"/>
            </g>
            <g id="Group_662" data-name="Group 662" transform="translate(2922.094 231.603)">
                <g id="Group_659" data-name="Group 659" transform="translate(17.766 .629)">
                    <path id="Rectangle_70" d="M0 0H55.405V1.605H0z" class="cls-17" data-name="Rectangle 70"/>
                </g>
                <g id="Group_660" data-name="Group 660" transform="translate(17.766 8.02)">
                    <path id="Rectangle_71" d="M0 0H42.604V1.605H0z" class="cls-17" data-name="Rectangle 71"/>
                </g>
                <g id="Group_661" data-name="Group 661">
                    <path id="Path_781" d="M3997.436 387.139l-3.374-3.119 1.089-1.179 2.107 1.947 5.432-6.808 1.255 1z" class="cls-18" data-name="Path 781" transform="translate(-3994.062 -377.98)"/>
                </g>
            </g>
            <g id="Group_675" data-name="Group 675" transform="translate(2697.997 340.354)">
                <g id="Group_674" data-name="Group 674">
                    <g id="Group_663" data-name="Group 663" transform="translate(0 7.155)">
                        <path id="Path_782" d="M2835.924 1053.262l-7.5-.055-27.647-27.648-.055-7.5 32.615-11.025 11.834-11.834 1.135 1.135-12.1 12.1-.178.06-31.698 10.705.042 5.687 26.717 26.717 5.686.042 10.776-31.874 12.1-12.1 1.135 1.135-11.832 11.831z" class="cls-17" data-name="Path 782" transform="translate(-2800.717 -995.195)"/>
                    </g>
                    <g id="Group_664" data-name="Group 664" transform="translate(43.082)">
                        <path id="Path_783" d="M3045.877 979.234l-3.934-3.934 1.135-1.135 2.8 2.8 4.127-4.127-13.473-13.473-4.127 4.127 5.628 5.628-1.135 1.135-6.763-6.763 6.4-6.4 15.743 15.743z" class="cls-17" data-name="Path 783" transform="translate(-3030.135 -957.095)"/>
                    </g>
                    <g id="Group_665" data-name="Group 665" transform="translate(32.959 19.344)">
                        <path id="Rectangle_72" d="M0 0H1.605V7.512H0z" class="cls-17" data-name="Rectangle 72" transform="rotate(-45 1.37 .568)"/>
                    </g>
                    <g id="Group_666" data-name="Group 666" transform="translate(5.537 34.017)">
                        <path id="Rectangle_73" d="M0 0H1.605V18.78H0z" class="cls-17" data-name="Rectangle 73" transform="rotate(-45 1.37 .568)"/>
                    </g>
                    <g id="Group_672" data-name="Group 672" transform="translate(16.957 28.6)">
                        <g id="Group_667" data-name="Group 667" transform="translate(16.839)">
                            <path id="Rectangle_74" d="M0 0H1.605V7.512H0z" class="cls-17" data-name="Rectangle 74" transform="rotate(-45 1.37 .568)"/>
                        </g>
                        <g id="Group_668" data-name="Group 668" transform="translate(12.629 4.209)">
                            <path id="Rectangle_75" d="M0 0H1.605V7.512H0z" class="cls-17" data-name="Rectangle 75" transform="rotate(-45 1.37 .568)"/>
                        </g>
                        <g id="Group_669" data-name="Group 669" transform="translate(8.419 8.419)">
                            <path id="Rectangle_76" d="M0 0H1.605V7.512H0z" class="cls-17" data-name="Rectangle 76" transform="rotate(-45 1.37 .568)"/>
                        </g>
                        <g id="Group_670" data-name="Group 670" transform="translate(4.21 12.629)">
                            <path id="Rectangle_77" d="M0 0H1.605V7.512H0z" class="cls-17" data-name="Rectangle 77" transform="rotate(-45 1.37 .568)"/>
                        </g>
                        <g id="Group_671" data-name="Group 671" transform="translate(0 16.838)">
                            <path id="Rectangle_78" d="M0 0H1.605V7.513H0z" class="cls-17" data-name="Rectangle 78" transform="rotate(-44.999 1.37 .568)"/>
                        </g>
                    </g>
                    <g id="Group_673" data-name="Group 673" transform="translate(28.644 57.124)">
                        <path id="Rectangle_79" d="M0 0H1.605V7.138H0z" class="cls-17" data-name="Rectangle 79" transform="rotate(-45.001 1.37 .567)"/>
                    </g>
                </g>
            </g>
        </g>
    </g>
</svg>
