<svg xmlns="http://www.w3.org/2000/svg" width="438.109" height="432.048" viewBox="0 0 438.109 432.048">
    <defs>
        <style>
            .cls-1{fill:rgba(255,255,255,.41);opacity:.6}.cls-2{fill:#212a54}.cls-3{fill:#ffd3b5}.cls-4{fill:#ec9568}.cls-6{fill:#98d14a}.cls-9{fill:#0450cf}.cls-10{fill:#f4da80}.cls-11{fill:#0561fc}.cls-12{fill:#fd8838}.cls-15{fill:#fff}
        </style>
    </defs>
    <g id="Group_686" transform="translate(-110 -1480.77)">
        <g id="Group_517" transform="translate(110 1480.77)">
            <g id="Group_488" transform="translate(7.669)">
                <path id="Path_678" d="M3075.3 1792.611c30.111 3.234 105.5 20.373 99.683 84.4-5.271 57.977-77.249 47.17-120.628 57.134-74.371 17.082-78.737 80.385-137.673 60.739-61.322-20.44-79.585-62.665-43.193-99.148s61.5-11.505 68.826-47.356 94.398-59.915 132.985-55.769z" class="cls-1" transform="translate(-2854.864 -1792.148)"/>
            </g>
            <g id="Group_501" transform="translate(49.679 8.206)">
                <g id="Group_489">
                    <path id="Path_679" d="M3125.442 1936.311s-12.739-41.733-21.231-46.2 5.66-14.9 15.57-7.451 1.415 13.413 1.415 13.413-28.31-28.317-5.662-35.77 28.309-8.943 32.555 4.471-16.985 13.413-12.74 1.49 46.71-43.222 41.048-13.413-4.246 19.375-11.323 16.395 18.4-28.319 25.478-16.395 5.661 29.808 1.415 34.28-1.415 0-5.661 11.923-25.478 7.452-33.97 19.375-7.079 11.92-26.894 17.882z" class="cls-2" transform="translate(-3101.606 -1840.343)"/>
                </g>
                <g id="Group_490" transform="translate(27.05 85.653)">
                    <path id="Path_680" d="M3280.46 2348.156s6.195 6.193-2.479 23.539-27.255 16.724-11.15 63.183 49.556-4.955 61.325-9.911 4.956-28.494-2.478-39.645-24.158-8.052-29.113-18.583-3.717-13.008 1.239-20.441-17.344 1.858-17.344 1.858z" class="cls-3" transform="translate(-3260.482 -2343.416)"/>
                </g>
                <g id="Group_491" transform="translate(44.364 85.653)">
                    <path id="Path_681" d="M3362.171 2372.055a60.693 60.693 0 0 0 17.214-8.871c-3.037-7.662-1.549-10.371 2.8-16.887 4.956-7.433-17.345 1.859-17.345 1.859s6.195 6.193-2.479 23.539c-.061.122-.128.24-.19.36z" class="cls-4" transform="translate(-3362.171 -2343.416)"/>
                </g>
                <g id="Group_493" transform="translate(26.549 116.608)">
                    <g id="Group_492">
                        <path id="Path_682" fill="#b3db53" d="M3323.237 2536.175c-4.607-6.912-12.786-8.35-19.519-10.952.728 6.286-1.528 12.178-6.414 15.1-7.2 4.3-17.367.516-22.716-8.443a23.318 23.318 0 0 1-2.044-4.4c-9.185 12.8-23.7 17.066-8.154 58.258 15.331 40.61 55.21-3.248 63.99-11.6 5.547-5.278 2.29-26.812-5.143-37.963z" transform="translate(-3257.539 -2525.223)"/>
                    </g>
                </g>
                <g id="Group_494" transform="translate(10.782 27.44)">
                    <path id="Path_683" d="M3177.642 2029.154s11.769 5.575 19.2-9.911l7.433-15.486s13.009 5.575 17.344-1.239 14.248 22.3 12.389 44.6-21.839 35.644-42.742 20.441c-6.814-4.955-11.5-5.186-17.963-7.434-14.248-4.955-7.434-18.583-.62-16.1s6.813 7.433 9.291 4.336 2.141-13.839-4.332-19.207z" class="cls-3" transform="translate(-3164.935 -2001.508)"/>
                </g>
                <g id="Group_495" transform="translate(27.051 133.039)">
                    <path id="Path_684" d="M3302.2 2677.993c-6.111-13.813-10.23-22.219-24.216-43.78-4.34-6.693-9.262-10.477-14.055-12.485-4.4 7.865-5.7 19.247 2.905 44.077 8.753 25.251 22.63 21.589 35.366 12.188z" class="cls-6" transform="translate(-3260.484 -2621.728)"/>
                </g>
                <g id="Group_496" transform="translate(83.558 120.597)">
                    <path id="Path_685" d="M3601.059 2555.615a19.859 19.859 0 0 0-8.69-6.963c3.87 6.838 10.424 21.245 13.917 44.822 7.776-7.337 1.533-27.719-5.227-37.859z" class="cls-6" transform="translate(-3592.369 -2548.652)"/>
                </g>
                <g id="Group_497" transform="translate(57.154 46.798)">
                    <path id="Path_686" d="M3443.332 2133.076c-4.617-7.713-6.028-17.671-6.042-17.771l.721-.1c.014.1 1.406 9.913 5.945 17.5z" class="cls-2" transform="translate(-3437.29 -2115.206)"/>
                </g>
                <g id="Group_498" transform="translate(41.896 52.607)">
                    <path id="Path_687" d="M3348.187 2161.566c-.537-3.219-1.654-9.918 3.106-11.957a3.484 3.484 0 0 1 2.787.01c3.573 1.467 6.253 7.964 6.365 8.24l-.674.275c-.026-.065-2.678-6.491-5.968-7.841a2.745 2.745 0 0 0-2.223-.015c-4.235 1.815-3.182 8.133-2.676 11.168z" class="cls-2" transform="translate(-3347.677 -2149.323)"/>
                </g>
                <g id="Group_499" transform="translate(65.414 46.379)">
                    <path id="Path_688" d="M3486.755 2125.866a42.759 42.759 0 0 1-.86-5.552c-.32-3.951.234-6.385 1.647-7.232a2.726 2.726 0 0 1 2.857.136c2.713 1.536 5.746 6.97 5.746 11.945h-.728c0-4.656-2.891-9.9-5.377-11.312a2.02 2.02 0 0 0-2.124-.146c-2.353 1.412-1.125 9.136-.453 11.993z" class="cls-2" transform="translate(-3485.807 -2112.74)"/>
                </g>
                <g id="Group_500" transform="translate(54.935 78.662)">
                    <path id="Path_689" d="M3432.445 2306.587c-4.008 0-8-3.526-8.187-3.69l.484-.543c.047.042 4.724 4.167 8.731 3.412a5.738 5.738 0 0 0 4-3.39l.649.329a6.425 6.425 0 0 1-4.517 3.776 6.282 6.282 0 0 1-1.16.106z" class="cls-2" transform="translate(-3424.258 -2302.354)"/>
                </g>
            </g>
            <g id="Group_510" transform="translate(183.699 85.941)">
                <g id="Group_502" transform="translate(7.282)">
                    <path id="Path_690" fill="#fec12f" d="M4025.639 2378.207c17.613-22.358 18.426-51.092-5.969-70.309s-52.138-11.7-69.751 10.664c-13.739 17.44-6.281 33.129-7.3 55.77-.2 4.482-11.106 14.1-11.106 14.1l30.5 24.028s6.795-12.857 11.105-14.1c21.782-6.293 38.782-2.71 52.521-20.153z" transform="translate(-3931.516 -2296.907)"/>
                </g>
                <g id="Group_503" transform="translate(7.282 3.289)">
                    <path id="Path_691" fill="#ffab01" d="M3950.126 2407.035c1.407-31.29-8.9-52.969 10.084-77.071a90.114 90.114 0 0 1 13.344-13.737c-8.842 3.563-16.967 9.9-23.635 18.366-13.739 17.44-6.281 33.129-7.3 55.771-.2 4.482-11.106 14.1-11.106 14.1l13.991 11.021c2.523-3.105 4.525-6.233 4.622-8.45z" transform="translate(-3931.516 -2316.226)"/>
                </g>
                <g id="Group_504" transform="translate(0 91.111)">
                    <path id="Path_692" d="M3895.507 2832.035l-3.312 4.2a16.065 16.065 0 0 0 2.677 22.563l6.31 4.97a16.067 16.067 0 0 0 22.562-2.681l3.311-4.2z" class="cls-9" transform="translate(-3888.748 -2832.035)"/>
                </g>
                <g id="Group_505" transform="translate(47.37 31.895)">
                    <path id="Path_693" d="M4208.178 2519.857l-4.016-.047.088-7.521-9.822 2.5.134-10.12-9.81 2.5.133-10.117-9.8 2.5.134-10.117-7.253 1.86-1-3.89 12.336-3.163-.134 10.121 9.8-2.5-.133 10.122 9.81-2.5-.134 10.122 9.813-2.493z" class="cls-10" transform="translate(-4166.967 -2484.238)"/>
                </g>
                <g id="Group_506" transform="translate(17.231 46.237)">
                    <path id="Path_694" d="M3993.105 2623.225l-3.155-2.485 20.651-26.212 9.324-26.053 3.781 1.354-9.545 26.67z" class="cls-10" transform="translate(-3989.95 -2568.474)"/>
                </g>
                <g id="Group_507" transform="translate(26.912 63.876)">
                    <path id="Path_695" d="M4049.964 2716.814l-3.155-2.485 21.057-26.73 23.692-15.523 2.2 3.36-23.144 15.164z" class="cls-10" transform="translate(-4046.809 -2672.075)"/>
                </g>
                <g id="Group_508" transform="translate(11.055 100.048)">
                    <path id="Rectangle_63" d="M0 0H4.173V25.101H0z" class="cls-11" transform="rotate(-51.768 3.378 1.639)"/>
                </g>
                <g id="Group_509" transform="translate(6.395 105.964)">
                    <path id="Path_696" d="M3940.5 2933.73l-14.2-11.184 2.581-3.276 14.2 11.183z" class="cls-11" transform="translate(-3926.307 -2919.271)"/>
                </g>
            </g>
            <g id="Group_511" transform="translate(146.024 23.852)">
                <path id="Path_697" d="M3744.442 2079.408l-.021-1.455c1.871-.027 3.817-.1 5.786-.216l.086 1.452c-1.993.118-3.958.192-5.851.219zm-5.859-.065c-2.015-.078-3.985-.214-5.854-.407l.149-1.447c1.838.189 3.776.324 5.76.4zm17.543-.615l-.142-1.448c1.881-.185 3.818-.409 5.759-.667l.192 1.443c-1.956.259-3.911.486-5.809.672zm-29.218-.623a56.1 56.1 0 0 1-5.734-1.369l.416-1.395a54.667 54.667 0 0 0 5.585 1.333zm40.811-.913l-.237-1.436c1.88-.311 3.8-.657 5.709-1.03l.279 1.428c-1.921.376-3.856.725-5.751 1.038zm11.468-2.239l-.319-1.419c1.883-.424 3.782-.878 5.644-1.352l.358 1.41c-1.87.476-3.787.934-5.683 1.361zm-63.558-.284a31.25 31.25 0 0 1-5.154-2.968l.849-1.182a29.737 29.737 0 0 0 4.914 2.828zm74.883-2.6l-.4-1.4c1.88-.537 3.75-1.1 5.555-1.675l.442 1.387c-1.818.582-3.701 1.15-5.596 1.69zm11.14-3.558l-.49-1.37c1.895-.677 3.715-1.372 5.412-2.065l.55 1.348c-1.716.702-3.557 1.405-5.471 2.089zm-95.583-.855a21.744 21.744 0 0 1-3.2-5.067l1.326-.6a20.316 20.316 0 0 0 2.985 4.729zm106.423-3.606l-.634-1.31q.419-.2.821-.4c1.462-.731 2.9-1.507 4.262-2.307l.735 1.256c-1.394.816-2.856 1.607-4.347 2.352q-.409.204-.836.411zm10.129-5.948l-.841-1.188c1.583-1.121 3.106-2.311 4.528-3.539l.951 1.1c-1.459 1.262-3.016 2.481-4.637 3.625zm-121.487-1.233a29.646 29.646 0 0 1-.417-5.043c0-.293 0-.593.012-.892l1.455.038c-.007.286-.011.574-.011.854a28.076 28.076 0 0 0 .4 4.794zm130.381-6.468l-1.062-1a50.974 50.974 0 0 0 3.683-4.394l1.167.869a52.5 52.5 0 0 1-3.788 4.524zm-128.615-4.991l-1.4-.414a21 21 0 0 1 2.579-5.426l1.22.793a19.582 19.582 0 0 0-2.399 5.047zm135.643-4.46l-1.261-.724a47.181 47.181 0 0 0 2.546-5.13l1.341.566a48.677 48.677 0 0 1-2.626 5.287zm-129.7-5.04l-1.062-1a50.9 50.9 0 0 1 4.3-4.053l.938 1.112a49.534 49.534 0 0 0-4.174 3.94zm134.286-5.813l-1.4-.4a48.859 48.859 0 0 0 1.246-5.593l1.437.233a50.238 50.238 0 0 1-1.281 5.763zm-125.54-1.642l-.84-1.188c1.577-1.115 3.234-2.2 4.926-3.22l.752 1.246c-1.659 1.007-3.287 2.067-4.836 3.161zm127.437-9.985l-1.454-.07c.042-.856.063-1.728.063-2.592 0-1.04-.03-2.1-.09-3.151l1.453-.083c.062 1.078.093 2.166.093 3.234.001.886-.021 1.782-.063 2.661zm-2.093-11.525c-.292-1.864-.678-3.76-1.149-5.635l1.412-.354c.482 1.918.877 3.857 1.176 5.764zm-2.79-11.152c-.614-1.789-1.317-3.6-2.088-5.37l1.334-.58c.786 1.809 1.5 3.652 2.13 5.477zm-4.583-10.567c-.884-1.681-1.848-3.365-2.865-5.007l1.237-.766c1.035 1.671 2.016 3.385 2.916 5.1zm-6.067-9.808c-1.108-1.548-2.29-3.091-3.511-4.584l1.127-.921c1.241 1.517 2.44 3.084 3.567 4.657zm-7.3-8.938c-1.3-1.4-2.662-2.785-4.054-4.116l1.006-1.052c1.412 1.351 2.8 2.757 4.114 4.178zm-8.345-7.984c-1.457-1.238-2.974-2.453-4.51-3.612l.876-1.162c1.558 1.176 3.1 2.409 4.576 3.665zm-145.6-.753l-.773-1.233c1.656-1.038 3.336-2.057 5-3.029l.735 1.256c-1.657.963-3.326 1.975-4.969 3.006zm10-5.857l-.7-1.278c1.716-.933 3.458-1.844 5.179-2.708l.653 1.3c-1.704.856-3.432 1.76-5.134 2.685zm126.381-.351c-1.592-1.065-3.237-2.1-4.892-3.077l.74-1.253c1.678.991 3.347 2.041 4.961 3.121zm-116.021-4.845l-.607-1.323c1.774-.815 3.576-1.6 5.355-2.345l.56 1.344c-1.767.734-3.552 1.516-5.311 2.323zm106.074-1.031c-1.7-.881-3.452-1.727-5.2-2.514l.6-1.327c1.776.8 3.551 1.656 5.276 2.549zm-95.377-3.419l-.508-1.363c1.829-.682 3.687-1.333 5.519-1.936l.455 1.382c-1.819.597-3.658 1.242-5.471 1.917zm84.84-1.32c-1.788-.689-3.621-1.338-5.447-1.93l.448-1.384c1.852.6 3.709 1.258 5.522 1.956zm-73.838-2.293l-.4-1.4c1.878-.533 3.782-1.031 5.661-1.479l.337 1.415c-1.859.444-3.743.937-5.605 1.465zm62.847-1.268c-1.853-.491-3.745-.939-5.624-1.331l.3-1.425c1.9.4 3.822.852 5.7 1.349zm-51.588-1.417l-.275-1.429c1.917-.37 3.859-.7 5.77-.978l.211 1.44c-1.894.277-3.814.602-5.71.968zm40.277-.945c-1.89-.291-3.819-.537-5.734-.731l.146-1.448c1.94.2 3.894.445 5.809.74zm-28.829-.725l-.143-1.448c1.943-.192 3.908-.338 5.839-.435l.073 1.454c-1.912.096-3.853.24-5.773.43zm17.331-.439c-1.873-.093-3.781-.14-5.669-.14h-.11v-1.455h.11c1.913 0 3.844.048 5.741.141z" class="cls-12" transform="translate(-3667.468 -1932.239)"/>
            </g>
            <g id="Group_512" transform="translate(205.065 95.25)">
                <path id="Path_698" d="M4031.73 2394.065h-.072c-2 0-3.948-.061-5.793-.182l.1-1.452c1.813.119 3.73.179 5.7.179h.072zm5.861-.166l-.079-1.453c1.871-.1 3.814-.252 5.776-.448l.144 1.448c-1.982.198-3.947.354-5.84.454zm-17.575-.641a49.9 49.9 0 0 1-5.777-1.217l.389-1.4a48.5 48.5 0 0 0 5.608 1.18zm29.23-.51l-.2-1.441c1.879-.262 3.807-.567 5.73-.906l.252 1.433c-1.94.343-3.885.651-5.781.915zm11.532-2.027l-.3-1.424c1.875-.4 3.779-.828 5.66-1.287l.345 1.414c-1.895.463-3.814.9-5.704 1.298zm11.359-2.774l-.39-1.4c1.866-.519 3.739-1.072 5.566-1.644l.435 1.389c-1.841.576-3.728 1.134-5.61 1.656zm11.166-3.5l-.482-1.373c1.851-.65 3.68-1.33 5.436-2.022l.533 1.354c-1.771.7-3.617 1.387-5.49 2.043zm10.893-4.3l-.591-1.33c1.823-.811 3.582-1.648 5.227-2.487l.661 1.3c-1.668.847-3.45 1.694-5.293 2.516zm10.441-5.36l-.75-1.247a56.668 56.668 0 0 0 4.781-3.191l.873 1.164a58.045 58.045 0 0 1-4.903 3.273zm9.36-7.209l-1.065-.991a13.919 13.919 0 0 0 3-4.578l1.368.5a15.331 15.331 0 0 1-3.3 5.068zm1.636-10.465a8.094 8.094 0 0 0-4.41-2.822l.443-1.386a9.468 9.468 0 0 1 5.174 3.395zm-27.21-3.127l-.229-1.437c.024 0 2.455-.388 5.844-.668l.12 1.45c-3.33.269-5.711.65-5.734.654zm17.241-.736c-1.482-.138-3.119-.209-4.864-.209q-.44 0-.877.006l-.02-1.455q.447-.006.9-.006c1.791 0 3.473.073 5 .215z" class="cls-12" transform="translate(-4014.239 -2351.585)"/>
            </g>
            <g id="Group_513" transform="translate(167.854 14.497)">
                <path id="Path_699" fill="#fccc42" d="M3839.336 1899.122a21.827 21.827 0 1 1-21.827-21.827 21.827 21.827 0 0 1 21.827 21.827z" transform="translate(-3795.682 -1877.295)"/>
            </g>
            <g id="Group_514" transform="translate(0 108.979)">
                <path id="Path_700" fill="#f05050" d="M2855.878 2432.22l-3.036 24.9-3.037 24.9-19.992-14.951-19.992-14.951 23.029-9.952z" transform="translate(-2809.82 -2432.22)"/>
            </g>
            <g id="Group_515" transform="translate(151.169 41.625)">
                <path id="Path_701" d="M3720.54 2099.1l-.3-.3-22.557-22.557 8.382-31.234 31.235-8.383 22.854 22.855-8.382 31.235-.405.109zm-21.23-23.288l21.665 21.665 29.612-7.946 7.947-29.612-21.666-21.666-29.612 7.947z" class="cls-12" transform="translate(-3697.686 -2036.627)"/>
            </g>
            <g id="Group_516" transform="translate(242.66 46.303)">
                <path id="Rectangle_64" d="M0 0H13.097V13.825H0z" class="cls-6"/>
            </g>
        </g>
        <g id="Group_676" transform="translate(236.841 1699.714)">
            <g id="Group_518">
                <path id="Path_702" d="M2929.275 408.207c-16.972 1.484-44.958 5.62-88.043-.937-45.523-6.928-215.424-81.487-153.606-153.607s189.708-70.856 242.588-16.859c35.052 35.796 105.086 162.133-.939 171.403z" class="cls-1" transform="translate(-2674.247 -197.759)"/>
            </g>
            <g id="Group_614" transform="translate(58.158 61.134)">
                <g id="Group_520" transform="translate(115.867 4.442)">
                    <g id="Group_519">
                        <path id="Path_703" d="M3865.79 654.925h-.577v-8.385h.577v8.385z" class="cls-15" transform="translate(-3865.213 -646.54)"/>
                    </g>
                </g>
                <g id="Group_522" transform="translate(114.713 4.442)">
                    <g id="Group_521">
                        <path id="Path_704" d="M3857.895 654.925h-.577v-8.385h.577v8.385z" class="cls-15" transform="translate(-3857.317 -646.54)"/>
                    </g>
                </g>
                <g id="Group_598" transform="translate(6.394)">
                    <g id="Group_524" transform="translate(29.278 4.442)">
                        <g id="Group_523">
                            <path id="Path_705" d="M3316.683 659.367l-.289-.5 7.117-4.109v-8.218h.577v8.551l-7.405 4.276z" class="cls-15" transform="translate(-3316.394 -646.54)"/>
                        </g>
                    </g>
                    <g id="Group_526" transform="translate(51.247 12.577)">
                        <g id="Group_525">
                            <path id="Path_706" d="M3474.147 706.99l-7.406-4.276.289-.5 7.116 4.109 7.118-4.109.288.5-7.406 4.276z" class="cls-15" transform="translate(-3466.742 -702.215)"/>
                        </g>
                    </g>
                    <g id="Group_528" transform="translate(65.863)">
                        <g id="Group_527">
                            <path id="Path_707" d="M3574.175 633.494l-7.405-4.276.289-.5 7.116 4.109 6.973-4.026v-8.051l-7.116-4.109.288-.5 7.406 4.276v8.717l-7.55 4.359z" class="cls-15" transform="translate(-3566.77 -616.142)"/>
                        </g>
                    </g>
                    <g id="Group_530" transform="translate(80.334)">
                        <g id="Group_529">
                            <path id="Path_708" d="M3673.352 633.494l-7.549-4.359v-8.717l7.406-4.276.289.5-7.118 4.109v8.049l6.972 4.026 7.118-4.109.288.5-7.406 4.276z" class="cls-15" transform="translate(-3665.803 -616.142)"/>
                        </g>
                    </g>
                    <g id="Group_532" transform="translate(.069 12.547)">
                        <g id="Group_531">
                            <path id="Path_709" d="M3123.905 719.363l-7.406-4.276.289-.5 7.117 4.109 6.973-4.026v-8.05l-7.117-4.109.289-.5 7.406 4.277V715l-7.55 4.359z" class="cls-15" transform="translate(-3116.499 -702.01)"/>
                        </g>
                    </g>
                    <g id="Group_534" transform="translate(14.542 12.465)">
                        <g id="Group_533">
                            <path id="Path_710" d="M3223.09 718.883l-7.55-4.359v-8.718l7.55-4.359 7.551 4.359v8.718l-7.551 4.359zm-6.973-4.692l6.973 4.026 6.973-4.026v-8.052l-6.973-4.026-6.973 4.026v8.052z" class="cls-15" transform="translate(-3215.541 -701.447)"/>
                        </g>
                    </g>
                    <g id="Group_541" transform="translate(15.648 13.659)">
                        <g id="Group_536">
                            <g id="Group_535">
                                <path id="Path_711" d="M3223.4 713.754l-.288-.5 6.3-3.637.289.5-6.3 3.637z" class="cls-15" transform="translate(-3223.112 -709.618)"/>
                            </g>
                        </g>
                        <g id="Group_538" transform="translate(0 10.911)">
                            <g id="Group_537">
                                <path id="Path_712" d="M3229.411 788.428l-6.3-3.637.288-.5 6.3 3.636-.289.5z" class="cls-15" transform="translate(-3223.112 -784.292)"/>
                            </g>
                        </g>
                        <g id="Group_540" transform="translate(12.454 3.886)">
                            <g id="Group_539">
                                <path id="Path_713" d="M3308.92 743.489h-.577v-7.274h.577v7.274z" class="cls-15" transform="translate(-3308.344 -736.215)"/>
                            </g>
                        </g>
                    </g>
                    <g id="Group_548" transform="translate(37.571 26.254)">
                        <g id="Group_543">
                            <g id="Group_542">
                                <path id="Path_714" d="M3373.432 799.954l-.289-.5 6.3-3.638.288.5-6.3 3.638z" class="cls-15" transform="translate(-3373.143 -795.816)"/>
                            </g>
                        </g>
                        <g id="Group_545" transform="translate(0 10.911)">
                            <g id="Group_544">
                                <path id="Path_715" d="M3379.443 874.628l-6.3-3.638.289-.5 6.3 3.637-.288.5z" class="cls-15" transform="translate(-3373.143 -870.49)"/>
                            </g>
                        </g>
                        <g id="Group_547" transform="translate(12.455 3.888)">
                            <g id="Group_546">
                                <path id="Path_716" d="M3458.956 829.7h-.577v-7.274h.577v7.274z" class="cls-15" transform="translate(-3458.379 -822.421)"/>
                            </g>
                        </g>
                    </g>
                    <g id="Group_555" transform="translate(74.109 13.755)">
                        <g id="Group_550">
                            <g id="Group_549">
                                <path id="Path_717" d="M3623.489 714.414l-.288-.5 6.3-3.637.289.5-6.3 3.638z" class="cls-15" transform="translate(-3623.201 -710.277)"/>
                            </g>
                        </g>
                        <g id="Group_552" transform="translate(0 10.91)">
                            <g id="Group_551">
                                <path id="Path_718" d="M3629.5 789.082l-6.3-3.638.288-.5 6.3 3.637-.289.5z" class="cls-15" transform="translate(-3623.201 -784.945)"/>
                            </g>
                        </g>
                        <g id="Group_554" transform="translate(12.455 3.887)">
                            <g id="Group_553">
                                <path id="Path_719" d="M3709.018 744.15h-.577v-7.274h.577v7.274z" class="cls-15" transform="translate(-3708.442 -736.876)"/>
                            </g>
                        </g>
                    </g>
                    <g id="Group_557" transform="translate(29.156 12.465)">
                        <g id="Group_556">
                            <path id="Path_720" d="M3323.109 718.883l-7.55-4.359v-8.718l7.55-4.359 7.55 4.359v8.718l-7.55 4.359zm-6.973-4.692l6.973 4.026 6.973-4.026v-8.052l-6.973-4.026-6.973 4.026v8.052z" class="cls-15" transform="translate(-3315.559 -701.447)"/>
                        </g>
                    </g>
                    <g id="Group_559" transform="translate(43.772 12.547)">
                        <g id="Group_558">
                            <path id="Path_721" d="M3423.135 719.363l-7.55-4.359v-8.551h.577v8.218l6.973 4.026 6.973-4.026v-8.051l-7.117-4.109.289-.5 7.406 4.277V715l-7.551 4.359z" class="cls-15" transform="translate(-3415.586 -702.01)"/>
                        </g>
                    </g>
                    <g id="Group_561" transform="translate(58.387 12.465)">
                        <g id="Group_560">
                            <path id="Path_722" d="M3523.154 718.883l-7.551-4.359v-8.718l7.551-4.359 7.55 4.359v8.718l-7.55 4.359zm-6.973-4.692l6.973 4.026 6.973-4.026v-8.052l-6.973-4.026-6.973 4.026v8.052z" class="cls-15" transform="translate(-3515.603 -701.447)"/>
                        </g>
                    </g>
                    <g id="Group_563" transform="translate(73.003 12.465)">
                        <g id="Group_562">
                            <path id="Path_723" d="M3623.18 718.883l-7.55-4.359v-8.718l7.55-4.359 7.551 4.359v8.718l-7.551 4.359zm-6.973-4.692l6.973 4.026 6.973-4.026v-8.052l-6.973-4.026-6.973 4.026v8.052z" class="cls-15" transform="translate(-3615.631 -701.447)"/>
                        </g>
                    </g>
                    <g id="Group_565" transform="translate(87.618 12.465)">
                        <g id="Group_564">
                            <path id="Path_724" d="M3723.2 718.883l-7.55-4.359v-8.718l7.55-4.359 7.551 4.359v8.718l-7.551 4.359zm-6.972-4.692l6.972 4.026 6.974-4.026v-8.052l-6.974-4.026-6.972 4.026v8.052z" class="cls-15" transform="translate(-3715.649 -701.447)"/>
                        </g>
                    </g>
                    <g id="Group_567" transform="translate(102.234 12.465)">
                        <g id="Group_566">
                            <path id="Path_725" d="M3816.253 714.356h-.577v-8.55l7.549-4.359 7.406 4.275-.288.5-7.118-4.109-6.972 4.026v8.217z" class="cls-15" transform="translate(-3815.676 -701.447)"/>
                        </g>
                    </g>
                    <g id="Group_569" transform="translate(0 25.097)">
                        <g id="Group_568">
                            <path id="Path_726" d="M3116.313 805.162l-.289-.5 7.118-4.11V792.5l-7.118-4.109.289-.5 7.406 4.275v8.717l-7.406 4.276z" class="cls-15" transform="translate(-3116.024 -787.893)"/>
                        </g>
                    </g>
                    <g id="Group_571" transform="translate(7.209 25.014)">
                        <g id="Group_570">
                            <path id="Path_727" d="M3172.766 804.677l-7.405-4.276v-8.717l7.551-4.358 7.55 4.358v8.551h-.577v-8.218l-6.973-4.025-6.973 4.025v8.051l7.117 4.11-.29.5z" class="cls-15" transform="translate(-3165.361 -787.326)"/>
                        </g>
                    </g>
                    <g id="Group_573" transform="translate(21.825 25.014)">
                        <g id="Group_572">
                            <path id="Path_728" d="M3272.938 804.76l-7.55-4.359v-8.717l7.55-4.358 7.55 4.358v8.716l-7.55 4.359zm-6.973-4.692l6.973 4.026 6.973-4.026v-8.051l-6.973-4.025-6.973 4.025v8.051z" class="cls-15" transform="translate(-3265.387 -787.326)"/>
                        </g>
                    </g>
                    <g id="Group_575" transform="translate(36.44 25.014)">
                        <g id="Group_574">
                            <path id="Path_729" d="M3372.956 804.76l-7.551-4.359v-8.717l7.551-4.358 7.549 4.358v8.716l-7.549 4.359zm-6.973-4.692l6.973 4.026 6.973-4.026v-8.051l-6.973-4.025-6.973 4.025v8.051z" class="cls-15" transform="translate(-3365.405 -787.326)"/>
                        </g>
                    </g>
                    <g id="Group_577" transform="translate(51.056 25.014)">
                        <g id="Group_576">
                            <path id="Path_730" d="M3472.982 804.76l-7.55-4.359v-8.717l7.55-4.358 7.55 4.358v8.716l-7.55 4.359zm-6.973-4.692l6.973 4.026 6.973-4.026v-8.051l-6.973-4.025-6.973 4.025v8.051z" class="cls-15" transform="translate(-3465.432 -787.326)"/>
                        </g>
                    </g>
                    <g id="Group_579" transform="translate(65.671 25.014)">
                        <g id="Group_578">
                            <path id="Path_731" d="M3573 804.76l-7.551-4.359v-8.717l7.551-4.358 7.549 4.358v8.716l-7.549 4.36zm-6.974-4.692l6.974 4.026 6.973-4.026v-8.051l-6.973-4.025-6.974 4.025v8.051z" class="cls-15" transform="translate(-3565.45 -787.326)"/>
                        </g>
                    </g>
                    <g id="Group_581" transform="translate(80.287 25.014)">
                        <g id="Group_580">
                            <path id="Path_732" d="M3672.883 804.677l-7.405-4.276v-8.717l7.55-4.358 7.55 4.358v8.551H3680v-8.218l-6.973-4.025-6.973 4.025v8.051l7.118 4.11-.289.5z" class="cls-15" transform="translate(-3665.478 -787.326)"/>
                        </g>
                    </g>
                    <g id="Group_583" transform="translate(94.902 25.097)">
                        <g id="Group_582">
                            <path id="Path_733" d="M3766.073 800.72h-.577v-8.551l7.406-4.275.289.5-7.117 4.109v8.218z" class="cls-15" transform="translate(-3765.496 -787.893)"/>
                        </g>
                    </g>
                    <g id="Group_585" transform="translate(.023 37.561)">
                        <g id="Group_584">
                            <path id="Path_734" d="M3130.7 877.969l-7.116-4.109-7.118 4.109-.288-.5 7.406-4.276 7.4 4.276-.289.5z" class="cls-15" transform="translate(-3116.182 -873.194)"/>
                        </g>
                    </g>
                    <g id="Group_587" transform="translate(14.638 37.645)">
                        <g id="Group_586">
                            <path id="Path_735" d="M3223.606 891.12l-7.405-4.276.288-.5 7.117 4.11 6.973-4.027v-8.052l-7.118-4.109.289-.5 7.406 4.275v8.718l-7.55 4.359z" class="cls-15" transform="translate(-3216.2 -873.768)"/>
                        </g>
                    </g>
                    <g id="Group_589" transform="translate(29.109 37.561)">
                        <g id="Group_588">
                            <path id="Path_736" d="M3322.788 890.63l-7.55-4.359v-8.718l7.55-4.359 7.549 4.359v8.718l-7.549 4.359zm-6.974-4.692l6.974 4.026 6.973-4.026v-8.052l-6.973-4.026-6.974 4.026v8.052z" class="cls-15" transform="translate(-3315.238 -873.194)"/>
                        </g>
                    </g>
                    <g id="Group_591" transform="translate(43.724 37.561)">
                        <g id="Group_590">
                            <path id="Path_737" d="M3430.355 886.1h-.577v-8.218l-6.973-4.026-6.973 4.026v8.218h-.577v-8.551l7.55-4.359 7.55 4.359v8.551z" class="cls-15" transform="translate(-3415.256 -873.194)"/>
                        </g>
                    </g>
                    <g id="Group_593" transform="translate(58.34 37.561)">
                        <g id="Group_592">
                            <path id="Path_738" d="M3522.833 890.63l-7.55-4.359v-8.718l7.55-4.359 7.55 4.359v8.718l-7.55 4.359zm-6.973-4.692l6.973 4.026 6.973-4.026v-8.052l-6.973-4.026-6.973 4.026v8.052z" class="cls-15" transform="translate(-3515.283 -873.194)"/>
                        </g>
                    </g>
                    <g id="Group_595" transform="translate(72.955 37.561)">
                        <g id="Group_594">
                            <path id="Path_739" d="M3630.4 886.1h-.577v-8.218l-6.973-4.026-6.973 4.026v8.218h-.578v-8.551l7.55-4.359 7.549 4.359v8.551z" class="cls-15" transform="translate(-3615.301 -873.194)"/>
                        </g>
                    </g>
                    <g id="Group_597" transform="translate(21.778 50.11)">
                        <g id="Group_596">
                            <path id="Path_740" d="M3265.639 971.986h-.577v-8.552l7.55-4.358 7.405 4.275-.289.5-7.116-4.109-6.973 4.025v8.219z" class="cls-15" transform="translate(-3265.062 -959.076)"/>
                        </g>
                    </g>
                </g>
                <g id="Group_601" transform="translate(6.731 10.811)">
                    <g id="Group_599">
                        <path id="Path_741" d="M3120.346 692.757a1.692 1.692 0 0 1-.7.127 1.246 1.246 0 0 1-1.315-1.355 1.326 1.326 0 0 1 1.394-1.4 1.444 1.444 0 0 1 .634.118l-.088.282a1.213 1.213 0 0 0-.534-.111.993.993 0 0 0-1.042 1.1.968.968 0 0 0 1.022 1.073 1.384 1.384 0 0 0 .567-.111z" class="cls-15" transform="translate(-3118.327 -690.126)"/>
                    </g>
                    <g id="Group_600" transform="translate(2.449 .044)">
                        <path id="Path_742" d="M3135.436 690.425v1.118h1.292v-1.118h.349v2.67h-.349v-1.252h-1.292v1.252h-.349v-2.67z" class="cls-15" transform="translate(-3135.087 -690.425)"/>
                    </g>
                </g>
                <g id="Group_605" transform="translate(40.577 .234)">
                    <g id="Group_602">
                        <path id="Path_743" d="M3351.977 620.371a1.7 1.7 0 0 1-.7.127 1.246 1.246 0 0 1-1.316-1.355 1.327 1.327 0 0 1 1.4-1.4 1.442 1.442 0 0 1 .633.119l-.086.282a1.222 1.222 0 0 0-.535-.111.993.993 0 0 0-1.042 1.1.968.968 0 0 0 1.022 1.073 1.4 1.4 0 0 0 .567-.111z" class="cls-15" transform="translate(-3349.956 -617.74)"/>
                    </g>
                    <g id="Group_603" transform="translate(2.45 .044)">
                        <path id="Path_744" d="M3367.074 618.041v1.117h1.292v-1.117h.349v2.669h-.349v-1.252h-1.292v1.252h-.349v-2.669z" class="cls-15" transform="translate(-3366.725 -618.041)"/>
                    </g>
                    <g id="Group_604" transform="translate(4.837 1.766)">
                        <path id="Path_745" d="M3383.059 631.351v-.124l.159-.154c.384-.365.558-.559.558-.784a.265.265 0 0 0-.295-.293.509.509 0 0 0-.318.126l-.065-.144a.669.669 0 0 1 .422-.152.422.422 0 0 1 .459.436c0 .276-.2.5-.517.805l-.117.111h.67v.168z" class="cls-15" transform="translate(-3383.059 -629.826)"/>
                    </g>
                </g>
                <g id="Group_608" transform="translate(26.539 65.136)">
                    <g id="Group_606" transform="translate(0 .099)">
                        <path id="Path_746" d="M3255.905 1065.217a1.694 1.694 0 0 1-.706.127 1.246 1.246 0 0 1-1.315-1.355 1.326 1.326 0 0 1 1.395-1.4 1.442 1.442 0 0 1 .634.119l-.086.282a1.218 1.218 0 0 0-.536-.111.992.992 0 0 0-1.041 1.1.967.967 0 0 0 1.021 1.074 1.381 1.381 0 0 0 .566-.111z" class="cls-15" transform="translate(-3253.885 -1062.587)"/>
                    </g>
                    <g id="Group_607" transform="translate(2.442)">
                        <path id="Path_747" d="M3270.6 1061.911h.349v2.812h-.349z" class="cls-15" transform="translate(-3270.596 -1061.911)"/>
                    </g>
                </g>
                <g id="Group_610" transform="translate(114.425 .423)">
                    <g id="Group_609">
                        <path id="Path_748" d="M3857.789 620.391a1.253 1.253 0 0 1-1.24 1.406 1.226 1.226 0 0 1-1.2-1.359 1.265 1.265 0 0 1 1.235-1.4 1.219 1.219 0 0 1 1.205 1.353zm-2.076.039c0 .574.309 1.086.855 1.086s.856-.5.856-1.108c0-.536-.277-1.09-.851-1.09s-.86.531-.86 1.112z" class="cls-15" transform="translate(-3855.348 -619.036)"/>
                    </g>
                </g>
                <g id="Group_613" transform="translate(0 41.385)">
                    <g id="Group_611">
                        <path id="Path_749" d="M3074.7 900.72a1.253 1.253 0 0 1-1.24 1.407 1.225 1.225 0 0 1-1.2-1.359 1.266 1.266 0 0 1 1.237-1.4 1.218 1.218 0 0 1 1.203 1.352zm-2.076.04c0 .574.309 1.085.856 1.085s.855-.5.855-1.109c0-.535-.277-1.089-.852-1.089s-.857.53-.857 1.113z" class="cls-15" transform="translate(-3072.262 -899.365)"/>
                    </g>
                    <g id="Group_612" transform="translate(2.881 .048)">
                        <path id="Path_750" d="M3092.328 899.693v1.118h1.292v-1.118h.349v2.67h-.349v-1.252h-1.292v1.252h-.348v-2.67z" class="cls-15" transform="translate(-3091.98 -899.693)"/>
                    </g>
                </g>
            </g>
            <g id="Group_626" transform="translate(152.434 51.166)">
                <g id="Group_615" transform="translate(34.395 80.868)">
                    <path id="Path_751" d="M3991.176 1105.106s-7.649 17.17-4.6 24.452c5.6 13.4-3.758 38.071-33.076 9.552-4.917-4.783 19.349-15.788 15.606-30.192s22.07-3.812 22.07-3.812z" class="cls-3" transform="translate(-3952.835 -1101.352)"/>
                </g>
                <g id="Group_616" transform="translate(49.42 81.331)">
                    <path id="Path_752" d="M4081.835 1109.184s-6.7 3.085-8.752 24.761c0 .024-13.579.259-17.418-11.175a14.58 14.58 0 0 0 1.242-11.147c-3.742-14.404 24.928-2.439 24.928-2.439z" class="cls-4" transform="translate(-4055.664 -1104.522)"/>
                </g>
                <g id="Group_617" transform="translate(16.116)">
                    <path id="Path_753" fill="#202954" d="M3887.143 626.243s22.065 5.032 25.049-4.2-6.6-15.777 1.471-21.716 18.91-9.333 3.033-18.663-.8-23.05-12.924-26.818-16.165 3.622-27.784 1.066-23.737-15.169-34.041-2.306-13.02 26.83-6.136 29.655-3.412 6.844-6.664 11.341-3.431 24.532 28.661 20.809 16.036 6.982 29.335 10.832z" transform="translate(-3827.739 -547.918)"/>
                </g>
                <g id="Group_618" transform="translate(36.816 31.453)">
                    <path id="Path_754" d="M3977.677 763.172s-7.331 12.475-8.215 34.23 8.617 29.475 26.931 28.947 23.853-21.379 24.211-26.662 16.433 1.113 14.333-11.411-10.008-8.933-11.5-4.317-5.411 10.246-8.655 5.9 6.793-21.945-2.17-20.194-24.419 3.653-34.935-6.493z" class="cls-3" transform="translate(-3969.406 -763.172)"/>
                </g>
                <g id="Group_619" transform="translate(53.956 40.155)">
                    <path id="Path_755" d="M4087.135 845.525l-.433-.45c6.139-5.9 6.15-22.182 6.15-22.345h.624a64.027 64.027 0 0 1-.762 9.064c-1.037 6.549-2.914 11.17-5.579 13.731z" class="cls-2" transform="translate(-4086.702 -822.727)"/>
                </g>
                <g id="Group_620" transform="translate(64.723 46.921)">
                    <path id="Path_756" d="M4165.266 881.546a4.205 4.205 0 0 1-1.106-.151 4.481 4.481 0 0 1-2.828-2.218c-2.011-3.6-.195-9.882-.116-10.148l.6.176c-.019.063-1.819 6.3.063 9.668a3.88 3.88 0 0 0 2.446 1.919 3.574 3.574 0 0 0 2.813-.4c3.691-2.137 5.756-9.89 5.776-9.968l.6.158c-.086.329-2.153 8.084-6.067 10.35a4.318 4.318 0 0 1-2.181.614z" class="cls-2" transform="translate(-4160.388 -869.029)"/>
                </g>
                <g id="Group_621" transform="translate(42.058 40.721)">
                    <path id="Path_757" d="M4009.3 839.558a7.571 7.571 0 0 1-1.343-.125 2.88 2.88 0 0 1-2.128-1.517c-1.811-3.362 1.418-10.995 1.556-11.318l.574.246c-.032.076-3.249 7.678-1.58 10.776a2.254 2.254 0 0 0 1.688 1.2 5.354 5.354 0 0 0 4.432-.965c3.1-2.426 3.5-8.15 3.507-8.208l.624.04c-.016.246-.423 6.058-3.744 8.659a5.665 5.665 0 0 1-3.586 1.212z" class="cls-2" transform="translate(-4005.277 -826.599)"/>
                </g>
                <g id="Group_622" transform="translate(58.107 68.26)">
                    <path id="Path_758" d="M4116.845 1020.857a12.019 12.019 0 0 1-1.731-.13l.09-.618c3.027.44 5.436-.269 7.154-2.107a7.549 7.549 0 0 0 1.7-2.935l.605.153a8.048 8.048 0 0 1-1.828 3.187 7.849 7.849 0 0 1-5.99 2.45z" class="cls-2" transform="translate(-4115.114 -1015.067)"/>
                </g>
                <g id="Group_623" transform="translate(0 106.859)">
                    <path id="Path_759" d="M3811.973 1300.917c-11.769-9.052-18.595-12.452-25.418-16.463-1.134-.666-2.565 20.463-19.973 16.337s-6.358-19.3-6.826-21.1c-.209-.806-28.967-3.726-37.75 26.334a125.512 125.512 0 0 0-4.557 21.366 124.564 124.564 0 0 0 14.552 3.322c43.085 6.557 71.071 2.421 88.043.937.719-.063 1.423-.133 2.123-.2-.448-9.531-2.425-24.558-10.194-30.533z" class="cls-9" transform="translate(-3717.448 -1279.226)"/>
                </g>
                <g id="Group_624" transform="translate(.006 107.422)">
                    <path id="Path_760" d="M3717.49 1330.679c2.919.824 5.646 1.521 8.15 2.086 8.082-26.538 19.275-43.213 24.184-49.69-9.236 1.652-22.342 7.615-27.783 26.237a125.2 125.2 0 0 0-4.551 21.367z" class="cls-11" transform="translate(-3717.49 -1283.075)"/>
                </g>
                <g id="Group_625" transform="translate(68.19 123.752)">
                    <path id="Path_761" d="M4218.523 1430.362c.718-.063 1.423-.133 2.123-.2-.447-9.525-2.424-24.552-10.192-30.528-2.356-1.812-4.506-3.389-6.5-4.8-6.006 5.737-12.983 16.918-19.83 38.082 14.582-.397 25.876-1.809 34.399-2.554z" class="cls-11" transform="translate(-4184.119 -1394.831)"/>
                </g>
            </g>
            <g id="Group_628" transform="translate(129.557 167.57)">
                <g id="Group_627">
                    <path id="Path_762" d="M3560.889 1348.5v-3.946h17.892v3.946zm0 6.973v-3.945h17.892v3.945z" class="cls-15" transform="translate(-3560.889 -1344.551)"/>
                </g>
            </g>
            <g id="Group_630" transform="translate(97.165 157.2)">
                <g id="Group_629">
                    <path id="Path_763" d="M3352.088 1286.809a11.787 11.787 0 0 1 8.457 2.982 10.72 10.72 0 0 1 3.145 8.169q0 6.139-3.784 9.446t-10.824 3.308a21.2 21.2 0 0 1-9.873-1.98v-6.69a22.26 22.26 0 0 0 9.6 2.381q7.091 0 7.091-5.814 0-5.537-7.342-5.537a18.174 18.174 0 0 0-2.931.264 21.318 21.318 0 0 0-2.606.563l-3.082-1.654 1.378-18.667h19.87v6.564H3348.1l-.676 7.192.877-.175a17.27 17.27 0 0 1 3.787-.352z" class="cls-15" transform="translate(-3339.209 -1273.579)"/>
                </g>
            </g>
            <g id="Group_634" transform="translate(134.068 22.904)">
                <g id="Group_631" transform="translate(0 1.323)">
                    <path id="Path_764" d="M3596.628 370.584l-4.628-7.026h4.444l2.787 4.573 2.812-4.573h4.445l-4.675 7.026 4.893 7.334h-4.457l-3.013-4.918-3.031 4.919h-4.444z" class="cls-15" transform="translate(-3591.76 -363.558)"/>
                </g>
                <g id="Group_632" transform="translate(16.209)">
                    <path id="Path_765" d="M3707.662 362.328h-4.971v-2.813h4.971v-5.009h2.812v5.009h4.971v2.813h-4.971v4.945h-2.812z" class="cls-15" transform="translate(-3702.691 -354.506)"/>
                </g>
                <g id="Group_633" transform="translate(30.095 1.323)">
                    <path id="Path_766" d="M3797.718 363.558h4.289l2.711 8.079a11.184 11.184 0 0 1 .475 2.492h.077a11.02 11.02 0 0 1 .552-2.492l2.659-8.079h4.2l-6.075 16.2a7.017 7.017 0 0 1-2.383 3.366 6.013 6.013 0 0 1-3.616 1.117 9.1 9.1 0 0 1-1.991-.218v-3.108a6.7 6.7 0 0 0 1.542.167 2.783 2.783 0 0 0 1.817-.636 4.113 4.113 0 0 0 1.214-1.921l.232-.706z" class="cls-15" transform="translate(-3797.718 -363.558)"/>
                </g>
            </g>
            <g id="Group_657" transform="translate(266.142 159.27)">
                <g id="Group_647" transform="translate(3.648 22.754)">
                    <path id="Path_774" d="M4546.177 1448.709h-1.248v-3.993h-23.089v3.993h-1.249v-5.242h25.585z" class="cls-15" transform="translate(-4520.592 -1443.467)"/>
                </g>
                <g id="Group_648" transform="translate(0 11.473)">
                    <path id="Path_775" d="M4516.889 1374.646h-21.262v-8.385h21.262zm-20.013-1.249h18.764v-5.888h-18.764z" class="cls-15" transform="translate(-4495.627 -1366.261)"/>
                </g>
                <g id="Group_649" transform="translate(24.495 11.473)">
                    <path id="Path_776" d="M4671.647 1374.646h-8.385v-8.385h8.385zm-7.136-1.249h5.887v-5.888h-5.887z" class="cls-15" transform="translate(-4663.262 -1366.261)"/>
                </g>
                <g id="Group_650" transform="translate(15.795 7.707)">
                    <path id="Rectangle_67" d="M0 0H1.249V4.46H0z" class="cls-15"/>
                </g>
                <g id="Group_651" transform="translate(27.984 7.707)">
                    <path id="Rectangle_68" d="M0 0H1.249V4.46H0z" class="cls-15"/>
                </g>
                <g id="Group_652" transform="translate(15.795 19.413)">
                    <path id="Rectangle_69" d="M0 0H1.249V8.261H0z" class="cls-15"/>
                </g>
                <g id="Group_653">
                    <path id="Path_777" d="M4528.507 1296.132h-32.88v-8.385h32.88zm-31.631-1.249h30.382V1289h-30.382z" class="cls-15" transform="translate(-4495.627 -1287.747)"/>
                </g>
                <g id="Group_654" transform="translate(12.247 27.16)">
                    <path id="Path_778" d="M4587.829 1482h-8.386v-8.385h8.386zm-7.138-1.249h5.889v-5.887h-5.889z" class="cls-15" transform="translate(-4579.443 -1473.62)"/>
                </g>
                <g id="Group_655" transform="translate(24.495 27.16)">
                    <path id="Path_779" d="M4671.647 1482h-8.385v-8.385h8.385zm-7.136-1.249h5.887v-5.887h-5.887z" class="cls-15" transform="translate(-4663.262 -1473.62)"/>
                </g>
                <g id="Group_656" transform="translate(0 27.16)">
                    <path id="Path_780" d="M4504.013 1482h-8.386v-8.385h8.386zm-7.137-1.249h5.888v-5.887h-5.888z" class="cls-15" transform="translate(-4495.627 -1473.62)"/>
                </g>
            </g>
            <g id="Group_675" transform="translate(18.48 110.955)">
                <g id="Group_674">
                    <g id="Group_663" transform="translate(0 5.567)">
                        <path id="Path_782" d="M2828.112 1040.378l-5.84-.043-21.513-21.513-.043-5.84 25.379-8.579 9.208-9.208.883.883-9.415 9.415-.138.047-24.661 8.337.033 4.425 20.789 20.789 4.425.032 8.385-24.8 9.413-9.413.883.883-9.207 9.206z" class="cls-15" transform="translate(-2800.717 -995.195)"/>
                    </g>
                    <g id="Group_664" transform="translate(33.523)">
                        <path id="Path_783" d="M3042.384 974.322l-3.061-3.061.883-.883 2.178 2.178 3.211-3.211-10.483-10.484-3.211 3.211 4.379 4.379-.883.883-5.262-5.262 4.978-4.977 12.25 12.25z" class="cls-15" transform="translate(-3030.135 -957.095)"/>
                    </g>
                    <g id="Group_665" transform="translate(25.646 15.052)">
                        <path id="Rectangle_72" d="M0 0H1.249V5.845H0z" class="cls-15" transform="rotate(-45 1.066 .442)"/>
                    </g>
                    <g id="Group_666" transform="translate(4.309 26.469)">
                        <path id="Rectangle_73" d="M0 0H1.249V14.613H0z" class="cls-15" transform="rotate(-45 1.066 .442)"/>
                    </g>
                    <g id="Group_672" transform="translate(13.195 22.254)">
                        <g id="Group_667" transform="translate(13.102)">
                            <path id="Rectangle_74" d="M0 0H1.249V5.845H0z" class="cls-15" transform="rotate(-45 1.066 .442)"/>
                        </g>
                        <g id="Group_668" transform="translate(9.827 3.275)">
                            <path id="Rectangle_75" d="M0 0H1.249V5.845H0z" class="cls-15" transform="rotate(-45 1.066 .442)"/>
                        </g>
                        <g id="Group_669" transform="translate(6.551 6.551)">
                            <path id="Rectangle_76" d="M0 0H1.249V5.845H0z" class="cls-15" transform="rotate(-45 1.066 .442)"/>
                        </g>
                        <g id="Group_670" transform="translate(3.276 9.827)">
                            <path id="Rectangle_77" d="M0 0H1.249V5.845H0z" class="cls-15" transform="rotate(-45 1.066 .442)"/>
                        </g>
                        <g id="Group_671" transform="translate(0 13.102)">
                            <path id="Rectangle_78" d="M0 0H1.249V5.846H0z" class="cls-15" transform="rotate(-44.999 1.066 .442)"/>
                        </g>
                    </g>
                    <g id="Group_673" transform="translate(22.288 44.449)">
                        <path id="Rectangle_79" d="M0 0H1.249V5.554H0z" class="cls-15" transform="rotate(-45.001 1.066 .441)"/>
                    </g>
                </g>
            </g>
        </g>
    </g>
</svg>
