<svg xmlns="http://www.w3.org/2000/svg" id="branching_1_" width="27" height="27" data-name="branching (1)" viewBox="0 0 27 27">
    <path id="Path_669" fill="#cee1f2" d="M43.687 25.019a2.742 2.742 0 1 1 0-4.553 2.743 2.743 0 0 0 0 4.553zm-1.222 7.269a2.739 2.739 0 0 1 1.213-2.276 2.742 2.742 0 1 0 0 4.553 2.739 2.739 0 0 1-1.213-2.278zm0 9.861a2.739 2.739 0 0 1 1.213-2.276 2.742 2.742 0 1 0 0 4.553 2.739 2.739 0 0 1-1.213-2.278zm-17.4 1.508a11.2 11.2 0 0 0-1.9-6.781v-4.449a3.621 3.621 0 0 1 2.373-3.4 3.613 3.613 0 0 0-1.247-.221h-.67A3.62 3.62 0 0 0 20 32.427v4.448a11.2 11.2 0 0 1 1.9 6.781 1.307 1.307 0 0 0 1.345 1.235h1.421a1.421 1.421 0 0 0 .871-.3 1.186 1.186 0 0 1-.473-.935z" data-name="Path 669" transform="translate(-18.945 -18.945)"/>
    <path id="Path_670" fill="#3e92ff" d="M23.2 17.191a3.8 3.8 0 1 1 3.8-3.8 3.8 3.8 0 0 1-3.8 3.8zm0-5.484a1.688 1.688 0 1 0 1.688 1.688 1.689 1.689 0 0 0-1.688-1.688zm0-4.113A3.8 3.8 0 1 1 27 3.8a3.8 3.8 0 0 1-3.8 3.794zm0-5.484a1.687 1.687 0 1 0 1.691 1.69A1.689 1.689 0 0 0 23.2 2.109zM5.72 27H4.3a2.349 2.349 0 0 1-2.4-2.289A10.418 10.418 0 0 0 .239 18.6 1.055 1.055 0 0 1 0 17.93v-4.449a4.68 4.68 0 0 1 4.675-4.674h.67a4.68 4.68 0 0 1 4.675 4.675v4.448a1.017 1.017 0 0 1-.236.665 10.436 10.436 0 0 0-1.664 6.116A2.349 2.349 0 0 1 5.72 27zm-3.611-9.408a12.891 12.891 0 0 1 1.9 7.119c0 .069.133.18.29.18H5.72c.157 0 .29-.11.29-.18a12.891 12.891 0 0 1 1.9-7.119v-4.111a2.568 2.568 0 0 0-2.565-2.565h-.67a2.568 2.568 0 0 0-2.565 2.565zm6.855.338zM4.957 7.172a3.586 3.586 0 1 1 3.586-3.586 3.59 3.59 0 0 1-3.586 3.586zm0-5.062a1.477 1.477 0 1 0 1.477 1.476 1.478 1.478 0 0 0-1.477-1.477zM23.2 27a3.8 3.8 0 1 1 3.8-3.8 3.8 3.8 0 0 1-3.8 3.8zm0-5.484a1.688 1.688 0 1 0 1.691 1.684 1.689 1.689 0 0 0-1.691-1.684z" data-name="Path 670"/>
    <path id="Path_671" fill="#f05050" d="M236.673 69.564a2.142 2.142 0 0 1-2.14-2.14v-5.612h2.034a1.055 1.055 0 1 0 0-2.109h-2.034v-5.454a2.142 2.142 0 0 1 2.14-2.14 1.055 1.055 0 1 0 0-2.109 4.254 4.254 0 0 0-4.249 4.249v13.176a4.254 4.254 0 0 0 4.249 4.249 1.055 1.055 0 1 0 0-2.109z" data-name="Path 671" transform="translate(-220.167 -47.363)"/>
</svg>
