<svg xmlns="http://www.w3.org/2000/svg" id="chat" width="51.429" height="51.429" viewBox="0 0 51.429 51.429">
    <defs>
        <style>
            .cls-2{fill:#4897ff}
        </style>
    </defs>
    <path id="Path_962" fill="#c6e1f2" d="M26.028 36.737a16.632 16.632 0 0 1 13.579-16.464A16.891 16.891 0 0 0 36.574 20 16.618 16.618 0 0 0 20 36.737v16.411l.275-.251a7.7 7.7 0 0 1 5.752-2.252z" transform="translate(-17.991 -17.991)"/>
    <g id="Group_708">
        <path id="Path_963" d="M208.849 189.54a18.712 18.712 0 0 0-7.541-15.144 2.009 2.009 0 1 0-2.395 3.226 14.681 14.681 0 0 1 5.918 11.89v12.644a9.582 9.582 0 0 0-7.98.275 14.762 14.762 0 0 1-18.233-4.32 2.009 2.009 0 1 0-3.221 2.4 18.779 18.779 0 0 0 23.254 5.51 5.619 5.619 0 0 1 6.494 1.088 2.619 2.619 0 0 0 1.7.84 1.943 1.943 0 0 0 2.009-2.009z" class="cls-2" transform="translate(-157.42 -156.522)"/>
        <path id="Path_964" d="M18.517 37.166A18.564 18.564 0 1 0 0 18.755v16.4a2.009 2.009 0 0 0 3.365 1.483 6.707 6.707 0 0 1 4.349-1.988 5.535 5.535 0 0 1 2.484.587 18.351 18.351 0 0 0 8.3 1.927zm-10.8-6.533a9.645 9.645 0 0 0-3.7.739V18.727a14.565 14.565 0 1 1 29.128 0A14.653 14.653 0 0 1 18.5 33.148a14.374 14.374 0 0 1-6.5-1.5 9.541 9.541 0 0 0-4.282-1.014z" class="cls-2"/>
    </g>
    <path id="Path_965" fill="#f05050" d="M100.893 163.511A2.511 2.511 0 1 1 98.382 161a2.511 2.511 0 0 1 2.511 2.511zm-7.935 0A2.511 2.511 0 1 1 90.447 161a2.511 2.511 0 0 1 2.511 2.511zm-7.935 0A2.511 2.511 0 1 1 82.511 161a2.511 2.511 0 0 1 2.511 2.511z" transform="translate(-71.964 -144.828)"/>
</svg>
