<svg xmlns="http://www.w3.org/2000/svg" id="colours" width="27.8" height="27.8" viewBox="0 0 27.8 27.8">
    <path id="Path_665" fill="#cee1f2" d="M23.258 73.5a17.428 17.428 0 0 1 2.9-9.676c-.135-.161-.267-.324-.4-.483-.108-.106-.22-.209-.334-.311a12.815 12.815 0 0 0 7.39 23.284 12.93 12.93 0 0 0 1.629-.1A12.816 12.816 0 0 1 23.258 73.5z" data-name="Path 665" transform="translate(-18.914 -59.607)"/>
    <g id="Group_486" data-name="Group 486" transform="translate(0 2.383)">
        <path id="Path_666" fill="#0023c4" d="M24.993 61.914a1.086 1.086 0 0 0-1.514.26A11.731 11.731 0 1 1 7.08 45.858a1.086 1.086 0 0 0-1.265-1.766 13.9 13.9 0 0 0 14.553 23.621 14.245 14.245 0 0 0 4.885-4.285 1.086 1.086 0 0 0-.26-1.514z" data-name="Path 666" transform="translate(0 -43.889)"/>
        <path id="Path_667" fill="#3e92ff" d="M24.993 61.914a1.086 1.086 0 0 0-1.514.26A11.731 11.731 0 1 1 7.08 45.858a1.086 1.086 0 0 0-1.265-1.766 13.9 13.9 0 0 0 14.553 23.621 14.245 14.245 0 0 0 4.885-4.285 1.086 1.086 0 0 0-.26-1.514z" data-name="Path 667" transform="translate(0 -43.889)"/>
    </g>
    <path id="Path_668" fill="#f05050" d="M196.882 4.071A14.061 14.061 0 0 0 187.053 0c-.3 0-.6.01-.905.03a3.261 3.261 0 0 0-2.938 4.106l2.738 10.089a1.257 1.257 0 0 0 .291.5 1.169 1.169 0 0 0 .5.279l10.112 2.648a3.257 3.257 0 0 0 4.081-2.963c.015-.263.022-.53.022-.793a13.809 13.809 0 0 0-4.071-9.829zm-.762 2.4a11.732 11.732 0 0 1 1.9 3.269l-7.27 2.038zm-5-3.571a11.737 11.737 0 0 1 3.477 2.026l-5.497 5.427zm-5.81.669a1.066 1.066 0 0 1 .163-.912 1.1 1.1 0 0 1 .824-.458c.253-.017.509-.025.761-.025a11.751 11.751 0 0 1 1.964.165L187 9.8zm13.457 11a1.085 1.085 0 0 1-1.361.986l-6.251-1.637 7.449-2.088a11.756 11.756 0 0 1 .183 2.069c0 .223-.006.448-.019.67z" data-name="Path 668" transform="translate(-173.153)"/>
</svg>
