<svg xmlns="http://www.w3.org/2000/svg" width="47.104" height="47.104" viewBox="0 0 47.104 47.104">
    <path fill="#cee1f2" d="M27.36 28.28a4.6 4.6 0 1 1 0-7.36 4.6 4.6 0 0 0 0 7.36zm-1.84 30.544a4.593 4.593 0 0 1 1.84-3.68 4.6 4.6 0 1 0 0 7.36 4.593 4.593 0 0 1-1.84-3.68zm0-17.02a4.593 4.593 0 0 1 1.84-3.68 4.6 4.6 0 1 0 0 7.36 4.593 4.593 0 0 1-1.84-3.684z" transform="translate(-18.16 -18.16)"/>
    <path fill="#3e92ff" d="M45.264 5.244H18.308a1.84 1.84 0 0 1 0-3.68h26.956a1.84 1.84 0 1 1 0 3.68zM12.88 6.44a6.44 6.44 0 1 0-6.44 6.44 6.447 6.447 0 0 0 6.44-6.44zm-3.68 0a2.76 2.76 0 1 1-2.76-2.76A2.763 2.763 0 0 1 9.2 6.44zm37.9 31.188a1.84 1.84 0 0 0-1.84-1.84H18.308a1.84 1.84 0 0 0 0 3.68h26.956a1.84 1.84 0 0 0 1.836-1.84zM36.064 44.62a1.84 1.84 0 0 0-1.84-1.84H18.308a1.84 1.84 0 1 0 0 3.68h15.916a1.84 1.84 0 0 0 1.84-1.84zM12.88 40.664A6.44 6.44 0 1 0 6.44 47.1a6.447 6.447 0 0 0 6.44-6.436zm-3.68 0A2.76 2.76 0 1 1 6.44 37.9a2.763 2.763 0 0 1 2.76 2.764zm37.9-20.056a1.84 1.84 0 0 0-1.84-1.84H18.308a1.84 1.84 0 0 0 0 3.68h26.956a1.84 1.84 0 0 0 1.836-1.84zM36.064 27.6a1.84 1.84 0 0 0-1.84-1.84H18.308a1.84 1.84 0 1 0 0 3.68h15.916a1.84 1.84 0 0 0 1.84-1.84zM12.88 23.644a6.44 6.44 0 1 0-6.44 6.44 6.447 6.447 0 0 0 6.44-6.44zm-3.68 0a2.76 2.76 0 1 1-2.76-2.76 2.763 2.763 0 0 1 2.76 2.76z"/>
    <path fill="#f05050" d="M196.756 96.68H180.84a1.84 1.84 0 1 1 0-3.68h15.916a1.84 1.84 0 1 1 0 3.68z" transform="translate(-162.532 -84.444)"/>
</svg>
