<svg xmlns="http://www.w3.org/2000/svg" width="52" height="60" viewBox="0 0 52 60">
    <defs>
        <clipPath id="clip-path">
            <rect id="Rectangle_29" width="52" height="41" class="cls-1" rx="12" transform="translate(0 .136)"/>
        </clipPath>
        <clipPath id="clip-path-2">
            <path id="Path_544" fill="none" d="M1579.574 552.833c.054.868 1.829 2.583 3.463 2.481s3.183-2.023 3.129-2.891-1.677-.15-3.311-.049-3.335-.408-3.281.459z" transform="translate(-1579.573 -552)"/>
        </clipPath>
        <clipPath id="clip-path-3">
            <rect id="Rectangle_32" width="52" height="28" class="cls-1" rx="12"/>
        </clipPath>
        <style>
            .cls-1{fill:#96ccf2}.cls-5{fill:#00d5a2}.cls-6{fill:#333}.cls-7{fill:#f7b69f}.cls-8{fill:#ce8474}.cls-9{fill:#f9ddb4}.cls-10{fill:#e6e6e6}.cls-11{fill:#bc3f3f}.cls-12{fill:#00a47d}.cls-13{fill:#534741}.cls-14{fill:#fff}.cls-15{fill:#4c312e}.cls-16{fill:#a05c5c}.cls-17{fill:#3f342f}.cls-18{fill:#634f47}.cls-19{fill:#f2f2f2}.cls-20{clip-path:url(#clip-path-2)}.cls-21{fill:#8e2430}.cls-23{fill:#f15a24}.cls-24{fill:#d35029}
        </style>
    </defs>
    <g id="Group_769" transform="translate(0 .547)">
        <rect id="Rectangle_30" width="52" height="41" fill="#3a8bfc" rx="10" transform="translate(0 17.453)"/>
        <g id="Mask_Group_6" clip-path="url(#clip-path)" transform="translate(0 18.318)">
            <g id="Group_389" transform="translate(-.116 -13.795)">
                <g id="Group_327">
                    <ellipse id="Ellipse_15" cx="15.806" cy="6.912" class="cls-5" rx="15.806" ry="6.912" transform="translate(10.109 38.112)"/>
                    <ellipse id="Ellipse_16" cx="10.667" cy="5.512" class="cls-6" rx="10.667" ry="5.512" transform="translate(15.144 39.599)"/>
                    <path id="Path_495" d="M1542.273 579.944l-.414-8.944h-12.541l-.413 8.909c-3.45.7-5.741 1.935-5.741 3.347 0 2.195 6.182 4.887 13 4.887s11.683-2.69 11.683-4.884c-.003-1.39-2.219-2.605-5.574-3.315z" class="cls-7" transform="translate(-1510.129 -535.193)"/>
                    <g id="Group_323" transform="translate(20.424 36.417)">
                        <path id="Path_496" d="M1575.693 582.394l.23 1.678c.206 1.058-1.843 2.508 1.51 2.1 2.546-.311 9.994 3.079 10.294 4.131.455-1.806-7-7.045-10.8-7.557l-.388-7.49-11.734-.821-.028 1.63c3.708 3.158 6.353 5.058 8.033 4.586a2.283 2.283 0 0 1 2.883 1.743z" class="cls-8" transform="translate(-1564.781 -574.433)"/>
                    </g>
                    <g id="Group_324" transform="translate(13.273 35.76)">
                        <path id="Path_497" d="M1525.163 583.683c0-1.413 2.145-2.655 5.372-3.359l.386-8.932-.656-.656-.386 8.932c-3.228.7-5.372 1.946-5.372 3.359a4.369 4.369 0 0 0 1.708 2.677 3.412 3.412 0 0 1-1.052-2.021z" class="cls-9" transform="translate(-1524.507 -570.735)"/>
                    </g>
                    <path id="Path_498" d="M1517.972 632.765c-1.831-3.018-5.46-6.435-12.635-8.245a9.96 9.96 0 0 1-8.443 4.4 9.615 9.615 0 0 1-8.758-4.846 20 20 0 0 0-12.691 8.686z" class="cls-10" transform="translate(-1470.883 -578.847)"/>
                    <g id="Group_325" transform="translate(14.578 45.139)">
                        <path id="Path_499" d="M1543.286 630.742c5.272.2 9.359-4.35 10.724-6.091q-1.078-.342-2.281-.633a9.948 9.948 0 0 1-8.443 4.442 9.612 9.612 0 0 1-8.758-4.9c-.949.221-1.839.467-2.675.732a13.677 13.677 0 0 0 11.433 6.45z" class="cls-11" transform="translate(-1531.854 -623.557)"/>
                    </g>
                    <path id="Path_500" d="M1467.713 616.349c-.962-5.327-2.45-12.23-2.45-12.23-9.563 2.7-13.711 8.146-15.511 12.23z" class="cls-5" transform="translate(-1449.752 -562.431)"/>
                    <path id="Path_501" d="M1504.669 593.173c.172-2.716 3.234-4.99 8.277-6.118.015-.047.06-.276.073-.3-5.618 1.019-9.335 3.509-9.335 6.42 0 1.479 1.025 2.848 2.769 3.972a.108.108 0 0 0 .139-.163c-.757-.828-2.014-2.376-1.923-3.811z" class="cls-12" transform="translate(-1494.108 -548.149)"/>
                    <path id="Path_502" d="M1654.882 616.349a24.241 24.241 0 0 0-14.389-12.23s-2.085 6.9-3.337 12.23z" class="cls-5" transform="translate(-1603.88 -562.431)"/>
                    <ellipse id="Ellipse_17" cx="4.444" cy="2.525" class="cls-8" rx="4.444" ry="2.525" transform="rotate(-76.11 35.58 -7.78)"/>
                    <ellipse id="Ellipse_18" cx="2.603" cy="4.881" class="cls-7" rx="2.603" ry="4.881" transform="rotate(-17.06 75.696 -17.227)"/>
                    <path id="Path_503" d="M1503.546 491.15c-.79-2.577-.315-5.008 1.06-5.429a2.149 2.149 0 0 1 2.018.676 2.4 2.4 0 0 0-2.347-1c-1.375.421-1.849 2.852-1.06 5.429a7.284 7.284 0 0 0 1.9 3.228 7.717 7.717 0 0 1-1.571-2.904z" class="cls-9" transform="translate(-1493.41 -464.734)"/>
                    <path id="Path_504" d="M1526.5 383.619c-6.009 0-13.461 5.711-13.461 12.943 0 4.468 2.864 17.937 4.906 20.083 2.213 2.326 5.693 5.282 9.067 5.356 4.949.109 7.816-4.147 9.912-6.722 1.933-2.375 3.037-14.336 3.037-18.717-.004-7.232-7.461-12.943-13.461-12.943z" class="cls-7" transform="translate(-1501.799 -381.083)"/>
                    <path id="Path_505" d="M1583.274 383.619a10.174 10.174 0 0 0-1.2.074c5.669.513 12.162 5.327 12.665 11.852.337 4.368.157 16.378-1.588 18.895-1.891 2.73-4.422 7.194-9.365 7.466a6.6 6.6 0 0 1-1.229-.053 6.59 6.59 0 0 0 1.231.149c4.949.109 7.816-4.147 9.912-6.722 1.933-2.376 3.2-14.336 3.2-18.717 0-7.233-7.617-12.944-13.626-12.944z" class="cls-8" transform="translate(-1558.577 -381.083)"/>
                    <path id="Path_506" d="M1527.828 425.16c-3.374-.075-6.854-3.03-9.066-5.356-2.042-2.146-4.906-15.615-4.906-20.083 0-5.356 4.087-9.876 8.648-11.862-4.879 1.777-9.468 6.515-9.468 12.19 0 4.468 2.864 17.937 4.906 20.083 2.213 2.326 5.693 5.282 9.067 5.356a8 8 0 0 0 3.587-.753 7.964 7.964 0 0 1-2.768.425z" class="cls-9" transform="translate(-1501.799 -384.57)"/>
                    <path id="Path_507" d="M1545.43 480.933c-1.4 0-2.825 1.073-2.536 2.322.283 1.225.723 2.322 2.536 2.322a2.331 2.331 0 1 0 0-4.645z" class="cls-13" transform="translate(-1526.325 -461.118)"/>
                    <path id="Path_508" d="M1612.107 480.933c-1.4 0-2.824 1.073-2.535 2.322.283 1.225.723 2.322 2.535 2.322a2.331 2.331 0 1 0 0-4.645z" class="cls-13" transform="translate(-1581.164 -461.118)"/>
                    <path id="Path_509" d="M1545.43 484.352c-1.4 0-2.825 1.073-2.536 2.322.283 1.225.723 2.322 2.536 2.322a2.331 2.331 0 1 0 0-4.645z" class="cls-14" transform="translate(-1526.325 -463.93)"/>
                    <ellipse id="Ellipse_19" cx="1.503" cy="1.685" class="cls-15" rx="1.503" ry="1.685" transform="translate(17.662 20.94)"/>
                    <path id="Path_510" d="M1560.258 492.752c-.2 0-.358.245-.358.546s.161.547.358.547.359-.245.359-.547-.161-.546-.359-.546z" class="cls-14" transform="translate(-1540.342 -470.839)"/>
                    <path id="Path_511" d="M1612.072 484.352a2.331 2.331 0 1 0 0 4.645c1.813 0 2.253-1.1 2.536-2.322.292-1.25-1.136-2.323-2.536-2.323z" class="cls-14" transform="translate(-1581.156 -463.93)"/>
                    <ellipse id="Ellipse_20" cx="1.503" cy="1.685" class="cls-15" rx="1.503" ry="1.685" transform="translate(29.354 20.94)"/>
                    <path id="Path_512" d="M1626.1 492.752c-.2 0-.359.245-.359.546s.161.547.359.547.358-.245.358-.547-.158-.546-.358-.546z" class="cls-14" transform="translate(-1594.497 -470.839)"/>
                    <path id="Path_513" d="M1581.666 521.617c-1.3 0-2.345.461-2.345 1.029s1.05 1.029 2.345 1.029 2.345-.461 2.345-1.029-1.049-1.029-2.345-1.029z" class="cls-8" transform="translate(-1556.315 -494.578)"/>
                    <path id="Path_514" d="M1576.9 526.788c-.408-.181-.825-.134-.931.105s.14.579.548.76.825.134.931-.1-.139-.584-.548-.765z" class="cls-16" transform="translate(-1553.538 -498.741)"/>
                    <path id="Path_515" d="M1600.074 526.788c-.409.181-.654.521-.548.76s.523.286.931.1.654-.521.548-.76-.522-.281-.931-.1z" class="cls-16" transform="translate(-1572.912 -498.741)"/>
                    <path id="Path_516" d="M1581.644 529.362a2.5 2.5 0 0 0 3.8-.059 4.962 4.962 0 0 1-3.8.059z" class="cls-16" transform="translate(-1558.225 -500.9)"/>
                    <path id="Path_517" d="M1533.259 460.018c-.242.22 0 1.245.308 1.13a9.461 9.461 0 0 1 6.36-.047c4.232 1.389-2.263-5.091-6.668-1.083z" class="cls-13" transform="translate(-1518.351 -442.825)"/>
                    <path id="Path_518" d="M1605.631 461.226a9.452 9.452 0 0 1 6.42.2c.288.118.529-.885.3-1.1-4.314-4.187-10.995 2.204-6.72.9z" class="cls-13" transform="translate(-1576.824 -442.984)"/>
                    <path id="Path_519" d="M1595.8 491.477c.414-2.578-3.231 2.269.632 4.125a6.029 6.029 0 0 1-.632-4.125z" class="cls-8" transform="translate(-1568.915 -469.182)"/>
                    <path id="Path_520" d="M1560.14 394.2c-1.379-6.077-7.856-10.586-13.194-10.586a13.883 13.883 0 0 0-8.3 3.183 7.306 7.306 0 0 0-.748 1.618c1.588 6.157 11.106 3.363 15.6 1.941 3.627-1.145 5.902 2.43 6.642 3.844z" class="cls-8" transform="translate(-1522.249 -381.083)"/>
                    <path id="Path_521" d="M1603.024 405.78s8.551.658 9.52 8.427 1.985 3.455 1.985 3.455.776-5.024 0-7.8-5.466-9.882-11.505-4.082z" class="cls-13" transform="translate(-1575.809 -397.487)"/>
                    <path id="Path_522" d="M1613.431 410.488a20.746 20.746 0 0 1 1.18 6.573c.176-1.414.531-5.007-.081-7.2-.776-2.775-5.467-9.883-11.505-4.083a9.483 9.483 0 0 1 .958.142c4.289-2.355 8.449 2.38 9.448 4.568z" class="cls-17" transform="translate(-1575.809 -397.487)"/>
                    <path id="Path_523" d="M1514.2 395.719s-5.111 4-4.912 12.839c.11 4.848-2.313-1.055-2.313-1.055s-2.49-11.235 6.094-14.513 1.131 2.729 1.131 2.729z" class="cls-6" transform="translate(-1496.542 -387.985)"/>
                    <path id="Path_524" d="M1507.471 408s-2.385-10.38 6.2-13.659c1.927-.736 2.94-1.858 3.516-1.831.162-.658-.728-.81-4.113.483-8.584 3.278-6.094 14.513-6.094 14.513s1.071 2.609 1.756 2.933a15.308 15.308 0 0 1-1.265-2.439z" class="cls-6" transform="translate(-1496.542 -387.985)"/>
                    <path id="Path_525" d="M1537.9 375.688s2.123-7.656 12.719-6.158 9.787 12.5 9.787 12.5-2.417-5.821-6.909-4.4-14.009 4.216-15.597-1.942z" class="cls-6" transform="translate(-1522.249 -369.336)"/>
                    <path id="Path_526" d="M1558.942 382.31c-1.839 0-2.629-.412-3-.858.7-1.248 2.54-4.719 6.88-4.719.7 0 5.514.194 8.163 1.892-.728.01-3.95-1.7-6.465-.013-1.433.962-2.578 3.698-5.578 3.698z" class="cls-6" transform="translate(-1537.089 -375.42)"/>
                    <g id="Group_326" transform="translate(15.651)">
                        <path id="Path_527" d="M1539.377 375.69s1.661-5.982 9.368-6.334c-8.977-.4-10.845 6.334-10.845 6.334.815 3.162 3.722 3.963 6.964 3.8-2.616-.143-4.797-1.129-5.487-3.8z" class="cls-18" transform="translate(-1537.9 -369.338)"/>
                        <path id="Path_528" d="M1637.723 414.846c3.123.562 4.782 4.557 4.782 4.557a13.454 13.454 0 0 0-.129-2.548 5 5 0 0 0-4.653-2.009z" class="cls-18" transform="translate(-1619.998 -406.712)"/>
                    </g>
                    <path id="Path_529" d="M1582.952 406.214a35.289 35.289 0 0 1-8.542 3.224 34.643 34.643 0 0 0 9.115-1.878c4.491-1.423 6.923 5.174 6.923 5.174a22.518 22.518 0 0 0-.169-3.5c-.731-1.056-3.679-4.834-7.327-3.02z" class="cls-17" transform="translate(-1552.276 -399.268)"/>
                    <path id="Path_530" d="M1510.625 500.248c-.575.185-.739 1.277-.365 2.44s1.143 1.955 1.719 1.77-.779-4.395-1.354-4.21z" class="cls-8" transform="translate(-1499.351 -476.998)"/>
                    <path id="Path_531" d="M1662.166 498.55c.576.185.739 1.277.365 2.44s-1.143 1.955-1.718 1.77.778-4.395 1.353-4.21z" class="cls-16" transform="translate(-1623.222 -475.602)"/>
                    <path id="Path_532" d="M1669.358 618.113s-1.079 3.882-3.091 5.226 1.8.907 4.527-4.06a7.3 7.3 0 0 0-1.436-1.166z" class="cls-6" transform="translate(-1627.359 -573.941)"/>
                    <path id="Path_533" d="M1555.41 545.305a3.943 3.943 0 0 1 .393-2.177c-1.325 1.523-.246 3.379-.393 2.177z" class="cls-8" transform="translate(-1536.423 -512.27)"/>
                    <path id="Path_534" d="M1621.014 542.272a1.909 1.909 0 0 1 .691 1.559c-.118.908 1.229-.606-.691-1.559z" class="cls-8" transform="translate(-1590.605 -511.566)"/>
                    <path id="Path_535" d="M1662.313 653.335l.948-4.246-.748.22-.751 4.026z" class="cls-6" transform="translate(-1624.118 -599.417)"/>
                    <path id="Path_536" d="M1647.566 650.327l.952-4.411a.41.41 0 0 0-.808-.147l-1.036 4.558z" class="cls-19" transform="translate(-1611.709 -596.409)"/>
                    <path id="Path_537" d="M1531.829 652.2h.83l-.575-4.155a.41.41 0 0 0-.807.149z" class="cls-19" transform="translate(-1516.796 -598.281)"/>
                    <path id="Path_538" d="M1694.939 629.151h1.569a22.388 22.388 0 0 0-8.672-9.467 24.355 24.355 0 0 1 7.103 9.467z" class="cls-12" transform="translate(-1645.562 -575.233)"/>
                    <path id="Path_539" d="M1451.241 627.6a19.852 19.852 0 0 1 7.887-9.8 19.918 19.918 0 0 0-9.371 9.8z" class="cls-12" transform="translate(-1449.756 -573.677)"/>
                </g>
                <g id="Group_330" transform="translate(22.198 31.58)">
                    <path id="Path_540" d="M1579.708 553.186c-.047-.653 1.338.135 3.285.135s3.319-1.39 3.285-.736c-.077 1.489-.866 3.731-3.4 3.587a3.615 3.615 0 0 1-3.17-2.986z" class="cls-8" transform="translate(-1579.679 -552.326)"/>
                    <g id="Group_329">
                        <g id="Group_328" class="cls-20">
                            <path id="Path_541" d="M1582.854 552.375c1.634-.1 3.258-.819 3.311.049s-1.495 2.789-3.129 2.891-3.409-1.614-3.463-2.481 1.647-.357 3.281-.459z" class="cls-6" transform="translate(-1579.573 -552)"/>
                            <path id="Path_542" d="M1585.675 552.191a15.117 15.117 0 0 1-6.635.412l-.168-.879 6.861-.426z" class="cls-14" transform="translate(-1579.015 -551.443)"/>
                            <path id="Path_543" d="M1589.444 562.983c.88-.055 1.608.139 1.627.433s-.68.576-1.561.631-1.609-.139-1.627-.433.68-.576 1.561-.631z" class="cls-21" transform="translate(-1586.18 -560.725)"/>
                        </g>
                    </g>
                </g>
            </g>
        </g>
        <g id="Mask_Group_7" clip-path="url(#clip-path-3)" transform="translate(0 -.547)">
            <g id="Group_390" transform="translate(-.116 4.542)">
                <g id="Group_327-2">
                    <ellipse id="Ellipse_15-2" cx="15.806" cy="6.912" class="cls-23" rx="15.806" ry="6.912" transform="translate(10.109 38.112)"/>
                    <ellipse id="Ellipse_16-2" cx="10.667" cy="5.512" class="cls-6" rx="10.667" ry="5.512" transform="translate(15.144 39.599)"/>
                    <path id="Path_495-2" d="M1542.273 579.944l-.414-8.944h-12.541l-.413 8.909c-3.45.7-5.741 1.935-5.741 3.347 0 2.195 6.182 4.887 13 4.887s11.683-2.69 11.683-4.884c-.003-1.39-2.219-2.605-5.574-3.315z" class="cls-7" transform="translate(-1510.129 -535.193)"/>
                    <g id="Group_323-2" transform="translate(20.424 36.417)">
                        <path id="Path_496-2" d="M1575.693 582.394l.23 1.678c.206 1.058-1.843 2.508 1.51 2.1 2.546-.311 9.994 3.079 10.294 4.131.455-1.806-7-7.045-10.8-7.557l-.388-7.49-11.734-.821-.028 1.63c3.708 3.158 6.353 5.058 8.033 4.586a2.283 2.283 0 0 1 2.883 1.743z" class="cls-8" transform="translate(-1564.781 -574.433)"/>
                    </g>
                    <g id="Group_324-2" transform="translate(13.273 35.76)">
                        <path id="Path_497-2" d="M1525.163 583.683c0-1.413 2.145-2.655 5.372-3.359l.386-8.932-.656-.656-.386 8.932c-3.228.7-5.372 1.946-5.372 3.359a4.369 4.369 0 0 0 1.708 2.677 3.412 3.412 0 0 1-1.052-2.021z" class="cls-9" transform="translate(-1524.507 -570.735)"/>
                    </g>
                    <path id="Path_498-2" d="M1517.972 632.765c-1.831-3.018-5.46-6.435-12.635-8.245a9.96 9.96 0 0 1-8.443 4.4 9.615 9.615 0 0 1-8.758-4.846 20 20 0 0 0-12.691 8.686z" class="cls-10" transform="translate(-1470.883 -578.847)"/>
                    <g id="Group_325-2" transform="translate(14.578 45.139)">
                        <path id="Path_499-2" d="M1543.286 630.742c5.272.2 9.359-4.35 10.724-6.091q-1.078-.342-2.281-.633a9.948 9.948 0 0 1-8.443 4.442 9.612 9.612 0 0 1-8.758-4.9c-.949.221-1.839.467-2.675.732a13.677 13.677 0 0 0 11.433 6.45z" class="cls-11" transform="translate(-1531.854 -623.557)"/>
                    </g>
                    <path id="Path_500-2" d="M1467.713 616.349c-.962-5.327-2.45-12.23-2.45-12.23-9.563 2.7-13.711 8.146-15.511 12.23z" class="cls-23" transform="translate(-1449.752 -562.431)"/>
                    <path id="Path_501-2" d="M1504.669 593.173c.172-2.716 3.234-4.99 8.277-6.118.015-.047.06-.276.073-.3-5.618 1.019-9.335 3.509-9.335 6.42 0 1.479 1.025 2.848 2.769 3.972a.108.108 0 0 0 .139-.163c-.757-.828-2.014-2.376-1.923-3.811z" class="cls-24" transform="translate(-1494.108 -548.149)"/>
                    <path id="Path_502-2" d="M1654.882 616.349a24.241 24.241 0 0 0-14.389-12.23s-2.085 6.9-3.337 12.23z" class="cls-23" transform="translate(-1603.88 -562.431)"/>
                    <ellipse id="Ellipse_17-2" cx="4.444" cy="2.525" class="cls-8" rx="4.444" ry="2.525" transform="rotate(-76.11 35.58 -7.78)"/>
                    <ellipse id="Ellipse_18-2" cx="2.603" cy="4.881" class="cls-7" rx="2.603" ry="4.881" transform="rotate(-17.06 75.696 -17.227)"/>
                    <path id="Path_503-2" d="M1503.546 491.15c-.79-2.577-.315-5.008 1.06-5.429a2.149 2.149 0 0 1 2.018.676 2.4 2.4 0 0 0-2.347-1c-1.375.421-1.849 2.852-1.06 5.429a7.284 7.284 0 0 0 1.9 3.228 7.717 7.717 0 0 1-1.571-2.904z" class="cls-9" transform="translate(-1493.41 -464.734)"/>
                    <path id="Path_504-2" d="M1526.5 383.619c-6.009 0-13.461 5.711-13.461 12.943 0 4.468 2.864 17.937 4.906 20.083 2.213 2.326 5.693 5.282 9.067 5.356 4.949.109 7.816-4.147 9.912-6.722 1.933-2.375 3.037-14.336 3.037-18.717-.004-7.232-7.461-12.943-13.461-12.943z" class="cls-7" transform="translate(-1501.799 -381.083)"/>
                    <path id="Path_505-2" d="M1583.274 383.619a10.174 10.174 0 0 0-1.2.074c5.669.513 12.162 5.327 12.665 11.852.337 4.368.157 16.378-1.588 18.895-1.891 2.73-4.422 7.194-9.365 7.466a6.6 6.6 0 0 1-1.229-.053 6.59 6.59 0 0 0 1.231.149c4.949.109 7.816-4.147 9.912-6.722 1.933-2.376 3.2-14.336 3.2-18.717 0-7.233-7.617-12.944-13.626-12.944z" class="cls-8" transform="translate(-1558.577 -381.083)"/>
                    <path id="Path_506-2" d="M1527.828 425.16c-3.374-.075-6.854-3.03-9.066-5.356-2.042-2.146-4.906-15.615-4.906-20.083 0-5.356 4.087-9.876 8.648-11.862-4.879 1.777-9.468 6.515-9.468 12.19 0 4.468 2.864 17.937 4.906 20.083 2.213 2.326 5.693 5.282 9.067 5.356a8 8 0 0 0 3.587-.753 7.964 7.964 0 0 1-2.768.425z" class="cls-9" transform="translate(-1501.799 -384.57)"/>
                    <path id="Path_507-2" d="M1545.43 480.933c-1.4 0-2.825 1.073-2.536 2.322.283 1.225.723 2.322 2.536 2.322a2.331 2.331 0 1 0 0-4.645z" class="cls-13" transform="translate(-1526.325 -461.118)"/>
                    <path id="Path_508-2" d="M1612.107 480.933c-1.4 0-2.824 1.073-2.535 2.322.283 1.225.723 2.322 2.535 2.322a2.331 2.331 0 1 0 0-4.645z" class="cls-13" transform="translate(-1581.164 -461.118)"/>
                    <path id="Path_509-2" d="M1545.43 484.352c-1.4 0-2.825 1.073-2.536 2.322.283 1.225.723 2.322 2.536 2.322a2.331 2.331 0 1 0 0-4.645z" class="cls-14" transform="translate(-1526.325 -463.93)"/>
                    <ellipse id="Ellipse_19-2" cx="1.503" cy="1.685" class="cls-15" rx="1.503" ry="1.685" transform="translate(17.662 20.94)"/>
                    <path id="Path_510-2" d="M1560.258 492.752c-.2 0-.358.245-.358.546s.161.547.358.547.359-.245.359-.547-.161-.546-.359-.546z" class="cls-14" transform="translate(-1540.342 -470.839)"/>
                    <path id="Path_511-2" d="M1612.072 484.352a2.331 2.331 0 1 0 0 4.645c1.813 0 2.253-1.1 2.536-2.322.292-1.25-1.136-2.323-2.536-2.323z" class="cls-14" transform="translate(-1581.156 -463.93)"/>
                    <ellipse id="Ellipse_20-2" cx="1.503" cy="1.685" class="cls-15" rx="1.503" ry="1.685" transform="translate(29.354 20.94)"/>
                    <path id="Path_512-2" d="M1626.1 492.752c-.2 0-.359.245-.359.546s.161.547.359.547.358-.245.358-.547-.158-.546-.358-.546z" class="cls-14" transform="translate(-1594.497 -470.839)"/>
                    <path id="Path_513-2" d="M1581.666 521.617c-1.3 0-2.345.461-2.345 1.029s1.05 1.029 2.345 1.029 2.345-.461 2.345-1.029-1.049-1.029-2.345-1.029z" class="cls-8" transform="translate(-1556.315 -494.578)"/>
                    <path id="Path_514-2" d="M1576.9 526.788c-.408-.181-.825-.134-.931.105s.14.579.548.76.825.134.931-.1-.139-.584-.548-.765z" class="cls-16" transform="translate(-1553.538 -498.741)"/>
                    <path id="Path_515-2" d="M1600.074 526.788c-.409.181-.654.521-.548.76s.523.286.931.1.654-.521.548-.76-.522-.281-.931-.1z" class="cls-16" transform="translate(-1572.912 -498.741)"/>
                    <path id="Path_516-2" d="M1581.644 529.362a2.5 2.5 0 0 0 3.8-.059 4.962 4.962 0 0 1-3.8.059z" class="cls-16" transform="translate(-1558.225 -500.9)"/>
                    <path id="Path_517-2" d="M1533.259 460.018c-.242.22 0 1.245.308 1.13a9.461 9.461 0 0 1 6.36-.047c4.232 1.389-2.263-5.091-6.668-1.083z" class="cls-13" transform="translate(-1518.351 -442.825)"/>
                    <path id="Path_518-2" d="M1605.631 461.226a9.452 9.452 0 0 1 6.42.2c.288.118.529-.885.3-1.1-4.314-4.187-10.995 2.204-6.72.9z" class="cls-13" transform="translate(-1576.824 -442.984)"/>
                    <path id="Path_519-2" d="M1595.8 491.477c.414-2.578-3.231 2.269.632 4.125a6.029 6.029 0 0 1-.632-4.125z" class="cls-8" transform="translate(-1568.915 -469.182)"/>
                    <path id="Path_520-2" d="M1560.14 394.2c-1.379-6.077-7.856-10.586-13.194-10.586a13.883 13.883 0 0 0-8.3 3.183 7.306 7.306 0 0 0-.748 1.618c1.588 6.157 11.106 3.363 15.6 1.941 3.627-1.145 5.902 2.43 6.642 3.844z" class="cls-8" transform="translate(-1522.249 -381.083)"/>
                    <path id="Path_521-2" d="M1603.024 405.78s8.551.658 9.52 8.427 1.985 3.455 1.985 3.455.776-5.024 0-7.8-5.466-9.882-11.505-4.082z" class="cls-13" transform="translate(-1575.809 -397.487)"/>
                    <path id="Path_522-2" d="M1613.431 410.488a20.746 20.746 0 0 1 1.18 6.573c.176-1.414.531-5.007-.081-7.2-.776-2.775-5.467-9.883-11.505-4.083a9.483 9.483 0 0 1 .958.142c4.289-2.355 8.449 2.38 9.448 4.568z" class="cls-17" transform="translate(-1575.809 -397.487)"/>
                    <path id="Path_523-2" d="M1514.2 395.719s-5.111 4-4.912 12.839c.11 4.848-2.313-1.055-2.313-1.055s-2.49-11.235 6.094-14.513 1.131 2.729 1.131 2.729z" class="cls-6" transform="translate(-1496.542 -387.985)"/>
                    <path id="Path_524-2" d="M1507.471 408s-2.385-10.38 6.2-13.659c1.927-.736 2.94-1.858 3.516-1.831.162-.658-.728-.81-4.113.483-8.584 3.278-6.094 14.513-6.094 14.513s1.071 2.609 1.756 2.933a15.308 15.308 0 0 1-1.265-2.439z" class="cls-6" transform="translate(-1496.542 -387.985)"/>
                    <path id="Path_525-2" d="M1537.9 375.688s2.123-7.656 12.719-6.158 9.787 12.5 9.787 12.5-2.417-5.821-6.909-4.4-14.009 4.216-15.597-1.942z" class="cls-6" transform="translate(-1522.249 -369.336)"/>
                    <path id="Path_526-2" d="M1558.942 382.31c-1.839 0-2.629-.412-3-.858.7-1.248 2.54-4.719 6.88-4.719.7 0 5.514.194 8.163 1.892-.728.01-3.95-1.7-6.465-.013-1.433.962-2.578 3.698-5.578 3.698z" class="cls-6" transform="translate(-1537.089 -375.42)"/>
                    <g id="Group_326-2" transform="translate(15.651)">
                        <path id="Path_527-2" d="M1539.377 375.69s1.661-5.982 9.368-6.334c-8.977-.4-10.845 6.334-10.845 6.334.815 3.162 3.722 3.963 6.964 3.8-2.616-.143-4.797-1.129-5.487-3.8z" class="cls-18" transform="translate(-1537.9 -369.338)"/>
                        <path id="Path_528-2" d="M1637.723 414.846c3.123.562 4.782 4.557 4.782 4.557a13.454 13.454 0 0 0-.129-2.548 5 5 0 0 0-4.653-2.009z" class="cls-18" transform="translate(-1619.998 -406.712)"/>
                    </g>
                    <path id="Path_529-2" d="M1582.952 406.214a35.289 35.289 0 0 1-8.542 3.224 34.643 34.643 0 0 0 9.115-1.878c4.491-1.423 6.923 5.174 6.923 5.174a22.518 22.518 0 0 0-.169-3.5c-.731-1.056-3.679-4.834-7.327-3.02z" class="cls-17" transform="translate(-1552.276 -399.268)"/>
                    <path id="Path_530-2" d="M1510.625 500.248c-.575.185-.739 1.277-.365 2.44s1.143 1.955 1.719 1.77-.779-4.395-1.354-4.21z" class="cls-8" transform="translate(-1499.351 -476.998)"/>
                    <path id="Path_531-2" d="M1662.166 498.55c.576.185.739 1.277.365 2.44s-1.143 1.955-1.718 1.77.778-4.395 1.353-4.21z" class="cls-16" transform="translate(-1623.222 -475.602)"/>
                    <path id="Path_532-2" d="M1669.358 618.113s-1.079 3.882-3.091 5.226 1.8.907 4.527-4.06a7.3 7.3 0 0 0-1.436-1.166z" class="cls-6" transform="translate(-1627.359 -573.941)"/>
                    <path id="Path_533-2" d="M1555.41 545.305a3.943 3.943 0 0 1 .393-2.177c-1.325 1.523-.246 3.379-.393 2.177z" class="cls-8" transform="translate(-1536.423 -512.27)"/>
                    <path id="Path_534-2" d="M1621.014 542.272a1.909 1.909 0 0 1 .691 1.559c-.118.908 1.229-.606-.691-1.559z" class="cls-8" transform="translate(-1590.605 -511.566)"/>
                    <path id="Path_535-2" d="M1662.313 653.335l.948-4.246-.748.22-.751 4.026z" class="cls-6" transform="translate(-1624.118 -599.417)"/>
                    <path id="Path_536-2" d="M1647.566 650.327l.952-4.411a.41.41 0 0 0-.808-.147l-1.036 4.558z" class="cls-19" transform="translate(-1611.709 -596.409)"/>
                    <path id="Path_537-2" d="M1531.829 652.2h.83l-.575-4.155a.41.41 0 0 0-.807.149z" class="cls-19" transform="translate(-1516.796 -598.281)"/>
                    <path id="Path_538-2" d="M1694.939 629.151h1.569a22.388 22.388 0 0 0-8.672-9.467 24.355 24.355 0 0 1 7.103 9.467z" class="cls-24" transform="translate(-1645.562 -575.233)"/>
                    <path id="Path_539-2" d="M1451.241 627.6a19.852 19.852 0 0 1 7.887-9.8 19.918 19.918 0 0 0-9.371 9.8z" class="cls-24" transform="translate(-1449.756 -573.677)"/>
                </g>
                <g id="Group_330-2" transform="translate(22.198 31.58)">
                    <path id="Path_540-2" d="M1579.708 553.186c-.047-.653 1.338.135 3.285.135s3.319-1.39 3.285-.736c-.077 1.489-.866 3.731-3.4 3.587a3.615 3.615 0 0 1-3.17-2.986z" class="cls-8" transform="translate(-1579.679 -552.326)"/>
                    <g id="Group_329-2">
                        <g id="Group_328-2" class="cls-20">
                            <path id="Path_541-2" d="M1582.854 552.375c1.634-.1 3.258-.819 3.311.049s-1.495 2.789-3.129 2.891-3.409-1.614-3.463-2.481 1.647-.357 3.281-.459z" class="cls-6" transform="translate(-1579.573 -552)"/>
                            <path id="Path_542-2" d="M1585.675 552.191a15.117 15.117 0 0 1-6.635.412l-.168-.879 6.861-.426z" class="cls-14" transform="translate(-1579.015 -551.443)"/>
                            <path id="Path_543-2" d="M1589.444 562.983c.88-.055 1.608.139 1.627.433s-.68.576-1.561.631-1.609-.139-1.627-.433.68-.576 1.561-.631z" class="cls-21" transform="translate(-1586.18 -560.725)"/>
                        </g>
                    </g>
                </g>
            </g>
        </g>
    </g>
</svg>
