<svg xmlns="http://www.w3.org/2000/svg" width="56" height="63" viewBox="0 0 56 63">
    <defs>
        <clipPath id="clip-path">
            <rect id="Rectangle_19" width="56" height="44" fill="#96ccf2" rx="12" transform="translate(-.2 .219)"/>
        </clipPath>
        <clipPath id="clip-path-2">
            <path id="Rectangle_24" fill="#fff" stroke="#707070" d="M0 0H54V34H0z" transform="translate(-.305 .117)"/>
        </clipPath>
        <style>
            .cls-14{fill:#fff}.cls-5{fill:#e8cc43}.cls-6{fill:#8c7a30}.cls-7{fill:#f7b69f}.cls-8{fill:#ce8474}.cls-9{fill:#f9ddb4}.cls-10{fill:#d86348}.cls-11{fill:#42d3cf}.cls-12{fill:#f4db73}.cls-13{fill:#635349}.cls-15{fill:#5ba5a0}.cls-16{fill:#a05c5c}.cls-17{fill:#ccb03b}.cls-18{fill:#f2f2f2}.cls-19{fill:#ba796e}.cls-20{fill:#4d4d4d}.cls-22{fill:#8c6f5b}.cls-23{fill:#d67676}.cls-24{fill:#edac98}.cls-26{fill:#4c312e}
        </style>
    </defs>
    <g id="Group_768" transform="translate(-561.633 -880.117)">
        <rect id="Rectangle_23" width="56" height="44" fill="#3a8bfc" rx="10" transform="translate(561.633 898.117)"/>
        <g id="Mask_Group_2" clip-path="url(#clip-path)" transform="translate(561.833 898.898)">
            <g id="Group_321" transform="translate(3.333 -12.847)">
                <g id="Group_320">
                    <ellipse id="Ellipse_10" cx="15.526" cy="6.79" class="cls-5" rx="15.526" ry="6.79" transform="translate(9.93 41.041)"/>
                    <ellipse id="Ellipse_11" cx="10.479" cy="5.414" class="cls-6" rx="10.479" ry="5.414" transform="translate(14.876 42.502)"/>
                    <path id="Path_454" d="M563.642 1280.871l-.364-9.871h-11.03l-.363 9.833c-3.034.778-5.05 2.135-5.05 3.694 0 2.422 5.437 5.394 11.431 5.394s10.276-2.969 10.276-5.391c-.001-1.53-1.95-2.874-4.9-3.659z" class="cls-7" transform="translate(-532.791 -1234.638)"/>
                    <g id="Group_313" transform="translate(20.014 37.035)">
                        <path id="Path_455" d="M587.532 1283.22l.216 1.852c.192 1.168-1.728 2.769 1.415 2.316 2.386-.344 9.368 3.4 9.65 4.56.426-1.993-6.561-7.776-10.12-8.342l-.363-8.267-11-.906-.026 1.8c3.476 3.486 5.956 5.582 7.53 5.062a2.15 2.15 0 0 1 2.698 1.925z" class="cls-8" transform="translate(-577.303 -1274.433)"/>
                    </g>
                    <g id="Group_314" transform="translate(14.266 36.31)">
                        <path id="Path_456" d="M548.59 1285.026c0-1.559 2.01-2.93 5.036-3.707l.362-9.859-.615-.724-.362 9.859c-3.026.778-5.036 2.148-5.036 3.708a5.024 5.024 0 0 0 1.6 2.954 4.044 4.044 0 0 1-.985-2.231z" class="cls-9" transform="translate(-547.974 -1270.735)"/>
                    </g>
                    <path id="Path_457" d="M535.013 1335.009c-2.022-3.332-6.027-6.991-13.947-8.988a10.975 10.975 0 0 1-9.319 4.917 10.607 10.607 0 0 1-9.666-5.433 22.018 22.018 0 0 0-14.008 9.5z" class="cls-10" transform="translate(-485.547 -1278.461)"/>
                    <g id="Group_315" transform="translate(13.582 46.662)">
                        <path id="Path_458" d="M557.1 1331.487c5.819.22 10.33-4.8 11.837-6.723-.794-.252-1.631-.486-2.518-.7a10.98 10.98 0 0 1-9.319 4.9 10.609 10.609 0 0 1-9.666-5.411q-1.571.366-2.953.808a15.094 15.094 0 0 0 12.619 7.126z" class="cls-11" transform="translate(-544.483 -1323.557)"/>
                    </g>
                    <path id="Path_459" d="M492.823 1324.711c-.945-5.292-2.407-12.015-2.407-12.015-9.394 2.649-13.469 8.095-15.237 12.015z" class="cls-5" transform="translate(-475.179 -1268.163)"/>
                    <path id="Path_460" d="M524.147 1304.65c.169-2.668 3.177-4.9 8.131-6.01.015-.046.059-.271.071-.3-5.518 1-9.17 3.447-9.17 6.306 0 1.453 1.006 2.8 2.72 3.9a.106.106 0 0 0 .137-.16c-.744-.805-1.979-2.326-1.889-3.736z" class="cls-12" transform="translate(-513.772 -1256.623)"/>
                    <path id="Path_461" d="M659.382 1324.711a24.116 24.116 0 0 0-14.136-12.015s-2.048 6.723-3.278 12.015z" class="cls-5" transform="translate(-609.281 -1268.163)"/>
                    <path id="Path_462" d="M540.834 1096.279c-6.764 0-15.151 6.218-15.151 14.093 0 4.865 1.188 15.935 4.041 19.6 2.175 2.791 9.037 6.56 11.623 6.56 2.666 0 9.628-3.662 11.865-6.56 3.436-4.453 2.774-14.826 2.774-19.6-.001-7.872-8.386-14.093-15.152-14.093z" class="cls-7" transform="translate(-515.785 -1094.16)"/>
                    <path id="Path_463" d="M540.875 1136.574c-2.581-.155-9.009-4.328-11.013-7.245-2.628-3.826-3.347-14.948-3.055-19.8.4-6.7 6.82-11.836 12.888-12.952-6.53.639-14.012 6.6-14.012 14.035 0 4.865 1.189 15.936 4.041 19.6 2.175 2.791 9.037 6.56 11.623 6.56 1.3 0 3.608-.867 5.9-2.089-2.478 1.167-5.013 1.972-6.372 1.891z" class="cls-9" transform="translate(-515.784 -1094.396)"/>
                    <path id="Path_464" d="M559.712 1097.772c-2.636-1.677 1.582-.152 5.419 1.353.6.847 1.17 1.731 1.691 2.6a77.518 77.518 0 0 1-7.11-3.953zm1.872-7.264a31.911 31.911 0 0 0-6.942-1.723c-.108-.016-.217-.024-.325-.036a17.262 17.262 0 0 0-9.56 3.555c-1.567 1.7-1.964 3.633-.149 4.941a31.515 31.515 0 0 0 8.717 4.736 111.1 111.1 0 0 1 10.462 3.97s-8.326-4.627-9.753-6.217 1.754 1.219 6.673 2.134a52.6 52.6 0 0 0 6.682.822 29.6 29.6 0 0 1 2.3 4.748c.378 1.342-.283 5.026-.037 6.093a88.461 88.461 0 0 0 .858-10.556c-.002-5.419-4.083-10.059-8.926-12.468z" class="cls-8" transform="translate(-530.035 -1088.105)"/>
                    <path id="Path_465" d="M611.656 1110.372c0-7.875-8.387-14.093-15.151-14.093a11.977 11.977 0 0 0-1.581.108c6.281.609 13.356 5.6 14.041 12.524.47 4.747 2.15 15-.83 19.775-1.94 3.1-8.507 7.434-11.161 7.7a5.327 5.327 0 0 1-1.328-.08 5.458 5.458 0 0 0 1.371.226c2.666 0 9.628-3.662 11.865-6.56 3.436-4.457 2.774-14.83 2.774-19.6z" class="cls-8" transform="translate(-571.455 -1094.16)"/>
                    <path id="Path_466" d="M556.326 1185.933c-1.546 0-3.117 1.184-2.8 2.563.312 1.352.8 2.563 2.8 2.563a2.592 2.592 0 0 0 2.8-2.563c.158-1.406-1.255-2.563-2.8-2.563z" class="cls-13" transform="translate(-538.139 -1166.243)"/>
                    <path id="Path_467" d="M628 1185.933c-1.546 0-3.117 1.184-2.8 2.563.312 1.352.8 2.563 2.8 2.563a2.593 2.593 0 0 0 2.8-2.563c.162-1.406-1.251-2.563-2.8-2.563z" class="cls-13" transform="translate(-595.769 -1166.243)"/>
                    <path id="Path_468" d="M556.326 1189.352c-1.546 0-3.117 1.184-2.8 2.563.312 1.352.8 2.563 2.8 2.563a2.592 2.592 0 0 0 2.8-2.563c.158-1.406-1.255-2.563-2.8-2.563z" class="cls-14" transform="translate(-538.139 -1168.992)"/>
                    <ellipse id="Ellipse_12" cx="1.659" cy="1.86" class="cls-15" rx="1.659" ry="1.86" transform="translate(16.594 20.932)"/>
                    <path id="Path_469" d="M570.924 1197.752c-.219 0-.4.27-.4.6s.177.6.4.6.4-.27.4-.6-.182-.6-.4-.6z" class="cls-14" transform="translate(-551.841 -1175.746)"/>
                    <path id="Path_470" d="M627.965 1189.352c-1.546 0-2.959 1.157-2.8 2.563a2.593 2.593 0 0 0 2.8 2.563c2 0 2.486-1.211 2.8-2.563.317-1.379-1.254-2.563-2.8-2.563z" class="cls-14" transform="translate(-595.762 -1168.992)"/>
                    <ellipse id="Ellipse_13" cx="1.659" cy="1.86" class="cls-15" rx="1.659" ry="1.86" transform="translate(30.479 20.932)"/>
                    <path id="Path_471" d="M641.77 1197.752c-.219 0-.4.27-.4.6s.177.6.4.6.4-.27.4-.6-.182-.6-.4-.6z" class="cls-14" transform="translate(-608.803 -1175.746)"/>
                    <ellipse id="Ellipse_14" cx="2.161" cy=".948" class="cls-8" rx="2.161" ry=".948" transform="translate(22.972 26.665)"/>
                    <path id="Path_472" d="M590.454 1225.847c-.376-.167-.761-.123-.858.1s.129.534.505.7.761.123.858-.1-.128-.533-.505-.7z" class="cls-16" transform="translate(-567.155 -1198.253)"/>
                    <path id="Path_473" d="M609.77 1225.847c-.377.167-.6.48-.505.7s.482.263.858.1.6-.48.506-.7-.483-.266-.859-.1z" class="cls-16" transform="translate(-582.968 -1198.253)"/>
                    <path id="Path_474" d="M594.332 1227.993a2.3 2.3 0 0 0 3.5-.055 4.572 4.572 0 0 1-3.5.055z" class="cls-16" transform="translate(-570.98 -1200.016)"/>
                    <path id="Path_475" d="M545.732 1164.124c-.194.272.32 1.151.608.957a11.334 11.334 0 0 1 6.582-1.861c4.741.074-3.645-4.064-7.19.904z" class="cls-13" transform="translate(-531.871 -1146.738)"/>
                    <path id="Path_476" d="M620.916 1161.09a9.1 9.1 0 0 1 5.72 2.193c.223.2.751-.623.616-.887-2.592-5.087-10.591-1.482-6.336-1.306z" class="cls-13" transform="translate(-591.37 -1145.14)"/>
                    <path id="Path_477" d="M606.254 1196.419c.382-2.376-2.977 2.091.582 3.8a5.556 5.556 0 0 1-.582-3.8z" class="cls-8" transform="translate(-579.706 -1174.126)"/>
                    <path id="Path_478" d="M669.966 1325.254s-1.06 3.813-3.036 5.134 1.768.891 4.447-3.988a7.192 7.192 0 0 0-1.411-1.146z" class="cls-17" transform="translate(-628.904 -1278.259)"/>
                    <path id="Path_479" d="M663.409 1356.932l.932-4.16-.735.211-.738 3.949z" class="cls-17" transform="translate(-626.085 -1300.384)"/>
                    <path id="Path_480" d="M651.315 1354.334l.935-4.324a.4.4 0 0 0-.793-.146l-1.018 4.47z" class="cls-18" transform="translate(-616.091 -1297.786)"/>
                    <path id="Path_481" d="M548.278 1355.964h.816l-.565-4.072a.4.4 0 0 0-.793.144z" class="cls-18" transform="translate(-533.511 -1299.416)"/>
                    <path id="Path_482" d="M694.051 1335.849h1.541a22.013 22.013 0 0 0-8.518-9.3 24.265 24.265 0 0 1 6.977 9.3z" class="cls-17" transform="translate(-645.547 -1279.301)"/>
                    <path id="Path_483" d="M476.642 1334.5a19.517 19.517 0 0 1 7.747-9.629 19.582 19.582 0 0 0-9.205 9.629z" class="cls-12" transform="translate(-475.183 -1277.948)"/>
                    <path id="Path_484" d="M509.359 1189.166c-1.1.585-1.06 2.915.1 5.2s2.988 3.669 4.091 3.084 1.06-2.915-.1-5.2-2.988-3.669-4.091-3.084z" class="cls-7" transform="translate(-502.017 -1168.734)"/>
                    <path id="Path_485" d="M514.044 1197.083c-.679.361-.653 1.8.059 3.206s1.84 2.261 2.52 1.9-1.9-5.466-2.579-5.106z" class="cls-8" transform="translate(-506.031 -1175.193)"/>
                    <g id="Group_316" transform="translate(38.775 19.973)">
                        <path id="Path_486" d="M677.631 1187.463c-1.214-.482-2.993 1.107-3.972 3.548s-.789 4.812.425 5.294 2.993-1.107 3.972-3.548.789-4.813-.425-5.294z" class="cls-8" transform="translate(-673.032 -1187.376)"/>
                    </g>
                    <g id="Group_317" transform="translate(40.202 21.37)">
                        <path id="Path_487" d="M681.773 1194.508c.788.164 1.157 1.581.825 3.167s-1.242 2.738-2.031 2.574.417-5.905 1.206-5.741z" class="cls-19" transform="translate(-680.31 -1194.505)"/>
                    </g>
                    <path id="Path_488" d="M526.711 1111.056s-5.676 5.276-3.809 13.131c.808 3.4-2.222-.584-2.222-.584s-2.233-10.92 4.59-15.2 1.441 2.653 1.441 2.653z" class="cls-20" transform="translate(-511.483 -1102.785)"/>
                    <path id="Path_489" fill="#534741" d="M563.986 1090.705c-2.205-2.163-6.007-4.209-12.548-5.148-6.6-.948-14.234 5.435-10.034 8.46a31.516 31.516 0 0 0 8.717 4.736 111.008 111.008 0 0 1 10.462 3.97s-8.326-4.627-9.752-6.217 1.754 1.219 6.673 2.134a52.638 52.638 0 0 0 6.682.822 29.6 29.6 0 0 1 2.3 4.748c.467 1.659-.654 6.9.316 6.346s1.834-4.767 1.834-4.767c.687-7.903-1.716-12.458-4.65-15.084zm-7.478 3.839c-2.636-1.677 1.582-.152 5.419 1.353.6.847 1.17 1.731 1.692 2.6a77.518 77.518 0 0 1-7.111-3.952z" transform="translate(-527.458 -1085.463)"/>
                    <g id="Group_318" transform="translate(20.489)">
                        <path id="Path_490" d="M595.765 1090.706c-2.205-2.163-6.008-4.209-12.548-5.148a10.452 10.452 0 0 0-3.491.119 9.342 9.342 0 0 1 2.005.006 19.54 19.54 0 0 1 12.38 6.009c3.1 2.719 5.427 9.747 5.127 18.276.154-.61 1.172-4.177 1.172-4.177.69-7.905-1.71-12.46-4.645-15.085z" class="cls-13" transform="translate(-579.726 -1085.463)"/>
                    </g>
                    <g id="Group_319" transform="translate(12.743 .001)">
                        <path id="Path_491" d="M551.43 1098.758a31.513 31.513 0 0 1-8.717-4.736c-3.776-2.72 2.011-8.153 8.017-8.533-6.424-.424-13.375 5.615-9.325 8.533a31.513 31.513 0 0 0 8.717 4.736 111.089 111.089 0 0 1 10.462 3.97s-1.507-.838-3.349-1.922c-1.875-.736-4.011-1.522-5.805-2.048z" class="cls-22" transform="translate(-540.201 -1085.468)"/>
                        <path id="Path_492" d="M601.116 1141.816a5.874 5.874 0 0 0 .721.64 20.454 20.454 0 0 0 4.643 1.494 46.442 46.442 0 0 0 8.255.869l-.083-.037a52.261 52.261 0 0 1-6.863-.832z" class="cls-22" transform="translate(-589.178 -1130.773)"/>
                    </g>
                </g>
                <path id="Path_493" d="M582.548 1253.424s4.3 4.516 11.352-.3v-.005s-5.826 5.587-11.352.443z" class="cls-23" transform="translate(-562.713 -1220.602)"/>
                <path id="Path_494" d="M606.069 1265.5a5.19 5.19 0 0 1-3.668 1.274c-1.267.043 3.847.873 3.668-1.274z" class="cls-24" transform="translate(-577.305 -1230.216)"/>
            </g>
        </g>
        <g id="Mask_Group_3" clip-path="url(#clip-path-2)" transform="translate(563.939 880)">
            <g id="Group_322" transform="translate(1.227 5.051)">
                <g id="Group_320-2">
                    <ellipse id="Ellipse_10-2" cx="15.526" cy="6.79" class="cls-5" rx="15.526" ry="6.79" transform="translate(9.93 41.041)"/>
                    <ellipse id="Ellipse_11-2" cx="10.479" cy="5.414" class="cls-6" rx="10.479" ry="5.414" transform="translate(14.876 42.502)"/>
                    <path id="Path_454-2" d="M563.642 1280.871l-.364-9.871h-11.03l-.363 9.833c-3.034.778-5.05 2.135-5.05 3.694 0 2.422 5.437 5.394 11.431 5.394s10.276-2.969 10.276-5.391c-.001-1.53-1.95-2.874-4.9-3.659z" class="cls-7" transform="translate(-532.791 -1234.638)"/>
                    <g id="Group_313-2" transform="translate(20.014 37.035)">
                        <path id="Path_455-2" d="M587.532 1283.22l.216 1.852c.192 1.168-1.728 2.769 1.415 2.316 2.386-.344 9.368 3.4 9.65 4.56.426-1.993-6.561-7.776-10.12-8.342l-.363-8.267-11-.906-.026 1.8c3.476 3.486 5.956 5.582 7.53 5.062a2.15 2.15 0 0 1 2.698 1.925z" class="cls-8" transform="translate(-577.303 -1274.433)"/>
                    </g>
                    <g id="Group_314-2" transform="translate(14.266 36.31)">
                        <path id="Path_456-2" d="M548.59 1285.026c0-1.559 2.01-2.93 5.036-3.707l.362-9.859-.615-.724-.362 9.859c-3.026.778-5.036 2.148-5.036 3.708a5.024 5.024 0 0 0 1.6 2.954 4.044 4.044 0 0 1-.985-2.231z" class="cls-9" transform="translate(-547.974 -1270.735)"/>
                    </g>
                    <path id="Path_457-2" d="M535.013 1335.009c-2.022-3.332-6.027-6.991-13.947-8.988a10.975 10.975 0 0 1-9.319 4.917 10.607 10.607 0 0 1-9.666-5.433 22.018 22.018 0 0 0-14.008 9.5z" class="cls-10" transform="translate(-485.547 -1278.461)"/>
                    <g id="Group_315-2" transform="translate(13.582 46.662)">
                        <path id="Path_458-2" d="M557.1 1331.487c5.819.22 10.33-4.8 11.837-6.723-.794-.252-1.631-.486-2.518-.7a10.98 10.98 0 0 1-9.319 4.9 10.609 10.609 0 0 1-9.666-5.411q-1.571.366-2.953.808a15.094 15.094 0 0 0 12.619 7.126z" class="cls-11" transform="translate(-544.483 -1323.557)"/>
                    </g>
                    <path id="Path_459-2" d="M492.823 1324.711c-.945-5.292-2.407-12.015-2.407-12.015-9.394 2.649-13.469 8.095-15.237 12.015z" class="cls-5" transform="translate(-475.179 -1268.163)"/>
                    <path id="Path_460-2" d="M524.147 1304.65c.169-2.668 3.177-4.9 8.131-6.01.015-.046.059-.271.071-.3-5.518 1-9.17 3.447-9.17 6.306 0 1.453 1.006 2.8 2.72 3.9a.106.106 0 0 0 .137-.16c-.744-.805-1.979-2.326-1.889-3.736z" class="cls-12" transform="translate(-513.772 -1256.623)"/>
                    <path id="Path_461-2" d="M659.382 1324.711a24.116 24.116 0 0 0-14.136-12.015s-2.048 6.723-3.278 12.015z" class="cls-5" transform="translate(-609.281 -1268.163)"/>
                    <path id="Path_462-2" d="M540.834 1096.279c-6.764 0-15.151 6.218-15.151 14.093 0 4.865 1.188 15.935 4.041 19.6 2.175 2.791 9.037 6.56 11.623 6.56 2.666 0 9.628-3.662 11.865-6.56 3.436-4.453 2.774-14.826 2.774-19.6-.001-7.872-8.386-14.093-15.152-14.093z" class="cls-7" transform="translate(-515.785 -1094.16)"/>
                    <path id="Path_463-2" d="M540.875 1136.574c-2.581-.155-9.009-4.328-11.013-7.245-2.628-3.826-3.347-14.948-3.055-19.8.4-6.7 6.82-11.836 12.888-12.952-6.53.639-14.012 6.6-14.012 14.035 0 4.865 1.189 15.936 4.041 19.6 2.175 2.791 9.037 6.56 11.623 6.56 1.3 0 3.608-.867 5.9-2.089-2.478 1.167-5.013 1.972-6.372 1.891z" class="cls-9" transform="translate(-515.784 -1094.396)"/>
                    <path id="Path_464-2" d="M559.712 1097.772c-2.636-1.677 1.582-.152 5.419 1.353.6.847 1.17 1.731 1.691 2.6a77.518 77.518 0 0 1-7.11-3.953zm1.872-7.264a31.911 31.911 0 0 0-6.942-1.723c-.108-.016-.217-.024-.325-.036a17.262 17.262 0 0 0-9.56 3.555c-1.567 1.7-1.964 3.633-.149 4.941a31.515 31.515 0 0 0 8.717 4.736 111.1 111.1 0 0 1 10.462 3.97s-8.326-4.627-9.753-6.217 1.754 1.219 6.673 2.134a52.6 52.6 0 0 0 6.682.822 29.6 29.6 0 0 1 2.3 4.748c.378 1.342-.283 5.026-.037 6.093a88.461 88.461 0 0 0 .858-10.556c-.002-5.419-4.083-10.059-8.926-12.468z" class="cls-8" transform="translate(-530.035 -1088.105)"/>
                    <path id="Path_465-2" d="M611.656 1110.372c0-7.875-8.387-14.093-15.151-14.093a11.977 11.977 0 0 0-1.581.108c6.281.609 13.356 5.6 14.041 12.524.47 4.747 2.15 15-.83 19.775-1.94 3.1-8.507 7.434-11.161 7.7a5.327 5.327 0 0 1-1.328-.08 5.458 5.458 0 0 0 1.371.226c2.666 0 9.628-3.662 11.865-6.56 3.436-4.457 2.774-14.83 2.774-19.6z" class="cls-8" transform="translate(-571.455 -1094.16)"/>
                    <path id="Path_466-2" d="M556.326 1185.933c-1.546 0-3.117 1.184-2.8 2.563.312 1.352.8 2.563 2.8 2.563a2.592 2.592 0 0 0 2.8-2.563c.158-1.406-1.255-2.563-2.8-2.563z" class="cls-13" transform="translate(-538.139 -1166.243)"/>
                    <path id="Path_467-2" d="M628 1185.933c-1.546 0-3.117 1.184-2.8 2.563.312 1.352.8 2.563 2.8 2.563a2.593 2.593 0 0 0 2.8-2.563c.162-1.406-1.251-2.563-2.8-2.563z" class="cls-13" transform="translate(-595.769 -1166.243)"/>
                    <path id="Path_468-2" d="M556.326 1189.352c-1.546 0-3.117 1.184-2.8 2.563.312 1.352.8 2.563 2.8 2.563a2.592 2.592 0 0 0 2.8-2.563c.158-1.406-1.255-2.563-2.8-2.563z" class="cls-14" transform="translate(-538.139 -1168.992)"/>
                    <ellipse id="Ellipse_12-2" cx="1.659" cy="1.86" class="cls-26" rx="1.659" ry="1.86" transform="translate(16.594 20.932)"/>
                    <path id="Path_469-2" d="M570.924 1197.752c-.219 0-.4.27-.4.6s.177.6.4.6.4-.27.4-.6-.182-.6-.4-.6z" class="cls-14" transform="translate(-551.841 -1175.746)"/>
                    <path id="Path_470-2" d="M627.965 1189.352c-1.546 0-2.959 1.157-2.8 2.563a2.593 2.593 0 0 0 2.8 2.563c2 0 2.486-1.211 2.8-2.563.317-1.379-1.254-2.563-2.8-2.563z" class="cls-14" transform="translate(-595.762 -1168.992)"/>
                    <ellipse id="Ellipse_13-2" cx="1.659" cy="1.86" class="cls-26" rx="1.659" ry="1.86" transform="translate(30.479 20.932)"/>
                    <path id="Path_471-2" d="M641.77 1197.752c-.219 0-.4.27-.4.6s.177.6.4.6.4-.27.4-.6-.182-.6-.4-.6z" class="cls-14" transform="translate(-608.803 -1175.746)"/>
                    <ellipse id="Ellipse_14-2" cx="2.161" cy=".948" class="cls-8" rx="2.161" ry=".948" transform="translate(22.972 26.665)"/>
                    <path id="Path_472-2" d="M590.454 1225.847c-.376-.167-.761-.123-.858.1s.129.534.505.7.761.123.858-.1-.128-.533-.505-.7z" class="cls-16" transform="translate(-567.155 -1198.253)"/>
                    <path id="Path_473-2" d="M609.77 1225.847c-.377.167-.6.48-.505.7s.482.263.858.1.6-.48.506-.7-.483-.266-.859-.1z" class="cls-16" transform="translate(-582.968 -1198.253)"/>
                    <path id="Path_474-2" d="M594.332 1227.993a2.3 2.3 0 0 0 3.5-.055 4.572 4.572 0 0 1-3.5.055z" class="cls-16" transform="translate(-570.98 -1200.016)"/>
                    <path id="Path_475-2" d="M545.732 1164.124c-.194.272.32 1.151.608.957a11.334 11.334 0 0 1 6.582-1.861c4.741.074-3.645-4.064-7.19.904z" class="cls-13" transform="translate(-531.871 -1146.738)"/>
                    <path id="Path_476-2" d="M620.916 1161.09a9.1 9.1 0 0 1 5.72 2.193c.223.2.751-.623.616-.887-2.592-5.087-10.591-1.482-6.336-1.306z" class="cls-13" transform="translate(-591.37 -1145.14)"/>
                    <path id="Path_477-2" d="M606.254 1196.419c.382-2.376-2.977 2.091.582 3.8a5.556 5.556 0 0 1-.582-3.8z" class="cls-8" transform="translate(-579.706 -1174.126)"/>
                    <path id="Path_478-2" d="M669.966 1325.254s-1.06 3.813-3.036 5.134 1.768.891 4.447-3.988a7.192 7.192 0 0 0-1.411-1.146z" class="cls-17" transform="translate(-628.904 -1278.259)"/>
                    <path id="Path_479-2" d="M663.409 1356.932l.932-4.16-.735.211-.738 3.949z" class="cls-17" transform="translate(-626.085 -1300.384)"/>
                    <path id="Path_480-2" d="M651.315 1354.334l.935-4.324a.4.4 0 0 0-.793-.146l-1.018 4.47z" class="cls-18" transform="translate(-616.091 -1297.786)"/>
                    <path id="Path_481-2" d="M548.278 1355.964h.816l-.565-4.072a.4.4 0 0 0-.793.144z" class="cls-18" transform="translate(-533.511 -1299.416)"/>
                    <path id="Path_482-2" d="M694.051 1335.849h1.541a22.013 22.013 0 0 0-8.518-9.3 24.265 24.265 0 0 1 6.977 9.3z" class="cls-17" transform="translate(-645.547 -1279.301)"/>
                    <path id="Path_483-2" d="M476.642 1334.5a19.517 19.517 0 0 1 7.747-9.629 19.582 19.582 0 0 0-9.205 9.629z" class="cls-12" transform="translate(-475.183 -1277.948)"/>
                    <path id="Path_484-2" d="M509.359 1189.166c-1.1.585-1.06 2.915.1 5.2s2.988 3.669 4.091 3.084 1.06-2.915-.1-5.2-2.988-3.669-4.091-3.084z" class="cls-7" transform="translate(-502.017 -1168.734)"/>
                    <path id="Path_485-2" d="M514.044 1197.083c-.679.361-.653 1.8.059 3.206s1.84 2.261 2.52 1.9-1.9-5.466-2.579-5.106z" class="cls-8" transform="translate(-506.031 -1175.193)"/>
                    <g id="Group_316-2" transform="translate(38.775 19.973)">
                        <path id="Path_486-2" d="M677.631 1187.463c-1.214-.482-2.993 1.107-3.972 3.548s-.789 4.812.425 5.294 2.993-1.107 3.972-3.548.789-4.813-.425-5.294z" class="cls-8" transform="translate(-673.032 -1187.376)"/>
                    </g>
                    <g id="Group_317-2" transform="translate(40.202 21.37)">
                        <path id="Path_487-2" d="M681.773 1194.508c.788.164 1.157 1.581.825 3.167s-1.242 2.738-2.031 2.574.417-5.905 1.206-5.741z" class="cls-19" transform="translate(-680.31 -1194.505)"/>
                    </g>
                    <path id="Path_488-2" d="M526.711 1111.056s-5.676 5.276-3.809 13.131c.808 3.4-2.222-.584-2.222-.584s-2.233-10.92 4.59-15.2 1.441 2.653 1.441 2.653z" class="cls-20" transform="translate(-511.483 -1102.785)"/>
                    <path id="Path_489-2" fill="#353333" d="M563.986 1090.705c-2.205-2.163-6.007-4.209-12.548-5.148-6.6-.948-14.234 5.435-10.034 8.46a31.516 31.516 0 0 0 8.717 4.736 111.008 111.008 0 0 1 10.462 3.97s-8.326-4.627-9.752-6.217 1.754 1.219 6.673 2.134a52.638 52.638 0 0 0 6.682.822 29.6 29.6 0 0 1 2.3 4.748c.467 1.659-.654 6.9.316 6.346s1.834-4.767 1.834-4.767c.687-7.903-1.716-12.458-4.65-15.084zm-7.478 3.839c-2.636-1.677 1.582-.152 5.419 1.353.6.847 1.17 1.731 1.692 2.6a77.518 77.518 0 0 1-7.111-3.952z" transform="translate(-527.458 -1085.463)"/>
                    <g id="Group_318-2" transform="translate(20.489)">
                        <path id="Path_490-2" d="M595.765 1090.706c-2.205-2.163-6.008-4.209-12.548-5.148a10.452 10.452 0 0 0-3.491.119 9.342 9.342 0 0 1 2.005.006 19.54 19.54 0 0 1 12.38 6.009c3.1 2.719 5.427 9.747 5.127 18.276.154-.61 1.172-4.177 1.172-4.177.69-7.905-1.71-12.46-4.645-15.085z" class="cls-13" transform="translate(-579.726 -1085.463)"/>
                    </g>
                    <g id="Group_319-2" transform="translate(12.743 .001)">
                        <path id="Path_491-2" d="M551.43 1098.758a31.513 31.513 0 0 1-8.717-4.736c-3.776-2.72 2.011-8.153 8.017-8.533-6.424-.424-13.375 5.615-9.325 8.533a31.513 31.513 0 0 0 8.717 4.736 111.089 111.089 0 0 1 10.462 3.97s-1.507-.838-3.349-1.922c-1.875-.736-4.011-1.522-5.805-2.048z" class="cls-22" transform="translate(-540.201 -1085.468)"/>
                        <path id="Path_492-2" d="M601.116 1141.816a5.874 5.874 0 0 0 .721.64 20.454 20.454 0 0 0 4.643 1.494 46.442 46.442 0 0 0 8.255.869l-.083-.037a52.261 52.261 0 0 1-6.863-.832z" class="cls-22" transform="translate(-589.178 -1130.773)"/>
                    </g>
                </g>
                <path id="Path_493-2" d="M582.548 1253.424s4.3 4.516 11.352-.3v-.005s-5.826 5.587-11.352.443z" class="cls-23" transform="translate(-562.713 -1220.602)"/>
                <path id="Path_494-2" d="M606.069 1265.5a5.19 5.19 0 0 1-3.668 1.274c-1.267.043 3.847.873 3.668-1.274z" class="cls-24" transform="translate(-577.305 -1230.216)"/>
            </g>
        </g>
    </g>
</svg>
