<svg xmlns="http://www.w3.org/2000/svg" width="56.991" height="61.038" viewBox="0 0 56.991 61.038">
    <defs>
        <clipPath id="clip-path">
            <rect id="Rectangle_25" width="57" height="45" class="cls-1" rx="12" transform="translate(.027 .102)"/>
        </clipPath>
        <clipPath id="clip-path-2">
            <path id="Path_559" fill="none" d="M1567.381 1212.161s1.489 4.639 6.006 4.447c3.375-.142 5.1-4.332 5.1-4.332-3.981-1.076-6.487-1.076-11.106-.115z" transform="translate(-1567.381 -1211.457)"/>
        </clipPath>
        <clipPath id="clip-path-3">
            <rect id="Rectangle_27" width="57" height="48" class="cls-1" rx="12" transform="translate(.027 -.016)"/>
        </clipPath>
        <style>
            .cls-1{fill:#96ccf2}.cls-5{fill:#f7b69f}.cls-6{fill:#17bf87}.cls-7{fill:#f9ddb4}.cls-8{fill:#ce8474}.cls-9{fill:#16d398}.cls-10{fill:#d67676}.cls-11{clip-path:url(#clip-path-2)}.cls-12{fill:#333}.cls-13{fill:#c1272d}.cls-14{fill:#fff}.cls-15{fill:#a05c5c}.cls-16{fill:#f7a192;opacity:.5}.cls-17{fill:#4d4d4d}.cls-18{fill:#6d433c}.cls-19{fill:#ba796e}.cls-20{fill:#f7846d}.cls-21{fill:#d8968b}
        </style>
    </defs>
    <g id="Group_767" transform="translate(-.009 .035)">
        <rect id="Rectangle_26" width="57" height="45" fill="#fee" rx="10" transform="translate(.027 15.984)"/>
        <g id="Mask_Group_4" clip-path="url(#clip-path)" transform="translate(0 15.882)">
            <g id="Group_386" transform="translate(4.491 -10.161)">
                <g id="Group_383" transform="translate(0 1.919)">
                    <path id="Path_545" d="M1535.782 1262.024l-.364-9.2h-9.481l-.367 9.789c-5.928 1.01-10.412 3.2-10.412 6.282 0 3.954 7.221 7.19 15.81 7.19s16.068-3.158 16.068-7.112c0-3.182-5.021-6.016-11.254-6.949z" class="cls-5" transform="translate(-1507.141 -1213.521)"/>
                    <path id="Path_546" d="M1486.884 1311.467s12.427 7.37 24.8.025c0 0 11.6 3.909 11.6 11.952l-47.971.036s1.221-7.202 11.571-12.013z" class="cls-6" transform="translate(-1475.314 -1260.366)"/>
                    <path id="Path_547" d="M1527.929 1263.288l-.052-9.812-.288-.655-.366 9.789c-4.872.83-8.762 2.46-10 4.723 1.989-1.912 6.336-3.3 10.706-4.045z" class="cls-7" transform="translate(-1508.792 -1213.521)"/>
                    <path id="Path_548" d="M1578.565 1251.377l-.364-11.771s-.648.238-1.513.485h-8.616l.043 2.034a3.046 3.046 0 0 0 .848 1.841 10.266 10.266 0 0 0 4.683 2.2c2.506-.322 3.2 2.367 3.443 4.254.285 2.178 2.361 2.245 3.565 2.536 8.109 1.958 8.648 5.718 8.648 5.458-.002-3.692-6.011-6.062-10.737-7.037z" class="cls-8" transform="translate(-1549.407 -1202.965)"/>
                    <path id="Path_549" d="M1531.146 1057.516c-7.1 0-15.893 6.523-15.893 14.782 0 5.1 1.247 16.716 4.239 20.556 2.281 2.928 9.48 6.881 12.192 6.881 2.8 0 10.1-3.842 12.446-6.881 3.6-4.671 2.91-15.552 2.91-20.556-.001-8.259-8.799-14.782-15.894-14.782z" class="cls-5" transform="translate(-1507.216 -1057.516)"/>
                    <path id="Path_550" d="M1530.037 1187.012c-2.707-.163-9.656-4.541-11.757-7.6-2.757-4.014-2.935-9.459-3.782-11.392-2.048-4.674.85 8.469 3.842 12.31 2.281 2.928 9.48 6.881 12.192 6.881 1.36 0 3.785-.909 6.188-2.192-2.598 1.234-5.257 2.081-6.683 1.993z" class="cls-7" transform="translate(-1506.064 -1144.992)"/>
                    <path id="Path_551" d="M1603.544 1072.3c0-8.26-8.8-14.782-15.893-14.782a12.556 12.556 0 0 0-1.659.113c6.589.639 14.01 5.874 14.729 13.137.493 4.979 2.256 15.739-.871 20.743-2.035 3.256-8.924 7.8-11.707 8.074a5.584 5.584 0 0 1-1.393-.084 5.714 5.714 0 0 0 1.438.237c2.8 0 10.1-3.842 12.445-6.881 3.606-4.673 2.911-15.557 2.911-20.557z" class="cls-8" transform="translate(-1563.721 -1057.516)"/>
                    <g id="Group_332" transform="translate(.992 51.101)">
                        <path id="Path_552" d="M1515.767 1324.447c5.324.03 7.188-4 7.673-8.267a27.981 27.981 0 0 1-2.812-1.107c.095 7.666-4.861 9.374-4.861 9.374z" class="cls-9" transform="translate(-1508.62 -1314.348)"/>
                        <path id="Path_553" d="M1482.55 1321.71s3.677 0 8.038-4.946a7.355 7.355 0 0 0 1.523-4.638c-.828-.387-1.287-.659-1.287-.659-6.369 2.96-9.28 6.826-10.578 9.361a3.128 3.128 0 0 0 2.304.882z" class="cls-9" transform="translate(-1480.246 -1311.467)"/>
                    </g>
                    <path id="Path_554" d="M1641.56 1311.591a22.066 22.066 0 0 1-3.817 1.959c-.756 5.272.286 10.1 7.184 8.986 0 0-.067-.093-.182-.274a8.519 8.519 0 0 0 2.4.763 22.525 22.525 0 0 0 5.563-.536c-1.336-7.328-11.148-10.898-11.148-10.898z" class="cls-9" transform="translate(-1604.891 -1260.465)"/>
                    <path id="Path_555" d="M1567.381 1212.493s.717 5.476 5.9 5.478c4.207 0 5.2-5.364 5.2-5.364-3.975-1.062-6.481-1.062-11.1-.114z" class="cls-10" transform="translate(-1548.855 -1180.751)"/>
                    <g id="Group_334" transform="translate(18.526 30.976)">
                        <g id="Group_333" class="cls-11">
                            <path id="Path_556" d="M1567.381 1212.161s1.489 4.639 6.006 4.447c3.375-.142 5.1-4.332 5.1-4.332-3.981-1.076-6.487-1.076-11.106-.115z" class="cls-12" transform="translate(-1567.381 -1211.457)"/>
                            <path id="Path_557" d="M1586.809 1228.351c0-.745-1.36-1.349-3.038-1.349s-3.038.6-3.038 1.349 1.36 1.349 3.038 1.349 3.038-.6 3.038-1.349z" class="cls-13" transform="translate(-1578.045 -1223.874)"/>
                            <path id="Path_558" d="M1567.381 1210.71l1 1.336a.837.837 0 0 0 .556.328 26.847 26.847 0 0 0 8.157-.115.656.656 0 0 0 .512-.532l.18-1.016s-9.078-.425-10.405-.001z" class="cls-14" transform="translate(-1567.381 -1210.71)"/>
                        </g>
                    </g>
                    <g id="Group_335" transform="translate(11.901 13.565)">
                        <path id="Path_560" d="M1534.457 1127.927a12.59 12.59 0 0 1 7.2-1.648c.388.029.7-.884.329-.994-5.379-1.585-7.529 2.642-7.529 2.642z" class="cls-12" transform="translate(-1534.457 -1124.929)"/>
                    </g>
                    <g id="Group_336" transform="translate(28.057 13.662)">
                        <path id="Path_561" d="M1615.146 1126.755a15.206 15.206 0 0 1 7.539 2.046s-2.1-4.187-7.7-3.257c-.41.069-.258 1.237.161 1.211z" class="cls-12" transform="translate(-1614.745 -1125.41)"/>
                    </g>
                    <g id="Group_337" transform="translate(22.614 26.115)">
                        <path id="Path_562" d="M1589.3 1187.3c-.888 0-1.608.321-1.608.717s.72.717 1.608.717 1.609-.321 1.609-.717-.716-.717-1.609-.717z" class="cls-8" transform="translate(-1587.696 -1187.296)"/>
                    </g>
                    <g id="Group_338" transform="translate(22.082 26.432)">
                        <path id="Path_563" d="M1585.961 1188.976c-.388-.172-.783-.127-.884.1s.133.55.521.721.784.127.884-.1-.133-.549-.521-.721z" class="cls-15" transform="translate(-1585.054 -1188.872)"/>
                    </g>
                    <g id="Group_339" transform="translate(24.975 26.415)">
                        <path id="Path_564" d="M1599.937 1188.92c-.377.194-.59.531-.477.751s.511.241.888.047.59-.531.477-.751-.512-.242-.888-.047z" class="cls-15" transform="translate(-1599.429 -1188.787)"/>
                    </g>
                    <g id="Group_340" transform="translate(23.307 27.219)">
                        <path id="Path_565" d="M1591.141 1192.782a1.079 1.079 0 0 0 1.795 0 2 2 0 0 1-1.795 0z" class="cls-15" transform="translate(-1591.141 -1192.782)"/>
                    </g>
                    <g id="Group_341" transform="translate(24.708 21.636)">
                        <path id="Path_566" d="M1599.346 1165.609c.444-1.985-3.463 1.747.677 3.177a3.615 3.615 0 0 1-.677-3.177z" class="cls-8" transform="translate(-1598.102 -1165.04)"/>
                    </g>
                    <path id="Path_567" d="M1628.389 1178.689a4.741 4.741 0 0 1-2.887 5.563c-2.488.856-6.1.094-6.69-1.637s.336-2.288 4.338-3.356c2.542-.678 4.644-2.3 5.239-.57z" class="cls-16" transform="translate(-1589.805 -1153.689)"/>
                    <path id="Path_568" d="M1546.706 1152.964c-1.8 0-3.629 1.378-3.258 2.984.364 1.574.929 2.984 3.258 2.984a3.019 3.019 0 0 0 3.258-2.984c.186-1.638-1.459-2.984-3.258-2.984z" class="cls-14" transform="translate(-1529.699 -1133.758)"/>
                    <ellipse id="Ellipse_21" cx="1.931" cy="2.165" class="cls-17" rx="1.931" ry="2.165" transform="translate(15.153 19.872)"/>
                    <ellipse id="Ellipse_22" cx=".46" cy=".702" class="cls-14" rx=".46" ry=".702" transform="translate(17.588 21.123)"/>
                    <path id="Path_569" d="M1539.107 1149.039a3.433 3.433 0 0 0-3.423 3.159l-1.674.845 1.943-.323a3.138 3.138 0 0 1 3.253-2.891 3.264 3.264 0 0 1 3.012 1.859l.135.363.608.023-.453-.382a3.35 3.35 0 0 0-3.401-2.653z" class="cls-18" transform="translate(-1522.199 -1130.622)"/>
                    <path id="Path_570" d="M1616.439 1152.964c-1.8 0-3.444 1.346-3.258 2.984a3.018 3.018 0 0 0 3.258 2.984c2.329 0 2.894-1.41 3.258-2.984.371-1.606-1.459-2.984-3.258-2.984z" class="cls-14" transform="translate(-1585.427 -1133.758)"/>
                    <ellipse id="Ellipse_23" cx="1.931" cy="2.165" class="cls-17" rx="1.931" ry="2.165" transform="translate(29.004 19.872)"/>
                    <path id="Path_571" d="M1632.016 1162.487c-.254 0-.46.314-.46.7s.206.7.46.7.46-.314.46-.7-.205-.7-.46-.7z" class="cls-14" transform="translate(-1600.117 -1141.365)"/>
                    <path id="Path_572" d="M1614.619 1149.039a3.35 3.35 0 0 0-3.4 2.653l-.453.382.609-.023.135-.363a3.264 3.264 0 0 1 3.012-1.859 3.137 3.137 0 0 1 3.252 2.891l1.943.323-1.675-.845a3.432 3.432 0 0 0-3.423-3.159z" class="cls-18" transform="translate(-1583.509 -1130.622)"/>
                    <ellipse id="Ellipse_24" cx="2.092" cy="4.278" class="cls-5" rx="2.092" ry="4.278" transform="rotate(-26.573 47.737 2.221)"/>
                    <path id="Path_573" d="M1505.9 1166.813c-.629.333-.606 1.655.052 2.953s1.7 2.081 2.331 1.748-1.756-5.034-2.383-4.701z" class="cls-8" transform="translate(-1499.379 -1144.807)"/>
                    <g id="Group_342" transform="translate(37.171 19.568)">
                        <ellipse id="Ellipse_25" cx="4.281" cy="2.09" class="cls-8" rx="4.281" ry="2.09" transform="rotate(-65.811 6.035 3.905)"/>
                    </g>
                    <path id="Path_574" d="M1522.452 1181.068a4.741 4.741 0 0 0 2.888 5.563c2.488.856 6.095.093 6.691-1.636s-.336-2.288-4.338-3.356c-2.544-.679-4.646-2.301-5.241-.571z" class="cls-16" transform="translate(-1512.832 -1155.59)"/>
                    <g id="Group_343" transform="translate(39.51 21.527)">
                        <path id="Path_575" d="M1673.194 1164.5c.685.187.94 1.484.569 2.9s-1.225 2.405-1.909 2.218.656-5.302 1.34-5.118z" class="cls-19" transform="translate(-1671.665 -1164.498)"/>
                    </g>
                    <g id="Group_382" transform="translate(9.952 23.309)">
                        <g id="Group_344" transform="translate(3.628 3.775)">
                            <path id="Path_576" d="M1542.915 1192.333a.109.109 0 1 0 0-.218.109.109 0 1 0 0 .218z" class="cls-20" transform="translate(-1542.802 -1192.115)"/>
                        </g>
                        <g id="Group_345" transform="translate(7.315 4.43)">
                            <path id="Path_577" d="M1561.238 1195.585a.109.109 0 1 0 0-.218.109.109 0 1 0 0 .218z" class="cls-20" transform="translate(-1561.125 -1195.367)"/>
                        </g>
                        <g id="Group_346" transform="translate(4.331 6.502)">
                            <path id="Path_578" d="M1546.4 1205.883a.109.109 0 1 0 0-.218.109.109 0 1 0 0 .218z" class="cls-20" transform="translate(-1546.292 -1205.665)"/>
                        </g>
                        <g id="Group_347" transform="translate(11.529 1.54)">
                            <path id="Path_579" d="M1582.178 1181.222a.109.109 0 1 0 0-.218.109.109 0 1 0 0 .218z" class="cls-20" transform="translate(-1582.065 -1181.004)"/>
                        </g>
                        <g id="Group_348" transform="translate(20.191 4.048)">
                            <path id="Path_580" d="M1625.222 1193.688a.109.109 0 1 0 0-.218.109.109 0 1 0 0 .218z" class="cls-20" transform="translate(-1625.109 -1193.47)"/>
                        </g>
                        <g id="Group_349" transform="translate(24.17 3.23)">
                            <path id="Path_581" d="M1645 1189.623a.109.109 0 1 0 0-.218.109.109 0 1 0 0 .218z" class="cls-20" transform="translate(-1644.886 -1189.405)"/>
                        </g>
                        <g id="Group_350" transform="translate(23 4.975)">
                            <path id="Path_582" d="M1639.182 1198.3a.109.109 0 1 0 0-.218.109.109 0 1 0 0 .218z" class="cls-20" transform="translate(-1639.069 -1198.077)"/>
                        </g>
                        <g id="Group_351" transform="translate(26.277 4.266)">
                            <path id="Path_583" d="M1655.469 1194.772a.109.109 0 1 0 0-.218.109.109 0 1 0 0 .218z" class="cls-20" transform="translate(-1655.356 -1194.554)"/>
                        </g>
                        <g id="Group_352" transform="translate(1.287 3.993)">
                            <path id="Path_584" d="M1531.281 1193.417a.109.109 0 1 0 0-.218.109.109 0 1 0 0 .218z" class="cls-20" transform="translate(-1531.168 -1193.199)"/>
                        </g>
                        <g id="Group_353" transform="translate(0 3.339)">
                            <path id="Path_585" d="M1524.883 1190.165a.109.109 0 1 0 0-.218.109.109 0 1 0 0 .218z" class="cls-20" transform="translate(-1524.77 -1189.947)"/>
                        </g>
                        <g id="Group_354" transform="translate(26.804 1.431)">
                            <path id="Path_586" d="M1658.087 1180.681a.109.109 0 1 0 0-.218.109.109 0 1 0 0 .218z" class="cls-20" transform="translate(-1657.974 -1180.463)"/>
                        </g>
                        <g id="Group_355" transform="translate(15.112 1.695)">
                            <path id="Path_587" d="M1599.982 1181.993a.109.109 0 1 0 0-.218.109.109 0 1 0 0 .218z" class="cls-20" transform="translate(-1599.869 -1181.775)"/>
                        </g>
                        <g id="Group_356" transform="translate(2.964 4.866)">
                            <path id="Path_588" d="M1539.8 1198.189s.4-.654 0-.654a.328.328 0 0 0 0 .654z" class="cls-20" transform="translate(-1539.5 -1197.535)"/>
                        </g>
                        <g id="Group_357" transform="translate(6.133 3.503)">
                            <path id="Path_589" d="M1555.4 1191.415s.6-.655 0-.655c-.2 0-.2.655 0 .655z" class="cls-20" transform="translate(-1555.25 -1190.76)"/>
                        </g>
                        <g id="Group_358" transform="translate(1.555 2.957)">
                            <path id="Path_590" d="M1532.8 1188.7s.6-.654 0-.654a.328.328 0 0 0 0 .654z" class="cls-20" transform="translate(-1532.5 -1188.05)"/>
                        </g>
                        <g id="Group_359" transform="translate(18.509 3.176)">
                            <path id="Path_591" d="M1617.2 1189.789s.6-.654 0-.654-.6.654 0 .654z" class="cls-20" transform="translate(-1616.75 -1189.134)"/>
                        </g>
                        <g id="Group_360" transform="translate(21.929 3.448)">
                            <path id="Path_592" d="M1634.2 1191.143s.6-.654 0-.654-.6.654 0 .654z" class="cls-20" transform="translate(-1633.75 -1190.489)"/>
                        </g>
                        <g id="Group_361" transform="translate(19.867 4.975)">
                            <path id="Path_593" d="M1623.8 1198.731s.4-.654 0-.654a.328.328 0 0 0 0 .654z" class="cls-20" transform="translate(-1623.5 -1198.077)"/>
                        </g>
                        <g id="Group_362" transform="translate(24.897 1.703)">
                            <path id="Path_594" d="M1648.8 1182.472s.6-.654 0-.654a.328.328 0 0 0 0 .654z" class="cls-20" transform="translate(-1648.5 -1181.818)"/>
                        </g>
                        <g id="Group_363" transform="translate(24.797 5.03)">
                            <path id="Path_595" d="M1648 1199s.4-.654 0-.654v.654z" class="cls-20" transform="translate(-1648 -1198.348)"/>
                        </g>
                        <g id="Group_364" transform="translate(9.554 2.303)">
                            <path id="Path_596" d="M1572.4 1185.453s.4-.654 0-.654c-.2 0-.2.654 0 .654z" class="cls-20" transform="translate(-1572.25 -1184.799)"/>
                        </g>
                        <g id="Group_365" transform="translate(5.228 5.193)">
                            <path id="Path_597" d="M1551.2 1199.816s.4-.654 0-.654c-.6 0-.6.654 0 .654z" class="cls-20" transform="translate(-1550.75 -1199.161)"/>
                        </g>
                        <g id="Group_366" transform="translate(9.554 3.515)">
                            <path id="Path_598" d="M1572.4 1191.259s.2-.436 0-.436-.2.436 0 .436z" class="cls-20" transform="translate(-1572.25 -1190.823)"/>
                        </g>
                        <g id="Group_367" transform="translate(12.975 1.104)">
                            <path id="Path_599" d="M1589.4 1179.273s.4-.436 0-.436c-.2 0-.2.436 0 .436z" class="cls-20" transform="translate(-1589.25 -1178.837)"/>
                        </g>
                        <g id="Group_368" transform="translate(7.743 3.448)">
                            <path id="Path_600" d="M1563.4 1190.926s.2-.436 0-.436-.2.436 0 .436z" class="cls-20" transform="translate(-1563.25 -1190.489)"/>
                        </g>
                        <g id="Group_369" transform="translate(8.447 5.193)">
                            <path id="Path_601" d="M1567.2 1199.6s.4-.436 0-.436c-.6 0-.6.436 0 .436z" class="cls-20" transform="translate(-1566.75 -1199.161)"/>
                        </g>
                        <g id="Group_370" transform="translate(4.373 4.375)">
                            <path id="Path_602" d="M1546.8 1195.532s.2-.436 0-.436c-.4 0-.4.436 0 .436z" class="cls-20" transform="translate(-1546.5 -1195.096)"/>
                        </g>
                        <g id="Group_371" transform="translate(1.153 5.193)">
                            <path id="Path_603" d="M1530.8 1199.6v-.436c-.4 0-.4.436 0 .436z" class="cls-20" transform="translate(-1530.5 -1199.161)"/>
                        </g>
                        <g id="Group_372" transform="translate(18.005 4.321)">
                            <path id="Path_604" d="M1614.4 1195.261s.2-.436 0-.436-.2.436 0 .436z" class="cls-20" transform="translate(-1614.25 -1194.825)"/>
                        </g>
                        <g id="Group_373" transform="translate(7.139 6.556)">
                            <path id="Path_605" d="M1560.4 1206.372s.2-.436 0-.436-.2.436 0 .436z" class="cls-20" transform="translate(-1560.25 -1205.936)"/>
                        </g>
                        <g id="Group_374" transform="translate(12.774)">
                            <path id="Path_606" d="M1588.4 1173.789s.4-.436 0-.436c-.2 0-.2.436 0 .436z" class="cls-20" transform="translate(-1588.25 -1173.353)"/>
                        </g>
                        <g id="Group_375" transform="translate(17.804 1.628)">
                            <path id="Path_607" d="M1613.4 1181.879s.2-.436 0-.436-.2.436 0 .436z" class="cls-20" transform="translate(-1613.25 -1181.443)"/>
                        </g>
                        <g id="Group_376" transform="translate(24.495 4.157)">
                            <path id="Path_608" d="M1646.8 1194.448s.2-.436 0-.436c-.4 0-.4.436 0 .436z" class="cls-20" transform="translate(-1646.5 -1194.012)"/>
                        </g>
                        <g id="Group_377" transform="translate(25.149 3.23)">
                            <path id="Path_609" d="M1650.2 1189.841s.2-.436 0-.436c-.6 0-.6.436 0 .436z" class="cls-20" transform="translate(-1649.75 -1189.405)"/>
                        </g>
                        <g id="Group_378" transform="translate(21.929 6.447)">
                            <path id="Path_610" d="M1634.2 1205.83s.4-.437 0-.437c-.6 0-.6.437 0 .437z" class="cls-20" transform="translate(-1633.75 -1205.394)"/>
                        </g>
                        <g id="Group_379" transform="translate(20.873 4.212)">
                            <path id="Path_611" d="M1628.8 1194.719s.2-.436 0-.436c-.4 0-.4.436 0 .436z" class="cls-20" transform="translate(-1628.5 -1194.283)"/>
                        </g>
                        <g id="Group_380" transform="translate(26.105 5.957)">
                            <path id="Path_612" d="M1654.8 1203.392s.4-.436 0-.436-.4.436 0 .436z" class="cls-20" transform="translate(-1654.5 -1202.955)"/>
                        </g>
                        <g id="Group_381" transform="translate(2.159 6.72)">
                            <path id="Path_613" d="M1535.8 1207.186s.6-.437 0-.437c-.4 0-.4.437 0 .437z" class="cls-20" transform="translate(-1535.5 -1206.749)"/>
                        </g>
                    </g>
                    <path id="Path_614" d="M1625.2 1210.564a1.6 1.6 0 0 1 .577 1.605c-.224 1.046 1.073-.914-.577-1.605z" class="cls-21" transform="translate(-1595.036 -1179.767)"/>
                </g>
                <g id="Group_385" transform="translate(3.345)">
                    <path id="Path_615" d="M1607.5 1052.3s10.9 9.3 12.533 18.269c.74 4.055-.2 6.8 2.615 3.645s0-7.9 0-7.9-1.467-13.702-15.148-14.014z" class="cls-12" transform="translate(-1584.245 -1051.427)"/>
                    <path id="Path_616" d="M1520.873 1049.532s-12.012 5.432-12.4 17.632c-.132 4.121.86 7.992-1.957 4.838s-.977-8.678-.977-8.678 4.005-13.792 15.334-13.792z" class="cls-12" transform="translate(-1502.328 -1049.219)"/>
                    <path id="Path_617" d="M1507.742 1072c-2.818-3.155-.977-8.678-.977-8.678s3.68-12.637 13.938-13.711l.169-.081c-11.328 0-15.337 13.791-15.337 13.791s-1.84 5.524.977 8.678c1.217 1.363 1.723 1.413 1.916.7a8.614 8.614 0 0 1-.686-.699z" class="cls-17" transform="translate(-1502.328 -1049.219)"/>
                    <path id="Path_618" d="M1532.674 1052.323c.595-1.474.361-3.918-7.377-4.324-11.2-.587-15.254 11.041-15.254 11.041s-4.784 4.084 3.365 3.906c5.328-.116 11.625-4.141 15.348-6.913-3.142 4.989-10.538 6.635-10.538 6.635s1.4-.071 8.309-1.337a9.705 9.705 0 0 0 7.875-7.748 2.956 2.956 0 0 0-1.728-1.26z" class="cls-12" transform="translate(-1505.285 -1047.978)"/>
                    <g id="Group_384" transform="translate(0 .001)">
                        <path id="Path_619" d="M1567.734 1088.013c-.406.3-.848.63-1.311.969-3.057 3.789-8.519 5.333-9.637 5.616l-.11.042c.294-.026 1.384-.144 4.288-.635a19.851 19.851 0 0 0 6.77-5.992z" class="cls-17" transform="translate(-1543.65 -1079.958)"/>
                        <path id="Path_620" d="M1496.855 1062.112a7.981 7.981 0 0 0 2.424-3.448c1.368-3.644 5.044-10.479 13.285-10.047a18.394 18.394 0 0 1 6.068 1.039c-1-.8-2.979-1.46-6.682-1.654-11.2-.587-16.035 11.348-16.035 11.348a3.28 3.28 0 0 1-3.977 2.416c-.001-.959 1.536 2.972 4.917.346z" class="cls-17" transform="translate(-1491.937 -1047.981)"/>
                    </g>
                    <path id="Path_621" d="M1539.276 1058.25s-10.708 2.7-13.5 7.416-4.723 4.756-4.723 4.756 1.243.678 7.421-4.818a46.72 46.72 0 0 1 7.416-5.367z" class="cls-17" transform="translate(-1515.191 -1056.183)"/>
                </g>
            </g>
        </g>
        <g id="Mask_Group_5" clip-path="url(#clip-path-3)">
            <g id="Group_387" transform="translate(4.491 5.72)">
                <g id="Group_383-2" transform="translate(0 1.919)">
                    <path id="Path_545-2" d="M1535.782 1262.024l-.364-9.2h-9.481l-.367 9.789c-5.928 1.01-10.412 3.2-10.412 6.282 0 3.954 7.221 7.19 15.81 7.19s16.068-3.158 16.068-7.112c0-3.182-5.021-6.016-11.254-6.949z" class="cls-5" transform="translate(-1507.141 -1213.521)"/>
                    <path id="Path_546-2" d="M1486.884 1311.467s12.427 7.37 24.8.025c0 0 11.6 3.909 11.6 11.952l-47.971.036s1.221-7.202 11.571-12.013z" class="cls-6" transform="translate(-1475.314 -1260.366)"/>
                    <path id="Path_547-2" d="M1527.929 1263.288l-.052-9.812-.288-.655-.366 9.789c-4.872.83-8.762 2.46-10 4.723 1.989-1.912 6.336-3.3 10.706-4.045z" class="cls-7" transform="translate(-1508.792 -1213.521)"/>
                    <path id="Path_548-2" d="M1578.565 1251.377l-.364-11.771s-.648.238-1.513.485h-8.616l.043 2.034a3.046 3.046 0 0 0 .848 1.841 10.266 10.266 0 0 0 4.683 2.2c2.506-.322 3.2 2.367 3.443 4.254.285 2.178 2.361 2.245 3.565 2.536 8.109 1.958 8.648 5.718 8.648 5.458-.002-3.692-6.011-6.062-10.737-7.037z" class="cls-8" transform="translate(-1549.407 -1202.965)"/>
                    <path id="Path_549-2" d="M1531.146 1057.516c-7.1 0-15.893 6.523-15.893 14.782 0 5.1 1.247 16.716 4.239 20.556 2.281 2.928 9.48 6.881 12.192 6.881 2.8 0 10.1-3.842 12.446-6.881 3.6-4.671 2.91-15.552 2.91-20.556-.001-8.259-8.799-14.782-15.894-14.782z" class="cls-5" transform="translate(-1507.216 -1057.516)"/>
                    <path id="Path_550-2" d="M1530.037 1187.012c-2.707-.163-9.656-4.541-11.757-7.6-2.757-4.014-2.935-9.459-3.782-11.392-2.048-4.674.85 8.469 3.842 12.31 2.281 2.928 9.48 6.881 12.192 6.881 1.36 0 3.785-.909 6.188-2.192-2.598 1.234-5.257 2.081-6.683 1.993z" class="cls-7" transform="translate(-1506.064 -1144.992)"/>
                    <path id="Path_551-2" d="M1603.544 1072.3c0-8.26-8.8-14.782-15.893-14.782a12.556 12.556 0 0 0-1.659.113c6.589.639 14.01 5.874 14.729 13.137.493 4.979 2.256 15.739-.871 20.743-2.035 3.256-8.924 7.8-11.707 8.074a5.584 5.584 0 0 1-1.393-.084 5.714 5.714 0 0 0 1.438.237c2.8 0 10.1-3.842 12.445-6.881 3.606-4.673 2.911-15.557 2.911-20.557z" class="cls-8" transform="translate(-1563.721 -1057.516)"/>
                    <g id="Group_332-2" transform="translate(.992 51.101)">
                        <path id="Path_552-2" d="M1515.767 1324.447c5.324.03 7.188-4 7.673-8.267a27.981 27.981 0 0 1-2.812-1.107c.095 7.666-4.861 9.374-4.861 9.374z" class="cls-9" transform="translate(-1508.62 -1314.348)"/>
                        <path id="Path_553-2" d="M1482.55 1321.71s3.677 0 8.038-4.946a7.355 7.355 0 0 0 1.523-4.638c-.828-.387-1.287-.659-1.287-.659-6.369 2.96-9.28 6.826-10.578 9.361a3.128 3.128 0 0 0 2.304.882z" class="cls-9" transform="translate(-1480.246 -1311.467)"/>
                    </g>
                    <path id="Path_554-2" d="M1641.56 1311.591a22.066 22.066 0 0 1-3.817 1.959c-.756 5.272.286 10.1 7.184 8.986 0 0-.067-.093-.182-.274a8.519 8.519 0 0 0 2.4.763 22.525 22.525 0 0 0 5.563-.536c-1.336-7.328-11.148-10.898-11.148-10.898z" class="cls-9" transform="translate(-1604.891 -1260.465)"/>
                    <path id="Path_555-2" d="M1567.381 1212.493s.717 5.476 5.9 5.478c4.207 0 5.2-5.364 5.2-5.364-3.975-1.062-6.481-1.062-11.1-.114z" class="cls-10" transform="translate(-1548.855 -1180.751)"/>
                    <g id="Group_334-2" transform="translate(18.526 30.976)">
                        <g id="Group_333-2" class="cls-11">
                            <path id="Path_556-2" d="M1567.381 1212.161s1.489 4.639 6.006 4.447c3.375-.142 5.1-4.332 5.1-4.332-3.981-1.076-6.487-1.076-11.106-.115z" class="cls-12" transform="translate(-1567.381 -1211.457)"/>
                            <path id="Path_557-2" d="M1586.809 1228.351c0-.745-1.36-1.349-3.038-1.349s-3.038.6-3.038 1.349 1.36 1.349 3.038 1.349 3.038-.6 3.038-1.349z" class="cls-13" transform="translate(-1578.045 -1223.874)"/>
                            <path id="Path_558-2" d="M1567.381 1210.71l1 1.336a.837.837 0 0 0 .556.328 26.847 26.847 0 0 0 8.157-.115.656.656 0 0 0 .512-.532l.18-1.016s-9.078-.425-10.405-.001z" class="cls-14" transform="translate(-1567.381 -1210.71)"/>
                        </g>
                    </g>
                    <g id="Group_335-2" transform="translate(11.901 13.565)">
                        <path id="Path_560-2" d="M1534.457 1127.927a12.59 12.59 0 0 1 7.2-1.648c.388.029.7-.884.329-.994-5.379-1.585-7.529 2.642-7.529 2.642z" class="cls-12" transform="translate(-1534.457 -1124.929)"/>
                    </g>
                    <g id="Group_336-2" transform="translate(28.057 13.662)">
                        <path id="Path_561-2" d="M1615.146 1126.755a15.206 15.206 0 0 1 7.539 2.046s-2.1-4.187-7.7-3.257c-.41.069-.258 1.237.161 1.211z" class="cls-12" transform="translate(-1614.745 -1125.41)"/>
                    </g>
                    <g id="Group_337-2" transform="translate(22.614 26.115)">
                        <path id="Path_562-2" d="M1589.3 1187.3c-.888 0-1.608.321-1.608.717s.72.717 1.608.717 1.609-.321 1.609-.717-.716-.717-1.609-.717z" class="cls-8" transform="translate(-1587.696 -1187.296)"/>
                    </g>
                    <g id="Group_338-2" transform="translate(22.082 26.432)">
                        <path id="Path_563-2" d="M1585.961 1188.976c-.388-.172-.783-.127-.884.1s.133.55.521.721.784.127.884-.1-.133-.549-.521-.721z" class="cls-15" transform="translate(-1585.054 -1188.872)"/>
                    </g>
                    <g id="Group_339-2" transform="translate(24.975 26.415)">
                        <path id="Path_564-2" d="M1599.937 1188.92c-.377.194-.59.531-.477.751s.511.241.888.047.59-.531.477-.751-.512-.242-.888-.047z" class="cls-15" transform="translate(-1599.429 -1188.787)"/>
                    </g>
                    <g id="Group_340-2" transform="translate(23.307 27.219)">
                        <path id="Path_565-2" d="M1591.141 1192.782a1.079 1.079 0 0 0 1.795 0 2 2 0 0 1-1.795 0z" class="cls-15" transform="translate(-1591.141 -1192.782)"/>
                    </g>
                    <g id="Group_341-2" transform="translate(24.708 21.636)">
                        <path id="Path_566-2" d="M1599.346 1165.609c.444-1.985-3.463 1.747.677 3.177a3.615 3.615 0 0 1-.677-3.177z" class="cls-8" transform="translate(-1598.102 -1165.04)"/>
                    </g>
                    <path id="Path_567-2" d="M1628.389 1178.689a4.741 4.741 0 0 1-2.887 5.563c-2.488.856-6.1.094-6.69-1.637s.336-2.288 4.338-3.356c2.542-.678 4.644-2.3 5.239-.57z" class="cls-16" transform="translate(-1589.805 -1153.689)"/>
                    <path id="Path_568-2" d="M1546.706 1152.964c-1.8 0-3.629 1.378-3.258 2.984.364 1.574.929 2.984 3.258 2.984a3.019 3.019 0 0 0 3.258-2.984c.186-1.638-1.459-2.984-3.258-2.984z" class="cls-14" transform="translate(-1529.699 -1133.758)"/>
                    <ellipse id="Ellipse_21-2" cx="1.931" cy="2.165" class="cls-17" rx="1.931" ry="2.165" transform="translate(15.153 19.872)"/>
                    <ellipse id="Ellipse_22-2" cx=".46" cy=".702" class="cls-14" rx=".46" ry=".702" transform="translate(17.588 21.123)"/>
                    <path id="Path_569-2" d="M1539.107 1149.039a3.433 3.433 0 0 0-3.423 3.159l-1.674.845 1.943-.323a3.138 3.138 0 0 1 3.253-2.891 3.264 3.264 0 0 1 3.012 1.859l.135.363.608.023-.453-.382a3.35 3.35 0 0 0-3.401-2.653z" class="cls-18" transform="translate(-1522.199 -1130.622)"/>
                    <path id="Path_570-2" d="M1616.439 1152.964c-1.8 0-3.444 1.346-3.258 2.984a3.018 3.018 0 0 0 3.258 2.984c2.329 0 2.894-1.41 3.258-2.984.371-1.606-1.459-2.984-3.258-2.984z" class="cls-14" transform="translate(-1585.427 -1133.758)"/>
                    <ellipse id="Ellipse_23-2" cx="1.931" cy="2.165" class="cls-17" rx="1.931" ry="2.165" transform="translate(29.004 19.872)"/>
                    <path id="Path_571-2" d="M1632.016 1162.487c-.254 0-.46.314-.46.7s.206.7.46.7.46-.314.46-.7-.205-.7-.46-.7z" class="cls-14" transform="translate(-1600.117 -1141.365)"/>
                    <path id="Path_572-2" d="M1614.619 1149.039a3.35 3.35 0 0 0-3.4 2.653l-.453.382.609-.023.135-.363a3.264 3.264 0 0 1 3.012-1.859 3.137 3.137 0 0 1 3.252 2.891l1.943.323-1.675-.845a3.432 3.432 0 0 0-3.423-3.159z" class="cls-18" transform="translate(-1583.509 -1130.622)"/>
                    <ellipse id="Ellipse_24-2" cx="2.092" cy="4.278" class="cls-5" rx="2.092" ry="4.278" transform="rotate(-26.573 47.737 2.221)"/>
                    <path id="Path_573-2" d="M1505.9 1166.813c-.629.333-.606 1.655.052 2.953s1.7 2.081 2.331 1.748-1.756-5.034-2.383-4.701z" class="cls-8" transform="translate(-1499.379 -1144.807)"/>
                    <g id="Group_342-2" transform="translate(37.171 19.568)">
                        <ellipse id="Ellipse_25-2" cx="4.281" cy="2.09" class="cls-8" rx="4.281" ry="2.09" transform="rotate(-65.811 6.035 3.905)"/>
                    </g>
                    <path id="Path_574-2" d="M1522.452 1181.068a4.741 4.741 0 0 0 2.888 5.563c2.488.856 6.095.093 6.691-1.636s-.336-2.288-4.338-3.356c-2.544-.679-4.646-2.301-5.241-.571z" class="cls-16" transform="translate(-1512.832 -1155.59)"/>
                    <g id="Group_343-2" transform="translate(39.51 21.527)">
                        <path id="Path_575-2" d="M1673.194 1164.5c.685.187.94 1.484.569 2.9s-1.225 2.405-1.909 2.218.656-5.302 1.34-5.118z" class="cls-19" transform="translate(-1671.665 -1164.498)"/>
                    </g>
                    <g id="Group_382-2" transform="translate(9.952 23.309)">
                        <g id="Group_344-2" transform="translate(3.628 3.775)">
                            <path id="Path_576-2" d="M1542.915 1192.333a.109.109 0 1 0 0-.218.109.109 0 1 0 0 .218z" class="cls-20" transform="translate(-1542.802 -1192.115)"/>
                        </g>
                        <g id="Group_345-2" transform="translate(7.315 4.43)">
                            <path id="Path_577-2" d="M1561.238 1195.585a.109.109 0 1 0 0-.218.109.109 0 1 0 0 .218z" class="cls-20" transform="translate(-1561.125 -1195.367)"/>
                        </g>
                        <g id="Group_346-2" transform="translate(4.331 6.502)">
                            <path id="Path_578-2" d="M1546.4 1205.883a.109.109 0 1 0 0-.218.109.109 0 1 0 0 .218z" class="cls-20" transform="translate(-1546.292 -1205.665)"/>
                        </g>
                        <g id="Group_347-2" transform="translate(11.529 1.54)">
                            <path id="Path_579-2" d="M1582.178 1181.222a.109.109 0 1 0 0-.218.109.109 0 1 0 0 .218z" class="cls-20" transform="translate(-1582.065 -1181.004)"/>
                        </g>
                        <g id="Group_348-2" transform="translate(20.191 4.048)">
                            <path id="Path_580-2" d="M1625.222 1193.688a.109.109 0 1 0 0-.218.109.109 0 1 0 0 .218z" class="cls-20" transform="translate(-1625.109 -1193.47)"/>
                        </g>
                        <g id="Group_349-2" transform="translate(24.17 3.23)">
                            <path id="Path_581-2" d="M1645 1189.623a.109.109 0 1 0 0-.218.109.109 0 1 0 0 .218z" class="cls-20" transform="translate(-1644.886 -1189.405)"/>
                        </g>
                        <g id="Group_350-2" transform="translate(23 4.975)">
                            <path id="Path_582-2" d="M1639.182 1198.3a.109.109 0 1 0 0-.218.109.109 0 1 0 0 .218z" class="cls-20" transform="translate(-1639.069 -1198.077)"/>
                        </g>
                        <g id="Group_351-2" transform="translate(26.277 4.266)">
                            <path id="Path_583-2" d="M1655.469 1194.772a.109.109 0 1 0 0-.218.109.109 0 1 0 0 .218z" class="cls-20" transform="translate(-1655.356 -1194.554)"/>
                        </g>
                        <g id="Group_352-2" transform="translate(1.287 3.993)">
                            <path id="Path_584-2" d="M1531.281 1193.417a.109.109 0 1 0 0-.218.109.109 0 1 0 0 .218z" class="cls-20" transform="translate(-1531.168 -1193.199)"/>
                        </g>
                        <g id="Group_353-2" transform="translate(0 3.339)">
                            <path id="Path_585-2" d="M1524.883 1190.165a.109.109 0 1 0 0-.218.109.109 0 1 0 0 .218z" class="cls-20" transform="translate(-1524.77 -1189.947)"/>
                        </g>
                        <g id="Group_354-2" transform="translate(26.804 1.431)">
                            <path id="Path_586-2" d="M1658.087 1180.681a.109.109 0 1 0 0-.218.109.109 0 1 0 0 .218z" class="cls-20" transform="translate(-1657.974 -1180.463)"/>
                        </g>
                        <g id="Group_355-2" transform="translate(15.112 1.695)">
                            <path id="Path_587-2" d="M1599.982 1181.993a.109.109 0 1 0 0-.218.109.109 0 1 0 0 .218z" class="cls-20" transform="translate(-1599.869 -1181.775)"/>
                        </g>
                        <g id="Group_356-2" transform="translate(2.964 4.866)">
                            <path id="Path_588-2" d="M1539.8 1198.189s.4-.654 0-.654a.328.328 0 0 0 0 .654z" class="cls-20" transform="translate(-1539.5 -1197.535)"/>
                        </g>
                        <g id="Group_357-2" transform="translate(6.133 3.503)">
                            <path id="Path_589-2" d="M1555.4 1191.415s.6-.655 0-.655c-.2 0-.2.655 0 .655z" class="cls-20" transform="translate(-1555.25 -1190.76)"/>
                        </g>
                        <g id="Group_358-2" transform="translate(1.555 2.957)">
                            <path id="Path_590-2" d="M1532.8 1188.7s.6-.654 0-.654a.328.328 0 0 0 0 .654z" class="cls-20" transform="translate(-1532.5 -1188.05)"/>
                        </g>
                        <g id="Group_359-2" transform="translate(18.509 3.176)">
                            <path id="Path_591-2" d="M1617.2 1189.789s.6-.654 0-.654-.6.654 0 .654z" class="cls-20" transform="translate(-1616.75 -1189.134)"/>
                        </g>
                        <g id="Group_360-2" transform="translate(21.929 3.448)">
                            <path id="Path_592-2" d="M1634.2 1191.143s.6-.654 0-.654-.6.654 0 .654z" class="cls-20" transform="translate(-1633.75 -1190.489)"/>
                        </g>
                        <g id="Group_361-2" transform="translate(19.867 4.975)">
                            <path id="Path_593-2" d="M1623.8 1198.731s.4-.654 0-.654a.328.328 0 0 0 0 .654z" class="cls-20" transform="translate(-1623.5 -1198.077)"/>
                        </g>
                        <g id="Group_362-2" transform="translate(24.897 1.703)">
                            <path id="Path_594-2" d="M1648.8 1182.472s.6-.654 0-.654a.328.328 0 0 0 0 .654z" class="cls-20" transform="translate(-1648.5 -1181.818)"/>
                        </g>
                        <g id="Group_363-2" transform="translate(24.797 5.03)">
                            <path id="Path_595-2" d="M1648 1199s.4-.654 0-.654v.654z" class="cls-20" transform="translate(-1648 -1198.348)"/>
                        </g>
                        <g id="Group_364-2" transform="translate(9.554 2.303)">
                            <path id="Path_596-2" d="M1572.4 1185.453s.4-.654 0-.654c-.2 0-.2.654 0 .654z" class="cls-20" transform="translate(-1572.25 -1184.799)"/>
                        </g>
                        <g id="Group_365-2" transform="translate(5.228 5.193)">
                            <path id="Path_597-2" d="M1551.2 1199.816s.4-.654 0-.654c-.6 0-.6.654 0 .654z" class="cls-20" transform="translate(-1550.75 -1199.161)"/>
                        </g>
                        <g id="Group_366-2" transform="translate(9.554 3.515)">
                            <path id="Path_598-2" d="M1572.4 1191.259s.2-.436 0-.436-.2.436 0 .436z" class="cls-20" transform="translate(-1572.25 -1190.823)"/>
                        </g>
                        <g id="Group_367-2" transform="translate(12.975 1.104)">
                            <path id="Path_599-2" d="M1589.4 1179.273s.4-.436 0-.436c-.2 0-.2.436 0 .436z" class="cls-20" transform="translate(-1589.25 -1178.837)"/>
                        </g>
                        <g id="Group_368-2" transform="translate(7.743 3.448)">
                            <path id="Path_600-2" d="M1563.4 1190.926s.2-.436 0-.436-.2.436 0 .436z" class="cls-20" transform="translate(-1563.25 -1190.489)"/>
                        </g>
                        <g id="Group_369-2" transform="translate(8.447 5.193)">
                            <path id="Path_601-2" d="M1567.2 1199.6s.4-.436 0-.436c-.6 0-.6.436 0 .436z" class="cls-20" transform="translate(-1566.75 -1199.161)"/>
                        </g>
                        <g id="Group_370-2" transform="translate(4.373 4.375)">
                            <path id="Path_602-2" d="M1546.8 1195.532s.2-.436 0-.436c-.4 0-.4.436 0 .436z" class="cls-20" transform="translate(-1546.5 -1195.096)"/>
                        </g>
                        <g id="Group_371-2" transform="translate(1.153 5.193)">
                            <path id="Path_603-2" d="M1530.8 1199.6v-.436c-.4 0-.4.436 0 .436z" class="cls-20" transform="translate(-1530.5 -1199.161)"/>
                        </g>
                        <g id="Group_372-2" transform="translate(18.005 4.321)">
                            <path id="Path_604-2" d="M1614.4 1195.261s.2-.436 0-.436-.2.436 0 .436z" class="cls-20" transform="translate(-1614.25 -1194.825)"/>
                        </g>
                        <g id="Group_373-2" transform="translate(7.139 6.556)">
                            <path id="Path_605-2" d="M1560.4 1206.372s.2-.436 0-.436-.2.436 0 .436z" class="cls-20" transform="translate(-1560.25 -1205.936)"/>
                        </g>
                        <g id="Group_374-2" transform="translate(12.774)">
                            <path id="Path_606-2" d="M1588.4 1173.789s.4-.436 0-.436c-.2 0-.2.436 0 .436z" class="cls-20" transform="translate(-1588.25 -1173.353)"/>
                        </g>
                        <g id="Group_375-2" transform="translate(17.804 1.628)">
                            <path id="Path_607-2" d="M1613.4 1181.879s.2-.436 0-.436-.2.436 0 .436z" class="cls-20" transform="translate(-1613.25 -1181.443)"/>
                        </g>
                        <g id="Group_376-2" transform="translate(24.495 4.157)">
                            <path id="Path_608-2" d="M1646.8 1194.448s.2-.436 0-.436c-.4 0-.4.436 0 .436z" class="cls-20" transform="translate(-1646.5 -1194.012)"/>
                        </g>
                        <g id="Group_377-2" transform="translate(25.149 3.23)">
                            <path id="Path_609-2" d="M1650.2 1189.841s.2-.436 0-.436c-.6 0-.6.436 0 .436z" class="cls-20" transform="translate(-1649.75 -1189.405)"/>
                        </g>
                        <g id="Group_378-2" transform="translate(21.929 6.447)">
                            <path id="Path_610-2" d="M1634.2 1205.83s.4-.437 0-.437c-.6 0-.6.437 0 .437z" class="cls-20" transform="translate(-1633.75 -1205.394)"/>
                        </g>
                        <g id="Group_379-2" transform="translate(20.873 4.212)">
                            <path id="Path_611-2" d="M1628.8 1194.719s.2-.436 0-.436c-.4 0-.4.436 0 .436z" class="cls-20" transform="translate(-1628.5 -1194.283)"/>
                        </g>
                        <g id="Group_380-2" transform="translate(26.105 5.957)">
                            <path id="Path_612-2" d="M1654.8 1203.392s.4-.436 0-.436-.4.436 0 .436z" class="cls-20" transform="translate(-1654.5 -1202.955)"/>
                        </g>
                        <g id="Group_381-2" transform="translate(2.159 6.72)">
                            <path id="Path_613-2" d="M1535.8 1207.186s.6-.437 0-.437c-.4 0-.4.437 0 .437z" class="cls-20" transform="translate(-1535.5 -1206.749)"/>
                        </g>
                    </g>
                    <path id="Path_614-2" d="M1625.2 1210.564a1.6 1.6 0 0 1 .577 1.605c-.224 1.046 1.073-.914-.577-1.605z" class="cls-21" transform="translate(-1595.036 -1179.767)"/>
                </g>
                <g id="Group_385-2" transform="translate(3.345)">
                    <path id="Path_615-2" d="M1607.5 1052.3s10.9 9.3 12.533 18.269c.74 4.055-.2 6.8 2.615 3.645s0-7.9 0-7.9-1.467-13.702-15.148-14.014z" class="cls-12" transform="translate(-1584.245 -1051.427)"/>
                    <path id="Path_616-2" d="M1520.873 1049.532s-12.012 5.432-12.4 17.632c-.132 4.121.86 7.992-1.957 4.838s-.977-8.678-.977-8.678 4.005-13.792 15.334-13.792z" class="cls-12" transform="translate(-1502.328 -1049.219)"/>
                    <path id="Path_617-2" d="M1507.742 1072c-2.818-3.155-.977-8.678-.977-8.678s3.68-12.637 13.938-13.711l.169-.081c-11.328 0-15.337 13.791-15.337 13.791s-1.84 5.524.977 8.678c1.217 1.363 1.723 1.413 1.916.7a8.614 8.614 0 0 1-.686-.699z" class="cls-17" transform="translate(-1502.328 -1049.219)"/>
                    <path id="Path_618-2" d="M1532.674 1052.323c.595-1.474.361-3.918-7.377-4.324-11.2-.587-15.254 11.041-15.254 11.041s-4.784 4.084 3.365 3.906c5.328-.116 11.625-4.141 15.348-6.913-3.142 4.989-10.538 6.635-10.538 6.635s1.4-.071 8.309-1.337a9.705 9.705 0 0 0 7.875-7.748 2.956 2.956 0 0 0-1.728-1.26z" class="cls-12" transform="translate(-1505.285 -1047.978)"/>
                    <g id="Group_384-2" transform="translate(0 .001)">
                        <path id="Path_619-2" d="M1567.734 1088.013c-.406.3-.848.63-1.311.969-3.057 3.789-8.519 5.333-9.637 5.616l-.11.042c.294-.026 1.384-.144 4.288-.635a19.851 19.851 0 0 0 6.77-5.992z" class="cls-17" transform="translate(-1543.65 -1079.958)"/>
                        <path id="Path_620-2" d="M1496.855 1062.112a7.981 7.981 0 0 0 2.424-3.448c1.368-3.644 5.044-10.479 13.285-10.047a18.394 18.394 0 0 1 6.068 1.039c-1-.8-2.979-1.46-6.682-1.654-11.2-.587-16.035 11.348-16.035 11.348a3.28 3.28 0 0 1-3.977 2.416c-.001-.959 1.536 2.972 4.917.346z" class="cls-17" transform="translate(-1491.937 -1047.981)"/>
                    </g>
                    <path id="Path_621-2" d="M1539.276 1058.25s-10.708 2.7-13.5 7.416-4.723 4.756-4.723 4.756 1.243.678 7.421-4.818a46.72 46.72 0 0 1 7.416-5.367z" class="cls-17" transform="translate(-1515.191 -1056.183)"/>
                </g>
            </g>
        </g>
    </g>
</svg>
