<svg xmlns="http://www.w3.org/2000/svg" width="57.487" height="67.026" viewBox="0 0 57.487 67.026">
    <defs>
        <style>
            .cls-3{fill:#454b54}.cls-4{fill:#f2edaa}
        </style>
    </defs>
    <g id="icons8-light-on" transform="translate(-18.8 -11.3)">
        <g id="Group_435" data-name="Group 435" transform="translate(18.8 17.214)">
            <g id="Group_412" data-name="Group 412" transform="translate(0 3.243)">
                <g id="Group_411" data-name="Group 411">
                    <g id="Group_410" data-name="Group 410">
                        <ellipse id="Ellipse_38" cx="28.744" cy="28.616" fill="rgba(240,80,80,0.4)" data-name="Ellipse 38" rx="28.744" ry="28.616"/>
                    </g>
                </g>
            </g>
            <g id="Group_434" data-name="Group 434" transform="translate(11.973)">
                <g id="Group_433" data-name="Group 433">
                    <g id="Group_432" data-name="Group 432">
                        <g id="Group_415" data-name="Group 415" transform="translate(1.906 12.718)">
                            <g id="Group_414" data-name="Group 414">
                                <g id="Group_413" data-name="Group 413">
                                    <path id="Path_631" fill="#fff" d="M61.34 40.6v1.017H49.449v-.827a11.713 11.713 0 0 1-3.879 8.71 14.6 14.6 0 0 0-4.9 12.146 14.93 14.93 0 0 0 13.866 13.612A14.755 14.755 0 0 0 65.347 49.5a12.144 12.144 0 0 1-4.007-8.9z" data-name="Path 631" transform="translate(-40.626 -40.6)"/>
                                </g>
                            </g>
                        </g>
                        <g id="Group_418" data-name="Group 418" transform="translate(0 10.683)">
                            <g id="Group_417" data-name="Group 417">
                                <g id="Group_416" data-name="Group 416">
                                    <path id="Path_632" d="M54.4 76a6.17 6.17 0 0 1-1.081-.064 16.7 16.7 0 0 1-10.113-29.124 9.755 9.755 0 0 0 3.18-7.313 1.874 1.874 0 0 1 1.908-1.908 1.989 1.989 0 0 1 1.59.827h8.649a1.956 1.956 0 0 1 1.653-1.018 1.874 1.874 0 0 1 1.908 1.908 10.258 10.258 0 0 0 3.434 7.5 16.631 16.631 0 0 1 .7 24.229A16.4 16.4 0 0 1 54.4 76zm-4.389-33.64a13.691 13.691 0 0 1-4.2 7.44 12.645 12.645 0 0 0-4.261 10.62 12.933 12.933 0 0 0 25.821-1.02 13.031 13.031 0 0 0-4.324-9.6 14.234 14.234 0 0 1-4.388-7.44z" class="cls-3" data-name="Path 632" transform="translate(-37.628 -37.4)"/>
                                </g>
                            </g>
                        </g>
                        <g id="Group_425" data-name="Group 425" transform="translate(10.665 12.718)">
                            <g id="Group_421" data-name="Group 421" transform="translate(0 .191)">
                                <g id="Group_420" data-name="Group 420">
                                    <g id="Group_419" data-name="Group 419">
                                        <path id="Path_633" d="M54.464 40.9a3.626 3.626 0 0 1-.064.827h.064z" class="cls-4" data-name="Path 633" transform="translate(-54.4 -40.9)"/>
                                    </g>
                                </g>
                            </g>
                            <g id="Group_424" data-name="Group 424" transform="translate(10.175)">
                                <g id="Group_423" data-name="Group 423">
                                    <g id="Group_422" data-name="Group 422"/>
                                </g>
                            </g>
                        </g>
                        <g id="Group_428" data-name="Group 428" transform="translate(10.729 1.908)">
                            <g id="Group_427" data-name="Group 427">
                                <g id="Group_426" data-name="Group 426">
                                    <path id="Path_635" fill="#c7d7e2" d="M66.392 35.428H54.5v-5.914a5.944 5.944 0 0 1 5.914-5.914 5.944 5.944 0 0 1 5.914 5.914v5.914z" data-name="Path 635" transform="translate(-54.5 -23.6)"/>
                                </g>
                            </g>
                        </g>
                        <g id="Group_431" data-name="Group 431" transform="translate(8.821)">
                            <g id="Group_430" data-name="Group 430">
                                <g id="Group_429" data-name="Group 429">
                                    <path id="Path_636" d="M65.3 36.244H53.408a1.874 1.874 0 0 1-1.908-1.908v-5.914a7.854 7.854 0 0 1 15.707 0v5.914a1.956 1.956 0 0 1-1.907 1.908zm-9.984-3.816h8.076v-4.006a3.99 3.99 0 0 0-4.006-4.006 4.044 4.044 0 0 0-4.07 4.006v4.006z" class="cls-3" data-name="Path 636" transform="translate(-51.5 -20.6)"/>
                                </g>
                            </g>
                        </g>
                    </g>
                </g>
            </g>
        </g>
        <g id="Group_446" data-name="Group 446" transform="translate(18.927 47.929)">
            <g id="Group_437" data-name="Group 437" transform="translate(26.709 23.656)">
                <g id="Group_436" data-name="Group 436">
                    <path id="Path_637" d="M62.908 112.841A1.874 1.874 0 0 1 61 110.933v-2.925a1.908 1.908 0 0 1 3.816 0v2.925a1.874 1.874 0 0 1-1.908 1.908z" class="cls-3" data-name="Path 637" transform="translate(-61 -106.1)"/>
                </g>
            </g>
            <g id="Group_439" data-name="Group 439" transform="translate(43.497 16.725)">
                <g id="Group_438" data-name="Group 438">
                    <path id="Path_638" d="M91.406 101.114a1.83 1.83 0 0 1-1.335-.572l-2.1-2.1a1.889 1.889 0 0 1 2.671-2.671l2.1 2.1a1.908 1.908 0 0 1-1.335 3.243z" class="cls-3" data-name="Path 638" transform="translate(-87.4 -95.2)"/>
                </g>
            </g>
            <g id="Group_441" data-name="Group 441" transform="translate(50.428)">
                <g id="Group_440" data-name="Group 440">
                    <path id="Path_639" d="M103.2 72.716h-2.989a1.908 1.908 0 1 1 0-3.816h2.989a1.908 1.908 0 1 1 0 3.816z" class="cls-3" data-name="Path 639" transform="translate(-98.3 -68.9)"/>
                </g>
            </g>
            <g id="Group_443" data-name="Group 443">
                <g id="Group_442" data-name="Group 442">
                    <path id="Path_640" d="M23.9 72.716h-2.992a1.908 1.908 0 1 1 0-3.816H23.9a1.874 1.874 0 0 1 1.9 1.908 1.913 1.913 0 0 1-1.9 1.908z" class="cls-3" data-name="Path 640" transform="translate(-19 -68.9)"/>
                </g>
            </g>
            <g id="Group_445" data-name="Group 445" transform="translate(7.822 16.725)">
                <g id="Group_444" data-name="Group 444">
                    <path id="Path_641" d="M33.208 101.114a1.908 1.908 0 0 1-1.335-3.243l2.1-2.1a1.889 1.889 0 0 1 2.671 2.671l-2.1 2.1a1.83 1.83 0 0 1-1.336.572z" class="cls-3" data-name="Path 641" transform="translate(-31.3 -95.2)"/>
                </g>
            </g>
        </g>
        <g id="Group_448" data-name="Group 448" transform="translate(45.509 11.3)">
            <g id="Group_447" data-name="Group 447">
                <path id="Path_642" d="M62.708 21.03a1.874 1.874 0 0 1-1.908-1.908v-5.914a1.908 1.908 0 0 1 3.816 0v5.914a1.913 1.913 0 0 1-1.908 1.908z" class="cls-3" data-name="Path 642" transform="translate(-60.8 -11.3)"/>
            </g>
        </g>
    </g>
</svg>
