<svg xmlns="http://www.w3.org/2000/svg" width="55.136" height="55.136" viewBox="0 0 55.136 55.136">
    <path fill="#cee1f2" d="M48.43 225.111a5.109 5.109 0 0 1-3.015.98 5.815 5.815 0 0 1-5.815-5.815v-8.83a5.815 5.815 0 0 1 5.815-5.815 5.109 5.109 0 0 1 3.015.98 5.809 5.809 0 0 0-2.585 4.835v8.83a5.809 5.809 0 0 0 2.585 4.835zm17.015-4.835v-18.845a5.809 5.809 0 0 1 2.585-4.835 5.109 5.109 0 0 0-3.015-.98 5.815 5.815 0 0 0-5.815 5.815v18.845a5.815 5.815 0 0 0 5.815 5.815 5.109 5.109 0 0 0 3.015-.98 5.809 5.809 0 0 1-2.586-4.835zm-39.2 0v-20.461a5.809 5.809 0 0 1 2.585-4.835 5.11 5.11 0 0 0-3.015-.98A5.815 5.815 0 0 0 20 199.815v20.461a5.815 5.815 0 0 0 5.815 5.815 5.109 5.109 0 0 0 3.015-.98 5.809 5.809 0 0 1-2.584-4.835z" transform="translate(-17.846 -173.109)"/>
    <path fill="#3e92ff" d="M7.969 210.4A7.978 7.978 0 0 1 0 202.43v-20.461a7.969 7.969 0 1 1 15.938 0v20.461a7.978 7.978 0 0 1-7.969 7.97zm0-32.091a3.665 3.665 0 0 0-3.661 3.661v20.46a3.661 3.661 0 1 0 7.323 0v-20.461a3.666 3.666 0 0 0-3.662-3.661zm19.6 32.091a7.978 7.978 0 0 1-7.969-7.97v-8.83a7.969 7.969 0 1 1 15.938 0v8.83a7.978 7.978 0 0 1-7.97 7.97zm0-20.461a3.665 3.665 0 0 0-3.661 3.661v8.83a3.661 3.661 0 1 0 7.323 0v-8.83a3.666 3.666 0 0 0-3.663-3.662zm19.6 20.461a7.978 7.978 0 0 1-7.969-7.97v-18.846a7.969 7.969 0 1 1 15.938 0v18.846a7.978 7.978 0 0 1-7.971 7.97zm0-30.476a3.665 3.665 0 0 0-3.661 3.661v18.845a3.661 3.661 0 1 0 7.323 0v-18.846a3.666 3.666 0 0 0-3.664-3.661z" transform="translate(0 -155.262)"/>
    <path fill="#f05050" d="M29.605 26.271a7.507 7.507 0 0 1-4.669-1.62c-.038-.03-13.787-12.517-13.787-12.517a3.223 3.223 0 0 0-4.08.142l-3.4 3.364A2.154 2.154 0 0 1 .64 12.576L4.155 9.1a7.52 7.52 0 0 1 9.717-.308c.038.03 13.786 12.517 13.786 12.517a3.237 3.237 0 0 0 4.355-.412l.041-.044L43.993 8.315a2.154 2.154 0 0 1 3.12 2.97L35.193 23.8a7.532 7.532 0 0 1-5.588 2.471zm25.532-13.995V6.461A6.469 6.469 0 0 0 48.675 0H42.86a2.154 2.154 0 0 0 0 4.308h5.815a2.156 2.156 0 0 1 2.154 2.154v5.815a2.154 2.154 0 0 0 4.308 0z"/>
</svg>
