<svg xmlns="http://www.w3.org/2000/svg" id="line-chart" width="27" height="27" viewBox="0 0 27 27">
    <path id="Path_659" fill="#cee1f2" d="M33.922 209.235a2.5 2.5 0 0 1-1.477.48 2.848 2.848 0 0 1-2.848-2.848v-4.324a2.848 2.848 0 0 1 2.848-2.848 2.5 2.5 0 0 1 1.477.48 2.845 2.845 0 0 0-1.266 2.368v4.324a2.845 2.845 0 0 0 1.266 2.368zm8.332-2.368v-9.229a2.845 2.845 0 0 1 1.266-2.368 2.5 2.5 0 0 0-1.477-.48 2.848 2.848 0 0 0-2.848 2.848v9.229a2.848 2.848 0 0 0 2.848 2.848 2.5 2.5 0 0 0 1.477-.48 2.845 2.845 0 0 1-1.266-2.368zm-19.2 0v-10.02a2.845 2.845 0 0 1 1.266-2.368 2.5 2.5 0 0 0-1.477-.48A2.848 2.848 0 0 0 20 196.848v10.02a2.848 2.848 0 0 0 2.848 2.848 2.5 2.5 0 0 0 1.477-.48 2.845 2.845 0 0 1-1.266-2.369z" data-name="Path 659" transform="translate(-18.945 -183.77)"/>
    <path id="Path_660" fill="#3e92ff" d="M3.9 191.824a3.907 3.907 0 0 1-3.9-3.9V177.9a3.9 3.9 0 1 1 7.8 0v10.02a3.907 3.907 0 0 1-3.9 3.904zm0-15.715a1.8 1.8 0 0 0-1.791 1.791v10.02a1.793 1.793 0 1 0 3.586 0V177.9a1.8 1.8 0 0 0-1.795-1.791zm9.6 15.715a3.907 3.907 0 0 1-3.9-3.9V183.6a3.9 3.9 0 0 1 7.8 0v4.324a3.907 3.907 0 0 1-3.9 3.9zm0-10.02a1.8 1.8 0 0 0-1.793 1.793v4.324a1.793 1.793 0 1 0 3.586 0V183.6a1.8 1.8 0 0 0-1.793-1.8zm9.6 10.02a3.907 3.907 0 0 1-3.9-3.9v-9.229a3.9 3.9 0 0 1 7.8 0v9.229a3.907 3.907 0 0 1-3.9 3.9zm0-14.924a1.8 1.8 0 0 0-1.793 1.793v9.229a1.793 1.793 0 0 0 3.586 0v-9.229A1.8 1.8 0 0 0 23.1 176.9z" data-name="Path 660" transform="translate(0 -164.824)"/>
    <path id="Path_661" fill="#f05050" d="M14.5 12.865a3.676 3.676 0 0 1-2.287-.793c-.019-.015-6.751-6.13-6.751-6.13a1.578 1.578 0 0 0-2 .069L1.8 7.658a1.055 1.055 0 0 1-1.483-1.5s1.709-1.69 1.722-1.7a3.683 3.683 0 0 1 4.758-.151c.019.015 6.751 6.13 6.751 6.13a1.585 1.585 0 0 0 2.132-.2l.02-.022 5.846-6.141a1.055 1.055 0 1 1 1.528 1.454l-5.837 6.131a3.688 3.688 0 0 1-2.737 1.206zM27 6.012V3.164A3.168 3.168 0 0 0 23.836 0h-2.847a1.055 1.055 0 0 0 0 2.109h2.848a1.056 1.056 0 0 1 1.055 1.055v2.848a1.055 1.055 0 0 0 2.109 0z" data-name="Path 661"/>
</svg>
