<svg xmlns="http://www.w3.org/2000/svg" width="60.109" height="47.429" viewBox="0 0 60.109 47.429">
    <g>
        <path fill="#cee1f2" d="M52.111 101.466a7.044 7.044 0 1 1 0-12.2 7.042 7.042 0 0 0 0 12.2zM28.161 105V85.735A11.721 11.721 0 0 1 39.868 74H32.74A11.74 11.74 0 0 0 21 85.74v19.254a11.74 11.74 0 0 0 11.74 11.74h7.128A11.721 11.721 0 0 1 28.161 105z" transform="translate(0 -54) translate(-18.535 -17.652)"/>
        <path fill="#3e92ff" d="M46.021 101.429H14.085A14.1 14.1 0 0 1 0 87.344V68.088A14.1 14.1 0 0 1 14.088 54h31.933a14.1 14.1 0 0 1 14.088 14.088v19.253a14.1 14.1 0 0 1-14.088 14.088zM14.088 58.7A9.4 9.4 0 0 0 4.7 68.088v19.256a9.4 9.4 0 0 0 9.389 9.389h31.932a9.4 9.4 0 0 0 9.392-9.392V68.088a9.4 9.4 0 0 0-9.392-9.388zm15.966 28.407a9.392 9.392 0 1 1 9.392-9.392 9.4 9.4 0 0 1-9.392 9.392zm0-14.088a4.7 4.7 0 1 0 4.7 4.7 4.7 4.7 0 0 0-4.7-4.7z" transform="translate(0 -54)"/>
        <path fill="#f05050" d="M119.977 142.8a6.464 6.464 0 0 1-6.457-6.457 2.348 2.348 0 1 1 4.7 0 1.763 1.763 0 0 0 1.761 1.761 2.348 2.348 0 0 1 0 4.7zM89.8 136.583a2.348 2.348 0 1 0-4.7 0 1.763 1.763 0 0 1-1.761 1.761 2.348 2.348 0 1 0 0 4.7 6.464 6.464 0 0 0 6.461-6.461zm28.416 23.717a1.763 1.763 0 0 1 1.761-1.761 2.348 2.348 0 0 0 0-4.7 6.464 6.464 0 0 0-6.457 6.457 2.348 2.348 0 0 0 4.7 0zm-28.416-.237a6.464 6.464 0 0 0-6.457-6.457 2.348 2.348 0 1 0 0 4.7 1.763 1.763 0 0 1 1.761 1.761 2.348 2.348 0 1 0 4.7 0z" transform="translate(0 -54) translate(-71.491 -70.608)"/>
    </g>
</svg>
