<svg xmlns="http://www.w3.org/2000/svg" id="monocle" width="27.8" height="27.8" viewBox="0 0 27.8 27.8">
    <path id="Path_662" fill="#cee1f2" d="M23.258 32.814A12.817 12.817 0 0 1 34.443 20.1a12.814 12.814 0 1 0 0 25.423 12.817 12.817 0 0 1-11.185-12.709z" data-name="Path 662" transform="translate(-18.914 -18.914)"/>
    <path id="Path_663" fill="#3e92ff" d="M13.9 27.8A13.9 13.9 0 0 1 4.071 4.071a13.906 13.906 0 0 1 16.908-2.136 13.974 13.974 0 0 1 5 5.073 1.086 1.086 0 1 1-1.885 1.078 11.73 11.73 0 1 0-2.375 14.561 1.086 1.086 0 0 1 1.447 1.619A13.877 13.877 0 0 1 13.9 27.8zm3.134-9.517a1.086 1.086 0 0 0-1.466-.459 4.021 4.021 0 0 1-1.831.419 4.858 4.858 0 0 1-3.646-2.1 1.085 1.085 0 1 0-1.831 1.165 7 7 0 0 0 5.476 3.11 6.139 6.139 0 0 0 2.838-.667 1.086 1.086 0 0 0 .46-1.467z" data-name="Path 663"/>
    <path id="Path_664" fill="#f05050" d="M145.715 118.181a1.357 1.357 0 1 1-1.357-1.357 1.357 1.357 0 0 1 1.357 1.357zm15.963 14.719a1.357 1.357 0 1 0 1.357 1.357 1.357 1.357 0 0 0-1.357-1.357zm0-4.072a1.357 1.357 0 1 0 1.357 1.357 1.357 1.357 0 0 0-1.357-1.362zm0-4.235a1.357 1.357 0 1 0 1.357 1.357 1.357 1.357 0 0 0-1.357-1.362zm-3.693-4.23a5.077 5.077 0 1 1 .077-2.22 6.516 6.516 0 0 1 1.989.773 6.825 6.825 0 0 1 2.472 2.66 1.086 1.086 0 1 1-1.907 1.039 4.308 4.308 0 0 0-2.631-2.257zm-2.008-1.282a2.9 2.9 0 1 0-2.9 2.9 2.908 2.908 0 0 0 2.9-2.904z" data-name="Path 664" transform="translate(-135.235 -107.81)"/>
</svg>
