<svg xmlns="http://www.w3.org/2000/svg" width="427.33" height="460.746" viewBox="0 0 427.33 460.746">
    <defs>
        <style>
            .cls-1{fill:rgba(255,255,255,.7)}.cls-2{fill:#ffc61c}.cls-3{fill:#fff}.cls-4{fill:#1a1a1a}.cls-5{fill:#3a3a3a}.cls-6{fill:#f44}
        </style>
    </defs>
    <g id="Group_1240" transform="translate(-187.67 -3161.759)">
        <path id="Path_678" d="M3035.48 1792.527c24.671 2.65 86.445 16.693 81.675 69.156-4.319 47.5-63.294 38.649-98.837 46.812-60.936 14-64.513 65.864-112.8 49.767-50.244-16.748-65.208-51.345-35.391-81.237s50.39-9.427 56.393-38.8 77.343-49.095 108.96-45.698z" class="cls-1" transform="translate(-2667.194 1428.34)"/>
        <g id="Group_1210" transform="translate(198.592 3161.759)">
            <path id="Path_1331" d="M204.8 43.806s16.916 35.015-1.119 50.476-32.951 3.818-34.146 2.654-9.835-3.713-20.32-30.536c0 0 12.378-1.088 29.523-8.4S204.8 43.806 204.8 43.806z" class="cls-2" transform="translate(-13.974 -33.85)"/>
            <path id="Path_1332" d="M245.709 127.925s-5.353-6.611-7.567-12.393-4.88-17.675-4.88-17.675l-25.723 11.432s-2.88 10.324 8.686 26.263 12.075 14.962 12.075 14.962l12.07-5.333z" class="cls-3" transform="translate(-196.834 51.078)"/>
            <g id="Group_1126" transform="translate(184.485 15.278)">
                <path id="Path_1333" d="M157.037 45.876l-5.2 2.88s.753 1.5 1.712 4.037l5.073-2.659q-.675-2.098-1.585-4.258z" class="cls-3" transform="translate(-151.84 -45.876)"/>
                <path id="Path_1334" d="M152.227 83.957s9.588-12.486 3.6-35.111L150.7 50.69c2.584 7.81 6.723 20.968 1.527 33.267z" class="cls-3" transform="translate(-148.077 -41.209)"/>
            </g>
            <path id="Path_1335" d="M213.632 84.971l.265 10.864s-.327 12.679-9.768 13.905l.082 5.186a16.741 16.741 0 0 1-11.679.761s2.744-5.886.188-11.221a34.679 34.679 0 0 0-5.135-8.1s-6.127 3.237-7.056-4.255 6.372-5.952 6.372-5.952l1.543 1.4s12.543 1.188 18.472-14.193c-.001-.002 5.304.389 6.716 11.605z" class="cls-3" transform="translate(-96.184 12.593)"/>
            <path id="Path_1336" d="M225.529 124.537l-.062 6.32s-.105 3.361 2.1 3.97 5.436 1.43 5.1 2.947c-.6 2.726-4.759 1.856-6.125 1.2a32.212 32.212 0 0 1-3.759-2.438s-.843 6.675-2.255 8.652-3.667.987-4.471-.2a4.32 4.32 0 0 1-3.1.9 3.766 3.766 0 0 1-2.533-1.928 2.787 2.787 0 0 1-2.3 1.191c-1.345-.165-2.132-2.278-2.132-2.278s.051-8.148.625-10.738 1.072-2.026 1.072-2.026l3.438-.5 1.772-6.312z" class="cls-3" transform="translate(-180.632 91.045)"/>
            <path id="Path_1337" d="M209.35 114.2l49.414 17.356s.262 12.381-3.62 19.4l-93.812-.162s-.458-20.236 9.653-32.442c0 0 14.453.869 21.835.1s13.712-1.775 16.53-4.252z" class="cls-4" transform="translate(-91.895 76.751)"/>
            <path id="Path_1338" d="M199.39 91.393s11.095-.769 16.315-15.119c0 0 6.937-.028 8.9 11.818 0 0-.039-6.333-6.027-13.491a9.981 9.981 0 0 0-2.751-2.432c-3.962-1.687-7.976-1.5-16.641-.388-7.421.951-13.273 5.413-14.129 12.779l4.525 25.677s.054 1.118-4.127 4.05-6.906 6.706-3.088 12.612l4.875-2.638s9.311 5.006 13.756-5.538c0 0 2.355-4.381-.111-10.342s-4.8-7.493-4.8-7.493a3.836 3.836 0 0 1-3.073-1.062c-.977-.951-1.622-2.15-1.594-5.153.036-3.718 2.245-4.862 3.834-4.968a4.811 4.811 0 0 1 4.136 1.688z" class="cls-4" transform="translate(-107.131 8.758)"/>
            <path id="Path_1339" d="M187.656 85.495s-.658 3.69-7.359 5.184l.082 5.186s3.019 1.743 3.852 3.937a5.947 5.947 0 0 0 5.3-3.016 10.328 10.328 0 0 0-1.875-11.291z" class="cls-4" transform="translate(-72.353 31.654)"/>
            <path id="Path_1340" d="M160.153 74.941c.252.347-1.36 4.289-1.36 4.289l-3.343 1.607 1.633-5.649h2.988z" class="cls-5" transform="translate(21.807 15.071)"/>
            <path id="Path_1341" d="M312.692 80.9s-13.2 5.024-18.05 2.908l-1.1-2.4s-7.487 13.723-18.06 18.374-15.636 7.436-35.162 4.765c0 0-3.191 3.548-7.637 2.877a8.333 8.333 0 0 1-1.481 3.991s.72 17.562-5.677 18.238-10.313-16.564-10.313-16.564-3.368-2.389-3.623-4.063a17.51 17.51 0 0 1-10.774-.453 79.376 79.376 0 0 0-24.19 18.662c-10.457 12.321-18.161 29.019-20.539 38.808s-4.525 23.712-4.525 23.712l14.556 1.43s7.809-21.326 16.225-35.018c8.75-14.24 16.687-17.881 16.687-17.881s1.908 24.052.795 31.909a98.243 98.243 0 0 0 22.933.435c11.753-1.309 15.4-4.127 15.4-4.127s5.952-10.794 7.979-18.572a93.293 93.293 0 0 0 2.54-14.81s17.539-1.409 32.57-10.226 24.8-22.226 27.893-31.236 3.553-10.759 3.553-10.759z" class="cls-6" transform="translate(-120.707 24.441)"/>
            <path id="Path_1342" d="M141.07 100.192s18.773 7.488 27.7 7.428c0 0 .4 19.477 4.592 27.893 2.438 4.887 11.175 12.387 11.175 12.387s-.183.008-.525 0c-2.43-.049-13.057-.8-25.481-9.814-14.168-10.28-16.145-15.2-16.145-15.2a38.916 38.916 0 0 1-1.316-22.694z" class="cls-3" transform="translate(37.345 54.747)"/>
            <path id="Path_1343" fill="#fff" d="M255.108 77.274l-21.686-22.995s-2.5 13.409-11.614 22.218a90.391 90.391 0 0 1-18.017 13.571l19.32 20.472s11.7-1.869 21.46-16.328 10.537-16.938 10.537-16.938z" opacity="0.71" transform="translate(-197.417 -17.394)"/>
            <g id="Group_1128" transform="translate(123.437 34.155)">
                <g id="Group_1127">
                    <path id="Path_1344" d="M189.7 74.041c-4.453-1.62-9.619-3.607-13.792-6.67a17.127 17.127 0 0 1-2.79-2.448 5.223 5.223 0 0 1-1.453-3.667 1.784 1.784 0 0 1 1.293-1.921c.015-.005.355-.167.37-.172a8.95 8.95 0 0 1 5.338.069c.748.208 2.643.586 2.643.586l-2.6-6.179a11.161 11.161 0 0 0-6.629.162c-.036.015-.676.1-.712.116a7.943 7.943 0 0 0-5.2 7.025 10.979 10.979 0 0 0 2.908 7.693 19.312 19.312 0 0 0 3.438 3.047c6.112 4.487 14.078 7.1 19.156 8.567 1.262.365 3.962.954 5.51 1.273z" class="cls-3" transform="translate(-166.155 -53.217)"/>
                </g>
            </g>
            <g id="Group_1130" transform="translate(191.615 6.664)">
                <g id="Group_1129">
                    <path id="Path_1345" d="M151.036 81.008c.908-1.293 2.576-3.813 3.247-4.945a61.777 61.777 0 0 0 7.565-19.176 19.211 19.211 0 0 0 .417-4.574 10.976 10.976 0 0 0-3.15-7.6 7.943 7.943 0 0 0-8.6-1.556c-.036.015-.563.388-.6.4a11.158 11.158 0 0 0-4.939 4.423l2.335 6.287s1.121-1.576 1.525-2.24a8.96 8.96 0 0 1 3.841-3.708l.386-.129a1.787 1.787 0 0 1 2.26.514 5.236 5.236 0 0 1 1.455 3.667 17.117 17.117 0 0 1-.36 3.695c-.941 5.089-3.155 9.707-5.289 13.939z" class="cls-3" transform="translate(-144.978 -42.526)"/>
                </g>
            </g>
            <path id="Path_1346" d="M179.426 140.346a16.018 16.018 0 0 0-7.282-11.889 69.905 69.905 0 0 0-15.733-7.511s.435 12.039-4.032 19.4z" class="cls-3" transform="translate(10.459 87.357)"/>
            <path id="Path_1347" d="M170.414 88.085s-5.821-7.647-6.575-7.75-6.729 1.512-7.567 1.7a2.664 2.664 0 0 1-2.736-3.24c-1.013-.53-2.2-3.093-2.157-3.656-1.057-.221-1.617-1.952-2.026-2.864a7.53 7.53 0 0 1 2.6-2.247c1.291-.764 5.9-2.533 5.9-2.533s-7.441.255-7.356-3.461c0 0 5.893-1.936 7.156-1.934s4.852 1.949 8.462 7.552 5.382 7.809 5.461 11.859a15.451 15.451 0 0 1-1.162 6.574z" class="cls-3" transform="translate(26.092 -5.102)"/>
            <path id="Path_1348" d="M155.72 70.515s2.263 5.58 1.993 8.6l-.273 3.024h-2.062z" class="cls-3" transform="translate(24.438 8.117)"/>
            <path id="Path_1349" d="M154.051 62.475c.617 1.453 12.005-1.682 25.983-7.6s24.987-11.535 24.373-12.987-12.627 1.8-26.6 7.724-24.37 11.411-23.756 12.863z" class="cls-4" transform="translate(-18.78 -37.406)"/>
            <path id="Path_1350" d="M212.535 40.637s.761 6-29.626 18.313-31.75 6.33-31.75 6.33l2 4.883s2.633 5.585 33.316-7.182c28.97-12.057 28.255-17.544 28.255-17.544z" class="cls-3" transform="translate(-21.712 -38.829)"/>
            <path id="Path_1351" d="M183.419 74.085l2.409 5.392s-6.086 6-19.081 10.776-17.585 5.675-21.681 4.273l-2.337-5.454s7.968 3.353 26.5-6.382c14.607-7.672 14.19-8.605 14.19-8.605z" class="cls-4" transform="translate(28.869 13.726)"/>
            <path id="Path_1352" d="M159.166 74.244s6.806 17.343 15.35 16.847c0 0-9.508 4.963-15.831 6.477s-8.58 2.057-10.606 1.036c0 0 7.433-4.9 7.068-12.363-.545-11.085-7.3-19.562-7.3-19.562l1.4-.332s4.047 8.135 6.032 8.375a9.365 9.365 0 0 0 3.887-.478z" class="cls-3" transform="translate(27.026 1.569)"/>
            <path id="Path_1353" d="M183.451 83.558s.851-1.748 2.072-1.106.941 2.787 2.368 2.867 3.849-1.034 4.425 0-.591 3.926-4.988 3.849c0 0 .841-2.214-.231-3.428a11.39 11.39 0 0 0-3.646-2.182z" class="cls-5" transform="translate(-82.462 26.651)"/>
            <g id="Group_1134" transform="translate(98.151 49.648)">
                <g id="Group_1131" transform="translate(0 6.003)">
                    <path id="Path_1354" d="M190.631 66.423a.384.384 0 0 0 .273-.656l-4.078-4.078a.384.384 0 1 0-.543.543l4.078 4.078a.382.382 0 0 0 .27.113z" class="cls-4" transform="translate(-186.171 -61.577)"/>
                </g>
                <g id="Group_1132" transform="translate(0 6.003)">
                    <path id="Path_1355" d="M186.556 66.423a.382.382 0 0 0 .27-.113l4.078-4.078a.384.384 0 1 0-.543-.543l-4.078 4.078a.384.384 0 0 0 .273.656z" class="cls-4" transform="translate(-186.171 -61.577)"/>
                </g>
                <g id="Group_1133" transform="translate(6.602)">
                    <path id="Path_1356" d="M185.83 62.341a1.549 1.549 0 1 0-1.545-1.548 1.549 1.549 0 0 0 1.545 1.548zm0-2.33a.78.78 0 1 1-.779.782.781.781 0 0 1 .779-.781z" class="cls-4" transform="translate(-184.285 -59.243)"/>
                </g>
            </g>
            <g id="Group_1135" transform="translate(46.836 124.158)">
                <path id="Path_1357" d="M208.357 91.317a1.548 1.548 0 1 0-1.548-1.548 1.549 1.549 0 0 0 1.548 1.548zm0-2.33a.782.782 0 1 1-.782.782.783.783 0 0 1 .782-.782z" class="cls-4" transform="translate(-206.809 -88.221)"/>
            </g>
            <g id="Group_1138" transform="translate(181.586 152.676)">
                <g id="Group_1136">
                    <path id="Path_1358" d="M182.917 147.783a.382.382 0 0 0 .216-.7c-.008-.005-.507-.342-1.309-.975-3.014-2.376-10.236-8.858-12.193-17.706a78.668 78.668 0 0 1-1.741-20.82.382.382 0 0 0-.321-.411c-.183-.028-18.428-2.972-27.942-7.819a.393.393 0 0 0-.339-.005.375.375 0 0 0-.208.267c-.131.6-3.122 14.862 1.355 22.951a23.951 23.951 0 0 0 2.029 3.1c4.127 5.312 9.624 7.138 16.906 5.58.471 2.546 3.857 15.718 23.532 16.538zM167.1 107.874a80.515 80.515 0 0 0 1.779 20.694c2.011 9.089 9.388 15.716 12.468 18.143.1.082.2.162.3.234-19.814-1.43-21.57-16.052-21.586-16.2a.388.388 0 0 0-.157-.273.4.4 0 0 0-.309-.062c-7.151 1.643-12.517-.049-16.528-5.212a23.253 23.253 0 0 1-1.967-3c-3.883-7.022-1.856-19.336-1.37-21.93 8.984 4.395 24.836 7.179 27.37 7.606z" class="cls-4" transform="translate(-137.98 -99.312)"/>
                </g>
                <g id="Group_1137" transform="translate(4.404 25.735)">
                    <path id="Path_1359" d="M177.547 132.108a7.323 7.323 0 0 0 1.023-.054.384.384 0 0 0-.041-.764c-20.992-.874-22.8-15.649-22.869-16.276a.388.388 0 0 0-.157-.273.4.4 0 0 0-.309-.062c-7.151 1.643-12.517-.049-16.528-5.212a.384.384 0 0 0-.615.46c3.888 5.41 9.745 9.28 13.245 11.594 14.456 9.553 23.175 10.587 26.251 10.587zm-22.581-16.59a19.193 19.193 0 0 0 7.318 11.434 89.349 89.349 0 0 1-10.563-6.071 65.825 65.825 0 0 1-8.771-6.629c3.322 1.848 7.303 2.274 12.016 1.266z" class="cls-4" transform="translate(-137.981 -109.321)"/>
                </g>
            </g>
            <g id="Group_1139" transform="translate(0 148.559)">
                <path id="Path_1360" d="M232.548 151.135a.354.354 0 0 0 .154-.033l12.067-5.333a.383.383 0 0 0-.309-.7l-11.82 5.225c-2.263-2.394-24.386-26.271-20.537-40.487l25.08-11.146c.36 2.978 2.612 17.875 12.476 29.747a.384.384 0 1 0 .591-.489c-10.8-13-12.347-29.688-12.363-29.855a.376.376 0 0 0-.188-.3.391.391 0 0 0-.35-.021l-25.725 11.434a.372.372 0 0 0-.211.244c-4.394 15.3 19.824 40.528 20.858 41.6a.384.384 0 0 0 .277.114z" class="cls-4" transform="translate(-210.883 -97.711)"/>
            </g>
            <g id="Group_1140" transform="translate(17.142 32.405)">
                <path id="Path_1361" d="M222.147 110.409c15.728-2.89 27.525-35.81 28.019-37.211a.382.382 0 0 0-.116-.422l-24.267-20.151a.387.387 0 0 0-.4-.057.382.382 0 0 0-.229.329c-1.466 23.854-24.674 38.716-24.908 38.865a.379.379 0 0 0-.177.3.386.386 0 0 0 .139.321l21.694 17.94a.389.389 0 0 0 .245.086zm27.207-37.216c-1.134 3.093-12.658 33.534-27.1 36.422L201.1 92.119c3.214-2.18 23-16.451 24.771-38.427z" class="cls-4" transform="translate(-200.069 -52.537)"/>
            </g>
            <g id="Group_1141" transform="translate(214.752 118.908)">
                <path id="Path_1362" d="M141.484 106.265a.386.386 0 0 0 .237-.08c2.116-1.651 4.849-4.266 5.85-7.364a4.888 4.888 0 0 0-.795-4.811 17.863 17.863 0 0 0-.17-7.521.382.382 0 1 0-.751.147 18.573 18.573 0 0 1 .275 6.739 5.9 5.9 0 0 0-.944-.627 4.367 4.367 0 0 0-3.222-.5 3.675 3.675 0 0 0-2.4 2.571 2.989 2.989 0 0 0 .856 3.2 3.063 3.063 0 0 0 2.949.2 5.375 5.375 0 0 0 3.129-3.3 4.209 4.209 0 0 1 .347 3.672c-.944 2.908-3.564 5.407-5.6 6.991a.387.387 0 0 0-.067.54.392.392 0 0 0 .306.143zm4.438-12.049a4.78 4.78 0 0 1-2.836 3.286 2.318 2.318 0 0 1-2.211-.1 2.261 2.261 0 0 1-.576-2.376 2.947 2.947 0 0 1 1.88-2.044 3.611 3.611 0 0 1 2.646.445 4.842 4.842 0 0 1 1.097.79z" class="cls-4" transform="translate(-139.425 -86.179)"/>
            </g>
            <g id="Group_1142" transform="translate(8.162 103.556)">
                <path id="Path_1363" d="M224.01 99.872a.385.385 0 0 0 .3-.141c.519-.635 1.237-1.514 2.09-2.376a11.2 11.2 0 0 0 3.556 1.016 4.222 4.222 0 0 0 3.448-.836 2.173 2.173 0 0 0-1.334-3.9c-2.16-.175-4.191 1.239-5.809 2.782a9.186 9.186 0 0 1-4.849-5.868 6.387 6.387 0 0 1 .262-3.582c.249.185.5.363.764.53a4.862 4.862 0 0 0 2.51.908 3.059 3.059 0 0 0 2.862-2.08 2.3 2.3 0 0 0-.938-2.687c-1.288-.908-3.106-.388-4.235.594a5.9 5.9 0 0 0-1.25 1.53 31.652 31.652 0 0 1-4.741-5.4.384.384 0 0 0-.615.46 31.66 31.66 0 0 0 5.006 5.649 7.1 7.1 0 0 0-.375 4.24 9.763 9.763 0 0 0 5.022 6.279c-.8.825-1.468 1.648-1.967 2.258a.383.383 0 0 0 .3.625zm7.737-5.482q.135 0 .27.008a1.624 1.624 0 0 1 1.211.591 1.578 1.578 0 0 1-.345 1.98 3.5 3.5 0 0 1-2.849.64 10.189 10.189 0 0 1-3.034-.835c1.384-1.28 3.045-2.384 4.747-2.384zm-6.441-10.462a1.9 1.9 0 0 1 1.121.337 1.532 1.532 0 0 1 .653 1.823 2.3 2.3 0 0 1-2.126 1.548 4.155 4.155 0 0 1-2.1-.784c-.291-.188-.576-.388-.854-.6a5.1 5.1 0 0 1 1.142-1.442 3.479 3.479 0 0 1 2.164-.882z" class="cls-4" transform="translate(-215.952 -80.208)"/>
            </g>
            <g id="Group_1143" transform="translate(69.591 11.636)">
                <path id="Path_1364" d="M200.746 55.545a2.877 2.877 0 0 0 .334-.018A2.179 2.179 0 0 0 203.06 54a3.034 3.034 0 0 0 .018-1.44 7.553 7.553 0 0 0-2.8-4.387 6.356 6.356 0 0 1 5.834-2.921.369.369 0 0 0 .419-.345.387.387 0 0 0-.347-.419 7.1 7.1 0 0 0-6.531 3.232 8.677 8.677 0 0 0-4.762-1.476.407.407 0 0 0-.414.383.384.384 0 0 0 .383.383 8.164 8.164 0 0 1 4.363 1.37 12.211 12.211 0 0 0-1.257 3.065 3.67 3.67 0 0 0 .113 2.682 3.086 3.086 0 0 0 2.667 1.418zm-.9-6.711a6.6 6.6 0 0 1 2.476 3.87 2.229 2.229 0 0 1 0 1.072 1.446 1.446 0 0 1-1.324.987 2.418 2.418 0 0 1-2.252-1.005 2.851 2.851 0 0 1-.046-2.116 11.338 11.338 0 0 1 1.148-2.808z" class="cls-4" transform="translate(-194.474 -44.46)"/>
            </g>
            <g id="Group_1145" transform="translate(100.523 108.721)">
                <g id="Group_1144">
                    <path id="Path_1365" d="M188.622 89.7c2.44 0 4.515-1.766 4.605-3.229a1.816 1.816 0 0 0-.463-1.394 2.508 2.508 0 0 0-2.777-.332 4.151 4.151 0 0 1-1.35.442.951.951 0 0 1-.345-.082c-.327-.116-.478-.172-1.075-1.358a2.558 2.558 0 0 0-2.139-1.53 1.786 1.786 0 0 0-1.455.792 3.251 3.251 0 0 0-.144 2.764 5.32 5.32 0 0 0 5.142 3.926zm2.607-4.456a1.319 1.319 0 0 1 .977.357 1.055 1.055 0 0 1 .255.823c-.051.861-1.589 2.507-3.839 2.507a4.539 4.539 0 0 1-4.41-3.384 2.649 2.649 0 0 1 .031-2.085c.607-.838 1.754-.435 2.288.63.674 1.334.946 1.535 1.5 1.736a1.671 1.671 0 0 0 .6.126 4.472 4.472 0 0 0 1.658-.5 2.321 2.321 0 0 1 .94-.211z" class="cls-4" transform="translate(-183.252 -82.217)"/>
                </g>
            </g>
            <g id="Group_1146" transform="translate(83.887 98.08)">
                <path id="Path_1366" d="M195.08 90.1h.165a4.375 4.375 0 0 0 3-1.394.379.379 0 0 0-.008-.54.385.385 0 0 0-.543.005 3.623 3.623 0 0 1-2.479 1.162c-2.3.082-4.276-2.186-4.392-5.076s1.671-5.315 3.978-5.4a3.738 3.738 0 0 1 3.656 2.345.384.384 0 0 0 .694-.327 4.492 4.492 0 0 0-4.381-2.785c-2.728.108-4.844 2.89-4.713 6.2.127 3.239 2.364 5.81 5.023 5.81z" class="cls-4" transform="translate(-190.05 -78.079)"/>
            </g>
            <g id="Group_1147" transform="translate(87.521 101.134)">
                <path id="Path_1367" d="M191.309 84.716a.388.388 0 0 0 .221-.069l2.666-1.88a.387.387 0 0 0 .051-.584l-2.782-2.8a.384.384 0 0 0-.545.54l2.463 2.481-2.3 1.617a.383.383 0 0 0 .221.7z" class="cls-4" transform="translate(-190.81 -79.267)"/>
            </g>
            <g id="Group_1148" transform="translate(110.379 94.469)">
                <path id="Path_1368" d="M186.187 78.537a.373.373 0 0 0 .255-.1.383.383 0 0 0 .028-.543 4.7 4.7 0 0 0-4.983-.923.384.384 0 0 0 .231.733 3.993 3.993 0 0 1 4.183.7.377.377 0 0 0 .286.133z" class="cls-4" transform="translate(-181.219 -76.674)"/>
            </g>
            <g id="Group_1149" transform="translate(108.312 96.759)">
                <path id="Path_1369" d="M184.661 90.9a.377.377 0 0 0 .257-.1 16.822 16.822 0 0 0 2.124-2.795.384.384 0 0 0-.26-.579l-2.566-.46a30.8 30.8 0 0 1-1.25-9.023.384.384 0 0 0-.769 0 30 30 0 0 0 1.365 9.491.388.388 0 0 0 .293.247l2.227.4a13.358 13.358 0 0 1-1.682 2.155.383.383 0 0 0-.023.543.378.378 0 0 0 .284.121z" class="cls-4" transform="translate(-182.198 -77.565)"/>
            </g>
            <g id="Group_1150" transform="translate(104.437 94.548)">
                <path id="Path_1370" d="M181.352 104.976c3.618 0 6.49-1.064 8.552-3.168 4.839-4.945 4.266-14.571 3.885-20.94-.087-1.478-.165-2.754-.165-3.78a.383.383 0 0 0-.766 0c0 1.049.077 2.335.167 3.823.37 6.235.931 15.659-3.672 20.359-2.039 2.083-4.95 3.073-8.7 2.926a.383.383 0 1 0-.028.766c.244.009.488.014.727.014z" class="cls-4" transform="translate(-180.251 -76.705)"/>
            </g>
            <g id="Group_1151" transform="translate(91.878 85.574)">
                <path id="Path_1371" d="M180.774 88.175c13.394-.967 17.963-12.224 18.657-14.18 4.063.406 6.161 9.832 6.181 9.928a.393.393 0 0 0 .458.3.387.387 0 0 0 .293-.458c-.1-.429-2.348-10.545-7.2-10.545a.383.383 0 0 0-.368.273c-.039.129-4.019 12.908-18.045 13.921a.384.384 0 0 0 .026.766z" class="cls-4" transform="translate(-180.392 -73.215)"/>
            </g>
            <g id="Group_1152" transform="translate(96.055 122.04)">
                <path id="Path_1372" d="M189.474 94.73c5.24 0 6.788-1.566 6.852-1.633a.38.38 0 0 0 .105-.262V87.78a.383.383 0 1 0-.766 0v4.878c-.409.3-2.062 1.306-6.192 1.306a15.974 15.974 0 0 1-4.916-.7.379.379 0 0 0-.481.249.383.383 0 0 0 .249.481 16.682 16.682 0 0 0 5.149.736z" class="cls-4" transform="translate(-184.059 -87.397)"/>
            </g>
            <g id="Group_1153" transform="translate(90.714 127.094)">
                <path id="Path_1373" d="M188.351 100.417a4.89 4.89 0 0 0 1.27-.172c2.749-.748 4.633-3.705 5.3-4.919.931 1.047 3.407 3.571 5.677 3.62a2.837 2.837 0 0 0 2.242-1.021 4.367 4.367 0 0 0 1.221-3.692c-.478-2.81-3.841-4.741-3.985-4.821a.384.384 0 0 0-.378.669c.033.018 3.191 1.833 3.607 4.284a3.641 3.641 0 0 1-1.041 3.055 2 2 0 0 1-1.648.761c-2.453-.051-5.443-3.739-5.474-3.777a.4.4 0 0 0-.342-.139.378.378 0 0 0-.3.216c-.018.041-2.018 4.194-5.081 5.024a4.494 4.494 0 0 1-3.813-.8 5.02 5.02 0 0 1-2.286-3.14.383.383 0 1 0-.751.149 5.757 5.757 0 0 0 2.6 3.625 5.628 5.628 0 0 0 3.182 1.078z" class="cls-4" transform="translate(-182.563 -89.363)"/>
            </g>
            <g id="Group_1154" transform="translate(119.008 105.467)">
                <path id="Path_1374" d="M171.141 105.883c22.807 0 35.262-12.733 41.881-24.358a.384.384 0 1 0-.666-.381c-7.575 13.3-22.918 28.076-53.048 22.913a.376.376 0 0 0-.442.314.382.382 0 0 0 .314.442 70.767 70.767 0 0 0 11.961 1.07z" class="cls-4" transform="translate(-158.86 -80.952)"/>
            </g>
            <g id="Group_1155" transform="translate(176.793 89.873)">
                <path id="Path_1375" d="M155.729 81.547a.382.382 0 0 0 .363-.262 43.246 43.246 0 0 0 1.522-5.572l2.823-.057a.384.384 0 0 0-.008-.769l-3.145.064a.388.388 0 0 0-.373.324 39.581 39.581 0 0 1-1.548 5.767.385.385 0 0 0 .242.486.41.41 0 0 0 .124.019z" class="cls-4" transform="translate(-155.344 -74.887)"/>
            </g>
            <g id="Group_1156" transform="translate(127.591 104.959)">
                <path id="Path_1376" d="M151.8 133.742c15.914-1.8 53.953-10.524 64.384-52.51a.384.384 0 0 0-.28-.465.377.377 0 0 0-.463.28c-10.318 41.521-47.974 50.15-63.685 51.932a.383.383 0 0 0 .044.764z" class="cls-4" transform="translate(-151.413 -80.754)"/>
            </g>
            <g id="Group_1157" transform="translate(116.746 145.471)">
                <path id="Path_1377" d="M176.708 142.369a.386.386 0 0 0 .332-.188c16.608-28.189 9.231-45.277 9.156-45.444a.383.383 0 1 0-.7.314c.075.167 7.269 16.927-9.118 44.743a.38.38 0 0 0 .136.522.348.348 0 0 0 .194.053z" class="cls-4" transform="translate(-176.325 -96.51)"/>
            </g>
            <g id="Group_1158" transform="translate(111.594 114.935)">
                <path id="Path_1378" d="M180.023 101.967c1.836 0 7.655-.478 8.519-6.456.892-6.14-3.988-10.594-4.194-10.779a.383.383 0 1 0-.512.571c.046.044 4.777 4.371 3.95 10.1-.923 6.366-7.945 5.811-8.246 5.785a.383.383 0 0 0-.069.764c.012-.003.215.015.552.015z" class="cls-4" transform="translate(-179.122 -84.634)"/>
            </g>
            <g id="Group_1159" transform="translate(79.726 108.721)">
                <path id="Path_1379" d="M194.853 108.037a10.717 10.717 0 0 0 8.7-3.749c8.187-10.159-3.312-21.843-3.427-21.959a.384.384 0 0 0-.543.543c.113.111 11.126 11.316 3.373 20.933-4.849 6.019-14.291 2.389-14.386 2.35a.39.39 0 0 0-.5.216.386.386 0 0 0 .216.5 20.2 20.2 0 0 0 6.567 1.166z" class="cls-4" transform="translate(-188.047 -82.217)"/>
            </g>
            <g id="Group_1160" transform="translate(72.983 79.428)">
                <path id="Path_1380" d="M182.534 127.434a.362.362 0 0 0 .213-.067.382.382 0 0 0 .105-.532c-4.459-6.626.406-10.252 3.957-12.9 1.836-1.368 3.286-2.448 3.122-3.679-2.039-15.109-4.2-24.388-4.392-25.191a11.73 11.73 0 0 1 5.608-9.516c8.231-5.392 23.548-4.268 27.993-2.618.026.015 6.834 3.762 5.307 16.883a.384.384 0 0 0 .337.427.38.38 0 0 0 .424-.337c1.594-13.684-5.456-17.515-5.76-17.672-4.592-1.707-20.279-2.854-28.723 2.677a12.459 12.459 0 0 0-5.955 10.169c.033.2 2.283 9.586 4.4 25.281.105.784-1.314 1.841-2.818 2.962-3.587 2.672-9 6.708-4.137 13.944a.383.383 0 0 0 .319.169z" class="cls-4" transform="translate(-180.279 -70.825)"/>
            </g>
            <g id="Group_1161" transform="translate(30.102 213.961)">
                <path id="Path_1381" d="M213.893 130.221a.387.387 0 0 0 .37-.278l1.831-6.307a.384.384 0 1 0-.738-.213l-1.831 6.307a.385.385 0 0 0 .262.476.389.389 0 0 0 .106.015z" class="cls-4" transform="translate(-213.51 -123.146)"/>
            </g>
            <g id="Group_1162" transform="translate(30.47 132.633)">
                <path id="Path_1382" d="M209.863 174.9a.381.381 0 0 0 .363-.26c.01-.033 1.162-3.469 3.178-8.521l.846-2.1c5.371-13.059 16.255-35.913 28.775-42.187a.383.383 0 1 0-.345-.684c-12.743 6.384-23.725 29.42-29.14 42.583l-.846 2.1c-1.692 4.235-2.777 7.341-3.1 8.272l-13.864-1.36c.177-1.612.36-3.08.555-4.479.085-.6.172-1.2.262-1.795 7.169-47.442 33.267-66.868 48.183-74.225a.382.382 0 1 0-.337-.687c-15.052 7.423-41.382 27.008-48.6 74.8-.09.594-.183 1.2-.267 1.805-.211 1.517-.406 3.114-.6 4.885a.387.387 0 0 0 .085.283.372.372 0 0 0 .26.141l14.556 1.43z" class="cls-4" transform="translate(-194.922 -91.517)"/>
            </g>
            <g id="Group_1163" transform="translate(78.706 190.564)">
                <path id="Path_1383" d="M227.4 119.46a.383.383 0 0 0 .123-.746c-9.727-3.325-13.79-4.636-13.831-4.649a.386.386 0 0 0-.419.129c-.046.057-5.232 5.9-37.715 4.006a.394.394 0 0 0-.4.36.385.385 0 0 0 .36.406c30.079 1.751 37.006-3.019 38.17-4.1.975.316 5.145 1.684 13.589 4.569a.36.36 0 0 0 .123.025z" class="cls-4" transform="translate(-175.15 -114.047)"/>
            </g>
            <g id="Group_1164" transform="translate(140.213 198.503)">
                <path id="Path_1384" d="M187.838 127.318a.379.379 0 0 0 .357-.247.387.387 0 0 0-.224-.5q-1.685-.633-3.41-1.265c-2.522-.936-5.094-1.869-7.66-2.79q-1.088-.393-2.168-.777l-1.661-.6c-5.047-1.795-6.873-2.44-11.386-3.991a.383.383 0 1 0-.247.725c4.5 1.55 6.333 2.2 11.373 3.988l1.661.6c.723.255 1.442.514 2.168.774 2.564.92 5.132 1.854 7.655 2.79q1.724.629 3.4 1.265a.41.41 0 0 0 .142.028z" class="cls-4" transform="translate(-161.181 -117.135)"/>
            </g>
            <g id="Group_1165" transform="translate(166.485 207.919)">
                <path id="Path_1385" d="M175.629 140.964a.394.394 0 0 0 .381-.435c-1.51-10.929-11.01-14.743-19.39-18.111-1.309-.53-2.6-1.049-3.854-1.589a.384.384 0 0 0-.306.7c1.255.543 2.558 1.065 3.875 1.594 8.585 3.453 17.467 7.022 18.914 17.505a.384.384 0 0 0 .38.336z" class="cls-4" transform="translate(-152.23 -120.797)"/>
            </g>
            <g id="Group_1166" transform="translate(162.865 207.918)">
                <path id="Path_1386" d="M161.536 140.684a.382.382 0 0 0 .35-.231 45 45 0 0 0 3.471-12.861 32.544 32.544 0 0 0 .18-6.449.368.368 0 0 0-.422-.342.384.384 0 0 0-.342.422 32.459 32.459 0 0 1-.18 6.282 44.232 44.232 0 0 1-3.409 12.643.384.384 0 0 0 .2.507.4.4 0 0 0 .152.029z" class="cls-4" transform="translate(-161.151 -120.796)"/>
            </g>
            <g id="Group_1167" transform="translate(69.054 162.22)">
                <path id="Path_1387" d="M195.578 168.728a.384.384 0 0 0 .383-.383 60.5 60.5 0 0 1 3.888-22.126c.324-.815.651-1.584.975-2.3a32.437 32.437 0 0 1 4.69-7.763.378.378 0 0 0 .1-.231 230.76 230.76 0 0 0-.692-32.557.361.361 0 0 0-.419-.342.38.38 0 0 0-.342.419 230.491 230.491 0 0 1 .7 32.3 33.6 33.6 0 0 0-4.734 7.86c-.327.72-.658 1.5-.99 2.332a61.257 61.257 0 0 0-3.939 22.406.382.382 0 0 0 .38.385z" class="cls-4" transform="translate(-195.194 -103.024)"/>
            </g>
            <g id="Group_1168" transform="translate(94.07 135.475)">
                <path id="Path_1388" d="M193.475 111.644c.067 0 .131 0 .2-.005a4.138 4.138 0 0 0 2.944-1.46c3.888-4.281 3.307-16.669 3.281-17.194a.362.362 0 0 0-.4-.363.383.383 0 0 0-.363.4c.005.123.594 12.591-3.083 16.639a3.372 3.372 0 0 1-2.412 1.209c-6.384.255-9.758-16.356-9.791-16.523a.377.377 0 0 0-.45-.3.383.383 0 0 0-.3.45c.135.709 3.488 17.147 10.374 17.147z" class="cls-4" transform="translate(-183.088 -92.622)"/>
            </g>
            <g id="Group_1169" transform="translate(102.617 128.57)">
                <path id="Path_1389" d="M185.921 94.126a.391.391 0 0 0 .339-.2 12.324 12.324 0 0 0 1.283-3.569.383.383 0 1 0-.764-.069 11.852 11.852 0 0 1-1.2 3.276.384.384 0 0 0 .154.519.393.393 0 0 0 .188.043z" class="cls-4" transform="translate(-185.538 -89.937)"/>
            </g>
            <g id="Group_1170" transform="translate(97.427 98.913)">
                <path id="Path_1390" d="M192.209 81.7a.388.388 0 0 0 .149-.031.382.382 0 0 0 .2-.5c-.044-.105-1.118-2.584-3.049-2.759-1.27-.123-2.558.792-3.818 2.7a.383.383 0 0 0 .64.422c1.093-1.651 2.124-2.44 3.109-2.355 1.478.134 2.4 2.273 2.414 2.294a.379.379 0 0 0 .355.229z" class="cls-4" transform="translate(-185.63 -78.403)"/>
            </g>
            <g id="Group_1171" transform="translate(110.956 98.078)">
                <path id="Path_1391" d="M181.277 81.678a.382.382 0 0 0 .363-.262c.229-.687 1.039-2.492 2.018-2.569.612-.041 1.381.687 2.126 2.126a.382.382 0 1 0 .679-.352c-.921-1.787-1.869-2.62-2.864-2.538-1.661.131-2.587 2.79-2.687 3.091a.381.381 0 0 0 .365.5z" class="cls-4" transform="translate(-180.892 -78.078)"/>
            </g>
            <g id="Group_1172" transform="translate(107.844 219.691)">
                <path id="Path_1392" d="M185.368 133.77a.394.394 0 0 0 .378-.453c-.905-4.867-1.63-7.631-1.638-7.657a.384.384 0 0 0-.743.2c.008.028.728 2.767 1.628 7.6a.382.382 0 0 0 .375.31z" class="cls-4" transform="translate(-183.352 -125.375)"/>
            </g>
            <g id="Group_1173" transform="translate(16.95 227.32)">
                <path id="Path_1393" d="M216.621 129.108h7.971a.383.383 0 0 0 0-.766h-7.971a.383.383 0 1 0 0 .766z" class="cls-4" transform="translate(-216.238 -128.342)"/>
            </g>
            <g id="Group_1174" transform="translate(51.42 227.32)">
                <path id="Path_1394" d="M146.852 129.108h152.892a.383.383 0 1 0 0-.766H146.852a.383.383 0 1 0 0 .766z" class="cls-4" transform="translate(-146.469 -128.342)"/>
            </g>
            <g id="Group_1175" transform="translate(24.901 215.177)">
                <path id="Path_1395" d="M218.43 146.148a5.343 5.343 0 0 0 1.008-.1c2.574-.486 3.631-6.994 3.924-9.282 4.345 3.43 7.122 2.98 8.709 1.959 1.275-.825 1.414-1.61 1.3-2.124-.211-1-1.5-1.725-3.623-2.054a4.081 4.081 0 0 1-3.6-2.877l-.125-7.67a.387.387 0 0 0-.388-.378.382.382 0 0 0-.378.388l.131 7.739a4.768 4.768 0 0 0 4.245 3.553c2.044.316 2.888.959 2.993 1.455.082.393-.262.861-.972 1.319-2.054 1.324-4.939.514-8.346-2.345a.383.383 0 0 0-.627.255c-.352 3.417-1.584 8.966-3.386 9.305a2.706 2.706 0 0 1-2.031-.216 1.144 1.144 0 0 1-.471-.679.384.384 0 0 0-.594-.26 4.824 4.824 0 0 1-3.085.825 3.7 3.7 0 0 1-2.139-1.795.388.388 0 0 0-.329-.208.378.378 0 0 0-.342.183c-.01.015-.887 1.437-2.026 1.08a2.185 2.185 0 0 1-1.638-2.016c-.306-4.837.255-12.172 1.656-12.393 2.337-.365 9.57.291 12.442 1.921a.385.385 0 0 0 .522-.144.38.38 0 0 0-.144-.522c-3.05-1.736-10.45-2.4-12.939-2.013-2.926.463-2.312 13.072-2.3 13.2a2.965 2.965 0 0 0 2.178 2.7 2.44 2.44 0 0 0 2.551-.936 4.121 4.121 0 0 0 2.345 1.692 4.99 4.99 0 0 0 3.268-.692 1.963 1.963 0 0 0 .586.671 2.74 2.74 0 0 0 1.625.459z" class="cls-4" transform="translate(-205.813 -123.619)"/>
            </g>
            <g id="Group_1201" transform="translate(123.068)">
                <g id="Group_1185" transform="translate(47.86 67.586)">
                    <g id="Group_1176" transform="translate(3.332)">
                        <path id="Path_1396" d="M156.1 99.192a.385.385 0 0 0 .208-.062 14.686 14.686 0 0 0 6.9-9.976c1.869-10.478-6.894-22.285-7.266-22.784a.387.387 0 0 0-.537-.075.382.382 0 0 0-.077.535c.09.121 8.938 12.044 7.125 22.193a13.944 13.944 0 0 1-6.564 9.462.385.385 0 0 0 .208.707z" class="cls-4" transform="translate(-155.259 -66.219)"/>
                    </g>
                    <g id="Group_1177" transform="translate(25.213 15.012)">
                        <path id="Path_1397" d="M154.48 76.463a17.655 17.655 0 0 0 3.489-.36.383.383 0 1 0-.152-.751 13.922 13.922 0 0 1-12.537-3.2.384.384 0 0 0-.507.576 14.273 14.273 0 0 0 9.707 3.735z" class="cls-4" transform="translate(-144.643 -72.058)"/>
                    </g>
                    <g id="Group_1178" transform="translate(3.794 18.3)">
                        <path id="Path_1398" d="M147.074 88.681a20.267 20.267 0 0 0 3.934-.5 76.964 76.964 0 0 0 12.561-4.016c7.032-2.854 17.119-8.027 16.081-10.588a.383.383 0 0 0-.71.288c.471 1.162-5.258 5.369-15.659 9.588a75.9 75.9 0 0 1-12.429 3.978c-4.014.833-5.335.424-5.487.051a.383.383 0 1 0-.71.288c.245.607 1.056.911 2.419.911z" class="cls-4" transform="translate(-144.626 -73.336)"/>
                    </g>
                    <g id="Group_1179" transform="translate(26.785 24.32)">
                        <path id="Path_1399" d="M146.288 80.572a.374.374 0 0 0 .157-.033 84.389 84.389 0 0 0 8.092-4.147.384.384 0 1 0-.391-.661 84.263 84.263 0 0 1-8.015 4.109.383.383 0 0 0 .157.733z" class="cls-4" transform="translate(-145.904 -75.678)"/>
                    </g>
                    <g id="Group_1180" transform="translate(0 28.448)">
                        <path id="Path_1400" d="M160.343 84.968a23.35 23.35 0 0 0 3.685-.355.384.384 0 0 0-.126-.759c-4.189.692-5.981.221-6.253-.453-.157-.388-.244-1.923 5.212-5.412a.384.384 0 0 0-.414-.648c-4.258 2.726-6.112 4.86-5.508 6.348.344.852 1.485 1.279 3.404 1.279z" class="cls-4" transform="translate(-156.827 -77.283)"/>
                    </g>
                    <g id="Group_1181" transform="translate(5.442 26.33)">
                        <path id="Path_1401" d="M156.316 79.343a.383.383 0 0 0 .208-.059c1.064-.681 2.27-1.388 3.582-2.1a.383.383 0 1 0-.365-.674c-1.329.723-2.551 1.44-3.631 2.129a.384.384 0 0 0 .206.707z" class="cls-4" transform="translate(-155.933 -76.459)"/>
                    </g>
                    <g id="Group_1182" transform="translate(.109 34.394)">
                        <path id="Path_1402" d="M161.155 85.853a.351.351 0 0 0 .144-.028.381.381 0 0 0 .211-.5l-2.227-5.49a.383.383 0 1 0-.71.288l2.227 5.49a.383.383 0 0 0 .355.24z" class="cls-4" transform="translate(-158.545 -79.595)"/>
                    </g>
                    <g id="Group_1183" transform="translate(30.23 16.194)">
                        <path id="Path_1403" d="M154.159 76.934a.378.378 0 0 0 .278-.121c1.152-1.2 1.574-2.2 1.257-2.985-1-2.471-8.189-.9-12.383.262a.383.383 0 0 0 .2.738c7.8-2.155 11.056-1.73 11.468-.712.188.463-.2 1.232-1.1 2.168a.385.385 0 0 0 .01.543.38.38 0 0 0 .27.107z" class="cls-4" transform="translate(-143.029 -72.518)"/>
                    </g>
                    <g id="Group_1184" transform="translate(2.336 17.265)">
                        <path id="Path_1404" d="M145.584 97.364a25.162 25.162 0 0 0 4.425-.489 84.129 84.129 0 0 0 15.464-4.788c10.37-4.207 20.727-10.316 19.493-13.358l-2.252-5.557a.384.384 0 0 0-.712.288l2.255 5.557c.761 1.88-6.883 7.416-19.071 12.36a83.355 83.355 0 0 1-15.314 4.741c-4.7.867-6.683.4-6.978-.327a.383.383 0 0 0-.71.288c.343.858 1.484 1.285 3.4 1.285z" class="cls-4" transform="translate(-142.154 -72.934)"/>
                    </g>
                </g>
                <g id="Group_1188" transform="translate(68.324 6.226)">
                    <g id="Group_1187">
                        <g id="Group_1186">
                            <path id="Path_1405" d="M151.171 81.659a.391.391 0 0 0 .316-.162c.476-.679 2.1-3 2.9-4.348 1.406-2.371 6.135-10.8 7.806-19.786a21.822 21.822 0 0 0 .435-4.9 11.216 11.216 0 0 0-3.24-7.814 8.3 8.3 0 0 0-8.989-1.633l.036.4-.149-.355a12.335 12.335 0 0 0-5.325 4.659.383.383 0 0 0 .63.437 11.407 11.407 0 0 1 5-4.389l-.044-.4.147.355a7.548 7.548 0 0 1 8.171 1.478 10.473 10.473 0 0 1 3 7.287 21.219 21.219 0 0 1-.422 4.731c-1.648 8.863-6.32 17.194-7.714 19.536-.787 1.322-2.391 3.623-2.867 4.3a.385.385 0 0 0 .314.6zm.154-10.892a.383.383 0 0 0 .342-.211 52.715 52.715 0 0 0 5.132-14.2 16.592 16.592 0 0 0 .345-3.692 5.893 5.893 0 0 0-1.538-4.045 2.811 2.811 0 0 0-3.129-.535c-1.689.723-2.993 2.607-3.944 4.171l-1.133 1.86.656.4 1.137-1.859c.892-1.466 2.1-3.227 3.546-3.844a2.064 2.064 0 0 1 2.345.365 5.14 5.14 0 0 1 1.3 3.52 15.694 15.694 0 0 1-.332 3.52 51.878 51.878 0 0 1-5.065 13.99.384.384 0 0 0 .345.558z" class="cls-4" transform="translate(-144.891 -42.355)"/>
                        </g>
                    </g>
                </g>
                <g id="Group_1191" transform="translate(0 33.93)">
                    <g id="Group_1190">
                        <g id="Group_1189">
                            <path id="Path_1406" d="M197.688 82.332a.384.384 0 0 0 .072-.761c-1.437-.27-4.217-.825-5.5-1.172-2.633-.71-11.789-3.435-19.14-8.645a20.871 20.871 0 0 1-3.6-3.1 10.458 10.458 0 0 1-2.921-7.318 7.54 7.54 0 0 1 4.831-6.752l-.033-.4.139.357a13.5 13.5 0 0 1 7.158-.309.382.382 0 0 0 .45-.3.387.387 0 0 0-.3-.45 14.25 14.25 0 0 0-7.58.347 8.346 8.346 0 0 0-5.434 7.471 11.2 11.2 0 0 0 3.119 7.863 21.732 21.732 0 0 0 3.726 3.214c7.454 5.281 16.718 8.038 19.382 8.758 1.309.352 4.111.913 5.562 1.188a.632.632 0 0 0 .069.009zm-7.721-7.675a.384.384 0 0 0 .126-.746 54.768 54.768 0 0 1-13.805-6.631 15.731 15.731 0 0 1-2.692-2.3 5.142 5.142 0 0 1-1.52-3.43 2.049 2.049 0 0 1 1.391-1.88c1.507-.579 3.6-.157 5.261.273.753.2 2.556.558 2.633.573a.384.384 0 0 0 .149-.753c-.018 0-1.856-.373-2.592-.563-1.772-.458-4.019-.905-5.69-.26a2.836 2.836 0 0 0-1.918 2.579 5.892 5.892 0 0 0 1.715 3.975 16.48 16.48 0 0 0 2.821 2.407 55.417 55.417 0 0 0 14 6.732.413.413 0 0 0 .12.024z" class="cls-4" transform="translate(-165.822 -53.13)"/>
                        </g>
                    </g>
                </g>
                <g id="Group_1195" transform="translate(11.714 9.408)">
                    <g id="Group_1192" transform="translate(55.585)">
                        <path id="Path_1407" d="M153.759 87.441a.382.382 0 0 0 .345-.213 26.853 26.853 0 0 0 2.278-6.552 43.027 43.027 0 0 0 .265-14.132 73.546 73.546 0 0 0-3.453-14.183c-.751-2.173-1.6-4.369-2.52-6.523l-.237-.548c-.219-.514-.478-1.124-.635-1.471a.384.384 0 1 0-.7.316c.154.345.411.946.63 1.455l.234.55c.918 2.137 1.759 4.315 2.5 6.469a72.628 72.628 0 0 1 3.42 14.034 42.348 42.348 0 0 1-.257 13.88 26.092 26.092 0 0 1-2.216 6.364.385.385 0 0 0 .175.514.4.4 0 0 0 .171.04z" class="cls-4" transform="translate(-149.068 -43.593)"/>
                    </g>
                    <g id="Group_1193" transform="translate(54.179 45.546)">
                        <path id="Path_1408" d="M151.133 67.531a.387.387 0 0 0 .27-.113 28.47 28.47 0 0 0 4.4-5.526.384.384 0 0 0-.653-.4 27.714 27.714 0 0 1-4.289 5.384.384.384 0 0 0 .27.658z" class="cls-4" transform="translate(-150.75 -61.306)"/>
                    </g>
                    <g id="Group_1194" transform="translate(0 22.542)">
                        <path id="Path_1409" d="M193.985 89.055a25.4 25.4 0 0 0 4.528-.414.384.384 0 0 0-.139-.756c-6.726 1.224-13.286-.357-19.488-4.7a42.342 42.342 0 0 1-9.748-9.879 72.692 72.692 0 0 1-7.217-12.579c-.954-2.085-1.846-4.243-2.651-6.415-.1-.285-.2-.522-.283-.746-.121-.309-.231-.591-.352-.946a.384.384 0 1 0-.725.252c.126.365.239.656.363.972.085.221.175.455.28.735.81 2.188 1.71 4.366 2.669 6.467a73.423 73.423 0 0 0 7.3 12.71 43.18 43.18 0 0 0 9.925 10.059 26.82 26.82 0 0 0 15.538 5.24z" class="cls-4" transform="translate(-157.889 -52.36)"/>
                    </g>
                </g>
                <g id="Group_1196" transform="translate(5.911)">
                    <path id="Path_1410" d="M156.021 67.981A37.046 37.046 0 0 0 163 67.1a136.538 136.538 0 0 0 22.4-7.164c3.093-1.252 6.122-2.579 9-3.942a.383.383 0 1 0-.329-.692c-2.864 1.355-5.878 2.677-8.958 3.924a135.541 135.541 0 0 1-22.27 7.12c-8.657 1.792-9.961.373-10.156-.105-1.008-2.492 10.3-10.313 28.153-17.551a135.635 135.635 0 0 1 22.272-7.12c8.655-1.79 9.961-.373 10.154.105.262.64-.36 1.728-1.751 3.062a.383.383 0 0 0-.01.543.377.377 0 0 0 .54.01c1.7-1.633 2.337-2.911 1.934-3.906-.879-2.17-6.477-1.507-11.02-.568a136.927 136.927 0 0 0-22.406 7.161c-15.026 6.1-30.148 14.669-28.574 18.552.432 1.071 2.008 1.452 4.042 1.452z" class="cls-4" transform="translate(-151.863 -39.934)"/>
                </g>
                <g id="Group_1197" transform="translate(7.901 5.911)">
                    <path id="Path_1411" d="M155.2 69.067a36.888 36.888 0 0 0 6.978-.882 136.407 136.407 0 0 0 22.4-7.161c15.029-6.094 30.151-14.666 28.574-18.552a.383.383 0 1 0-.71.288c1.011 2.494-10.3 10.316-28.153 17.554a135.884 135.884 0 0 1-22.272 7.12c-8.655 1.79-9.961.373-10.157-.105a.383.383 0 1 0-.71.288c.434 1.069 2.013 1.45 4.05 1.45z" class="cls-4" transform="translate(-151.124 -42.233)"/>
                </g>
                <g id="Group_1198" transform="translate(8.534 1.214)">
                    <path id="Path_1412" d="M155.478 65.072a32.424 32.424 0 0 0 7.359-1.232 162.894 162.894 0 0 0 20.215-6.873c11.342-4.6 27.762-12.571 26.5-15.677-.224-.553-.9-.843-2.062-.885a.4.4 0 0 0-.4.37.383.383 0 0 0 .37.4c1.142.041 1.345.321 1.378.409.6 1.468-9.038 7.765-26.08 14.677a162.279 162.279 0 0 1-20.115 6.84c-6.552 1.651-8.632 1.278-8.825.795-.031-.08-.224-.838 2.9-3.055a.383.383 0 1 0-.445-.625c-2.528 1.795-3.53 3.057-3.16 3.967.115.277.362.889 2.365.889z" class="cls-4" transform="translate(-153.04 -40.406)"/>
                </g>
                <g id="Group_1199" transform="translate(67.285 1.212)">
                    <path id="Path_1413" d="M153.447 45.873a.4.4 0 0 0 .144-.028.382.382 0 0 0 .211-.5l-1.905-4.7a.385.385 0 0 0-.712.291l1.908 4.7a.386.386 0 0 0 .354.237z" class="cls-4" transform="translate(-151.156 -40.405)"/>
                </g>
                <g id="Group_1200" transform="translate(5.996 26.069)">
                    <path id="Path_1414" d="M177.282 55.538a.351.351 0 0 0 .144-.028.379.379 0 0 0 .211-.5l-1.905-4.7a.383.383 0 1 0-.71.288l1.905 4.7a.383.383 0 0 0 .355.24z" class="cls-4" transform="translate(-174.993 -50.072)"/>
                </g>
            </g>
            <g id="Group_1202" transform="translate(175.153 56.614)">
                <path id="Path_1415" d="M170.581 88.7a.381.381 0 0 0 .36-.252c2.888-8.1-.237-12.674-3-16.711-.473-.689-.936-1.368-1.365-2.054-2.885-4.626-6.847-7.734-8.737-7.734-1.687.062-7.1 1.877-7.328 1.954a.379.379 0 0 0-.26.37c.049 2.936 3.643 3.538 5.958 3.695q-.675.247-1.347.507a13.542 13.542 0 0 0-4.669 2.638 2.638 2.638 0 0 0-.987 1.733 2.818 2.818 0 0 0 .6 1.7 2.711 2.711 0 0 0 1.342 1.113 3.516 3.516 0 0 0 .717 2.07 3.828 3.828 0 0 0 1.548 1.463 2.937 2.937 0 0 0 .116 1.9 3.254 3.254 0 0 0 2.821 1.6 8 8 0 0 0 2.6-.627c.375-.134.746-.267 1.1-.365a8.515 8.515 0 0 1 3.446-.388c1.031.126 1.864 1.149 2.6 2.049l.337.409c.859 1.018 1.679 2.078 2.584 3.255.028.039.129.154.262.306.226.262.81.933.936 1.118a.383.383 0 0 0 .231.237.389.389 0 0 0 .135.014zm-12.774-25.979c1.491 0 5.274 2.8 8.123 7.372.435.694.905 1.383 1.383 2.08 2.7 3.957 5.495 8.045 3.14 15.338-.154-.18-.347-.4-.591-.684-.118-.139-.211-.242-.234-.275-.91-1.183-1.736-2.247-2.6-3.281l-.327-.4c-.784-.964-1.761-2.162-3.1-2.327a9.277 9.277 0 0 0-3.744.409c-.37.1-.759.242-1.152.386a7.473 7.473 0 0 1-2.342.579 2.474 2.474 0 0 1-2.152-1.2 2.554 2.554 0 0 1 .041-1.651.386.386 0 0 0-.041-.327.38.38 0 0 0-.278-.175s-.671-.121-1.414-1.255c-.81-1.232-.561-1.792-.555-1.8a.4.4 0 0 0-.044-.414.389.389 0 0 0-.383-.141c-.082 0-.522-.044-1.1-.851a2.174 2.174 0 0 1-.46-1.234 2.049 2.049 0 0 1 .753-1.2 12.718 12.718 0 0 1 4.412-2.476c.99-.381 1.985-.741 2.983-1.1a.474.474 0 0 0 .309-.458c-.054-.347-.293-.355-1-.375-2.625-.085-6.089-.463-6.387-2.718a45.268 45.268 0 0 1 6.765-1.82z" class="cls-4" transform="translate(-149.208 -61.952)"/>
            </g>
            <g id="Group_1203" transform="translate(179.433 77.765)">
                <path id="Path_1416" d="M156.559 82.808a.387.387 0 0 0 .38-.411 75.145 75.145 0 0 1 .177-11.794.383.383 0 1 0-.761-.08 75.249 75.249 0 0 0-.18 11.931.382.382 0 0 0 .384.354z" class="cls-4" transform="translate(-156.014 -70.178)"/>
            </g>
            <g id="Group_1204" transform="translate(35.117 225.466)">
                <path id="Path_1417" d="M211.92 138.549a.385.385 0 0 0 .378-.314l1.892-10.162a.384.384 0 0 0-.309-.447.389.389 0 0 0-.445.309l-1.9 10.162a.383.383 0 0 0 .309.447.637.637 0 0 0 .075.005z" class="cls-4" transform="translate(-211.535 -127.621)"/>
            </g>
            <g id="Group_1205" transform="translate(29.247 224.456)">
                <path id="Path_1418" d="M214.463 138.122a.383.383 0 0 0 .383-.357c.005-.08.53-8.074 1.2-10.028a.385.385 0 0 0-.239-.486.38.38 0 0 0-.486.237c-.707 2.049-1.224 9.894-1.244 10.228a.381.381 0 0 0 .357.406z" class="cls-4" transform="translate(-214.079 -127.228)"/>
            </g>
            <g id="Group_1206" transform="translate(179.604 70.034)">
                <path id="Path_1419" d="M151.98 71.127a.374.374 0 0 0 .231-.077 22.435 22.435 0 0 1 5.541-2.5c3.875-1.327 5.5-.077 5.515-.064a.383.383 0 0 0 .486-.591c-.075-.064-1.928-1.55-6.248-.069a22.448 22.448 0 0 0-5.76 2.615.383.383 0 0 0 .234.687z" class="cls-4" transform="translate(-151.596 -67.171)"/>
            </g>
            <g id="Group_1207" transform="translate(177.181 65.334)">
                <path id="Path_1420" d="M153.026 70.385a.39.39 0 0 0 .285-.126 14.982 14.982 0 0 1 5.855-3.358c3.8-1.3 4.88-.607 4.888-.6a.4.4 0 0 0 .532-.08.381.381 0 0 0-.054-.525c-.129-.1-1.368-.982-5.613.476a15.422 15.422 0 0 0-6.176 3.566.384.384 0 0 0 .283.643z" class="cls-4" transform="translate(-152.644 -65.343)"/>
            </g>
            <g id="Group_1208" transform="translate(183.557 61.954)">
                <path id="Path_1421" d="M156.55 64.852a.384.384 0 0 0 .031-.766 14.975 14.975 0 0 0-2.736 0 .38.38 0 0 0-.334.424.374.374 0 0 0 .427.337 14.443 14.443 0 0 1 2.584 0z" class="cls-4" transform="translate(-153.508 -64.029)"/>
            </g>
            <g id="Group_1209" transform="translate(100.606 109.826)">
                <path id="Path_1422" d="M189.452 88.913a.385.385 0 0 0 .36-.247 3.635 3.635 0 0 0-.072-3.006c-1.036-2.09-3.934-2.962-4.057-3a.383.383 0 0 0-.216.735c.026.008 2.7.815 3.587 2.607a2.882 2.882 0 0 1 .041 2.386.384.384 0 0 0 .221.5.365.365 0 0 0 .136.025z" class="cls-4" transform="translate(-185.192 -82.647)"/>
            </g>
        </g>
        <g id="Group_1211" transform="translate(318.384 3413.112)">
            <g id="Group_518">
                <path id="Path_702" d="M2917.271 398.3c-16.173 1.414-42.841 5.355-83.9-.893-43.38-6.6-205.283-77.651-146.376-146.376s180.778-67.521 231.168-16.066c33.404 34.111 100.146 154.502-.892 163.335z" class="cls-1" transform="translate(-2674.247 -197.759)"/>
            </g>
        </g>
        <g id="Group_1125" transform="translate(362.37 3408.885)">
            <path id="Path_1240" d="M332.716 213.967s9.445-15.28 7.012-30.456a50.463 50.463 0 0 0-12.814-26.011c-1.544-1.818-20.612-21.19-22.264-30.417s1.531-18.014 4.385-26.055 15.478-25.232 15.478-25.232h93.277s-16.774 11.49-19.919 27.352-.637 23.344 9.672 32 22.871 14.7 26.461 25.763-21.345 53.06-21.345 53.06z" class="cls-3" transform="translate(-245.967 -43.145)"/>
            <path id="Path_1241" d="M306.995 149.248s.949 7.379.924 9.64.952 3.993-2.358 4.776-9.224 1.421-11.388 1.036-6.852-2.12-7.431-5.311-.764-4.837-.764-4.837l-2.829-.072s-6.843-8.542-7.825-10.061-1.694-1.872-1.454-3.025a65.973 65.973 0 0 1 1.915-7.387c.664-1.617 1.011-3.263 2.367-3.9s8.429-2.655 9.874-3.377 2.054-2.938 2.9-4.038a7.28 7.28 0 0 1 4.868-2.5c2.1-.153 6.735-.092 9.73 2.258a15.1 15.1 0 0 1 5.418 9.336c.434 3.233-2.45 6.07-2.45 6.07l-1.154.391z" class="cls-4" transform="translate(-247.779 -40.5)"/>
            <path id="Path_1242" d="M413.571 154.557s1 2.138 7.495.812l.4 1.718.295 1.624-2 2.322-1.835 3.276a4.38 4.38 0 0 1-3.837-1.363c-1.589-1.946-.518-8.389-.518-8.389z" class="cls-3" transform="translate(-239.466 -38.447)"/>
            <path id="Path_1243" d="M304.7 147s.7 2.986-2.17 2.895a3.891 3.891 0 0 0-2.313-1.009 8.091 8.091 0 0 0-3.743.331 20.738 20.738 0 0 0-5.547 3.771l-.259.228-2.142-1.791a25.224 25.224 0 0 1-.79-5.6 56 56 0 0 1 1.163-8.937c.308-.953.251-1.424 1.187-1.6s9.709-1.048 11.175-.937 5.194.05 5.194.05v2.714s4.211-.57 3.893 5.793c-.349 6.987-4.5 5.431-4.5 5.431l-.881-.2z" class="cls-3" transform="translate(-246.949 -39.653)"/>
            <path id="Path_1244" d="M285.325 148.5a11 11 0 0 0 1.395-4.951c-.029-2.533-.947-4.256-2.545-4.376s-5.529.142-5.667 4.218 5.171 5.355 5.171 5.355.3 3.521-.851 4.532l-1.56 7.466s8.189 7.659 12.412 6.886 4.254-4.228 4.254-4.228-4.039.392-5.841-.318-4.62-2.464-5.484-4.42-1.284-10.164-1.284-10.164z" class="cls-3" transform="translate(-247.5 -39.366)"/>
            <path id="Path_1245" d="M358.1 225.673l2.522 1.409a56.873 56.873 0 0 1 6.426-2.568 4.742 4.742 0 0 1 4.058.793 3.267 3.267 0 0 0 1.332.532 12.1 12.1 0 0 1 3.447-1.528c1.475-.26 4.562 1.229 4.562 1.229l1.485-.572s4.5 11.458 5.426 12.551l-5.64 2.877a8.82 8.82 0 0 1-4.751 4.815 18.347 18.347 0 0 1-5.778 1.544s-4.013.966-5.138.429a22.136 22.136 0 0 1-5.425-4.689 17.862 17.862 0 0 1-1.612-3.216l-1.394-1.441-3.894-1.684z" class="cls-3" transform="translate(-243.014 -34.289)"/>
            <path id="Path_1246" d="M428.678 162.8a13.568 13.568 0 0 1-4.041.783c-1.492-.106-1.806-2.291-1.806-2.291l-.664-4.292s-4.254.644-6.379 0-3.835-2.179-4.318-6.347-.249-14.592-.249-14.592l16.792.758s-.394-3.251.732-4.365c0 0 .462.654.086 4.038s-.653 7.75-.967 8.576a30.812 30.812 0 0 0-1.494 9.007c.156 3.303.688 6.787 2.308 8.725z" class="cls-3" transform="translate(-239.588 -39.765)"/>
            <path id="Path_1247" d="M299.651 162.341a192.954 192.954 0 0 1 2.59 19.743c.544 8.833.94 30.738-.3 38.207 0 0-3.587-17-4.894-23.215-1.581-7.521-5.937-19.252-9.369-26.969s-4.692-10.423-4.692-10.423l-4.312 5.19a40.747 40.747 0 0 0-15.51 5.568c-6.928 4.554-12.149 11.08-13.389 20s.671 54.561.671 54.561h74.919l-.8-14.917s7.443 8.736 32.384 16.575l9.339-22.157s-19.843-9.094-26.058-13.971-9.768-13.043-12.777-18.244c-2.964-5.119-7.429-14.473-15.281-21.633-1.777-1.619-4.6-4.464-7.929-5.445l-3.153-2.972z" class="cls-6" transform="translate(-249.238 -38.141)"/>
            <path id="Path_1248" d="M307.246 136.549s1.706-.68 1.136-4.689-2.143-7.5-5-9.12-5.566-3.281-9.9-2c-3.393 1-2.954 3.762-4.249 5.044s-4.242 2.634-8.5 3.275-4.471 2.5-5.6 6.577a36.329 36.329 0 0 0-1.368 6.751c-.077.727 9.394 12.081 9.394 12.081a5.5 5.5 0 0 0 .743-4.44 4.945 4.945 0 0 1-4.817-5.122c-.007-2.188 1.211-4.458 3.482-4.579 2.575-.138 4.076 1.2 4.329 3.247a9.611 9.611 0 0 1-1.343 6.326s1.22 9.768 1.28 10.062 3.8 4.488 6.856 4.663 10.959.3 11.328-1.406a18.879 18.879 0 0 0 .983-6.854 49.817 49.817 0 0 0-.385-7.119 2.017 2.017 0 0 1-2.221 1.557 2.811 2.811 0 0 0-2.006-1.055c-1.472-.3-.772-.312-3.427.175s-6.429 4.2-6.429 4.2-4.365-1.4-4.669-2.105c-.5-1.159-.031-5.057-.031-5.057s.082-6.543.277-8.2c.365-3.128 3.75-2.742 3.75-2.742l13.758-.93 2.7.218z" class="cls-4" transform="translate(-247.783 -40.491)"/>
            <path id="Path_1249" d="M449.987 171.671s-2.484-2.594-4.093-2.587-5.737 1.844-9.362 0-7.992-3.871-9.187-9.688a26.63 26.63 0 0 1 .661-12.343c.4-1.614 1.629-14.725 1.629-14.725s-1.867 3.119-1.181 5.262l-18.292-.522s-1.31-4.645.1-7.564c.747-1.55 3.628-4.722 11.927-5.85s18.441 5.28 18.777 6.077-.261 6.933-.261 11.023.145 11.7 5.618 13.68c0 0 6.762 2.841 6.747 8.74s-3.083 8.497-3.083 8.497z" class="cls-3" transform="translate(-239.681 -40.298)"/>
            <path id="Path_1250" d="M449.145 171.119s-2.395-2.3-4.005-2.292-4.576 1.49-8.2-.354-5.619-3.467-6.816-9.286a26.65 26.65 0 0 1 .661-12.344c.313-1.255-.191-10.3-.428-14.239a.716.716 0 0 0-1.32-.34 7.465 7.465 0 0 0-1.063 5.117l-15.913-.345s.5-6.637.976-7.5 3.541-5.86 11.918-5.952c7.943-.089 15.365 5.3 15.7 6.1s-.318 8.6-.318 12.692 1.381 11.144 5.5 11.852c0 0 7.06 3.107 6.733 9a13.029 13.029 0 0 1-3.425 7.891z" class="cls-4" transform="translate(-239.535 -40.295)"/>
            <path id="Path_1251" d="M387.809 244.508s-6.77-11.7-7.954-17.9l14.1-4.93s-.26-5.779.012-10.822c1.239-23.068 4.795-27.9 6.5-31.606s6.156-8.1 10.553-13.164c1.508-1.737 5.252-3.373 5.252-3.373a6.812 6.812 0 0 0 1.386 1.189 8.309 8.309 0 0 0 2.228 0s-1.55 8.756-3.791 22.686c0 0 1.624-3.584 10.179-12.689a38.082 38.082 0 0 1 4.684-3.576s3.348-.336 5.86-4.464a10.159 10.159 0 0 0 7.852.867 5.447 5.447 0 0 1 6.571 2.056s6.513 6.217 6.7 14.45-1.829 13.184-1.829 13.184l-3.858 29.427 3.269 18.662-55.016.312.392-3.282z" class="cls-6" transform="translate(-241.455 -37.96)"/>
            <path id="Path_1252" d="M341.994 197.177a11.184 11.184 0 0 1-1.291 5.49l23.846.212a7.611 7.611 0 0 0 1.346-5.7z" class="cls-2" transform="translate(-243.79 -35.905)"/>
            <path id="Path_1253" d="M414.481 155.04s1.016 1.577 7.508.25l.4 1.719.3 1.622-2.474 1.837-2.041 2.843a2.343 2.343 0 0 1-3.056-.768c-1.587-1.943-.637-7.503-.637-7.503z" class="cls-4" transform="translate(-239.407 -38.418)"/>
            <path id="Path_1254" d="M428.506 161.249s-2.832 1.439-4.333.67-1.479-3.489-1.479-3.489a12.769 12.769 0 0 0-4.852 5.733s-1.273 6.722-2.186 12.421c-.848 5.295-1.605 10.265-1.605 10.265a45.969 45.969 0 0 1 8.039-10.467c4.854-4.763 6.823-5.8 6.823-5.8s4.487-1.056 5.723-4.244c0 0-4.745-2.799-6.13-5.089z" class="cls-3" transform="translate(-239.416 -38.216)"/>
            <path id="Path_1255" d="M292.445 167.644l-2.193 5.012 1.931 4.306.808 13s1.917 6.823 3.263 12.854 2.1 9.787 2.1 9.787.41-3.813.478-11.98c.066-8-.3-11.686-.3-11.686L294.06 176.3l.906-4.836z" class="cls-2" transform="translate(-246.799 -37.667)"/>
            <g id="Group_1045" transform="translate(104.915 49.558)">
                <path id="Path_1256" d="M386.169 130.251c-.106 13.447 17.278 13.884 17.278 13.884-9.841-4.309-5.931-13.884-5.931-13.884z" class="cls-6" transform="translate(-345.994 -89.455)"/>
                <path id="Path_1257" d="M399.64 132.547a8.864 8.864 0 0 0 8.864-8.864v-23.067a8.865 8.865 0 0 0-8.864-8.865h-42.521a8.865 8.865 0 0 0-8.864 8.865v23.067a8.864 8.864 0 0 0 8.864 8.864h42.521z" class="cls-6" transform="translate(-348.255 -91.751)"/>
            </g>
            <path id="Path_1258" d="M360.616 117.553H329.56a6.473 6.473 0 0 0-6.474 6.474v16.846a6.474 6.474 0 0 0 6.474 6.475h-.1s2.854 6.995-4.333 10.14c0 0 12.7-.319 12.619-10.14h22.869a6.474 6.474 0 0 0 6.473-6.475v-16.846a6.473 6.473 0 0 0-6.472-6.474z" class="cls-6" transform="translate(-244.841 -40.654)"/>
            <g id="Group_1047" transform="translate(177.231 107.137)">
                <g id="Group_1046">
                    <path id="Path_1259" d="M419.741 151.845c-1.653 0-3.062-1.1-3.219-2.075a1.386 1.386 0 0 1 .295-1.148 1.907 1.907 0 0 1 2.016-.409 3.549 3.549 0 0 0 .9.218.482.482 0 0 0 .242-.073c.2-.091.287-.135.614-.972a1.874 1.874 0 0 1 1.622-1.3 1.386 1.386 0 0 1 1.048.5 2.408 2.408 0 0 1 .312 2.035 3.98 3.98 0 0 1-2.131 2.83 3.922 3.922 0 0 1-1.699.394zm-1.645-2.992a.915.915 0 0 0-.7.264.632.632 0 0 0-.121.534 2.575 2.575 0 0 0 2.468 1.434 3.191 3.191 0 0 0 1.37-.315 3.224 3.224 0 0 0 1.71-2.3 1.779 1.779 0 0 0-.136-1.379c-.44-.493-1.116-.146-1.393.567-.379.975-.563 1.183-1 1.385-.34.162-.618.245-1.7-.111a1.62 1.62 0 0 0-.494-.079z" transform="translate(-416.501 -146.089)"/>
                </g>
            </g>
            <g id="Group_1048" transform="translate(171.197 96.546)">
                <path id="Path_1260" d="M418.2 157.41a8.424 8.424 0 0 1-2.581-.357 5.83 5.83 0 0 1-3.8-4.145c-1.1-3.368-1.046-6.949-.99-10.412l.008-.474c.018-1.258.034-2.644.047-3.715a17.12 17.12 0 0 1 .04-1.936.38.38 0 1 1 .73.21c.008.017 0 .74-.01 1.735-.013 1.072-.029 2.459-.048 3.718l-.007.475c-.056 3.4-.113 6.917.951 10.163a5.127 5.127 0 0 0 3.3 3.658 9.191 9.191 0 0 0 3.567.265 39.272 39.272 0 0 0 4.446-.593.38.38 0 1 1 .149.745 40.246 40.246 0 0 1-4.532.606c-.445.037-.87.057-1.27.057z" transform="translate(-410.807 -136.094)"/>
            </g>
            <g id="Group_1049" transform="translate(173.75 98.671)">
                <path id="Path_1261" d="M416.843 147.842a.394.394 0 0 1-.086-.01c-.734-.17-3.155-.789-3.493-1.666a.7.7 0 0 1 .086-.667c2.991-4.294 3.526-7.06 3.532-7.088a.38.38 0 1 1 .747.136c-.021.118-.556 2.941-3.656 7.387a7.443 7.443 0 0 0 2.955 1.157.38.38 0 0 1-.086.75z" transform="translate(-413.216 -138.1)"/>
            </g>
            <g id="Group_1050" transform="translate(171.303 97.581)">
                <path id="Path_1262" d="M411.286 138.568a.372.372 0 0 1-.231-.077.378.378 0 0 1-.073-.527c.043-.06 1.1-1.425 3.8-.661a.38.38 0 1 1-.208.73c-2.159-.608-2.951.35-2.983.391a.383.383 0 0 1-.305.144z" transform="translate(-410.907 -137.071)"/>
            </g>
            <g id="Group_1051" transform="translate(179.769 97.732)">
                <path id="Path_1263" d="M423.663 139.7a.38.38 0 0 1-.333-.2c-.04-.07-1.034-1.763-4.021-1.5a.367.367 0 0 1-.412-.345.382.382 0 0 1 .346-.412c3.49-.307 4.7 1.8 4.751 1.889a.38.38 0 0 1-.148.517.373.373 0 0 1-.183.051z" transform="translate(-418.896 -137.213)"/>
            </g>
            <path id="Path_1264" d="M420.944 142.534a.476.476 0 0 0 .491-.469v-1.371a.48.48 0 0 0-.96 0v1.371a.47.47 0 0 0 .469.469z" transform="translate(-239.033 -39.302)"/>
            <path id="Path_1265" d="M413.137 142.325a.476.476 0 0 0 .491-.469v-1.371a.48.48 0 0 0-.96 0v1.371a.47.47 0 0 0 .469.469z" transform="translate(-239.498 -39.314)"/>
            <g id="Group_1052" transform="translate(169.522 82.815)">
                <path id="Path_1266" d="M449.5 171.525a.38.38 0 0 1-.295-.619c2.8-3.457 3.858-6.673 3.139-9.559-1.123-4.508-6.244-6.726-6.3-6.748-7.113-1.369-6.02-16.846-5.217-23.437a2.187 2.187 0 0 0-.03-.737c-.213-.976-1.044-1.458-1.923-1.97-7.533-4.371-14.535-5.6-20.844-3.678-3.352 1.02-7.439 2.972-7.878 6.48-.6 4.765.583 5.647.594 5.655a.388.388 0 0 1 .112.519.369.369 0 0 1-.5.132c-.168-.1-1.624-1.086-.959-6.4.387-3.1 3.3-5.556 8.41-7.113 6.523-1.984 13.723-.731 21.4 3.724a4.033 4.033 0 0 1 2.329 2.49 2.974 2.974 0 0 1 .041.992c-.608 4.977-2.065 21.316 4.682 22.622.3.119 5.6 2.416 6.812 7.286.781 3.131-.325 6.571-3.286 10.221a.377.377 0 0 1-.287.14z" transform="translate(-409.226 -123.136)"/>
            </g>
            <g id="Group_1053" transform="translate(178.021 119.732)">
                <path id="Path_1267" d="M428.3 170.9a5.3 5.3 0 0 1-1.2-.139c-2.232-.519-3.125-2.619-3.371-4.787q-.111.238-.252.479c-.593 1-2.2 2.386-3.99 1.887-2.4-.675-2.273-3.068-2.22-4.089a6.894 6.894 0 0 1 1.638-3.195 9.948 9.948 0 0 1 3.139-2.895 1.908 1.908 0 0 1 .436-.175.38.38 0 0 1 .176.74 1.245 1.245 0 0 0-.263.111 9.2 9.2 0 0 0-2.883 2.681 7.191 7.191 0 0 0-1.479 2.689c-.075 1.441-.01 2.93 1.663 3.4 1.435.407 2.726-.868 3.13-1.545a7.29 7.29 0 0 0 .8-2.671c.076-.462.155-.935.273-1.419a.381.381 0 0 1 .744.163c-.546 2.8-.295 7.2 2.629 7.885 3.947.919 6.97-3.91 7-3.959a.381.381 0 0 1 .649.4c-.119.198-2.785 4.439-6.619 4.439z" transform="translate(-417.247 -157.975)"/>
            </g>
            <g id="Group_1054" transform="translate(158.451 134.051)">
                <path id="Path_1268" d="M402.614 218.791a.379.379 0 0 1-.379-.376l-.125-10.293c-.511-1-4.8-9.788-2.808-17.929a78.556 78.556 0 0 1 7.842-18.515.38.38 0 1 1 .656.383 77.755 77.755 0 0 0-7.759 18.313c-2 8.181 2.736 17.387 2.784 17.479a.369.369 0 0 1 .043.172l.126 10.384a.379.379 0 0 1-.376.384z" transform="translate(-398.778 -171.489)"/>
            </g>
            <g id="Group_1055" transform="translate(151.948 124.413)">
                <path id="Path_1269" d="M393.02 222.519a.379.379 0 0 1-.379-.379c0-.207-.034-20.845 2.559-31.841a44.013 44.013 0 0 1 20.16-27.864.38.38 0 0 1 .348.676 43.237 43.237 0 0 0-19.769 27.362c-2.572 10.91-2.539 31.46-2.539 31.665a.378.378 0 0 1-.378.381z" transform="translate(-392.641 -162.393)"/>
            </g>
            <g id="Group_1056" transform="translate(173.211 115.476)">
                <path id="Path_1270" d="M417.076 164.9a3.882 3.882 0 0 1-2.686-1.015c-1.707-1.587-2.118-4.822-1.221-9.615a.38.38 0 1 1 .747.141c-1.054 5.629-.042 7.957.991 8.918a3.356 3.356 0 0 0 2.917.733.38.38 0 0 1 .2.735 4.08 4.08 0 0 1-.948.103z" transform="translate(-412.707 -153.959)"/>
            </g>
            <g id="Group_1057" transform="translate(166.765 91.443)">
                <path id="Path_1271" d="M407 242.07a.38.38 0 0 1-.089-.749c11.916-2.857 21.326-5.114 26.72-10.058 4.332-3.973 17.291-24.361 20.713-34.462.974-2.875 5.261-17.675-6-26.766-2.1-1.7-3.489-1.382-5.246-.983-2.166.49-4.863 1.1-9.7-1.742-9.64-5.666-6.859-16.6-5.671-21.27l.166-.663a77.031 77.031 0 0 0 .975-8.229.381.381 0 0 1-.082.161.361.361 0 0 1-.294.133l-17.8-.313a.38.38 0 0 1-.374-.386.376.376 0 0 1 .387-.374l17.366.3a9.327 9.327 0 0 1 1.259-5.2.379.379 0 0 1 .44-.177.384.384 0 0 1 .27.389c-.031.451-.722 11.085-1.408 13.874l-.169.669c-1.145 4.5-3.827 15.05 5.319 20.427 4.577 2.691 7 2.142 9.144 1.656 1.8-.407 3.5-.794 5.893 1.133 11.657 9.41 7.248 24.645 6.247 27.6-3.529 10.412-16.427 30.657-20.919 34.777-5.539 5.077-15.034 7.354-27.056 10.236a.365.365 0 0 1-.091.017zm22.116-108.111a7.733 7.733 0 0 0-.246 3.035c.103-1.086.184-2.154.249-3.035z" transform="translate(-406.624 -131.279)"/>
            </g>
            <g id="Group_1058" transform="translate(174.239 126.842)">
                <path id="Path_1272" d="M414.057 186.894a.389.389 0 0 1-.128-.022.381.381 0 0 1-.248-.41c.014-.1 1.419-10.227 3.81-21.473a.38.38 0 1 1 .743.157c-1.8 8.45-3.035 16.262-3.542 19.649a53.548 53.548 0 0 1 14.152-15.024.38.38 0 0 1 .434.623 53.788 53.788 0 0 0-14.9 16.318.382.382 0 0 1-.321.182z" transform="translate(-413.677 -164.685)"/>
            </g>
            <g id="Group_1059" transform="translate(162.411 34.558)">
                <path id="Path_1273" d="M424.64 98.483a.38.38 0 0 1-.259-.1l-21.744-20.13a.379.379 0 1 1 .515-.557L424.9 97.823a.38.38 0 0 1-.258.659z" transform="translate(-402.515 -77.595)"/>
            </g>
            <g id="Group_1060" transform="translate(168.108 8.311)">
                <path id="Path_1274" d="M408.271 66.177a.381.381 0 0 1-.175-.718l24.361-12.592a.38.38 0 1 1 .35.675l-24.361 12.593a.383.383 0 0 1-.175.042z" transform="translate(-407.892 -52.825)"/>
            </g>
            <g id="Group_1061" transform="translate(149.538)">
                <path id="Path_1275" d="M392.346 59.378a.381.381 0 0 1-.377-.336l-1.6-13.636a.381.381 0 0 1 .334-.422.378.378 0 0 1 .422.333l1.6 13.636a.381.381 0 0 1-.334.422.315.315 0 0 1-.045.003z" transform="translate(-390.367 -44.982)"/>
            </g>
            <g id="Group_1062" transform="translate(43.073 134.696)">
                <path id="Path_1276" d="M293.047 190.568a.379.379 0 0 1-.378-.352l-.984-13.429-1.761-4.161a.38.38 0 0 1 .7-.3l1.787 4.219a.388.388 0 0 1 .029.12l.989 13.492a.38.38 0 0 1-.352.406z" transform="translate(-289.894 -172.097)"/>
            </g>
            <g id="Group_1063" transform="translate(44.859 138.21)">
                <path id="Path_1277" d="M291.958 176.878a.38.38 0 0 1-.075-.752l3.5-.7a.38.38 0 0 1 .152.745l-3.5.7a.38.38 0 0 1-.077.007z" transform="translate(-291.579 -175.414)"/>
            </g>
            <g id="Group_1064" transform="translate(48.355 133.418)">
                <path id="Path_1278" d="M300.07 189.13a.379.379 0 0 1-.355-.246L294.9 176.2a.365.365 0 0 1-.017-.208l.948-4.791a.374.374 0 0 1 .446-.3.38.38 0 0 1 .3.446l-.927 4.685 4.773 12.584a.378.378 0 0 1-.22.49.356.356 0 0 1-.133.024z" transform="translate(-294.879 -170.891)"/>
            </g>
            <g id="Group_1065" transform="translate(41.195 128.275)">
                <path id="Path_1279" d="M288.5 177.588a.358.358 0 0 1-.149-.032.378.378 0 0 1-.2-.5l4.639-10.789a.381.381 0 0 1 .314-.229.369.369 0 0 1 .35.166l6.322 9.37a.379.379 0 0 1-.629.424l-5.932-8.792-4.365 10.149a.381.381 0 0 1-.35.233z" transform="translate(-288.121 -166.037)"/>
            </g>
            <g id="Group_1066" transform="translate(26.632 121.299)">
                <path id="Path_1280" d="M300.518 221.455a.384.384 0 0 1-.323-.179l-21.989-35.4a.381.381 0 0 1-.034-.332l2.4-6.576-5.934-1.968a.38.38 0 0 1-.252-.437l2.423-11.745a.389.389 0 0 1 .085-.173l4.38-5.056a.381.381 0 0 1 .623.071c.007.014.8 1.5 2.177 4.549 2.1 4.653 5.2 11.839 8.012 19.649 5.186 14.394 8.518 35.305 8.791 37.048a.391.391 0 0 1 .041.172.38.38 0 0 1-.381.38zm-21.569-35.819l20.89 33.627c-.941-5.636-4.022-22.811-8.47-35.149-2.8-7.787-5.892-14.955-7.989-19.6-.914-2.021-1.567-3.347-1.9-4.009l-3.948 4.555-2.332 11.322 5.984 1.993a.382.382 0 0 1 .222.195.378.378 0 0 1 .014.3z" transform="translate(-274.378 -159.455)"/>
            </g>
            <g id="Group_1067" transform="translate(50.101 123.821)">
                <path id="Path_1281" d="M299.2 221.313a.324.324 0 0 1-.064-.005.38.38 0 0 1-.316-.4c.015-.185 1.451-18.655.775-31.593-.245-4.668-.584-9.118-1.009-13.231a121.685 121.685 0 0 0-2.047-13.777.38.38 0 0 1 .739-.176A121.907 121.907 0 0 1 299.339 176c.427 4.125.767 8.589 1.013 13.27a273.633 273.633 0 0 1-.5 27.676l8.439-32.167-3.361-6.321A.378.378 0 0 1 305 178l3.167-3.017-7.474-10.072a.38.38 0 1 1 .61-.452l7.674 10.341a.38.38 0 0 1-.043.5l-3.2 3.05 3.3 6.2a.37.37 0 0 1 .032.274l-9.5 36.2a.381.381 0 0 1-.366.289z" transform="translate(-296.526 -161.834)"/>
            </g>
            <g id="Group_1079" transform="translate(25.71 79.156)">
                <g id="Group_1068" transform="translate(31.032 17.989)">
                    <path id="Path_1282" d="M306.27 148.819h-.07a2.633 2.633 0 0 1-2.148-1.3l-.362-.58-.1-.265a10.854 10.854 0 0 1-.8-4.044c.1-3.35 1.725-5.973 3.7-5.973a2.358 2.358 0 0 1 1.029.249 3.571 3.571 0 0 1 1.419 1.406 9.332 9.332 0 0 1-.255 8.979 3.029 3.029 0 0 1-2.413 1.528zm.271-11.4c-1.553 0-2.9 2.4-2.984 5.235a10.077 10.077 0 0 0 .755 3.773l.064.188.317.487a1.891 1.891 0 0 0 1.533.956l.043.38v-.38a2.309 2.309 0 0 0 1.793-1.193 8.577 8.577 0 0 0 .232-8.159 2.861 2.861 0 0 0-1.107-1.118 1.524 1.524 0 0 0-.646-.168z" transform="translate(-302.794 -136.659)"/>
                </g>
                <g id="Group_1069" transform="translate(21.432 18.393)">
                    <path id="Path_1283" d="M297.359 149.2h-.071a3.239 3.239 0 0 1-2.641-1.936 8.446 8.446 0 0 1-.909-4.253c.1-3.347 1.784-5.97 3.837-5.97 2.163.064 3.724 2.782 3.622 6.19-.097 3.348-1.783 5.969-3.838 5.969zm.264-11.4c-1.659 0-3.04 2.347-3.125 5.231a7.7 7.7 0 0 0 .816 3.866 2.525 2.525 0 0 0 2 1.542l.049.38v-.379c1.614 0 2.994-2.348 3.079-5.234s-1.2-5.359-2.814-5.406z" transform="translate(-293.734 -137.041)"/>
                </g>
                <g id="Group_1070" transform="translate(28.136 22.884)">
                    <path id="Path_1284" d="M300.44 143.346a.379.379 0 0 1-.356-.514 2.29 2.29 0 0 1 2.1-1.552c1.194.042 1.514 1.5 1.527 1.565a.379.379 0 0 1-.743.156c0-.008-.212-.94-.811-.961a1.628 1.628 0 0 0-1.357 1.06.381.381 0 0 1-.36.246z" transform="translate(-300.06 -141.279)"/>
                </g>
                <g id="Group_1071" transform="translate(13.068 23.763)">
                    <path id="Path_1285" d="M294.589 143.1l-8.38-.232a.378.378 0 0 1-.369-.39.373.373 0 0 1 .39-.37l8.368.232a.38.38 0 0 1-.01.76z" transform="translate(-285.841 -142.108)"/>
                </g>
                <g id="Group_1072" transform="translate(25.06 31.844)">
                    <path id="Path_1286" d="M301.738 153.824c-4.417-.255-4.579-3.663-4.58-3.7a.379.379 0 0 1 .366-.391.355.355 0 0 1 .394.365c.005.113.158 2.752 3.842 2.965a.38.38 0 0 1-.022.76z" transform="translate(-297.158 -149.735)"/>
                </g>
                <g id="Group_1073" transform="translate(31.675 29.303)">
                    <path id="Path_1287" d="M303.78 148.452a.38.38 0 0 1-.266-.653 1.656 1.656 0 0 1 1.933-.265.38.38 0 0 1-.393.651.915.915 0 0 0-1.008.159.386.386 0 0 1-.266.108z" transform="translate(-303.4 -147.336)"/>
                </g>
                <g id="Group_1074" transform="translate(14.836 15.087)">
                    <path id="Path_1288" d="M290.813 153.685a.751.751 0 0 1-.385-.141c-.345-.214-2.082-1.582-2.2-2.087a23.98 23.98 0 0 1-.686-6.233l.013-.142c.566-6.72 1.226-9.636 2.279-10.065 1.523-.619 5.9-1.079 10.4-1.095a53.892 53.892 0 0 1 6.432.191.383.383 0 0 1 .322.4l-.158 2.971a.388.388 0 0 1-.4.36.382.382 0 0 1-.36-.4l.139-2.612c-.654-.056-2.331-.158-5.974-.146-5.007.017-8.879.535-10.116 1.037-.393.161-1.15 1.6-1.809 9.427l-.013.141a23.169 23.169 0 0 0 .665 5.982 11.12 11.12 0 0 0 1.793 1.585l.147-.146c1.028-1.018 3.758-3.728 6.721-4.08a.389.389 0 0 1 .422.333.382.382 0 0 1-.333.423c-2.7.32-5.391 2.988-6.275 3.864-.338.335-.4.394-.532.427a.5.5 0 0 1-.092.006z" transform="translate(-287.509 -133.921)"/>
                </g>
                <g id="Group_1075">
                    <path id="Path_1289" d="M295.857 165.173a19.883 19.883 0 0 1-2.121-.093c-3.578-.4-7.22-4.022-7.523-6-.262-1.7-.894-8.912-.921-9.218a.384.384 0 0 1 .086-.275 7.554 7.554 0 0 0 1.2-5.7c-.372-2.294-1.548-3.321-3.625-3.131a3.609 3.609 0 0 0-2.631 1.233 5.2 5.2 0 0 0-.663 4.018c.526 3.619 4.208 3.684 4.365 3.685a.38.38 0 0 1 .377.357c.009.135.191 3.328-.929 4.787a.38.38 0 0 1-.6 0c-.078-.1-7.763-10.167-8.959-11.564-.606-.707-.389-1.966-.245-2.8l.042-.253a30.6 30.6 0 0 1 1.133-4.52l.089-.281a18.412 18.412 0 0 1 2.068-4.857c.7-1.013 2.3-1.431 3.594-1.766.287-.075.556-.144.79-.215.508-.154 1.017-.3 1.527-.449 1.254-.363 2.552-.74 3.79-1.2a5.879 5.879 0 0 0 1.828-.963 5.558 5.558 0 0 0 1.305-1.994 8 8 0 0 1 1.043-1.794c1.771-2.117 5.389-2.646 7.941-2.462a14.614 14.614 0 0 1 9.24 4.38c.941.984 3.575 5.131 3.284 9.08a6.985 6.985 0 0 1-2.814 5.176.38.38 0 0 1-.466-.6 6.253 6.253 0 0 0 2.522-4.632c.277-3.729-2.317-7.706-3.074-8.5a13.827 13.827 0 0 0-8.746-4.146c-2.57-.194-5.82.414-7.3 2.19a7.3 7.3 0 0 0-.939 1.629 6.237 6.237 0 0 1-1.5 2.251 6.658 6.658 0 0 1-2.058 1.1c-1.264.472-2.576.851-3.844 1.219-.507.146-1.013.294-1.518.446-.242.073-.521.146-.818.224-1.169.3-2.624.682-3.161 1.462a17.591 17.591 0 0 0-1.974 4.655l-.089.282a30.115 30.115 0 0 0-1.105 4.409l-.045.263c-.112.651-.3 1.74.073 2.177 1.078 1.258 7.119 9.154 8.646 11.152a9.148 9.148 0 0 0 .52-3.505 5.073 5.073 0 0 1-4.745-4.307 5.9 5.9 0 0 1 .818-4.6 4.33 4.33 0 0 1 3.159-1.52c2.457-.224 4.01 1.079 4.445 3.767a8.323 8.323 0 0 1-1.272 6.173c.093 1.054.664 7.474.9 9.022.243 1.583 3.5 4.993 6.855 5.366 3.719.408 12.032-.513 13.318-1.713.947-.887.185-7.333-.225-10.8-.122-1.04-.23-1.945-.286-2.6a.381.381 0 0 1 .345-.412.366.366 0 0 1 .412.345c.055.65.162 1.548.284 2.578.665 5.63 1.123 10.377-.012 11.44-1.358 1.274-7.748 2.004-11.791 2.004z" transform="translate(-273.508 -119.683)"/>
                </g>
                <g id="Group_1076" transform="translate(7.726 34.31)">
                    <path id="Path_1290" d="M281.178 160.656a.349.349 0 0 1-.073-.007.379.379 0 0 1-.3-.446l1.546-7.833a.38.38 0 1 1 .745.146l-1.546 7.834a.38.38 0 0 1-.372.306z" transform="translate(-280.799 -152.062)"/>
                </g>
                <g id="Group_1077" transform="translate(29.577 20.921)">
                    <path id="Path_1291" d="M301.853 150.035a.38.38 0 0 1-.027-.759 2.048 2.048 0 0 0 1.608-.682c.515-.73.159-2-.1-2.932-.433-1.544-1.877-5.688-1.891-5.729a.38.38 0 0 1 .718-.25c.059.171 1.465 4.209 1.894 5.733.313 1.118.725 2.591 0 3.617a2.74 2.74 0 0 1-2.176 1z" transform="translate(-301.42 -139.427)"/>
                </g>
                <g id="Group_1078" transform="translate(8.188 22.055)">
                    <path id="Path_1292" d="M282.443 146.267a.38.38 0 0 1-.231-.681l2.187-1.666-3.039-2.761a.38.38 0 1 1 .511-.563l3.376 3.068a.379.379 0 0 1-.024.584l-2.548 1.942a.379.379 0 0 1-.232.077z" transform="translate(-281.235 -140.497)"/>
                </g>
            </g>
            <g id="Group_1080" transform="translate(51.189 123.746)">
                <path id="Path_1293" d="M300.939 165.073a.379.379 0 0 1-.246-.09l-3.006-2.549a.38.38 0 1 1 .493-.58l3.005 2.549a.38.38 0 0 1-.246.67z" transform="translate(-297.553 -161.763)"/>
            </g>
            <g id="Group_1081" transform="translate(33.436 121.299)">
                <path id="Path_1294" d="M293.3 166.975c-4.436 0-12.037-6.568-12.366-6.854a.38.38 0 1 1 .5-.573c.081.07 8.078 6.993 12.132 6.657a3.89 3.89 0 0 0 3.9-3.849.38.38 0 0 1 .76 0 4.7 4.7 0 0 1-4.605 4.608c-.107.007-.221.011-.321.011z" transform="translate(-280.799 -159.454)"/>
            </g>
            <g id="Group_1082" transform="translate(51.084 108.814)">
                <path id="Path_1295" d="M300.21 148.639a.384.384 0 0 1-.132-.023 6.828 6.828 0 0 0-2.228-.174.388.388 0 0 1-.4-.363.379.379 0 0 1 .365-.4 6.968 6.968 0 0 1 2.527.221.38.38 0 0 1-.136.734z" transform="translate(-297.454 -147.671)"/>
            </g>
            <g id="Group_1083" transform="translate(138.317 202.852)">
                <path id="Path_1296" d="M380.157 240.07a.38.38 0 0 1-.206-.7c1.437-.922 3.033-1.832 3.048-1.842l2.734-1.086a.385.385 0 0 1 .494.215.379.379 0 0 1-.214.493l-2.685 1.061c.008 0-1.558.9-2.966 1.8a.379.379 0 0 1-.205.059z" transform="translate(-379.777 -236.417)"/>
            </g>
            <g id="Group_1084" transform="translate(128.822 189.605)">
                <path id="Path_1297" d="M371.2 226.378a.374.374 0 0 1-.281-.624.461.461 0 0 1 .156-.114 17.818 17.818 0 0 1 2.547-1.521c1.114-.464 3.038-.135 5.88 1.015l1.369-.535a.38.38 0 1 1 .277.708l-1.51.589a.379.379 0 0 1-.283 0c-3.351-1.37-4.807-1.339-5.439-1.072a16.449 16.449 0 0 0-2.472 1.487.382.382 0 0 1-.182.065.4.4 0 0 1-.062.002z" transform="translate(-370.816 -223.916)"/>
            </g>
            <g id="Group_1086" transform="translate(124.545 200.765)">
                <g id="Group_1085">
                    <path id="Path_1298" d="M371.884 247.029a3.178 3.178 0 0 1-2.15-.914 10.192 10.192 0 0 1-2.823-4.305 2.641 2.641 0 0 1 .921-2.924 2.126 2.126 0 0 1 2.079-.059 2.421 2.421 0 0 1 .925-1.832 2.339 2.339 0 0 1 2.364-.312 2.356 2.356 0 0 1 3.418-1.939c1.468.708 4.112 3.068 4.62 4.752a2.414 2.414 0 0 1-.394 2.424 3.564 3.564 0 0 1-2.007 1.283 3.641 3.641 0 0 1-1.551 1.913c-1.623 1.136-2.614 1.007-3.078.883a3.384 3.384 0 0 1-1.382.868 2.85 2.85 0 0 1-.942.162zm-3.026-7.711a.983.983 0 0 0-.585.187 1.889 1.889 0 0 0-.639 2.068 9.506 9.506 0 0 0 2.636 4 2.391 2.391 0 0 0 1.614.694 2.11 2.11 0 0 0 .692-.121 2.319 2.319 0 0 0 1.185-.8.384.384 0 0 1 .516-.127s.864.468 2.575-.728c1.221-.853 1.284-1.638 1.284-1.647a.388.388 0 0 1 .379-.363 2.571 2.571 0 0 0 1.745-1.05 1.65 1.65 0 0 0 .25-1.717c-.438-1.455-2.868-3.636-4.223-4.288a1.429 1.429 0 0 0-1.815.238 1.514 1.514 0 0 0-.466 1.526.38.38 0 0 1-.122.4.384.384 0 0 1-.42.043c-1-.528-1.4-.581-2.192-.026-.762.537-.6 1.845-.6 1.858a.381.381 0 0 1-.626.34 2.154 2.154 0 0 0-1.188-.487z" transform="translate(-366.78 -234.448)"/>
                </g>
            </g>
            <g id="Group_1087" transform="translate(110.221 201.446)">
                <path id="Path_1299" d="M359.015 239a.367.367 0 0 1-.183-.048 4.4 4.4 0 0 1-1.575-1.507l-3.766-1.629a.38.38 0 0 1 .3-.7l3.894 1.685a.383.383 0 0 1 .2.2 3.511 3.511 0 0 0 1.314 1.286.38.38 0 0 1-.185.712z" transform="translate(-353.262 -235.09)"/>
            </g>
            <g id="Group_1088" transform="translate(114.599 189.616)">
                <path id="Path_1300" d="M377.087 234a9.36 9.36 0 0 1-6.524-3.224c-.644.637-2.266 2-3.938 1.782a.379.379 0 0 1-.326-.426.39.39 0 0 1 .426-.327c1.743.226 3.54-1.817 3.558-1.837a.382.382 0 0 1 .574 0c2.276 2.609 4.958 3.387 6.557 3.259a2.118 2.118 0 0 0 1.7-.8c-.115-.914-7.323-6.52-9.915-7.606-1.751-.74-6.892 1.614-8.726 2.581a.376.376 0 0 1-.362 0l-2.522-1.409a.38.38 0 1 1 .371-.664l2.343 1.31c1.257-.649 6.94-3.458 9.19-2.516 2.081.874 9.767 6.41 10.313 8.133a.672.672 0 0 1-.049.58 2.837 2.837 0 0 1-2.282 1.156q-.186.008-.388.008z" transform="translate(-357.394 -223.926)"/>
            </g>
            <g id="Group_1099" transform="translate(48.077 23.272)">
                <g id="Group_1089">
                    <path id="Path_1301" d="M295 100.407a.36.36 0 0 1-.116-.018.38.38 0 0 1-.247-.477c5.521-17.478 16.967-32.667 17.082-32.818a.379.379 0 0 1 .3-.15h95.145a.38.38 0 0 1 .215.693 55.057 55.057 0 0 0-17.731 23.749.38.38 0 0 1-.71-.271 56.6 56.6 0 0 1 17.09-23.415h-93.819c-1.2 1.619-11.663 16.015-16.851 32.437a.378.378 0 0 1-.358.27z" transform="translate(-294.616 -66.944)"/>
                </g>
                <g id="Group_1090" transform="translate(59.256 154.729)">
                    <path id="Path_1302" d="M391.878 213.725h-40.962a.38.38 0 0 1 0-.76h40.961a.38.38 0 0 1 0 .76z" transform="translate(-350.537 -212.965)"/>
                </g>
                <g id="Group_1091" transform="translate(16.659 85.542)">
                    <path id="Path_1303" d="M328.157 194.2a.386.386 0 0 1-.377-.42c2.058-19.484-7.037-32.635-17.358-45.488a.38.38 0 1 1 .592-.476c10.425 12.983 19.61 26.273 17.521 46.044a.381.381 0 0 1-.378.34z" transform="translate(-310.338 -147.671)"/>
                </g>
                <g id="Group_1098" transform="translate(15.213 22.148)">
                    <g id="Group_1092" transform="translate(6.675)">
                        <path id="Path_1304" d="M355.97 88.606h-40.318a.38.38 0 1 1 0-.761h40.318a.38.38 0 0 1 0 .761z" transform="translate(-315.272 -87.845)"/>
                    </g>
                    <g id="Group_1093" transform="translate(.439 17.976)">
                        <path id="Path_1305" d="M343.164 105.569h-33.4a.38.38 0 0 1 0-.76h33.4a.38.38 0 0 1 0 .76z" transform="translate(-309.387 -104.809)"/>
                    </g>
                    <g id="Group_1094" transform="translate(0 34.711)">
                        <path id="Path_1306" d="M321.088 121.363h-11.736a.38.38 0 0 1 0-.761h11.736a.38.38 0 1 1 0 .761z" transform="translate(-308.973 -120.602)"/>
                    </g>
                    <g id="Group_1095" transform="translate(39.37 71.591)">
                        <path id="Path_1307" d="M408.7 156.167h-62.19a.38.38 0 0 1 0-.76h62.19a.38.38 0 0 1 0 .76z" transform="translate(-346.127 -155.407)"/>
                    </g>
                    <g id="Group_1096" transform="translate(48.768 89.567)">
                        <path id="Path_1308" d="M401.776 173.131h-46.4a.38.38 0 0 1 0-.76h46.4a.38.38 0 0 1 0 .76z" transform="translate(-354.996 -172.371)"/>
                    </g>
                    <g id="Group_1097" transform="translate(32.147 114.347)">
                        <path id="Path_1309" d="M363.574 202.11h-23.883a.38.38 0 0 1-.333-.565 11.927 11.927 0 0 0 1.336-5.4.38.38 0 0 1 .38-.39h23.93a.379.379 0 0 1 .376.332c.02.154.458 3.791-1.531 5.9a.379.379 0 0 1-.275.123zm-23.27-.76h23.1c1.314-1.522 1.3-3.954 1.25-4.834h-23.2a12.5 12.5 0 0 1-1.154 4.834z" transform="translate(-339.311 -195.756)"/>
                    </g>
                </g>
            </g>
            <g id="Group_1100" transform="translate(54.195 126.296)">
                <path id="Path_1310" d="M353.907 246.773a.373.373 0 0 1-.1-.014c-.228-.064-22.895-6.511-32.538-16.77a.38.38 0 1 1 .554-.521c8.876 9.443 29.069 15.641 31.866 16.466l9.064-21.655c-2.785-1.244-20.613-9.309-27.061-14.6-3.443-2.827-6.7-8.693-10.464-15.484-6.022-10.854-13.514-24.362-24.611-29.295a.38.38 0 1 1 .308-.7c11.331 5.036 18.892 18.668 24.967 29.62 3.73 6.724 6.951 12.531 10.282 15.267 6.774 5.562 27.023 14.556 27.226 14.646a.38.38 0 0 1 .2.495l-9.338 22.31a.382.382 0 0 1-.355.235z" transform="translate(-300.389 -164.17)"/>
            </g>
            <g id="Group_1101" transform="translate(68.391 150.897)">
                <path id="Path_1311" d="M321.521 243.731a.38.38 0 0 1-.379-.363c-.234-5.3-.521-10.757-.877-16.677-.937-15.65-6.413-38.607-6.468-38.837a.38.38 0 0 1 .739-.178c.056.231 5.547 23.253 6.489 38.969.355 5.922.643 11.382.876 16.689a.38.38 0 0 1-.362.4z" transform="translate(-313.786 -187.386)"/>
            </g>
            <g id="Group_1102" transform="translate(0 126.354)">
                <path id="Path_1312" d="M250.521 245.113a.381.381 0 0 1-.38-.368c-.57-18.182-1.167-42.193-.764-53.327.372-10.306 8.252-23.61 29.24-27.187a.376.376 0 0 1 .439.31.382.382 0 0 1-.31.44c-20.538 3.5-28.247 16.443-28.608 26.463-.4 11.113.194 35.107.764 53.277a.38.38 0 0 1-.368.392z" transform="translate(-249.245 -164.224)"/>
            </g>
            <g id="Group_1103" transform="translate(22.502 153.959)">
                <path id="Path_1313" d="M272.682 243.559a.381.381 0 0 1-.38-.361c-.9-18.593-1.822-43.33-1.822-52.541a.38.38 0 1 1 .76 0c0 9.2.926 33.92 1.822 52.5a.381.381 0 0 1-.361.4z" transform="translate(-270.48 -190.276)"/>
            </g>
            <g id="Group_1104" transform="translate(131.028 203.242)">
                <path id="Path_1314" d="M378.151 243.1a.376.376 0 0 1-.285-.129l-4.873-5.559a.38.38 0 1 1 .571-.5l4.873 5.559a.38.38 0 0 1-.286.63z" transform="translate(-372.898 -236.785)"/>
            </g>
            <g id="Group_1106" transform="translate(115.588 197.494)">
                <g id="Group_1105">
                    <path id="Path_1315" d="M365.375 247.487a2.978 2.978 0 0 1-2.307-.891 2.226 2.226 0 0 1-.508-1.647 2.613 2.613 0 0 1-1.9-.934 2.508 2.508 0 0 1-.291-2.567 2.819 2.819 0 0 1-1.482-.853 2.4 2.4 0 0 1-.341-2.486c1.076-1.765 6.48-5.947 7.9-6.7a.38.38 0 1 1 .358.671c-1.5.805-6.658 4.874-7.605 6.43a1.7 1.7 0 0 0 .274 1.6 2.429 2.429 0 0 0 1.494.676.379.379 0 0 1 .312.2.384.384 0 0 1-.008.372 1.831 1.831 0 0 0 .013 2.219 2.241 2.241 0 0 0 1.735.628.409.409 0 0 1 .336.165.379.379 0 0 1 .033.373 1.4 1.4 0 0 0 .282 1.383 2.429 2.429 0 0 0 2.075.584 14.826 14.826 0 0 0 4.3-1.363.379.379 0 1 1 .289.7 15.4 15.4 0 0 1-4.511 1.419c-.16.013-.306.021-.448.021z" transform="translate(-358.328 -231.361)"/>
                </g>
            </g>
            <g id="Group_1107" transform="translate(117.819 199.734)">
                <path id="Path_1316" d="M360.812 241.415a.38.38 0 0 1-.233-.68l9.256-7.18a.38.38 0 1 1 .465.6l-9.255 7.181a.385.385 0 0 1-.233.079z" transform="translate(-360.432 -233.475)"/>
            </g>
            <g id="Group_1108" transform="translate(164.659 201.474)">
                <path id="Path_1317" d="M405.016 240.885a.38.38 0 0 1-.333-.563 21.185 21.185 0 0 0 1.532-3.5l.551-1.456a.38.38 0 1 1 .71.271l-.55 1.454a21.966 21.966 0 0 1-1.577 3.6.38.38 0 0 1-.333.194z" transform="translate(-404.636 -235.117)"/>
            </g>
            <g id="Group_1109" transform="translate(138.032 140.937)">
                <path id="Path_1318" d="M387.842 243.978a.381.381 0 0 1-.315-.167c-5.169-7.653-7.978-17.908-8.007-18.011a.382.382 0 0 1 .251-.461l11.923-3.849c5.928-1.915 12.059-3.9 18.12-5.742 2.931-.894 6.254-2.207 8.686-5.167a38.168 38.168 0 0 0 4.157-6.842c.264-.508.525-1.016.79-1.52 2.162-4.094 11.555-20.269 14.216-24.072a.38.38 0 1 1 .622.437c-2.649 3.785-12.01 19.907-14.166 23.989-.265.5-.526 1.008-.786 1.513a38.73 38.73 0 0 1-4.246 6.977c-2.56 3.117-6.011 4.485-9.051 5.412-6.056 1.846-12.183 3.825-18.108 5.739l-11.573 3.736c.531 1.831 3.184 10.5 7.66 17.222 1.61-.341 10.7-2.285 20.517-4.638a.38.38 0 1 1 .178.739c-10.782 2.586-20.691 4.675-20.789 4.7a.335.335 0 0 1-.079.005z" transform="translate(-379.508 -177.987)"/>
            </g>
            <g id="Group_1113" transform="translate(104.535 49.178)">
                <g id="Group_1110" transform="translate(40.176 40.796)">
                    <path id="Path_1319" d="M403.469 144.536c-.188 0-17.766-.6-17.658-14.267a.379.379 0 1 1 .759.006c-.081 10.264 10.538 12.737 14.986 13.323-7.822-4.719-4.408-13.377-4.37-13.47a.38.38 0 0 1 .7.287c-.154.377-3.646 9.287 5.731 13.393a.38.38 0 0 1-.152.728z" transform="translate(-385.811 -129.892)"/>
                </g>
                <g id="Group_1111" transform="translate(17.335 40.796)">
                    <path id="Path_1320" d="M387.342 130.653h-22.708a.38.38 0 0 1 0-.761h22.708a.38.38 0 0 1 0 .761z" transform="translate(-364.255 -129.892)"/>
                </g>
                <g id="Group_1112">
                    <path id="Path_1321" d="M399.661 132.949a.38.38 0 0 1 0-.761 8.493 8.493 0 0 0 8.485-8.483v-23.068a8.494 8.494 0 0 0-8.485-8.485H357.14a8.494 8.494 0 0 0-8.485 8.485v18.476a.38.38 0 1 1-.76 0v-18.476a9.256 9.256 0 0 1 9.244-9.245h42.521a9.255 9.255 0 0 1 9.244 9.245V123.7a9.255 9.255 0 0 1-9.243 9.249z" transform="translate(-347.896 -91.392)"/>
                </g>
            </g>
            <g id="Group_1116" transform="translate(77.866 76.519)">
                <g id="Group_1114" transform="translate(2.04 29.797)">
                    <path id="Path_1322" d="M325.034 156.214a.38.38 0 0 1-.153-.728c6.754-2.959 4.243-9.378 4.134-9.65a.379.379 0 0 1 .209-.495.383.383 0 0 1 .495.208c.028.068 2.445 6.2-2.868 9.734 3.438-.491 10.48-2.377 10.423-9.587a.38.38 0 0 1 .76-.006c.079 10.078-12.859 10.521-12.99 10.524z" transform="translate(-324.654 -145.314)"/>
                </g>
                <g id="Group_1115">
                    <path id="Path_1323" d="M360.638 147.75h-22.772a.379.379 0 1 1 0-.759h22.772a6.1 6.1 0 0 0 6.094-6.1v-16.842a6.1 6.1 0 0 0-6.094-6.094h-31.056a6.1 6.1 0 0 0-6.1 6.094v16.846a6.1 6.1 0 0 0 6.1 6.1.379.379 0 1 1 0 .759 6.861 6.861 0 0 1-6.854-6.855v-16.85a6.862 6.862 0 0 1 6.854-6.855h31.056a6.862 6.862 0 0 1 6.854 6.855v16.846a6.862 6.862 0 0 1-6.854 6.855z" transform="translate(-322.728 -117.194)"/>
                </g>
            </g>
            <g id="Group_1117" transform="translate(182.361 116.717)">
                <path id="Path_1324" d="M424.771 162.668c-.191 0-.385-.008-.581-.025-2.43-.221-2.256-3.978-2.247-4.138l-.593-2.919a.38.38 0 0 1 .745-.149l.6 3.015c.005.126-.139 3.279 1.564 3.434a8.006 8.006 0 0 0 3.824-.76.38.38 0 1 1 .345.677 8.9 8.9 0 0 1-3.657.865z" transform="translate(-421.342 -155.13)"/>
            </g>
            <g id="Group_1118" transform="translate(158.875 203.243)">
                <path id="Path_1325" d="M399.558 240.767a.388.388 0 0 1-.377-.425l.393-3.222a.388.388 0 0 1 .423-.333.382.382 0 0 1 .333.423l-.393 3.223a.382.382 0 0 1-.379.334z" transform="translate(-399.178 -236.787)"/>
            </g>
            <g id="Group_1119" transform="translate(45.978 65.858)">
                <path id="Path_1326" d="M293.129 118.021a.381.381 0 0 1-.379-.349 37.259 37.259 0 0 1 .625-10.245.38.38 0 0 1 .741.172 36.4 36.4 0 0 0-.608 10.01.38.38 0 0 1-.347.41z" transform="translate(-292.635 -107.134)"/>
            </g>
            <g id="Group_1120" transform="translate(113.651 63.675)">
                <path id="Path_1327" d="M398.794 105.834h-41.916a.38.38 0 0 1 0-.761h41.916a.38.38 0 0 1 0 .761z" transform="translate(-356.499 -105.073)"/>
            </g>
            <g id="Group_1121" transform="translate(124.736 75.234)">
                <path id="Path_1328" d="M398.171 116.743h-30.832a.38.38 0 0 1 0-.761h30.831a.38.38 0 0 1 0 .761z" transform="translate(-366.96 -115.982)"/>
            </g>
            <g id="Group_1124" transform="translate(86.577 86.755)">
                <g id="Group_1122">
                    <path id="Path_1329" d="M359.9 127.614h-28.571a.38.38 0 1 1 0-.76H359.9a.38.38 0 1 1 0 .76z" transform="translate(-330.949 -126.854)"/>
                </g>
                <g id="Group_1123" transform="translate(0 8.821)">
                    <path id="Path_1330" d="M359.9 135.939h-28.571a.38.38 0 1 1 0-.76H359.9a.38.38 0 1 1 0 .76z" transform="translate(-330.949 -135.179)"/>
                </g>
            </g>
        </g>
    </g>
</svg>
