<svg xmlns="http://www.w3.org/2000/svg" width="27.4" height="27.4" viewBox="0 0 27.4 27.4">
    <defs>
        <style>
            .cls-1{fill:#f05050}
        </style>
    </defs>
    <g id="Group_1260" transform="translate(6272 -24.736)">
        <path id="Path_1048" d="M3.96 192.088a3.965 3.965 0 0 1-3.96-3.96V177.96a3.96 3.96 0 0 1 7.92 0v10.168a3.965 3.965 0 0 1-3.96 3.96zm0-15.948a1.822 1.822 0 0 0-1.82 1.82v10.168a1.82 1.82 0 1 0 3.639 0V177.96a1.822 1.822 0 0 0-1.819-1.819zm9.74 15.948a3.965 3.965 0 0 1-3.96-3.96v-4.388a3.96 3.96 0 0 1 7.92 0v4.388a3.965 3.965 0 0 1-3.96 3.96zm0-10.168a1.822 1.822 0 0 0-1.82 1.82v4.388a1.82 1.82 0 1 0 3.639 0v-4.388a1.822 1.822 0 0 0-1.819-1.82zm9.74 10.168a3.965 3.965 0 0 1-3.96-3.96v-9.365a3.96 3.96 0 0 1 7.92 0v9.365a3.965 3.965 0 0 1-3.96 3.96zm0-15.145a1.822 1.822 0 0 0-1.82 1.82v9.365a1.82 1.82 0 1 0 3.639 0v-9.365a1.822 1.822 0 0 0-1.819-1.82z" class="cls-1" transform="translate(-6272 -139.952)"/>
        <g id="Group_1258">
            <path id="Path_1047" fill="#f05050" d="M34.128 209.461a2.539 2.539 0 0 1-1.5.487 2.89 2.89 0 0 1-2.89-2.89v-4.388a2.89 2.89 0 0 1 2.89-2.89 2.539 2.539 0 0 1 1.5.487 2.887 2.887 0 0 0-1.284 2.4v4.388a2.887 2.887 0 0 0 1.284 2.406zm8.456-2.4v-9.365a2.887 2.887 0 0 1 1.284-2.4 2.539 2.539 0 0 0-1.5-.487 2.89 2.89 0 0 0-2.89 2.89v9.365a2.89 2.89 0 0 0 2.89 2.89 2.539 2.539 0 0 0 1.5-.487 2.887 2.887 0 0 1-1.284-2.409zm-19.48 0V196.89a2.887 2.887 0 0 1 1.284-2.4 2.539 2.539 0 0 0-1.5-.487A2.89 2.89 0 0 0 20 196.89v10.168a2.89 2.89 0 0 0 2.89 2.89 2.539 2.539 0 0 0 1.5-.487 2.887 2.887 0 0 1-1.29-2.403z" opacity="0.53" transform="translate(-6290.93 -158.882)"/>
            <path id="Path_1049" d="M14.713 13.055a3.73 3.73 0 0 1-2.32-.805c-.019-.015-6.851-6.22-6.851-6.22a1.6 1.6 0 0 0-2.028.07L1.823 7.772A1.07 1.07 0 0 1 .318 6.25l1.747-1.727a3.737 3.737 0 0 1 4.829-.153c.019.015 6.851 6.22 6.851 6.22a1.609 1.609 0 0 0 2.164-.2l.02-.022 5.933-6.232a1.07 1.07 0 0 1 1.55 1.476L17.49 11.83a3.743 3.743 0 0 1-2.777 1.225zM27.4 6.1V3.211A3.215 3.215 0 0 0 24.19 0H21.3a1.07 1.07 0 1 0 0 2.141h2.89a1.072 1.072 0 0 1 1.07 1.07V6.1a1.07 1.07 0 1 0 2.141 0z" class="cls-1" transform="translate(-6272 24.736)"/>
        </g>
    </g>
</svg>
