<svg xmlns="http://www.w3.org/2000/svg" width="16" height="16" viewBox="0 0 16 16">
    <defs>
        <linearGradient id="zabgksca1a" x1=".5" x2=".5" y2="1" gradientUnits="objectBoundingBox">
            <stop offset="0" stop-color="#f05050"/>
            <stop offset="1" stop-color="#f77"/>
        </linearGradient>
    </defs>
    <g>
        <g>
            <path fill="url(#zabgksca1a)" d="M16 24.041a8 8 0 1 0 8-8 8 8 0 0 0-8 8zm13.211.55l-.024.031a.709.709 0 0 1-.05.055l-4 4a.9.9 0 0 1-1.272-1.277l2.462-2.461H19.5a.9.9 0 1 1 0-1.8h6.827l-2.461-2.462a.9.9 0 1 1 1.272-1.273l4 4a.676.676 0 0 1 .052.057l.02.024a.2.2 0 0 1 .015.02.894.894 0 0 1 0 1.07z" transform="translate(-16 -16.041) translate(16 16.041) translate(-16 -16.041)"/>
        </g>
    </g>
</svg>
