<svg xmlns="http://www.w3.org/2000/svg" width="86" height="108.732" viewBox="0 0 86 108.732">
    <defs>
        <style>
            .cls-1{opacity:.3}.cls-7{fill:#6b184e}.cls-3{fill:#f9c710}.cls-4{fill:#f89f1d}.cls-5{opacity:.55}.cls-6{fill:#fff}.cls-8{opacity:.42}
        </style>
    </defs>
    <g id="Group_862" transform="translate(-2457 -2280.303)">
        <g id="Group_802" class="cls-1" transform="translate(2455 2378.877)">
            <ellipse id="Ellipse_58" cx="43" cy="5.079" fill="#6b184e" opacity="0.4" rx="43" ry="5.079" transform="translate(2)"/>
        </g>
        <g id="Group_861" transform="translate(2466.434 2280.303)">
            <g id="Group_849">
                <g id="Group_810" transform="translate(48.159 6.203)">
                    <g id="Group_803" transform="translate(.761 .761)">
                        <path id="Path_1063" d="M3210.188 2384.048l-.432.049c-2.978.359-4.805 1.022-5.8 2.181a2.773 2.773 0 0 1 .94 2.625 2.789 2.789 0 1 1-5.426-1.262 7.619 7.619 0 0 1 4.52-5.834 17.382 17.382 0 0 1 5.533-1.36.585.585 0 0 0 .082-.009l.092-.009a5.322 5.322 0 0 0-1.539-10.533c-.146.021-.292.046-.435.079l.006.03c.009.067.012.131.018.2v.009a2.743 2.743 0 0 1-.119 1.025 2.786 2.786 0 1 1-4.419-2.993 8.572 8.572 0 0 1 1.092-.772 8.973 8.973 0 1 1 5.888 16.579z" class="cls-3" transform="translate(-3199.36 -2366.192)"/>
                    </g>
                    <g id="Group_804" transform="translate(10.488 3.88)">
                        <path id="Path_1064" d="M3321.743 2415.156a5.32 5.32 0 0 0-2.381-9.964 2.578 2.578 0 0 0-.028-.375l-.006-.031c.143-.033.289-.057.435-.079a5.322 5.322 0 0 1 1.98 10.448z" class="cls-4" transform="translate(-3319.328 -2404.653)"/>
                    </g>
                    <g id="Group_805" class="cls-5" transform="translate(4.432 20.539)">
                        <path id="Path_1065" d="M3246.52 2612.151a2.791 2.791 0 0 1-1.88 3.045 2.79 2.79 0 0 0 .466-2.936 1.634 1.634 0 0 1 .735-2.134l.019-.009a3.565 3.565 0 0 0-.3.307 2.762 2.762 0 0 1 .96 1.727z" class="cls-6" transform="translate(-3244.64 -2610.116)"/>
                    </g>
                    <g id="Group_806" transform="translate(3.579 2.04)">
                        <path id="Path_1066" d="M3239.678 2384.7s-.046.432-.119 1.034a2.786 2.786 0 1 1-4.419-2.993 8.48 8.48 0 0 1 1.092-.772 2.209 2.209 0 1 0 3.446 2.731z" class="cls-4" transform="translate(-3234.113 -2381.963)"/>
                    </g>
                    <g id="Group_807" transform="translate(.761 16.378)">
                        <path id="Path_1067" d="M3204.893 2565.892a2.789 2.789 0 1 1-5.426-1.262 7.619 7.619 0 0 1 4.52-5.834c-3.154 3.045-2.531 9.815.906 7.096z" class="cls-4" transform="translate(-3199.36 -2558.799)"/>
                    </g>
                    <g id="Group_808" class="cls-5" transform="translate(4.761 .761)">
                        <path id="Path_1068" d="M3258.585 2383.017a8.972 8.972 0 0 0-9.894-14.9 8.972 8.972 0 1 1 9.894 14.9z" class="cls-6" transform="translate(-3248.691 -2366.192)"/>
                    </g>
                    <g id="Group_809">
                        <path id="Path_1069" d="M3193.526 2383.325a3.555 3.555 0 0 1-3.512-3.045 3.506 3.506 0 0 1 .078-1.4c1.185-6.769 8.112-7.527 10.721-7.812h.053l.123-.015a4.563 4.563 0 0 0-1.108-9.053 3.546 3.546 0 1 1-5.826-2.926l.044-.04a9.731 9.731 0 1 1 7.577 17.143l-.454.052a10.208 10.208 0 0 0-4.823 1.463 3.55 3.55 0 0 1-2.873 5.637zm-1.925-4.24a.767.767 0 0 1-.026.139 2.008 2.008 0 0 0-.055.84 2.029 2.029 0 1 0 4.016-.577 2.008 2.008 0 0 0-.694-1.253.76.76 0 0 1-.088-1.078c1.117-1.3 3.057-2.052 6.291-2.44l.436-.05a8.212 8.212 0 1 0-6.368-14.5c-.016.016-.032.03-.05.044a2 2 0 0 0-.725 1.856 2.027 2.027 0 1 0 4.013-.577.79.79 0 0 1 .578-.879c.164-.038.329-.068.5-.093a6.083 6.083 0 0 1 1.758 12.039l-.119.013c-.021 0-.06.009-.1.012-3.901.427-8.468 1.558-9.368 6.503z" class="cls-7" transform="translate(-3189.978 -2356.804)"/>
                    </g>
                </g>
                <g id="Group_818" transform="translate(0 6.203)">
                    <g id="Group_811" transform="translate(.761 .761)">
                        <path id="Path_1070" d="M2613.106 2384.048l.432.049c2.978.359 4.806 1.022 5.8 2.181a2.774 2.774 0 0 0-.94 2.625 2.789 2.789 0 1 0 5.426-1.262 7.62 7.62 0 0 0-4.52-5.834 17.379 17.379 0 0 0-5.533-1.36.589.589 0 0 1-.082-.009l-.091-.009a5.322 5.322 0 0 1 1.539-10.533c.146.021.292.046.435.079l-.006.03c-.009.067-.012.131-.019.2v.009a2.781 2.781 0 0 0 2.382 2.951 2.787 2.787 0 0 0 2.156-4.918 8.57 8.57 0 0 0-1.092-.772 8.973 8.973 0 1 0-5.888 16.579z" class="cls-3" transform="translate(-2605.409 -2366.192)"/>
                    </g>
                    <g id="Group_812" transform="translate(3.044 3.879)">
                        <path id="Path_1071" d="M2637.66 2415.156a5.32 5.32 0 0 1 2.381-9.964 2.578 2.578 0 0 1 .028-.375l.006-.031c-.143-.033-.289-.057-.435-.079a5.322 5.322 0 0 0-1.98 10.448z" class="cls-4" transform="translate(-2633.56 -2404.653)"/>
                    </g>
                    <g id="Group_813" class="cls-5" transform="translate(13.707 20.538)">
                        <path id="Path_1072" d="M2765.094 2612.151a2.791 2.791 0 0 0 1.88 3.045 2.789 2.789 0 0 1-.466-2.936 1.634 1.634 0 0 0-.735-2.134l-.019-.009a3.526 3.526 0 0 1 .3.307 2.762 2.762 0 0 0-.96 1.727z" class="cls-6" transform="translate(-2765.066 -2610.116)"/>
                    </g>
                    <g id="Group_814" transform="translate(10.903 2.039)">
                        <path id="Path_1073" d="M2730.493 2384.7s.046.432.119 1.034a2.786 2.786 0 1 0 4.419-2.993 8.466 8.466 0 0 0-1.092-.772 2.209 2.209 0 1 1-3.446 2.731z" class="cls-4" transform="translate(-2730.493 -2381.963)"/>
                    </g>
                    <g id="Group_815" transform="translate(13.753 16.378)">
                        <path id="Path_1074" d="M2765.643 2565.892a2.789 2.789 0 1 0 5.426-1.262 7.62 7.62 0 0 0-4.52-5.834c3.151 3.045 2.531 9.815-.906 7.096z" class="cls-4" transform="translate(-2765.643 -2558.799)"/>
                    </g>
                    <g id="Group_816" class="cls-5" transform="translate(.761 .761)">
                        <path id="Path_1075" d="M2610.036 2383.017a8.972 8.972 0 0 1 9.894-14.9 8.972 8.972 0 1 0-9.894 14.9z" class="cls-6" transform="translate(-2605.405 -2366.192)"/>
                    </g>
                    <g id="Group_817">
                        <path id="Path_1076" d="M2612.516 2383.33a3.5 3.5 0 0 1-.507-.037 3.549 3.549 0 0 1-2.366-5.6 10.215 10.215 0 0 0-4.827-1.463l-.428-.05a9.733 9.733 0 1 1 7.555-17.145.612.612 0 0 1 .045.041 3.548 3.548 0 1 1-5.832 2.923 4.562 4.562 0 0 0-1.075 9.057l.062.006.047.006c2.647.288 9.574 1.045 10.759 7.815a3.514 3.514 0 0 1 .078 1.4 3.556 3.556 0 0 1-3.511 3.047zm-6.769-25a8.225 8.225 0 0 0-8.124 7.044 8.221 8.221 0 0 0 6.96 9.3l.411.047c3.237.389 5.177 1.141 6.294 2.44a.76.76 0 0 1-.088 1.078 2.006 2.006 0 0 0-.694 1.254 2.029 2.029 0 1 0 4.016.577 2 2 0 0 0-.055-.84.776.776 0 0 1-.026-.141c-.9-4.945-5.466-6.074-9.358-6.5-.046 0-.089-.009-.132-.015l-.063-.007a6.081 6.081 0 0 1-2.78-10.889 6.032 6.032 0 0 1 4.51-1.153c.168.023.333.054.5.092a.761.761 0 0 1 .583.845 2.027 2.027 0 1 0 4.008.611 2 2 0 0 0-.725-1.856c-.018-.014-.035-.03-.051-.045a8.217 8.217 0 0 0-5.182-1.839zm-8.876 6.936z" class="cls-7" transform="translate(-2596.018 -2356.809)"/>
                    </g>
                </g>
                <g id="Group_836" transform="translate(12.503)">
                    <g id="Group_819" transform="translate(.76 .76)">
                        <rect id="Rectangle_217" width="42.43" height="4.258" class="cls-3" rx="2.129"/>
                    </g>
                    <g id="Group_820" class="cls-5" transform="translate(15.259 1.115)">
                        <path id="Rectangle_218" d="M0 0H10.899V3.903H0z" class="cls-6"/>
                    </g>
                    <g id="Group_821" class="cls-5" transform="translate(27.501 1.115)">
                        <path id="Rectangle_219" d="M0 0H2.053V3.903H0z" class="cls-6"/>
                    </g>
                    <g id="Group_822" transform="translate(.76 .76)">
                        <path id="Path_1077" d="M2766.39 2293.939h-4.663a2.129 2.129 0 0 1 0-4.258h4.663a2.129 2.129 0 1 0 0 4.258z" class="cls-4" transform="translate(-2759.598 -2289.681)"/>
                    </g>
                    <g id="Group_823" class="cls-5" transform="translate(38.424 .76)">
                        <path id="Path_1078" d="M3228.886 2291.81a2.128 2.128 0 0 1-2.129 2.129h-2.637a2.129 2.129 0 1 0 0-4.258h2.637a2.127 2.127 0 0 1 2.129 2.129z" class="cls-6" transform="translate(-3224.12 -2289.681)"/>
                    </g>
                    <g id="Group_824">
                        <path id="Path_1079" d="M2791.281 2286.082h-38.172a2.889 2.889 0 1 1 0-5.779h38.172a2.889 2.889 0 1 1 0 5.779zm-38.172-4.258a1.368 1.368 0 1 0 0 2.737h38.172a1.368 1.368 0 1 0 0-2.737z" class="cls-7" transform="translate(-2750.22 -2280.303)"/>
                    </g>
                    <g id="Group_825" transform="translate(2.889 5.019)">
                        <path id="Path_1080" d="M2823.521 2342.2l-.268 2.129-2.153 17.036a16.629 16.629 0 0 1-33.014-.146l-1.98-16.89-.25-2.129z" class="cls-3" transform="translate(-2785.857 -2342.199)"/>
                    </g>
                    <g id="Group_826" transform="translate(2.889 5.019)">
                        <path id="Path_1081" d="M2823.253 2344.328h-25.271a6.415 6.415 0 0 0-6.371 7.164l.913 7.774c.979 8.376 8.018 15.377 16.449 15.377 1.524 0 3.069-.893 4.477-1.282a16.63 16.63 0 0 1-25.364-12.142l-1.98-16.89-.25-2.129h37.664z" class="cls-4" transform="translate(-2785.857 -2342.199)"/>
                    </g>
                    <g id="Group_827" class="cls-5" transform="translate(20.324 5.019)">
                        <path id="Path_1082" d="M3021.111 2342.2l-2.421 19.165a16.627 16.627 0 0 1-16.5 14.545c-.441 0-.879-.018-1.311-.052a16.631 16.631 0 0 0 15.175-14.493l2.421-19.165z" class="cls-6" transform="translate(-3000.881 -2342.199)"/>
                    </g>
                    <g id="Group_828" transform="translate(2.035 4.258)">
                        <path id="Path_1083" d="M2794.916 2368.049a17.391 17.391 0 0 1-17.271-15.364l-2.331-19.869h39.386l-2.529 20.022a17.421 17.421 0 0 1-17.255 15.211zm-17.892-33.711l2.131 18.171a15.868 15.868 0 0 0 31.5.139l2.313-18.31z" class="cls-7" transform="translate(-2775.315 -2332.817)"/>
                    </g>
                    <g id="Group_829" transform="translate(13.931 38.052)">
                        <rect id="Rectangle_220" width="15.269" height="3.922" class="cls-3" rx="1.961"/>
                    </g>
                    <g id="Group_830" transform="translate(13.93 38.053)">
                        <path id="Path_1084" d="M2927.568 2753.548h-3.577a1.963 1.963 0 0 1-1.962-1.962 1.963 1.963 0 0 1 1.962-1.958h3.577a1.964 1.964 0 0 0-1.959 1.958 1.961 1.961 0 0 0 1.959 1.962z" class="cls-4" transform="translate(-2922.029 -2749.627)"/>
                    </g>
                    <g id="Group_831" class="cls-5" transform="translate(24.5 38.053)">
                        <path id="Path_1085" d="M3057.085 2751.585a1.963 1.963 0 0 1-1.962 1.962h-2.737a1.96 1.96 0 1 0 0-3.921h2.737a1.96 1.96 0 0 1 1.962 1.959z" class="cls-6" transform="translate(-3052.386 -2749.627)"/>
                    </g>
                    <g id="Group_832" class="cls-5" transform="translate(21.076 38.324)">
                        <path id="Rectangle_221" d="M0 0H1.869V3.65H0z" class="cls-6"/>
                    </g>
                    <g id="Group_833" transform="translate(13.17 37.292)">
                        <path id="Path_1086" d="M2926.722 2745.677h-11.347a2.721 2.721 0 0 1 0-5.443h11.347a2.721 2.721 0 0 1 0 5.443zm-11.347-3.922a1.2 1.2 0 1 0 0 2.4h11.347a1.2 1.2 0 1 0 0-2.4z" class="cls-7" transform="translate(-2912.654 -2740.234)"/>
                    </g>
                    <g id="Group_834" class="cls-8" transform="translate(28.802 21.587)">
                        <path id="Path_1087" d="M3108.159 2546.577c1.245.3 1.847 2.243 1.344 4.343s-1.921 3.56-3.167 3.261-.96-2.03-.457-4.13 1.034-3.772 2.28-3.474z" class="cls-6" transform="translate(-3105.45 -2546.542)"/>
                    </g>
                    <g id="Group_835" class="cls-8" transform="translate(25.366 30.408)">
                        <path id="Path_1088" d="M3065.589 2658.12a1.6 1.6 0 0 1-2.237-.313 1.607 1.607 0 0 1 2.549-1.923 1.6 1.6 0 0 1-.312 2.236z" class="cls-6" transform="translate(-3063.065 -2655.331)"/>
                    </g>
                </g>
                <g id="Group_837" transform="translate(30.669 41.974)">
                    <path id="Rectangle_222" d="M0 0H7.112V15.005H0z" class="cls-3"/>
                </g>
                <g id="Group_838" transform="translate(31.006 41.974)">
                    <path id="Path_1089" d="M2985.286 2799.807l-6.863 2.636v-4.461h6.774z" class="cls-4" transform="translate(-2978.423 -2797.981)"/>
                </g>
                <g id="Group_839" class="cls-5" transform="translate(36.379 44.002)">
                    <path id="Path_1090" d="M3045.657 2822.99a18.459 18.459 0 0 0 0 11.761z" class="cls-6" transform="translate(-3044.696 -2822.99)"/>
                </g>
                <g id="Group_840" transform="translate(29.908 41.214)">
                    <path id="Path_1091" d="M2972.76 2805.13h-7.111a.76.76 0 0 1-.76-.76v-15a.76.76 0 0 1 .76-.761h7.111a.76.76 0 0 1 .76.761v15a.76.76 0 0 1-.76.76zm-6.351-1.521H2972v-13.484h-5.591z" class="cls-7" transform="translate(-2964.888 -2788.604)"/>
                </g>
                <g id="Group_841" transform="translate(25.607 56.049)">
                    <path id="Path_1092" d="M2926.094 2976.473h-11.8a2.451 2.451 0 0 1-2.451-2.451 2.451 2.451 0 0 1 2.451-2.451h11.8a2.451 2.451 0 0 1 2.451 2.451 2.451 2.451 0 0 1-2.451 2.451z" class="cls-3" transform="translate(-2911.842 -2971.571)"/>
                </g>
                <g id="Group_842" transform="translate(25.606 56.047)">
                    <path id="Path_1093" d="M2917.659 2976.456h-3.382a2.452 2.452 0 1 1 0-4.9h3.382a2.452 2.452 0 0 0 0 4.9z" class="cls-4" transform="translate(-2911.825 -2971.553)"/>
                </g>
                <g id="Group_843" class="cls-5" transform="translate(37.553 56.047)">
                    <path id="Path_1094" d="M3063.933 2974a2.451 2.451 0 0 1-2.452 2.452h-2.305a2.452 2.452 0 0 0 0-4.9h2.305a2.452 2.452 0 0 1 2.452 2.448z" class="cls-6" transform="translate(-3059.176 -2971.553)"/>
                </g>
                <g id="Group_844" transform="translate(24.847 55.288)">
                    <path id="Path_1095" d="M2917.478 2968.615h-11.8a3.211 3.211 0 1 1 0-6.423h11.8a3.211 3.211 0 0 1 0 6.423zm-11.8-4.9a1.69 1.69 0 1 0 0 3.381h11.8a1.69 1.69 0 1 0 0-3.381z" class="cls-7" transform="translate(-2902.466 -2962.192)"/>
                </g>
                <g id="Group_845" transform="translate(16.521 60.95)">
                    <path id="Path_1096" d="M2833.472 3038.551a1.433 1.433 0 0 1-1.433 1.433H2801.2a1.431 1.431 0 0 1-1.43-1.433 6.516 6.516 0 0 1 6.524-6.527h20.646a6.528 6.528 0 0 1 6.532 6.527z" class="cls-3" transform="translate(-2799.774 -3032.024)"/>
                </g>
                <g id="Group_846" transform="translate(16.521 61.27)">
                    <path id="Path_1097" d="M2815.226 3043.6H2801.2a1.43 1.43 0 0 1-1.43-1.433 6.537 6.537 0 0 1 4.5-6.208c.352 5.26 4.82 7.134 10.956 7.641z" class="cls-4" transform="translate(-2799.774 -3035.963)"/>
                </g>
                <g id="Group_847" class="cls-5" transform="translate(17.217 60.95)">
                    <path id="Path_1098" d="M2841.365 3038.551a1.432 1.432 0 0 1-.991 1.363 6.529 6.529 0 0 0-5.463-6.36c-.483 1.682-4.4 1.655-4.772-.085H2813.2a6.493 6.493 0 0 0-4.614 1.913c-.076.076-.152.158-.225.237a6.522 6.522 0 0 1 5.828-3.595h20.646a6.528 6.528 0 0 1 6.53 6.527z" class="cls-6" transform="translate(-2808.364 -3032.024)"/>
                </g>
                <g id="Group_848" transform="translate(15.759 60.19)">
                    <path id="Path_1099" d="M2823.41 3032.126h-30.834a2.195 2.195 0 0 1-2.193-2.193 7.3 7.3 0 0 1 7.287-7.287h20.645a7.3 7.3 0 0 1 7.287 7.287 2.195 2.195 0 0 1-2.192 2.193zm-25.74-7.959a5.773 5.773 0 0 0-5.767 5.766.673.673 0 0 0 .672.672h30.834a.673.673 0 0 0 .672-.672 5.773 5.773 0 0 0-5.767-5.766z" class="cls-7" transform="translate(-2790.383 -3022.646)"/>
                </g>
            </g>
            <g id="Group_860" transform="translate(2.133 68.15)">
                <g id="Group_850" transform="translate(.762 .762)">
                    <path id="Path_1100" fill="#e03e29" d="M2692.832 3133.6v26.849a3.391 3.391 0 0 1-3.391 3.391h-54.319a3.391 3.391 0 0 1-3.391-3.391V3133.6a3.388 3.388 0 0 1 3.391-3.391h54.319a3.388 3.388 0 0 1 3.391 3.391z" transform="translate(-2631.731 -3130.212)"/>
                </g>
                <g id="Group_851" class="cls-5" transform="translate(1.134 .762)">
                    <path id="Path_1101" d="M2697.047 3133.6v26.849a3.392 3.392 0 0 1-2.685 3.318 3.409 3.409 0 0 0 .372-1.549v-26.849a3.394 3.394 0 0 0-3.4-3.391h-54.314a3.3 3.3 0 0 0-.7.073 3.393 3.393 0 0 1 3.02-1.843h54.319a3.388 3.388 0 0 1 3.388 3.392z" class="cls-6" transform="translate(-2636.317 -3130.212)"/>
                </g>
                <g id="Group_852">
                    <path id="Path_1102" d="M2680.8 3155.968h-54.32a4.158 4.158 0 0 1-4.153-4.153v-26.847a4.158 4.158 0 0 1 4.153-4.153h54.32a4.158 4.158 0 0 1 4.153 4.153v26.847a4.158 4.158 0 0 1-4.153 4.153zm-54.32-33.632a2.635 2.635 0 0 0-2.632 2.632v26.847a2.635 2.635 0 0 0 2.632 2.632h54.32a2.635 2.635 0 0 0 2.632-2.632v-26.847a2.635 2.635 0 0 0-2.632-2.632z" class="cls-7" transform="translate(-2622.329 -3120.815)"/>
                </g>
                <g id="Group_853" transform="translate(14.332 9.601)">
                    <rect id="Rectangle_223" width="33.505" height="13.54" class="cls-3" rx="6.77"/>
                </g>
                <g id="Group_854" class="cls-1" transform="translate(12.493 11.095)">
                    <path id="Path_1103" d="M2809.8 3269.69a2.186 2.186 0 0 1-2.076 1.492H2778.6a2.188 2.188 0 0 1-2.19-2.19v-9.157a2.191 2.191 0 0 1 1.953-2.178 2.154 2.154 0 0 0-.114.695v9.161a2.19 2.19 0 0 0 2.19 2.19h29.125a2.15 2.15 0 0 0 .236-.013z" class="cls-7" transform="translate(-2776.411 -3257.657)"/>
                </g>
                <g id="Group_855" class="cls-1" transform="translate(14.332 9.747)">
                    <path id="Path_1104" d="M2832.481 3252.913a2.188 2.188 0 0 1-2.08 1.508h-29.125a2.19 2.19 0 0 1-2.19-2.19v-9.161a2.189 2.189 0 0 1 1.406-2.043 2.089 2.089 0 0 0-.11.682v9.161a2.19 2.19 0 0 0 2.19 2.19h29.128a2.177 2.177 0 0 0 .781-.147z" class="cls-7" transform="translate(-2799.087 -3241.027)"/>
                </g>
                <g id="Group_856" class="cls-5" transform="translate(14.332 9.6)">
                    <path id="Path_1105" d="M2832.592 3241.4v9.161a2.186 2.186 0 0 1-1.226 1.965v-9.185a2.19 2.19 0 0 0-2.19-2.19h-29.125a2.175 2.175 0 0 0-.964.225 2.191 2.191 0 0 1 2.19-2.166h29.123a2.19 2.19 0 0 1 2.192 2.19z" class="cls-6" transform="translate(-2799.087 -3239.213)"/>
                </g>
                <g id="Group_857" transform="translate(13.571 8.841)">
                    <path id="Path_1106" d="M2821.784 3244.91h-29.125a2.954 2.954 0 0 1-2.95-2.951v-9.159a2.954 2.954 0 0 1 2.95-2.951h29.125a2.954 2.954 0 0 1 2.95 2.951v9.159a2.954 2.954 0 0 1-2.95 2.951zm-29.125-13.54a1.431 1.431 0 0 0-1.43 1.43v9.159a1.432 1.432 0 0 0 1.43 1.43h29.125a1.431 1.431 0 0 0 1.43-1.43v-9.159a1.431 1.431 0 0 0-1.43-1.43z" class="cls-7" transform="translate(-2789.709 -3229.849)"/>
                </g>
                <g id="Group_858" transform="translate(22.324 14.89)">
                    <rect id="Rectangle_224" width="17.978" height="2.962" class="cls-6" rx="1.481"/>
                </g>
                <g id="Group_859" class="cls-1" transform="translate(.762 .762)">
                    <path id="Path_1107" d="M2670.429 3163.77l-.086.073h-35.221a3.391 3.391 0 0 1-3.391-3.391V3133.6a3.388 3.388 0 0 1 3.391-3.391c-.686 23.979 12.123 34.096 35.307 33.561z" class="cls-7" transform="translate(-2631.731 -3130.212)"/>
                </g>
            </g>
        </g>
    </g>
</svg>
