<svg xmlns="http://www.w3.org/2000/svg" width="64.033" height="64.033" viewBox="0 0 64.033 64.033">
    <path fill="#c6e1f2" d="M48.046 78.633A29.332 29.332 0 0 1 49.678 20a30.294 30.294 0 0 1 3.773.235 29.278 29.278 0 0 0-4.966 57.148l-.438 1.25zM69.3 54.809a6.811 6.811 0 0 1 3.144-5.73 6.838 6.838 0 1 0 0 11.459 6.811 6.811 0 0 1-3.144-5.729z" transform="translate(-17.324 -17.324)"/>
    <path fill="#3e92ff" d="M42.223 26.263a2.5 2.5 0 0 1-2.468-2.137 67.242 67.242 0 0 0-2.415-10.372 2.5 2.5 0 1 1 4.768-1.5A72.172 72.172 0 0 1 44.7 23.4a2.5 2.5 0 0 1-2.475 2.866zm-6.5 3.251H23.678a64.564 64.564 0 0 1 3.084-15.76 2.5 2.5 0 1 0-4.768-1.5 69.053 69.053 0 0 0-3.319 17.256h-6.183a2.5 2.5 0 0 0 0 5h6.183a69.368 69.368 0 0 0 3.3 17.252 2.5 2.5 0 1 0 4.771-1.488A64.87 64.87 0 0 1 23.68 34.51h12.046a2.5 2.5 0 0 0 0-5zm25.336-2.967a2.5 2.5 0 0 1-3.07-1.747 26.99 26.99 0 1 0-26.926 34.214 2.5 2.5 0 0 1-.082 5h-.085A32.025 32.025 0 0 1 9.366 9.377a31.954 31.954 0 0 1 42.141-2.716 32.228 32.228 0 0 1 11.3 16.81 2.5 2.5 0 0 1-1.743 3.077zm-10.218 1.592a9.38 9.38 0 1 0 9.369 9.38 9.385 9.385 0 0 0-9.369-9.38zm0 13.757a4.377 4.377 0 1 1 4.372-4.377 4.38 4.38 0 0 1-4.372 4.381z"/>
    <path fill="#f05050" d="M327.422 409.788a2.676 2.676 0 0 1-2.676-2.676 7.756 7.756 0 0 0-7.733-7.76h-1.928a7.756 7.756 0 0 0-7.733 7.76 2.676 2.676 0 1 1-5.352 0A13.114 13.114 0 0 1 315.085 394h1.928a13.114 13.114 0 0 1 13.087 13.112 2.676 2.676 0 0 1-2.678 2.676z" transform="translate(-266.065 -345.755)"/>
</svg>
