<svg xmlns="http://www.w3.org/2000/svg" width="90" height="105" viewBox="0 0 90 105">
    <defs>
        <clipPath id="clip-path">
            <rect id="Rectangle_29" width="90" height="71" class="cls-1" rx="12" transform="translate(0 .231)"/>
        </clipPath>
        <clipPath id="clip-path-2">
            <path id="Path_544" fill="none" d="M1579.575 553.463c.1 1.523 3.211 4.534 6.079 4.355s5.587-3.551 5.492-5.075-2.945-.264-5.812-.085-5.853-.718-5.759.805z" transform="translate(-1579.573 -552)"/>
        </clipPath>
        <clipPath id="clip-path-3">
            <rect id="Rectangle_32" width="90" height="51" class="cls-1" rx="12" transform="translate(0 -.466)"/>
        </clipPath>
        <style>
            .cls-1{fill:#96ccf2}.cls-3{fill:#fff}.cls-5{fill:#00d5a2}.cls-6{fill:#333}.cls-7{fill:#f7b69f}.cls-8{fill:#ce8474}.cls-9{fill:#f9ddb4}.cls-10{fill:#e6e6e6}.cls-11{fill:#bc3f3f}.cls-12{fill:#00a47d}.cls-13{fill:#534741}.cls-14{fill:#4c312e}.cls-15{fill:#a05c5c}.cls-16{fill:#3f342f}.cls-17{fill:#634f47}.cls-18{fill:#f2f2f2}.cls-19{clip-path:url(#clip-path-2)}.cls-20{fill:#8e2430}.cls-22{fill:#f15a24}.cls-23{fill:#d35029}
        </style>
    </defs>
    <g id="Group_391" transform="translate(0 .941)">
        <rect id="Rectangle_30" width="90" height="71" class="cls-3" rx="12" transform="translate(0 32.059)"/>
        <g id="Mask_Group_6" clip-path="url(#clip-path)" transform="translate(0 32.828)">
            <g id="Group_389" transform="translate(-.204 -24.324)">
                <g id="Group_327">
                    <ellipse id="Ellipse_15" cx="27.743" cy="12.132" class="cls-5" rx="27.743" ry="12.132" transform="translate(17.744 66.897)"/>
                    <ellipse id="Ellipse_16" cx="18.724" cy="9.674" class="cls-6" rx="18.724" ry="9.674" transform="translate(26.582 69.508)"/>
                    <path id="Path_495" d="M1556.706 586.7l-.727-15.7h-22.012l-.725 15.637c-6.055 1.237-10.078 3.4-10.078 5.875 0 3.852 10.85 8.578 22.813 8.578s20.507-4.722 20.507-8.574c0-2.438-3.89-4.571-9.778-5.816z" class="cls-7" transform="translate(-1500.284 -508.148)"/>
                    <g id="Group_323" transform="translate(35.851 63.922)">
                        <path id="Path_496" d="M1583.935 588.407l.4 2.946c.361 1.857-3.235 4.4 2.65 3.682 4.468-.546 17.542 5.4 18.069 7.251.8-3.17-12.285-12.366-18.951-13.265l-.68-13.147-20.6-1.441-.048 2.862c6.508 5.543 11.152 8.877 14.1 8.05a4.007 4.007 0 0 1 5.06 3.062z" class="cls-8" transform="translate(-1564.781 -574.433)"/>
                    </g>
                    <g id="Group_324" transform="translate(23.299 62.769)">
                        <path id="Path_497" d="M1525.659 593.462c0-2.48 3.764-4.659 9.43-5.9l.678-15.678-1.152-1.152-.678 15.678c-5.666 1.237-9.43 3.416-9.43 5.9 0 1.272 1.112 2.981 3 4.7a5.99 5.99 0 0 1-1.848-3.548z" class="cls-9" transform="translate(-1524.507 -570.735)"/>
                    </g>
                    <path id="Path_498" d="M1550.092 639.325c-3.215-5.3-9.585-11.3-22.179-14.472a17.482 17.482 0 0 1-14.82 7.732 16.878 16.878 0 0 1-15.372-8.507c-11.965 2.785-18.656 9.637-22.276 15.247z" class="cls-10" transform="translate(-1467.438 -544.684)"/>
                    <g id="Group_325" transform="translate(25.588 79.232)">
                        <path id="Path_499" d="M1551.922 636.169c9.254.35 16.427-7.636 18.824-10.691q-1.892-.6-4-1.112a17.461 17.461 0 0 1-14.819 7.8 16.872 16.872 0 0 1-15.372-8.6c-1.666.388-3.228.819-4.7 1.284a24.006 24.006 0 0 0 20.067 11.319z" class="cls-11" transform="translate(-1531.854 -623.557)"/>
                    </g>
                    <path id="Path_500" d="M1481.278 625.587c-1.689-9.35-4.3-21.468-4.3-21.468-16.785 4.733-24.067 14.3-27.226 21.468z" class="cls-5" transform="translate(-1449.752 -530.945)"/>
                    <path id="Path_501" d="M1505.413 598.021c.3-4.768 5.676-8.76 14.528-10.738.027-.082.106-.485.128-.53-9.86 1.788-16.385 6.159-16.385 11.268 0 2.6 1.8 5 4.86 6.972a.189.189 0 0 0 .244-.285c-1.329-1.45-3.534-4.168-3.375-6.687z" class="cls-12" transform="translate(-1486.875 -518.992)"/>
                    <path id="Path_502" d="M1668.27 625.587c-3.578-7.168-10.823-16.565-25.258-21.468 0 0-3.659 12.118-5.857 21.468z" class="cls-5" transform="translate(-1578.748 -530.945)"/>
                    <ellipse id="Ellipse_17" cx="7.801" cy="4.432" class="cls-8" rx="7.801" ry="4.432" transform="rotate(-76.11 62.452 -13.656)"/>
                    <ellipse id="Ellipse_18" cx="4.57" cy="8.568" class="cls-7" rx="4.57" ry="8.568" transform="rotate(-17.06 132.865 -30.235)"/>
                    <path id="Path_503" d="M1504.082 495.546c-1.386-4.524-.553-8.791 1.86-9.53a3.772 3.772 0 0 1 3.542 1.187c-1.32-1.45-2.816-2.162-4.119-1.763-2.413.739-3.246 5.006-1.86 9.53a12.778 12.778 0 0 0 3.336 5.667 13.537 13.537 0 0 1-2.759-5.091z" class="cls-9" transform="translate(-1486.291 -449.179)"/>
                    <path id="Path_504" d="M1536.663 383.619c-10.548 0-23.628 10.025-23.628 22.719 0 7.843 5.027 31.484 8.611 35.251 3.884 4.082 9.993 9.271 15.914 9.4 8.687.192 13.719-7.278 17.4-11.8 3.393-4.169 5.331-25.163 5.331-32.853-.001-12.693-13.081-22.717-23.628-22.717z" class="cls-7" transform="translate(-1493.312 -379.168)"/>
                    <path id="Path_505" d="M1584.182 383.619a17.856 17.856 0 0 0-2.111.129c9.952.9 21.347 9.35 22.231 20.8.592 7.668.276 28.748-2.787 33.166-3.32 4.792-7.763 12.627-16.439 13.1a11.573 11.573 0 0 1-2.158-.092 11.574 11.574 0 0 0 2.161.261c8.687.192 13.719-7.278 17.4-11.8 3.393-4.17 5.619-25.163 5.619-32.853.002-12.687-13.368-22.711-23.916-22.711z" class="cls-8" transform="translate(-1540.832 -379.168)"/>
                    <path id="Path_506" d="M1539 453.333c-5.922-.131-12.031-5.319-15.914-9.4-3.583-3.767-8.612-27.409-8.612-35.251 0-9.4 7.173-17.336 15.179-20.821-8.565 3.12-16.619 11.436-16.619 21.4 0 7.843 5.027 31.484 8.611 35.251 3.884 4.082 9.993 9.271 15.914 9.4a14.045 14.045 0 0 0 6.3-1.322 13.984 13.984 0 0 1-4.859.743z" class="cls-9" transform="translate(-1493.312 -382.086)"/>
                    <path id="Path_507" d="M1547.373 480.933c-2.458 0-4.958 1.883-4.451 4.076.5 2.15 1.269 4.076 4.451 4.076 3.093 0 4.212-1.968 4.451-4.076.254-2.237-1.992-4.076-4.451-4.076z" class="cls-13" transform="translate(-1513.839 -446.152)"/>
                    <path id="Path_508" d="M1614.051 480.933c-2.458 0-4.957 1.883-4.451 4.076.5 2.15 1.269 4.076 4.451 4.076 3.093 0 4.212-1.968 4.451-4.076.254-2.237-1.993-4.076-4.451-4.076z" class="cls-13" transform="translate(-1559.736 -446.152)"/>
                    <path id="Path_509" d="M1547.373 484.352c-2.458 0-4.958 1.883-4.451 4.076.5 2.151 1.269 4.076 4.451 4.076 3.093 0 4.212-1.968 4.451-4.076.254-2.237-1.992-4.076-4.451-4.076z" class="cls-3" transform="translate(-1513.839 -448.506)"/>
                    <ellipse id="Ellipse_19" cx="2.638" cy="2.957" class="cls-14" rx="2.638" ry="2.957" transform="translate(31.002 36.756)"/>
                    <path id="Path_510" d="M1560.528 492.752c-.347 0-.629.43-.629.959s.282.959.629.959.629-.43.629-.959-.281-.959-.629-.959z" class="cls-3" transform="translate(-1525.571 -454.288)"/>
                    <path id="Path_511" d="M1614 484.352c-2.458 0-4.7 1.839-4.451 4.076.239 2.108 1.359 4.076 4.451 4.076 3.182 0 3.954-1.926 4.451-4.076.502-2.193-1.997-4.076-4.451-4.076z" class="cls-3" transform="translate(-1559.729 -448.506)"/>
                    <ellipse id="Ellipse_20" cx="2.638" cy="2.957" class="cls-14" rx="2.638" ry="2.957" transform="translate(51.524 36.756)"/>
                    <path id="Path_512" d="M1626.375 492.752c-.348 0-.63.43-.63.959s.282.959.63.959.629-.43.629-.959-.281-.959-.629-.959z" class="cls-3" transform="translate(-1570.894 -454.288)"/>
                    <path id="Path_513" d="M1583.438 521.617c-2.274 0-4.117.809-4.117 1.806s1.843 1.806 4.117 1.806 4.116-.809 4.116-1.806-1.843-1.806-4.116-1.806z" class="cls-8" transform="translate(-1538.939 -474.156)"/>
                    <path id="Path_514" d="M1577.622 526.871c-.717-.318-1.448-.235-1.634.184s.246 1.016.963 1.334 1.449.235 1.635-.184-.246-1.017-.964-1.334z" class="cls-15" transform="translate(-1536.615 -477.64)"/>
                    <path id="Path_515" d="M1600.507 526.871c-.717.317-1.148.914-.963 1.334s.917.5 1.635.184 1.148-.914.963-1.334-.918-.501-1.635-.184z" class="cls-15" transform="translate(-1552.829 -477.64)"/>
                    <path id="Path_516" d="M1581.644 529.407a4.39 4.39 0 0 0 6.664-.1 8.711 8.711 0 0 1-6.664.1z" class="cls-15" transform="translate(-1540.537 -479.447)"/>
                    <path id="Path_517" d="M1533.333 461.021c-.424.386.005 2.186.542 1.983a16.608 16.608 0 0 1 11.163-.082c7.427 2.437-3.973-8.936-11.705-1.901z" class="cls-13" transform="translate(-1507.165 -430.842)"/>
                    <path id="Path_518" d="M1606.668 462.994a16.591 16.591 0 0 1 11.27.359c.506.208.928-1.553.535-1.934-7.582-7.353-19.309 3.865-11.805 1.575z" class="cls-13" transform="translate(-1556.103 -430.975)"/>
                    <path id="Path_519" d="M1596.679 492.035c.728-4.525-5.671 3.982 1.11 7.24a10.582 10.582 0 0 1-1.11-7.24z" class="cls-8" transform="translate(-1549.484 -452.901)"/>
                    <path id="Path_520" d="M1576.938 402.2c-2.42-10.668-13.789-18.581-23.16-18.581-4.823 0-10.175 2.1-14.565 5.586a12.836 12.836 0 0 0-1.313 2.841c2.788 10.808 19.494 5.9 27.379 3.406 6.367-2.017 10.358 4.258 11.659 6.748z" class="cls-8" transform="translate(-1510.427 -379.168)"/>
                    <path id="Path_521" d="M1603.024 407.453s15.009 1.156 16.71 14.793 3.485 6.064 3.485 6.064 1.361-8.819 0-13.689-9.596-17.349-20.195-7.168z" class="cls-13" transform="translate(-1555.254 -392.897)"/>
                    <path id="Path_522" d="M1621.291 415.717c1.484 3.246 1.934 8.641 2.071 11.538.309-2.483.932-8.788-.143-12.635-1.361-4.871-9.6-17.348-20.2-7.168a16.608 16.608 0 0 1 1.682.25c7.534-4.137 14.836 4.179 16.59 8.015z" class="cls-16" transform="translate(-1555.254 -392.897)"/>
                    <path id="Path_523" d="M1519.914 398.52s-8.972 7.016-8.622 22.536c.192 8.51-4.06-1.852-4.06-1.852s-4.371-19.721 10.7-25.475 1.982 4.791 1.982 4.791z" class="cls-6" transform="translate(-1488.912 -384.944)"/>
                    <path id="Path_524" d="M1508.1 420.068s-4.187-18.221 10.881-23.975c3.383-1.292 5.16-3.261 6.171-3.213.285-1.154-1.277-1.421-7.219.848-15.068 5.754-10.7 25.475-10.7 25.475s1.879 4.58 3.083 5.148a26.861 26.861 0 0 1-2.216-4.283z" class="cls-6" transform="translate(-1488.912 -384.944)"/>
                    <path id="Path_525" d="M1537.9 380.486s3.727-13.438 22.326-10.808 17.179 21.935 17.179 21.935-4.242-10.217-12.126-7.72-24.591 7.401-27.379-3.407z" class="cls-6" transform="translate(-1510.427 -369.336)"/>
                    <path id="Path_526" d="M1561.207 386.523c-3.228 0-4.615-.724-5.263-1.506 1.23-2.191 4.458-8.284 12.076-8.284 1.227 0 9.679.341 14.328 3.321-1.277.017-6.932-2.98-11.347-.022-2.519 1.687-4.529 6.491-9.794 6.491z" class="cls-6" transform="translate(-1522.848 -374.428)"/>
                    <g id="Group_326" transform="translate(27.473)">
                        <path id="Path_527" d="M1540.493 380.487s2.916-10.5 16.443-11.119c-15.757-.7-19.036 11.119-19.036 11.119 1.432 5.55 6.532 6.956 12.225 6.673-4.592-.253-8.425-1.984-9.632-6.673z" class="cls-17" transform="translate(-1537.9 -369.338)"/>
                        <path id="Path_528" d="M1637.722 414.895c5.482.986 8.394 8 8.394 8a23.6 23.6 0 0 0-.226-4.472c-1.853-2.153-4.597-4.145-8.168-3.528z" class="cls-17" transform="translate(-1606.611 -400.618)"/>
                    </g>
                    <path id="Path_529" d="M1589.4 406.58c-3.723 1.848-9.553 4.64-14.994 5.659 5.611-.108 11.962-2.017 16-3.3 7.884-2.5 12.152 9.082 12.152 9.082a39.5 39.5 0 0 0-.3-6.143c-1.277-1.85-6.45-8.478-12.858-5.298z" class="cls-16" transform="translate(-1535.558 -394.387)"/>
                    <path id="Path_530" d="M1511.052 500.252c-1.01.325-1.3 2.242-.641 4.283s2.007 3.431 3.017 3.106-1.366-7.714-2.376-7.389z" class="cls-8" transform="translate(-1491.264 -459.443)"/>
                    <path id="Path_531" d="M1663.293 498.554c1.01.325 1.3 2.242.641 4.283s-2.007 3.431-3.016 3.106 1.365-7.714 2.375-7.389z" class="cls-15" transform="translate(-1594.936 -458.274)"/>
                    <path id="Path_532" d="M1672.118 618.113s-1.894 6.814-5.425 9.174 3.159 1.592 7.947-7.126a12.822 12.822 0 0 0-2.522-2.048z" class="cls-6" transform="translate(-1598.399 -540.578)"/>
                    <path id="Path_533" d="M1555.618 546.95a6.918 6.918 0 0 1 .689-3.822c-2.325 2.672-.43 5.932-.689 3.822z" class="cls-8" transform="translate(-1522.29 -488.963)"/>
                    <path id="Path_534" d="M1621.014 542.272a3.35 3.35 0 0 1 1.212 2.736c-.206 1.592 2.158-1.063-1.212-2.736z" class="cls-8" transform="translate(-1567.638 -488.374)"/>
                    <path id="Path_535" d="M1662.729 656.541l1.665-7.452-1.313.386-1.318 7.066z" class="cls-6" transform="translate(-1595.686 -561.9)"/>
                    <path id="Path_536" d="M1648.239 654.024l1.671-7.743a.72.72 0 0 0-1.418-.257l-1.818 8z" class="cls-18" transform="translate(-1585.3 -559.382)"/>
                    <path id="Path_537" d="M1532.251 655.591h1.457l-1.008-7.291a.72.72 0 0 0-1.417.262z" class="cls-18" transform="translate(-1505.864 -560.949)"/>
                    <path id="Path_538" d="M1700.3 636.3h2.754a39.3 39.3 0 0 0-15.221-16.617A42.751 42.751 0 0 1 1700.3 636.3z" class="cls-12" transform="translate(-1613.633 -541.659)"/>
                    <path id="Path_539" d="M1452.363 635c1.984-5.61 5.956-11.789 13.843-17.206-9.354 5-14.069 11.6-16.449 17.206z" class="cls-12" transform="translate(-1449.756 -540.358)"/>
                </g>
                <g id="Group_330" transform="translate(38.964 55.433)">
                    <path id="Path_540" d="M1579.709 553.771c-.082-1.146 2.348.238 5.766.238s5.826-2.439 5.766-1.292c-.135 2.614-1.52 6.549-5.976 6.3a6.345 6.345 0 0 1-5.556-5.246z" class="cls-8" transform="translate(-1579.659 -552.263)"/>
                    <g id="Group_329">
                        <g id="Group_328" class="cls-19">
                            <path id="Path_541" d="M1585.333 552.658c2.868-.178 5.718-1.438 5.813.085s-2.624 4.9-5.492 5.075-5.984-2.832-6.079-4.355 2.889-.627 5.758-.805z" class="cls-6" transform="translate(-1579.573 -552)"/>
                            <path id="Path_542" d="M1590.813 552.866a26.534 26.534 0 0 1-11.647.724l-.295-1.542 12.042-.748z" class="cls-3" transform="translate(-1579.124 -551.551)"/>
                            <path id="Path_543" d="M1590.623 562.99c1.545-.1 2.823.244 2.855.76s-1.194 1.012-2.739 1.108-2.824-.244-2.856-.761 1.195-1.011 2.74-1.107z" class="cls-20" transform="translate(-1584.893 -559.026)"/>
                        </g>
                    </g>
                </g>
            </g>
        </g>
        <g id="Mask_Group_7" clip-path="url(#clip-path-3)" transform="translate(0 -.475)">
            <g id="Group_390" transform="translate(-.204 8.054)">
                <g id="Group_327-2">
                    <ellipse id="Ellipse_15-2" cx="27.743" cy="12.132" class="cls-22" rx="27.743" ry="12.132" transform="translate(17.744 66.897)"/>
                    <ellipse id="Ellipse_16-2" cx="18.724" cy="9.674" class="cls-6" rx="18.724" ry="9.674" transform="translate(26.582 69.508)"/>
                    <path id="Path_495-2" d="M1556.706 586.7l-.727-15.7h-22.012l-.725 15.637c-6.055 1.237-10.078 3.4-10.078 5.875 0 3.852 10.85 8.578 22.813 8.578s20.507-4.722 20.507-8.574c0-2.438-3.89-4.571-9.778-5.816z" class="cls-7" transform="translate(-1500.284 -508.148)"/>
                    <g id="Group_323-2" transform="translate(35.851 63.922)">
                        <path id="Path_496-2" d="M1583.935 588.407l.4 2.946c.361 1.857-3.235 4.4 2.65 3.682 4.468-.546 17.542 5.4 18.069 7.251.8-3.17-12.285-12.366-18.951-13.265l-.68-13.147-20.6-1.441-.048 2.862c6.508 5.543 11.152 8.877 14.1 8.05a4.007 4.007 0 0 1 5.06 3.062z" class="cls-8" transform="translate(-1564.781 -574.433)"/>
                    </g>
                    <g id="Group_324-2" transform="translate(23.299 62.769)">
                        <path id="Path_497-2" d="M1525.659 593.462c0-2.48 3.764-4.659 9.43-5.9l.678-15.678-1.152-1.152-.678 15.678c-5.666 1.237-9.43 3.416-9.43 5.9 0 1.272 1.112 2.981 3 4.7a5.99 5.99 0 0 1-1.848-3.548z" class="cls-9" transform="translate(-1524.507 -570.735)"/>
                    </g>
                    <path id="Path_498-2" d="M1550.092 639.325c-3.215-5.3-9.585-11.3-22.179-14.472a17.482 17.482 0 0 1-14.82 7.732 16.878 16.878 0 0 1-15.372-8.507c-11.965 2.785-18.656 9.637-22.276 15.247z" class="cls-10" transform="translate(-1467.438 -544.684)"/>
                    <g id="Group_325-2" transform="translate(25.588 79.232)">
                        <path id="Path_499-2" d="M1551.922 636.169c9.254.35 16.427-7.636 18.824-10.691q-1.892-.6-4-1.112a17.461 17.461 0 0 1-14.819 7.8 16.872 16.872 0 0 1-15.372-8.6c-1.666.388-3.228.819-4.7 1.284a24.006 24.006 0 0 0 20.067 11.319z" class="cls-11" transform="translate(-1531.854 -623.557)"/>
                    </g>
                    <path id="Path_500-2" d="M1481.278 625.587c-1.689-9.35-4.3-21.468-4.3-21.468-16.785 4.733-24.067 14.3-27.226 21.468z" class="cls-22" transform="translate(-1449.752 -530.945)"/>
                    <path id="Path_501-2" d="M1505.413 598.021c.3-4.768 5.676-8.76 14.528-10.738.027-.082.106-.485.128-.53-9.86 1.788-16.385 6.159-16.385 11.268 0 2.6 1.8 5 4.86 6.972a.189.189 0 0 0 .244-.285c-1.329-1.45-3.534-4.168-3.375-6.687z" class="cls-23" transform="translate(-1486.875 -518.992)"/>
                    <path id="Path_502-2" d="M1668.27 625.587c-3.578-7.168-10.823-16.565-25.258-21.468 0 0-3.659 12.118-5.857 21.468z" class="cls-22" transform="translate(-1578.748 -530.945)"/>
                    <ellipse id="Ellipse_17-2" cx="7.801" cy="4.432" class="cls-8" rx="7.801" ry="4.432" transform="rotate(-76.11 62.452 -13.656)"/>
                    <ellipse id="Ellipse_18-2" cx="4.57" cy="8.568" class="cls-7" rx="4.57" ry="8.568" transform="rotate(-17.06 132.865 -30.235)"/>
                    <path id="Path_503-2" d="M1504.082 495.546c-1.386-4.524-.553-8.791 1.86-9.53a3.772 3.772 0 0 1 3.542 1.187c-1.32-1.45-2.816-2.162-4.119-1.763-2.413.739-3.246 5.006-1.86 9.53a12.778 12.778 0 0 0 3.336 5.667 13.537 13.537 0 0 1-2.759-5.091z" class="cls-9" transform="translate(-1486.291 -449.179)"/>
                    <path id="Path_504-2" d="M1536.663 383.619c-10.548 0-23.628 10.025-23.628 22.719 0 7.843 5.027 31.484 8.611 35.251 3.884 4.082 9.993 9.271 15.914 9.4 8.687.192 13.719-7.278 17.4-11.8 3.393-4.169 5.331-25.163 5.331-32.853-.001-12.693-13.081-22.717-23.628-22.717z" class="cls-7" transform="translate(-1493.312 -379.168)"/>
                    <path id="Path_505-2" d="M1584.182 383.619a17.856 17.856 0 0 0-2.111.129c9.952.9 21.347 9.35 22.231 20.8.592 7.668.276 28.748-2.787 33.166-3.32 4.792-7.763 12.627-16.439 13.1a11.573 11.573 0 0 1-2.158-.092 11.574 11.574 0 0 0 2.161.261c8.687.192 13.719-7.278 17.4-11.8 3.393-4.17 5.619-25.163 5.619-32.853.002-12.687-13.368-22.711-23.916-22.711z" class="cls-8" transform="translate(-1540.832 -379.168)"/>
                    <path id="Path_506-2" d="M1539 453.333c-5.922-.131-12.031-5.319-15.914-9.4-3.583-3.767-8.612-27.409-8.612-35.251 0-9.4 7.173-17.336 15.179-20.821-8.565 3.12-16.619 11.436-16.619 21.4 0 7.843 5.027 31.484 8.611 35.251 3.884 4.082 9.993 9.271 15.914 9.4a14.045 14.045 0 0 0 6.3-1.322 13.984 13.984 0 0 1-4.859.743z" class="cls-9" transform="translate(-1493.312 -382.086)"/>
                    <path id="Path_507-2" d="M1547.373 480.933c-2.458 0-4.958 1.883-4.451 4.076.5 2.15 1.269 4.076 4.451 4.076 3.093 0 4.212-1.968 4.451-4.076.254-2.237-1.992-4.076-4.451-4.076z" class="cls-13" transform="translate(-1513.839 -446.152)"/>
                    <path id="Path_508-2" d="M1614.051 480.933c-2.458 0-4.957 1.883-4.451 4.076.5 2.15 1.269 4.076 4.451 4.076 3.093 0 4.212-1.968 4.451-4.076.254-2.237-1.993-4.076-4.451-4.076z" class="cls-13" transform="translate(-1559.736 -446.152)"/>
                    <path id="Path_509-2" d="M1547.373 484.352c-2.458 0-4.958 1.883-4.451 4.076.5 2.151 1.269 4.076 4.451 4.076 3.093 0 4.212-1.968 4.451-4.076.254-2.237-1.992-4.076-4.451-4.076z" class="cls-3" transform="translate(-1513.839 -448.506)"/>
                    <ellipse id="Ellipse_19-2" cx="2.638" cy="2.957" class="cls-14" rx="2.638" ry="2.957" transform="translate(31.002 36.756)"/>
                    <path id="Path_510-2" d="M1560.528 492.752c-.347 0-.629.43-.629.959s.282.959.629.959.629-.43.629-.959-.281-.959-.629-.959z" class="cls-3" transform="translate(-1525.571 -454.288)"/>
                    <path id="Path_511-2" d="M1614 484.352c-2.458 0-4.7 1.839-4.451 4.076.239 2.108 1.359 4.076 4.451 4.076 3.182 0 3.954-1.926 4.451-4.076.502-2.193-1.997-4.076-4.451-4.076z" class="cls-3" transform="translate(-1559.729 -448.506)"/>
                    <ellipse id="Ellipse_20-2" cx="2.638" cy="2.957" class="cls-14" rx="2.638" ry="2.957" transform="translate(51.524 36.756)"/>
                    <path id="Path_512-2" d="M1626.375 492.752c-.348 0-.63.43-.63.959s.282.959.63.959.629-.43.629-.959-.281-.959-.629-.959z" class="cls-3" transform="translate(-1570.894 -454.288)"/>
                    <path id="Path_513-2" d="M1583.438 521.617c-2.274 0-4.117.809-4.117 1.806s1.843 1.806 4.117 1.806 4.116-.809 4.116-1.806-1.843-1.806-4.116-1.806z" class="cls-8" transform="translate(-1538.939 -474.156)"/>
                    <path id="Path_514-2" d="M1577.622 526.871c-.717-.318-1.448-.235-1.634.184s.246 1.016.963 1.334 1.449.235 1.635-.184-.246-1.017-.964-1.334z" class="cls-15" transform="translate(-1536.615 -477.64)"/>
                    <path id="Path_515-2" d="M1600.507 526.871c-.717.317-1.148.914-.963 1.334s.917.5 1.635.184 1.148-.914.963-1.334-.918-.501-1.635-.184z" class="cls-15" transform="translate(-1552.829 -477.64)"/>
                    <path id="Path_516-2" d="M1581.644 529.407a4.39 4.39 0 0 0 6.664-.1 8.711 8.711 0 0 1-6.664.1z" class="cls-15" transform="translate(-1540.537 -479.447)"/>
                    <path id="Path_517-2" d="M1533.333 461.021c-.424.386.005 2.186.542 1.983a16.608 16.608 0 0 1 11.163-.082c7.427 2.437-3.973-8.936-11.705-1.901z" class="cls-13" transform="translate(-1507.165 -430.842)"/>
                    <path id="Path_518-2" d="M1606.668 462.994a16.591 16.591 0 0 1 11.27.359c.506.208.928-1.553.535-1.934-7.582-7.353-19.309 3.865-11.805 1.575z" class="cls-13" transform="translate(-1556.103 -430.975)"/>
                    <path id="Path_519-2" d="M1596.679 492.035c.728-4.525-5.671 3.982 1.11 7.24a10.582 10.582 0 0 1-1.11-7.24z" class="cls-8" transform="translate(-1549.484 -452.901)"/>
                    <path id="Path_520-2" d="M1576.938 402.2c-2.42-10.668-13.789-18.581-23.16-18.581-4.823 0-10.175 2.1-14.565 5.586a12.836 12.836 0 0 0-1.313 2.841c2.788 10.808 19.494 5.9 27.379 3.406 6.367-2.017 10.358 4.258 11.659 6.748z" class="cls-8" transform="translate(-1510.427 -379.168)"/>
                    <path id="Path_521-2" d="M1603.024 407.453s15.009 1.156 16.71 14.793 3.485 6.064 3.485 6.064 1.361-8.819 0-13.689-9.596-17.349-20.195-7.168z" class="cls-13" transform="translate(-1555.254 -392.897)"/>
                    <path id="Path_522-2" d="M1621.291 415.717c1.484 3.246 1.934 8.641 2.071 11.538.309-2.483.932-8.788-.143-12.635-1.361-4.871-9.6-17.348-20.2-7.168a16.608 16.608 0 0 1 1.682.25c7.534-4.137 14.836 4.179 16.59 8.015z" class="cls-16" transform="translate(-1555.254 -392.897)"/>
                    <path id="Path_523-2" d="M1519.914 398.52s-8.972 7.016-8.622 22.536c.192 8.51-4.06-1.852-4.06-1.852s-4.371-19.721 10.7-25.475 1.982 4.791 1.982 4.791z" class="cls-6" transform="translate(-1488.912 -384.944)"/>
                    <path id="Path_524-2" d="M1508.1 420.068s-4.187-18.221 10.881-23.975c3.383-1.292 5.16-3.261 6.171-3.213.285-1.154-1.277-1.421-7.219.848-15.068 5.754-10.7 25.475-10.7 25.475s1.879 4.58 3.083 5.148a26.861 26.861 0 0 1-2.216-4.283z" class="cls-6" transform="translate(-1488.912 -384.944)"/>
                    <path id="Path_525-2" d="M1537.9 380.486s3.727-13.438 22.326-10.808 17.179 21.935 17.179 21.935-4.242-10.217-12.126-7.72-24.591 7.401-27.379-3.407z" class="cls-6" transform="translate(-1510.427 -369.336)"/>
                    <path id="Path_526-2" d="M1561.207 386.523c-3.228 0-4.615-.724-5.263-1.506 1.23-2.191 4.458-8.284 12.076-8.284 1.227 0 9.679.341 14.328 3.321-1.277.017-6.932-2.98-11.347-.022-2.519 1.687-4.529 6.491-9.794 6.491z" class="cls-6" transform="translate(-1522.848 -374.428)"/>
                    <g id="Group_326-2" transform="translate(27.473)">
                        <path id="Path_527-2" d="M1540.493 380.487s2.916-10.5 16.443-11.119c-15.757-.7-19.036 11.119-19.036 11.119 1.432 5.55 6.532 6.956 12.225 6.673-4.592-.253-8.425-1.984-9.632-6.673z" class="cls-17" transform="translate(-1537.9 -369.338)"/>
                        <path id="Path_528-2" d="M1637.722 414.895c5.482.986 8.394 8 8.394 8a23.6 23.6 0 0 0-.226-4.472c-1.853-2.153-4.597-4.145-8.168-3.528z" class="cls-17" transform="translate(-1606.611 -400.618)"/>
                    </g>
                    <path id="Path_529-2" d="M1589.4 406.58c-3.723 1.848-9.553 4.64-14.994 5.659 5.611-.108 11.962-2.017 16-3.3 7.884-2.5 12.152 9.082 12.152 9.082a39.5 39.5 0 0 0-.3-6.143c-1.277-1.85-6.45-8.478-12.858-5.298z" class="cls-16" transform="translate(-1535.558 -394.387)"/>
                    <path id="Path_530-2" d="M1511.052 500.252c-1.01.325-1.3 2.242-.641 4.283s2.007 3.431 3.017 3.106-1.366-7.714-2.376-7.389z" class="cls-8" transform="translate(-1491.264 -459.443)"/>
                    <path id="Path_531-2" d="M1663.293 498.554c1.01.325 1.3 2.242.641 4.283s-2.007 3.431-3.016 3.106 1.365-7.714 2.375-7.389z" class="cls-15" transform="translate(-1594.936 -458.274)"/>
                    <path id="Path_532-2" d="M1672.118 618.113s-1.894 6.814-5.425 9.174 3.159 1.592 7.947-7.126a12.822 12.822 0 0 0-2.522-2.048z" class="cls-6" transform="translate(-1598.399 -540.578)"/>
                    <path id="Path_533-2" d="M1555.618 546.95a6.918 6.918 0 0 1 .689-3.822c-2.325 2.672-.43 5.932-.689 3.822z" class="cls-8" transform="translate(-1522.29 -488.963)"/>
                    <path id="Path_534-2" d="M1621.014 542.272a3.35 3.35 0 0 1 1.212 2.736c-.206 1.592 2.158-1.063-1.212-2.736z" class="cls-8" transform="translate(-1567.638 -488.374)"/>
                    <path id="Path_535-2" d="M1662.729 656.541l1.665-7.452-1.313.386-1.318 7.066z" class="cls-6" transform="translate(-1595.686 -561.9)"/>
                    <path id="Path_536-2" d="M1648.239 654.024l1.671-7.743a.72.72 0 0 0-1.418-.257l-1.818 8z" class="cls-18" transform="translate(-1585.3 -559.382)"/>
                    <path id="Path_537-2" d="M1532.251 655.591h1.457l-1.008-7.291a.72.72 0 0 0-1.417.262z" class="cls-18" transform="translate(-1505.864 -560.949)"/>
                    <path id="Path_538-2" d="M1700.3 636.3h2.754a39.3 39.3 0 0 0-15.221-16.617A42.751 42.751 0 0 1 1700.3 636.3z" class="cls-23" transform="translate(-1613.633 -541.659)"/>
                    <path id="Path_539-2" d="M1452.363 635c1.984-5.61 5.956-11.789 13.843-17.206-9.354 5-14.069 11.6-16.449 17.206z" class="cls-23" transform="translate(-1449.756 -540.358)"/>
                </g>
                <g id="Group_330-2" transform="translate(38.964 55.433)">
                    <path id="Path_540-2" d="M1579.709 553.771c-.082-1.146 2.348.238 5.766.238s5.826-2.439 5.766-1.292c-.135 2.614-1.52 6.549-5.976 6.3a6.345 6.345 0 0 1-5.556-5.246z" class="cls-8" transform="translate(-1579.659 -552.263)"/>
                    <g id="Group_329-2">
                        <g id="Group_328-2" class="cls-19">
                            <path id="Path_541-2" d="M1585.333 552.658c2.868-.178 5.718-1.438 5.813.085s-2.624 4.9-5.492 5.075-5.984-2.832-6.079-4.355 2.889-.627 5.758-.805z" class="cls-6" transform="translate(-1579.573 -552)"/>
                            <path id="Path_542-2" d="M1590.813 552.866a26.534 26.534 0 0 1-11.647.724l-.295-1.542 12.042-.748z" class="cls-3" transform="translate(-1579.124 -551.551)"/>
                            <path id="Path_543-2" d="M1590.623 562.99c1.545-.1 2.823.244 2.855.76s-1.194 1.012-2.739 1.108-2.824-.244-2.856-.761 1.195-1.011 2.74-1.107z" class="cls-20" transform="translate(-1584.893 -559.026)"/>
                        </g>
                    </g>
                </g>
            </g>
        </g>
    </g>
</svg>
