<svg xmlns="http://www.w3.org/2000/svg" width="82.335" height="137.679" viewBox="0 0 82.335 137.679">
    <defs>
        <clipPath id="clip-path">
            <path id="Path_544" fill="none" d="M1579.574 553.2c.078 1.247 2.628 3.71 4.975 3.565s4.573-2.907 4.495-4.153-2.41-.216-4.757-.07-4.787-.591-4.713.658z" transform="translate(-1579.573 -552)"/>
        </clipPath>
        <style>
            .cls-2{fill:#3a3a5b}.cls-3{fill:#f15a24}.cls-4{fill:#333}.cls-5{fill:#f7b69f}.cls-6{fill:#ce8474}.cls-7{fill:#f9ddb4}.cls-9{fill:#d35029}.cls-10{fill:#534741}.cls-11{fill:#fff}.cls-12{fill:#4c312e}.cls-13{fill:#a05c5c}.cls-14{fill:#3f342f}.cls-15{fill:#634f47}
        </style>
    </defs>
    <g id="Group_1221">
        <path id="Path_1426" d="M402.826 766.148l42.839-18.269 39.5 18.838-39.5 20.046z" class="cls-2" transform="translate(-402.826 -747.879)"/>
        <g id="Group_390" transform="translate(6.472 17.612)">
            <g id="Group_327">
                <ellipse id="Ellipse_15" cx="22.706" cy="9.929" class="cls-3" rx="22.706" ry="9.929" transform="translate(14.522 54.751)"/>
                <ellipse id="Ellipse_16" cx="15.324" cy="7.918" class="cls-4" rx="15.324" ry="7.918" transform="translate(21.755 56.888)"/>
                <path id="Path_495" d="M1550.616 583.848l-.595-12.848h-18.016l-.593 12.8c-4.956 1.012-8.248 2.779-8.248 4.809 0 3.153 8.88 7.021 18.671 7.021s16.784-3.865 16.784-7.017c0-1.999-3.184-3.744-8.003-4.765z" class="cls-5" transform="translate(-1504.438 -519.56)"/>
                <g id="Group_323" transform="translate(29.341 52.316)">
                    <path id="Path_496" d="M1580.457 585.87l.331 2.411c.3 1.52-2.648 3.6 2.169 3.014 3.657-.447 14.357 4.423 14.788 5.935.653-2.594-10.055-10.121-15.51-10.857l-.557-10.76-16.857-1.179-.04 2.342c5.327 4.537 9.127 7.266 11.54 6.589a3.28 3.28 0 0 1 4.136 2.505z" class="cls-6" transform="translate(-1564.781 -574.433)"/>
                </g>
                <g id="Group_324" transform="translate(19.068 51.372)">
                    <path id="Path_497" d="M1525.45 589.335c0-2.029 3.081-3.814 7.718-4.826l.555-12.832-.943-.943-.555 12.831c-4.637 1.012-7.718 2.8-7.718 4.826 0 1.041.91 2.44 2.454 3.846a4.9 4.9 0 0 1-1.511-2.902z" class="cls-7" transform="translate(-1524.507 -570.735)"/>
                </g>
                <path id="Path_498" fill="#e6e6e6" d="M1536.539 636.557c-2.631-4.336-7.844-9.245-18.152-11.844a14.307 14.307 0 0 1-12.129 6.328 13.814 13.814 0 0 1-12.581-6.962 28.737 28.737 0 0 0-18.231 12.479z" transform="translate(-1468.891 -559.099)"/>
                <path id="Path_500" d="M1475.554 621.689c-1.382-7.652-3.519-17.57-3.519-17.57-13.738 3.873-19.7 11.7-22.283 17.57z" class="cls-3" transform="translate(-1449.752 -544.231)"/>
                <path id="Path_501" d="M1505.1 595.975c.247-3.9 4.645-7.169 11.89-8.788.022-.067.087-.4.1-.434-8.07 1.464-13.41 5.041-13.41 9.222 0 2.124 1.472 4.092 3.978 5.706a.155.155 0 0 0 .2-.234c-1.084-1.186-2.889-3.41-2.758-5.472z" class="cls-9" transform="translate(-1489.927 -531.295)"/>
                <path id="Path_502" d="M1662.621 621.689c-2.928-5.867-8.858-13.557-20.672-17.57 0 0-2.995 9.918-4.794 17.57z" class="cls-3" transform="translate(-1589.353 -544.231)"/>
                <ellipse id="Ellipse_17" cx="6.385" cy="3.627" class="cls-6" rx="6.385" ry="3.627" transform="rotate(-76.11 51.113 -11.177)"/>
                <ellipse id="Ellipse_18" cx="3.74" cy="7.012" class="cls-5" rx="3.74" ry="7.012" transform="rotate(-17.06 108.743 -24.745)"/>
                <path id="Path_503" d="M1503.856 493.691c-1.135-3.7-.453-7.2 1.522-7.8a3.087 3.087 0 0 1 2.9.971c-1.08-1.187-2.3-1.769-3.371-1.443-1.975.6-2.656 4.1-1.522 7.8a10.456 10.456 0 0 0 2.73 4.638 11.076 11.076 0 0 1-2.259-4.166z" class="cls-7" transform="translate(-1489.295 -455.743)"/>
                <path id="Path_504" d="M1532.373 383.619c-8.633 0-19.338 8.2-19.338 18.594 0 6.419 4.115 25.768 7.048 28.851 3.178 3.341 8.178 7.588 13.025 7.695 7.109.157 11.228-5.957 14.24-9.657 2.777-3.412 4.363-20.594 4.363-26.888-.001-10.391-10.706-18.595-19.338-18.595z" class="cls-5" transform="translate(-1496.893 -379.976)"/>
                <path id="Path_505" d="M1583.8 383.619a14.605 14.605 0 0 0-1.728.106c8.145.737 17.472 7.652 18.195 17.026.484 6.275.226 23.528-2.281 27.144-2.717 3.922-6.353 10.334-13.454 10.725a9.466 9.466 0 0 1-1.766-.076 9.475 9.475 0 0 0 1.769.214c7.11.157 11.228-5.957 14.239-9.657 2.777-3.413 4.6-20.594 4.6-26.888-.001-10.39-10.942-18.594-19.574-18.594z" class="cls-6" transform="translate(-1548.319 -379.976)"/>
                <path id="Path_506" d="M1534.287 441.446c-4.847-.107-9.846-4.353-13.024-7.695-2.933-3.083-7.048-22.432-7.048-28.851 0-7.694 5.871-14.188 12.423-17.041-7.01 2.553-13.6 9.36-13.6 17.512 0 6.419 4.115 25.768 7.048 28.851 3.178 3.341 8.178 7.588 13.025 7.695a11.494 11.494 0 0 0 5.154-1.082 11.444 11.444 0 0 1-3.978.611z" class="cls-7" transform="translate(-1496.893 -383.134)"/>
                <path id="Path_507" d="M1546.553 480.933c-2.012 0-4.057 1.541-3.643 3.336.406 1.76 1.039 3.336 3.643 3.336a3.375 3.375 0 0 0 3.643-3.336c.204-1.831-1.631-3.336-3.643-3.336z" class="cls-10" transform="translate(-1519.108 -452.467)"/>
                <path id="Path_508" d="M1613.231 480.933c-2.012 0-4.057 1.541-3.643 3.336.406 1.76 1.039 3.336 3.643 3.336a3.374 3.374 0 0 0 3.643-3.336c.208-1.831-1.631-3.336-3.643-3.336z" class="cls-10" transform="translate(-1568.777 -452.467)"/>
                <path id="Path_509" d="M1546.553 484.352c-2.012 0-4.057 1.541-3.643 3.336.406 1.76 1.039 3.336 3.643 3.336a3.375 3.375 0 0 0 3.643-3.336c.204-1.831-1.631-3.336-3.643-3.336z" class="cls-11" transform="translate(-1519.108 -455.014)"/>
                <ellipse id="Ellipse_19" cx="2.159" cy="2.42" class="cls-12" rx="2.159" ry="2.42" transform="translate(25.373 30.082)"/>
                <path id="Path_510" d="M1560.414 492.752c-.284 0-.515.352-.515.785s.231.785.515.785.515-.352.515-.785-.229-.785-.515-.785z" class="cls-11" transform="translate(-1531.803 -461.271)"/>
                <path id="Path_511" d="M1613.184 484.352c-2.012 0-3.851 1.505-3.643 3.336a3.375 3.375 0 0 0 3.643 3.336c2.6 0 3.237-1.576 3.643-3.336.414-1.795-1.627-3.336-3.643-3.336z" class="cls-11" transform="translate(-1568.77 -455.014)"/>
                <ellipse id="Ellipse_20" cx="2.159" cy="2.42" class="cls-12" rx="2.159" ry="2.42" transform="translate(42.169 30.082)"/>
                <path id="Path_512" d="M1626.261 492.752c-.285 0-.515.352-.515.785s.231.785.515.785.515-.352.515-.785-.231-.785-.515-.785z" class="cls-11" transform="translate(-1580.854 -461.271)"/>
                <path id="Path_513" d="M1582.69 521.617c-1.861 0-3.37.662-3.37 1.478s1.509 1.478 3.37 1.478 3.369-.662 3.369-1.478-1.508-1.478-3.369-1.478z" class="cls-6" transform="translate(-1546.271 -482.773)"/>
                <path id="Path_514" d="M1577.318 526.836c-.587-.26-1.185-.192-1.337.151s.2.832.788 1.091 1.186.192 1.338-.151-.202-.827-.789-1.091z" class="cls-13" transform="translate(-1543.756 -486.544)"/>
                <path id="Path_515" d="M1600.324 526.836c-.587.26-.94.748-.788 1.092s.751.41 1.338.151.939-.748.788-1.091-.751-.412-1.338-.152z" class="cls-13" transform="translate(-1561.303 -486.544)"/>
                <path id="Path_516" d="M1581.644 529.388a3.593 3.593 0 0 0 5.454-.085 7.129 7.129 0 0 1-5.454.085z" class="cls-13" transform="translate(-1548.001 -488.499)"/>
                <path id="Path_517" d="M1533.3 460.6c-.347.316 0 1.789.443 1.623a13.592 13.592 0 0 1 9.136-.067c6.081 1.992-3.249-7.316-9.579-1.556z" class="cls-10" transform="translate(-1511.885 -435.899)"/>
                <path id="Path_518" d="M1606.23 462.248a13.579 13.579 0 0 1 9.224.294c.414.17.759-1.271.438-1.583-6.206-6.018-15.803 3.163-9.662 1.289z" class="cls-10" transform="translate(-1564.846 -436.043)"/>
                <path id="Path_519" d="M1596.309 491.8c.6-3.7-4.641 3.259.908 5.926a8.662 8.662 0 0 1-.908-5.926z" class="cls-6" transform="translate(-1557.683 -459.771)"/>
                <path id="Path_520" d="M1569.85 398.826c-1.981-8.731-11.286-15.207-18.955-15.207a19.943 19.943 0 0 0-11.921 4.572 10.5 10.5 0 0 0-1.074 2.325c2.281 8.846 15.955 4.831 22.407 2.788 5.212-1.651 8.479 3.484 9.543 5.522z" class="cls-6" transform="translate(-1515.416 -379.976)"/>
                <path id="Path_521" d="M1603.024 406.747s12.284.946 13.676 12.107 2.852 4.963 2.852 4.963 1.114-7.218 0-11.2-7.852-14.202-16.528-5.87z" class="cls-10" transform="translate(-1563.928 -394.834)"/>
                <path id="Path_522" d="M1617.974 413.511c1.215 2.656 1.583 7.072 1.7 9.443.253-2.032.763-7.192-.117-10.341-1.114-3.986-7.854-14.2-16.529-5.866a13.589 13.589 0 0 1 1.376.2c6.159-3.382 12.135 3.424 13.57 6.564z" class="cls-14" transform="translate(-1563.928 -394.834)"/>
                <path id="Path_523" d="M1517.5 397.338s-7.343 5.742-7.056 18.444c.157 6.965-3.323-1.516-3.323-1.516s-3.577-16.141 8.755-20.85 1.624 3.922 1.624 3.922z" class="cls-4" transform="translate(-1492.132 -386.227)"/>
                <path id="Path_524" d="M1507.833 414.974s-3.426-14.912 8.906-19.622c2.769-1.057 4.223-2.669 5.051-2.63.234-.945-1.045-1.163-5.908.694-12.332 4.709-8.755 20.85-8.755 20.85s1.538 3.749 2.523 4.214a21.986 21.986 0 0 1-1.817-3.506z" class="cls-4" transform="translate(-1492.132 -386.228)"/>
                <path id="Path_525" d="M1537.9 378.462s3.05-11 18.272-8.846 14.06 17.952 14.06 17.952-3.472-8.362-9.925-6.319-20.125 6.058-22.407-2.787z" class="cls-4" transform="translate(-1515.416 -369.336)"/>
                <path id="Path_526" d="M1560.251 384.745c-2.642 0-3.777-.592-4.307-1.232 1.007-1.793 3.649-6.78 9.884-6.78 1 0 7.921.279 11.727 2.718-1.046.014-5.674-2.439-9.287-.018-2.062 1.381-3.707 5.312-8.017 5.312z" class="cls-4" transform="translate(-1528.857 -374.846)"/>
                <g id="Group_326" transform="translate(22.485)">
                    <path id="Path_527" d="M1540.022 378.463s2.387-8.594 13.458-9.1c-12.9-.577-15.579 9.1-15.579 9.1 1.172 4.542 5.346 5.693 10.005 5.462-3.759-.208-6.894-1.625-7.884-5.462z" class="cls-15" transform="translate(-1537.9 -369.338)"/>
                    <path id="Path_528" d="M1637.722 414.874c4.487.807 6.87 6.546 6.87 6.546a19.312 19.312 0 0 0-.185-3.66c-1.516-1.76-3.762-3.391-6.685-2.886z" class="cls-15" transform="translate(-1612.26 -403.189)"/>
                </g>
                <path id="Path_529" d="M1586.681 406.426c-3.047 1.513-7.819 3.8-12.271 4.631 4.592-.088 9.79-1.651 13.095-2.7 6.452-2.044 9.945 7.433 9.945 7.433a32.335 32.335 0 0 0-.242-5.027c-1.051-1.516-5.285-6.94-10.527-4.337z" class="cls-14" transform="translate(-1542.612 -396.446)"/>
                <path id="Path_530" d="M1510.872 500.25c-.826.266-1.061 1.835-.525 3.5s1.642 2.808 2.469 2.542-1.116-6.307-1.944-6.042z" class="cls-6" transform="translate(-1494.676 -466.851)"/>
                <path id="Path_531" d="M1662.818 498.552c.827.266 1.062 1.835.525 3.505s-1.642 2.808-2.469 2.542 1.117-6.312 1.944-6.047z" class="cls-13" transform="translate(-1606.872 -465.586)"/>
                <path id="Path_532" d="M1670.954 618.113s-1.55 5.577-4.44 7.508 2.585 1.3 6.5-5.832a10.493 10.493 0 0 0-2.06-1.676z" class="cls-4" transform="translate(-1610.619 -554.655)"/>
                <path id="Path_533" d="M1555.53 546.256a5.662 5.662 0 0 1 .564-3.128c-1.903 2.187-.352 4.855-.564 3.128z" class="cls-6" transform="translate(-1528.253 -498.797)"/>
                <path id="Path_534" d="M1621.014 542.272a2.742 2.742 0 0 1 .992 2.239c-.168 1.305 1.767-.87-.992-2.239z" class="cls-6" transform="translate(-1577.329 -498.16)"/>
                <path id="Path_535" d="M1662.554 655.188l1.363-6.1-1.075.316-1.079 5.783z" class="cls-4" transform="translate(-1607.683 -577.73)"/>
                <path id="Path_538" d="M1698.04 633.284h2.254a32.164 32.164 0 0 0-12.458-13.6 34.987 34.987 0 0 1 10.204 13.6z" class="cls-9" transform="translate(-1627.106 -555.826)"/>
                <path id="Path_539" d="M1451.89 631.875c1.624-4.591 4.875-9.649 11.33-14.082-7.655 4.088-11.515 9.491-13.462 14.082z" class="cls-9" transform="translate(-1449.756 -554.417)"/>
            </g>
            <g id="Group_330" transform="translate(31.889 45.368)">
                <path id="Path_540" d="M1579.708 553.524c-.067-.938 1.922.195 4.719.195s4.768-2 4.719-1.057c-.111 2.139-1.244 5.36-4.891 5.153a5.193 5.193 0 0 1-4.547-4.291z" class="cls-6" transform="translate(-1579.667 -552.29)"/>
                <g id="Group_329">
                    <g id="Group_328" clip-path="url(#clip-path)">
                        <path id="Path_541" d="M1584.287 552.539c2.347-.146 4.68-1.177 4.757.07s-2.148 4.007-4.495 4.153-4.9-2.318-4.975-3.565 2.365-.512 4.713-.658z" class="cls-4" transform="translate(-1579.573 -552)"/>
                        <path id="Path_542" d="M1588.645 552.581a21.716 21.716 0 0 1-9.532.592l-.241-1.262 9.856-.612z" class="cls-11" transform="translate(-1579.078 -551.505)"/>
                        <path id="Path_543" fill="#8e2430" d="M1590.125 562.987c1.265-.079 2.311.2 2.337.622s-.977.828-2.242.907-2.311-.2-2.337-.622.978-.828 2.242-.907z" transform="translate(-1585.436 -559.743)"/>
                    </g>
                </g>
            </g>
        </g>
        <path id="Path_1446" fill="#4c4b73" d="M438.3 780.1l.384 6.3s14.516-9.7 38.325-.793l-.331-9.111a6.261 6.261 0 0 0-3.016-4.22c-4.466-2.57-14.922-7.337-31.445.642-2.317 1.121-3.764 4.618-3.917 7.182z" transform="translate(-415.876 -752.937)"/>
        <path id="Path_1469" d="M460.026 931.285c-12.545-9.237-21.616-57.675-21.616-57.675 1.92-.362 4.23-.738 6.85-1.054.03.813 5.322 34.187 12.948 47.96 0 0 8.958-17.065 9.01-47.76a3.432 3.432 0 0 0-.053-.448c1.634.177 3.294.4 4.957.689q1.056.18 2.112.4c.021 25.85-14.208 57.888-14.208 57.888z" class="cls-2" transform="translate(-413.099 -793.606)"/>
    </g>
</svg>
