<svg xmlns="http://www.w3.org/2000/svg" width="93" height="104" viewBox="0 0 93 104">
    <defs>
        <clipPath id="clip-path">
            <rect id="Rectangle_19" width="93" height="73" fill="#96ccf2" rx="12" transform="translate(0 .143)"/>
        </clipPath>
        <clipPath id="clip-path-2">
            <path id="Rectangle_24" fill="#fff" stroke="#707070" d="M0 0H90V56H0z" transform="translate(-.429)"/>
        </clipPath>
        <style>
            .cls-3{fill:#fff}.cls-5{fill:#e8cc43}.cls-6{fill:#8c7a30}.cls-7{fill:#f7b69f}.cls-8{fill:#ce8474}.cls-9{fill:#f9ddb4}.cls-10{fill:#d86348}.cls-11{fill:#42d3cf}.cls-12{fill:#f4db73}.cls-13{fill:#635349}.cls-14{fill:#5ba5a0}.cls-15{fill:#a05c5c}.cls-16{fill:#ccb03b}.cls-17{fill:#f2f2f2}.cls-18{fill:#ba796e}.cls-19{fill:#4d4d4d}.cls-21{fill:#8c6f5b}.cls-22{fill:#d67676}.cls-23{fill:#edac98}.cls-25{fill:#4c312e}
        </style>
    </defs>
    <g id="Group_1242" transform="translate(-561.633 -880.242)">
        <rect id="Rectangle_23" width="93" height="73" class="cls-3" rx="10" transform="translate(561.633 910.242)"/>
        <g id="Mask_Group_2" clip-path="url(#clip-path)" transform="translate(561.633 911.099)">
            <g id="Group_321" transform="translate(5.839 -21.191)">
                <g id="Group_320">
                    <ellipse id="Ellipse_10" cx="25.666" cy="11.224" class="cls-5" rx="25.666" ry="11.224" transform="translate(16.415 67.844)"/>
                    <ellipse id="Ellipse_11" cx="17.322" cy="8.95" class="cls-6" rx="17.322" ry="8.95" transform="translate(24.592 70.259)"/>
                    <path id="Path_454" d="M574.618 1287.318l-.6-16.318h-18.236l-.6 16.254c-5.016 1.285-8.348 3.53-8.348 6.107 0 4 8.987 8.917 18.9 8.917s16.987-4.909 16.987-8.912c-.003-2.535-3.221-4.751-8.103-6.048z" class="cls-7" transform="translate(-523.62 -1210.892)"/>
                    <g id="Group_313" transform="translate(33.085 61.22)">
                        <path id="Path_455" d="M594.212 1288.958l.357 3.062c.318 1.931-2.856 4.577 2.339 3.828 3.944-.568 15.486 5.617 15.951 7.537.7-3.3-10.846-12.854-16.73-13.789l-.6-13.666-18.183-1.5-.044 2.975c5.746 5.762 9.845 9.228 12.448 8.368 2.004-.658 4.066.78 4.462 3.185z" class="cls-8" transform="translate(-577.303 -1274.433)"/>
                    </g>
                    <g id="Group_314" transform="translate(23.583 60.022)">
                        <path id="Path_456" d="M548.992 1294.359c0-2.577 3.323-4.843 8.324-6.128l.6-16.3-1.017-1.2-.6 16.3c-5 1.285-8.325 3.551-8.325 6.129 0 1.322.983 3.1 2.648 4.884a6.685 6.685 0 0 1-1.63-3.685z" class="cls-9" transform="translate(-547.974 -1270.735)"/>
                    </g>
                    <path id="Path_457" d="M565.667 1341.216c-3.342-5.508-9.963-11.557-23.055-14.859a18.143 18.143 0 0 1-15.4 8.129 17.535 17.535 0 0 1-15.979-8.981c-12.437 2.9-19.392 9.879-23.155 15.711z" class="cls-10" transform="translate(-483.896 -1247.739)"/>
                    <g id="Group_315" transform="translate(22.452 77.135)">
                        <path id="Path_458" d="M565.342 1336.667c9.62.364 17.076-7.937 19.567-11.113-1.312-.416-2.7-.8-4.163-1.156a18.149 18.149 0 0 1-15.4 8.1 17.537 17.537 0 0 1-15.979-8.944q-2.6.605-4.881 1.335a24.952 24.952 0 0 0 20.856 11.778z" class="cls-11" transform="translate(-544.483 -1323.557)"/>
                    </g>
                    <path id="Path_459" d="M504.345 1332.557c-1.562-8.747-3.978-19.861-3.978-19.861-15.529 4.379-22.265 13.381-25.188 19.861z" class="cls-5" transform="translate(-475.179 -1239.08)"/>
                    <path id="Path_460" d="M524.778 1308.769c.279-4.411 5.251-8.1 13.441-9.934.025-.075.1-.449.118-.49-9.122 1.655-15.158 5.7-15.158 10.425 0 2.4 1.663 4.626 4.5 6.45a.175.175 0 0 0 .226-.264c-1.234-1.343-3.274-3.856-3.127-6.187z" class="cls-12" transform="translate(-507.629 -1229.377)"/>
                    <path id="Path_461" d="M670.754 1332.557a39.865 39.865 0 0 0-23.367-19.861s-3.385 11.114-5.419 19.861z" class="cls-5" transform="translate(-587.934 -1239.08)"/>
                    <path id="Path_462" d="M550.729 1096.279c-11.181 0-25.046 10.279-25.046 23.3 0 8.042 1.964 26.342 6.68 32.394 3.595 4.614 14.939 10.844 19.213 10.844 4.408 0 15.916-6.054 19.613-10.844 5.68-7.361 4.586-24.509 4.586-32.394-.001-13.021-13.865-23.3-25.046-23.3z" class="cls-7" transform="translate(-509.321 -1092.775)"/>
                    <path id="Path_463" d="M550.8 1162.7c-4.266-.256-14.892-7.155-18.2-11.976-4.344-6.324-5.532-24.71-5.05-32.736.665-11.079 11.273-19.565 21.3-21.411-10.794 1.056-23.163 10.906-23.163 23.2 0 8.042 1.965 26.342 6.681 32.395 3.595 4.614 14.939 10.844 19.213 10.844 2.143 0 5.965-1.433 9.751-3.454-4.098 1.938-8.288 3.269-10.532 3.138z" class="cls-9" transform="translate(-509.321 -1092.974)"/>
                    <path id="Path_464" d="M570.361 1103.664c-4.357-2.773 2.615-.252 8.958 2.237.992 1.4 1.935 2.861 2.8 4.293a128.133 128.133 0 0 1-11.758-6.53zm3.094-12.009a52.752 52.752 0 0 0-11.475-2.848c-.178-.026-.358-.039-.537-.059a28.535 28.535 0 0 0-15.8 5.876c-2.59 2.808-3.247 6.006-.246 8.168 0 0 7.368 5.762 14.41 7.828a183.644 183.644 0 0 1 17.294 6.563s-13.763-7.649-16.122-10.277 2.9 2.015 11.031 3.528a86.938 86.938 0 0 0 11.046 1.359 48.922 48.922 0 0 1 3.8 7.849c.625 2.219-.468 8.309-.061 10.073a146.238 146.238 0 0 0 1.418-17.45c-.006-8.957-6.753-16.627-14.758-20.609z" class="cls-8" transform="translate(-521.303 -1087.684)"/>
                    <path id="Path_465" d="M622.583 1119.575c0-13.017-13.865-23.3-25.046-23.3a19.792 19.792 0 0 0-2.614.179c10.383 1.006 22.078 9.257 23.211 20.7.776 7.847 3.555 24.8-1.373 32.689-3.206 5.131-14.063 12.289-18.449 12.723a8.805 8.805 0 0 1-2.195-.132 9.018 9.018 0 0 0 2.267.373c4.408 0 15.916-6.054 19.613-10.844 5.681-7.355 4.586-24.502 4.586-32.388z" class="cls-8" transform="translate(-556.13 -1092.775)"/>
                    <path id="Path_466" d="M558.18 1185.933c-2.555 0-5.153 1.957-4.627 4.238.516 2.235 1.319 4.237 4.627 4.237 3.215 0 4.378-2.046 4.627-4.237.264-2.326-2.071-4.238-4.627-4.238z" class="cls-13" transform="translate(-528.116 -1153.384)"/>
                    <path id="Path_467" d="M629.859 1185.933c-2.555 0-5.153 1.957-4.627 4.238.516 2.235 1.319 4.237 4.627 4.237 3.215 0 4.378-2.046 4.627-4.237.263-2.326-2.072-4.238-4.627-4.238z" class="cls-13" transform="translate(-576.573 -1153.384)"/>
                    <path id="Path_468" d="M558.18 1189.352c-2.555 0-5.153 1.957-4.627 4.237.516 2.235 1.319 4.237 4.627 4.237 3.215 0 4.378-2.045 4.627-4.237.264-2.324-2.071-4.237-4.627-4.237z" class="cls-3" transform="translate(-528.116 -1155.695)"/>
                    <ellipse id="Ellipse_12" cx="2.742" cy="3.074" class="cls-14" rx="2.742" ry="3.074" transform="translate(27.431 34.602)"/>
                    <path id="Path_469" d="M571.182 1197.752c-.361 0-.654.447-.654 1s.293 1 .654 1 .654-.446.654-1-.293-1-.654-1z" class="cls-3" transform="translate(-539.638 -1161.374)"/>
                    <path id="Path_470" d="M629.8 1189.352c-2.555 0-4.891 1.913-4.627 4.237.249 2.191 1.412 4.237 4.627 4.237 3.308 0 4.11-2 4.627-4.237.527-2.28-2.071-4.237-4.627-4.237z" class="cls-3" transform="translate(-576.567 -1155.695)"/>
                    <ellipse id="Ellipse_13" cx="2.742" cy="3.074" class="cls-14" rx="2.742" ry="3.074" transform="translate(50.383 34.602)"/>
                    <path id="Path_471" d="M642.028 1197.752c-.361 0-.654.447-.654 1s.293 1 .654 1 .654-.446.654-1-.293-1-.654-1z" class="cls-3" transform="translate(-587.532 -1161.374)"/>
                    <ellipse id="Ellipse_14" cx="3.573" cy="1.567" class="cls-8" rx="3.573" ry="1.567" transform="translate(37.974 44.078)"/>
                    <path id="Path_472" d="M591.03 1225.914c-.622-.275-1.258-.2-1.418.16s.213.882.835 1.158 1.258.2 1.419-.16-.214-.883-.836-1.158z" class="cls-15" transform="translate(-552.514 -1180.299)"/>
                    <path id="Path_473" d="M610.115 1225.914c-.623.275-1 .793-.836 1.158s.8.435 1.418.16 1-.794.836-1.158-.796-.436-1.418-.16z" class="cls-15" transform="translate(-565.81 -1180.299)"/>
                    <path id="Path_474" d="M594.332 1228.029a3.81 3.81 0 0 0 5.783-.09 7.559 7.559 0 0 1-5.783.09z" class="cls-15" transform="translate(-555.73 -1181.781)"/>
                    <path id="Path_475" d="M545.76 1165.724c-.321.45.53 1.9 1.005 1.582a18.735 18.735 0 0 1 10.88-3.076c7.838.122-6.025-6.719-11.885 1.494z" class="cls-13" transform="translate(-522.847 -1136.984)"/>
                    <path id="Path_476" d="M621.716 1162.007a15.041 15.041 0 0 1 9.455 3.626c.369.324 1.241-1.03 1.019-1.466-4.285-8.411-17.509-2.452-10.474-2.16z" class="cls-13" transform="translate(-572.874 -1135.641)"/>
                    <path id="Path_477" d="M606.952 1196.864c.631-3.928-4.921 3.456.963 6.284a9.185 9.185 0 0 1-.963-6.284z" class="cls-8" transform="translate(-563.067 -1160.012)"/>
                    <path id="Path_478" d="M672.31 1325.254s-1.752 6.3-5.019 8.487 2.922 1.472 7.352-6.593a11.881 11.881 0 0 0-2.333-1.894z" class="cls-16" transform="translate(-604.434 -1247.569)"/>
                    <path id="Path_479" d="M663.762 1359.648l1.54-6.877-1.215.349-1.219 6.528z" class="cls-16" transform="translate(-602.063 -1266.171)"/>
                    <path id="Path_480" d="M651.887 1357.464l1.545-7.147a.667.667 0 0 0-1.311-.242l-1.682 7.389z" class="cls-17" transform="translate(-593.66 -1263.988)"/>
                    <path id="Path_481" d="M548.637 1358.835h1.349l-.934-6.731a.666.666 0 0 0-1.311.238z" class="cls-17" transform="translate(-524.225 -1265.358)"/>
                    <path id="Path_482" d="M698.608 1341.922h2.547a36.389 36.389 0 0 0-14.081-15.373 40.112 40.112 0 0 1 11.534 15.373z" class="cls-16" transform="translate(-618.427 -1248.445)"/>
                    <path id="Path_483" d="M477.594 1340.784c1.835-5.183 5.51-10.907 12.807-15.918-8.653 4.621-13.016 10.735-15.217 15.918z" class="cls-12" transform="translate(-475.182 -1247.307)"/>
                    <path id="Path_484" d="M509.881 1189.254c-1.823.968-1.752 4.819.159 8.6s4.939 6.066 6.762 5.1 1.752-4.819-.159-8.6-4.943-6.068-6.762-5.1z" class="cls-7" transform="translate(-497.745 -1155.478)"/>
                    <path id="Path_485" d="M514.365 1197.1c-1.123.6-1.079 2.97.1 5.3s3.042 3.737 4.166 3.141-3.142-9.041-4.266-8.441z" class="cls-8" transform="translate(-501.12 -1160.91)"/>
                    <g id="Group_316" transform="translate(64.098 33.017)">
                        <path id="Path_486" d="M680.634 1187.519c-2.007-.8-4.947 1.829-6.566 5.865s-1.3 7.954.7 8.751 4.947-1.829 6.566-5.865 1.307-7.955-.7-8.751z" class="cls-8" transform="translate(-673.033 -1187.376)"/>
                    </g>
                    <g id="Group_317" transform="translate(66.456 35.326)">
                        <path id="Path_487" d="M682.728 1194.51c1.3.271 1.913 2.614 1.363 5.235s-2.054 4.525-3.357 4.255.691-9.76 1.994-9.49z" class="cls-18" transform="translate(-680.31 -1194.505)"/>
                    </g>
                    <path id="Path_488" d="M530.878 1113.7s-9.383 8.721-6.3 21.706c1.335 5.615-3.672-.966-3.672-.966s-3.692-18.051 7.588-25.127 2.384 4.387 2.384 4.387z" class="cls-19" transform="translate(-505.704 -1100.027)"/>
                    <path id="Path_489" fill="#534741" d="M579.519 1094.129c-3.645-3.576-9.93-6.958-20.743-8.51-10.917-1.567-23.529 8.984-16.587 13.985 0 0 7.368 5.763 14.41 7.829a183.507 183.507 0 0 1 17.295 6.567s-13.763-7.649-16.121-10.277 2.9 2.016 11.031 3.528a87.053 87.053 0 0 0 11.046 1.359 48.922 48.922 0 0 1 3.8 7.848c.773 2.743-1.082 11.408.522 10.491s3.031-7.88 3.031-7.88c1.139-13.069-2.833-20.6-7.684-24.94zm-12.362 6.347c-4.357-2.773 2.616-.251 8.958 2.237.992 1.4 1.935 2.861 2.8 4.293a128.125 128.125 0 0 1-11.758-6.53z" transform="translate(-519.136 -1085.463)"/>
                    <g id="Group_318" transform="translate(33.87)">
                        <path id="Path_490" d="M606.239 1094.13c-3.645-3.576-9.931-6.958-20.743-8.509a17.283 17.283 0 0 0-5.771.2 15.458 15.458 0 0 1 3.315.011c11.051 1.266 16.592 6.2 20.466 9.933 5.119 4.5 8.972 16.112 8.475 30.211.254-1.008 1.938-6.905 1.938-6.905 1.144-13.071-2.829-20.602-7.68-24.941z" class="cls-13" transform="translate(-579.726 -1085.463)"/>
                    </g>
                    <g id="Group_319" transform="translate(21.065 .002)">
                        <path id="Path_491" d="M558.763 1107.437c-7.042-2.066-14.41-7.828-14.41-7.828-6.242-4.5 3.324-13.477 13.252-14.1-10.619-.7-22.11 9.282-15.415 14.1 0 0 7.368 5.762 14.41 7.828a183.679 183.679 0 0 1 17.294 6.563s-2.491-1.385-5.536-3.178c-3.098-1.215-6.63-2.515-9.595-3.385z" class="cls-21" transform="translate(-540.201 -1085.468)"/>
                        <path id="Path_492" d="M601.116 1141.816a9.709 9.709 0 0 0 1.192 1.058 33.81 33.81 0 0 0 7.676 2.469 76.794 76.794 0 0 0 13.646 1.437l-.138-.062a86.386 86.386 0 0 1-11.345-1.375z" class="cls-21" transform="translate(-581.381 -1123.561)"/>
                    </g>
                </g>
                <path id="Path_493" d="M582.548 1253.621s7.106 7.466 18.766-.49v-.009s-9.631 9.236-18.766.732z" class="cls-22" transform="translate(-549.76 -1199.364)"/>
                <path id="Path_494" d="M608.6 1265.5s-1.732 1.96-6.064 2.106c-2.098.071 6.356 1.443 6.064-2.106z" class="cls-23" transform="translate(-561.048 -1207.173)"/>
            </g>
        </g>
        <g id="Mask_Group_3" clip-path="url(#clip-path-2)" transform="translate(565.062 880.242)">
            <g id="Group_322" transform="translate(2.411 8.013)">
                <g id="Group_320-2">
                    <ellipse id="Ellipse_10-2" cx="25.666" cy="11.224" class="cls-5" rx="25.666" ry="11.224" transform="translate(16.415 67.844)"/>
                    <ellipse id="Ellipse_11-2" cx="17.322" cy="8.95" class="cls-6" rx="17.322" ry="8.95" transform="translate(24.592 70.259)"/>
                    <path id="Path_454-2" d="M574.618 1287.318l-.6-16.318h-18.236l-.6 16.254c-5.016 1.285-8.348 3.53-8.348 6.107 0 4 8.987 8.917 18.9 8.917s16.987-4.909 16.987-8.912c-.003-2.535-3.221-4.751-8.103-6.048z" class="cls-7" transform="translate(-523.62 -1210.892)"/>
                    <g id="Group_313-2" transform="translate(33.085 61.22)">
                        <path id="Path_455-2" d="M594.212 1288.958l.357 3.062c.318 1.931-2.856 4.577 2.339 3.828 3.944-.568 15.486 5.617 15.951 7.537.7-3.3-10.846-12.854-16.73-13.789l-.6-13.666-18.183-1.5-.044 2.975c5.746 5.762 9.845 9.228 12.448 8.368 2.004-.658 4.066.78 4.462 3.185z" class="cls-8" transform="translate(-577.303 -1274.433)"/>
                    </g>
                    <g id="Group_314-2" transform="translate(23.583 60.022)">
                        <path id="Path_456-2" d="M548.992 1294.359c0-2.577 3.323-4.843 8.324-6.128l.6-16.3-1.017-1.2-.6 16.3c-5 1.285-8.325 3.551-8.325 6.129 0 1.322.983 3.1 2.648 4.884a6.685 6.685 0 0 1-1.63-3.685z" class="cls-9" transform="translate(-547.974 -1270.735)"/>
                    </g>
                    <path id="Path_457-2" d="M565.667 1341.216c-3.342-5.508-9.963-11.557-23.055-14.859a18.143 18.143 0 0 1-15.4 8.129 17.535 17.535 0 0 1-15.979-8.981c-12.437 2.9-19.392 9.879-23.155 15.711z" class="cls-10" transform="translate(-483.896 -1247.739)"/>
                    <g id="Group_315-2" transform="translate(22.452 77.135)">
                        <path id="Path_458-2" d="M565.342 1336.667c9.62.364 17.076-7.937 19.567-11.113-1.312-.416-2.7-.8-4.163-1.156a18.149 18.149 0 0 1-15.4 8.1 17.537 17.537 0 0 1-15.979-8.944q-2.6.605-4.881 1.335a24.952 24.952 0 0 0 20.856 11.778z" class="cls-11" transform="translate(-544.483 -1323.557)"/>
                    </g>
                    <path id="Path_459-2" d="M504.345 1332.557c-1.562-8.747-3.978-19.861-3.978-19.861-15.529 4.379-22.265 13.381-25.188 19.861z" class="cls-5" transform="translate(-475.179 -1239.08)"/>
                    <path id="Path_460-2" d="M524.778 1308.769c.279-4.411 5.251-8.1 13.441-9.934.025-.075.1-.449.118-.49-9.122 1.655-15.158 5.7-15.158 10.425 0 2.4 1.663 4.626 4.5 6.45a.175.175 0 0 0 .226-.264c-1.234-1.343-3.274-3.856-3.127-6.187z" class="cls-12" transform="translate(-507.629 -1229.377)"/>
                    <path id="Path_461-2" d="M670.754 1332.557a39.865 39.865 0 0 0-23.367-19.861s-3.385 11.114-5.419 19.861z" class="cls-5" transform="translate(-587.934 -1239.08)"/>
                    <path id="Path_462-2" d="M550.729 1096.279c-11.181 0-25.046 10.279-25.046 23.3 0 8.042 1.964 26.342 6.68 32.394 3.595 4.614 14.939 10.844 19.213 10.844 4.408 0 15.916-6.054 19.613-10.844 5.68-7.361 4.586-24.509 4.586-32.394-.001-13.021-13.865-23.3-25.046-23.3z" class="cls-7" transform="translate(-509.321 -1092.775)"/>
                    <path id="Path_463-2" d="M550.8 1162.7c-4.266-.256-14.892-7.155-18.2-11.976-4.344-6.324-5.532-24.71-5.05-32.736.665-11.079 11.273-19.565 21.3-21.411-10.794 1.056-23.163 10.906-23.163 23.2 0 8.042 1.965 26.342 6.681 32.395 3.595 4.614 14.939 10.844 19.213 10.844 2.143 0 5.965-1.433 9.751-3.454-4.098 1.938-8.288 3.269-10.532 3.138z" class="cls-9" transform="translate(-509.321 -1092.974)"/>
                    <path id="Path_464-2" d="M570.361 1103.664c-4.357-2.773 2.615-.252 8.958 2.237.992 1.4 1.935 2.861 2.8 4.293a128.133 128.133 0 0 1-11.758-6.53zm3.094-12.009a52.752 52.752 0 0 0-11.475-2.848c-.178-.026-.358-.039-.537-.059a28.535 28.535 0 0 0-15.8 5.876c-2.59 2.808-3.247 6.006-.246 8.168 0 0 7.368 5.762 14.41 7.828a183.644 183.644 0 0 1 17.294 6.563s-13.763-7.649-16.122-10.277 2.9 2.015 11.031 3.528a86.938 86.938 0 0 0 11.046 1.359 48.922 48.922 0 0 1 3.8 7.849c.625 2.219-.468 8.309-.061 10.073a146.238 146.238 0 0 0 1.418-17.45c-.006-8.957-6.753-16.627-14.758-20.609z" class="cls-8" transform="translate(-521.303 -1087.684)"/>
                    <path id="Path_465-2" d="M622.583 1119.575c0-13.017-13.865-23.3-25.046-23.3a19.792 19.792 0 0 0-2.614.179c10.383 1.006 22.078 9.257 23.211 20.7.776 7.847 3.555 24.8-1.373 32.689-3.206 5.131-14.063 12.289-18.449 12.723a8.805 8.805 0 0 1-2.195-.132 9.018 9.018 0 0 0 2.267.373c4.408 0 15.916-6.054 19.613-10.844 5.681-7.355 4.586-24.502 4.586-32.388z" class="cls-8" transform="translate(-556.13 -1092.775)"/>
                    <path id="Path_466-2" d="M558.18 1185.933c-2.555 0-5.153 1.957-4.627 4.238.516 2.235 1.319 4.237 4.627 4.237 3.215 0 4.378-2.046 4.627-4.237.264-2.326-2.071-4.238-4.627-4.238z" class="cls-13" transform="translate(-528.116 -1153.384)"/>
                    <path id="Path_467-2" d="M629.859 1185.933c-2.555 0-5.153 1.957-4.627 4.238.516 2.235 1.319 4.237 4.627 4.237 3.215 0 4.378-2.046 4.627-4.237.263-2.326-2.072-4.238-4.627-4.238z" class="cls-13" transform="translate(-576.573 -1153.384)"/>
                    <path id="Path_468-2" d="M558.18 1189.352c-2.555 0-5.153 1.957-4.627 4.237.516 2.235 1.319 4.237 4.627 4.237 3.215 0 4.378-2.045 4.627-4.237.264-2.324-2.071-4.237-4.627-4.237z" class="cls-3" transform="translate(-528.116 -1155.695)"/>
                    <ellipse id="Ellipse_12-2" cx="2.742" cy="3.074" class="cls-25" rx="2.742" ry="3.074" transform="translate(27.431 34.602)"/>
                    <path id="Path_469-2" d="M571.182 1197.752c-.361 0-.654.447-.654 1s.293 1 .654 1 .654-.446.654-1-.293-1-.654-1z" class="cls-3" transform="translate(-539.638 -1161.374)"/>
                    <path id="Path_470-2" d="M629.8 1189.352c-2.555 0-4.891 1.913-4.627 4.237.249 2.191 1.412 4.237 4.627 4.237 3.308 0 4.11-2 4.627-4.237.527-2.28-2.071-4.237-4.627-4.237z" class="cls-3" transform="translate(-576.567 -1155.695)"/>
                    <ellipse id="Ellipse_13-2" cx="2.742" cy="3.074" class="cls-25" rx="2.742" ry="3.074" transform="translate(50.383 34.602)"/>
                    <path id="Path_471-2" d="M642.028 1197.752c-.361 0-.654.447-.654 1s.293 1 .654 1 .654-.446.654-1-.293-1-.654-1z" class="cls-3" transform="translate(-587.532 -1161.374)"/>
                    <ellipse id="Ellipse_14-2" cx="3.573" cy="1.567" class="cls-8" rx="3.573" ry="1.567" transform="translate(37.974 44.078)"/>
                    <path id="Path_472-2" d="M591.03 1225.914c-.622-.275-1.258-.2-1.418.16s.213.882.835 1.158 1.258.2 1.419-.16-.214-.883-.836-1.158z" class="cls-15" transform="translate(-552.514 -1180.299)"/>
                    <path id="Path_473-2" d="M610.115 1225.914c-.623.275-1 .793-.836 1.158s.8.435 1.418.16 1-.794.836-1.158-.796-.436-1.418-.16z" class="cls-15" transform="translate(-565.81 -1180.299)"/>
                    <path id="Path_474-2" d="M594.332 1228.029a3.81 3.81 0 0 0 5.783-.09 7.559 7.559 0 0 1-5.783.09z" class="cls-15" transform="translate(-555.73 -1181.781)"/>
                    <path id="Path_475-2" d="M545.76 1165.724c-.321.45.53 1.9 1.005 1.582a18.735 18.735 0 0 1 10.88-3.076c7.838.122-6.025-6.719-11.885 1.494z" class="cls-13" transform="translate(-522.847 -1136.984)"/>
                    <path id="Path_476-2" d="M621.716 1162.007a15.041 15.041 0 0 1 9.455 3.626c.369.324 1.241-1.03 1.019-1.466-4.285-8.411-17.509-2.452-10.474-2.16z" class="cls-13" transform="translate(-572.874 -1135.641)"/>
                    <path id="Path_477-2" d="M606.952 1196.864c.631-3.928-4.921 3.456.963 6.284a9.185 9.185 0 0 1-.963-6.284z" class="cls-8" transform="translate(-563.067 -1160.012)"/>
                    <path id="Path_478-2" d="M672.31 1325.254s-1.752 6.3-5.019 8.487 2.922 1.472 7.352-6.593a11.881 11.881 0 0 0-2.333-1.894z" class="cls-16" transform="translate(-604.434 -1247.569)"/>
                    <path id="Path_479-2" d="M663.762 1359.648l1.54-6.877-1.215.349-1.219 6.528z" class="cls-16" transform="translate(-602.063 -1266.171)"/>
                    <path id="Path_480-2" d="M651.887 1357.464l1.545-7.147a.667.667 0 0 0-1.311-.242l-1.682 7.389z" class="cls-17" transform="translate(-593.66 -1263.988)"/>
                    <path id="Path_481-2" d="M548.637 1358.835h1.349l-.934-6.731a.666.666 0 0 0-1.311.238z" class="cls-17" transform="translate(-524.225 -1265.358)"/>
                    <path id="Path_482-2" d="M698.608 1341.922h2.547a36.389 36.389 0 0 0-14.081-15.373 40.112 40.112 0 0 1 11.534 15.373z" class="cls-16" transform="translate(-618.427 -1248.445)"/>
                    <path id="Path_483-2" d="M477.594 1340.784c1.835-5.183 5.51-10.907 12.807-15.918-8.653 4.621-13.016 10.735-15.217 15.918z" class="cls-12" transform="translate(-475.182 -1247.307)"/>
                    <path id="Path_484-2" d="M509.881 1189.254c-1.823.968-1.752 4.819.159 8.6s4.939 6.066 6.762 5.1 1.752-4.819-.159-8.6-4.943-6.068-6.762-5.1z" class="cls-7" transform="translate(-497.745 -1155.478)"/>
                    <path id="Path_485-2" d="M514.365 1197.1c-1.123.6-1.079 2.97.1 5.3s3.042 3.737 4.166 3.141-3.142-9.041-4.266-8.441z" class="cls-8" transform="translate(-501.12 -1160.91)"/>
                    <g id="Group_316-2" transform="translate(64.098 33.017)">
                        <path id="Path_486-2" d="M680.634 1187.519c-2.007-.8-4.947 1.829-6.566 5.865s-1.3 7.954.7 8.751 4.947-1.829 6.566-5.865 1.307-7.955-.7-8.751z" class="cls-8" transform="translate(-673.033 -1187.376)"/>
                    </g>
                    <g id="Group_317-2" transform="translate(66.456 35.326)">
                        <path id="Path_487-2" d="M682.728 1194.51c1.3.271 1.913 2.614 1.363 5.235s-2.054 4.525-3.357 4.255.691-9.76 1.994-9.49z" class="cls-18" transform="translate(-680.31 -1194.505)"/>
                    </g>
                    <path id="Path_488-2" d="M530.878 1113.7s-9.383 8.721-6.3 21.706c1.335 5.615-3.672-.966-3.672-.966s-3.692-18.051 7.588-25.127 2.384 4.387 2.384 4.387z" class="cls-19" transform="translate(-505.704 -1100.027)"/>
                    <path id="Path_489-2" fill="#353333" d="M579.519 1094.129c-3.645-3.576-9.93-6.958-20.743-8.51-10.917-1.567-23.529 8.984-16.587 13.985 0 0 7.368 5.763 14.41 7.829a183.507 183.507 0 0 1 17.295 6.567s-13.763-7.649-16.121-10.277 2.9 2.016 11.031 3.528a87.053 87.053 0 0 0 11.046 1.359 48.922 48.922 0 0 1 3.8 7.848c.773 2.743-1.082 11.408.522 10.491s3.031-7.88 3.031-7.88c1.139-13.069-2.833-20.6-7.684-24.94zm-12.362 6.347c-4.357-2.773 2.616-.251 8.958 2.237.992 1.4 1.935 2.861 2.8 4.293a128.125 128.125 0 0 1-11.758-6.53z" transform="translate(-519.136 -1085.463)"/>
                    <g id="Group_318-2" transform="translate(33.87)">
                        <path id="Path_490-2" d="M606.239 1094.13c-3.645-3.576-9.931-6.958-20.743-8.509a17.283 17.283 0 0 0-5.771.2 15.458 15.458 0 0 1 3.315.011c11.051 1.266 16.592 6.2 20.466 9.933 5.119 4.5 8.972 16.112 8.475 30.211.254-1.008 1.938-6.905 1.938-6.905 1.144-13.071-2.829-20.602-7.68-24.941z" class="cls-13" transform="translate(-579.726 -1085.463)"/>
                    </g>
                    <g id="Group_319-2" transform="translate(21.065 .002)">
                        <path id="Path_491-2" d="M558.763 1107.437c-7.042-2.066-14.41-7.828-14.41-7.828-6.242-4.5 3.324-13.477 13.252-14.1-10.619-.7-22.11 9.282-15.415 14.1 0 0 7.368 5.762 14.41 7.828a183.679 183.679 0 0 1 17.294 6.563s-2.491-1.385-5.536-3.178c-3.098-1.215-6.63-2.515-9.595-3.385z" class="cls-21" transform="translate(-540.201 -1085.468)"/>
                        <path id="Path_492-2" d="M601.116 1141.816a9.709 9.709 0 0 0 1.192 1.058 33.81 33.81 0 0 0 7.676 2.469 76.794 76.794 0 0 0 13.646 1.437l-.138-.062a86.386 86.386 0 0 1-11.345-1.375z" class="cls-21" transform="translate(-581.381 -1123.561)"/>
                    </g>
                </g>
                <path id="Path_493-2" d="M582.548 1253.621s7.106 7.466 18.766-.49v-.009s-9.631 9.236-18.766.732z" class="cls-22" transform="translate(-549.76 -1199.364)"/>
                <path id="Path_494-2" d="M608.6 1265.5s-1.732 1.96-6.064 2.106c-2.098.071 6.356 1.443 6.064-2.106z" class="cls-23" transform="translate(-561.048 -1207.173)"/>
            </g>
        </g>
    </g>
</svg>
