<svg xmlns="http://www.w3.org/2000/svg" width="62" height="66" viewBox="0 0 62 66">
    <defs>
        <clipPath id="clip-path">
            <rect id="Rectangle_25" width="62" height="50" class="cls-1" data-name="Rectangle 25" rx="12" transform="translate(795 839)"/>
        </clipPath>
        <clipPath id="clip-path-2">
            <path id="Path_559" fill="none" d="M1567.381 1212.217s1.607 5.006 6.482 4.8c3.643-.154 5.5-4.675 5.5-4.675-4.292-1.159-7-1.159-11.982-.125z" data-name="Path 559" transform="translate(-1567.381 -1211.457)"/>
        </clipPath>
        <clipPath id="clip-path-3">
            <rect id="Rectangle_27" width="62" height="50" class="cls-1" data-name="Rectangle 27" rx="12" transform="translate(976 818)"/>
        </clipPath>
        <style>
            .cls-1{fill:#96ccf2}.cls-5{fill:#f7b69f}.cls-6{fill:#17bf87}.cls-7{fill:#f9ddb4}.cls-8{fill:#ce8474}.cls-9{fill:#16d398}.cls-10{fill:#d67676}.cls-11{clip-path:url(#clip-path-2)}.cls-12{fill:#333}.cls-13{fill:#c1272d}.cls-14{fill:#fff}.cls-15{fill:#a05c5c}.cls-16{fill:#f7a192;opacity:.5}.cls-17{fill:#4d4d4d}.cls-18{fill:#6d433c}.cls-19{fill:#ba796e}.cls-20{fill:#f7846d}.cls-21{fill:#d8968b}
        </style>
    </defs>
    <g id="Group_388" data-name="Group 388" transform="translate(-795 -823)">
        <rect id="Rectangle_26" width="62" height="50" fill="#3a8bfc" data-name="Rectangle 26" rx="12" transform="translate(795 839)"/>
        <g id="Mask_Group_4" clip-path="url(#clip-path)" data-name="Mask Group 4">
            <g id="Group_386" data-name="Group 386" transform="translate(-675.314 -218.978)">
                <g id="Group_383" data-name="Group 383" transform="translate(1475.314 1050.049)">
                    <path id="Path_545" d="M1537.417 1262.754l-.393-9.933h-10.233l-.4 10.565c-6.4 1.09-11.238 3.456-11.238 6.78 0 4.267 7.793 7.759 17.063 7.759s17.342-3.408 17.342-7.675c.005-3.431-5.415-6.489-12.141-7.496z" class="cls-5" data-name="Path 545" transform="translate(-1506.505 -1210.406)"/>
                    <path id="Path_546" d="M1487.8 1311.467s13.412 7.954 26.766.027c0 0 12.521 4.219 12.521 12.9l-51.774.039s1.317-7.773 12.487-12.966z" class="cls-6" data-name="Path 546" transform="translate(-1475.314 -1256.316)"/>
                    <path id="Path_547" d="M1528.778 1264.117l-.056-10.59-.311-.706-.4 10.565c-5.258.9-9.457 2.655-10.789 5.1 2.148-2.066 6.839-3.565 11.556-4.369z" class="cls-7" data-name="Path 547" transform="translate(-1508.124 -1210.406)"/>
                    <path id="Path_548" d="M1579.4 1252.31l-.393-12.7s-.7.257-1.633.524h-9.3l.047 2.2a3.288 3.288 0 0 0 .915 1.987c1.7 1.411 4.4 2.46 5.054 2.375 2.7-.347 3.449 2.555 3.716 4.591.308 2.351 2.548 2.423 3.848 2.737 8.752 2.113 9.334 6.171 9.334 5.89-.002-3.994-6.488-6.552-11.588-7.604z" class="cls-8" data-name="Path 548" transform="translate(-1547.927 -1200.061)"/>
                    <path id="Path_549" d="M1532.406 1057.516c-7.657 0-17.153 7.04-17.153 15.954 0 5.508 1.346 18.041 4.575 22.186 2.462 3.16 10.231 7.427 13.158 7.427 3.019 0 10.9-4.146 13.432-7.427 3.89-5.042 3.141-16.785 3.141-22.186 0-8.914-9.496-15.954-17.153-15.954z" class="cls-5" data-name="Path 549" transform="translate(-1506.579 -1057.516)"/>
                    <path id="Path_550" d="M1531.323 1188.6c-2.921-.175-10.421-4.9-12.689-8.2-2.976-4.331-3.168-10.208-4.082-12.295-2.21-5.044.917 9.141 4.146 13.286 2.462 3.16 10.231 7.427 13.158 7.427 1.468 0 4.085-.981 6.678-2.366-2.802 1.324-5.672 2.237-7.211 2.148z" class="cls-7" data-name="Path 550" transform="translate(-1505.45 -1143.245)"/>
                    <path id="Path_551" d="M1604.935 1073.47c0-8.914-9.5-15.954-17.153-15.954a13.581 13.581 0 0 0-1.79.122c7.111.689 15.12 6.34 15.9 14.179.532 5.374 2.435 16.987-.94 22.387-2.2 3.514-9.631 8.416-12.635 8.714a6.031 6.031 0 0 1-1.5-.091 6.162 6.162 0 0 0 1.552.256c3.019 0 10.9-4.146 13.432-7.427 3.884-5.041 3.134-16.785 3.134-22.186z" class="cls-8" data-name="Path 551" transform="translate(-1561.956 -1057.516)"/>
                    <g id="Group_332" data-name="Group 332" transform="translate(1.071 55.152)">
                        <path id="Path_552" d="M1515.767 1325.19c5.746.032 7.758-4.317 8.281-8.922a30.146 30.146 0 0 1-3.035-1.195c.103 8.273-5.246 10.117-5.246 10.117z" class="cls-9" data-name="Path 552" transform="translate(-1508.053 -1314.29)"/>
                        <path id="Path_553" d="M1482.733 1322.522s3.968 0 8.675-5.338c1.157-1.312 1.5-2.95 1.643-5.006-.893-.418-1.389-.711-1.389-.711-6.874 3.2-10.016 7.367-11.416 10.1a3.376 3.376 0 0 0 2.487.955z" class="cls-9" data-name="Path 553" transform="translate(-1480.246 -1311.467)"/>
                    </g>
                    <path id="Path_554" d="M1641.879 1311.591a23.825 23.825 0 0 1-4.12 2.114c-.816 5.69.309 10.9 7.754 9.7 0 0-.073-.1-.2-.3a9.192 9.192 0 0 0 2.589.824 24.327 24.327 0 0 0 6-.578c-1.433-7.908-12.023-11.76-12.023-11.76z" class="cls-9" data-name="Path 554" transform="translate(-1602.303 -1256.413)"/>
                    <path id="Path_555" d="M1567.381 1212.548s.774 5.91 6.37 5.912c4.54 0 5.616-5.789 5.616-5.789-4.296-1.145-7.004-1.145-11.986-.123z" class="cls-10" data-name="Path 555" transform="translate(-1547.387 -1178.29)"/>
                    <g id="Group_334" data-name="Group 334" transform="translate(19.995 33.432)">
                        <g id="Group_333" class="cls-11" data-name="Group 333">
                            <path id="Path_556" d="M1567.381 1212.217s1.607 5.006 6.482 4.8c3.643-.154 5.5-4.675 5.5-4.675-4.292-1.159-7-1.159-11.982-.125z" class="cls-12" data-name="Path 556" transform="translate(-1567.381 -1211.457)"/>
                            <path id="Path_557" d="M1587.29 1228.458c0-.8-1.468-1.456-3.279-1.456s-3.279.652-3.279 1.456 1.468 1.456 3.279 1.456 3.279-.652 3.279-1.456z" class="cls-13" data-name="Path 557" transform="translate(-1577.833 -1223.626)"/>
                            <path id="Path_558" d="M1567.381 1210.725l1.079 1.441a.9.9 0 0 0 .6.354 28.973 28.973 0 0 0 8.8-.125.708.708 0 0 0 .553-.574l.194-1.1s-9.794-.453-11.226.004z" class="cls-14" data-name="Path 558" transform="translate(-1567.381 -1210.725)"/>
                        </g>
                    </g>
                    <g id="Group_335" data-name="Group 335" transform="translate(12.844 14.64)">
                        <path id="Path_560" d="M1534.457 1128.165a13.588 13.588 0 0 1 7.766-1.779c.419.032.758-.954.355-1.073-5.801-1.713-8.121 2.852-8.121 2.852z" class="cls-12" data-name="Path 560" transform="translate(-1534.457 -1124.929)"/>
                    </g>
                    <g id="Group_336" data-name="Group 336" transform="translate(30.281 14.745)">
                        <path id="Path_561" d="M1615.177 1126.862a16.411 16.411 0 0 1 8.137 2.208s-2.27-4.519-8.305-3.516c-.447.075-.284 1.335.168 1.308z" class="cls-12" data-name="Path 561" transform="translate(-1614.745 -1125.41)"/>
                    </g>
                    <g id="Group_337" data-name="Group 337" transform="translate(24.406 28.185)">
                        <path id="Path_562" d="M1589.432 1187.3c-.958 0-1.735.346-1.735.774s.777.774 1.735.774 1.736-.347 1.736-.774-.778-.774-1.736-.774z" class="cls-8" data-name="Path 562" transform="translate(-1587.696 -1187.296)"/>
                    </g>
                    <g id="Group_338" data-name="Group 338" transform="translate(23.833 28.527)">
                        <path id="Path_563" d="M1586.033 1188.985c-.418-.185-.846-.137-.954.107s.143.593.562.778.846.137.954-.108-.144-.592-.562-.777z" class="cls-15" data-name="Path 563" transform="translate(-1585.053 -1188.872)"/>
                    </g>
                    <g id="Group_339" data-name="Group 339" transform="translate(26.955 28.509)">
                        <path id="Path_564" d="M1599.977 1188.93c-.407.21-.637.573-.515.811s.552.26.959.05.637-.573.515-.811-.552-.26-.959-.05z" class="cls-15" data-name="Path 564" transform="translate(-1599.429 -1188.786)"/>
                    </g>
                    <g id="Group_340" data-name="Group 340" transform="translate(25.155 29.376)">
                        <path id="Path_565" d="M1591.141 1192.782a1.165 1.165 0 0 0 1.937 0 2.16 2.16 0 0 1-1.937 0z" class="cls-15" data-name="Path 565" transform="translate(-1591.141 -1192.782)"/>
                    </g>
                    <g id="Group_341" data-name="Group 341" transform="translate(26.666 23.351)">
                        <path id="Path_566" d="M1599.445 1165.654c.479-2.143-3.737 1.886.731 3.429a3.9 3.9 0 0 1-.731-3.429z" class="cls-8" data-name="Path 566" transform="translate(-1598.102 -1165.04)"/>
                    </g>
                    <path id="Path_567" d="M1629.162 1178.75a5.116 5.116 0 0 1-3.116 6c-2.686.924-6.578.1-7.221-1.766s.363-2.469 4.682-3.622c2.743-.728 5.012-2.479 5.655-.612z" class="cls-16" data-name="Path 567" transform="translate(-1587.519 -1151.769)"/>
                    <path id="Path_568" d="M1546.968 1152.964c-1.942 0-3.917 1.488-3.516 3.22.393 1.7 1 3.22 3.516 3.22a3.257 3.257 0 0 0 3.516-3.22c.201-1.767-1.574-3.22-3.516-3.22z" class="cls-14" data-name="Path 568" transform="translate(-1528.613 -1132.235)"/>
                    <ellipse id="Ellipse_21" cx="2.084" cy="2.336" class="cls-17" data-name="Ellipse 21" rx="2.084" ry="2.336" transform="translate(16.354 21.447)"/>
                    <ellipse id="Ellipse_22" cx=".497" cy=".758" class="cls-14" data-name="Ellipse 22" rx=".497" ry=".758" transform="translate(18.982 22.797)"/>
                    <path id="Path_569" d="M1539.511 1149.039a3.7 3.7 0 0 0-3.694 3.41l-1.807.912 2.1-.349a3.386 3.386 0 0 1 3.511-3.121 3.522 3.522 0 0 1 3.25 2.007l.146.391.657.025-.489-.412a3.615 3.615 0 0 0-3.674-2.863z" class="cls-18" data-name="Path 569" transform="translate(-1521.263 -1129.163)"/>
                    <path id="Path_570" d="M1616.7 1152.964c-1.942 0-3.717 1.453-3.516 3.22a3.257 3.257 0 0 0 3.516 3.22c2.513 0 3.124-1.521 3.516-3.22.399-1.732-1.576-3.22-3.516-3.22z" class="cls-14" data-name="Path 570" transform="translate(-1583.229 -1132.235)"/>
                    <ellipse id="Ellipse_23" cx="2.084" cy="2.336" class="cls-17" data-name="Ellipse 23" rx="2.084" ry="2.336" transform="translate(31.303 21.447)"/>
                    <path id="Path_571" d="M1632.053 1162.487c-.274 0-.5.339-.5.758s.222.758.5.758.5-.339.5-.758-.225-.758-.5-.758z" class="cls-14" data-name="Path 571" transform="translate(-1597.625 -1139.69)"/>
                    <path id="Path_572" d="M1614.925 1149.039a3.615 3.615 0 0 0-3.671 2.864l-.489.412.657-.025.146-.391a3.523 3.523 0 0 1 3.251-2.007 3.386 3.386 0 0 1 3.51 3.121l2.1.349-1.807-.912a3.7 3.7 0 0 0-3.697-3.411z" class="cls-18" data-name="Path 572" transform="translate(-1581.349 -1129.163)"/>
                    <ellipse id="Ellipse_24" cx="2.257" cy="4.617" class="cls-5" data-name="Ellipse 24" rx="2.257" ry="4.617" transform="rotate(-26.573 51.52 2.397)"/>
                    <path id="Path_573" d="M1505.934 1166.814c-.679.359-.654 1.786.056 3.188s1.837 2.246 2.516 1.886-1.893-5.433-2.572-5.074z" class="cls-8" data-name="Path 573" transform="translate(-1498.898 -1143.063)"/>
                    <g id="Group_342" data-name="Group 342" transform="translate(40.117 21.119)">
                        <ellipse id="Ellipse_25" cx="4.62" cy="2.256" class="cls-8" data-name="Ellipse 25" rx="4.62" ry="2.256" transform="rotate(-65.811 6.513 4.215)"/>
                    </g>
                    <path id="Path_574" d="M1522.465 1181.129a5.117 5.117 0 0 0 3.116 6c2.686.924 6.578.1 7.221-1.766s-.363-2.47-4.682-3.622c-2.744-.728-5.012-2.479-5.655-.612z" class="cls-16" data-name="Path 574" transform="translate(-1512.083 -1153.631)"/>
                    <g id="Group_343" data-name="Group 343" transform="translate(42.642 23.234)">
                        <path id="Path_575" d="M1673.315 1164.5c.739.2 1.014 1.6.615 3.125s-1.322 2.6-2.06 2.394.707-5.719 1.445-5.519z" class="cls-19" data-name="Path 575" transform="translate(-1671.665 -1164.498)"/>
                    </g>
                    <g id="Group_382" data-name="Group 382" transform="translate(10.741 25.157)">
                        <g id="Group_344" data-name="Group 344" transform="translate(3.916 4.075)">
                            <path id="Path_576" d="M1542.924 1192.35a.118.118 0 1 0 0-.235.118.118 0 1 0 0 .235z" class="cls-20" data-name="Path 576" transform="translate(-1542.802 -1192.115)"/>
                        </g>
                        <g id="Group_345" data-name="Group 345" transform="translate(7.895 4.781)">
                            <path id="Path_577" d="M1561.247 1195.6a.118.118 0 1 0 0-.236.118.118 0 1 0 0 .236z" class="cls-20" data-name="Path 577" transform="translate(-1561.125 -1195.367)"/>
                        </g>
                        <g id="Group_346" data-name="Group 346" transform="translate(4.674 7.017)">
                            <path id="Path_578" d="M1546.414 1205.9a.118.118 0 1 0 0-.235.118.118 0 1 0 0 .235z" class="cls-20" data-name="Path 578" transform="translate(-1546.292 -1205.665)"/>
                        </g>
                        <g id="Group_347" data-name="Group 347" transform="translate(12.443 1.662)">
                            <path id="Path_579" d="M1582.187 1181.24a.118.118 0 1 0 0-.235.118.118 0 1 0 0 .235z" class="cls-20" data-name="Path 579" transform="translate(-1582.065 -1181.004)"/>
                        </g>
                        <g id="Group_348" data-name="Group 348" transform="translate(21.791 4.369)">
                            <path id="Path_580" d="M1625.231 1193.706a.118.118 0 1 0 0-.235.118.118 0 1 0 0 .235z" class="cls-20" data-name="Path 580" transform="translate(-1625.109 -1193.47)"/>
                        </g>
                        <g id="Group_349" data-name="Group 349" transform="translate(26.086 3.486)">
                            <path id="Path_581" d="M1645.008 1189.641a.118.118 0 1 0 0-.235.118.118 0 1 0 0 .235z" class="cls-20" data-name="Path 581" transform="translate(-1644.886 -1189.405)"/>
                        </g>
                        <g id="Group_350" data-name="Group 350" transform="translate(24.823 5.369)">
                            <path id="Path_582" d="M1639.191 1198.313a.118.118 0 1 0 0-.235.118.118 0 1 0 0 .235z" class="cls-20" data-name="Path 582" transform="translate(-1639.069 -1198.077)"/>
                        </g>
                        <g id="Group_351" data-name="Group 351" transform="translate(28.36 4.604)">
                            <path id="Path_583" d="M1655.478 1194.79a.118.118 0 1 0 0-.235.118.118 0 1 0 0 .235z" class="cls-20" data-name="Path 583" transform="translate(-1655.356 -1194.554)"/>
                        </g>
                        <g id="Group_352" data-name="Group 352" transform="translate(1.389 4.31)">
                            <path id="Path_584" d="M1531.29 1193.434a.118.118 0 1 0 0-.235.118.118 0 1 0 0 .235z" class="cls-20" data-name="Path 584" transform="translate(-1531.168 -1193.199)"/>
                        </g>
                        <g id="Group_353" data-name="Group 353" transform="translate(0 3.604)">
                            <path id="Path_585" d="M1524.892 1190.183a.118.118 0 1 0 0-.235.118.118 0 1 0 0 .235z" class="cls-20" data-name="Path 585" transform="translate(-1524.77 -1189.947)"/>
                        </g>
                        <g id="Group_354" data-name="Group 354" transform="translate(28.928 1.544)">
                            <path id="Path_586" d="M1658.1 1180.7a.118.118 0 1 0 0-.235.118.118 0 1 0 0 .235z" class="cls-20" data-name="Path 586" transform="translate(-1657.974 -1180.463)"/>
                        </g>
                        <g id="Group_355" data-name="Group 355" transform="translate(16.31 1.829)">
                            <path id="Path_587" d="M1599.991 1182.011a.118.118 0 1 0 0-.236.118.118 0 1 0 0 .236z" class="cls-20" data-name="Path 587" transform="translate(-1599.869 -1181.775)"/>
                        </g>
                        <g id="Group_356" data-name="Group 356" transform="translate(3.199 5.252)">
                            <path id="Path_588" d="M1539.826 1198.241s.434-.706 0-.706a.354.354 0 0 0 0 .706z" class="cls-20" data-name="Path 588" transform="translate(-1539.5 -1197.535)"/>
                        </g>
                        <g id="Group_357" data-name="Group 357" transform="translate(6.619 3.78)">
                            <path id="Path_589" d="M1555.413 1191.466s.651-.706 0-.706c-.217 0-.217.706 0 .706z" class="cls-20" data-name="Path 589" transform="translate(-1555.25 -1190.76)"/>
                        </g>
                        <g id="Group_358" data-name="Group 358" transform="translate(1.679 3.192)">
                            <path id="Path_590" d="M1532.826 1188.756s.651-.706 0-.706a.354.354 0 0 0 0 .706z" class="cls-20" data-name="Path 590" transform="translate(-1532.5 -1188.05)"/>
                        </g>
                        <g id="Group_359" data-name="Group 359" transform="translate(19.976 3.427)">
                            <path id="Path_591" d="M1617.239 1189.84s.651-.706 0-.706-.651.706 0 .706z" class="cls-20" data-name="Path 591" transform="translate(-1616.75 -1189.134)"/>
                        </g>
                        <g id="Group_360" data-name="Group 360" transform="translate(23.668 3.721)">
                            <path id="Path_592" d="M1634.239 1191.2s.652-.706 0-.706-.651.706 0 .706z" class="cls-20" data-name="Path 592" transform="translate(-1633.75 -1190.489)"/>
                        </g>
                        <g id="Group_361" data-name="Group 361" transform="translate(21.442 5.369)">
                            <path id="Path_593" d="M1623.826 1198.783s.434-.706 0-.706a.354.354 0 0 0 0 .706z" class="cls-20" data-name="Path 593" transform="translate(-1623.5 -1198.077)"/>
                        </g>
                        <g id="Group_362" data-name="Group 362" transform="translate(26.871 1.838)">
                            <path id="Path_594" d="M1648.826 1182.524s.652-.706 0-.706a.354.354 0 0 0 0 .706z" class="cls-20" data-name="Path 594" transform="translate(-1648.5 -1181.818)"/>
                        </g>
                        <g id="Group_363" data-name="Group 363" transform="translate(26.762 5.428)">
                            <path id="Path_595" d="M1648 1199.054s.434-.706 0-.706v.706z" class="cls-20" data-name="Path 595" transform="translate(-1648 -1198.348)"/>
                        </g>
                        <g id="Group_364" data-name="Group 364" transform="translate(10.311 2.486)">
                            <path id="Path_596" d="M1572.413 1185.505s.435-.706 0-.706c-.217 0-.217.706 0 .706z" class="cls-20" data-name="Path 596" transform="translate(-1572.25 -1184.799)"/>
                        </g>
                        <g id="Group_365" data-name="Group 365" transform="translate(5.642 5.605)">
                            <path id="Path_597" d="M1551.239 1199.867s.434-.706 0-.706c-.651 0-.651.706 0 .706z" class="cls-20" data-name="Path 597" transform="translate(-1550.75 -1199.161)"/>
                        </g>
                        <g id="Group_366" data-name="Group 366" transform="translate(10.311 3.794)">
                            <path id="Path_598" d="M1572.413 1191.294s.217-.471 0-.471-.217.471 0 .471z" class="cls-20" data-name="Path 598" transform="translate(-1572.25 -1190.823)"/>
                        </g>
                        <g id="Group_367" data-name="Group 367" transform="translate(14.003 1.191)">
                            <path id="Path_599" d="M1589.413 1179.308s.434-.471 0-.471c-.217 0-.217.471 0 .471z" class="cls-20" data-name="Path 599" transform="translate(-1589.25 -1178.837)"/>
                        </g>
                        <g id="Group_368" data-name="Group 368" transform="translate(8.357 3.721)">
                            <path id="Path_600" d="M1563.413 1190.96s.217-.471 0-.471-.217.471 0 .471z" class="cls-20" data-name="Path 600" transform="translate(-1563.25 -1190.489)"/>
                        </g>
                        <g id="Group_369" data-name="Group 369" transform="translate(9.117 5.605)">
                            <path id="Path_601" d="M1567.239 1199.632s.434-.471 0-.471c-.651 0-.651.471 0 .471z" class="cls-20" data-name="Path 601" transform="translate(-1566.75 -1199.161)"/>
                        </g>
                        <g id="Group_370" data-name="Group 370" transform="translate(4.719 4.722)">
                            <path id="Path_602" d="M1546.826 1195.567s.217-.471 0-.471c-.434 0-.434.471 0 .471z" class="cls-20" data-name="Path 602" transform="translate(-1546.5 -1195.096)"/>
                        </g>
                        <g id="Group_371" data-name="Group 371" transform="translate(1.244 5.605)">
                            <path id="Path_603" d="M1530.826 1199.632v-.471c-.434 0-.434.471 0 .471z" class="cls-20" data-name="Path 603" transform="translate(-1530.5 -1199.161)"/>
                        </g>
                        <g id="Group_372" data-name="Group 372" transform="translate(19.433 4.663)">
                            <path id="Path_604" d="M1614.413 1195.3s.217-.471 0-.471-.217.471 0 .471z" class="cls-20" data-name="Path 604" transform="translate(-1614.25 -1194.825)"/>
                        </g>
                        <g id="Group_373" data-name="Group 373" transform="translate(7.705 7.076)">
                            <path id="Path_605" d="M1560.413 1206.407s.217-.471 0-.471-.217.471 0 .471z" class="cls-20" data-name="Path 605" transform="translate(-1560.25 -1205.936)"/>
                        </g>
                        <g id="Group_374" data-name="Group 374" transform="translate(13.786)">
                            <path id="Path_606" d="M1588.413 1173.824s.434-.471 0-.471c-.217 0-.217.471 0 .471z" class="cls-20" data-name="Path 606" transform="translate(-1588.25 -1173.353)"/>
                        </g>
                        <g id="Group_375" data-name="Group 375" transform="translate(19.216 1.757)">
                            <path id="Path_607" d="M1613.413 1181.914s.217-.471 0-.471-.217.471 0 .471z" class="cls-20" data-name="Path 607" transform="translate(-1613.25 -1181.443)"/>
                        </g>
                        <g id="Group_376" data-name="Group 376" transform="translate(26.437 4.487)">
                            <path id="Path_608" d="M1646.826 1194.483s.217-.471 0-.471c-.434 0-.434.471 0 .471z" class="cls-20" data-name="Path 608" transform="translate(-1646.5 -1194.012)"/>
                        </g>
                        <g id="Group_377" data-name="Group 377" transform="translate(27.142 3.486)">
                            <path id="Path_609" d="M1650.239 1189.876s.217-.471 0-.471c-.651 0-.651.471 0 .471z" class="cls-20" data-name="Path 609" transform="translate(-1649.75 -1189.405)"/>
                        </g>
                        <g id="Group_378" data-name="Group 378" transform="translate(23.668 6.958)">
                            <path id="Path_610" d="M1634.239 1205.865s.434-.471 0-.471c-.651 0-.651.471 0 .471z" class="cls-20" data-name="Path 610" transform="translate(-1633.75 -1205.394)"/>
                        </g>
                        <g id="Group_379" data-name="Group 379" transform="translate(22.527 4.545)">
                            <path id="Path_611" d="M1628.826 1194.754s.217-.471 0-.471c-.434 0-.434.471 0 .471z" class="cls-20" data-name="Path 611" transform="translate(-1628.5 -1194.283)"/>
                        </g>
                        <g id="Group_380" data-name="Group 380" transform="translate(28.174 6.429)">
                            <path id="Path_612" d="M1654.826 1203.426s.434-.471 0-.471-.434.471 0 .471z" class="cls-20" data-name="Path 612" transform="translate(-1654.5 -1202.955)"/>
                        </g>
                        <g id="Group_381" data-name="Group 381" transform="translate(2.33 7.253)">
                            <path id="Path_613" d="M1535.826 1207.22s.652-.471 0-.471c-.434 0-.434.471 0 .471z" class="cls-20" data-name="Path 613" transform="translate(-1535.5 -1206.749)"/>
                        </g>
                    </g>
                    <path id="Path_614" d="M1625.2 1210.564a1.724 1.724 0 0 1 .622 1.732c-.241 1.129 1.159-.986-.622-1.732z" class="cls-21" data-name="Path 614" transform="translate(-1592.645 -1177.326)"/>
                </g>
                <g id="Group_385" data-name="Group 385" transform="translate(1478.924 1047.978)">
                    <path id="Path_615" d="M1607.5 1052.3s11.76 10.04 13.526 19.717c.8 4.377-.218 7.338 2.822 3.934s0-8.524 0-8.524-1.582-14.79-16.348-15.127z" class="cls-12" data-name="Path 615" transform="translate(-1582.402 -1051.358)"/>
                    <path id="Path_616" d="M1522.135 1049.532s-12.965 5.863-13.386 19.03c-.142 4.448.928 8.625-2.112 5.221s-1.054-9.366-1.054-9.366 4.325-14.885 16.552-14.885z" class="cls-12" data-name="Path 616" transform="translate(-1502.12 -1049.195)"/>
                    <path id="Path_617" d="M1507.964 1073.783c-3.041-3.4-1.054-9.366-1.054-9.366s3.972-13.638 15.043-14.8c.115-.056.183-.087.183-.087-12.227 0-16.553 14.885-16.553 14.885s-1.986 5.962 1.054 9.366c1.314 1.471 1.86 1.525 2.068.754a9.375 9.375 0 0 1-.741-.752z" class="cls-17" data-name="Path 617" transform="translate(-1502.12 -1049.195)"/>
                    <path id="Path_618" d="M1534.579 1052.668c.642-1.591.389-4.229-7.961-4.667-12.091-.634-16.464 11.916-16.464 11.916s-5.163 4.408 3.631 4.216c5.75-.126 12.547-4.469 16.564-7.461-3.391 5.385-11.373 7.161-11.373 7.161s1.516-.077 8.968-1.443a10.475 10.475 0 0 0 8.5-8.362 3.191 3.191 0 0 0-1.865-1.36z" class="cls-12" data-name="Path 618" transform="translate(-1505.019 -1047.978)"/>
                    <g id="Group_384" data-name="Group 384" transform="translate(0 .001)">
                        <path id="Path_619" d="M1568.611 1088.013c-.438.327-.915.68-1.415 1.046-3.3 4.089-9.194 5.756-10.4 6.062l-.119.046c.318-.028 1.494-.156 4.628-.685a21.427 21.427 0 0 0 7.306-6.469z" class="cls-17" data-name="Path 619" transform="translate(-1542.617 -1079.319)"/>
                        <path id="Path_620" d="M1497.245 1063.232a8.616 8.616 0 0 0 2.617-3.721c1.476-3.933 5.444-11.31 14.338-10.844a19.854 19.854 0 0 1 6.549 1.122c-1.077-.862-3.215-1.576-7.212-1.785-12.091-.634-17.306 12.248-17.306 12.248a3.541 3.541 0 0 1-4.293 2.608c-.001-1.037 1.662 3.206 5.307.372z" class="cls-17" data-name="Path 620" transform="translate(-1491.937 -1047.981)"/>
                    </g>
                    <path id="Path_621" d="M1540.72 1058.25s-11.557 2.918-14.574 8-5.1 5.133-5.1 5.133 1.341.731 8.009-5.2a50.417 50.417 0 0 1 8-5.792z" class="cls-17" data-name="Path 621" transform="translate(-1514.727 -1056.019)"/>
                </g>
            </g>
        </g>
        <g id="Mask_Group_5" clip-path="url(#clip-path-3)" data-name="Mask Group 5" transform="translate(-181 5)">
            <g id="Group_387" data-name="Group 387" transform="translate(-494.314 -223.978)">
                <g id="Group_383-2" data-name="Group 383" transform="translate(1475.314 1050.049)">
                    <path id="Path_545-2" d="M1537.417 1262.754l-.393-9.933h-10.233l-.4 10.565c-6.4 1.09-11.238 3.456-11.238 6.78 0 4.267 7.793 7.759 17.063 7.759s17.342-3.408 17.342-7.675c.005-3.431-5.415-6.489-12.141-7.496z" class="cls-5" data-name="Path 545" transform="translate(-1506.505 -1210.406)"/>
                    <path id="Path_546-2" d="M1487.8 1311.467s13.412 7.954 26.766.027c0 0 12.521 4.219 12.521 12.9l-51.774.039s1.317-7.773 12.487-12.966z" class="cls-6" data-name="Path 546" transform="translate(-1475.314 -1256.316)"/>
                    <path id="Path_547-2" d="M1528.778 1264.117l-.056-10.59-.311-.706-.4 10.565c-5.258.9-9.457 2.655-10.789 5.1 2.148-2.066 6.839-3.565 11.556-4.369z" class="cls-7" data-name="Path 547" transform="translate(-1508.124 -1210.406)"/>
                    <path id="Path_548-2" d="M1579.4 1252.31l-.393-12.7s-.7.257-1.633.524h-9.3l.047 2.2a3.288 3.288 0 0 0 .915 1.987c1.7 1.411 4.4 2.46 5.054 2.375 2.7-.347 3.449 2.555 3.716 4.591.308 2.351 2.548 2.423 3.848 2.737 8.752 2.113 9.334 6.171 9.334 5.89-.002-3.994-6.488-6.552-11.588-7.604z" class="cls-8" data-name="Path 548" transform="translate(-1547.927 -1200.061)"/>
                    <path id="Path_549-2" d="M1532.406 1057.516c-7.657 0-17.153 7.04-17.153 15.954 0 5.508 1.346 18.041 4.575 22.186 2.462 3.16 10.231 7.427 13.158 7.427 3.019 0 10.9-4.146 13.432-7.427 3.89-5.042 3.141-16.785 3.141-22.186 0-8.914-9.496-15.954-17.153-15.954z" class="cls-5" data-name="Path 549" transform="translate(-1506.579 -1057.516)"/>
                    <path id="Path_550-2" d="M1531.323 1188.6c-2.921-.175-10.421-4.9-12.689-8.2-2.976-4.331-3.168-10.208-4.082-12.295-2.21-5.044.917 9.141 4.146 13.286 2.462 3.16 10.231 7.427 13.158 7.427 1.468 0 4.085-.981 6.678-2.366-2.802 1.324-5.672 2.237-7.211 2.148z" class="cls-7" data-name="Path 550" transform="translate(-1505.45 -1143.245)"/>
                    <path id="Path_551-2" d="M1604.935 1073.47c0-8.914-9.5-15.954-17.153-15.954a13.581 13.581 0 0 0-1.79.122c7.111.689 15.12 6.34 15.9 14.179.532 5.374 2.435 16.987-.94 22.387-2.2 3.514-9.631 8.416-12.635 8.714a6.031 6.031 0 0 1-1.5-.091 6.162 6.162 0 0 0 1.552.256c3.019 0 10.9-4.146 13.432-7.427 3.884-5.041 3.134-16.785 3.134-22.186z" class="cls-8" data-name="Path 551" transform="translate(-1561.956 -1057.516)"/>
                    <g id="Group_332-2" data-name="Group 332" transform="translate(1.071 55.152)">
                        <path id="Path_552-2" d="M1515.767 1325.19c5.746.032 7.758-4.317 8.281-8.922a30.146 30.146 0 0 1-3.035-1.195c.103 8.273-5.246 10.117-5.246 10.117z" class="cls-9" data-name="Path 552" transform="translate(-1508.053 -1314.29)"/>
                        <path id="Path_553-2" d="M1482.733 1322.522s3.968 0 8.675-5.338c1.157-1.312 1.5-2.95 1.643-5.006-.893-.418-1.389-.711-1.389-.711-6.874 3.2-10.016 7.367-11.416 10.1a3.376 3.376 0 0 0 2.487.955z" class="cls-9" data-name="Path 553" transform="translate(-1480.246 -1311.467)"/>
                    </g>
                    <path id="Path_554-2" d="M1641.879 1311.591a23.825 23.825 0 0 1-4.12 2.114c-.816 5.69.309 10.9 7.754 9.7 0 0-.073-.1-.2-.3a9.192 9.192 0 0 0 2.589.824 24.327 24.327 0 0 0 6-.578c-1.433-7.908-12.023-11.76-12.023-11.76z" class="cls-9" data-name="Path 554" transform="translate(-1602.303 -1256.413)"/>
                    <path id="Path_555-2" d="M1567.381 1212.548s.774 5.91 6.37 5.912c4.54 0 5.616-5.789 5.616-5.789-4.296-1.145-7.004-1.145-11.986-.123z" class="cls-10" data-name="Path 555" transform="translate(-1547.387 -1178.29)"/>
                    <g id="Group_334-2" data-name="Group 334" transform="translate(19.995 33.432)">
                        <g id="Group_333-2" class="cls-11" data-name="Group 333">
                            <path id="Path_556-2" d="M1567.381 1212.217s1.607 5.006 6.482 4.8c3.643-.154 5.5-4.675 5.5-4.675-4.292-1.159-7-1.159-11.982-.125z" class="cls-12" data-name="Path 556" transform="translate(-1567.381 -1211.457)"/>
                            <path id="Path_557-2" d="M1587.29 1228.458c0-.8-1.468-1.456-3.279-1.456s-3.279.652-3.279 1.456 1.468 1.456 3.279 1.456 3.279-.652 3.279-1.456z" class="cls-13" data-name="Path 557" transform="translate(-1577.833 -1223.626)"/>
                            <path id="Path_558-2" d="M1567.381 1210.725l1.079 1.441a.9.9 0 0 0 .6.354 28.973 28.973 0 0 0 8.8-.125.708.708 0 0 0 .553-.574l.194-1.1s-9.794-.453-11.226.004z" class="cls-14" data-name="Path 558" transform="translate(-1567.381 -1210.725)"/>
                        </g>
                    </g>
                    <g id="Group_335-2" data-name="Group 335" transform="translate(12.844 14.64)">
                        <path id="Path_560-2" d="M1534.457 1128.165a13.588 13.588 0 0 1 7.766-1.779c.419.032.758-.954.355-1.073-5.801-1.713-8.121 2.852-8.121 2.852z" class="cls-12" data-name="Path 560" transform="translate(-1534.457 -1124.929)"/>
                    </g>
                    <g id="Group_336-2" data-name="Group 336" transform="translate(30.281 14.745)">
                        <path id="Path_561-2" d="M1615.177 1126.862a16.411 16.411 0 0 1 8.137 2.208s-2.27-4.519-8.305-3.516c-.447.075-.284 1.335.168 1.308z" class="cls-12" data-name="Path 561" transform="translate(-1614.745 -1125.41)"/>
                    </g>
                    <g id="Group_337-2" data-name="Group 337" transform="translate(24.406 28.185)">
                        <path id="Path_562-2" d="M1589.432 1187.3c-.958 0-1.735.346-1.735.774s.777.774 1.735.774 1.736-.347 1.736-.774-.778-.774-1.736-.774z" class="cls-8" data-name="Path 562" transform="translate(-1587.696 -1187.296)"/>
                    </g>
                    <g id="Group_338-2" data-name="Group 338" transform="translate(23.833 28.527)">
                        <path id="Path_563-2" d="M1586.033 1188.985c-.418-.185-.846-.137-.954.107s.143.593.562.778.846.137.954-.108-.144-.592-.562-.777z" class="cls-15" data-name="Path 563" transform="translate(-1585.053 -1188.872)"/>
                    </g>
                    <g id="Group_339-2" data-name="Group 339" transform="translate(26.955 28.509)">
                        <path id="Path_564-2" d="M1599.977 1188.93c-.407.21-.637.573-.515.811s.552.26.959.05.637-.573.515-.811-.552-.26-.959-.05z" class="cls-15" data-name="Path 564" transform="translate(-1599.429 -1188.786)"/>
                    </g>
                    <g id="Group_340-2" data-name="Group 340" transform="translate(25.155 29.376)">
                        <path id="Path_565-2" d="M1591.141 1192.782a1.165 1.165 0 0 0 1.937 0 2.16 2.16 0 0 1-1.937 0z" class="cls-15" data-name="Path 565" transform="translate(-1591.141 -1192.782)"/>
                    </g>
                    <g id="Group_341-2" data-name="Group 341" transform="translate(26.666 23.351)">
                        <path id="Path_566-2" d="M1599.445 1165.654c.479-2.143-3.737 1.886.731 3.429a3.9 3.9 0 0 1-.731-3.429z" class="cls-8" data-name="Path 566" transform="translate(-1598.102 -1165.04)"/>
                    </g>
                    <path id="Path_567-2" d="M1629.162 1178.75a5.116 5.116 0 0 1-3.116 6c-2.686.924-6.578.1-7.221-1.766s.363-2.469 4.682-3.622c2.743-.728 5.012-2.479 5.655-.612z" class="cls-16" data-name="Path 567" transform="translate(-1587.519 -1151.769)"/>
                    <path id="Path_568-2" d="M1546.968 1152.964c-1.942 0-3.917 1.488-3.516 3.22.393 1.7 1 3.22 3.516 3.22a3.257 3.257 0 0 0 3.516-3.22c.201-1.767-1.574-3.22-3.516-3.22z" class="cls-14" data-name="Path 568" transform="translate(-1528.613 -1132.235)"/>
                    <ellipse id="Ellipse_21-2" cx="2.084" cy="2.336" class="cls-17" data-name="Ellipse 21" rx="2.084" ry="2.336" transform="translate(16.354 21.447)"/>
                    <ellipse id="Ellipse_22-2" cx=".497" cy=".758" class="cls-14" data-name="Ellipse 22" rx=".497" ry=".758" transform="translate(18.982 22.797)"/>
                    <path id="Path_569-2" d="M1539.511 1149.039a3.7 3.7 0 0 0-3.694 3.41l-1.807.912 2.1-.349a3.386 3.386 0 0 1 3.511-3.121 3.522 3.522 0 0 1 3.25 2.007l.146.391.657.025-.489-.412a3.615 3.615 0 0 0-3.674-2.863z" class="cls-18" data-name="Path 569" transform="translate(-1521.263 -1129.163)"/>
                    <path id="Path_570-2" d="M1616.7 1152.964c-1.942 0-3.717 1.453-3.516 3.22a3.257 3.257 0 0 0 3.516 3.22c2.513 0 3.124-1.521 3.516-3.22.399-1.732-1.576-3.22-3.516-3.22z" class="cls-14" data-name="Path 570" transform="translate(-1583.229 -1132.235)"/>
                    <ellipse id="Ellipse_23-2" cx="2.084" cy="2.336" class="cls-17" data-name="Ellipse 23" rx="2.084" ry="2.336" transform="translate(31.303 21.447)"/>
                    <path id="Path_571-2" d="M1632.053 1162.487c-.274 0-.5.339-.5.758s.222.758.5.758.5-.339.5-.758-.225-.758-.5-.758z" class="cls-14" data-name="Path 571" transform="translate(-1597.625 -1139.69)"/>
                    <path id="Path_572-2" d="M1614.925 1149.039a3.615 3.615 0 0 0-3.671 2.864l-.489.412.657-.025.146-.391a3.523 3.523 0 0 1 3.251-2.007 3.386 3.386 0 0 1 3.51 3.121l2.1.349-1.807-.912a3.7 3.7 0 0 0-3.697-3.411z" class="cls-18" data-name="Path 572" transform="translate(-1581.349 -1129.163)"/>
                    <ellipse id="Ellipse_24-2" cx="2.257" cy="4.617" class="cls-5" data-name="Ellipse 24" rx="2.257" ry="4.617" transform="rotate(-26.573 51.52 2.397)"/>
                    <path id="Path_573-2" d="M1505.934 1166.814c-.679.359-.654 1.786.056 3.188s1.837 2.246 2.516 1.886-1.893-5.433-2.572-5.074z" class="cls-8" data-name="Path 573" transform="translate(-1498.898 -1143.063)"/>
                    <g id="Group_342-2" data-name="Group 342" transform="translate(40.117 21.119)">
                        <ellipse id="Ellipse_25-2" cx="4.62" cy="2.256" class="cls-8" data-name="Ellipse 25" rx="4.62" ry="2.256" transform="rotate(-65.811 6.513 4.215)"/>
                    </g>
                    <path id="Path_574-2" d="M1522.465 1181.129a5.117 5.117 0 0 0 3.116 6c2.686.924 6.578.1 7.221-1.766s-.363-2.47-4.682-3.622c-2.744-.728-5.012-2.479-5.655-.612z" class="cls-16" data-name="Path 574" transform="translate(-1512.083 -1153.631)"/>
                    <g id="Group_343-2" data-name="Group 343" transform="translate(42.642 23.234)">
                        <path id="Path_575-2" d="M1673.315 1164.5c.739.2 1.014 1.6.615 3.125s-1.322 2.6-2.06 2.394.707-5.719 1.445-5.519z" class="cls-19" data-name="Path 575" transform="translate(-1671.665 -1164.498)"/>
                    </g>
                    <g id="Group_382-2" data-name="Group 382" transform="translate(10.741 25.157)">
                        <g id="Group_344-2" data-name="Group 344" transform="translate(3.916 4.075)">
                            <path id="Path_576-2" d="M1542.924 1192.35a.118.118 0 1 0 0-.235.118.118 0 1 0 0 .235z" class="cls-20" data-name="Path 576" transform="translate(-1542.802 -1192.115)"/>
                        </g>
                        <g id="Group_345-2" data-name="Group 345" transform="translate(7.895 4.781)">
                            <path id="Path_577-2" d="M1561.247 1195.6a.118.118 0 1 0 0-.236.118.118 0 1 0 0 .236z" class="cls-20" data-name="Path 577" transform="translate(-1561.125 -1195.367)"/>
                        </g>
                        <g id="Group_346-2" data-name="Group 346" transform="translate(4.674 7.017)">
                            <path id="Path_578-2" d="M1546.414 1205.9a.118.118 0 1 0 0-.235.118.118 0 1 0 0 .235z" class="cls-20" data-name="Path 578" transform="translate(-1546.292 -1205.665)"/>
                        </g>
                        <g id="Group_347-2" data-name="Group 347" transform="translate(12.443 1.662)">
                            <path id="Path_579-2" d="M1582.187 1181.24a.118.118 0 1 0 0-.235.118.118 0 1 0 0 .235z" class="cls-20" data-name="Path 579" transform="translate(-1582.065 -1181.004)"/>
                        </g>
                        <g id="Group_348-2" data-name="Group 348" transform="translate(21.791 4.369)">
                            <path id="Path_580-2" d="M1625.231 1193.706a.118.118 0 1 0 0-.235.118.118 0 1 0 0 .235z" class="cls-20" data-name="Path 580" transform="translate(-1625.109 -1193.47)"/>
                        </g>
                        <g id="Group_349-2" data-name="Group 349" transform="translate(26.086 3.486)">
                            <path id="Path_581-2" d="M1645.008 1189.641a.118.118 0 1 0 0-.235.118.118 0 1 0 0 .235z" class="cls-20" data-name="Path 581" transform="translate(-1644.886 -1189.405)"/>
                        </g>
                        <g id="Group_350-2" data-name="Group 350" transform="translate(24.823 5.369)">
                            <path id="Path_582-2" d="M1639.191 1198.313a.118.118 0 1 0 0-.235.118.118 0 1 0 0 .235z" class="cls-20" data-name="Path 582" transform="translate(-1639.069 -1198.077)"/>
                        </g>
                        <g id="Group_351-2" data-name="Group 351" transform="translate(28.36 4.604)">
                            <path id="Path_583-2" d="M1655.478 1194.79a.118.118 0 1 0 0-.235.118.118 0 1 0 0 .235z" class="cls-20" data-name="Path 583" transform="translate(-1655.356 -1194.554)"/>
                        </g>
                        <g id="Group_352-2" data-name="Group 352" transform="translate(1.389 4.31)">
                            <path id="Path_584-2" d="M1531.29 1193.434a.118.118 0 1 0 0-.235.118.118 0 1 0 0 .235z" class="cls-20" data-name="Path 584" transform="translate(-1531.168 -1193.199)"/>
                        </g>
                        <g id="Group_353-2" data-name="Group 353" transform="translate(0 3.604)">
                            <path id="Path_585-2" d="M1524.892 1190.183a.118.118 0 1 0 0-.235.118.118 0 1 0 0 .235z" class="cls-20" data-name="Path 585" transform="translate(-1524.77 -1189.947)"/>
                        </g>
                        <g id="Group_354-2" data-name="Group 354" transform="translate(28.928 1.544)">
                            <path id="Path_586-2" d="M1658.1 1180.7a.118.118 0 1 0 0-.235.118.118 0 1 0 0 .235z" class="cls-20" data-name="Path 586" transform="translate(-1657.974 -1180.463)"/>
                        </g>
                        <g id="Group_355-2" data-name="Group 355" transform="translate(16.31 1.829)">
                            <path id="Path_587-2" d="M1599.991 1182.011a.118.118 0 1 0 0-.236.118.118 0 1 0 0 .236z" class="cls-20" data-name="Path 587" transform="translate(-1599.869 -1181.775)"/>
                        </g>
                        <g id="Group_356-2" data-name="Group 356" transform="translate(3.199 5.252)">
                            <path id="Path_588-2" d="M1539.826 1198.241s.434-.706 0-.706a.354.354 0 0 0 0 .706z" class="cls-20" data-name="Path 588" transform="translate(-1539.5 -1197.535)"/>
                        </g>
                        <g id="Group_357-2" data-name="Group 357" transform="translate(6.619 3.78)">
                            <path id="Path_589-2" d="M1555.413 1191.466s.651-.706 0-.706c-.217 0-.217.706 0 .706z" class="cls-20" data-name="Path 589" transform="translate(-1555.25 -1190.76)"/>
                        </g>
                        <g id="Group_358-2" data-name="Group 358" transform="translate(1.679 3.192)">
                            <path id="Path_590-2" d="M1532.826 1188.756s.651-.706 0-.706a.354.354 0 0 0 0 .706z" class="cls-20" data-name="Path 590" transform="translate(-1532.5 -1188.05)"/>
                        </g>
                        <g id="Group_359-2" data-name="Group 359" transform="translate(19.976 3.427)">
                            <path id="Path_591-2" d="M1617.239 1189.84s.651-.706 0-.706-.651.706 0 .706z" class="cls-20" data-name="Path 591" transform="translate(-1616.75 -1189.134)"/>
                        </g>
                        <g id="Group_360-2" data-name="Group 360" transform="translate(23.668 3.721)">
                            <path id="Path_592-2" d="M1634.239 1191.2s.652-.706 0-.706-.651.706 0 .706z" class="cls-20" data-name="Path 592" transform="translate(-1633.75 -1190.489)"/>
                        </g>
                        <g id="Group_361-2" data-name="Group 361" transform="translate(21.442 5.369)">
                            <path id="Path_593-2" d="M1623.826 1198.783s.434-.706 0-.706a.354.354 0 0 0 0 .706z" class="cls-20" data-name="Path 593" transform="translate(-1623.5 -1198.077)"/>
                        </g>
                        <g id="Group_362-2" data-name="Group 362" transform="translate(26.871 1.838)">
                            <path id="Path_594-2" d="M1648.826 1182.524s.652-.706 0-.706a.354.354 0 0 0 0 .706z" class="cls-20" data-name="Path 594" transform="translate(-1648.5 -1181.818)"/>
                        </g>
                        <g id="Group_363-2" data-name="Group 363" transform="translate(26.762 5.428)">
                            <path id="Path_595-2" d="M1648 1199.054s.434-.706 0-.706v.706z" class="cls-20" data-name="Path 595" transform="translate(-1648 -1198.348)"/>
                        </g>
                        <g id="Group_364-2" data-name="Group 364" transform="translate(10.311 2.486)">
                            <path id="Path_596-2" d="M1572.413 1185.505s.435-.706 0-.706c-.217 0-.217.706 0 .706z" class="cls-20" data-name="Path 596" transform="translate(-1572.25 -1184.799)"/>
                        </g>
                        <g id="Group_365-2" data-name="Group 365" transform="translate(5.642 5.605)">
                            <path id="Path_597-2" d="M1551.239 1199.867s.434-.706 0-.706c-.651 0-.651.706 0 .706z" class="cls-20" data-name="Path 597" transform="translate(-1550.75 -1199.161)"/>
                        </g>
                        <g id="Group_366-2" data-name="Group 366" transform="translate(10.311 3.794)">
                            <path id="Path_598-2" d="M1572.413 1191.294s.217-.471 0-.471-.217.471 0 .471z" class="cls-20" data-name="Path 598" transform="translate(-1572.25 -1190.823)"/>
                        </g>
                        <g id="Group_367-2" data-name="Group 367" transform="translate(14.003 1.191)">
                            <path id="Path_599-2" d="M1589.413 1179.308s.434-.471 0-.471c-.217 0-.217.471 0 .471z" class="cls-20" data-name="Path 599" transform="translate(-1589.25 -1178.837)"/>
                        </g>
                        <g id="Group_368-2" data-name="Group 368" transform="translate(8.357 3.721)">
                            <path id="Path_600-2" d="M1563.413 1190.96s.217-.471 0-.471-.217.471 0 .471z" class="cls-20" data-name="Path 600" transform="translate(-1563.25 -1190.489)"/>
                        </g>
                        <g id="Group_369-2" data-name="Group 369" transform="translate(9.117 5.605)">
                            <path id="Path_601-2" d="M1567.239 1199.632s.434-.471 0-.471c-.651 0-.651.471 0 .471z" class="cls-20" data-name="Path 601" transform="translate(-1566.75 -1199.161)"/>
                        </g>
                        <g id="Group_370-2" data-name="Group 370" transform="translate(4.719 4.722)">
                            <path id="Path_602-2" d="M1546.826 1195.567s.217-.471 0-.471c-.434 0-.434.471 0 .471z" class="cls-20" data-name="Path 602" transform="translate(-1546.5 -1195.096)"/>
                        </g>
                        <g id="Group_371-2" data-name="Group 371" transform="translate(1.244 5.605)">
                            <path id="Path_603-2" d="M1530.826 1199.632v-.471c-.434 0-.434.471 0 .471z" class="cls-20" data-name="Path 603" transform="translate(-1530.5 -1199.161)"/>
                        </g>
                        <g id="Group_372-2" data-name="Group 372" transform="translate(19.433 4.663)">
                            <path id="Path_604-2" d="M1614.413 1195.3s.217-.471 0-.471-.217.471 0 .471z" class="cls-20" data-name="Path 604" transform="translate(-1614.25 -1194.825)"/>
                        </g>
                        <g id="Group_373-2" data-name="Group 373" transform="translate(7.705 7.076)">
                            <path id="Path_605-2" d="M1560.413 1206.407s.217-.471 0-.471-.217.471 0 .471z" class="cls-20" data-name="Path 605" transform="translate(-1560.25 -1205.936)"/>
                        </g>
                        <g id="Group_374-2" data-name="Group 374" transform="translate(13.786)">
                            <path id="Path_606-2" d="M1588.413 1173.824s.434-.471 0-.471c-.217 0-.217.471 0 .471z" class="cls-20" data-name="Path 606" transform="translate(-1588.25 -1173.353)"/>
                        </g>
                        <g id="Group_375-2" data-name="Group 375" transform="translate(19.216 1.757)">
                            <path id="Path_607-2" d="M1613.413 1181.914s.217-.471 0-.471-.217.471 0 .471z" class="cls-20" data-name="Path 607" transform="translate(-1613.25 -1181.443)"/>
                        </g>
                        <g id="Group_376-2" data-name="Group 376" transform="translate(26.437 4.487)">
                            <path id="Path_608-2" d="M1646.826 1194.483s.217-.471 0-.471c-.434 0-.434.471 0 .471z" class="cls-20" data-name="Path 608" transform="translate(-1646.5 -1194.012)"/>
                        </g>
                        <g id="Group_377-2" data-name="Group 377" transform="translate(27.142 3.486)">
                            <path id="Path_609-2" d="M1650.239 1189.876s.217-.471 0-.471c-.651 0-.651.471 0 .471z" class="cls-20" data-name="Path 609" transform="translate(-1649.75 -1189.405)"/>
                        </g>
                        <g id="Group_378-2" data-name="Group 378" transform="translate(23.668 6.958)">
                            <path id="Path_610-2" d="M1634.239 1205.865s.434-.471 0-.471c-.651 0-.651.471 0 .471z" class="cls-20" data-name="Path 610" transform="translate(-1633.75 -1205.394)"/>
                        </g>
                        <g id="Group_379-2" data-name="Group 379" transform="translate(22.527 4.545)">
                            <path id="Path_611-2" d="M1628.826 1194.754s.217-.471 0-.471c-.434 0-.434.471 0 .471z" class="cls-20" data-name="Path 611" transform="translate(-1628.5 -1194.283)"/>
                        </g>
                        <g id="Group_380-2" data-name="Group 380" transform="translate(28.174 6.429)">
                            <path id="Path_612-2" d="M1654.826 1203.426s.434-.471 0-.471-.434.471 0 .471z" class="cls-20" data-name="Path 612" transform="translate(-1654.5 -1202.955)"/>
                        </g>
                        <g id="Group_381-2" data-name="Group 381" transform="translate(2.33 7.253)">
                            <path id="Path_613-2" d="M1535.826 1207.22s.652-.471 0-.471c-.434 0-.434.471 0 .471z" class="cls-20" data-name="Path 613" transform="translate(-1535.5 -1206.749)"/>
                        </g>
                    </g>
                    <path id="Path_614-2" d="M1625.2 1210.564a1.724 1.724 0 0 1 .622 1.732c-.241 1.129 1.159-.986-.622-1.732z" class="cls-21" data-name="Path 614" transform="translate(-1592.645 -1177.326)"/>
                </g>
                <g id="Group_385-2" data-name="Group 385" transform="translate(1478.924 1047.978)">
                    <path id="Path_615-2" d="M1607.5 1052.3s11.76 10.04 13.526 19.717c.8 4.377-.218 7.338 2.822 3.934s0-8.524 0-8.524-1.582-14.79-16.348-15.127z" class="cls-12" data-name="Path 615" transform="translate(-1582.402 -1051.358)"/>
                    <path id="Path_616-2" d="M1522.135 1049.532s-12.965 5.863-13.386 19.03c-.142 4.448.928 8.625-2.112 5.221s-1.054-9.366-1.054-9.366 4.325-14.885 16.552-14.885z" class="cls-12" data-name="Path 616" transform="translate(-1502.12 -1049.195)"/>
                    <path id="Path_617-2" d="M1507.964 1073.783c-3.041-3.4-1.054-9.366-1.054-9.366s3.972-13.638 15.043-14.8c.115-.056.183-.087.183-.087-12.227 0-16.553 14.885-16.553 14.885s-1.986 5.962 1.054 9.366c1.314 1.471 1.86 1.525 2.068.754a9.375 9.375 0 0 1-.741-.752z" class="cls-17" data-name="Path 617" transform="translate(-1502.12 -1049.195)"/>
                    <path id="Path_618-2" d="M1534.579 1052.668c.642-1.591.389-4.229-7.961-4.667-12.091-.634-16.464 11.916-16.464 11.916s-5.163 4.408 3.631 4.216c5.75-.126 12.547-4.469 16.564-7.461-3.391 5.385-11.373 7.161-11.373 7.161s1.516-.077 8.968-1.443a10.475 10.475 0 0 0 8.5-8.362 3.191 3.191 0 0 0-1.865-1.36z" class="cls-12" data-name="Path 618" transform="translate(-1505.019 -1047.978)"/>
                    <g id="Group_384-2" data-name="Group 384" transform="translate(0 .001)">
                        <path id="Path_619-2" d="M1568.611 1088.013c-.438.327-.915.68-1.415 1.046-3.3 4.089-9.194 5.756-10.4 6.062l-.119.046c.318-.028 1.494-.156 4.628-.685a21.427 21.427 0 0 0 7.306-6.469z" class="cls-17" data-name="Path 619" transform="translate(-1542.617 -1079.319)"/>
                        <path id="Path_620-2" d="M1497.245 1063.232a8.616 8.616 0 0 0 2.617-3.721c1.476-3.933 5.444-11.31 14.338-10.844a19.854 19.854 0 0 1 6.549 1.122c-1.077-.862-3.215-1.576-7.212-1.785-12.091-.634-17.306 12.248-17.306 12.248a3.541 3.541 0 0 1-4.293 2.608c-.001-1.037 1.662 3.206 5.307.372z" class="cls-17" data-name="Path 620" transform="translate(-1491.937 -1047.981)"/>
                    </g>
                    <path id="Path_621-2" d="M1540.72 1058.25s-11.557 2.918-14.574 8-5.1 5.133-5.1 5.133 1.341.731 8.009-5.2a50.417 50.417 0 0 1 8-5.792z" class="cls-17" data-name="Path 621" transform="translate(-1514.727 -1056.019)"/>
                </g>
            </g>
        </g>
    </g>
</svg>
