<svg xmlns="http://www.w3.org/2000/svg" width="62" height="69" viewBox="0 0 62 69">
    <defs>
        <clipPath id="clip-path">
            <rect id="Rectangle_19" width="62" height="50" fill="#96ccf2" data-name="Rectangle 19" rx="12" transform="translate(0 .234)"/>
        </clipPath>
        <clipPath id="clip-path-2">
            <path id="Rectangle_24" fill="#fff" stroke="#707070" d="M0 0H60V38H0z" data-name="Rectangle 24" transform="translate(-.346)"/>
        </clipPath>
        <style>
            .cls-14{fill:#fff}.cls-5{fill:#e8cc43}.cls-6{fill:#8c7a30}.cls-7{fill:#f7b69f}.cls-8{fill:#ce8474}.cls-9{fill:#f9ddb4}.cls-10{fill:#d86348}.cls-11{fill:#42d3cf}.cls-12{fill:#f4db73}.cls-13{fill:#635349}.cls-15{fill:#5ba5a0}.cls-16{fill:#a05c5c}.cls-17{fill:#ccb03b}.cls-18{fill:#f2f2f2}.cls-19{fill:#ba796e}.cls-20{fill:#4d4d4d}.cls-22{fill:#8c6f5b}.cls-23{fill:#d67676}.cls-24{fill:#edac98}.cls-26{fill:#4c312e}
        </style>
    </defs>
    <g id="Group_685" data-name="Group 685" transform="translate(-562 -880)">
        <rect id="Rectangle_23" width="62" height="50" fill="#3a8bfc" data-name="Rectangle 23" rx="12" transform="translate(562 899)"/>
        <g id="Mask_Group_2" clip-path="url(#clip-path)" data-name="Mask Group 2" transform="translate(562 898.766)">
            <g id="Group_321" data-name="Group 321" transform="translate(3.519 -13.137)">
                <g id="Group_320" data-name="Group 320">
                    <ellipse id="Ellipse_10" cx="17.306" cy="7.568" class="cls-5" data-name="Ellipse 10" rx="17.306" ry="7.568" transform="translate(11.068 45.745)"/>
                    <ellipse id="Ellipse_11" cx="11.68" cy="6.035" class="cls-6" data-name="Ellipse 11" rx="11.68" ry="6.035" transform="translate(16.581 47.374)"/>
                    <path id="Path_454" d="M565.568 1282l-.406-11h-12.295l-.4 10.96c-3.382.867-5.629 2.38-5.629 4.118 0 2.7 6.06 6.012 12.741 6.012s11.454-3.31 11.454-6.009c-.004-1.71-2.176-3.204-5.465-4.081z" class="cls-7" data-name="Path 454" transform="translate(-531.181 -1230.47)"/>
                    <g id="Group_313" data-name="Group 313" transform="translate(22.308 41.279)">
                        <path id="Path_455" d="M588.7 1284.227l.241 2.064c.214 1.3-1.926 3.086 1.578 2.581 2.66-.383 10.442 3.787 10.756 5.082.475-2.222-7.313-8.667-11.28-9.3l-.405-9.215-12.26-1.01-.029 2.006c3.874 3.885 6.638 6.222 8.393 5.642a2.4 2.4 0 0 1 3.006 2.15z" class="cls-8" data-name="Path 455" transform="translate(-577.303 -1274.433)"/>
                    </g>
                    <g id="Group_314" data-name="Group 314" transform="translate(15.902 40.472)">
                        <path id="Path_456" d="M548.66 1286.664c0-1.738 2.241-3.266 5.613-4.133l.4-10.989-.686-.808-.4 10.989c-3.372.867-5.613 2.395-5.613 4.133a5.6 5.6 0 0 0 1.785 3.293 4.508 4.508 0 0 1-1.099-2.485z" class="cls-9" data-name="Path 456" transform="translate(-547.974 -1270.735)"/>
                    </g>
                    <path id="Path_457" d="M540.393 1336.1c-2.253-3.714-6.718-7.793-15.545-10.019a12.233 12.233 0 0 1-10.387 5.481 11.824 11.824 0 0 1-10.774-6.056 24.541 24.541 0 0 0-15.613 10.594z" class="cls-10" data-name="Path 457" transform="translate(-485.257 -1273.069)"/>
                    <g id="Group_315" data-name="Group 315" transform="translate(15.139 52.01)">
                        <path id="Path_458" d="M558.548 1332.4c6.486.245 11.514-5.352 13.194-7.493-.884-.281-1.818-.542-2.807-.779a12.238 12.238 0 0 1-10.387 5.464 11.825 11.825 0 0 1-10.774-6.031q-1.751.408-3.291.9a16.824 16.824 0 0 0 14.065 7.939z" class="cls-11" data-name="Path 458" transform="translate(-544.483 -1323.557)"/>
                    </g>
                    <path id="Path_459" d="M494.845 1326.088c-1.054-5.9-2.682-13.392-2.682-13.392-10.471 2.952-15.013 9.023-16.983 13.392z" class="cls-5" data-name="Path 459" transform="translate(-475.179 -1263.058)"/>
                    <path id="Path_460" d="M524.257 1305.373c.188-2.974 3.541-5.464 9.063-6.7.017-.051.066-.3.08-.331-6.151 1.116-10.221 3.842-10.221 7.029 0 1.619 1.122 3.119 3.031 4.349a.118.118 0 0 0 .152-.178c-.828-.902-2.204-2.597-2.105-4.169z" class="cls-12" data-name="Path 460" transform="translate(-512.694 -1251.841)"/>
                    <path id="Path_461" d="M661.377 1326.088a26.88 26.88 0 0 0-15.756-13.392s-2.283 7.494-3.653 13.392z" class="cls-5" data-name="Path 461" transform="translate(-605.534 -1263.058)"/>
                    <path id="Path_462" d="M542.571 1096.279c-7.539 0-16.888 6.931-16.888 15.708 0 5.422 1.325 17.762 4.5 21.843 2.424 3.111 10.073 7.312 12.955 7.312 2.972 0 10.732-4.082 13.224-7.312 3.83-4.963 3.092-16.526 3.092-21.843.005-8.777-9.344-15.708-16.883-15.708z" class="cls-7" data-name="Path 462" transform="translate(-514.651 -1093.916)"/>
                    <path id="Path_463" d="M542.616 1141.158c-2.876-.173-10.042-4.824-12.275-8.075-2.929-4.264-3.73-16.661-3.406-22.073.449-7.47 7.6-13.193 14.365-14.437-7.278.712-15.618 7.354-15.618 15.644 0 5.422 1.325 17.762 4.5 21.843 2.424 3.111 10.073 7.312 12.955 7.312 1.445 0 4.022-.966 6.575-2.329-2.755 1.308-5.581 2.206-7.096 2.115z" class="cls-9" data-name="Path 463" transform="translate(-514.65 -1094.146)"/>
                    <path id="Path_464" d="M561.581 1098.806c-2.938-1.87 1.763-.17 6.04 1.508.669.944 1.3 1.929 1.885 2.895a86.369 86.369 0 0 1-7.925-4.403zm2.086-8.1a35.567 35.567 0 0 0-7.737-1.92c-.12-.017-.241-.027-.362-.04a19.238 19.238 0 0 0-10.656 3.962c-1.746 1.893-2.189 4.05-.166 5.507 0 0 4.968 3.885 9.716 5.279a123.817 123.817 0 0 1 11.661 4.425s-9.28-5.158-10.87-6.929 1.955 1.359 7.438 2.378a58.587 58.587 0 0 0 7.448.917 32.984 32.984 0 0 1 2.561 5.292c.421 1.5-.315 5.6-.041 6.792a98.606 98.606 0 0 0 .956-11.766c-.001-6.037-4.55-11.209-9.948-13.894z" class="cls-8" data-name="Path 464" transform="translate(-528.502 -1088.031)"/>
                    <path id="Path_465" d="M613.573 1111.987c0-8.777-9.349-15.708-16.888-15.708a13.346 13.346 0 0 0-1.763.12c7 .678 14.887 6.242 15.651 13.959.524 5.291 2.4 16.724-.925 22.041-2.162 3.46-9.482 8.286-12.44 8.579a5.94 5.94 0 0 1-1.48-.089 6.079 6.079 0 0 0 1.528.252c2.972 0 10.732-4.082 13.224-7.312 3.831-4.963 3.093-16.529 3.093-21.842z" class="cls-8" data-name="Path 465" transform="translate(-568.766 -1093.916)"/>
                    <path id="Path_466" d="M556.651 1185.933c-1.723 0-3.475 1.32-3.12 2.857.348 1.507.89 2.857 3.12 2.857a2.89 2.89 0 0 0 3.12-2.857c.178-1.568-1.397-2.857-3.12-2.857z" class="cls-13" data-name="Path 466" transform="translate(-536.38 -1163.986)"/>
                    <path id="Path_467" d="M628.329 1185.933c-1.723 0-3.475 1.32-3.12 2.857.348 1.507.89 2.857 3.12 2.857a2.89 2.89 0 0 0 3.12-2.857c.178-1.568-1.397-2.857-3.12-2.857z" class="cls-13" data-name="Path 467" transform="translate(-592.4 -1163.986)"/>
                    <path id="Path_468" d="M556.651 1189.352c-1.723 0-3.475 1.32-3.12 2.857.348 1.507.89 2.857 3.12 2.857a2.89 2.89 0 0 0 3.12-2.857c.178-1.567-1.397-2.857-3.12-2.857z" class="cls-14" data-name="Path 468" transform="translate(-536.38 -1166.658)"/>
                    <ellipse id="Ellipse_12" cx="1.849" cy="2.073" class="cls-15" data-name="Ellipse 12" rx="1.849" ry="2.073" transform="translate(18.496 23.332)"/>
                    <path id="Path_469" d="M570.969 1197.752c-.244 0-.441.3-.441.672s.2.672.441.672.441-.3.441-.672-.197-.672-.441-.672z" class="cls-14" data-name="Path 469" transform="translate(-549.7 -1173.223)"/>
                    <path id="Path_470" d="M628.287 1189.352c-1.723 0-3.3 1.29-3.12 2.857a2.89 2.89 0 0 0 3.12 2.857c2.23 0 2.771-1.35 3.12-2.857.355-1.537-1.397-2.857-3.12-2.857z" class="cls-14" data-name="Path 470" transform="translate(-592.393 -1166.658)"/>
                    <ellipse id="Ellipse_13" cx="1.849" cy="2.073" class="cls-15" data-name="Ellipse 13" rx="1.849" ry="2.073" transform="translate(33.972 23.332)"/>
                    <path id="Path_471" d="M641.815 1197.752c-.244 0-.441.3-.441.672s.2.672.441.672.441-.3.441-.672-.198-.672-.441-.672z" class="cls-14" data-name="Path 471" transform="translate(-605.07 -1173.223)"/>
                    <ellipse id="Ellipse_14" cx="2.409" cy="1.057" class="cls-8" data-name="Ellipse 14" rx="2.409" ry="1.057" transform="translate(25.605 29.721)"/>
                    <path id="Path_472" d="M590.555 1225.859c-.42-.186-.848-.137-.957.108s.144.595.563.781.848.138.956-.108-.142-.595-.562-.781z" class="cls-16" data-name="Path 472" transform="translate(-564.585 -1195.102)"/>
                    <path id="Path_473" d="M609.83 1225.859c-.42.186-.672.535-.563.781s.537.293.956.108.672-.535.563-.781-.536-.294-.956-.108z" class="cls-16" data-name="Path 473" transform="translate(-579.956 -1195.102)"/>
                    <path id="Path_474" d="M594.332 1228a2.569 2.569 0 0 0 3.9-.061 5.1 5.1 0 0 1-3.9.061z" class="cls-16" data-name="Path 474" transform="translate(-568.304 -1196.815)"/>
                    <path id="Path_475" d="M545.737 1164.4c-.217.3.357 1.283.678 1.067a12.631 12.631 0 0 1 7.336-2.074c5.285.087-4.063-4.526-8.014 1.007z" class="cls-13" data-name="Path 475" transform="translate(-530.287 -1145.026)"/>
                    <path id="Path_476" d="M621.057 1161.251a10.142 10.142 0 0 1 6.375 2.445c.249.218.837-.695.687-.989-2.889-5.671-11.806-1.652-7.062-1.456z" class="cls-13" data-name="Path 476" transform="translate(-588.124 -1143.473)"/>
                    <path id="Path_477" d="M606.376 1196.5c.426-2.648-3.318 2.33.649 4.237a6.193 6.193 0 0 1-.649-4.237z" class="cls-8" data-name="Path 477" transform="translate(-576.785 -1171.649)"/>
                    <path id="Path_478" d="M670.377 1325.254s-1.181 4.251-3.384 5.723 1.971.993 4.957-4.445a8.014 8.014 0 0 0-1.573-1.278z" class="cls-17" data-name="Path 478" transform="translate(-624.609 -1272.873)"/>
                    <path id="Path_479" d="M663.471 1357.409l1.039-4.637-.819.235-.822 4.4z" class="cls-17" data-name="Path 479" transform="translate(-621.869 -1294.379)"/>
                    <path id="Path_480" d="M651.415 1354.883l1.042-4.819a.45.45 0 0 0-.884-.163l-1.134 4.982z" class="cls-18" data-name="Path 480" transform="translate(-612.155 -1291.854)"/>
                    <path id="Path_481" d="M548.341 1356.468h.909l-.63-4.538a.449.449 0 0 0-.884.161z" class="cls-18" data-name="Path 481" transform="translate(-531.881 -1293.438)"/>
                    <path id="Path_482" d="M694.851 1336.914h1.717a24.536 24.536 0 0 0-9.495-10.365 27.045 27.045 0 0 1 7.778 10.365z" class="cls-17" data-name="Path 482" transform="translate(-640.787 -1273.885)"/>
                    <path id="Path_483" d="M476.809 1335.6a21.754 21.754 0 0 1 8.635-10.733 21.827 21.827 0 0 0-10.26 10.733z" class="cls-12" data-name="Path 483" transform="translate(-475.183 -1272.57)"/>
                    <path id="Path_484" d="M509.45 1189.182c-1.229.652-1.181 3.249.107 5.8s3.33 4.09 4.559 3.437 1.182-3.25-.107-5.8-3.329-4.09-4.559-3.437z" class="cls-7" data-name="Path 484" transform="translate(-501.267 -1166.408)"/>
                    <path id="Path_485" d="M514.1 1197.085c-.757.4-.728 2 .066 3.574s2.051 2.52 2.809 2.118-2.117-6.094-2.875-5.692z" class="cls-8" data-name="Path 485" transform="translate(-505.169 -1172.686)"/>
                    <g id="Group_316" data-name="Group 316" transform="translate(43.22 22.263)">
                        <path id="Path_486" d="M678.158 1187.473c-1.353-.537-3.336 1.234-4.428 3.955s-.88 5.363.473 5.9 3.336-1.233 4.427-3.955.881-5.363-.472-5.9z" class="cls-8" data-name="Path 486" transform="translate(-673.032 -1187.376)"/>
                    </g>
                    <g id="Group_317" data-name="Group 317" transform="translate(44.81 23.82)">
                        <path id="Path_487" d="M681.94 1194.508c.879.182 1.29 1.763.919 3.53s-1.385 3.051-2.263 2.869.466-6.581 1.344-6.399z" class="cls-19" data-name="Path 487" transform="translate(-680.31 -1194.505)"/>
                    </g>
                    <path id="Path_488" d="M527.442 1111.52s-6.327 5.881-4.245 14.636c.9 3.786-2.476-.651-2.476-.651s-2.489-12.171 5.116-16.942 1.605 2.957 1.605 2.957z" class="cls-20" data-name="Path 488" transform="translate(-510.468 -1102.301)"/>
                    <path id="Path_489" fill="#534741" d="M566.712 1091.306c-2.458-2.411-6.7-4.692-13.986-5.738-7.361-1.056-15.865 6.058-11.184 9.43 0 0 4.968 3.885 9.717 5.279a123.728 123.728 0 0 1 11.661 4.425s-9.28-5.158-10.87-6.929 1.955 1.359 7.438 2.379a58.653 58.653 0 0 0 7.448.917 32.994 32.994 0 0 1 2.561 5.292c.521 1.85-.729 7.692.352 7.074s2.044-5.313 2.044-5.313c.768-8.812-1.91-13.89-5.181-16.816zm-8.335 4.28c-2.938-1.869 1.764-.169 6.04 1.509.669.944 1.3 1.929 1.885 2.895a86.407 86.407 0 0 1-7.925-4.404z" data-name="Path 489" transform="translate(-525.997 -1085.463)"/>
                    <g id="Group_318" data-name="Group 318" transform="translate(22.838)">
                        <path id="Path_490" d="M597.6 1091.307c-2.458-2.411-6.7-4.691-13.986-5.738a11.651 11.651 0 0 0-3.891.133 10.43 10.43 0 0 1 2.235.007 21.779 21.779 0 0 1 13.8 6.7c3.452 3.031 6.049 10.864 5.715 20.37.171-.679 1.307-4.656 1.307-4.656.773-8.813-1.906-13.89-5.18-16.816z" class="cls-13" data-name="Path 490" transform="translate(-579.726 -1085.463)"/>
                    </g>
                    <g id="Group_319" data-name="Group 319" transform="translate(14.204 .001)">
                        <path id="Path_491" d="M552.717 1100.281C547.968 1098.888 543 1095 543 1095c-4.209-3.032 2.241-9.087 8.935-9.511-7.16-.472-14.908 6.259-10.394 9.511 0 0 4.968 3.885 9.717 5.279a123.768 123.768 0 0 1 11.661 4.425s-1.68-.934-3.733-2.143c-2.086-.817-4.47-1.693-6.469-2.28z" class="cls-22" data-name="Path 491" transform="translate(-540.201 -1085.468)"/>
                        <path id="Path_492" d="M601.116 1141.816a6.543 6.543 0 0 0 .8.714 22.8 22.8 0 0 0 5.175 1.665 51.782 51.782 0 0 0 9.2.969l-.093-.042a58.281 58.281 0 0 1-7.65-.927z" class="cls-22" data-name="Path 492" transform="translate(-587.809 -1129.507)"/>
                    </g>
                </g>
                <path id="Path_493" d="M582.548 1253.458s4.792 5.034 12.654-.33v-.006s-6.494 6.228-12.654.493z" class="cls-23" data-name="Path 493" transform="translate(-560.44 -1216.875)"/>
                <path id="Path_494" d="M606.513 1265.5s-1.168 1.322-4.088 1.42c-1.413.048 4.287.973 4.088-1.42z" class="cls-24" data-name="Path 494" transform="translate(-574.452 -1226.172)"/>
            </g>
        </g>
        <g id="Mask_Group_3" clip-path="url(#clip-path-2)" data-name="Mask Group 3" transform="translate(564.346 880)">
            <g id="Group_322" data-name="Group 322" transform="translate(1.173 5.63)">
                <g id="Group_320-2" data-name="Group 320">
                    <ellipse id="Ellipse_10-2" cx="17.306" cy="7.568" class="cls-5" data-name="Ellipse 10" rx="17.306" ry="7.568" transform="translate(11.068 45.745)"/>
                    <ellipse id="Ellipse_11-2" cx="11.68" cy="6.035" class="cls-6" data-name="Ellipse 11" rx="11.68" ry="6.035" transform="translate(16.581 47.374)"/>
                    <path id="Path_454-2" d="M565.568 1282l-.406-11h-12.295l-.4 10.96c-3.382.867-5.629 2.38-5.629 4.118 0 2.7 6.06 6.012 12.741 6.012s11.454-3.31 11.454-6.009c-.004-1.71-2.176-3.204-5.465-4.081z" class="cls-7" data-name="Path 454" transform="translate(-531.181 -1230.47)"/>
                    <g id="Group_313-2" data-name="Group 313" transform="translate(22.308 41.279)">
                        <path id="Path_455-2" d="M588.7 1284.227l.241 2.064c.214 1.3-1.926 3.086 1.578 2.581 2.66-.383 10.442 3.787 10.756 5.082.475-2.222-7.313-8.667-11.28-9.3l-.405-9.215-12.26-1.01-.029 2.006c3.874 3.885 6.638 6.222 8.393 5.642a2.4 2.4 0 0 1 3.006 2.15z" class="cls-8" data-name="Path 455" transform="translate(-577.303 -1274.433)"/>
                    </g>
                    <g id="Group_314-2" data-name="Group 314" transform="translate(15.902 40.472)">
                        <path id="Path_456-2" d="M548.66 1286.664c0-1.738 2.241-3.266 5.613-4.133l.4-10.989-.686-.808-.4 10.989c-3.372.867-5.613 2.395-5.613 4.133a5.6 5.6 0 0 0 1.785 3.293 4.508 4.508 0 0 1-1.099-2.485z" class="cls-9" data-name="Path 456" transform="translate(-547.974 -1270.735)"/>
                    </g>
                    <path id="Path_457-2" d="M540.393 1336.1c-2.253-3.714-6.718-7.793-15.545-10.019a12.233 12.233 0 0 1-10.387 5.481 11.824 11.824 0 0 1-10.774-6.056 24.541 24.541 0 0 0-15.613 10.594z" class="cls-10" data-name="Path 457" transform="translate(-485.257 -1273.069)"/>
                    <g id="Group_315-2" data-name="Group 315" transform="translate(15.139 52.01)">
                        <path id="Path_458-2" d="M558.548 1332.4c6.486.245 11.514-5.352 13.194-7.493-.884-.281-1.818-.542-2.807-.779a12.238 12.238 0 0 1-10.387 5.464 11.825 11.825 0 0 1-10.774-6.031q-1.751.408-3.291.9a16.824 16.824 0 0 0 14.065 7.939z" class="cls-11" data-name="Path 458" transform="translate(-544.483 -1323.557)"/>
                    </g>
                    <path id="Path_459-2" d="M494.845 1326.088c-1.054-5.9-2.682-13.392-2.682-13.392-10.471 2.952-15.013 9.023-16.983 13.392z" class="cls-5" data-name="Path 459" transform="translate(-475.179 -1263.058)"/>
                    <path id="Path_460-2" d="M524.257 1305.373c.188-2.974 3.541-5.464 9.063-6.7.017-.051.066-.3.08-.331-6.151 1.116-10.221 3.842-10.221 7.029 0 1.619 1.122 3.119 3.031 4.349a.118.118 0 0 0 .152-.178c-.828-.902-2.204-2.597-2.105-4.169z" class="cls-12" data-name="Path 460" transform="translate(-512.694 -1251.841)"/>
                    <path id="Path_461-2" d="M661.377 1326.088a26.88 26.88 0 0 0-15.756-13.392s-2.283 7.494-3.653 13.392z" class="cls-5" data-name="Path 461" transform="translate(-605.534 -1263.058)"/>
                    <path id="Path_462-2" d="M542.571 1096.279c-7.539 0-16.888 6.931-16.888 15.708 0 5.422 1.325 17.762 4.5 21.843 2.424 3.111 10.073 7.312 12.955 7.312 2.972 0 10.732-4.082 13.224-7.312 3.83-4.963 3.092-16.526 3.092-21.843.005-8.777-9.344-15.708-16.883-15.708z" class="cls-7" data-name="Path 462" transform="translate(-514.651 -1093.916)"/>
                    <path id="Path_463-2" d="M542.616 1141.158c-2.876-.173-10.042-4.824-12.275-8.075-2.929-4.264-3.73-16.661-3.406-22.073.449-7.47 7.6-13.193 14.365-14.437-7.278.712-15.618 7.354-15.618 15.644 0 5.422 1.325 17.762 4.5 21.843 2.424 3.111 10.073 7.312 12.955 7.312 1.445 0 4.022-.966 6.575-2.329-2.755 1.308-5.581 2.206-7.096 2.115z" class="cls-9" data-name="Path 463" transform="translate(-514.65 -1094.146)"/>
                    <path id="Path_464-2" d="M561.581 1098.806c-2.938-1.87 1.763-.17 6.04 1.508.669.944 1.3 1.929 1.885 2.895a86.369 86.369 0 0 1-7.925-4.403zm2.086-8.1a35.567 35.567 0 0 0-7.737-1.92c-.12-.017-.241-.027-.362-.04a19.238 19.238 0 0 0-10.656 3.962c-1.746 1.893-2.189 4.05-.166 5.507 0 0 4.968 3.885 9.716 5.279a123.817 123.817 0 0 1 11.661 4.425s-9.28-5.158-10.87-6.929 1.955 1.359 7.438 2.378a58.587 58.587 0 0 0 7.448.917 32.984 32.984 0 0 1 2.561 5.292c.421 1.5-.315 5.6-.041 6.792a98.606 98.606 0 0 0 .956-11.766c-.001-6.037-4.55-11.209-9.948-13.894z" class="cls-8" data-name="Path 464" transform="translate(-528.502 -1088.031)"/>
                    <path id="Path_465-2" d="M613.573 1111.987c0-8.777-9.349-15.708-16.888-15.708a13.346 13.346 0 0 0-1.763.12c7 .678 14.887 6.242 15.651 13.959.524 5.291 2.4 16.724-.925 22.041-2.162 3.46-9.482 8.286-12.44 8.579a5.94 5.94 0 0 1-1.48-.089 6.079 6.079 0 0 0 1.528.252c2.972 0 10.732-4.082 13.224-7.312 3.831-4.963 3.093-16.529 3.093-21.842z" class="cls-8" data-name="Path 465" transform="translate(-568.766 -1093.916)"/>
                    <path id="Path_466-2" d="M556.651 1185.933c-1.723 0-3.475 1.32-3.12 2.857.348 1.507.89 2.857 3.12 2.857a2.89 2.89 0 0 0 3.12-2.857c.178-1.568-1.397-2.857-3.12-2.857z" class="cls-13" data-name="Path 466" transform="translate(-536.38 -1163.986)"/>
                    <path id="Path_467-2" d="M628.329 1185.933c-1.723 0-3.475 1.32-3.12 2.857.348 1.507.89 2.857 3.12 2.857a2.89 2.89 0 0 0 3.12-2.857c.178-1.568-1.397-2.857-3.12-2.857z" class="cls-13" data-name="Path 467" transform="translate(-592.4 -1163.986)"/>
                    <path id="Path_468-2" d="M556.651 1189.352c-1.723 0-3.475 1.32-3.12 2.857.348 1.507.89 2.857 3.12 2.857a2.89 2.89 0 0 0 3.12-2.857c.178-1.567-1.397-2.857-3.12-2.857z" class="cls-14" data-name="Path 468" transform="translate(-536.38 -1166.658)"/>
                    <ellipse id="Ellipse_12-2" cx="1.849" cy="2.073" class="cls-26" data-name="Ellipse 12" rx="1.849" ry="2.073" transform="translate(18.496 23.332)"/>
                    <path id="Path_469-2" d="M570.969 1197.752c-.244 0-.441.3-.441.672s.2.672.441.672.441-.3.441-.672-.197-.672-.441-.672z" class="cls-14" data-name="Path 469" transform="translate(-549.7 -1173.223)"/>
                    <path id="Path_470-2" d="M628.287 1189.352c-1.723 0-3.3 1.29-3.12 2.857a2.89 2.89 0 0 0 3.12 2.857c2.23 0 2.771-1.35 3.12-2.857.355-1.537-1.397-2.857-3.12-2.857z" class="cls-14" data-name="Path 470" transform="translate(-592.393 -1166.658)"/>
                    <ellipse id="Ellipse_13-2" cx="1.849" cy="2.073" class="cls-26" data-name="Ellipse 13" rx="1.849" ry="2.073" transform="translate(33.972 23.332)"/>
                    <path id="Path_471-2" d="M641.815 1197.752c-.244 0-.441.3-.441.672s.2.672.441.672.441-.3.441-.672-.198-.672-.441-.672z" class="cls-14" data-name="Path 471" transform="translate(-605.07 -1173.223)"/>
                    <ellipse id="Ellipse_14-2" cx="2.409" cy="1.057" class="cls-8" data-name="Ellipse 14" rx="2.409" ry="1.057" transform="translate(25.605 29.721)"/>
                    <path id="Path_472-2" d="M590.555 1225.859c-.42-.186-.848-.137-.957.108s.144.595.563.781.848.138.956-.108-.142-.595-.562-.781z" class="cls-16" data-name="Path 472" transform="translate(-564.585 -1195.102)"/>
                    <path id="Path_473-2" d="M609.83 1225.859c-.42.186-.672.535-.563.781s.537.293.956.108.672-.535.563-.781-.536-.294-.956-.108z" class="cls-16" data-name="Path 473" transform="translate(-579.956 -1195.102)"/>
                    <path id="Path_474-2" d="M594.332 1228a2.569 2.569 0 0 0 3.9-.061 5.1 5.1 0 0 1-3.9.061z" class="cls-16" data-name="Path 474" transform="translate(-568.304 -1196.815)"/>
                    <path id="Path_475-2" d="M545.737 1164.4c-.217.3.357 1.283.678 1.067a12.631 12.631 0 0 1 7.336-2.074c5.285.087-4.063-4.526-8.014 1.007z" class="cls-13" data-name="Path 475" transform="translate(-530.287 -1145.026)"/>
                    <path id="Path_476-2" d="M621.057 1161.251a10.142 10.142 0 0 1 6.375 2.445c.249.218.837-.695.687-.989-2.889-5.671-11.806-1.652-7.062-1.456z" class="cls-13" data-name="Path 476" transform="translate(-588.124 -1143.473)"/>
                    <path id="Path_477-2" d="M606.376 1196.5c.426-2.648-3.318 2.33.649 4.237a6.193 6.193 0 0 1-.649-4.237z" class="cls-8" data-name="Path 477" transform="translate(-576.785 -1171.649)"/>
                    <path id="Path_478-2" d="M670.377 1325.254s-1.181 4.251-3.384 5.723 1.971.993 4.957-4.445a8.014 8.014 0 0 0-1.573-1.278z" class="cls-17" data-name="Path 478" transform="translate(-624.609 -1272.873)"/>
                    <path id="Path_479-2" d="M663.471 1357.409l1.039-4.637-.819.235-.822 4.4z" class="cls-17" data-name="Path 479" transform="translate(-621.869 -1294.379)"/>
                    <path id="Path_480-2" d="M651.415 1354.883l1.042-4.819a.45.45 0 0 0-.884-.163l-1.134 4.982z" class="cls-18" data-name="Path 480" transform="translate(-612.155 -1291.854)"/>
                    <path id="Path_481-2" d="M548.341 1356.468h.909l-.63-4.538a.449.449 0 0 0-.884.161z" class="cls-18" data-name="Path 481" transform="translate(-531.881 -1293.438)"/>
                    <path id="Path_482-2" d="M694.851 1336.914h1.717a24.536 24.536 0 0 0-9.495-10.365 27.045 27.045 0 0 1 7.778 10.365z" class="cls-17" data-name="Path 482" transform="translate(-640.787 -1273.885)"/>
                    <path id="Path_483-2" d="M476.809 1335.6a21.754 21.754 0 0 1 8.635-10.733 21.827 21.827 0 0 0-10.26 10.733z" class="cls-12" data-name="Path 483" transform="translate(-475.183 -1272.57)"/>
                    <path id="Path_484-2" d="M509.45 1189.182c-1.229.652-1.181 3.249.107 5.8s3.33 4.09 4.559 3.437 1.182-3.25-.107-5.8-3.329-4.09-4.559-3.437z" class="cls-7" data-name="Path 484" transform="translate(-501.267 -1166.408)"/>
                    <path id="Path_485-2" d="M514.1 1197.085c-.757.4-.728 2 .066 3.574s2.051 2.52 2.809 2.118-2.117-6.094-2.875-5.692z" class="cls-8" data-name="Path 485" transform="translate(-505.169 -1172.686)"/>
                    <g id="Group_316-2" data-name="Group 316" transform="translate(43.22 22.263)">
                        <path id="Path_486-2" d="M678.158 1187.473c-1.353-.537-3.336 1.234-4.428 3.955s-.88 5.363.473 5.9 3.336-1.233 4.427-3.955.881-5.363-.472-5.9z" class="cls-8" data-name="Path 486" transform="translate(-673.032 -1187.376)"/>
                    </g>
                    <g id="Group_317-2" data-name="Group 317" transform="translate(44.81 23.82)">
                        <path id="Path_487-2" d="M681.94 1194.508c.879.182 1.29 1.763.919 3.53s-1.385 3.051-2.263 2.869.466-6.581 1.344-6.399z" class="cls-19" data-name="Path 487" transform="translate(-680.31 -1194.505)"/>
                    </g>
                    <path id="Path_488-2" d="M527.442 1111.52s-6.327 5.881-4.245 14.636c.9 3.786-2.476-.651-2.476-.651s-2.489-12.171 5.116-16.942 1.605 2.957 1.605 2.957z" class="cls-20" data-name="Path 488" transform="translate(-510.468 -1102.301)"/>
                    <path id="Path_489-2" fill="#353333" d="M566.712 1091.306c-2.458-2.411-6.7-4.692-13.986-5.738-7.361-1.056-15.865 6.058-11.184 9.43 0 0 4.968 3.885 9.717 5.279a123.728 123.728 0 0 1 11.661 4.425s-9.28-5.158-10.87-6.929 1.955 1.359 7.438 2.379a58.653 58.653 0 0 0 7.448.917 32.994 32.994 0 0 1 2.561 5.292c.521 1.85-.729 7.692.352 7.074s2.044-5.313 2.044-5.313c.768-8.812-1.91-13.89-5.181-16.816zm-8.335 4.28c-2.938-1.869 1.764-.169 6.04 1.509.669.944 1.3 1.929 1.885 2.895a86.407 86.407 0 0 1-7.925-4.404z" data-name="Path 489" transform="translate(-525.997 -1085.463)"/>
                    <g id="Group_318-2" data-name="Group 318" transform="translate(22.838)">
                        <path id="Path_490-2" d="M597.6 1091.307c-2.458-2.411-6.7-4.691-13.986-5.738a11.651 11.651 0 0 0-3.891.133 10.43 10.43 0 0 1 2.235.007 21.779 21.779 0 0 1 13.8 6.7c3.452 3.031 6.049 10.864 5.715 20.37.171-.679 1.307-4.656 1.307-4.656.773-8.813-1.906-13.89-5.18-16.816z" class="cls-13" data-name="Path 490" transform="translate(-579.726 -1085.463)"/>
                    </g>
                    <g id="Group_319-2" data-name="Group 319" transform="translate(14.204 .001)">
                        <path id="Path_491-2" d="M552.717 1100.281C547.968 1098.888 543 1095 543 1095c-4.209-3.032 2.241-9.087 8.935-9.511-7.16-.472-14.908 6.259-10.394 9.511 0 0 4.968 3.885 9.717 5.279a123.768 123.768 0 0 1 11.661 4.425s-1.68-.934-3.733-2.143c-2.086-.817-4.47-1.693-6.469-2.28z" class="cls-22" data-name="Path 491" transform="translate(-540.201 -1085.468)"/>
                        <path id="Path_492-2" d="M601.116 1141.816a6.543 6.543 0 0 0 .8.714 22.8 22.8 0 0 0 5.175 1.665 51.782 51.782 0 0 0 9.2.969l-.093-.042a58.281 58.281 0 0 1-7.65-.927z" class="cls-22" data-name="Path 492" transform="translate(-587.809 -1129.507)"/>
                    </g>
                </g>
                <path id="Path_493-2" d="M582.548 1253.458s4.792 5.034 12.654-.33v-.006s-6.494 6.228-12.654.493z" class="cls-23" data-name="Path 493" transform="translate(-560.44 -1216.875)"/>
                <path id="Path_494-2" d="M606.513 1265.5s-1.168 1.322-4.088 1.42c-1.413.048 4.287.973 4.088-1.42z" class="cls-24" data-name="Path 494" transform="translate(-574.452 -1226.172)"/>
            </g>
        </g>
    </g>
</svg>
