<svg xmlns="http://www.w3.org/2000/svg" width="62" height="71" viewBox="0 0 62 71">
    <defs>
        <clipPath id="clip-path">
            <rect id="Rectangle_29" width="62" height="50" class="cls-1" data-name="Rectangle 29" rx="12" transform="translate(303 858)"/>
        </clipPath>
        <clipPath id="clip-path-2">
            <path id="Path_544" fill="none" d="M1579.574 553.01c.065 1.051 2.217 3.13 4.2 3.007s3.857-2.452 3.792-3.5-2.033-.182-4.013-.059-4.044-.5-3.979.552z" data-name="Path 544" transform="translate(-1579.573 -552)"/>
        </clipPath>
        <clipPath id="clip-path-3">
            <rect id="Rectangle_32" width="62" height="35" class="cls-1" data-name="Rectangle 32" rx="12" transform="translate(220 837)"/>
        </clipPath>
        <style>
            .cls-1{fill:#96ccf2}.cls-5{fill:#f15a24}.cls-6{fill:#333}.cls-7{fill:#f7b69f}.cls-8{fill:#ce8474}.cls-9{fill:#f9ddb4}.cls-10{fill:#e6e6e6}.cls-11{fill:#bc3f3f}.cls-12{fill:#d35029}.cls-13{fill:#534741}.cls-14{fill:#fff}.cls-15{fill:#4c312e}.cls-16{fill:#a05c5c}.cls-17{fill:#3f342f}.cls-18{fill:#634f47}.cls-19{fill:#f2f2f2}.cls-20{clip-path:url(#clip-path-2)}.cls-21{fill:#8e2430}
        </style>
    </defs>
    <g id="Group_391" data-name="Group 391" transform="translate(-303 -837)">
        <rect id="Rectangle_30" width="62" height="50" fill="#3a8bfc" data-name="Rectangle 30" rx="12" transform="translate(303 858)"/>
        <g id="Mask_Group_6" clip-path="url(#clip-path)" data-name="Mask Group 6">
            <g id="Group_389" data-name="Group 389" transform="translate(-1146.763 472.989)">
                <g id="Group_327" data-name="Group 327" transform="translate(1449.752 369.336)">
                    <ellipse id="Ellipse_15" cx="19.153" cy="8.376" class="cls-5" data-name="Ellipse 15" rx="19.153" ry="8.376" transform="translate(12.25 46.185)"/>
                    <ellipse id="Ellipse_16" cx="12.926" cy="6.679" class="cls-6" data-name="Ellipse 16" rx="12.926" ry="6.679" transform="translate(18.352 47.987)"/>
                    <path id="Path_495" d="M1546.321 581.838l-.5-10.838h-15.2l-.5 10.8c-4.18.854-6.958 2.344-6.958 4.056 0 2.659 7.491 5.922 15.749 5.922s14.158-3.26 14.158-5.919c.001-1.688-2.684-3.159-6.749-4.021z" class="cls-7" data-name="Path 495" transform="translate(-1507.368 -527.609)"/>
                    <g id="Group_323" data-name="Group 323" transform="translate(24.751 44.13)">
                        <path id="Path_496" d="M1578 584.08l.279 2.034c.249 1.282-2.233 3.039 1.83 2.542 3.085-.377 12.11 3.731 12.474 5.006.551-2.188-8.481-8.537-13.083-9.158l-.47-9.076-14.22-.995-.034 1.976c4.493 3.827 7.7 6.129 9.734 5.558a2.767 2.767 0 0 1 3.49 2.113z" class="cls-8" data-name="Path 496" transform="translate(-1564.781 -574.433)"/>
                    </g>
                    <g id="Group_324" data-name="Group 324" transform="translate(16.085 43.334)">
                        <path id="Path_497" d="M1525.3 586.425c0-1.712 2.6-3.217 6.51-4.071l.468-10.824-.8-.8-.468 10.824c-3.912.854-6.51 2.359-6.51 4.07 0 .878.768 2.058 2.07 3.244a4.136 4.136 0 0 1-1.27-2.443z" class="cls-9" data-name="Path 497" transform="translate(-1524.507 -570.735)"/>
                    </g>
                    <path id="Path_498" d="M1526.98 634.6c-2.219-3.658-6.617-7.8-15.312-9.991a12.069 12.069 0 0 1-10.231 5.338 11.652 11.652 0 0 1-10.613-5.873 24.242 24.242 0 0 0-15.379 10.526z" class="cls-10" data-name="Path 498" transform="translate(-1469.917 -569.266)"/>
                    <g id="Group_325" data-name="Group 325" transform="translate(17.666 54.7)">
                        <path id="Path_499" d="M1545.708 632.264c6.389.242 11.341-5.272 13-7.381q-1.306-.415-2.765-.768a12.055 12.055 0 0 1-10.231 5.382 11.648 11.648 0 0 1-10.613-5.94q-1.725.4-3.242.887a16.573 16.573 0 0 0 13.851 7.82z" class="cls-11" data-name="Path 499" transform="translate(-1531.854 -623.557)"/>
                    </g>
                    <path id="Path_500" d="M1471.517 618.94c-1.166-6.455-2.969-14.821-2.969-14.821-11.588 3.267-16.615 9.872-18.8 14.821z" class="cls-5" data-name="Path 500" transform="translate(-1449.752 -553.601)"/>
                    <path id="Path_501" d="M1504.878 594.532c.208-3.292 3.919-6.047 10.03-7.413.018-.056.073-.335.088-.366-6.807 1.235-11.312 4.252-11.312 7.779 0 1.792 1.242 3.452 3.355 4.813a.131.131 0 0 0 .168-.2c-.916-.998-2.439-2.874-2.329-4.613z" class="cls-12" data-name="Path 501" transform="translate(-1492.08 -539.972)"/>
                    <path id="Path_502" d="M1658.636 618.94a29.377 29.377 0 0 0-17.438-14.821s-2.526 8.366-4.044 14.821z" class="cls-5" data-name="Path 502" transform="translate(-1596.832 -553.601)"/>
                    <ellipse id="Ellipse_17" cx="5.386" cy="3.06" class="cls-8" data-name="Ellipse 17" rx="5.386" ry="3.06" transform="rotate(-76.11 43.115 -9.428)"/>
                    <ellipse id="Ellipse_18" cx="3.155" cy="5.915" class="cls-7" data-name="Ellipse 18" rx="3.155" ry="5.915" transform="rotate(-17.06 91.728 -20.874)"/>
                    <path id="Path_503" d="M1503.7 492.383c-.957-3.123-.382-6.069 1.284-6.579a2.6 2.6 0 0 1 2.446.819c-.911-1-1.944-1.493-2.843-1.217-1.666.51-2.241 3.456-1.284 6.579a8.822 8.822 0 0 0 2.3 3.912 9.344 9.344 0 0 1-1.903-3.514z" class="cls-9" data-name="Path 503" transform="translate(-1491.414 -460.372)"/>
                    <path id="Path_504" d="M1529.347 383.619c-7.282 0-16.312 6.921-16.312 15.685 0 5.414 3.471 21.736 5.945 24.337 2.681 2.818 6.9 6.4 10.987 6.491 6 .133 9.471-5.025 12.012-8.146 2.342-2.879 3.68-17.372 3.68-22.681 0-8.765-9.03-15.686-16.312-15.686z" class="cls-7" data-name="Path 504" transform="translate(-1499.419 -380.546)"/>
                    <path id="Path_505" d="M1583.529 383.619a12.33 12.33 0 0 0-1.458.089c6.87.622 14.738 6.455 15.348 14.362.409 5.294.19 19.847-1.924 22.9-2.292 3.308-5.359 8.717-11.349 9.047a7.993 7.993 0 0 1-1.49-.064 7.987 7.987 0 0 0 1.492.181c6 .133 9.471-5.025 12.011-8.146 2.342-2.879 3.879-17.372 3.879-22.681.002-8.767-9.227-15.688-16.509-15.688z" class="cls-8" data-name="Path 505" transform="translate(-1553.6 -380.546)"/>
                    <path id="Path_506" d="M1530.962 433.061c-4.088-.09-8.306-3.672-10.987-6.491-2.474-2.6-5.945-18.922-5.945-24.337 0-6.49 4.952-11.968 10.479-14.375-5.913 2.154-11.473 7.9-11.473 14.772 0 5.414 3.471 21.736 5.945 24.337 2.681 2.818 6.9 6.4 10.987 6.491a9.7 9.7 0 0 0 4.347-.913 9.654 9.654 0 0 1-3.353.516z" class="cls-9" data-name="Path 506" transform="translate(-1499.419 -383.874)"/>
                    <path id="Path_507" d="M1545.975 480.933c-1.7 0-3.423 1.3-3.073 2.814.343 1.485.876 2.814 3.073 2.814a2.847 2.847 0 0 0 3.073-2.814c.175-1.547-1.376-2.814-3.073-2.814z" class="cls-13" data-name="Path 507" transform="translate(-1522.823 -456.921)"/>
                    <path id="Path_508" d="M1612.653 480.933c-1.7 0-3.422 1.3-3.073 2.814.343 1.485.876 2.814 3.073 2.814a2.846 2.846 0 0 0 3.073-2.814c.174-1.547-1.376-2.814-3.073-2.814z" class="cls-13" data-name="Path 508" transform="translate(-1575.154 -456.921)"/>
                    <path id="Path_509" d="M1545.975 484.352c-1.7 0-3.423 1.3-3.073 2.814.343 1.485.876 2.814 3.073 2.814a2.847 2.847 0 0 0 3.073-2.814c.175-1.544-1.376-2.814-3.073-2.814z" class="cls-14" data-name="Path 509" transform="translate(-1522.823 -459.604)"/>
                    <ellipse id="Ellipse_19" cx="1.821" cy="2.042" class="cls-15" data-name="Ellipse 19" rx="1.821" ry="2.042" transform="translate(21.403 25.376)"/>
                    <path id="Path_510" d="M1560.334 492.752c-.24 0-.434.3-.434.662s.195.662.434.662.434-.3.434-.662-.195-.662-.434-.662z" class="cls-14" data-name="Path 510" transform="translate(-1536.199 -466.197)"/>
                    <path id="Path_511" d="M1612.611 484.352c-1.7 0-3.248 1.27-3.073 2.814a2.847 2.847 0 0 0 3.073 2.814c2.2 0 2.73-1.33 3.073-2.814.35-1.514-1.376-2.814-3.073-2.814z" class="cls-14" data-name="Path 511" transform="translate(-1575.147 -459.604)"/>
                    <ellipse id="Ellipse_20" cx="1.821" cy="2.042" class="cls-15" data-name="Ellipse 20" rx="1.821" ry="2.042" transform="translate(35.571 25.376)"/>
                    <path id="Path_512" d="M1626.181 492.752c-.24 0-.434.3-.434.662s.194.662.434.662.434-.3.434-.662-.195-.662-.434-.662z" class="cls-14" data-name="Path 512" transform="translate(-1587.878 -466.197)"/>
                    <path id="Path_513" d="M1582.163 521.617c-1.57 0-2.842.558-2.842 1.247s1.273 1.246 2.842 1.246 2.842-.558 2.842-1.246-1.272-1.247-2.842-1.247z" class="cls-8" data-name="Path 513" transform="translate(-1551.442 -488.851)"/>
                    <path id="Path_514" d="M1577.1 526.811c-.5-.219-1-.162-1.128.127s.169.7.665.921 1 .162 1.128-.127-.165-.701-.665-.921z" class="cls-16" data-name="Path 514" transform="translate(-1548.792 -492.823)"/>
                    <path id="Path_515" d="M1600.2 526.811c-.5.219-.793.631-.665.921s.633.346 1.128.127.793-.631.665-.921-.637-.346-1.128-.127z" class="cls-16" data-name="Path 515" transform="translate(-1567.28 -492.823)"/>
                    <path id="Path_516" d="M1581.644 529.375a3.031 3.031 0 0 0 4.6-.072 6.013 6.013 0 0 1-4.6.072z" class="cls-16" data-name="Path 516" transform="translate(-1553.265 -494.883)"/>
                    <path id="Path_517" d="M1533.28 460.3c-.293.266 0 1.509.374 1.369a11.466 11.466 0 0 1 7.707-.057c5.127 1.682-2.743-6.169-8.081-1.312z" class="cls-13" data-name="Path 517" transform="translate(-1515.214 -439.465)"/>
                    <path id="Path_518" d="M1605.922 461.722a11.454 11.454 0 0 1 7.78.248c.35.143.641-1.072.37-1.335-5.235-5.077-13.331 2.665-8.15 1.087z" class="cls-13" data-name="Path 518" transform="translate(-1571.013 -439.617)"/>
                    <path id="Path_519" d="M1596.048 491.634c.5-3.124-3.915 2.749.766 5a7.307 7.307 0 0 1-.766-5z" class="cls-8" data-name="Path 519" transform="translate(-1563.466 -464.616)"/>
                    <path id="Path_520" d="M1564.851 396.447c-1.671-7.365-9.52-12.828-15.989-12.828a16.823 16.823 0 0 0-10.055 3.857 8.865 8.865 0 0 0-.906 1.961c1.925 7.462 13.458 4.076 18.9 2.352 4.399-1.389 7.152 2.939 8.05 4.658z" class="cls-8" data-name="Path 520" transform="translate(-1518.934 -380.546)"/>
                    <path id="Path_521" d="M1603.024 406.249s10.362.8 11.536 10.212 2.406 4.187 2.406 4.187.94-6.088 0-9.451-6.624-11.977-13.942-4.948z" class="cls-13" data-name="Path 521" transform="translate(-1570.045 -396.2)"/>
                    <path id="Path_522" d="M1615.635 411.955c1.025 2.241 1.336 5.966 1.43 7.965.214-1.714.644-6.067-.1-8.723-.94-3.363-6.625-11.977-13.942-4.948a11.465 11.465 0 0 1 1.161.173c5.2-2.857 10.24 2.884 11.451 5.533z" class="cls-17" data-name="Path 522" transform="translate(-1570.045 -396.2)"/>
                    <path id="Path_523" d="M1515.8 396.5s-6.194 4.844-5.952 15.558c.133 5.875-2.8-1.279-2.8-1.279s-3.017-13.615 7.385-17.588 1.367 3.309 1.367 3.309z" class="cls-6" data-name="Path 523" transform="translate(-1494.402 -387.132)"/>
                    <path id="Path_524" d="M1507.647 411.381s-2.89-12.579 7.512-16.552c2.336-.892 3.562-2.251 4.26-2.218.2-.8-.882-.981-4.984.586-10.4 3.972-7.385 17.588-7.385 17.588s1.3 3.162 2.128 3.554a18.555 18.555 0 0 1-1.531-2.958z" class="cls-6" data-name="Path 524" transform="translate(-1494.402 -387.132)"/>
                    <path id="Path_525" d="M1537.9 377.034s2.573-9.277 15.413-7.462 11.86 15.143 11.86 15.143-2.929-7.054-8.372-5.33-16.976 5.115-18.901-2.351z" class="cls-6" data-name="Path 525" transform="translate(-1518.934 -369.336)"/>
                    <path id="Path_526" d="M1559.577 383.492c-2.229 0-3.186-.5-3.633-1.04.849-1.512 3.078-5.719 8.337-5.719.847 0 6.682.235 9.892 2.293-.882.012-4.786-2.057-7.833-.016-1.74 1.166-3.127 4.482-6.763 4.482z" class="cls-6" data-name="Path 526" transform="translate(-1533.095 -375.142)"/>
                    <g id="Group_326" data-name="Group 326" transform="translate(18.967)">
                        <path id="Path_527" d="M1539.69 377.035s2.013-7.25 11.352-7.676c-10.878-.487-13.142 7.676-13.142 7.676.988 3.831 4.51 4.8 8.44 4.607-3.17-.175-5.815-1.37-6.65-4.607z" class="cls-18" data-name="Path 527" transform="translate(-1537.9 -369.338)"/>
                        <path id="Path_528" d="M1637.722 414.86c3.785.681 5.8 5.522 5.8 5.522a16.3 16.3 0 0 0-.156-3.087 6.062 6.062 0 0 0-5.644-2.435z" class="cls-18" data-name="Path 528" transform="translate(-1616.244 -405.003)"/>
                    </g>
                    <path id="Path_529" d="M1584.761 406.317a42.766 42.766 0 0 1-10.351 3.907 41.982 41.982 0 0 0 11.046-2.276c5.443-1.724 8.389 6.27 8.389 6.27a27.272 27.272 0 0 0-.2-4.241c-.891-1.277-4.462-5.856-8.884-3.66z" class="cls-17" data-name="Path 529" transform="translate(-1547.588 -397.899)"/>
                    <path id="Path_530" d="M1510.744 500.249c-.7.224-.9 1.548-.443 2.957s1.385 2.369 2.083 2.145-.942-5.326-1.64-5.102z" class="cls-8" data-name="Path 530" transform="translate(-1497.083 -472.075)"/>
                    <path id="Path_531" d="M1662.482 498.551c.7.224.9 1.548.443 2.957s-1.385 2.369-2.082 2.145.942-5.326 1.639-5.102z" class="cls-16" data-name="Path 531" transform="translate(-1615.29 -470.742)"/>
                    <path id="Path_532" d="M1670.132 618.113s-1.308 4.7-3.746 6.333 2.181 1.1 5.486-4.92a8.857 8.857 0 0 0-1.74-1.413z" class="cls-6" data-name="Path 532" transform="translate(-1619.238 -564.584)"/>
                    <path id="Path_533" d="M1555.468 545.767a4.777 4.777 0 0 1 .476-2.639c-1.605 1.845-.297 4.095-.476 2.639z" class="cls-8" data-name="Path 533" transform="translate(-1532.459 -505.734)"/>
                    <path id="Path_534" d="M1621.014 542.272a2.313 2.313 0 0 1 .837 1.889c-.142 1.101 1.49-.734-.837-1.889z" class="cls-8" data-name="Path 534" transform="translate(-1584.164 -505.062)"/>
                    <path id="Path_535" d="M1662.43 654.234l1.149-5.145-.907.267-.91 4.878z" class="cls-6" data-name="Path 535" transform="translate(-1616.145 -588.895)"/>
                    <path id="Path_536" d="M1647.755 651.364l1.153-5.346a.5.5 0 0 0-.979-.177l-1.255 5.523z" class="cls-19" data-name="Path 536" transform="translate(-1604.303 -586.025)"/>
                    <path id="Path_537" d="M1531.947 653.15h1.006l-.7-5.035a.5.5 0 0 0-.978.181z" class="cls-19" data-name="Path 537" transform="translate(-1513.73 -587.812)"/>
                    <path id="Path_538" d="M1696.443 631.156h1.9a27.13 27.13 0 0 0-10.508-11.472 29.517 29.517 0 0 1 8.608 11.472z" class="cls-12" data-name="Path 538" transform="translate(-1636.608 -565.817)"/>
                    <path id="Path_539" d="M1451.556 629.672a24.056 24.056 0 0 1 9.557-11.879 24.138 24.138 0 0 0-11.356 11.879z" class="cls-12" data-name="Path 539" transform="translate(-1449.756 -564.333)"/>
                </g>
                <g id="Group_330" data-name="Group 330" transform="translate(1476.652 407.606)">
                    <path id="Path_540" d="M1579.708 553.35c-.057-.791 1.621.164 3.981.164s4.022-1.684 3.981-.892c-.093 1.8-1.049 4.521-4.126 4.347a4.381 4.381 0 0 1-3.836-3.619z" class="cls-8" data-name="Path 540" transform="translate(-1579.673 -552.309)"/>
                    <g id="Group_329" data-name="Group 329">
                        <g id="Group_328" class="cls-20" data-name="Group 328">
                            <path id="Path_541" d="M1583.55 552.455c1.98-.123 3.948-.993 4.013.059s-1.812 3.38-3.792 3.5-4.131-1.955-4.2-3.007 1.998-.429 3.979-.552z" class="cls-6" data-name="Path 541" transform="translate(-1579.573 -552)"/>
                            <path id="Path_542" d="M1587.116 552.38a18.319 18.319 0 0 1-8.041.5l-.2-1.065 8.314-.517z" class="cls-14" data-name="Path 542" transform="translate(-1579.046 -551.473)"/>
                            <path id="Path_543" d="M1589.774 562.985c1.067-.066 1.949.169 1.971.525s-.824.7-1.891.765-1.95-.169-1.972-.525.826-.699 1.892-.765z" class="cls-21" data-name="Path 543" transform="translate(-1585.818 -560.248)"/>
                        </g>
                    </g>
                </g>
            </g>
        </g>
        <g id="Mask_Group_7" clip-path="url(#clip-path-3)" data-name="Mask Group 7" transform="translate(83)">
            <g id="Group_390" data-name="Group 390" transform="translate(-1229.763 472.989)">
                <g id="Group_327-2" data-name="Group 327" transform="translate(1449.752 369.336)">
                    <ellipse id="Ellipse_15-2" cx="19.153" cy="8.376" class="cls-5" data-name="Ellipse 15" rx="19.153" ry="8.376" transform="translate(12.25 46.185)"/>
                    <ellipse id="Ellipse_16-2" cx="12.926" cy="6.679" class="cls-6" data-name="Ellipse 16" rx="12.926" ry="6.679" transform="translate(18.352 47.987)"/>
                    <path id="Path_495-2" d="M1546.321 581.838l-.5-10.838h-15.2l-.5 10.8c-4.18.854-6.958 2.344-6.958 4.056 0 2.659 7.491 5.922 15.749 5.922s14.158-3.26 14.158-5.919c.001-1.688-2.684-3.159-6.749-4.021z" class="cls-7" data-name="Path 495" transform="translate(-1507.368 -527.609)"/>
                    <g id="Group_323-2" data-name="Group 323" transform="translate(24.751 44.13)">
                        <path id="Path_496-2" d="M1578 584.08l.279 2.034c.249 1.282-2.233 3.039 1.83 2.542 3.085-.377 12.11 3.731 12.474 5.006.551-2.188-8.481-8.537-13.083-9.158l-.47-9.076-14.22-.995-.034 1.976c4.493 3.827 7.7 6.129 9.734 5.558a2.767 2.767 0 0 1 3.49 2.113z" class="cls-8" data-name="Path 496" transform="translate(-1564.781 -574.433)"/>
                    </g>
                    <g id="Group_324-2" data-name="Group 324" transform="translate(16.085 43.334)">
                        <path id="Path_497-2" d="M1525.3 586.425c0-1.712 2.6-3.217 6.51-4.071l.468-10.824-.8-.8-.468 10.824c-3.912.854-6.51 2.359-6.51 4.07 0 .878.768 2.058 2.07 3.244a4.136 4.136 0 0 1-1.27-2.443z" class="cls-9" data-name="Path 497" transform="translate(-1524.507 -570.735)"/>
                    </g>
                    <path id="Path_498-2" d="M1526.98 634.6c-2.219-3.658-6.617-7.8-15.312-9.991a12.069 12.069 0 0 1-10.231 5.338 11.652 11.652 0 0 1-10.613-5.873 24.242 24.242 0 0 0-15.379 10.526z" class="cls-10" data-name="Path 498" transform="translate(-1469.917 -569.266)"/>
                    <g id="Group_325-2" data-name="Group 325" transform="translate(17.666 54.7)">
                        <path id="Path_499-2" d="M1545.708 632.264c6.389.242 11.341-5.272 13-7.381q-1.306-.415-2.765-.768a12.055 12.055 0 0 1-10.231 5.382 11.648 11.648 0 0 1-10.613-5.94q-1.725.4-3.242.887a16.573 16.573 0 0 0 13.851 7.82z" class="cls-11" data-name="Path 499" transform="translate(-1531.854 -623.557)"/>
                    </g>
                    <path id="Path_500-2" d="M1471.517 618.94c-1.166-6.455-2.969-14.821-2.969-14.821-11.588 3.267-16.615 9.872-18.8 14.821z" class="cls-5" data-name="Path 500" transform="translate(-1449.752 -553.601)"/>
                    <path id="Path_501-2" d="M1504.878 594.532c.208-3.292 3.919-6.047 10.03-7.413.018-.056.073-.335.088-.366-6.807 1.235-11.312 4.252-11.312 7.779 0 1.792 1.242 3.452 3.355 4.813a.131.131 0 0 0 .168-.2c-.916-.998-2.439-2.874-2.329-4.613z" class="cls-12" data-name="Path 501" transform="translate(-1492.08 -539.972)"/>
                    <path id="Path_502-2" d="M1658.636 618.94a29.377 29.377 0 0 0-17.438-14.821s-2.526 8.366-4.044 14.821z" class="cls-5" data-name="Path 502" transform="translate(-1596.832 -553.601)"/>
                    <ellipse id="Ellipse_17-2" cx="5.386" cy="3.06" class="cls-8" data-name="Ellipse 17" rx="5.386" ry="3.06" transform="rotate(-76.11 43.115 -9.428)"/>
                    <ellipse id="Ellipse_18-2" cx="3.155" cy="5.915" class="cls-7" data-name="Ellipse 18" rx="3.155" ry="5.915" transform="rotate(-17.06 91.728 -20.874)"/>
                    <path id="Path_503-2" d="M1503.7 492.383c-.957-3.123-.382-6.069 1.284-6.579a2.6 2.6 0 0 1 2.446.819c-.911-1-1.944-1.493-2.843-1.217-1.666.51-2.241 3.456-1.284 6.579a8.822 8.822 0 0 0 2.3 3.912 9.344 9.344 0 0 1-1.903-3.514z" class="cls-9" data-name="Path 503" transform="translate(-1491.414 -460.372)"/>
                    <path id="Path_504-2" d="M1529.347 383.619c-7.282 0-16.312 6.921-16.312 15.685 0 5.414 3.471 21.736 5.945 24.337 2.681 2.818 6.9 6.4 10.987 6.491 6 .133 9.471-5.025 12.012-8.146 2.342-2.879 3.68-17.372 3.68-22.681 0-8.765-9.03-15.686-16.312-15.686z" class="cls-7" data-name="Path 504" transform="translate(-1499.419 -380.546)"/>
                    <path id="Path_505-2" d="M1583.529 383.619a12.33 12.33 0 0 0-1.458.089c6.87.622 14.738 6.455 15.348 14.362.409 5.294.19 19.847-1.924 22.9-2.292 3.308-5.359 8.717-11.349 9.047a7.993 7.993 0 0 1-1.49-.064 7.987 7.987 0 0 0 1.492.181c6 .133 9.471-5.025 12.011-8.146 2.342-2.879 3.879-17.372 3.879-22.681.002-8.767-9.227-15.688-16.509-15.688z" class="cls-8" data-name="Path 505" transform="translate(-1553.6 -380.546)"/>
                    <path id="Path_506-2" d="M1530.962 433.061c-4.088-.09-8.306-3.672-10.987-6.491-2.474-2.6-5.945-18.922-5.945-24.337 0-6.49 4.952-11.968 10.479-14.375-5.913 2.154-11.473 7.9-11.473 14.772 0 5.414 3.471 21.736 5.945 24.337 2.681 2.818 6.9 6.4 10.987 6.491a9.7 9.7 0 0 0 4.347-.913 9.654 9.654 0 0 1-3.353.516z" class="cls-9" data-name="Path 506" transform="translate(-1499.419 -383.874)"/>
                    <path id="Path_507-2" d="M1545.975 480.933c-1.7 0-3.423 1.3-3.073 2.814.343 1.485.876 2.814 3.073 2.814a2.847 2.847 0 0 0 3.073-2.814c.175-1.547-1.376-2.814-3.073-2.814z" class="cls-13" data-name="Path 507" transform="translate(-1522.823 -456.921)"/>
                    <path id="Path_508-2" d="M1612.653 480.933c-1.7 0-3.422 1.3-3.073 2.814.343 1.485.876 2.814 3.073 2.814a2.846 2.846 0 0 0 3.073-2.814c.174-1.547-1.376-2.814-3.073-2.814z" class="cls-13" data-name="Path 508" transform="translate(-1575.154 -456.921)"/>
                    <path id="Path_509-2" d="M1545.975 484.352c-1.7 0-3.423 1.3-3.073 2.814.343 1.485.876 2.814 3.073 2.814a2.847 2.847 0 0 0 3.073-2.814c.175-1.544-1.376-2.814-3.073-2.814z" class="cls-14" data-name="Path 509" transform="translate(-1522.823 -459.604)"/>
                    <ellipse id="Ellipse_19-2" cx="1.821" cy="2.042" class="cls-15" data-name="Ellipse 19" rx="1.821" ry="2.042" transform="translate(21.403 25.376)"/>
                    <path id="Path_510-2" d="M1560.334 492.752c-.24 0-.434.3-.434.662s.195.662.434.662.434-.3.434-.662-.195-.662-.434-.662z" class="cls-14" data-name="Path 510" transform="translate(-1536.199 -466.197)"/>
                    <path id="Path_511-2" d="M1612.611 484.352c-1.7 0-3.248 1.27-3.073 2.814a2.847 2.847 0 0 0 3.073 2.814c2.2 0 2.73-1.33 3.073-2.814.35-1.514-1.376-2.814-3.073-2.814z" class="cls-14" data-name="Path 511" transform="translate(-1575.147 -459.604)"/>
                    <ellipse id="Ellipse_20-2" cx="1.821" cy="2.042" class="cls-15" data-name="Ellipse 20" rx="1.821" ry="2.042" transform="translate(35.571 25.376)"/>
                    <path id="Path_512-2" d="M1626.181 492.752c-.24 0-.434.3-.434.662s.194.662.434.662.434-.3.434-.662-.195-.662-.434-.662z" class="cls-14" data-name="Path 512" transform="translate(-1587.878 -466.197)"/>
                    <path id="Path_513-2" d="M1582.163 521.617c-1.57 0-2.842.558-2.842 1.247s1.273 1.246 2.842 1.246 2.842-.558 2.842-1.246-1.272-1.247-2.842-1.247z" class="cls-8" data-name="Path 513" transform="translate(-1551.442 -488.851)"/>
                    <path id="Path_514-2" d="M1577.1 526.811c-.5-.219-1-.162-1.128.127s.169.7.665.921 1 .162 1.128-.127-.165-.701-.665-.921z" class="cls-16" data-name="Path 514" transform="translate(-1548.792 -492.823)"/>
                    <path id="Path_515-2" d="M1600.2 526.811c-.5.219-.793.631-.665.921s.633.346 1.128.127.793-.631.665-.921-.637-.346-1.128-.127z" class="cls-16" data-name="Path 515" transform="translate(-1567.28 -492.823)"/>
                    <path id="Path_516-2" d="M1581.644 529.375a3.031 3.031 0 0 0 4.6-.072 6.013 6.013 0 0 1-4.6.072z" class="cls-16" data-name="Path 516" transform="translate(-1553.265 -494.883)"/>
                    <path id="Path_517-2" d="M1533.28 460.3c-.293.266 0 1.509.374 1.369a11.466 11.466 0 0 1 7.707-.057c5.127 1.682-2.743-6.169-8.081-1.312z" class="cls-13" data-name="Path 517" transform="translate(-1515.214 -439.465)"/>
                    <path id="Path_518-2" d="M1605.922 461.722a11.454 11.454 0 0 1 7.78.248c.35.143.641-1.072.37-1.335-5.235-5.077-13.331 2.665-8.15 1.087z" class="cls-13" data-name="Path 518" transform="translate(-1571.013 -439.617)"/>
                    <path id="Path_519-2" d="M1596.048 491.634c.5-3.124-3.915 2.749.766 5a7.307 7.307 0 0 1-.766-5z" class="cls-8" data-name="Path 519" transform="translate(-1563.466 -464.616)"/>
                    <path id="Path_520-2" d="M1564.851 396.447c-1.671-7.365-9.52-12.828-15.989-12.828a16.823 16.823 0 0 0-10.055 3.857 8.865 8.865 0 0 0-.906 1.961c1.925 7.462 13.458 4.076 18.9 2.352 4.399-1.389 7.152 2.939 8.05 4.658z" class="cls-8" data-name="Path 520" transform="translate(-1518.934 -380.546)"/>
                    <path id="Path_521-2" d="M1603.024 406.249s10.362.8 11.536 10.212 2.406 4.187 2.406 4.187.94-6.088 0-9.451-6.624-11.977-13.942-4.948z" class="cls-13" data-name="Path 521" transform="translate(-1570.045 -396.2)"/>
                    <path id="Path_522-2" d="M1615.635 411.955c1.025 2.241 1.336 5.966 1.43 7.965.214-1.714.644-6.067-.1-8.723-.94-3.363-6.625-11.977-13.942-4.948a11.465 11.465 0 0 1 1.161.173c5.2-2.857 10.24 2.884 11.451 5.533z" class="cls-17" data-name="Path 522" transform="translate(-1570.045 -396.2)"/>
                    <path id="Path_523-2" d="M1515.8 396.5s-6.194 4.844-5.952 15.558c.133 5.875-2.8-1.279-2.8-1.279s-3.017-13.615 7.385-17.588 1.367 3.309 1.367 3.309z" class="cls-6" data-name="Path 523" transform="translate(-1494.402 -387.132)"/>
                    <path id="Path_524-2" d="M1507.647 411.381s-2.89-12.579 7.512-16.552c2.336-.892 3.562-2.251 4.26-2.218.2-.8-.882-.981-4.984.586-10.4 3.972-7.385 17.588-7.385 17.588s1.3 3.162 2.128 3.554a18.555 18.555 0 0 1-1.531-2.958z" class="cls-6" data-name="Path 524" transform="translate(-1494.402 -387.132)"/>
                    <path id="Path_525-2" d="M1537.9 377.034s2.573-9.277 15.413-7.462 11.86 15.143 11.86 15.143-2.929-7.054-8.372-5.33-16.976 5.115-18.901-2.351z" class="cls-6" data-name="Path 525" transform="translate(-1518.934 -369.336)"/>
                    <path id="Path_526-2" d="M1559.577 383.492c-2.229 0-3.186-.5-3.633-1.04.849-1.512 3.078-5.719 8.337-5.719.847 0 6.682.235 9.892 2.293-.882.012-4.786-2.057-7.833-.016-1.74 1.166-3.127 4.482-6.763 4.482z" class="cls-6" data-name="Path 526" transform="translate(-1533.095 -375.142)"/>
                    <g id="Group_326-2" data-name="Group 326" transform="translate(18.967)">
                        <path id="Path_527-2" d="M1539.69 377.035s2.013-7.25 11.352-7.676c-10.878-.487-13.142 7.676-13.142 7.676.988 3.831 4.51 4.8 8.44 4.607-3.17-.175-5.815-1.37-6.65-4.607z" class="cls-18" data-name="Path 527" transform="translate(-1537.9 -369.338)"/>
                        <path id="Path_528-2" d="M1637.722 414.86c3.785.681 5.8 5.522 5.8 5.522a16.3 16.3 0 0 0-.156-3.087 6.062 6.062 0 0 0-5.644-2.435z" class="cls-18" data-name="Path 528" transform="translate(-1616.244 -405.003)"/>
                    </g>
                    <path id="Path_529-2" d="M1584.761 406.317a42.766 42.766 0 0 1-10.351 3.907 41.982 41.982 0 0 0 11.046-2.276c5.443-1.724 8.389 6.27 8.389 6.27a27.272 27.272 0 0 0-.2-4.241c-.891-1.277-4.462-5.856-8.884-3.66z" class="cls-17" data-name="Path 529" transform="translate(-1547.588 -397.899)"/>
                    <path id="Path_530-2" d="M1510.744 500.249c-.7.224-.9 1.548-.443 2.957s1.385 2.369 2.083 2.145-.942-5.326-1.64-5.102z" class="cls-8" data-name="Path 530" transform="translate(-1497.083 -472.075)"/>
                    <path id="Path_531-2" d="M1662.482 498.551c.7.224.9 1.548.443 2.957s-1.385 2.369-2.082 2.145.942-5.326 1.639-5.102z" class="cls-16" data-name="Path 531" transform="translate(-1615.29 -470.742)"/>
                    <path id="Path_532-2" d="M1670.132 618.113s-1.308 4.7-3.746 6.333 2.181 1.1 5.486-4.92a8.857 8.857 0 0 0-1.74-1.413z" class="cls-6" data-name="Path 532" transform="translate(-1619.238 -564.584)"/>
                    <path id="Path_533-2" d="M1555.468 545.767a4.777 4.777 0 0 1 .476-2.639c-1.605 1.845-.297 4.095-.476 2.639z" class="cls-8" data-name="Path 533" transform="translate(-1532.459 -505.734)"/>
                    <path id="Path_534-2" d="M1621.014 542.272a2.313 2.313 0 0 1 .837 1.889c-.142 1.101 1.49-.734-.837-1.889z" class="cls-8" data-name="Path 534" transform="translate(-1584.164 -505.062)"/>
                    <path id="Path_535-2" d="M1662.43 654.234l1.149-5.145-.907.267-.91 4.878z" class="cls-6" data-name="Path 535" transform="translate(-1616.145 -588.895)"/>
                    <path id="Path_536-2" d="M1647.755 651.364l1.153-5.346a.5.5 0 0 0-.979-.177l-1.255 5.523z" class="cls-19" data-name="Path 536" transform="translate(-1604.303 -586.025)"/>
                    <path id="Path_537-2" d="M1531.947 653.15h1.006l-.7-5.035a.5.5 0 0 0-.978.181z" class="cls-19" data-name="Path 537" transform="translate(-1513.73 -587.812)"/>
                    <path id="Path_538-2" d="M1696.443 631.156h1.9a27.13 27.13 0 0 0-10.508-11.472 29.517 29.517 0 0 1 8.608 11.472z" class="cls-12" data-name="Path 538" transform="translate(-1636.608 -565.817)"/>
                    <path id="Path_539-2" d="M1451.556 629.672a24.056 24.056 0 0 1 9.557-11.879 24.138 24.138 0 0 0-11.356 11.879z" class="cls-12" data-name="Path 539" transform="translate(-1449.756 -564.333)"/>
                </g>
                <g id="Group_330-2" data-name="Group 330" transform="translate(1476.652 407.606)">
                    <path id="Path_540-2" d="M1579.708 553.35c-.057-.791 1.621.164 3.981.164s4.022-1.684 3.981-.892c-.093 1.8-1.049 4.521-4.126 4.347a4.381 4.381 0 0 1-3.836-3.619z" class="cls-8" data-name="Path 540" transform="translate(-1579.673 -552.309)"/>
                    <g id="Group_329-2" data-name="Group 329">
                        <g id="Group_328-2" class="cls-20" data-name="Group 328">
                            <path id="Path_541-2" d="M1583.55 552.455c1.98-.123 3.948-.993 4.013.059s-1.812 3.38-3.792 3.5-4.131-1.955-4.2-3.007 1.998-.429 3.979-.552z" class="cls-6" data-name="Path 541" transform="translate(-1579.573 -552)"/>
                            <path id="Path_542-2" d="M1587.116 552.38a18.319 18.319 0 0 1-8.041.5l-.2-1.065 8.314-.517z" class="cls-14" data-name="Path 542" transform="translate(-1579.046 -551.473)"/>
                            <path id="Path_543-2" d="M1589.774 562.985c1.067-.066 1.949.169 1.971.525s-.824.7-1.891.765-1.95-.169-1.972-.525.826-.699 1.892-.765z" class="cls-21" data-name="Path 543" transform="translate(-1585.818 -560.248)"/>
                        </g>
                    </g>
                </g>
            </g>
        </g>
    </g>
</svg>
