<svg xmlns="http://www.w3.org/2000/svg" width="62.45" height="64.5" viewBox="0 0 62.45 64.5">
    <defs>
        <style>
            .cls-2{fill:#454b54}.cls-3{fill:#f7f7fb}.cls-4{opacity:.1}
        </style>
    </defs>
    <g id="icons8-task-planning" transform="translate(-10.7 -8.9)">
        <g id="Group_469" data-name="Group 469" transform="translate(12.457 17.922)">
            <path id="Path_649" fill="#f05050" d="M49.2 78.021H19.558a5.876 5.876 0 0 1-5.858-5.859v-42a5.876 5.876 0 0 1 5.858-5.862h29.585A5.876 5.876 0 0 1 55 30.158v42a5.788 5.788 0 0 1-5.8 5.863z" data-name="Path 649" transform="translate(-13.7 -24.3)"/>
        </g>
        <g id="Group_470" data-name="Group 470" transform="translate(10.7 16.164)">
            <path id="Path_650" d="M47.959 78.536H18.316A7.6 7.6 0 0 1 10.7 70.92v-42a7.6 7.6 0 0 1 7.616-7.62H47.9a7.6 7.6 0 0 1 7.616 7.616v42a7.551 7.551 0 0 1-7.557 7.62zM18.316 24.815a4.076 4.076 0 0 0-4.1 4.1v42a4.076 4.076 0 0 0 4.1 4.1H47.9a4.076 4.076 0 0 0 4.1-4.1v-42a4.076 4.076 0 0 0-4.1-4.1z" class="cls-2" data-name="Path 650" transform="translate(-10.7 -21.3)"/>
        </g>
        <g id="Group_471" data-name="Group 471" transform="translate(17.086 22.608)">
            <path id="Rectangle_51" d="M0 0H32.103V44.347H0z" class="cls-3" data-name="Rectangle 51"/>
        </g>
        <g id="Group_472" class="cls-4" data-name="Group 472" transform="translate(21.596 27.529)">
            <path id="Rectangle_52" d="M0 0H18.571V6.327H0z" data-name="Rectangle 52"/>
        </g>
        <g id="Group_473" class="cls-4" data-name="Group 473" transform="translate(21.596 37.02)">
            <path id="Rectangle_53" d="M0 0H10.604V6.327H0z" data-name="Rectangle 53"/>
        </g>
        <g id="Group_474" data-name="Group 474" transform="translate(28.333 8.9)">
            <path id="Path_651" d="M46.131 19.679a5.39 5.39 0 1 1 5.331-5.39 5.363 5.363 0 0 1-5.331 5.39zm0-7.206a1.838 1.838 0 0 0-1.816 1.875 1.877 1.877 0 0 0 1.816 1.875 1.876 1.876 0 0 0 0-3.749z" class="cls-2" data-name="Path 651" transform="translate(-40.8 -8.9)"/>
        </g>
        <g id="Group_475" data-name="Group 475" transform="translate(63.718 37.43)">
            <path id="Path_652" d="M103.543 64.278a2.373 2.373 0 0 1-1.64-4.042l1.933-1.933a2.361 2.361 0 0 1 3.339 3.339l-1.933 1.933a2.553 2.553 0 0 1-1.699.703z" class="cls-2" data-name="Path 652" transform="translate(-101.2 -57.6)"/>
        </g>
        <g id="Group_476" data-name="Group 476" transform="translate(37.297 37.43)">
            <path id="Path_653" d="M60.377 64.278a2.217 2.217 0 0 1-1.64-.7L56.8 61.642a2.361 2.361 0 0 1 3.342-3.342l1.933 1.933a2.334 2.334 0 0 1 0 3.339 2.553 2.553 0 0 1-1.698.706z" class="cls-2" data-name="Path 653" transform="translate(-56.1 -57.6)"/>
        </g>
        <g id="Group_477" data-name="Group 477" transform="translate(51.474 30.459)">
            <path id="Path_654" d="M82.643 54.253A2.35 2.35 0 0 1 80.3 51.91v-3.867a2.343 2.343 0 0 1 4.687 0v3.867a2.35 2.35 0 0 1-2.344 2.343z" class="cls-2" data-name="Path 654" transform="translate(-80.3 -45.7)"/>
        </g>
        <g id="Group_478" data-name="Group 478" transform="translate(36.242 36.493)">
            <circle id="Ellipse_39" cx="17.575" cy="17.575" r="17.575" fill="#3e92ff" data-name="Ellipse 39"/>
        </g>
        <g id="Group_479" data-name="Group 479" transform="translate(34.485 34.735)">
            <path id="Path_655" d="M70.632 91.665a19.332 19.332 0 1 1 19.333-19.333 19.351 19.351 0 0 1-19.333 19.333zm0-35.15A15.817 15.817 0 1 0 86.45 72.332a15.826 15.826 0 0 0-15.818-15.817z" class="cls-2" data-name="Path 655" transform="translate(-51.3 -53)"/>
        </g>
        <g id="Group_480" data-name="Group 480" transform="translate(42.101 42.351)">
            <circle id="Ellipse_40" cx="11.717" cy="11.717" r="11.717" class="cls-3" data-name="Ellipse 40"/>
        </g>
        <g id="Group_481" data-name="Group 481" transform="translate(51.884 52.134)">
            <circle id="Ellipse_41" cx="1.933" cy="1.933" r="1.933" class="cls-2" data-name="Ellipse 41"/>
        </g>
        <g id="Group_482" data-name="Group 482" transform="translate(52.06 42.644)">
            <path id="Path_656" d="M83.057 77.748A1.726 1.726 0 0 1 81.3 75.99v-7.733a1.757 1.757 0 0 1 3.515 0v7.733a1.762 1.762 0 0 1-1.758 1.758z" class="cls-2" data-name="Path 656" transform="translate(-81.3 -66.5)"/>
        </g>
        <g id="Group_483" data-name="Group 483" transform="translate(50.126 50.377)">
            <path id="Path_657" d="M81.691 87.081a3.691 3.691 0 1 1 3.691-3.691 3.713 3.713 0 0 1-3.691 3.691zm0-3.866a.176.176 0 1 0 .176.176.187.187 0 0 0-.176-.176z" class="cls-2" data-name="Path 657" transform="translate(-78 -79.7)"/>
        </g>
        <g id="Group_484" data-name="Group 484" transform="translate(49.13 30.459)">
            <path id="Path_658" d="M83.271 50.387h-4.628a2.343 2.343 0 1 1 0-4.687h4.628a2.343 2.343 0 1 1 0 4.687z" class="cls-2" data-name="Path 658" transform="translate(-76.3 -45.7)"/>
        </g>
    </g>
</svg>
