<svg xmlns="http://www.w3.org/2000/svg" width="27.314" height="31" viewBox="0 0 27.314 31">
    <g id="user_8_" data-name="user (8)" transform="translate(-30.5)">
        <path id="Path_672" fill="#cee1f2" d="M104.029 26.949a6.952 6.952 0 0 1 4.8-6.611 6.949 6.949 0 1 0 0 13.223 6.952 6.952 0 0 1-4.8-6.612z" data-name="Path 672" transform="translate(-65.055 -18.791)"/>
        <path id="Path_673" fill="#4897ff" d="M31.709 30.94a1.209 1.209 0 0 1-1.209-1.209 11.011 11.011 0 0 1 11-11h1.813a10.958 10.958 0 0 1 3.87.7 1.209 1.209 0 1 1-.853 2.269 8.55 8.55 0 0 0-3.019-.546H41.5a8.591 8.591 0 0 0-8.581 8.581 1.209 1.209 0 0 1-1.209 1.209zM50.442 8.158a8.158 8.158 0 1 0-8.158 8.158 8.167 8.167 0 0 0 8.158-8.158zm-2.417 0a5.741 5.741 0 1 1-5.741-5.741 5.747 5.747 0 0 1 5.74 5.741z" data-name="Path 673"/>
        <path id="Path_674" fill="#f05050" d="M227.607 346.1a1.209 1.209 0 0 1-1.209-1.209V341.7a1.281 1.281 0 0 0-1.28-1.28h-3.192a1.209 1.209 0 0 1 0-2.417h3.192a3.7 3.7 0 0 1 3.7 3.7v3.192a1.209 1.209 0 0 1-1.211 1.205zm-2.994-1.946a1.209 1.209 0 0 0-1.748-1.669 11.934 11.934 0 0 1-8.592 3.675h-.565a1.209 1.209 0 1 0 0 2.417h.565a14.363 14.363 0 0 0 10.34-4.425z" data-name="Path 674" transform="translate(-171.002 -317.575)"/>
    </g>
</svg>
