<svg id="Layer_5" data-name="Layer 5" xmlns="http://www.w3.org/2000/svg" viewBox="0 0 18 17.68"><title>private</title><path d="M15.47,12A5.5,5.5,0,0,1,9.9,11.1L9.76,11,6.6,13.69,8,15.32l-1.3,1.11L5.3,14.8l-1.06.9,1.71,2L4.62,18.84l-1.72-2c-.51.49-1,.93-1.72.35l0,0c-.44-.79.12-1.22.69-1.7L4,13.57l4.4-3.72c.15-.13.19-.2.09-.4a5.6,5.6,0,0,1,2.55-7.8,5.65,5.65,0,0,1,2.32-.49,5.58,5.58,0,0,1,5.39,4,5.77,5.77,0,0,1-2.1,6.18A5.11,5.11,0,0,1,15.47,12Zm1-7.71a3.91,3.91,0,0,0-5.49-.5,4,4,0,0,0-.58,5.39,3.9,3.9,0,1,0,6.07-4.89Z" transform="translate(-1 -1.16)" style="fill:#2c2e2f"/></svg>