<svg id="Layer_15" data-name="Layer 15" xmlns="http://www.w3.org/2000/svg" viewBox="0 0 18 18"><title>UPLOAD</title><path d="M17.79,5.54A8.93,8.93,0,0,0,10,1.06,8.93,8.93,0,0,0,2.21,5.54,8.75,8.75,0,0,0,1,10.06a8.71,8.71,0,0,0,1.21,4.51A9,9,0,0,0,10,19.06a9,9,0,0,0,7.79-4.49A8.71,8.71,0,0,0,19,10.06a8.75,8.75,0,0,0-1.21-4.52Zm-1.73,8a7,7,0,0,1-9.57,2.55,7,7,0,0,1-2.55-2.55A6.79,6.79,0,0,1,3,10.06,7,7,0,0,1,6.49,4,6.79,6.79,0,0,1,10,3.06a7,7,0,0,1,6.06,3.48A6.85,6.85,0,0,1,17,10.06a6.79,6.79,0,0,1-.94,3.51Zm-.54-.31" transform="translate(-1 -1.06)" style="fill:#f05050"/><path d="M10.27,5.66a.41.41,0,0,0-.54,0L6,9.4a.43.43,0,0,0-.12.28.38.38,0,0,0,.38.38H8.5v4.12a.38.38,0,0,0,.38.38h2.25a.33.33,0,0,0,.26-.11.37.37,0,0,0,.11-.27V10.06h2.25a.35.35,0,0,0,.35-.24A.36.36,0,0,0,14,9.41Zm0,0" transform="translate(-1 -1.06)" style="fill:#f05050"/></svg>