<svg id="Layer_1" data-name="Layer 1" xmlns="http://www.w3.org/2000/svg" xmlns:xlink="http://www.w3.org/1999/xlink" viewBox="0 0 78.74 78.74"><defs><linearGradient id="linear-gradient" x1="77.86" y1="47.73" x2="10.61" y2="8.9" gradientTransform="matrix(1, 0, 0, -1, -5.63, 66.37)" gradientUnits="userSpaceOnUse"><stop offset="0" stop-color="#f05050"/><stop offset="0.49" stop-color="#e5512a"/><stop offset="1" stop-color="#ae3052"/></linearGradient><linearGradient id="linear-gradient-2" x1="75.14" y1="-719.11" x2="56.56" y2="-751.29" gradientTransform="matrix(1, 0, 0, -1, -5.63, -677.53)" xlink:href="#linear-gradient"/><linearGradient id="linear-gradient-3" x1="42.11" y1="-694.08" x2="22.72" y2="-727.67" gradientTransform="matrix(1, 0, 0, -1, -5.63, -677.53)" xlink:href="#linear-gradient"/><linearGradient id="linear-gradient-4" x1="61.42" y1="-699.8" x2="52.64" y2="-715" gradientTransform="matrix(1, 0, 0, -1, -5.63, -677.53)" xlink:href="#linear-gradient"/><linearGradient id="linear-gradient-5" x1="43.86" y1="-726.98" x2="37.16" y2="-738.59" gradientTransform="matrix(1, 0, 0, -1, -5.63, -677.53)" xlink:href="#linear-gradient"/><linearGradient id="linear-gradient-6" x1="48.36" y1="-710.08" x2="40.76" y2="-723.25" gradientTransform="matrix(1, 0, 0, -1, -5.63, -677.53)" xlink:href="#linear-gradient"/></defs><title>1</title><path d="M41.05,78.74H37.79A5.79,5.79,0,0,1,32.05,73v-.63a2.67,2.67,0,0,0-2.17-2.77,51.89,51.89,0,0,1-4.95-1.88,2.81,2.81,0,0,0-3.56.65l-.3.3a6,6,0,0,1-8.21,0L10.19,66.1a6,6,0,0,1,0-8.31l.3-.3a3.41,3.41,0,0,0,.59-3.56A35.1,35.1,0,0,1,9.2,49a2.68,2.68,0,0,0-2.77-2.18H5.74A5.82,5.82,0,0,1,0,41.07V37.79a5.79,5.79,0,0,1,5.74-5.74h.63a2.67,2.67,0,0,0,2.77-2.17A51.89,51.89,0,0,1,11,24.93a2.81,2.81,0,0,0-.65-3.56l-.3-.3a5.67,5.67,0,0,1-1.7-4.15,5.69,5.69,0,0,1,1.68-4.16l2.47-2.47a6,6,0,0,1,8.21,0l.3.3a3.41,3.41,0,0,0,3.56.59A34.76,34.76,0,0,1,29.54,9.3a2.68,2.68,0,0,0,2.17-2.77V5.74A5.82,5.82,0,0,1,37.45,0h3.27a5.8,5.8,0,0,1,5.73,5.74v.63a2.67,2.67,0,0,0,2.18,2.77A50.71,50.71,0,0,1,53.57,11a2.82,2.82,0,0,0,3.61-.65l.29-.3a6,6,0,0,1,8.21,0l2.48,2.47a6,6,0,0,1,0,8.31l-.3.3a3.43,3.43,0,0,0-.6,3.56,33.09,33.09,0,0,1,1.88,5,2.68,2.68,0,0,0,2.77,2.17H73a5.82,5.82,0,0,1,5.74,5.74v.3H75.67v-.3a2.77,2.77,0,0,0-2.75-2.77h-.61a5.73,5.73,0,0,1-5.54-4.18,42.35,42.35,0,0,0-1.88-4.45A5.92,5.92,0,0,1,66,19.29l.3-.3a2.79,2.79,0,0,0,.79-1.87,3.12,3.12,0,0,0-.79-1.88L63.8,12.76a3.06,3.06,0,0,0-4.15,0l-.3.3a6,6,0,0,1-6.92,1.09A29,29,0,0,0,48,12.27a5.92,5.92,0,0,1-4.16-5.54V6.14a2.77,2.77,0,0,0-2.75-2.77H37.79A2.77,2.77,0,0,0,35,6.12v.61a5.72,5.72,0,0,1-4.16,5.54,27.15,27.15,0,0,0-4.49,1.88,5.91,5.91,0,0,1-6.92-1.09l.1-.1a3.05,3.05,0,0,0-4.16,0l-2.47,2.47a2.83,2.83,0,0,0-.79,1.88,3.12,3.12,0,0,0,.79,1.88l.3.3a6,6,0,0,1,1.15,6.88,29,29,0,0,0-1.88,4.45A5.92,5.92,0,0,1,7,35H6.37a2.75,2.75,0,0,0-2.8,2.7v3.37a2.77,2.77,0,0,0,2.75,2.77H7A5.73,5.73,0,0,1,12.5,48a42.28,42.28,0,0,0,1.87,4.45c1.08,2.47.79,5.24-1.09,6.92l-.59.4a2.75,2.75,0,0,0-.8,1.88,2.53,2.53,0,0,0,.8,1.88L15.16,66a3,3,0,0,0,4.15,0l.3-.3a6,6,0,0,1,6.92-1.09A29,29,0,0,0,31,66.47,5.92,5.92,0,0,1,35.14,72v.59a2.75,2.75,0,0,0,2.73,2.77h3.28a2.77,2.77,0,0,0,2.77-2.75V72a5.73,5.73,0,0,1,4.16-5.54h.29l.79,2.77h-.29A2.91,2.91,0,0,0,46.69,72v.6a5.58,5.58,0,0,1-5,6.1C41.48,78.73,41.26,78.74,41.05,78.74Z" transform="translate(0)" style="fill:url(#linear-gradient)"/><path d="M68.25,42.44V53.71a1.56,1.56,0,0,1-.79,1.39l-4.65,2.17a1.17,1.17,0,0,1-1.38,0L56.78,55.1A1.4,1.4,0,0,1,56,53.71V42.44C49.36,42.44,45.5,48,45.5,54.51s3.76,12.16,10.39,12.16L57,74.88a4.48,4.48,0,0,0,4.45,3.86h1.09A4.57,4.57,0,0,0,67,74.88l1.08-8.21c6.63,0,10.49-5.54,10.49-12.07S74.88,42.44,68.25,42.44Z" transform="translate(0)" style="fill:url(#linear-gradient-2)"/><path d="M21,52.82l-.89-1.58A22.91,22.91,0,0,1,34.72,17.11l1.88-.29V29.18l-.79.3a10.48,10.48,0,0,0-6.63,9.89A12.52,12.52,0,0,0,30,43.52l.3,1.09Zm12.4-32.14A19.59,19.59,0,0,0,19.79,39.37a18.59,18.59,0,0,0,1.87,8.51l4.65-4.45A11,11,0,0,1,25.52,39a13.57,13.57,0,0,1,7.42-12.06l.4-6.23Z" transform="translate(0)" style="fill:url(#linear-gradient-3)"/><path d="M62.22,39.37H59.15A19.09,19.09,0,0,0,45.7,20.68V27.3c4.67,2.18,7.42,7.72,7.42,12.07H50.05a10.4,10.4,0,0,0-6.62-9.89l-.79-.3V16.82l1.88.3A23.19,23.19,0,0,1,62.22,39.37Z" transform="translate(0)" style="fill:url(#linear-gradient-4)"/><path d="M39.37,61.92A24,24,0,0,1,27,58.37l-1.64-1.1,8.81-8.5.79.29a10.2,10.2,0,0,0,4.15.8v3.06a14,14,0,0,1-4.45-.79L30,56.78A20,20,0,0,0,39.07,59V62Z" transform="translate(0)" style="fill:url(#linear-gradient-5)"/><path d="M39.37,46.79a7.42,7.42,0,1,1,0-14.84,7.23,7.23,0,0,1,7.42,7v.39H43.72c0-3.07-1.88-4.45-4.45-4.45a4.45,4.45,0,0,0,0,8.9h0A29.47,29.47,0,0,1,39.37,46.79Z" transform="translate(0)" style="fill:url(#linear-gradient-6)"/></svg>