<svg id="Layer_1" data-name="Layer 1" xmlns="http://www.w3.org/2000/svg" xmlns:xlink="http://www.w3.org/1999/xlink" viewBox="0 0 82.17 66.24"><defs><linearGradient id="linear-gradient" x1="68.47" y1="-714.24" x2="64.65" y2="-720.86" gradientTransform="matrix(1, 0, 0, -1, -6.83, -695.78)" gradientUnits="userSpaceOnUse"><stop offset="0" stop-color="#f05050"/><stop offset="0.49" stop-color="#e5512a"/><stop offset="1" stop-color="#ae3052"/></linearGradient><linearGradient id="linear-gradient-2" x1="66.15" y1="-704.16" x2="27.17" y2="-771.67" xlink:href="#linear-gradient"/><linearGradient id="linear-gradient-3" x1="70.02" y1="-742.56" x2="63.78" y2="-753.37" xlink:href="#linear-gradient"/></defs><title>10</title><path d="M63.38,28.28,54,18.88H61.9a1.4,1.4,0,0,1,1.48,1.31v8.09Z" transform="translate(0 0)" style="fill:url(#linear-gradient)"/><path d="M78.91,31.54h-9.4V17.4a4.68,4.68,0,0,0-4.61-4.75H54V9.39H50.43L49,3.56A4.82,4.82,0,0,0,44.17,0H25.41a5.07,5.07,0,0,0-4.74,3.56l-1.5,5.83H15.63v3.26H4.75A4.69,4.69,0,0,0,0,17.28V61.5a4.68,4.68,0,0,0,4.62,4.74H78.91A3.3,3.3,0,0,0,82.17,63V34.8A3.3,3.3,0,0,0,78.91,31.54Zm0,6.13H41.33V34.41H78.91Zm0,10.87V55a9.37,9.37,0,0,0-7.62,7.61H49A9.37,9.37,0,0,0,41.33,55V48.54A9.37,9.37,0,0,0,49,40.93H71.29A9,9,0,0,0,78.91,48.54ZM41.33,40.93h4.45a6.66,6.66,0,0,1-4.45,4.45Zm-17-36.38a2,2,0,0,1,1.48-1.19H44.6c.59,0,1.48.59,1.48,1.19l1.19,5H44.6v3.26H25.81V9.59H23.17ZM5.17,63a1.4,1.4,0,0,1-1.49-1.3V41.23h9.4a3.3,3.3,0,0,0,3.26,3.26H19.6a3.3,3.3,0,0,0,3.27-3.26H35.5V38H26.11V36.48a4.68,4.68,0,0,0-4.62-4.74H15.23a4.67,4.67,0,0,0-4.74,4.6V38H3.76V17.7a1.41,1.41,0,0,1,1.33-1.49H64.87a1.4,1.4,0,0,1,1.48,1.31V31.84h-25a3.29,3.29,0,0,0-3.28,3.28V63.28H5.17Zm17.4-25.31h-9.4V36.19a1.4,1.4,0,0,1,1.3-1.49h6.3A1.4,1.4,0,0,1,22.25,36v1.66ZM41.33,63V58.53A6.7,6.7,0,0,1,45.78,63Zm33.23,0A6.69,6.69,0,0,1,79,58.53V63Zm4.35-17.6a6.66,6.66,0,0,1-4.45-4.45h4.45Z" transform="translate(0 0)" style="fill:url(#linear-gradient-2)"/><path d="M60.17,58.23a6.16,6.16,0,0,0,6.08-6.11A6.37,6.37,0,0,0,60.17,46,6.16,6.16,0,0,0,54,52.11h0a6.09,6.09,0,0,0,6.07,6.11Zm0-9.39a3.27,3.27,0,1,1-3.31,3.28C57.17,50.33,58.34,48.84,60.17,48.84Z" transform="translate(0 0)" style="fill:url(#linear-gradient-3)"/></svg>