<svg id="Layer_1" data-name="Layer 1" xmlns="http://www.w3.org/2000/svg" xmlns:xlink="http://www.w3.org/1999/xlink" viewBox="0 0 77.68 77.47"><defs><linearGradient id="linear-gradient" x1="56.16" y1="-685.49" x2="45.72" y2="-703.57" gradientTransform="matrix(1, 0, 0, -1, -6.16, -678.21)" gradientUnits="userSpaceOnUse"><stop offset="0" stop-color="#f05050"/><stop offset="0.49" stop-color="#e5512a"/><stop offset="1" stop-color="#ae3052"/></linearGradient><linearGradient id="linear-gradient-2" x1="69.21" y1="-691.97" x2="66.25" y2="-697.1" xlink:href="#linear-gradient"/><linearGradient id="linear-gradient-3" x1="35.81" y1="-692.08" x2="32.83" y2="-697.24" xlink:href="#linear-gradient"/><linearGradient id="linear-gradient-4" x1="53.42" y1="-710.76" x2="26.87" y2="-756.75" xlink:href="#linear-gradient"/><linearGradient id="linear-gradient-5" x1="65.04" y1="-670.31" x2="36.93" y2="-718.99" xlink:href="#linear-gradient"/><linearGradient id="linear-gradient-6" x1="53.16" y1="-690.64" x2="48.67" y2="-698.42" gradientTransform="matrix(1, 0, 0, -1, -6.16, -678.11)" xlink:href="#linear-gradient"/></defs><title>11</title><path d="M44.77,26.69A10.51,10.51,0,0,1,34.39,16.31,10.38,10.38,0,1,1,44.91,26.69Zm0-17.79a7.42,7.42,0,1,0,7.41,7.43v0a7.35,7.35,0,0,0-7.26-7.42h-.15Z" transform="translate(0 0.09)" style="fill:url(#linear-gradient)"/><path d="M61.37,19.27a3,3,0,0,1,0-5.93,3.18,3.18,0,0,1,3,3A3,3,0,0,1,61.37,19.27Z" transform="translate(0 0.09)" style="fill:url(#linear-gradient-2)"/><path d="M28.17,19.27a3,3,0,1,1,3-3C31.43,18.08,29.94,19.27,28.17,19.27Z" transform="translate(0 0.09)" style="fill:url(#linear-gradient-3)"/><path d="M75.31,48.92a5.17,5.17,0,0,0-5-.89L47.44,54.26a6.37,6.37,0,0,0-4.13-8A6.18,6.18,0,0,0,41.84,46H28.17c-.6-2.66-2.38-5.93-7.42-5.93H14.84a4.55,4.55,0,0,0-4.44-4.44H4.45A4.55,4.55,0,0,0,0,40V64a4.57,4.57,0,0,0,4.45,4.45h5.93A4.56,4.56,0,0,0,14.84,64V62.85L32.91,75a14.78,14.78,0,0,0,7.71,2.37,12.37,12.37,0,0,0,7.11-2.07L75,58.69a5.8,5.8,0,0,0,2.67-5V53.1A6.11,6.11,0,0,0,75.31,48.92ZM11.84,64.34a1.4,1.4,0,0,1-1.32,1.48H8.89V59.89h-3v5.93H4.45A1.4,1.4,0,0,1,3,64.52V40.34a1.4,1.4,0,0,1,1.31-1.48h6.11a1.4,1.4,0,0,1,1.46,1.34V64.34ZM74.72,54.26a3,3,0,0,1-1.49,2.37L46,73.23a10.85,10.85,0,0,1-11.56-.29L14.53,59.59V43.29h5.93a4.3,4.3,0,0,1,4.44,4.16v1.72H41.51a3,3,0,0,1,0,5.93H26.68v3H44.47L70.56,51a4.23,4.23,0,0,1,2.67.3,3.65,3.65,0,0,1,1.19,2.4v.6Z" transform="translate(0 0.09)" style="fill:url(#linear-gradient-4)"/><path d="M17.84,32.91h54a3,3,0,0,0,3-3v-27a3,3,0,0,0-3-3h-54a3,3,0,0,0-3,3v27A3.18,3.18,0,0,0,17.84,32.91Zm0-8.9a7.27,7.27,0,0,1,5.93,5.93H17.84ZM26.73,3H62.84a10.09,10.09,0,0,0,8.89,8.9V21.1a10.36,10.36,0,0,0-8.89,8.84H26.68a10.07,10.07,0,0,0-8.84-8.89V11.86C22.53,11,26.09,7.69,26.68,3ZM65.84,29.94A7.27,7.27,0,0,1,71.77,24v5.93ZM71.77,8.6a7.26,7.26,0,0,1-5.93-5.91h5.93ZM23.77,3a7.27,7.27,0,0,1-5.93,5.93V3Z" transform="translate(0 0.09)" style="fill:url(#linear-gradient-5)"/><circle cx="44.77" cy="16.4" r="4.45" style="fill:url(#linear-gradient-6)"/></svg>