<svg id="Layer_1" data-name="Layer 1" xmlns="http://www.w3.org/2000/svg" xmlns:xlink="http://www.w3.org/1999/xlink" viewBox="0 0 72.83 64.36"><defs><linearGradient id="linear-gradient" x1="170.29" y1="-174.42" x2="243.12" y2="-174.42" gradientTransform="translate(-170.29 215.04)" gradientUnits="userSpaceOnUse"><stop offset="0" stop-color="#f05050"/><stop offset="0.49" stop-color="#e5512a"/><stop offset="1" stop-color="#ae3052"/></linearGradient><linearGradient id="linear-gradient-2" x1="194.59" y1="-11.32" x2="202.89" y2="-11.32" gradientTransform="translate(-161.71 52.12)" xlink:href="#linear-gradient"/><linearGradient id="linear-gradient-3" x1="200.5" y1="-208.16" x2="214.08" y2="-208.16" xlink:href="#linear-gradient"/><linearGradient id="linear-gradient-4" x1="218.59" y1="-11.47" x2="226.89" y2="-11.47" gradientTransform="translate(-161.71 52.12)" xlink:href="#linear-gradient"/><linearGradient id="linear-gradient-5" x1="170.8" y1="-19.76" x2="179.09" y2="-19.76" gradientTransform="translate(-161.71 52.12)" xlink:href="#linear-gradient"/></defs><title>12</title><path d="M68.83,47.88H50.56V21a4.29,4.29,0,0,0-4.14-4.15H26.76A4.32,4.32,0,0,0,22.62,21V39.29H4.15A4.33,4.33,0,0,0,0,43.44V60.23a4.32,4.32,0,0,0,4.15,4.14H68.64a4.31,4.31,0,0,0,4.14-4.14v-8.6C73.18,49.46,71.29,47.88,68.83,47.88ZM25.42,21a1.34,1.34,0,0,1,1.32-1.38h0a.09.09,0,0,1,.07,0H46.42a1.34,1.34,0,0,1,1.38,1.3h0V56.37H25.42ZM22.29,61.61H4.15a1.36,1.36,0,0,1-1.38-1.32V58.84H19.65V56.13H2.77V43.44a1.34,1.34,0,0,1,1.32-1.38h0a.06.06,0,0,1,.06,0H22.42V61.61Zm3.06,0V58.84H47.77v2.77Zm43.45,0H50.56V50.35H68.83a1.34,1.34,0,0,1,1.39,1.29h0v4.23H53.29v2.77H70.18V60c0,1.1-.56,1.58-1.35,1.58Z" transform="translate(0 -0.01)" style="fill:url(#linear-gradient)"/><polygon points="41.18 44.8 38.41 44.8 38.41 33.74 32.88 33.74 32.88 36.52 35.65 36.52 35.65 44.8 32.88 44.8 32.88 47.87 41.18 47.87 41.18 44.8" style="fill:url(#linear-gradient-2)"/><path d="M38.12.58l1.09,2.47.79.79,2.76.29a1.24,1.24,0,0,1,.56,2.18l-2,2c-.3.3-.59.79-.3,1.09l.6,2.76a1.17,1.17,0,0,1-.7,1.48,1.21,1.21,0,0,1-1-.09l-2.45-1.37a.78.78,0,0,0-1.1,0h0l-2.47,1.39c-.79.59-2-.3-1.67-1.39l.59-2.76c0-.6,0-.79-.3-1.09l-2-2a1.3,1.3,0,0,1,.64-2.15l2.76-.29a.86.86,0,0,0,.79-.79L35.79.63A1.38,1.38,0,0,1,37.7.23,1.1,1.1,0,0,1,38.12.58Z" transform="translate(0 -0.01)" style="fill:url(#linear-gradient-3)"/><circle cx="61.03" cy="40.65" r="4.15" style="fill:url(#linear-gradient-4)"/><circle cx="13.23" cy="32.36" r="4.15" style="fill:url(#linear-gradient-5)"/></svg>