<svg id="Layer_1" data-name="Layer 1" xmlns="http://www.w3.org/2000/svg" xmlns:xlink="http://www.w3.org/1999/xlink" viewBox="0 0 69.47 60.92"><defs><linearGradient id="linear-gradient" x1="45.55" y1="33.89" x2="45.55" y2="47.04" gradientTransform="translate(-10.14 -32.51)" gradientUnits="userSpaceOnUse"><stop offset="0" stop-color="#f05050"/><stop offset="0.49" stop-color="#e5512a"/><stop offset="1" stop-color="#ae3052"/></linearGradient><linearGradient id="linear-gradient-2" x1="-490.98" y1="-657.88" x2="-515.97" y2="-701.16" gradientTransform="matrix(1.5, 0, 0, -1.5, 789.86, -981.91)" xlink:href="#linear-gradient"/><linearGradient id="linear-gradient-3" x1="-303.5" y1="-491.32" x2="-531.89" y2="-719.71" gradientTransform="matrix(1.5, 0, 0, -1.5, 789.82, -981.91)" xlink:href="#linear-gradient"/><linearGradient id="linear-gradient-4" x1="-428.91" y1="-593.91" x2="-657.3" y2="-822.3" gradientTransform="matrix(1.5, 0, 0, -1.5, 789.82, -981.91)" xlink:href="#linear-gradient"/></defs><title>13</title><path d="M22.29,14.49V6.61a5.2,5.2,0,0,1,5.17-5.23H43.31a5.19,5.19,0,0,1,5.22,5.16v8H43.31V7.79a1.6,1.6,0,0,0-1.45-1.47H28.71A1.58,1.58,0,0,0,27.23,7.8v6.69Z" transform="translate(-0.04 0)" style="fill:url(#linear-gradient)"/><path d="M65.5,13.42H64a2.65,2.65,0,0,0-2.64-2.66H56.13a2.65,2.65,0,0,0-2.66,2.64v0h-4V6.71A6.78,6.78,0,0,0,42.76,0H26.93a6.78,6.78,0,0,0-6.71,6.71v6.71H16.08a2.65,2.65,0,0,0-2.64-2.66H8.19a2.65,2.65,0,0,0-2.67,2.63v0H4a4.13,4.13,0,0,0-4,4v39.5a4.12,4.12,0,0,0,4,4H65.5a4.13,4.13,0,0,0,4-4V17.49a3.84,3.84,0,0,0-3.58-4.07ZM61.75,52.88H56.53V50.21h5.22Zm-5.32,2.61h5.22v2.67H56.43Zm0-42h5.22V48H56.43V13.49Zm-33-6.81a4.13,4.13,0,0,1,4-4H43.21a4.12,4.12,0,0,1,4,4v6.71H44.59V8.09A2.65,2.65,0,0,0,42,5.43H29a2.65,2.65,0,0,0-2.66,2.64v5.25H23.67V6.61Zm18.43,6.74H28.71V8.19H41.86ZM20.86,16h33V58.11H17V16Zm-12,34.24h5.33v2.66H8.86l-.1-2.66Zm0,5.22h5.33v2.67H8.86l-.08-2.62Zm0-42h5.33V48H8.86V14.8l-.1-1.38ZM3.55,56.63V17.17A1.59,1.59,0,0,1,5,15.69H6.51V57.81H5C4.14,58.11,3.55,57.49,3.55,56.63Zm63.43,0a1.59,1.59,0,0,1-1.48,1.48H64V16H65.5A1.58,1.58,0,0,1,67,17.49Z" transform="translate(-0.04 0)" style="fill:url(#linear-gradient-2)"/><rect x="22.25" y="52.88" width="26.34" height="2.66" style="fill:url(#linear-gradient-3)"/><rect x="22.25" y="18.65" width="26.34" height="2.66" style="fill:url(#linear-gradient-4)"/></svg>