<svg id="Layer_1" data-name="Layer 1" xmlns="http://www.w3.org/2000/svg" xmlns:xlink="http://www.w3.org/1999/xlink" viewBox="0 0 75.44 66.89"><defs><linearGradient id="linear-gradient" x1="33.78" y1="-732.48" x2="28.32" y2="-741.94" gradientTransform="matrix(1, 0, 0, -1, -7.27, -695.45)" gradientUnits="userSpaceOnUse"><stop offset="0" stop-color="#f05050"/><stop offset="0.49" stop-color="#e5512a"/><stop offset="1" stop-color="#ae3052"/></linearGradient><linearGradient id="linear-gradient-2" x1="22.39" y1="-720.75" x2="18.03" y2="-728.29" xlink:href="#linear-gradient"/><linearGradient id="linear-gradient-3" x1="51.33" y1="-732.55" x2="46.97" y2="-740.1" xlink:href="#linear-gradient"/><linearGradient id="linear-gradient-4" x1="61.75" y1="-740.41" x2="56.29" y2="-749.87" xlink:href="#linear-gradient"/><linearGradient id="linear-gradient-5" x1="71.73" y1="-732.5" x2="67.38" y2="-740.04" xlink:href="#linear-gradient"/><linearGradient id="linear-gradient-6" x1="59.11" y1="-699.83" x2="28.45" y2="-752.93" xlink:href="#linear-gradient"/></defs><title>15</title><path d="M30.46,43.66a7.22,7.22,0,0,0-14.44,0h0A17.49,17.49,0,0,1,30.46,43.66Z" transform="translate(0 0)" style="fill:url(#linear-gradient)"/><circle cx="12.96" cy="29.03" r="4.35" style="fill:url(#linear-gradient-2)"/><circle cx="41.93" cy="40.79" r="4.35" style="fill:url(#linear-gradient-3)"/><path d="M59.44,47.91a7.22,7.22,0,0,1-14.44,0A17.49,17.49,0,0,0,59.44,47.91Z" transform="translate(0 0)" style="fill:url(#linear-gradient-4)"/><circle cx="62.3" cy="40.79" r="4.35" style="fill:url(#linear-gradient-5)"/><path d="M72.88,16.66c-8.9-4.35-17.8-6-26.7-4.84V9a4,4,0,0,0-2.27-3.76C30.16-1.73,16-1.73,2.27,5.19A4.09,4.09,0,0,0,0,8.85V31.79A23.14,23.14,0,0,0,23,55h.2a23.76,23.76,0,0,0,8-1.48,23.2,23.2,0,0,0,44.2-9.89v-23A4.42,4.42,0,0,0,72.88,16.66Zm-.19,4v1.79A47.27,47.27,0,0,0,67,20.17V17.45c1.68.6,3.46,1.49,5.14,2a1.4,1.4,0,0,1,.64,1.17ZM58,17.75V14.88a40.88,40.88,0,0,1,5.78,1.19v2.87C62,18.64,60,18.05,58,17.75Zm-2.87-3.16v2.86H49.35V14.59ZM31.84,22.45V20.72c0-.59.3-1.19.89-1.19a28.75,28.75,0,0,1,5.15-2V20.1A31.9,31.9,0,0,0,31.84,22.45Zm8.61-6a38.61,38.61,0,0,1,5.73-1.19v2.79a38.61,38.61,0,0,0-5.73,1.19ZM23.24,52.27A20.48,20.48,0,0,1,2.87,31.89V13.8a41.79,41.79,0,0,1,33-3.17l.89-2.87C25.58,4.3,14.11,5.19,2.84,10.63V9c0-.59.3-1.19.89-1.19,13-6.31,26.14-6.31,39.09,0A1.61,1.61,0,0,1,43.73,9v3.5A49.27,49.27,0,0,0,31.67,16.8a4,4,0,0,0-2.28,3.76V43.45a29.63,29.63,0,0,0,1.19,7.42A18.1,18.1,0,0,1,23.24,52.27ZM52.24,64a20.47,20.47,0,0,1-20.4-20.37V25.56c13.45-6.92,27.3-6.92,40.75,0v18.1A20.34,20.34,0,0,1,52.28,64h0Z" transform="translate(0 0)" style="fill:url(#linear-gradient-6)"/></svg>