<svg id="Layer_1" data-name="Layer 1" xmlns="http://www.w3.org/2000/svg" xmlns:xlink="http://www.w3.org/1999/xlink" viewBox="0 0 54.14 73.88"><defs><linearGradient id="linear-gradient" x1="64.22" y1="1923.72" x2="49.18" y2="1949.79" gradientTransform="translate(-23.81 -1908.58)" gradientUnits="userSpaceOnUse"><stop offset="0" stop-color="#f05050"/><stop offset="0.49" stop-color="#e5512a"/><stop offset="1" stop-color="#ae3052"/></linearGradient><linearGradient id="linear-gradient-2" x1="-829.92" y1="-1561.14" x2="-852.82" y2="-1600.8" gradientTransform="matrix(1.5, 0, 0, -1.5, 1292.19, -2333.23)" xlink:href="#linear-gradient"/></defs><title>16</title><path d="M41.66,29.32c0,6.42-4.35,13.15-10.18,15.42V10C37.31,13.16,41.66,22.85,41.66,29.32Z" transform="translate(0.03)" style="fill:url(#linear-gradient)"/><path d="M53.93,54.59A15,15,0,0,0,41.66,47a25.69,25.69,0,0,0,6.73-17.21C48.39,18.1,38.79,0,27.12,0S5.76,18.2,5.76,29.87c0,6.13,2.67,12.26,6.73,17.21A16.17,16.17,0,0,0,.19,54.69a1.38,1.38,0,0,0,0,1.49,15.87,15.87,0,0,0,14,7.91,16,16,0,0,0,11.37-4.35V73.88h3V59.64A15.78,15.78,0,0,0,39.93,64a15.87,15.87,0,0,0,14-7.91A1.63,1.63,0,0,0,53.93,54.59ZM27.42,3c9.89,0,18.4,16.61,18.4,26.8,0,9.3-7.32,20.18-16.92,21V10h-3V24.83l-6.13-6.14-2.08,2.08L25.9,29v5.83l-6.14-6.13-2.07,2.08L25.9,39V51C16.3,50.08,9,39.3,9,30,8.73,19.58,17.19,3,27.42,3ZM14.56,61A13,13,0,0,1,3.49,55.48,13.18,13.18,0,0,1,14.56,50h1.19a18.49,18.49,0,0,0,10.19,4v1.19A13.73,13.73,0,0,1,14.56,61ZM40,61a13.12,13.12,0,0,1-11.37-6.13V53.7a18.87,18.87,0,0,0,10.18-4H40a13.08,13.08,0,0,1,11.08,5.54A12.54,12.54,0,0,1,40,61Z" transform="translate(0.03)" style="fill:url(#linear-gradient-2)"/></svg>