<svg id="Layer_1" data-name="Layer 1" xmlns="http://www.w3.org/2000/svg" xmlns:xlink="http://www.w3.org/1999/xlink" viewBox="0 0 73.46 65.18"><defs><linearGradient id="linear-gradient" x1="-1137.27" y1="1880.05" x2="-1139.59" y2="1884.05" gradientTransform="translate(1750.35 -2802.53) scale(1.5)" gradientUnits="userSpaceOnUse"><stop offset="0" stop-color="#f05050"/><stop offset="0.49" stop-color="#e5512a"/><stop offset="1" stop-color="#ae3052"/></linearGradient><linearGradient id="linear-gradient-2" x1="-1143.63" y1="1882.65" x2="-1145.76" y2="1886.35" xlink:href="#linear-gradient"/><linearGradient id="linear-gradient-3" x1="-1125.42" y1="1875.97" x2="-1127.11" y2="1878.9" xlink:href="#linear-gradient"/><linearGradient id="linear-gradient-4" x1="-1131.49" y1="1878.16" x2="-1133.38" y2="1881.43" xlink:href="#linear-gradient"/><linearGradient id="linear-gradient-5" x1="-1149.71" y1="1885.16" x2="-1151.5" y2="1888.25" xlink:href="#linear-gradient"/><linearGradient id="linear-gradient-6" x1="-1133.02" y1="1862.56" x2="-1158.69" y2="1907.02" xlink:href="#linear-gradient"/><linearGradient id="linear-gradient-7" x1="-959.79" y1="1594.57" x2="-1225.3" y2="2054.45" gradientTransform="translate(1750.36 -2802.57) scale(1.5)" xlink:href="#linear-gradient"/></defs><title>17</title><path d="M45,19.87c.6,1.18-.29,2.66-1.48,3.26s-2.67-.3-3.26-1.49h0c-.59-1.18.3-2.66,1.48-3.26a2.3,2.3,0,0,1,3.09,1.05,2.35,2.35,0,0,1,.17.44h0" transform="translate(0.01 -0.04)" style="fill:url(#linear-gradient)"/><path d="M35.85,23c.59,1.19-.29,2.67-1.48,3.26s-2.67-.3-3.26-1.48h0c-.6-1.19.29-2.67,1.48-3.26A2.84,2.84,0,0,1,35.85,23Z" transform="translate(0.01 -0.04)" style="fill:url(#linear-gradient-2)"/><path d="M63.14,13.05c.59,1.18-.3,2.67-1.48,3.26S59,16,58.4,14.83h0a2.75,2.75,0,0,1,1.45-3.3,2.45,2.45,0,0,1,3.2,1.33l.06.16Z" transform="translate(0.01 -0.04)" style="fill:url(#linear-gradient-3)"/><path d="M54.05,16.31c.59,1.18-.3,2.67-1.48,3.26s-2.67-.3-3.27-1.48h0c-.59-1.19.3-2.67,1.49-3.26S53.45,15.12,54.05,16.31Z" transform="translate(0.01 -0.04)" style="fill:url(#linear-gradient-4)"/><path d="M26.85,26.59c.59,1.18-.3,2.67-1.49,3.26s-2.66-.3-3.26-1.48h0c-.59-1.19.3-2.67,1.49-3.27S26.27,25.4,26.85,26.59Z" transform="translate(0.01 -0.04)" style="fill:url(#linear-gradient-5)"/><path d="M73.12,12a10.71,10.71,0,0,0-5.83-6.43,10.53,10.53,0,0,0-8.5-.3L40.9,12,21.85.53A4.21,4.21,0,0,0,18.59.24L14.73,1.72A3.17,3.17,0,0,0,13,3.8a2,2,0,0,0,.9,2.33L26,17.53l-9.39,3.56-5.83-6.76A5.9,5.9,0,0,0,4,12.53l-1.49.59a4,4,0,0,0-2.37,5l4.94,14A10.76,10.76,0,0,0,11,38.53a12.52,12.52,0,0,0,4.65,1.18,17.33,17.33,0,0,0,3.85-.59l12.4-4.59L29.73,51.2a3.39,3.39,0,0,0,.89,2.33c.6.3.89.59,1.49.59a1.12,1.12,0,0,0,.89-.29l3.85-1.45A3.18,3.18,0,0,0,39.22,50l7.51-21.15,22.54-8.5C72.53,18.68,74.21,15.12,73.12,12ZM19.85,2.87h.89l2.11,1.18L18.07,5.73,16.29,4Zm.2,4.94,5.53-2.08,12.06,7L29.14,16Zm16.7,41a.64.64,0,0,1-.59.6L32.6,50.89l.3-2.37,4.64-1.78Zm2.1-5.52-5.54,2.08,2.37-17.3c0-.3.3-.59.6-.89l9.39-3.56ZM68.38,17.53,48.22,25.1l.29-.89a3.64,3.64,0,0,0-.59-3,2.26,2.26,0,0,0-2.67-.59l-9.68,3.91a3.46,3.46,0,0,0-2.38,3.26l-.59,3.27L18.85,36.27A7.34,7.34,0,0,1,12.72,36a8.09,8.09,0,0,1-4.35-5L3.43,17a1.08,1.08,0,0,1,.51-1.44l.09,0,1.48-.6c1.19-.59,2.67,0,3.85.89l7,8.21L60.57,7.31a7.34,7.34,0,0,1,6.13.3,8.09,8.09,0,0,1,4.35,4.92A4.52,4.52,0,0,1,68.38,17.53Z" transform="translate(0.01 -0.04)" style="fill:url(#linear-gradient-6)"/><rect x="5.73" y="62.22" width="62.07" height="2.96" style="fill:url(#linear-gradient-7)"/></svg>