<svg id="Слой_1" data-name="Слой 1" xmlns="http://www.w3.org/2000/svg" xmlns:xlink="http://www.w3.org/1999/xlink" viewBox="0 0 60 78"><defs><linearGradient id="linear-gradient" x1="-278" y1="-101.41" x2="-278" y2="-98.65" gradientTransform="translate(447 218.5) scale(1.5)" gradientUnits="userSpaceOnUse"><stop offset="0" stop-color="#f05050"/><stop offset="0.49" stop-color="#e5512a"/><stop offset="1" stop-color="#ae3052"/></linearGradient><linearGradient id="linear-gradient-2" x1="-286.5" y1="-141.66" x2="-286.5" y2="-138.55" xlink:href="#linear-gradient"/><linearGradient id="linear-gradient-3" x1="-269.5" y1="-141.66" x2="-269.5" y2="-138.55" xlink:href="#linear-gradient"/><linearGradient id="linear-gradient-4" y1="-146.5" y2="-91.81" xlink:href="#linear-gradient"/><linearGradient id="linear-gradient-5" x1="-284" y1="-146.5" x2="-284" y2="-91.81" xlink:href="#linear-gradient"/><linearGradient id="linear-gradient-6" x1="-284.5" y1="-146.5" x2="-284.5" y2="-91.81" xlink:href="#linear-gradient"/><linearGradient id="linear-gradient-7" x1="-272.42" y1="-146.5" x2="-272.42" y2="-91.81" xlink:href="#linear-gradient"/><linearGradient id="linear-gradient-8" x1="-285" y1="-146.5" x2="-285" y2="-91.81" xlink:href="#linear-gradient"/><linearGradient id="linear-gradient-9" x1="-285.5" y1="-146.5" x2="-285.5" y2="-91.81" xlink:href="#linear-gradient"/><linearGradient id="linear-gradient-10" x1="-273" y1="-146.5" x2="-273" y2="-91.81" xlink:href="#linear-gradient"/></defs><title>18</title><rect x="9" y="67.5" width="42" height="1.5" style="fill:url(#linear-gradient)"/><rect x="12" y="7.5" width="10.5" height="1.5" style="fill:url(#linear-gradient-2)"/><rect x="37.5" y="7.5" width="10.5" height="1.5" style="fill:url(#linear-gradient-3)"/><path d="M54,9H51V7.5a3,3,0,0,0-3-3H36.86a7.48,7.48,0,0,0-13.72,0H12a3,3,0,0,0-3,3V9H6a6,6,0,0,0-6,6V72a6,6,0,0,0,6,6H54a6,6,0,0,0,6-6V15A6,6,0,0,0,54,9ZM48,7.5V9H37.5V7.5Zm-22.5,0a4.5,4.5,0,0,1,9,0V18h-9Zm0,13.5h9a3,3,0,0,0,3-3H51V64.5H9V18H22.5A3,3,0,0,0,25.5,21ZM9,67.5H51V69H9Zm3-60H22.5V9H12ZM57,72a3,3,0,0,1-3,3H6a3,3,0,0,1-3-3V15a3,3,0,0,1,3-3H22.5v3H9a3,3,0,0,0-3,3V69a3,3,0,0,0,3,3H51a3,3,0,0,0,3-3V18a3,3,0,0,0-3-3H37.5V12H54a3,3,0,0,1,3,3Z" transform="translate(0 0)" style="fill:url(#linear-gradient-4)"/><rect x="15" y="28.5" width="12" height="3" style="fill:url(#linear-gradient-5)"/><rect x="15" y="46.5" width="10.5" height="3" style="fill:url(#linear-gradient-6)"/><path d="M37.13,38.47a3,3,0,0,0,2.12-.88l6.67-6.67L43.8,28.8l-6.68,6.67-4.18-4.19L30.81,33.4,35,37.59A3,3,0,0,0,37.13,38.47Z" transform="translate(0 0)" style="fill:url(#linear-gradient-7)"/><rect x="15" y="34.5" width="9" height="3" style="fill:url(#linear-gradient-8)"/><rect x="15" y="52.5" width="7.5" height="3" style="fill:url(#linear-gradient-9)"/><polygon points="40.68 45.7 37.5 48.88 34.32 45.7 32.2 47.82 35.38 51 32.2 54.18 34.32 56.3 37.5 53.12 40.68 56.3 42.8 54.18 39.62 51 42.8 47.82 40.68 45.7" style="fill:url(#linear-gradient-10)"/></svg>