<svg id="Layer_1" data-name="Layer 1" xmlns="http://www.w3.org/2000/svg" xmlns:xlink="http://www.w3.org/1999/xlink" viewBox="0 0 74.92 75.24"><defs><linearGradient id="linear-gradient" x1="-604.19" y1="722.5" x2="-616.14" y2="701.79" gradientTransform="translate(929.99 -1008.71) scale(1.5)" gradientUnits="userSpaceOnUse"><stop offset="0" stop-color="#f05050"/><stop offset="0.49" stop-color="#e5512a"/><stop offset="1" stop-color="#ae3052"/></linearGradient><linearGradient id="linear-gradient-2" x1="-580.87" y1="672.47" x2="-608.69" y2="720.65" xlink:href="#linear-gradient"/><linearGradient id="linear-gradient-3" x1="-274.96" y1="-492.41" x2="-274.96" y2="-480.86" gradientTransform="translate(-189.85 842.51) rotate(45) scale(1.5)" xlink:href="#linear-gradient"/></defs><title>2</title><path d="M5.24,45,29.49,69.54,27.3,71.69a4.83,4.83,0,0,1-6.81,0L3,54.31a4.84,4.84,0,0,1,0-6.83Z" transform="translate(0 -0.04)" style="fill:url(#linear-gradient)"/><path d="M19.88,38.28,36.8,55.5l-2.18,1.88L17.71,40.16Zm-6.53,6.24L30.27,61.69l2.22-1.84-17-17.16ZM70.43,31.46l-1.09,1.09v.19L28.69,73.4A6.25,6.25,0,0,1,24,75.28a6.67,6.67,0,0,1-4.65-1.88L1.88,55.4a6.68,6.68,0,0,1,0-9.3L30.27,17.69a6.25,6.25,0,0,1,4.65-1.88,6.67,6.67,0,0,1,4.65,1.88l8.21,8.21a10.48,10.48,0,0,0,7.12,3A5.74,5.74,0,0,0,59,27.51l2.77-2.82a6.39,6.39,0,0,0,0-9l-2.48-2.27a6.42,6.42,0,0,0-4-1.88,5,5,0,0,0-4.06,1.88l-.79.79A5.54,5.54,0,0,1,41,10.35a5.18,5.18,0,0,1,1.68-3.86l1.86-1.8A15.07,15.07,0,0,1,65.8,4.23l.46.46,4.65,4.65A16.52,16.52,0,0,1,70.43,31.46ZM27.8,70.14,5.24,47,3.86,48.37a4,4,0,0,0-1.09,2.48,3.2,3.2,0,0,0,1.09,2.47l17.7,18A4,4,0,0,0,24,72.41a3.16,3.16,0,0,0,2.45-1.09ZM68.49,11.77,63.84,7.12a12.06,12.06,0,0,0-9-3.56,13.36,13.36,0,0,0-9,3.56L44,9a2.39,2.39,0,0,0-.79,1.88A2.52,2.52,0,0,0,44,12.76a2.31,2.31,0,0,0,1.88.79,2.52,2.52,0,0,0,1.88-.79l.79-.79A8.88,8.88,0,0,1,54.74,9.2,7.56,7.56,0,0,1,61,12l2.48,2.48a9.31,9.31,0,0,1,0,13.05l-2.77,2.77h-.3a9.21,9.21,0,0,1-6,2.18,13,13,0,0,1-9.3-3.86l-8.21-8.21a4,4,0,0,0-2.48-1.09,3.2,3.2,0,0,0-2.47,1.09L7.12,45.6,29.77,68.75l37.1-37.06h0l.3-.3.29-.3L68.55,30C73.4,24.63,73.4,16.42,68.49,11.77Z" transform="translate(0 -0.04)" style="fill:url(#linear-gradient-2)"/><path d="M23.25,34.92l9-9a3.89,3.89,0,0,1,5.5-.23,2.5,2.5,0,0,1,.23.23l8.41,9Z" transform="translate(0 -0.04)" style="fill:url(#linear-gradient-3)"/></svg>