<svg id="Layer_1" data-name="Layer 1" xmlns="http://www.w3.org/2000/svg" xmlns:xlink="http://www.w3.org/1999/xlink" viewBox="0 0 71.94 60.39"><defs><linearGradient id="linear-gradient" x1="75.36" y1="1254.56" x2="40.41" y2="1194.04" gradientTransform="translate(-9.85 -1168.51)" gradientUnits="userSpaceOnUse"><stop offset="0" stop-color="#f05050"/><stop offset="0.49" stop-color="#e5512a"/><stop offset="1" stop-color="#ae3052"/></linearGradient><linearGradient id="linear-gradient-2" x1="162.58" y1="1045.91" x2="49.27" y2="1242.18" gradientTransform="translate(-9.89 -1168.51)" xlink:href="#linear-gradient"/><linearGradient id="linear-gradient-3" x1="66.98" y1="1160.31" x2="27.11" y2="1229.37" gradientTransform="translate(-9.89 -1168.51)" xlink:href="#linear-gradient"/><linearGradient id="linear-gradient-4" x1="26.07" y1="1167.56" x2="-9.49" y2="1229.15" xlink:href="#linear-gradient"/><linearGradient id="linear-gradient-5" x1="29.26" y1="1169.47" x2="-2.05" y2="1223.69" xlink:href="#linear-gradient"/><linearGradient id="linear-gradient-6" x1="33.72" y1="1169.57" x2="3.17" y2="1222.48" xlink:href="#linear-gradient"/><linearGradient id="linear-gradient-7" x1="37.32" y1="1169.39" x2="7.86" y2="1220.41" xlink:href="#linear-gradient"/></defs><title>3</title><rect x="27.73" y="54.99" width="41.34" height="2.87" style="fill:url(#linear-gradient)"/><path d="M67.55,52.39H29.11a4,4,0,0,0-4,4v4H71.9v-4A4.38,4.38,0,0,0,67.55,52.39ZM69,57.83H27.69V56.48a1.29,1.29,0,0,1,1.2-1.39.81.81,0,0,1,.22,0H67.55a1.31,1.31,0,0,1,1.39,1.22v.17L69,57.86Z" transform="translate(0.04)" style="fill:url(#linear-gradient-2)"/><path d="M33,34.39H35.9v4A2.94,2.94,0,0,0,33,41.26v3a2.93,2.93,0,0,0,2.87,2.87H60.73a2.93,2.93,0,0,0,2.86-2.87V41.39a2.92,2.92,0,0,0-2.86-2.87v-22a2.93,2.93,0,0,0,2.86-2.87V10.78a2.91,2.91,0,0,0-2.86-2.86H35.9A2.93,2.93,0,0,0,33,10.78v2.87a2.93,2.93,0,0,0,2.87,2.87v4H33a2.92,2.92,0,0,0-2.86,2.87H4a4,4,0,0,0-4,4,4.27,4.27,0,0,0,4,4H30.17A3,3,0,0,0,33,34.39Zm27.7,9.79H35.9V41.39H60.73ZM35.9,11.08H60.73V14H35.9Zm22,5.44v2.87H44.21v2.87H57.86v2.86H49.55V28h8.31V39.07H38.47v-22H57.86ZM33,23.39H35.9v8.3H33ZM4,29.08a1.39,1.39,0,0,1,0-2.77H30.16v2.87Z" transform="translate(0.04)" style="fill:url(#linear-gradient-3)"/><rect x="3.99" y="15.03" width="2.87" height="5.44" style="fill:url(#linear-gradient-4)"/><rect x="9.73" y="9.69" width="2.87" height="11.08" style="fill:url(#linear-gradient-5)"/><rect x="15.17" y="6.82" width="2.87" height="13.65" style="fill:url(#linear-gradient-6)"/><rect x="20.61" width="2.87" height="20.57" style="fill:url(#linear-gradient-7)"/></svg>