<svg id="Layer_1" data-name="Layer 1" xmlns="http://www.w3.org/2000/svg" xmlns:xlink="http://www.w3.org/1999/xlink" viewBox="0 0 77.73 65.65"><defs><linearGradient id="linear-gradient" x1="-591.64" y1="694.7" x2="-599.87" y2="708.94" gradientTransform="translate(930.89 -1013.55) scale(1.5)" gradientUnits="userSpaceOnUse"><stop offset="0" stop-color="#f05050"/><stop offset="0.49" stop-color="#e5512a"/><stop offset="1" stop-color="#ae3052"/></linearGradient><linearGradient id="linear-gradient-2" x1="-584.64" y1="676.64" x2="-611.77" y2="723.63" xlink:href="#linear-gradient"/><linearGradient id="linear-gradient-3" x1="-561.19" y1="614.1" x2="-717.3" y2="884.5" xlink:href="#linear-gradient"/><linearGradient id="linear-gradient-4" x1="-546.85" y1="593.34" x2="-702.96" y2="863.73" xlink:href="#linear-gradient"/><linearGradient id="linear-gradient-5" x1="-566.98" y1="622.68" x2="-660.34" y2="784.39" xlink:href="#linear-gradient"/><linearGradient id="linear-gradient-6" x1="-558.81" y1="612.43" x2="-652.17" y2="774.14" xlink:href="#linear-gradient"/><linearGradient id="linear-gradient-7" x1="-550.2" y1="601.68" x2="-643.57" y2="763.39" xlink:href="#linear-gradient"/><linearGradient id="linear-gradient-8" x1="-542.02" y1="591.45" x2="-635.38" y2="753.16" xlink:href="#linear-gradient"/></defs><title>4</title><path d="M41.89,49.43H32.82a1.4,1.4,0,0,1-1.49-1.3V30.06a1.41,1.41,0,0,1,1.33-1.49h9.23a1.41,1.41,0,0,1,1.49,1.33V48.06A1.37,1.37,0,0,1,42,49.43Z" transform="translate(0 0)" style="fill:url(#linear-gradient)"/><path d="M71.08,13.55H54V4.45A4.57,4.57,0,0,0,49.52,0H4.44A4.56,4.56,0,0,0,0,4.45V58.33a7.24,7.24,0,0,0,7.16,7.32H58.82A7.7,7.7,0,0,0,65.64,58V53.85h9.09a3,3,0,0,0,3-3h0V21.16A7.53,7.53,0,0,0,71.08,13.55ZM54,31.55h3v15H54ZM3.06,58.63v-54A1.4,1.4,0,0,1,4.38,3.15H49.62a1.4,1.4,0,0,1,1.49,1.3V58.53A7.28,7.28,0,0,0,52.59,63H7.41a4.21,4.21,0,0,1-4.35-4.07ZM62.77,20.85V57.94a4.79,4.79,0,0,1-4.15,4.74,5.19,5.19,0,0,1-3.56-1.19,4.74,4.74,0,0,1-1.48-3.26V49.14h3a3,3,0,0,0,3-3V31.24a3,3,0,0,0-3-3h-3v-3h5.93v-3H53.58V16.41H64.16A10,10,0,0,0,62.77,20.85ZM74.83,50.91H65.74V43.6h3v-3h-3v-3h3v-3h-3v-3h3v-3h-3V25.85h3v-3h-3v-1.5a4.6,4.6,0,0,1,9.2,0c0,.11,0,.21,0,.31Z" transform="translate(0 0)" style="fill:url(#linear-gradient-2)"/><rect x="7.42" y="16.51" width="35.89" height="2.97" style="fill:url(#linear-gradient-3)"/><rect x="7.42" y="22.64" width="35.89" height="2.97" style="fill:url(#linear-gradient-4)"/><rect x="7.42" y="28.57" width="19.48" height="2.97" style="fill:url(#linear-gradient-5)"/><rect x="7.42" y="34.4" width="19.48" height="2.97" style="fill:url(#linear-gradient-6)"/><rect x="7.42" y="40.63" width="19.48" height="2.97" style="fill:url(#linear-gradient-7)"/><rect x="7.42" y="46.56" width="19.48" height="2.97" style="fill:url(#linear-gradient-8)"/></svg>