<svg id="Layer_1" data-name="Layer 1" xmlns="http://www.w3.org/2000/svg" xmlns:xlink="http://www.w3.org/1999/xlink" viewBox="0 0 78 66.01"><defs><linearGradient id="linear-gradient" x1="-492.63" y1="725.99" x2="-517.07" y2="768.31" gradientTransform="translate(791.98 -1094.63) scale(1.5)" gradientUnits="userSpaceOnUse"><stop offset="0" stop-color="#f05050"/><stop offset="0.49" stop-color="#e5512a"/><stop offset="1" stop-color="#ae3052"/></linearGradient><linearGradient id="linear-gradient-2" x1="-483.65" y1="748.4" x2="-494.04" y2="766.38" xlink:href="#linear-gradient"/><linearGradient id="linear-gradient-3" x1="-484.97" y1="735.35" x2="-489.36" y2="742.95" xlink:href="#linear-gradient"/><linearGradient id="linear-gradient-4" x1="-513.47" y1="727.48" x2="-544.5" y2="781.22" xlink:href="#linear-gradient"/></defs><title>5</title><path d="M37.35,66C26.88,66,0,45.55,0,19.56A19.6,19.6,0,0,1,37.63,12a19.6,19.6,0,0,1,37.64,7.61,44.52,44.52,0,0,1-1.48,10.77l-3-.89a38.48,38.48,0,0,0,1.48-9.88,16.31,16.31,0,0,0-32.61,0h-3A16.36,16.36,0,0,0,4,19.56C4,44.36,30.23,63,38.44,63c2.37,0,6.71-1.78,11.06-4.64l1.88,2.37C45,63.93,40.31,66,37.35,66Z" transform="translate(0.02 0.01)" style="fill:url(#linear-gradient)"/><path d="M55,54.05a4.34,4.34,0,0,1-4.35-3.26l-3.3-11.07L46.44,43a2.94,2.94,0,0,1-3,2.08H37.05v-3h6.43l1.18-3.26a3,3,0,0,1,3-2.07,3.23,3.23,0,0,1,3,2.07l3.16,11.07a1.52,1.52,0,0,0,3,0l4.34-18.09a3.5,3.5,0,0,1,3.46-3,3.64,3.64,0,0,1,3.76,2.67L71.64,42H78v3H71.54a3.25,3.25,0,0,1-3-2.08L65.31,32.51c-.29-.6-.59-.6-.89-.6s-.59,0-.59.6L59.48,50.59A4.6,4.6,0,0,1,55,54.05Z" transform="translate(0.02 0.01)" style="fill:url(#linear-gradient-2)"/><path d="M55.23,6.12A13.59,13.59,0,0,1,68.67,19.56H55.23Z" transform="translate(0.02 0.01)" style="fill:url(#linear-gradient-3)"/><path d="M8.79,19.56h-3A13.6,13.6,0,0,1,19.27,6.12v3A10.43,10.43,0,0,0,8.79,19.48Z" transform="translate(0.02 0.01)" style="fill:url(#linear-gradient-4)"/></svg>