<svg id="Layer_1" data-name="Layer 1" xmlns="http://www.w3.org/2000/svg" xmlns:xlink="http://www.w3.org/1999/xlink" viewBox="0 0 76.29 76.02"><defs><linearGradient id="linear-gradient" x1="-484.54" y1="741" x2="-488.16" y2="747.26" gradientTransform="translate(791.69 -1086.94) scale(1.5)" gradientUnits="userSpaceOnUse"><stop offset="0" stop-color="#f05050"/><stop offset="0.49" stop-color="#e5512a"/><stop offset="1" stop-color="#ae3052"/></linearGradient><linearGradient id="linear-gradient-2" x1="-493.18" y1="731.63" x2="-496.84" y2="737.97" xlink:href="#linear-gradient"/><linearGradient id="linear-gradient-3" x1="-506.19" y1="730.78" x2="-509.9" y2="737.21" xlink:href="#linear-gradient"/><linearGradient id="linear-gradient-4" x1="-515.63" y1="740.21" x2="-519.31" y2="746.59" xlink:href="#linear-gradient"/><linearGradient id="linear-gradient-5" x1="-515.62" y1="752.26" x2="-519.33" y2="758.68" xlink:href="#linear-gradient"/><linearGradient id="linear-gradient-6" x1="-490.59" y1="727.02" x2="-516.29" y2="771.54" gradientTransform="translate(791.55 -1086.96) scale(1.5)" xlink:href="#linear-gradient"/></defs><title>6</title><circle cx="62.1" cy="29.35" r="5.54" style="fill:url(#linear-gradient)"/><circle cx="49.15" cy="15.31" r="5.54" style="fill:url(#linear-gradient-2)"/><circle cx="29.57" cy="14.13" r="5.54" style="fill:url(#linear-gradient-3)"/><circle cx="15.43" cy="28.26" r="5.54" style="fill:url(#linear-gradient-4)"/><circle cx="15.43" cy="46.36" r="5.54" style="fill:url(#linear-gradient-5)"/><path d="M35,50.49A8.51,8.51,0,1,0,43.47,59h0A8.57,8.57,0,0,0,35,50.49Zm0,14A5.52,5.52,0,0,1,29.43,59v0A5.79,5.79,0,0,1,35,53.44a5.54,5.54,0,0,1,0,11.07ZM64.05,10.35A37.34,37.34,0,0,0,35.56.07,38,38,0,0,0,37.93,76a14.23,14.23,0,0,0,14-14V59A11.17,11.17,0,0,1,63.09,47.82h3.06a10,10,0,0,0,10-10A38.37,38.37,0,0,0,64.05,10.35Zm2,34.6h-3a14.23,14.23,0,0,0-14,14v3A11.16,11.16,0,0,1,37.86,73.13h0A33.77,33.77,0,0,1,12.33,62a34.66,34.66,0,0,1-9.4-26.4A35.31,35.31,0,0,1,35.76,2.73h2.37a33.45,33.45,0,0,1,24,9.69,35.32,35.32,0,0,1,11.2,25.51A7.53,7.53,0,0,1,66.05,45Z" transform="translate(0.14 0.02)" style="fill:url(#linear-gradient-6)"/></svg>