<svg id="Layer_1" data-name="Layer 1" xmlns="http://www.w3.org/2000/svg" xmlns:xlink="http://www.w3.org/1999/xlink" viewBox="0 0 72.84 78.67"><defs><linearGradient id="linear-gradient" x1="-580.45" y1="671.86" x2="-610.63" y2="724.14" gradientTransform="translate(929.47 -1007.57) scale(1.5)" gradientUnits="userSpaceOnUse"><stop offset="0" stop-color="#f05050"/><stop offset="0.49" stop-color="#e5512a"/><stop offset="1" stop-color="#ae3052"/></linearGradient><linearGradient id="linear-gradient-2" x1="-577.35" y1="678.5" x2="-581" y2="684.82" xlink:href="#linear-gradient"/><linearGradient id="linear-gradient-3" x1="-609.82" y1="678.51" x2="-613.47" y2="684.83" xlink:href="#linear-gradient"/><linearGradient id="linear-gradient-4" x1="-577.09" y1="710.52" x2="-581.03" y2="717.35" xlink:href="#linear-gradient"/><linearGradient id="linear-gradient-5" x1="-609.56" y1="710.53" x2="-613.5" y2="717.36" xlink:href="#linear-gradient"/><linearGradient id="linear-gradient-6" x1="-591.29" y1="691.07" x2="-599.02" y2="704.46" xlink:href="#linear-gradient"/></defs><title>7</title><path d="M60.78,53.07a9.85,9.85,0,0,0-6.31,2.17l-1.89-1.91c3.06-3.26,4.64-7.7,5.23-12.35h3.27a5.89,5.89,0,0,0,5.73,4.65,6,6,0,0,0,0-12.06,5.72,5.72,0,0,0-5.73,4.65H57.81a20,20,0,0,0-5.23-12.36L54.47,24a9.74,9.74,0,0,0,6.32,2.18A10.77,10.77,0,1,0,50,15.42h0a9.8,9.8,0,0,0,2.17,6.32L50.3,23.62C47,20.56,42.6,19,38,18.38V15.12A7.65,7.65,0,0,0,36.27,0a7.48,7.48,0,0,0-7.71,7.24v.47a7.65,7.65,0,0,0,6,7.41v3.26a21.39,21.39,0,0,0-13.24,5.73l-1.85-1.87a10.7,10.7,0,0,0-8-17.91A10.52,10.52,0,0,0,.8,14.7v.42A10.61,10.61,0,0,0,11.25,25.89h.32a10.26,10.26,0,0,0,5.53-1.68l2.18,2.18A21.31,21.31,0,0,0,14.83,38H11.77A5.9,5.9,0,0,0,6,33.33,6,6,0,0,0,6,45.39a5.74,5.74,0,0,0,5.74-4.65H15a20.49,20.49,0,0,0,4.44,11.53L17.3,54.45a13.34,13.34,0,0,0-5.53-1.68A10.79,10.79,0,0,0,1,63.54a10.55,10.55,0,0,0,10.3,10.79h.48a10.7,10.7,0,0,0,8-17.88l1.88-1.88a20.62,20.62,0,0,0,13.24,5.76v3.26a7.65,7.65,0,0,0,1.68,15.07,7.48,7.48,0,0,0,7.71-7.24V71a7.65,7.65,0,0,0-6-7.41V60.33a20,20,0,0,0,12.35-5.24l1.84,1.83a9.87,9.87,0,0,0-2.18,6.32A10.81,10.81,0,0,0,61.08,74,10.56,10.56,0,0,0,71.85,63.67v-.43C71.85,57.12,66.61,53.07,60.78,53.07Zm6.13-16.8a3.06,3.06,0,1,1-3.07,3.06A3.06,3.06,0,0,1,66.91,36.27ZM6,42.39A3.06,3.06,0,1,1,9.1,39.33,3.06,3.06,0,0,1,6,42.39Zm54.75-35A7.66,7.66,0,0,1,68.47,15v.1a7.71,7.71,0,0,1-15.42,0h0a7.72,7.72,0,0,1,7.73-7.71h0Zm-28.86,0a4.58,4.58,0,0,1,4.54-4.62h.11a4.4,4.4,0,0,1,4.64,4.15,4,4,0,0,1,0,.49,4.41,4.41,0,0,1-4.16,4.65h-.48a4.65,4.65,0,0,1-4.65-4.65ZM4.35,14.82a7.71,7.71,0,1,1,15.42,0,7.48,7.48,0,0,1-7.24,7.71h-.47A7.72,7.72,0,0,1,4.35,14.82Zm7.71,56.43a7.66,7.66,0,0,1-7.71-7.61v-.1a7.48,7.48,0,0,1,7.24-7.71h.47a7.71,7.71,0,0,1,0,15.42Zm6.13-31.92a18.14,18.14,0,0,1,36.28,0,18.14,18.14,0,1,1-36.27.85c0-.28,0-.57,0-.85ZM41,71.25a4.58,4.58,0,0,1-4.5,4.64h-.14a4.65,4.65,0,0,1-.43-9.29h.43A4.64,4.64,0,0,1,41,71.24Zm19.77,0a7.66,7.66,0,0,1-7.71-7.61v-.1a7.71,7.71,0,0,1,15.42,0h0a7.66,7.66,0,0,1-7.61,7.71Z" transform="translate(0 0)" style="fill:url(#linear-gradient)"/><circle cx="60.77" cy="14.82" r="4.64" style="fill:url(#linear-gradient-2)"/><circle cx="12.06" cy="14.82" r="4.65" style="fill:url(#linear-gradient-3)"/><circle cx="60.77" cy="63.54" r="4.64" style="fill:url(#linear-gradient-4)"/><circle cx="12.06" cy="63.54" r="4.64" style="fill:url(#linear-gradient-5)"/><path d="M42.69,34.69V31.62H38.05V28.56H35v3.06H33.6a3.08,3.08,0,0,0-3.06,3.07v3.06a3.07,3.07,0,0,0,3.06,3.06h6v3.06H30.54v3.07h4.65V50h3.06V46.94h1.38a3.07,3.07,0,0,0,3.06-3.06V40.81a3.07,3.07,0,0,0-3.06-3.06h-6V34.69Z" transform="translate(0 0)" style="fill:url(#linear-gradient-6)"/></svg>