<svg id="Layer_1" data-name="Layer 1" xmlns="http://www.w3.org/2000/svg" xmlns:xlink="http://www.w3.org/1999/xlink" viewBox="0 0 73.82 73.79"><defs><linearGradient id="linear-gradient" x1="62.8" y1="-690.11" x2="27.26" y2="-751.67" gradientTransform="matrix(1, 0, 0, -1, -7.98, -683.88)" gradientUnits="userSpaceOnUse"><stop offset="0" stop-color="#f05050"/><stop offset="0.49" stop-color="#e5512a"/><stop offset="1" stop-color="#ae3052"/></linearGradient><linearGradient id="linear-gradient-2" x1="47.59" y1="-715.97" x2="41.9" y2="-725.82" gradientTransform="matrix(1, 0, 0, -1, -8, -683.9)" xlink:href="#linear-gradient"/><linearGradient id="linear-gradient-3" x1="61.13" y1="-692.7" x2="28.55" y2="-749.14" xlink:href="#linear-gradient"/></defs><title>8</title><path d="M52.26,36.92C61,26.53,67.41,15,63,10.89c-4.15-4.16-15.74,2-26,10.69C26.46,12.77,15,6.34,10.72,10.79c-4.15,4.16,2,15.74,10.69,26-8.71,10.49-15.14,22-10.69,26.13a5.79,5.79,0,0,0,4,1.39C20.36,64.31,29,59,37.19,52.23,45.24,59,53.94,64.34,59.59,64.34a6.58,6.58,0,0,0,4-1.39C67.41,58.79,61,47.31,52.26,36.92ZM61,61c-2,2-10.39-.79-21.87-10.69,1.09-.79,2-2,3.07-2.77l-2-2c-1.09,1.09-2.28,2-3.37,3.07a26,26,0,0,1-3.07-2.77l-2,2c.8.79,2,1.68,2.78,2.47C23,59.78,14.65,62.85,12.67,61s.79-10.39,10.69-21.87c.79,1.09,2,2,2.77,3.06l2-2c-1.09-1.08-2-2.27-3.07-3.36a31.63,31.63,0,0,1,3.07-3.37l-2-2c-.79,1.09-2,2-2.77,3.07-9.5-11.38-12.67-19.79-10.69-21.77s10.4.79,21.88,10.69c-.79.79-2,1.68-2.77,2.47l2,2c1.09-.79,2-2,3.06-2.77a31.63,31.63,0,0,1,3.37,3.07l2-2c-1.09-.79-2-2-3.07-2.77C50.58,14,59,10.89,61,12.77s-.79,10.39-10.69,21.87c-.79-1.09-2-2-2.77-3.06l-2,2c1.09,1.09,2,2.27,3.07,3.36a31.63,31.63,0,0,1-3.07,3.37l2,2c.8-1.09,2-2,2.77-3.07C60.08,50.68,62.85,59.09,61,61Z" transform="translate(-0.02 -0.02)" style="fill:url(#linear-gradient)"/><circle cx="36.8" cy="36.9" r="5.64" style="fill:url(#linear-gradient-2)"/><path d="M73.84,36.92c0-5.84-12.07-9.5-26-10.89C46.42,12,42.76,0,36.92,0S27.42,12.08,26,26c-14,1.4-26,5.06-26,10.9s12.08,9.5,26,10.89c1.39,14,5.05,26,10.89,26s9.5-12.08,10.89-26C61.77,46.42,73.84,42.76,73.84,36.92Zm-37-34.25c2.77,0,6.73,8.42,8.12,23a68.8,68.8,0,0,0-8.12-.3,73.2,73.2,0,0,0-8.11.3c1.66-14.58,5.29-23,8.09-23Zm8.69,34.25a73,73,0,0,1-.29,8.1,73.37,73.37,0,0,1-8.12.29A73,73,0,0,1,29,45a73.37,73.37,0,0,1-.29-8.12A73,73,0,0,1,29,28.8a73.37,73.37,0,0,1,8.12-.29,73.37,73.37,0,0,1,8.12.29C45.24,31,45.53,33.85,45.53,36.92Zm-42.66,0c0-2.77,8.42-6.73,23-8.12a68.8,68.8,0,0,0-.3,8.12,73.38,73.38,0,0,0,.3,8.12C11.29,43.65,2.87,39.69,2.87,36.92Zm34,34c-2.77,0-6.73-8.41-8.11-23a73.19,73.19,0,0,0,8.11.29,75.89,75.89,0,0,0,8.12-.29C43.55,62.46,39.89,70.87,36.82,70.87ZM48,44.74a73.37,73.37,0,0,0,.29-8.12A75.71,75.71,0,0,0,48,28.51c14.55,1.38,23,5,23,8.11S62.66,43.65,48,44.74Z" transform="translate(-0.02 -0.02)" style="fill:url(#linear-gradient-3)"/></svg>