<svg id="Layer_1" data-name="Layer 1" xmlns="http://www.w3.org/2000/svg" xmlns:xlink="http://www.w3.org/1999/xlink" viewBox="0 0 78.24 77.58"><defs><linearGradient id="linear-gradient" x1="23.76" y1="-688.16" x2="17.62" y2="-698.8" gradientTransform="matrix(1, 0, 0, -1, -5.88, -678.13)" gradientUnits="userSpaceOnUse"><stop offset="0" stop-color="#f05050"/><stop offset="0.49" stop-color="#e5512a"/><stop offset="1" stop-color="#ae3052"/></linearGradient><linearGradient id="linear-gradient-2" x1="67.34" y1="-671.29" x2="18.29" y2="-756.25" xlink:href="#linear-gradient"/><linearGradient id="linear-gradient-3" x1="61.67" y1="-675.95" x2="28.18" y2="-733.97" xlink:href="#linear-gradient"/><linearGradient id="linear-gradient-4" x1="53.24" y1="-692.3" x2="38.51" y2="-717.81" xlink:href="#linear-gradient"/><linearGradient id="linear-gradient-5" x1="73.29" y1="-726.51" x2="70.49" y2="-731.35" gradientTransform="matrix(1, 0, 0, -1, -5.88, -678.12)" xlink:href="#linear-gradient"/><linearGradient id="linear-gradient-6" x1="64.14" y1="-726.61" x2="61.35" y2="-731.45" gradientTransform="matrix(1, 0, 0, -1, -5.88, -678.12)" xlink:href="#linear-gradient"/></defs><title>9</title><path d="M12.05,20.84v-7.6a1.41,1.41,0,0,1,1.35-1.47h7.72Z" transform="translate(0 0)" style="fill:url(#linear-gradient)"/><path d="M71.92,0H5.83A5.84,5.84,0,0,0,0,5.83V50.77A5.84,5.84,0,0,0,5.83,56.6h24.1V67.17a1.4,1.4,0,0,1-1.32,1.48h-6a4.56,4.56,0,0,0-4.44,4.45v1.48H10.57v3h57.2v-3H60.12V73.1a4.56,4.56,0,0,0-4.44-4.45H49.79a1.4,1.4,0,0,1-1.48-1.32V56.7h24.1a5.84,5.84,0,0,0,5.83-5.83V5.93A6.24,6.24,0,0,0,71.92,0ZM52.55,71.62h3A1.4,1.4,0,0,1,57,72.94v1.64H21.12V73.1a1.4,1.4,0,0,1,1.32-1.48H52.55Zm-7-2.87H32.9a2.81,2.81,0,0,0,.29-1.48V56.7h12V67.27a2.2,2.2,0,0,0,.35,1.5Zm29.62-18a3,3,0,0,1-3,3h-66a3,3,0,0,1-3-3V5.93a3,3,0,0,1,3-3H72.21a3,3,0,0,1,3,3V50.77Z" transform="translate(0 0)" style="fill:url(#linear-gradient-2)"/><path d="M69,5.93H9.12a3,3,0,0,0-3,3V44.77a3,3,0,0,0,3,3H69a3,3,0,0,0,3-3v-36A2.88,2.88,0,0,0,69,5.93Zm0,39H9.12V9.09H69Z" transform="translate(0 0)" style="fill:url(#linear-gradient-3)"/><path d="M33.19,38.77H45.05a4.55,4.55,0,0,0,4.44-4.44v-4.8a4.43,4.43,0,0,0,3-4.15V19.56a4.56,4.56,0,0,0-4.44-4.45H42.18a4.19,4.19,0,0,0-4.15,3H33.19a4.55,4.55,0,0,0-4.44,4.44V34.37C28.45,36.77,30.53,38.77,33.19,38.77Zm13.44-4.34a1.41,1.41,0,0,1-1.39,1.43H40.7V30h5.83l.1,4.35ZM42,17.93h5.83a1.4,1.4,0,0,1,1.48,1.32v6A1.4,1.4,0,0,1,48,26.72H40.21V19.06A2.42,2.42,0,0,1,42,17.88ZM31.71,22.32A1.4,1.4,0,0,1,33,20.84h4.61v5.83H31.81Zm5.83,7.61v5.84H33.19a1.4,1.4,0,0,1-1.48-1.32V29.83Z" transform="translate(0 0)" style="fill:url(#linear-gradient-4)"/><rect x="63.12" y="49.29" width="5.83" height="2.96" style="fill:url(#linear-gradient-5)"/><rect x="54.03" y="49.29" width="5.83" height="2.96" style="fill:url(#linear-gradient-6)"/></svg>