<?xml version="1.0" encoding="iso-8859-1"?>
<!-- Generator: Adobe Illustrator 20.1.0, SVG Export Plug-In . SVG Version: 6.00 Build 0)  -->
<svg version="1.1" id="Layer_2" xmlns="http://www.w3.org/2000/svg" xmlns:xlink="http://www.w3.org/1999/xlink" x="0px" y="0px"
	 viewBox="0 0 20 20" style="enable-background:new 0 0 20 20;" xml:space="preserve">
<g>
	<path style="fill:#F05050;" d="M10,1c-4.966,0-9,4.034-9,9s4.034,9,9,9s9-4.034,9-9S14.966,1,10,1L10,1z M9.609,1.828v3.467h-2.8
		C6.956,4.86,7.123,4.455,7.307,4.088C7.951,2.8,8.767,2.016,9.609,1.828L9.609,1.828z M10.391,1.828
		c0.842,0.187,1.658,0.971,2.302,2.259c0.184,0.367,0.351,0.772,0.498,1.208h-2.8V1.828z M7.723,2.104
		C7.302,2.546,6.925,3.1,6.607,3.738C6.37,4.21,6.166,4.735,5.988,5.296H3.265C4.33,3.774,5.893,2.629,7.723,2.104L7.723,2.104z
		 M12.277,2.104c1.83,0.526,3.394,1.67,4.458,3.192h-2.723c-0.177-0.561-0.382-1.086-0.618-1.558
		C13.075,3.1,12.698,2.546,12.277,2.104L12.277,2.104z M2.766,6.095h2.997c-0.265,1.071-0.42,2.259-0.448,3.513H1.795
		C1.854,8.341,2.197,7.148,2.766,6.095L2.766,6.095z M6.571,6.095h3.037v3.513h-3.51C6.129,8.342,6.295,7.148,6.571,6.095
		L6.571,6.095z M10.391,6.095h3.037c0.277,1.052,0.442,2.247,0.472,3.513h-3.51V6.095z M14.236,6.095h2.997
		c0.569,1.053,0.912,2.246,0.971,3.513h-3.521C14.656,8.355,14.502,7.167,14.236,6.095L14.236,6.095z M1.799,10.391h3.516
		c0.027,1.255,0.184,2.441,0.449,3.513H2.767C2.198,12.852,1.858,11.659,1.799,10.391L1.799,10.391z M6.097,10.391h3.512v3.513
		H6.571C6.294,12.852,6.126,11.659,6.097,10.391L6.097,10.391z M10.391,10.391h3.512c-0.029,1.268-0.197,2.461-0.475,3.513h-3.037
		V10.391z M14.686,10.391h3.516c-0.06,1.268-0.399,2.461-0.968,3.513h-2.997C14.502,12.833,14.658,11.646,14.686,10.391
		L14.686,10.391z M3.268,14.704h2.721c0.177,0.561,0.382,1.086,0.618,1.558c0.319,0.638,0.695,1.191,1.116,1.634
		C5.894,17.371,4.332,16.225,3.268,14.704L3.268,14.704z M6.808,14.704h2.8v3.467c-0.842-0.187-1.658-0.971-2.302-2.259
		C7.123,15.545,6.956,15.14,6.808,14.704L6.808,14.704z M10.391,14.704h2.8c-0.148,0.436-0.315,0.841-0.498,1.208
		c-0.644,1.288-1.46,2.072-2.302,2.259V14.704z M14.012,14.704h2.721c-1.064,1.52-2.626,2.667-4.456,3.192
		c0.422-0.443,0.798-0.997,1.116-1.634C13.63,15.79,13.834,15.265,14.012,14.704L14.012,14.704z"/>
</g>
</svg>
