<?xml version="1.0" encoding="iso-8859-1"?>
<!-- Generator: Adobe Illustrator 20.1.0, SVG Export Plug-In . SVG Version: 6.00 Build 0)  -->
<svg version="1.1" id="Layer_2" xmlns="http://www.w3.org/2000/svg" xmlns:xlink="http://www.w3.org/1999/xlink" x="0px" y="0px"
	 viewBox="0 0 20 20" style="enable-background:new 0 0 20 20;" xml:space="preserve">
<g>
	<path style="fill:#F05050;" d="M1,4.24v11.52c0,0.398,0.322,0.72,0.72,0.72h16.56c0.398,0,0.72-0.322,0.72-0.72V4.24
		c0-0.398-0.322-0.72-0.72-0.72H1.72C1.322,3.52,1,3.842,1,4.24z M2.44,4.24h15.12c0.398,0,0.72,0.322,0.72,0.72v0.181
		c-0.153,0.134-6.548,5.706-7.079,6.169C10.734,11.718,10.259,11.8,10,11.8c-0.257,0-0.734-0.082-1.201-0.489
		C8.268,10.848,1.873,5.275,1.72,5.141l0-0.181C1.72,4.562,2.042,4.24,2.44,4.24z M1.72,6.095c0.878,0.765,6.109,5.324,6.608,5.759
		C8.94,12.386,9.588,12.52,10,12.52c0.412,0,1.06-0.134,1.672-0.667c0.499-0.435,5.73-4.994,6.608-5.759v8.945
		c0,0.398-0.322,0.72-0.72,0.72H2.44c-0.398,0-0.72-0.322-0.72-0.72L1.72,6.095z"/>
</g>
</svg>
