<?xml version="1.0" encoding="iso-8859-1"?>
<!-- Generator: Adobe Illustrator 20.1.0, SVG Export Plug-In . SVG Version: 6.00 Build 0)  -->
<svg version="1.1" id="Layer_2" xmlns="http://www.w3.org/2000/svg" xmlns:xlink="http://www.w3.org/1999/xlink" x="0px" y="0px"
	 viewBox="0 0 20 20" style="enable-background:new 0 0 20 20;" xml:space="preserve">
<g>
	<g>
		<defs>
			<rect id="SVGID_1_" x="1" y="0.55" width="18" height="18.9"/>
		</defs>
		<clipPath id="SVGID_2_">
			<use xlink:href="#SVGID_1_"  style="overflow:visible;"/>
		</clipPath>
		<path style="clip-path:url(#SVGID_2_);fill:#F05050;" d="M17.2,0.55c-0.719,0-1.336,0.431-1.622,1.046
			c-0.721-0.394-1.521-0.593-2.322-0.593c-1.24,0-2.48,0.472-3.424,1.416l-2.07,2.07l0.042-0.017
			C7.777,4.495,7.77,4.501,7.749,4.519l0.012-0.03C7.514,4.737,6.656,5.114,5.686,5.386C4.717,5.658,3.623,5.874,2.793,6.027
			C2.371,6.104,1.911,6.199,1.548,6.561C1.49,6.619,1.504,6.61,1.51,6.608C1.51,6.605,1.528,6.584,1.468,6.641L1.465,6.644
			L1.462,6.647C1.37,6.739,1.364,6.8,1.355,6.841C0.8,7.666,0.94,8.834,1.503,10.113c0.587,1.332,1.657,2.839,3.151,4.332
			c0.259,0.259,0.518,0.501,0.777,0.734C4.677,15.544,4.15,16.311,4.15,17.2c0,1.237,1.013,2.25,2.25,2.25
			c1.16,0,2.122-0.889,2.238-2.02c0.117,0.057,0.234,0.116,0.348,0.166c1.294,0.57,2.478,0.712,3.304,0.132
			c0.045-0.013,0.088-0.016,0.162-0.09c0.064-0.064,0.041-0.046,0.037-0.046c-0.006,0.009-0.011,0.019,0.05-0.041
			c0.362-0.362,0.457-0.822,0.534-1.245v-0.001c0.152-0.83,0.369-1.924,0.64-2.893c0.272-0.969,0.648-1.826,0.897-2.074
			c0,0,0.001-0.002,0.002-0.002c0,0,0.002-0.003,0.003-0.003l2.065-2.066c1.409-1.407,1.766-3.474,1.074-5.217
			C18.472,3.814,19,3.145,19,2.35C19,1.361,18.189,0.55,17.2,0.55L17.2,0.55z M17.2,1.45c0.502,0,0.9,0.398,0.9,0.9
			c0,0.455-0.33,0.819-0.766,0.883c-0.185-0.289-0.401-0.563-0.653-0.814c-0.11-0.11-0.224-0.212-0.341-0.308
			C16.445,1.729,16.783,1.45,17.2,1.45L17.2,1.45z M13.256,1.896c1.008,0,2.017,0.386,2.789,1.158
			c1.543,1.544,1.544,4.033-0.001,5.576L13.975,10.7l-0.001,0.002l-0.001,0.001c-0.541,0.541-0.841,1.45-1.126,2.468
			c-0.285,1.018-0.505,2.132-0.659,2.973h-0.001v0.001c-0.071,0.391-0.148,0.633-0.284,0.77c0.04-0.04,0.011-0.015-0.033,0.024
			l-0.002,0.001c-0.008,0.007,0.005-0.006-0.005,0.004l-0.047,0.035c-0.401,0.311-1.278,0.318-2.467-0.206
			c-1.189-0.523-2.628-1.532-4.059-2.964v-0.001C3.86,12.377,2.851,10.94,2.327,9.75C1.803,8.561,1.81,7.684,2.121,7.282
			l0.031-0.039L2.152,7.24l0.004-0.004c0.07-0.076,0.08-0.09,0.029-0.04c0.136-0.136,0.379-0.213,0.771-0.285
			C3.797,6.758,4.911,6.538,5.93,6.252c0.917-0.257,1.706-0.549,2.257-0.995h0.079l0.132-0.132L8.53,4.994l1.939-1.939
			C11.24,2.283,12.248,1.896,13.256,1.896L13.256,1.896z M13.15,3.25c-0.511,0-1.318,0.217-2.121,1.034
			c-0.545,0.555-1.794,1.831-2.233,2.235c-0.194,0.178-0.94,0.496-1.721,0.72c-0.78,0.224-1.613,0.403-2.128,0.523
			C4.701,7.815,4.546,8.06,4.604,8.305C4.662,8.55,4.909,8.7,5.153,8.638c0.498-0.116,1.349-0.3,2.17-0.535
			c0.821-0.236,1.593-0.474,2.081-0.922c0.505-0.464,1.724-1.714,2.267-2.265c0.65-0.662,1.217-0.766,1.479-0.766
			c0.251,0.004,0.456-0.199,0.456-0.45S13.401,3.246,13.15,3.25L13.15,3.25z M8.325,5.171C8.308,5.186,8.281,5.21,8.281,5.21
			S8.259,5.217,8.243,5.222C8.266,5.203,8.303,5.192,8.325,5.171L8.325,5.171z M6.237,15.867c0.502,0.403,0.997,0.753,1.48,1.05
			c0.02,0.091,0.033,0.185,0.033,0.283c0,0.751-0.599,1.35-1.35,1.35c-0.751,0-1.35-0.599-1.35-1.35
			C5.05,16.505,5.565,15.947,6.237,15.867L6.237,15.867z"/>
	</g>
</g>
</svg>
