<?xml version="1.0" encoding="iso-8859-1"?>
<!-- Generator: Adobe Illustrator 20.1.0, SVG Export Plug-In . SVG Version: 6.00 Build 0)  -->
<svg version="1.1" id="Layer_2" xmlns="http://www.w3.org/2000/svg" xmlns:xlink="http://www.w3.org/1999/xlink" x="0px" y="0px"
	 viewBox="0 0 20 20" style="enable-background:new 0 0 20 20;" xml:space="preserve">
<path d="M10,1c3.479,0,6.299,2.821,6.299,6.3c0,3.383,0.319,4.446,2.436,6.564c0.567,0.567,0.166,1.536-0.636,1.536h-4.994
	l0.045,0.45c0,1.74-1.41,3.15-3.149,3.15S6.85,17.59,6.85,15.85l0.045-0.45H1.902c-0.802,0-1.203-0.969-0.636-1.536
	c1.183-1.183,1.824-2.181,2.136-3.222c0.251-0.836,0.3-1.517,0.3-3.341C3.701,3.821,6.521,1,10,1z"/>
</svg>
