<svg id="Layer_1" data-name="Layer 1" xmlns="http://www.w3.org/2000/svg" viewBox="0 0 100 95.36">
  <title>star icon</title>
  <path d="M20.63,3.9a2.64,2.64,0,0,0-2,4.19l2.8,3.85a2.64,2.64,0,1,0,4.27-3.1L22.85,5A2.61,2.61,0,0,0,20.63,3.9Zm58.73,0A2.65,2.65,0,0,0,77.13,5l-2.8,3.86A2.64,2.64,0,1,0,78.6,12L81.4,8.1a2.63,2.63,0,0,0-.58-3.68A2.6,2.6,0,0,0,79.36,3.92ZM50,6a1.28,1.28,0,0,0-1.18.74L39,26.58a6.57,6.57,0,0,1-5,3.61L12.19,33.37a1.29,1.29,0,0,0-1.07.9,1.3,1.3,0,0,0,.34,1.35L27.29,51.05a6.64,6.64,0,0,1,1.9,5.84L25.45,78.68A1.27,1.27,0,0,0,26,80a1.29,1.29,0,0,0,1.39.1L46.93,69.78a6.58,6.58,0,0,1,6.14,0L72.64,80.07A1.27,1.27,0,0,0,74,80a1.29,1.29,0,0,0,.53-1.29L70.82,56.89a6.6,6.6,0,0,1,1.89-5.84L88.55,35.62a1.32,1.32,0,0,0-.74-2.25L65.93,30.19a6.59,6.59,0,0,1-5-3.61L51.18,6.76A1.27,1.27,0,0,0,50,6ZM7.14,58.1a3.11,3.11,0,0,0-.79.13L1.82,59.7a2.64,2.64,0,0,0,.82,5.15,2.54,2.54,0,0,0,.81-.13L8,63.25a2.64,2.64,0,0,0-.84-5.15Zm85.72,0A2.64,2.64,0,0,0,92,63.26l4.53,1.47a2.54,2.54,0,0,0,.81.13,2.64,2.64,0,0,0,.82-5.15l-4.53-1.47A2.42,2.42,0,0,0,92.86,58.11ZM50,89.22a2.64,2.64,0,0,0-2.64,2.63v4.77a2.64,2.64,0,0,0,5.28,0V91.85A2.64,2.64,0,0,0,50,89.22Z" transform="translate(0 -3.9)" style="fill: #fff"/>
</svg>
