<svg id="Layer_1" data-name="Layer 1" xmlns="http://www.w3.org/2000/svg" xmlns:xlink="http://www.w3.org/1999/xlink" viewBox="0 0 188 99.5"><defs><linearGradient id="linear-gradient" x1="-658.42" y1="2034.01" x2="-488.69" y2="2034.01" gradientTransform="translate(671.11 -1916.03)" gradientUnits="userSpaceOnUse"><stop offset="0" stop-color="#f05050"/><stop offset="0.28" stop-color="#ec4f4f"/><stop offset="0.56" stop-color="#e04b4b"/><stop offset="0.84" stop-color="#c44"/><stop offset="1" stop-color="#bd3f3f"/></linearGradient><linearGradient id="linear-gradient-2" x1="-651.73" y1="2050.97" x2="-482" y2="2050.97" gradientTransform="translate(657.73 -1949.94)" xlink:href="#linear-gradient"/><radialGradient id="radial-gradient" cx="221.44" cy="-60.32" r="23.65" gradientTransform="translate(-20.96 123.89) scale(0.88)" gradientUnits="userSpaceOnUse"><stop offset="0" stop-color="#636363"/><stop offset="0.28" stop-color="#5f6060"/><stop offset="0.54" stop-color="#545555"/><stop offset="0.79" stop-color="#424344"/><stop offset="1" stop-color="#2c2e2f"/></radialGradient></defs><title>EMPTY POST</title><rect x="12.69" y="86.22" width="169.73" height="63.53" rx="6" ry="6" transform="translate(189.11 185.72) rotate(180)" style="opacity:0.2;fill:url(#linear-gradient)"/><rect x="6" y="64.51" width="169.73" height="73.04" rx="6" ry="6" transform="translate(175.73 151.81) rotate(180)" style="opacity:0.75;fill:url(#linear-gradient-2)"/><g style="opacity:0.6000000000000001"><circle cx="23.39" cy="35.74" r="10.98" style="fill:#fff"/></g><rect x="13.06" y="56.66" width="110.98" height="4.28" rx="1.75" ry="1.75" style="fill:#fff;opacity:0.4"/><rect x="13.06" y="65.36" width="73.98" height="4.28" rx="1.75" ry="1.75" style="fill:#fff;opacity:0.4"/><rect x="41.44" y="28.07" width="48.86" height="4.25" rx="1.74" ry="1.74" style="fill:#fff;opacity:0.7000000000000001"/><path d="M49.57,90.88a2.12,2.12,0,0,1-2.13-2.12h0a2.13,2.13,0,0,1,2.13-2.13H78.16a2.13,2.13,0,0,1,2.12,2.13h0a2.12,2.12,0,0,1-2.12,2.12" transform="translate(-6 -50.25)" style="fill:#fff;opacity:0.7000000000000001"/><g style="opacity:0.6000000000000001"><path d="M173.25,50.25A20.74,20.74,0,1,0,194,71a20.74,20.74,0,0,0-20.75-20.73Zm2.6,23.32" transform="translate(-6 -50.25)" style="fill:url(#radial-gradient)"/></g><path d="M175.85,74a2.59,2.59,0,1,1-5.18,0v-13a2.59,2.59,0,1,1,5.18,0Z" transform="translate(-6 -50.25)" style="fill:#fff"/><path d="M173.25,83.52a2.59,2.59,0,1,1,2.6-2.59,2.58,2.58,0,0,1-2.6,2.59Z" transform="translate(-6 -50.25)" style="fill:#fff"/></svg>