<?xml version="1.0" encoding="utf-8"?>
<!-- Generator: Adobe Illustrator 22.0.1, SVG Export Plug-In . SVG Version: 6.00 Build 0)  -->
<svg version="1.1" id="Layer_1" xmlns="http://www.w3.org/2000/svg" xmlns:xlink="http://www.w3.org/1999/xlink" x="0px" y="0px"
	 viewBox="0 0 28 28" style="enable-background:new 0 0 28 28;" xml:space="preserve">
<style type="text/css">
	.st0{fill:#2C2E2F;}
</style>
<path class="st0" d="M22.5,17.5c-1.3-1.3-2.9-2.3-4.6-2.9c3.1-2.2,4-6.5,1.8-9.6s-6.5-4-9.6-1.8s-4,6.5-1.8,9.6
	c0.5,0.7,1.1,1.3,1.8,1.8C5.2,16.3,2,20.8,2,26h24C26,22.8,24.8,19.8,22.5,17.5z M9,9c0-2.8,2.3-5,5-5s5,2.3,5,5s-2.3,5-5,5
	S9,11.7,9,9L9,9z M4,24.6c0.8-5.5,6-9.4,11.5-8.5c4.4,0.6,7.9,4.1,8.5,8.5H4z"/>
</svg>
