<?xml version="1.0" encoding="utf-8"?>
<!-- Generator: Adobe Illustrator 22.0.1, SVG Export Plug-In . SVG Version: 6.00 Build 0)  -->
<svg version="1.1" id="Layer_1" xmlns="http://www.w3.org/2000/svg" xmlns:xlink="http://www.w3.org/1999/xlink" x="0px" y="0px"
	 viewBox="0 0 28 28" style="enable-background:new 0 0 28 28;" xml:space="preserve">
<style type="text/css">
	.st0{fill:none;}
	.st1{fill:#2C2E2F;}
</style>
<g>
	<path class="st0" d="M16.9,10.4L14,4.5l-2.9,5.9c-0.1,0.2-0.4,0.2-0.5,0.4l-6.6,1.1l4.8,4.6C9,16.5,9.1,16.8,9,17l-1.1,6.5l5.7-3.1
		c0.2-0.1,0.5-0.1,0.6,0l5.9,3l-1.1-6.5c0-0.2,0-0.5,0.1-0.6l4.7-4.6l-6.5-1C17.1,10.8,17,10.5,16.9,10.4z"/>
	<path class="st1" d="M26,11.1c-0.1-0.2-0.4-0.5-0.6-0.5l-7.5-1.1l-3.4-6.7c-0.1-0.2-0.4-0.4-0.6-0.4s-0.5,0.1-0.6,0.4l-3.2,6.7
		l-7.4,1.2c-0.2,0-0.5,0.2-0.6,0.5s0,0.5,0.1,0.7l5.4,5.4l-1.2,7.4c0,0.4,0.1,0.6,0.5,0.7c0.1,0,0.1,0,0.2,0s0.2-0.1,0.4-0.2
		c0.1-0.1,0.4-0.1,0.5-0.2c0.1,0,0.2-0.1,0.4-0.1c0.4-0.1,0.6-0.4,0.8-0.5c0.4-0.1,0.7-0.4,1.1-0.5c0.2-0.2,0.6-0.4,1-0.6
		c0.4-0.1,0.7-0.4,1.1-0.6c0.4-0.1,0.6-0.4,1-0.5c0.2-0.1,0.5-0.2,0.6-0.4c0.1,0,0.2-0.1,0.4-0.1l6.7,3.5c0.1,0,0.2,0.1,0.4,0.1
		c0.4,0,0.6-0.4,0.7-0.7v-0.1l-1.3-7.4l5.4-5.4C25.9,11.6,26,11.4,26,11.1z M19.2,16.4c-0.1,0.1-0.2,0.4-0.1,0.6l1.1,6.5l-5.9-3.1
		c-0.2-0.1-0.5-0.1-0.6,0L8,23.5L9.1,17c0-0.2,0-0.5-0.1-0.6l-4.7-4.6l6.6-1.1c0.1,0,0.4-0.1,0.5-0.4l2.9-6l2.9,5.9
		c0.1,0.2,0.4,0.4,0.5,0.4l6.5,1L19.2,16.4z"/>
</g>
</svg>
