<?xml version="1.0" encoding="utf-8"?>
<!-- Generator: Adobe Illustrator 22.0.1, SVG Export Plug-In . SVG Version: 6.00 Build 0)  -->
<svg version="1.1" id="Layer_1" xmlns="http://www.w3.org/2000/svg" xmlns:xlink="http://www.w3.org/1999/xlink" x="0px" y="0px"
	 viewBox="0 0 28 28" style="enable-background:new 0 0 28 28;" xml:space="preserve">
<style type="text/css">
	.st0{fill:#2C2E2F;}
</style>
<g>
	<path id="_3" class="st0" d="M14,26C7.4,26,2,20.6,2,14S7.4,2,14,2s12,5.4,12,12S20.6,26,14,26z M22.6,19.9c1.1-1.4,1.7-3.2,1.8-5
		h-6c0,1.3-0.1,2.6-0.4,4C19.6,18.9,21.2,19.4,22.6,19.9z M11,14.7c0,1.3,0.1,2.6,0.4,4c0.8-0.1,1.7-0.1,2.5-0.1
		c0.8,0,1.7,0,2.5,0.1c0.2-1.3,0.4-2.5,0.4-3.8L11,14.7z M17,13.3c0-1.3-0.1-2.6-0.4-4c-0.8,0-1.7,0.1-2.5,0.1c-0.8,0-1.7,0-2.5-0.1
		c-0.2,1.3-0.4,2.5-0.4,3.8L17,13.3z M21.7,21.2c-1.3-0.4-2.5-0.7-3.8-1c-0.4,1.3-0.7,2.6-1.2,4C18.6,23.7,20.4,22.6,21.7,21.2z
		 M13.3,24.4H14h0.7c0.6-1.4,1.2-2.9,1.6-4.3c-0.7,0-1.6-0.1-2.3-0.1c-0.7,0-1.6,0-2.3,0.1C12.2,21.6,12.7,23,13.3,24.4z M11.5,24.2
		c-0.5-1.2-1-2.5-1.2-4c-1.3,0.2-2.6,0.5-3.8,1C7.8,22.6,9.6,23.6,11.5,24.2L11.5,24.2z M9.9,18.8c-0.2-1.3-0.4-2.6-0.4-4h-6
		c0.1,1.8,0.7,3.6,1.8,5C6.8,19.4,8.4,19,9.9,18.8L9.9,18.8z M5.4,8.1c-1.1,1.6-1.7,3.4-1.8,5.2h6c0-1.3,0.1-2.6,0.4-4
		C8.4,9.1,6.8,8.6,5.4,8.1z M6.3,6.8c1.3,0.4,2.5,0.7,3.8,0.8c0.4-1.3,0.7-2.6,1.2-4C9.6,4.3,7.6,5.4,6.3,6.8L6.3,6.8z M14.7,3.6H14
		h-0.7c-0.7,1.4-1.2,2.9-1.6,4.3C12.6,8,13.3,8,14,8s1.6,0,2.3-0.1C15.9,6.4,15.3,4.9,14.7,3.6L14.7,3.6z M16.6,3.8
		c0.5,1.2,1,2.5,1.2,3.8c1.3-0.2,2.6-0.5,3.8-1C20.4,5.4,18.6,4.3,16.6,3.8L16.6,3.8z M18.1,9.1c0.2,1.3,0.4,2.6,0.4,4h6
		c-0.1-1.8-0.7-3.5-1.8-4.9C21.2,8.6,19.6,9,18.1,9.1L18.1,9.1z"/>
</g>
</svg>
