<svg id="Layer_12" data-name="Layer 12" xmlns="http://www.w3.org/2000/svg" viewBox="0 0 19 19"><title>msg</title><path d="M15.94,4.17H3.06L9.5,8.66Z" style="fill:none"/><path d="M9.9,9.87a.73.73,0,0,1-.8,0L1.7,4.63v9a1.28,1.28,0,0,0,1.2,1.29H16.1a1.28,1.28,0,0,0,1.2-1.29v-9Z" style="fill:none"/><path d="M18.5,5.3A2.38,2.38,0,0,0,16.1,3H2.9A2.38,2.38,0,0,0,.5,5.35v8.3A2.38,2.38,0,0,0,2.9,16H16.1a2.38,2.38,0,0,0,2.4-2.36ZM15.94,4.17,9.5,8.66,3.06,4.17Zm1.36,9.48a1.28,1.28,0,0,1-1.2,1.29H2.9a1.28,1.28,0,0,1-1.2-1.29v-9L9.1,9.87a.73.73,0,0,0,.8,0l7.4-5.23v9Z" style="fill:#2c2e2f"/></svg>