<?xml version="1.0" encoding="utf-8"?>
<!-- Generator: Adobe Illustrator 22.0.1, SVG Export Plug-In . SVG Version: 6.00 Build 0)  -->
<svg version="1.1" id="Layer_1" xmlns="http://www.w3.org/2000/svg" xmlns:xlink="http://www.w3.org/1999/xlink" x="0px" y="0px"
	 viewBox="0 0 28 28" style="enable-background:new 0 0 28 28;" xml:space="preserve">
<style type="text/css">
	.st0{fill:none;}
	.st1{fill:#2C2E2F;}
</style>
<path class="st0" d="M19.9,3.4H8.2C7.6,3.4,7,3.9,6.9,4.5v19.4c0,0.2,0.1,0.5,0.2,0.6s0.4,0.1,0.5,0.1c0.1-0.1,0.4-0.2,0.5-0.4
	c0.4-0.4,0.7-0.7,1.1-1.2l1.3-1.7c0.5-0.6,0.8-1.1,1.3-1.7l1.1-1.3l0.5-0.5c0.2-0.2,0.7-0.4,1.1-0.1c0,0,0,0,0.1,0.1l0.1,0.1
	c0.2,0.2,0.5,0.5,0.6,0.7l1.1,1.3l1.3,1.6l1.2,1.4c0.2,0.4,0.6,0.7,1,1.1c0.1,0.1,0.1,0.2,0.2,0.2c0.2,0.2,0.5,0.2,0.7,0
	c0.1-0.1,0.2-0.4,0.2-0.6V4.4C21,3.8,20.5,3.4,19.9,3.4z"/>
<path class="st1" d="M21.7,2.6C21.1,2.1,20.5,2,19.8,2H8C7.3,2,6.5,2.2,6.1,2.6C5.5,3,5.2,3.6,5.2,4.2V24c0,0.5,0.2,1,0.6,1.3
	c0.6,0.6,1.4,0.8,2.3,0.5c1.2-0.6,5.9-6.6,5.9-6.6c1.8,2.3,3.9,4.6,5.9,6.6c0.7,0.4,1.7,0.1,2.3-0.5c0.4-0.4,0.6-0.8,0.6-1.3V4.2
	C22.5,3.6,22.2,3.1,21.7,2.6z M21,23.8c0,0.2-0.1,0.5-0.2,0.6c-0.2,0.2-0.5,0.2-0.7,0c-0.1-0.1-0.2-0.2-0.2-0.2
	c-0.4-0.4-0.6-0.7-1-1.1l-1.2-1.4l-1.4-1.6l-1.1-1.3c-0.2-0.2-0.5-0.5-0.6-0.7l-0.1-0.1c-0.2-0.2-0.7-0.4-1.1-0.1c0,0,0,0-0.1,0.1
	l-0.5,0.5l-1.1,1.3c-0.5,0.6-0.8,1.2-1.3,1.7l-1.2,1.7c-0.4,0.4-0.7,0.8-1.1,1.2c-0.1,0.1-0.2,0.2-0.5,0.4c-0.1,0-0.4,0-0.5-0.1
	c-0.1-0.1-0.2-0.4-0.2-0.6V4.4c0.1-0.6,0.7-1.1,1.3-1.1h11.6c0.6,0,1.2,0.5,1.3,1.1V23.8z"/>
</svg>
