<svg xmlns="http://www.w3.org/2000/svg" viewBox="0 0 12 14"><title>DOC ICON</title><g id="document_post" data-name="document post">
<path d="M15.31,3Q16,3,16,3.6v5c0,1.61,0,3.21,0,4.81a.52.52,0,0,1-.19.41l-3.37,3a.72.72,0,0,1-.49.18H4.62c-.39,0-.62-.2-.62-.54V3.55c0-.34.24-.55.63-.55H15.31ZM11.4,16V13.55c0-.35.23-.56.64-.56h2.8V7.51H5.16V16Z" transform="translate(-4 -3)" style="fill: #f05050;"/>
<path d="M5,16.12V3.88H15V13H12.1c-.42,0-.65.22-.65.58v2.51" transform="translate(-4 -3)" style="fill:#fff"/><path d="M5.88,9.91v.91H12V9.91Z" transform="translate(-4 -3)" style="fill: #f05050;"/>
<path d="M5.88,8v.91h8.24V8Z" transform="translate(-4 -3)" style="fill: #f05050;"/>
<path d="M5.88,11.82v.91h4v-.91Z" transform="translate(-4 -3)" style="fill: #f05050;"/>
<circle cx="3" cy="3" r="1" style="fill: #f05050;"/></g></svg>