<svg xmlns="http://www.w3.org/2000/svg" viewBox="0 0 18 18">
	<title>notification</title>
	<g id="Layer_41" data-name="Layer 41">
<path d="M13.26,1A5.74,5.74,0,1,0,19,6.74,5.75,5.75,0,0,0,13.26,1ZM9,6.74A4.25,4.25,0,1,1,13.26,11,4.25,4.25,0,0,1,9,6.74Z" transform="translate(-1 -1)" style="fill: #f05050;fill-opacity: .8;"/>
<path d="M17.08,11.57a.74.74,0,0,0-.74.73v2.87A2.39,2.39,0,0,1,14,17.55H4.83a2.39,2.39,0,0,1-2.38-2.38V6A2.39,2.39,0,0,1,4.83,3.66H7.7a.74.74,0,0,0,.73-.74.72.72,0,0,0-.73-.73H4.83A3.86,3.86,0,0,0,1,6v9.13A3.84,3.84,0,0,0,4.83,19H14a3.83,3.83,0,0,0,3.83-3.83V12.3A.73.73,0,0,0,17.08,11.57Z" transform="translate(-1 -1)" style="fill: #f05050;fill-opacity: .8;"/>
<path d="M15.73,6,14.3,5.68c-.06,0-.11-.06-.14-.08l-.73-1.27a.2.2,0,0,0-.35,0L12.35,5.6a.16.16,0,0,1-.13.08L10.78,6a.21.21,0,0,0-.11.33l1,1.08a.49.49,0,0,1,0,.16L11.57,9a.18.18,0,0,0,.27.19l1.35-.59a.15.15,0,0,1,.16,0l1.35.59c.14,0,.3-.05.27-.19l-.13-1.46a.2.2,0,0,1,.05-.16l1-1.08A.22.22,0,0,0,15.73,6Z" transform="translate(-1 -1)" style="fill: #f05050;fill-opacity: .8;"/>
</g>
</svg>