<svg xmlns="http://www.w3.org/2000/svg" width="16.353" height="14.155" viewBox="0 0 16.353 14.155">
    <defs>
        <style>
            .cls-1{fill:#878888}
        </style>
    </defs>
    <g id="Group_1719" transform="translate(-317.895 -150.133)">
        <g id="Group_1134" transform="translate(319.856 153.084)">
            <path id="Path_444" d="M127.207 92.115a2.408 2.408 0 1 1 2.408-2.408 2.408 2.408 0 0 1-2.408 2.408z" class="cls-1" transform="translate(-124.8 -87.3)"/>
        </g>
        <g id="Group_1135" transform="translate(317.895 158.967)">
            <path id="Path_445" d="M73.077 256a4.662 4.662 0 0 1 4.581 4.729v.593H68.5v-.593A4.661 4.661 0 0 1 73.077 256z" class="cls-1" transform="translate(-68.5 -256)"/>
        </g>
        <g id="noun_Plus_1756290" transform="rotate(43 -26.45 493.017)">
            <g id="Group_1384">
                <path id="Path_1504" fill="#878888" fill-rule="evenodd" stroke="#878888" stroke-width="0.5px" d="M3.257 0a.555.555 0 0 1 .552.552v2.154h2.154a.552.552 0 0 1 0 1.1H3.809v2.157a.552.552 0 0 1-1.1 0V3.809H.552a.552.552 0 1 1 0-1.1h2.154V.552A.555.555 0 0 1 3.257 0z"/>
            </g>
        </g>
    </g>
</svg>
