<svg xmlns="http://www.w3.org/2000/svg" width="72" height="83" viewBox="0 0 72 83">
    <defs>
        <clipPath id="clip-path">
            <ellipse id="Ellipse_73" cx="35" cy="35.5" class="cls-1" rx="35" ry="35.5" transform="translate(-.176 .122)"/>
        </clipPath>
        <clipPath id="clip-path-2">
            <path id="Rectangle_336" d="M0 0H70V46H0z" class="cls-1"/>
        </clipPath>
        <linearGradient id="linear-gradient" x1=".5" x2=".5" y2="1" gradientUnits="objectBoundingBox">
            <stop offset="0" stop-color="#f05050"/>
            <stop offset="1" stop-color="#ffb5b5"/>
        </linearGradient>
        <style>
            .cls-1,.cls-12,.cls-4{fill:#fff}.cls-1{stroke:#707070}.cls-11,.cls-4,.cls-5,.cls-6,.cls-7,.cls-9{fill-rule:evenodd}.cls-6{fill:url(#linear-gradient)}.cls-7{fill:#dfe5eb}.cls-8{opacity:.2}.cls-9{fill:#ef9a9a}.cls-10{mix-blend-mode:screen;isolation:isolate}.cls-11{fill:#767ade}
        </style>
    </defs>
    <g id="Group_1602" transform="translate(-204 -371.07)">
        <g id="Ellipse_74" fill="#fff" stroke="rgba(240,80,80,0.2)" transform="translate(206 383.07)">
            <ellipse cx="35" cy="35.5" stroke="none" rx="35" ry="35.5"/>
            <ellipse cx="35" cy="35.5" fill="none" rx="34.5" ry="35"/>
        </g>
        <g id="Mask_Group_361" clip-path="url(#clip-path)" transform="translate(206.176 381.948)">
            <g id="Group_1567" transform="translate(.315 -6.779)">
                <path id="Path_965" d="M1365.091 417.315h-37.616s1.76-6.127 3.345-10a26.238 26.238 0 0 1 3.1-5.808l-1.52-5.5s-4.454-3.362-4.683-5.626a8.094 8.094 0 0 1 1.034-4.379s-8.06.286-11.312-1.064-7.286-5.689-4.409-10.126c1.1-1.7 3.9-2.751 6.811-3.923 4.684-1.882 9.822-3.406 9.822-3.406a5.182 5.182 0 0 1-.243-2.98c.381-1.54.291-2.993 1.156-3.953a12.14 12.14 0 0 1 3.284-2.524 14.265 14.265 0 0 1 2.889-1.034s1.662-5.9 4.683-8 12.967-1.807 16.573 1.612 4.336 6.35 3.892 12.772c-.266 3.852 3.715 9.587 6.295 9.67s7.313.367 8.21 2.22a5.643 5.643 0 0 1-1.429 6.873s2.8 3.561 2.19 6.082a7.453 7.453 0 0 1-2.615 3.953s4.548 6.672 3.71 8.788-14.079 12.833-14.079 12.833.263.955.486 1.672.426 1.848.426 1.848z" class="cls-4" transform="translate(-1311.899 -347.055)"/>
                <path id="Path_966" d="M1610.886 664.356s-2.35-2.164-3.5-3.254-2.372-2.19-2.372-2.19a23.651 23.651 0 0 0-3.345 3.527c-1.156 1.658-2.037 2.706-2.037 2.706a8.128 8.128 0 0 0 5.352.912 22.481 22.481 0 0 0 5.902-1.701z" class="cls-5" transform="translate(-1557.999 -613.406)"/>
                <path id="Path_967" d="M1473.028 481.157s.321 3.375-1.034 3.467-4.387-.77-6.325-.578-3.5.3-3.5.3a8.728 8.728 0 0 1-.182-1.46 15.513 15.513 0 0 1 .152-1.733s3.421-1.284 4.014-2.037a21.741 21.741 0 0 0 1.217-2.554 10.537 10.537 0 0 1 1.064-1.46s1.192 4.187 2.372 4.835l2.222 1.22z" class="cls-5" transform="translate(-1440.21 -456.115)"/>
                <path id="Path_968" d="M1480.118 365.123s2.354-9.629 6.69-11.647 12.761-1.474 15.478 1.946 3.713 4.881 3.406 10.278 2.239 9.229 4.318 10.278c3.528 1.78 8.84.232 10.1 3.162a6.29 6.29 0 0 1-1.064 7.055s3.431 3.6 1.825 6.66-2.524 3.223-2.524 3.223-8.2-12.374-12.407-13.9-10.318-1.971-10.765-2.8-.182-5.322-.182-5.322l2.007-2.037s5.64.98 4.957-2.615a1.575 1.575 0 0 0-2.22-1.216s-4.774-3.924-7.633-5.991-5.534-4.348-5.534-4.348l-.943 1.368-.73 2.22s-2.89.738-3.344 2.038A11.089 11.089 0 0 0 1481 366z" class="cls-5" transform="translate(-1455.724 -351.028)"/>
                <path id="Path_969" d="M1578.819 447.071a.684.684 0 0 1 .684.684v.973a.684.684 0 0 1-1.369 0v-.973a.684.684 0 0 1 .685-.684z" class="cls-5" transform="translate(-1539.6 -432.125)"/>
                <path id="Path_970" d="M1526.544 441.169a.684.684 0 0 1 .684.684v.973a.684.684 0 1 1-1.368 0v-.973a.684.684 0 0 1 .684-.684z" class="cls-5" transform="translate(-1494.867 -427.074)"/>
                <path id="Path_971" d="M1370.492 558.748s1.011-2.3.031-3.467a5.08 5.08 0 0 0-2.615-1.49s4.608-4.987 4.349-5.534-2.859 1.642-2.859 1.642-3.687-2.33-5.93-4.166-4.014-3.132-4.014-3.132a28.538 28.538 0 0 0-3.923 4.653c-1.122 1.954-1.977 3.832-1.977 3.832l-17 .031-2.068-6.6s-4.177-1.822-4.379-4.987c-.267-4.179 3.278-5.882 2.95-6.477s-1.307.243-1.307.243l-2.159 2.342s-6.759.48-10.4-.669-8.3-2.4-5.17-8c.962-1.722 6.781-4.227 6.781-4.227s-.816 2.745.851 3.71a9.61 9.61 0 0 0 4.409.821l1.4-.547s5.331-.507 8.332-.639a13.508 13.508 0 0 1 4.9.578s-4.592 3.995-1.369 5.778a11.708 11.708 0 0 0 10.856-.122 26.713 26.713 0 0 0 5.383-4.379 15.9 15.9 0 0 1 12.316 6.234c3.816 5.177 10.249 13.638 10.248 16.269-.004 4.824-7.636 8.303-7.636 8.303z" class="cls-6" transform="translate(-1312.708 -496.881)"/>
                <path id="Path_972" d="M1434.657 718.266a53 53 0 0 0-5.5 14.567 80.956 80.956 0 0 0-1.52 12.643h37.677s-.9-6.926-1.5-9.9a10.41 10.41 0 0 0-1.721-4.325 5.581 5.581 0 0 0-2.433.3c-1.088.458-2.835 1.467-3.558.792s-.243-.792-.243-.792a.844.844 0 0 1-1.125-.453 3.447 3.447 0 0 1 .213-2.151s-1.5-.006-1.764-1.019a2.079 2.079 0 0 1 0-1.472s-1.376-1.933-.182-3.623a27.186 27.186 0 0 1 2.007-2.566l-2.646-2.755z" class="cls-7" transform="translate(-1410.81 -663.55)"/>
                <g id="Group_1324">
                    <path id="Path_973" d="M1347 343.469h.456a18.858 18.858 0 0 1 3.8.486 17.957 17.957 0 0 1 3.131 1.064c3.712 1.648 6.993 4.578 7.206 9.639a27.256 27.256 0 0 1-.335 3.861 9.807 9.807 0 0 0 3.588 8.939 7.86 7.86 0 0 0 2.8 1.4 26.455 26.455 0 0 0 3.892.335c2.568.227 4.263 1.5 4.865 3.557a5.944 5.944 0 0 1-1.946 6.051 11.34 11.34 0 0 1 1.611 2.189 5.422 5.422 0 0 1 .821 2.98c-.155 2.27-1.717 3.378-2.889 4.713 1.238 2.091 2.917 3.732 3.618 6.233.874 3.118-1.371 5.152-2.949 6.507-1.746 1.5-3.679 2.884-5.534 4.348-1.716 1.355-3.464 2.757-5.078 4.165-.086.076-.248.2-.243.335a35.169 35.169 0 0 1 2.128 8.817c.053.421.216.991-.3 1.095-.332-.092-.382-.174-.456-.578-.354-1.947-.613-4-1.034-5.686a14.668 14.668 0 0 0-1.551-4.2c-.138-.215-.652-1.011-.882-1.064-1.1-.258-2 .655-2.767 1-.867.395-2.324.568-2.949-.152-.162-.187-.141-.334-.3-.669-1.34.08-1.736-1.306-1.064-2.28a1.344 1.344 0 0 1-1.429-2.1 1.56 1.56 0 0 1-.79-1.581 5.7 5.7 0 0 1 1.642-2.676 5.119 5.119 0 0 0 .669-.73c-.328-.191-.628-.448-.973-.7-.375-.273-.776-.676-1.277-.669-5.739.082-12.582.148-18.365.213-.162.075-.168.193-.335.243a.74.74 0 0 1-.274.03c-.149-.008-.021-.068-.152.031a5.343 5.343 0 0 0-.639 1.155 67.248 67.248 0 0 0-3.922 8.665 54.167 54.167 0 0 0-2.432 10.155c-.053.346-.094 1.391-.335 1.49-.873.358-.581-.889-.517-1.307.088-.585.163-1.2.243-1.672a55.077 55.077 0 0 1 6.9-18.943c.1-.177.333-.468.335-.638a3.647 3.647 0 0 0-.243-.639c-.39-1.179-.731-2.165-1.125-3.284a6.878 6.878 0 0 0-.456-1.338 2.344 2.344 0 0 0-.547-.365c-1.986-1.324-3.936-3.177-4.044-6.294a5.578 5.578 0 0 1 .456-2.371 1.672 1.672 0 0 0 .213-.608c-6.482.376-13.084-.239-15.415-4.439a6.992 6.992 0 0 1-.426-5.5c1.115-3.251 4.633-4.372 7.844-5.564 3.312-1.229 6.463-2.486 9.547-3.862a4.534 4.534 0 0 1-.547-2.219c.019-.3.164-.5.183-.76a8.8 8.8 0 0 1 .091-.882 6.135 6.135 0 0 1 2.128-3.618 9.632 9.632 0 0 1 4.926-2.767c.006-.034.034-.047.061-.061 1.433-5.508 4.421-9.473 11.366-9.48zm28.156 42.72a4.221 4.221 0 0 0 .912-2.463 5.14 5.14 0 0 0-.821-2.463 9.492 9.492 0 0 0-1.368-1.916c-.181-.186-.483-.269-.487-.547 0-.346.7-.817.973-1.125a4.8 4.8 0 0 0 1.247-4.683 3.832 3.832 0 0 0-1.855-2.341 7.919 7.919 0 0 0-3.5-.7 11.8 11.8 0 0 1-3.618-.578 8.856 8.856 0 0 1-2.645-1.551 10.5 10.5 0 0 1-3.588-8.97c.088-1.3.313-2.555.335-3.861a8.758 8.758 0 0 0-2.25-6.081c-2.489-2.788-6.782-4.848-12.223-4.591-5.964.282-8.359 3.688-9.79 8.544 1.331-.049 2.573.19 2.98 1.095a1.286 1.286 0 0 1-.517 1.733c-.548.194-1.155-.183-1.733-.182a4.586 4.586 0 0 0-2.341.942c.218.31.452.575.669.912.658 1.022 1.01 2.347 1.612 3.375a3.483 3.483 0 0 1 1.551-.73c1.2-.124 2.839.492 2.919 1.368.085.937-1.191.936-1.642 1.429a7.205 7.205 0 0 0 1.7 3.618 4.227 4.227 0 0 0 3.8 1.49 8.8 8.8 0 0 0 3.892-1.459 18.69 18.69 0 0 0 2.25-1.764c.229-.207.52-.57.76-.578.192-.006.331.139.517.182a4.279 4.279 0 0 0 3.71-1.034 1.786 1.786 0 0 0 .487-.912 1.249 1.249 0 0 0-.7-1.308 2.311 2.311 0 0 0-1.581.152c-.385.154-1.275.753-1.277 0 0-.416.442-.476.76-.638-1.922-1.743-4-3.343-6.02-5.017s-4.044-3.357-6.111-4.9c-.215.464-.494.864-.7 1.338 2.736.7 4.271 2.6 4.44 5.868.018.16-.165-.119-.122.091-.048 1.908-.651 3.261-2.128 3.74.042.365.642.454.638.882a.471.471 0 0 1-.426.456c-.275.009-.55-.375-.7-.547a1.018 1.018 0 0 1-.364-.882c.108-.655.875-.63 1.338-.973.695-.515.912-1.909.943-2.919a5.222 5.222 0 0 0-.608-2.4 4.963 4.963 0 0 0-4.044-2.706c-.591-.1-1.754.047-1.733-.547.024-.69 1.371-.271 1.916-.243.309-.542.589-1.114.912-1.642-.107-.355-.522-.282-.487-.73a.389.389 0 0 1 .4-.365c.287 0 .62.4.912.638 4.281 3.459 8.88 7.125 12.953 10.52a2.07 2.07 0 0 1 2.25 3.193 4.7 4.7 0 0 1-4.226 1.763 3.777 3.777 0 0 0-.851-.122c-.212.043-.5.439-.73.639-.249.214-.633.387-.73.639a7.139 7.139 0 0 0-.152 1.307c-.13 1.094-.541 3.039.03 3.862a3.3 3.3 0 0 0 1.7.821c1.983.52 4.443.568 6.233 1.064a15.478 15.478 0 0 1 6.263 3.5c3.684 3.275 5.69 7.123 8.453 11.037a10.792 10.792 0 0 0 1.613-1.73zm-38.919-32.473a8.491 8.491 0 0 0-3.648 1.52c-.139.1-.347.174-.3.274a3.538 3.538 0 0 1 1.885.456 5.4 5.4 0 0 1 3.071-1.277c.536 0 .938.236 1.46.213.372-1.169-1.405-1.365-2.469-1.187zm-.973 5.017a3.124 3.124 0 0 0-2.523-2.4 2.852 2.852 0 0 0-2.28.912 1.842 1.842 0 0 1 1.277-.3 4.088 4.088 0 0 1 3.071 2.858.932.932 0 0 0 .454-1.071zm-2.037-.061a3.2 3.2 0 0 0-1.459-.882c-.9-.215-1.413.573-1.7 1.095 0-.018 0-.036.03-.03 1.777-.456 2.822.782 3.557 1.763.779-.418.134-1.372-.429-1.946zm-2.128.912a1.845 1.845 0 0 0-2.007 1.672 2.838 2.838 0 0 0 .334 1.429c.124.261.644.858.608 1.186-.046.414-.682.409-.851.091-2.946 1.351-6.029 2.565-9.122 3.77a6.92 6.92 0 0 0-.456 2.706 3.238 3.238 0 0 0 3.041 3.01 5.551 5.551 0 0 0 1.915-.061 4.053 4.053 0 0 0 .73-.456c.731-.487 1.508-1 2.189-1.429a59.025 59.025 0 0 1 6.081-3.588 11.249 11.249 0 0 0 3.132-1.7c.848-.893.979-2.5 1.855-3.436a7.6 7.6 0 0 1 2.189-1.307 2.366 2.366 0 0 0-2.159-.608 3.52 3.52 0 0 0-1.855 1.763c-.166.3-.241.643-.578.638a.4.4 0 0 1-.4-.334c-.081-.563.728-1.151.791-1.551-.222-.477-.452-.947-.669-1.429-.312.215-.574.743-1.186.76a1.561 1.561 0 0 1-.851.73c-.117 1.121-1.549.679-2.372.4-.44-.152-1.257-.3-1.186-.821.086-.621 1.049-.1 1.429.03a3.644 3.644 0 0 0 1.277.3 2.668 2.668 0 0 0-1.878-1.765zm8.088 3.709c-.872 1.07-.985 2.528-1.916 3.5-1.255 1.306-3.267 1.523-4.774 2.676a4.632 4.632 0 0 0 .031 1.733 34.15 34.15 0 0 1 7.966.213c.533.062 2.087.419 2.493.03.247-.237.236-.958.273-1.338.056-.562.078-1.027.092-1.551-2.252-.895-3.484-2.803-4.166-5.263zm4.986 5.443c-.208 1.28.128 2.873-.791 3.436a4.2 4.2 0 0 1-2.493.122c-.072.47-.42.562-.73.821a12.513 12.513 0 0 0-1.52 1.52 3.859 3.859 0 0 0-1.277 2.8 2.982 2.982 0 0 0 1.611 1.977 5.952 5.952 0 0 0 2.433.851 9.579 9.579 0 0 0 5.412-1.034 18.041 18.041 0 0 0 3.831-2.737c1.031-.9 2.039-1.823 3.071-2.675.143-.119.357-.25.335-.365-1.594-.32-3.305-.451-3.953-1.672-.679-1.28-.07-3.227 0-4.8 0-.018 0-.036-.031-.03a8.733 8.733 0 0 1-5.899 1.786zm-31.2 2.706a6.128 6.128 0 0 0-.03 6.993c2.634 3.386 8.911 3.756 14.9 3.314a14.425 14.425 0 0 1 1.034-1.186c.261-.279.84-1.011 1.277-.912a.365.365 0 0 1 .3.365c.011.288-.333.479-.547.669-1.434 1.275-2.98 3.118-2.4 5.929a6.975 6.975 0 0 0 3.071 4.257 10.034 10.034 0 0 1 1.429 1.034c.02.151.027.31.061.456a25.481 25.481 0 0 0 .882 2.585c.3.865.606 1.737.882 2.615 2.814-.117 5.9-.152 8.879-.152 3.01 0 6.059-.1 9.03-.091a2.884 2.884 0 0 1 .547-1.763 24.931 24.931 0 0 1 5.078-6.628c-.28-.394-.574-.635-1-1.125-.2-.231-.932-.842-.851-1.277a.431.431 0 0 1 .365-.3c.264-.009.521.366.73.608a51.756 51.756 0 0 0 10.855 9.274c.375-.228.488-1.009 1.064-.943a.386.386 0 0 1 .335.365c.019.36-.508.77-.76 1.064-.823.961-1.886 2.185-2.463 2.98 2.617.153 4.494 1.915 3.831 4.865 2.066-1.668 4.6-3.151 6.355-5.321a4.4 4.4 0 0 0 1.186-2.767 7.868 7.868 0 0 0-1.55-3.983c-.748-1.2-1.526-2.255-2.22-3.345-1.47-2.308-2.871-4.489-4.47-6.659-2.927-3.975-6.142-7.71-12.223-8.6a5.236 5.236 0 0 0-1.246-.152 3.436 3.436 0 0 0-.669.517c-.247.2-.458.375-.669.547-3.122 2.56-5.52 5.842-10.55 6.415a7.647 7.647 0 0 1-4.136-.578 4.77 4.77 0 0 1-2.554-2.311c-.569-1.384.251-2.734.882-3.588a12.4 12.4 0 0 1 2.1-2.159c.069-.057.281-.135.213-.274a34.055 34.055 0 0 0-11.767.547 6.792 6.792 0 0 0-1.581.365c-1.551.883-3.3 2.146-4.834 3.162-.334.221-1.095.706-1.095-.03 0-.288.32-.426.547-.578.612-.408 1.132-.768 1.672-1.125.109-.072.3-.144.244-.213-3.274 0-5.08-2.823-4.014-6.2h-.061c-2.18.847-4.675 1.637-6.056 3.334zm15.659.335c.985-.191 2.014-.338 3.04-.487-.181-.356-.025-.99-.121-1.338-.965.613-1.979 1.18-2.916 1.825zm29.311 17.726a23.247 23.247 0 0 0-4.439 5.594 18.41 18.41 0 0 0 5.29.4 13.794 13.794 0 0 0 4.531-1.277 59.78 59.78 0 0 1-5.379-4.72zm6.142 5.26a15.832 15.832 0 0 1-5.078 1.551 18.54 18.54 0 0 1-5.929-.487l-.547 1.094c.968.684 1.943 1.362 2.888 2.068a5.655 5.655 0 0 1 3.284-1.277 3.305 3.305 0 0 1 2.524 1.429 8.95 8.95 0 0 1 1.4 2.554c1.487-1.624 2.886-3.337 4.318-5.017-1.02-.57-1.903-1.278-2.857-1.915zm-.122 6.72a10.374 10.374 0 0 0-.973 1.095c-.137.221-.134.5-.456.486-.341-.009-.563-.815-.7-1.155a10.38 10.38 0 0 0-.578-1.277c-.552-1-1.372-2.231-2.888-2.1a5.838 5.838 0 0 0-3.223 1.733 8.628 8.628 0 0 0-1.186 1.277c-.239.325-.859 1.148-.76 1.733.024.142.295.476.426.456.092-.014.454-.6.517-.669a9.7 9.7 0 0 1 4.379-2.888c.4-.141 1.3-.548 1.277.152-.011.348-.538.436-.852.547a9.169 9.169 0 0 0-4.256 2.8 2.974 2.974 0 0 0-.882 1.885c.222.326 1.009.086 1.064.578a11.976 11.976 0 0 1 4.531-3.74c.357-.186 1.265-.636 1.155.152-.039.283-.478.39-.791.547a11.63 11.63 0 0 0-3.8 2.919 2.734 2.734 0 0 0-.821 1.824 1.306 1.306 0 0 0 .882.213 9.47 9.47 0 0 1 3.952-3.04c.434-.2 1.757-.928 1.734-.091-.009.328-.342.37-.639.487a12.585 12.585 0 0 0-2.28 1.155 4.814 4.814 0 0 0-2.22 2.371.862.862 0 0 0 .486.243c1.729.249 2.476-1.223 4.075-1.338.8-.058 2.57.087 2.493.76a.408.408 0 0 1-.578.3 2.2 2.2 0 0 0 .365.547c1.651-1.441 3.334-2.849 5.078-4.2-.131-.394.06-.685.152-1.034a2.815 2.815 0 0 0-1.125-3.253 4.587 4.587 0 0 0-2.615-.608c-.323.332-.606.744-.94 1.132z" class="cls-5" transform="translate(-1311.023 -343.469)"/>
                    <path id="Path_974" d="M1612.39 469.268c.144-.015.438 0 .486.274.076.435-.452.571-.851.73-.367.146-1.436.72-1.459 0-.013-.384.542-.492.821-.608a3.412 3.412 0 0 1 1.003-.396z" class="cls-5" transform="translate(-1567.352 -451.116)"/>
                    <path id="Path_975" d="M1550.25 486.7c.263-.055.5.051.517.334.025.531-1.194 1.025-1.854 1.034-.414.005-.931-.048-.943-.456-.014-.487.469-.363.912-.365a2.563 2.563 0 0 0 1.307-.547c.011 0 .044.006.061 0z" class="cls-5" transform="translate(-1513.786 -466.027)"/>
                </g>
                <g id="Group_1328" transform="translate(24.901 9.692)">
                    <g id="Group_1327" class="cls-8" transform="translate(.35 .35)">
                        <g id="Group_1325">
                            <path id="Path_976" d="M1490.336 413.083a4.029 4.029 0 1 0 3.765 4.276 4.029 4.029 0 0 0-3.765-4.276z" class="cls-9" transform="translate(-1486.051 -413.075)"/>
                        </g>
                        <g id="Group_1326" class="cls-10">
                            <path id="Path_977" d="M1490.336 413.083a4.029 4.029 0 1 0 3.765 4.276 4.029 4.029 0 0 0-3.765-4.276z" class="cls-11" transform="translate(-1486.051 -413.075)"/>
                        </g>
                    </g>
                    <path id="Path_978" d="M1488.012 419.409q-.142 0-.284-.009a4.365 4.365 0 1 1 .284.009zm-.012-8.059a3.681 3.681 0 1 0 .238.008c-.079-.006-.158-.008-.238-.008z" transform="translate(-1483.626 -410.65)"/>
                </g>
                <g id="Group_1332" transform="translate(34.713 11.107)">
                    <g id="Group_1331" class="cls-8" transform="translate(.35 .35)">
                        <g id="Group_1329">
                            <path id="Path_979" d="M1558.357 422.9a4.029 4.029 0 1 0 3.766 4.276 4.029 4.029 0 0 0-3.766-4.276z" class="cls-9" transform="translate(-1554.072 -422.888)"/>
                        </g>
                        <g id="Group_1330" class="cls-10">
                            <path id="Path_980" d="M1558.357 422.9a4.029 4.029 0 1 0 3.766 4.276 4.029 4.029 0 0 0-3.766-4.276z" class="cls-11" transform="translate(-1554.072 -422.888)"/>
                        </g>
                    </g>
                    <path id="Path_981" d="M1556.033 429.22c-.095 0-.189 0-.284-.009a4.372 4.372 0 1 1 .284.009zm-.009-8.059a3.678 3.678 0 1 0 .236.007c-.079-.004-.16-.006-.236-.006z" transform="translate(-1551.647 -420.462)"/>
                </g>
                <path id="Path_982" d="M1492.394 416.178c.071 0 .143 0 .214.007a3.329 3.329 0 0 1-.208 6.652c-.071 0-.143 0-.214-.007a3.33 3.33 0 0 1 .208-6.652zm0-.3a3.634 3.634 0 0 0-.227 7.26q.118.007.234.007a3.634 3.634 0 0 0 .227-7.26c-.078 0-.156-.008-.234-.008z" class="cls-12" transform="translate(-1463.122 -405.428)"/>
                <path id="Path_983" d="M1560.475 426.089c.071 0 .143 0 .214.007a3.329 3.329 0 0 1-.207 6.652c-.071 0-.143 0-.214-.007a3.329 3.329 0 0 1 .207-6.652zm0-.3a3.633 3.633 0 0 0-.226 7.26q.117.008.234.008a3.634 3.634 0 0 0 .227-7.26q-.117-.007-.234-.007z" class="cls-12" transform="translate(-1521.381 -413.91)"/>
                <path id="Path_984" d="M1487.1 410.357l-.916.128-.35 1.589 1.2.284s1 .217 1.051.225a6.063 6.063 0 0 0 .657-.325v-1.1z" class="cls-4" transform="translate(-1460.616 -400.708)"/>
                <g id="Group_1333" transform="translate(25.115 9.398)">
                    <path id="Path_985" d="M1487.918 411.439a1.286 1.286 0 0 0 .517-1.733c-.335-.748-1.243-1.04-2.3-1.092a3.374 3.374 0 0 0-.887.327c-.281.242-.068.51.141.5.348-.024.853-.022.906-.017.86.072 1.643.413 1.38 1.228-.521.024-.924-.209-1.459-.213a3.177 3.177 0 0 0-1 .146c-.442.158.917.675.917.675h.05c.58-.004 1.187.373 1.735.179z" class="cls-5" transform="translate(-1485.114 -408.614)"/>
                </g>
            </g>
        </g>
        <g id="Mask_Group_362" clip-path="url(#clip-path-2)" transform="translate(204 371.07)">
            <g id="Group_1568" transform="translate(2.491 4.099)">
                <path id="Path_965-2" d="M1365.091 417.315h-37.616s1.76-6.127 3.345-10a26.238 26.238 0 0 1 3.1-5.808l-1.52-5.5s-4.454-3.362-4.683-5.626a8.094 8.094 0 0 1 1.034-4.379s-8.06.286-11.312-1.064-7.286-5.689-4.409-10.126c1.1-1.7 3.9-2.751 6.811-3.923 4.684-1.882 9.822-3.406 9.822-3.406a5.182 5.182 0 0 1-.243-2.98c.381-1.54.291-2.993 1.156-3.953a12.14 12.14 0 0 1 3.284-2.524 14.265 14.265 0 0 1 2.889-1.034s1.662-5.9 4.683-8 12.967-1.807 16.573 1.612 4.336 6.35 3.892 12.772c-.266 3.852 3.715 9.587 6.295 9.67s7.313.367 8.21 2.22a5.643 5.643 0 0 1-1.429 6.873s2.8 3.561 2.19 6.082a7.453 7.453 0 0 1-2.615 3.953s4.548 6.672 3.71 8.788-14.079 12.833-14.079 12.833.263.955.486 1.672.426 1.848.426 1.848z" class="cls-4" transform="translate(-1311.899 -347.055)"/>
                <path id="Path_966-2" d="M1610.886 664.356s-2.35-2.164-3.5-3.254-2.372-2.19-2.372-2.19a23.651 23.651 0 0 0-3.345 3.527c-1.156 1.658-2.037 2.706-2.037 2.706a8.128 8.128 0 0 0 5.352.912 22.481 22.481 0 0 0 5.902-1.701z" class="cls-5" transform="translate(-1557.999 -613.406)"/>
                <path id="Path_967-2" d="M1473.028 481.157s.321 3.375-1.034 3.467-4.387-.77-6.325-.578-3.5.3-3.5.3a8.728 8.728 0 0 1-.182-1.46 15.513 15.513 0 0 1 .152-1.733s3.421-1.284 4.014-2.037a21.741 21.741 0 0 0 1.217-2.554 10.537 10.537 0 0 1 1.064-1.46s1.192 4.187 2.372 4.835l2.222 1.22z" class="cls-5" transform="translate(-1440.21 -456.115)"/>
                <path id="Path_968-2" d="M1480.118 365.123s2.354-9.629 6.69-11.647 12.761-1.474 15.478 1.946 3.713 4.881 3.406 10.278 2.239 9.229 4.318 10.278c3.528 1.78 8.84.232 10.1 3.162a6.29 6.29 0 0 1-1.064 7.055s3.431 3.6 1.825 6.66-2.524 3.223-2.524 3.223-8.2-12.374-12.407-13.9-10.318-1.971-10.765-2.8-.182-5.322-.182-5.322l2.007-2.037s5.64.98 4.957-2.615a1.575 1.575 0 0 0-2.22-1.216s-4.774-3.924-7.633-5.991-5.534-4.348-5.534-4.348l-.943 1.368-.73 2.22s-2.89.738-3.344 2.038A11.089 11.089 0 0 0 1481 366z" class="cls-5" transform="translate(-1455.724 -351.028)"/>
                <path id="Path_969-2" d="M1578.819 447.071a.684.684 0 0 1 .684.684v.973a.684.684 0 0 1-1.369 0v-.973a.684.684 0 0 1 .685-.684z" class="cls-5" transform="translate(-1539.6 -432.125)"/>
                <path id="Path_970-2" d="M1526.544 441.169a.684.684 0 0 1 .684.684v.973a.684.684 0 1 1-1.368 0v-.973a.684.684 0 0 1 .684-.684z" class="cls-5" transform="translate(-1494.867 -427.074)"/>
                <path id="Path_971-2" d="M1370.492 558.748s1.011-2.3.031-3.467a5.08 5.08 0 0 0-2.615-1.49s4.608-4.987 4.349-5.534-2.859 1.642-2.859 1.642-3.687-2.33-5.93-4.166-4.014-3.132-4.014-3.132a28.538 28.538 0 0 0-3.923 4.653c-1.122 1.954-1.977 3.832-1.977 3.832l-17 .031-2.068-6.6s-4.177-1.822-4.379-4.987c-.267-4.179 3.278-5.882 2.95-6.477s-1.307.243-1.307.243l-2.159 2.342s-6.759.48-10.4-.669-8.3-2.4-5.17-8c.962-1.722 6.781-4.227 6.781-4.227s-.816 2.745.851 3.71a9.61 9.61 0 0 0 4.409.821l1.4-.547s5.331-.507 8.332-.639a13.508 13.508 0 0 1 4.9.578s-4.592 3.995-1.369 5.778a11.708 11.708 0 0 0 10.856-.122 26.713 26.713 0 0 0 5.383-4.379 15.9 15.9 0 0 1 12.316 6.234c3.816 5.177 10.249 13.638 10.248 16.269-.004 4.824-7.636 8.303-7.636 8.303z" class="cls-6" transform="translate(-1312.708 -496.881)"/>
                <path id="Path_972-2" d="M1434.657 718.119a38.369 38.369 0 0 0-5.5 11.738 53.1 53.1 0 0 0-1.52 10.187h37.677s-.9-5.581-1.5-7.98a7.694 7.694 0 0 0-1.721-3.485 6.859 6.859 0 0 0-2.433.243c-1.088.369-2.835 1.182-3.558.639s-.243-.639-.243-.639a.951.951 0 0 1-1.125-.365c-.357-.634.213-1.733.213-1.733s-1.5 0-1.764-.821a1.378 1.378 0 0 1 0-1.186s-1.376-1.558-.182-2.919a23.49 23.49 0 0 1 2.007-2.068l-2.646-2.22z" class="cls-7" transform="translate(-1410.81 -663.55)"/>
                <g id="Group_1324-2">
                    <path id="Path_973-2" d="M1347 343.469h.456a18.858 18.858 0 0 1 3.8.486 17.957 17.957 0 0 1 3.131 1.064c3.712 1.648 6.993 4.578 7.206 9.639a27.256 27.256 0 0 1-.335 3.861 9.807 9.807 0 0 0 3.588 8.939 7.86 7.86 0 0 0 2.8 1.4 26.455 26.455 0 0 0 3.892.335c2.568.227 4.263 1.5 4.865 3.557a5.944 5.944 0 0 1-1.946 6.051 11.34 11.34 0 0 1 1.611 2.189 5.422 5.422 0 0 1 .821 2.98c-.155 2.27-1.717 3.378-2.889 4.713 1.238 2.091 2.917 3.732 3.618 6.233.874 3.118-1.371 5.152-2.949 6.507-1.746 1.5-3.679 2.884-5.534 4.348-1.716 1.355-3.464 2.757-5.078 4.165-.086.076-.248.2-.243.335a35.169 35.169 0 0 1 2.128 8.817c.053.421.216.991-.3 1.095-.332-.092-.382-.174-.456-.578-.354-1.947-.613-4-1.034-5.686a14.668 14.668 0 0 0-1.551-4.2c-.138-.215-.652-1.011-.882-1.064-1.1-.258-2 .655-2.767 1-.867.395-2.324.568-2.949-.152-.162-.187-.141-.334-.3-.669-1.34.08-1.736-1.306-1.064-2.28a1.344 1.344 0 0 1-1.429-2.1 1.56 1.56 0 0 1-.79-1.581 5.7 5.7 0 0 1 1.642-2.676 5.119 5.119 0 0 0 .669-.73c-.328-.191-.628-.448-.973-.7-.375-.273-.776-.676-1.277-.669-5.739.082-12.582.148-18.365.213-.162.075-.168.193-.335.243a.74.74 0 0 1-.274.03c-.149-.008-.021-.068-.152.031a5.343 5.343 0 0 0-.639 1.155 67.248 67.248 0 0 0-3.922 8.665 54.167 54.167 0 0 0-2.432 10.155c-.053.346-.094 1.391-.335 1.49-.873.358-.581-.889-.517-1.307.088-.585.163-1.2.243-1.672a55.077 55.077 0 0 1 6.9-18.943c.1-.177.333-.468.335-.638a3.647 3.647 0 0 0-.243-.639c-.39-1.179-.731-2.165-1.125-3.284a6.878 6.878 0 0 0-.456-1.338 2.344 2.344 0 0 0-.547-.365c-1.986-1.324-3.936-3.177-4.044-6.294a5.578 5.578 0 0 1 .456-2.371 1.672 1.672 0 0 0 .213-.608c-6.482.376-13.084-.239-15.415-4.439a6.992 6.992 0 0 1-.426-5.5c1.115-3.251 4.633-4.372 7.844-5.564 3.312-1.229 6.463-2.486 9.547-3.862a4.534 4.534 0 0 1-.547-2.219c.019-.3.164-.5.183-.76a8.8 8.8 0 0 1 .091-.882 6.135 6.135 0 0 1 2.128-3.618 9.632 9.632 0 0 1 4.926-2.767c.006-.034.034-.047.061-.061 1.433-5.508 4.421-9.473 11.366-9.48zm28.156 42.72a4.221 4.221 0 0 0 .912-2.463 5.14 5.14 0 0 0-.821-2.463 9.492 9.492 0 0 0-1.368-1.916c-.181-.186-.483-.269-.487-.547 0-.346.7-.817.973-1.125a4.8 4.8 0 0 0 1.247-4.683 3.832 3.832 0 0 0-1.855-2.341 7.919 7.919 0 0 0-3.5-.7 11.8 11.8 0 0 1-3.618-.578 8.856 8.856 0 0 1-2.645-1.551 10.5 10.5 0 0 1-3.588-8.97c.088-1.3.313-2.555.335-3.861a8.758 8.758 0 0 0-2.25-6.081c-2.489-2.788-6.782-4.848-12.223-4.591-5.964.282-8.359 3.688-9.79 8.544 1.331-.049 2.573.19 2.98 1.095a1.286 1.286 0 0 1-.517 1.733c-.548.194-1.155-.183-1.733-.182a4.586 4.586 0 0 0-2.341.942c.218.31.452.575.669.912.658 1.022 1.01 2.347 1.612 3.375a3.483 3.483 0 0 1 1.551-.73c1.2-.124 2.839.492 2.919 1.368.085.937-1.191.936-1.642 1.429a7.205 7.205 0 0 0 1.7 3.618 4.227 4.227 0 0 0 3.8 1.49 8.8 8.8 0 0 0 3.892-1.459 18.69 18.69 0 0 0 2.25-1.764c.229-.207.52-.57.76-.578.192-.006.331.139.517.182a4.279 4.279 0 0 0 3.71-1.034 1.786 1.786 0 0 0 .487-.912 1.249 1.249 0 0 0-.7-1.308 2.311 2.311 0 0 0-1.581.152c-.385.154-1.275.753-1.277 0 0-.416.442-.476.76-.638-1.922-1.743-4-3.343-6.02-5.017s-4.044-3.357-6.111-4.9c-.215.464-.494.864-.7 1.338 2.736.7 4.271 2.6 4.44 5.868.018.16-.165-.119-.122.091-.048 1.908-.651 3.261-2.128 3.74.042.365.642.454.638.882a.471.471 0 0 1-.426.456c-.275.009-.55-.375-.7-.547a1.018 1.018 0 0 1-.364-.882c.108-.655.875-.63 1.338-.973.695-.515.912-1.909.943-2.919a5.222 5.222 0 0 0-.608-2.4 4.963 4.963 0 0 0-4.044-2.706c-.591-.1-1.754.047-1.733-.547.024-.69 1.371-.271 1.916-.243.309-.542.589-1.114.912-1.642-.107-.355-.522-.282-.487-.73a.389.389 0 0 1 .4-.365c.287 0 .62.4.912.638 4.281 3.459 8.88 7.125 12.953 10.52a2.07 2.07 0 0 1 2.25 3.193 4.7 4.7 0 0 1-4.226 1.763 3.777 3.777 0 0 0-.851-.122c-.212.043-.5.439-.73.639-.249.214-.633.387-.73.639a7.139 7.139 0 0 0-.152 1.307c-.13 1.094-.541 3.039.03 3.862a3.3 3.3 0 0 0 1.7.821c1.983.52 4.443.568 6.233 1.064a15.478 15.478 0 0 1 6.263 3.5c3.684 3.275 5.69 7.123 8.453 11.037a10.792 10.792 0 0 0 1.613-1.73zm-38.919-32.473a8.491 8.491 0 0 0-3.648 1.52c-.139.1-.347.174-.3.274a3.538 3.538 0 0 1 1.885.456 5.4 5.4 0 0 1 3.071-1.277c.536 0 .938.236 1.46.213.372-1.169-1.405-1.365-2.469-1.187zm-.973 5.017a3.124 3.124 0 0 0-2.523-2.4 2.852 2.852 0 0 0-2.28.912 1.842 1.842 0 0 1 1.277-.3 4.088 4.088 0 0 1 3.071 2.858.932.932 0 0 0 .454-1.071zm-2.037-.061a3.2 3.2 0 0 0-1.459-.882c-.9-.215-1.413.573-1.7 1.095 0-.018 0-.036.03-.03 1.777-.456 2.822.782 3.557 1.763.779-.418.134-1.372-.429-1.946zm-2.128.912a1.845 1.845 0 0 0-2.007 1.672 2.838 2.838 0 0 0 .334 1.429c.124.261.644.858.608 1.186-.046.414-.682.409-.851.091-2.946 1.351-6.029 2.565-9.122 3.77a6.92 6.92 0 0 0-.456 2.706 3.238 3.238 0 0 0 3.041 3.01 5.551 5.551 0 0 0 1.915-.061 4.053 4.053 0 0 0 .73-.456c.731-.487 1.508-1 2.189-1.429a59.025 59.025 0 0 1 6.081-3.588 11.249 11.249 0 0 0 3.132-1.7c.848-.893.979-2.5 1.855-3.436a7.6 7.6 0 0 1 2.189-1.307 2.366 2.366 0 0 0-2.159-.608 3.52 3.52 0 0 0-1.855 1.763c-.166.3-.241.643-.578.638a.4.4 0 0 1-.4-.334c-.081-.563.728-1.151.791-1.551-.222-.477-.452-.947-.669-1.429-.312.215-.574.743-1.186.76a1.561 1.561 0 0 1-.851.73c-.117 1.121-1.549.679-2.372.4-.44-.152-1.257-.3-1.186-.821.086-.621 1.049-.1 1.429.03a3.644 3.644 0 0 0 1.277.3 2.668 2.668 0 0 0-1.878-1.765zm8.088 3.709c-.872 1.07-.985 2.528-1.916 3.5-1.255 1.306-3.267 1.523-4.774 2.676a4.632 4.632 0 0 0 .031 1.733 34.15 34.15 0 0 1 7.966.213c.533.062 2.087.419 2.493.03.247-.237.236-.958.273-1.338.056-.562.078-1.027.092-1.551-2.252-.895-3.484-2.803-4.166-5.263zm4.986 5.443c-.208 1.28.128 2.873-.791 3.436a4.2 4.2 0 0 1-2.493.122c-.072.47-.42.562-.73.821a12.513 12.513 0 0 0-1.52 1.52 3.859 3.859 0 0 0-1.277 2.8 2.982 2.982 0 0 0 1.611 1.977 5.952 5.952 0 0 0 2.433.851 9.579 9.579 0 0 0 5.412-1.034 18.041 18.041 0 0 0 3.831-2.737c1.031-.9 2.039-1.823 3.071-2.675.143-.119.357-.25.335-.365-1.594-.32-3.305-.451-3.953-1.672-.679-1.28-.07-3.227 0-4.8 0-.018 0-.036-.031-.03a8.733 8.733 0 0 1-5.899 1.786zm-31.2 2.706a6.128 6.128 0 0 0-.03 6.993c2.634 3.386 8.911 3.756 14.9 3.314a14.425 14.425 0 0 1 1.034-1.186c.261-.279.84-1.011 1.277-.912a.365.365 0 0 1 .3.365c.011.288-.333.479-.547.669-1.434 1.275-2.98 3.118-2.4 5.929a6.975 6.975 0 0 0 3.071 4.257 10.034 10.034 0 0 1 1.429 1.034c.02.151.027.31.061.456a25.481 25.481 0 0 0 .882 2.585c.3.865.606 1.737.882 2.615 2.814-.117 5.9-.152 8.879-.152 3.01 0 6.059-.1 9.03-.091a2.884 2.884 0 0 1 .547-1.763 24.931 24.931 0 0 1 5.078-6.628c-.28-.394-.574-.635-1-1.125-.2-.231-.932-.842-.851-1.277a.431.431 0 0 1 .365-.3c.264-.009.521.366.73.608a51.756 51.756 0 0 0 10.855 9.274c.375-.228.488-1.009 1.064-.943a.386.386 0 0 1 .335.365c.019.36-.508.77-.76 1.064-.823.961-1.886 2.185-2.463 2.98 2.617.153 4.494 1.915 3.831 4.865 2.066-1.668 4.6-3.151 6.355-5.321a4.4 4.4 0 0 0 1.186-2.767 7.868 7.868 0 0 0-1.55-3.983c-.748-1.2-1.526-2.255-2.22-3.345-1.47-2.308-2.871-4.489-4.47-6.659-2.927-3.975-6.142-7.71-12.223-8.6a5.236 5.236 0 0 0-1.246-.152 3.436 3.436 0 0 0-.669.517c-.247.2-.458.375-.669.547-3.122 2.56-5.52 5.842-10.55 6.415a7.647 7.647 0 0 1-4.136-.578 4.77 4.77 0 0 1-2.554-2.311c-.569-1.384.251-2.734.882-3.588a12.4 12.4 0 0 1 2.1-2.159c.069-.057.281-.135.213-.274a34.055 34.055 0 0 0-11.767.547 6.792 6.792 0 0 0-1.581.365c-1.551.883-3.3 2.146-4.834 3.162-.334.221-1.095.706-1.095-.03 0-.288.32-.426.547-.578.612-.408 1.132-.768 1.672-1.125.109-.072.3-.144.244-.213-3.274 0-5.08-2.823-4.014-6.2h-.061c-2.18.847-4.675 1.637-6.056 3.334zm15.659.335c.985-.191 2.014-.338 3.04-.487-.181-.356-.025-.99-.121-1.338-.965.613-1.979 1.18-2.916 1.825zm29.311 17.726a23.247 23.247 0 0 0-4.439 5.594 18.41 18.41 0 0 0 5.29.4 13.794 13.794 0 0 0 4.531-1.277 59.78 59.78 0 0 1-5.379-4.72zm6.142 5.26a15.832 15.832 0 0 1-5.078 1.551 18.54 18.54 0 0 1-5.929-.487l-.547 1.094c.968.684 1.943 1.362 2.888 2.068a5.655 5.655 0 0 1 3.284-1.277 3.305 3.305 0 0 1 2.524 1.429 8.95 8.95 0 0 1 1.4 2.554c1.487-1.624 2.886-3.337 4.318-5.017-1.02-.57-1.903-1.278-2.857-1.915zm-.122 6.72a10.374 10.374 0 0 0-.973 1.095c-.137.221-.134.5-.456.486-.341-.009-.563-.815-.7-1.155a10.38 10.38 0 0 0-.578-1.277c-.552-1-1.372-2.231-2.888-2.1a5.838 5.838 0 0 0-3.223 1.733 8.628 8.628 0 0 0-1.186 1.277c-.239.325-.859 1.148-.76 1.733.024.142.295.476.426.456.092-.014.454-.6.517-.669a9.7 9.7 0 0 1 4.379-2.888c.4-.141 1.3-.548 1.277.152-.011.348-.538.436-.852.547a9.169 9.169 0 0 0-4.256 2.8 2.974 2.974 0 0 0-.882 1.885c.222.326 1.009.086 1.064.578a11.976 11.976 0 0 1 4.531-3.74c.357-.186 1.265-.636 1.155.152-.039.283-.478.39-.791.547a11.63 11.63 0 0 0-3.8 2.919 2.734 2.734 0 0 0-.821 1.824 1.306 1.306 0 0 0 .882.213 9.47 9.47 0 0 1 3.952-3.04c.434-.2 1.757-.928 1.734-.091-.009.328-.342.37-.639.487a12.585 12.585 0 0 0-2.28 1.155 4.814 4.814 0 0 0-2.22 2.371.862.862 0 0 0 .486.243c1.729.249 2.476-1.223 4.075-1.338.8-.058 2.57.087 2.493.76a.408.408 0 0 1-.578.3 2.2 2.2 0 0 0 .365.547c1.651-1.441 3.334-2.849 5.078-4.2-.131-.394.06-.685.152-1.034a2.815 2.815 0 0 0-1.125-3.253 4.587 4.587 0 0 0-2.615-.608c-.323.332-.606.744-.94 1.132z" class="cls-5" transform="translate(-1311.023 -343.469)"/>
                    <path id="Path_974-2" d="M1612.39 469.268c.144-.015.438 0 .486.274.076.435-.452.571-.851.73-.367.146-1.436.72-1.459 0-.013-.384.542-.492.821-.608a3.412 3.412 0 0 1 1.003-.396z" class="cls-5" transform="translate(-1567.352 -451.116)"/>
                    <path id="Path_975-2" d="M1550.25 486.7c.263-.055.5.051.517.334.025.531-1.194 1.025-1.854 1.034-.414.005-.931-.048-.943-.456-.014-.487.469-.363.912-.365a2.563 2.563 0 0 0 1.307-.547c.011 0 .044.006.061 0z" class="cls-5" transform="translate(-1513.786 -466.027)"/>
                </g>
                <g id="Group_1328-2" transform="translate(24.901 9.692)">
                    <g id="Group_1327-2" class="cls-8" transform="translate(.35 .35)">
                        <g id="Group_1325-2">
                            <path id="Path_976-2" d="M1490.336 413.083a4.029 4.029 0 1 0 3.765 4.276 4.029 4.029 0 0 0-3.765-4.276z" class="cls-9" transform="translate(-1486.051 -413.075)"/>
                        </g>
                        <g id="Group_1326-2" class="cls-10">
                            <path id="Path_977-2" d="M1490.336 413.083a4.029 4.029 0 1 0 3.765 4.276 4.029 4.029 0 0 0-3.765-4.276z" class="cls-11" transform="translate(-1486.051 -413.075)"/>
                        </g>
                    </g>
                    <path id="Path_978-2" d="M1488.012 419.409q-.142 0-.284-.009a4.365 4.365 0 1 1 .284.009zm-.012-8.059a3.681 3.681 0 1 0 .238.008c-.079-.006-.158-.008-.238-.008z" transform="translate(-1483.626 -410.65)"/>
                </g>
                <g id="Group_1332-2" transform="translate(34.713 11.107)">
                    <g id="Group_1331-2" class="cls-8" transform="translate(.35 .35)">
                        <g id="Group_1329-2">
                            <path id="Path_979-2" d="M1558.357 422.9a4.029 4.029 0 1 0 3.766 4.276 4.029 4.029 0 0 0-3.766-4.276z" class="cls-9" transform="translate(-1554.072 -422.888)"/>
                        </g>
                        <g id="Group_1330-2" class="cls-10">
                            <path id="Path_980-2" d="M1558.357 422.9a4.029 4.029 0 1 0 3.766 4.276 4.029 4.029 0 0 0-3.766-4.276z" class="cls-11" transform="translate(-1554.072 -422.888)"/>
                        </g>
                    </g>
                    <path id="Path_981-2" d="M1556.033 429.22c-.095 0-.189 0-.284-.009a4.372 4.372 0 1 1 .284.009zm-.009-8.059a3.678 3.678 0 1 0 .236.007c-.079-.004-.16-.006-.236-.006z" transform="translate(-1551.647 -420.462)"/>
                </g>
                <path id="Path_982-2" d="M1492.394 416.178c.071 0 .143 0 .214.007a3.329 3.329 0 0 1-.208 6.652c-.071 0-.143 0-.214-.007a3.33 3.33 0 0 1 .208-6.652zm0-.3a3.634 3.634 0 0 0-.227 7.26q.118.007.234.007a3.634 3.634 0 0 0 .227-7.26c-.078 0-.156-.008-.234-.008z" class="cls-12" transform="translate(-1463.122 -405.428)"/>
                <path id="Path_983-2" d="M1560.475 426.089c.071 0 .143 0 .214.007a3.329 3.329 0 0 1-.207 6.652c-.071 0-.143 0-.214-.007a3.329 3.329 0 0 1 .207-6.652zm0-.3a3.633 3.633 0 0 0-.226 7.26q.117.008.234.008a3.634 3.634 0 0 0 .227-7.26q-.117-.007-.234-.007z" class="cls-12" transform="translate(-1521.381 -413.91)"/>
                <path id="Path_984-2" d="M1487.1 410.357l-.916.128-.35 1.589 1.2.284s1 .217 1.051.225a6.063 6.063 0 0 0 .657-.325v-1.1z" class="cls-4" transform="translate(-1460.616 -400.708)"/>
                <g id="Group_1333-2" transform="translate(25.115 9.398)">
                    <path id="Path_985-2" d="M1487.918 411.439a1.286 1.286 0 0 0 .517-1.733c-.335-.748-1.243-1.04-2.3-1.092a3.374 3.374 0 0 0-.887.327c-.281.242-.068.51.141.5.348-.024.853-.022.906-.017.86.072 1.643.413 1.38 1.228-.521.024-.924-.209-1.459-.213a3.177 3.177 0 0 0-1 .146c-.442.158.917.675.917.675h.05c.58-.004 1.187.373 1.735.179z" class="cls-5" transform="translate(-1485.114 -408.614)"/>
                </g>
            </g>
        </g>
    </g>
</svg>
