<svg xmlns="http://www.w3.org/2000/svg" width="12" height="12" viewBox="0 0 12 12">
  <g id="noun_Cross_1776318" transform="translate(-340.958 145.042)">
    <g id="Group_1448" data-name="Group 1448" transform="translate(340.958 -145.042)">
      <path id="Path_1505" data-name="Path 1505" d="M34.763,975.515a.666.666,0,0,0-.941,0l-4.864,4.864-4.864-4.864a.666.666,0,1,0-.941.941l4.864,4.864-4.864,4.864a.666.666,0,0,0,.941.941l4.864-4.864,4.864,4.864a.666.666,0,1,0,.941-.941L29.9,981.32l4.864-4.864a.666.666,0,0,0,0-.941Z" transform="translate(-22.958 -975.32)" fill="rgba(0,0,0,0.5)"/>
    </g>
  </g>
</svg>
