<svg xmlns="http://www.w3.org/2000/svg" width="20" height="20" viewBox="0 0 20 20">
    <g transform="translate(-120 -357)">
        <circle cx="10" cy="10" r="10" fill="rgba(0,0,0,0.2)" transform="translate(120 357)"/>
        <path fill="rgba(255,255,255,0.9)" d="M30.111 22.6a.829.829 0 0 0-1.174 0l-2.583 2.58-2.584-2.58a.83.83 0 1 0-1.17 1.17l2.583 2.583-2.583 2.584a.83.83 0 0 0 1.17 1.173l2.583-2.583 2.583 2.583a.83.83 0 0 0 1.174-1.174l-2.583-2.583 2.583-2.583a.829.829 0 0 0 0-1.174z" transform="translate(103.646 340.647)"/>
    </g>
</svg>
