<svg xmlns="http://www.w3.org/2000/svg" width="87.346" height="100.498" viewBox="0 0 87.346 100.498">
    <defs>
        <linearGradient id="linear-gradient" x1=".5" x2=".5" y2="1" gradientUnits="objectBoundingBox">
            <stop offset="0" stop-color="#f05050"/>
            <stop offset="1" stop-color="#ff9e9e"/>
        </linearGradient>
        <style>
            .cls-4,.cls-7{fill-rule:evenodd}.cls-4{fill:#f7f7f7}.cls-6{fill:#f05050}
        </style>
    </defs>
    <g id="Svg3" transform="translate(-31.864 -482)">
        <g id="Group_1256" transform="translate(31.864 482)">
            <path id="Path_504" fill="rgba(255,225,225,0.5)" fill-rule="evenodd" d="M360.7 166.44c8.966 1.289 19.865 1.513 29.845 2.082 9.01.513 19.411 2.2 24.874-4.137 3.341-3.879 4.786-22.821 4.265-41.24-.294-10.379-.9-17.242-6.894-18.162-14.776-2.264-28.018-.924-40.2-1.847-13.493-1.023-21.434 2.143-21.8 7.935-.874 13.711-3.6 36.184-.576 46.652a12.922 12.922 0 0 0 10.486 8.717z" transform="translate(-336.181 -68.616)"/>
            <g id="Group_1105">
                <g id="Group_1099">
                    <path id="Path_582" fill="#fff" d="M1357.434 467.2l8.75 15.081h-17.5z" transform="translate(-1348.073 -466.607)"/>
                    <path id="Path_583" fill="#d6d6d6" d="M1364.215 480.989h-17.5a.611.611 0 0 1-.529-.918l8.75-15.081a.636.636 0 0 1 1.057 0l8.75 15.081a.612.612 0 0 1-.529.918zm-16.438-1.223h15.376l-7.688-13.251z" transform="translate(-1346.105 -464.707)"/>
                </g>
                <path id="Path_584" d="M1405.335 516.581c.14-.8 1.97-.01 2.659-1.01a39.352 39.352 0 0 1 2.765-4.147 10.325 10.325 0 0 1 1.436-1.383s-2.783-5.636-1.223-5.529c.724.049 1.135 1.072 2.286 1.648.358.179-.073-1.262-.053-2.606.021-1.448.493-2.8.9-2.552a14.073 14.073 0 0 0 4.467 3.084c4.218 1.645 9.422.593 13.24 6.593 3.1 4.867.568 10.5-.585 12.6-.784 1.429-8.872-11.719-8.88-11.538-.063 1.355-1.362 3.267-2.446 5s-2.461 3.393-1.382 3.775a1.925 1.925 0 0 0 1.808-.213s4.242-2.5 4.573.479-3.244 5.051-3.244 5.051a68.174 68.174 0 0 0 1.6 8.614c.779 2.224.968 4.765 3.456 5s1.329.532 1.329.532 12.908-2.409 17.441 6.7c3.721 7.477 6.912 23.646 7.391 29.724s-.073 9.911-2.18 11.592-5.882 3.294-19.941 3.138-33.594-.143-34.616-.107a2.1 2.1 0 0 1-2.074-.851c-.68-.76-.446-1.123-1.17-1.808s-1.183-.228-1.17-1.063a7.377 7.377 0 0 1 .745-2.286 2.731 2.731 0 0 1-1.383-1.383c-.389-.98 1.17-2.233 1.17-2.233s-1.421-.53-1.383-1.755 2.669-1.805 4.627-1.436a14.532 14.532 0 0 0 3.828.159 4.575 4.575 0 0 0-1.6-2.074c-.969-.489-2.573-1.889-2.02-2.605s3.616.319 3.616.319l-1.968-16.963s-17.454.61-21.27-1.489-4.508-5.456-2.818-11.751 8.667-21.482 8.667-21.482-2.89-3.479-3.244-5.371.558-3.858 1.595-3.935.834 3.581 2.606 3.722 3.408-1.12 2.286-3.35-3.522-1.98-3.882-2.712.624-2.463 2.819-2.074a5.561 5.561 0 0 1 2.978 1.223s-1.194-5.46.478-5.371a3.907 3.907 0 0 1 2.606 1.17s.535-1.092 1.329-.266a5.52 5.52 0 0 1 1.117 2.233s1.976-1.414 2.127.106.338 10.368-1.276 16.058-6.115 15.845-6.115 15.845 10.707-.366 17.175-.319 10.035.713 10.316-1.435-1.436-9.678-1.436-9.678-4.493.621-6.327-3.509-.692-5.689-.692-5.689-1.193-1.595-1.058-2.392z" class="cls-4" transform="translate(-1366.171 -492.377)"/>
                <path id="Path_585" fill="url(#linear-gradient)" fill-rule="evenodd" d="M1451.824 699.212l-1.754-12.974-6.54-.372s-2.692-5.254-2.446-8.827.8-5.581 1.276-5.743a127.8 127.8 0 0 1 13.719-.691c2.984.2 9.146-.106 9.146-.106s-1.316 3.247 4.148 3.191a17.249 17.249 0 0 0 9.2-2.765s13.123-1.816 17.973 5.8c3.485 5.47 5.8 21.8 5.8 21.8s-1.521 1.506-6.115 2.073-6.274 0-6.274 0l-2.659-.425 1.755 5.955-30.681 1.861a22.017 22.017 0 0 0-3.989-3.4c-1.407-.678-2.5-1.329-2.5-1.329z" transform="translate(-1418.562 -621.728)"/>
                <path id="Path_586" d="M1372.709 511.869c.407.008.545-.014 1.3 1.295l3.167 5.47c.8 1.376.915 1.678.688 2.062-.265.446-.458.265-2.157.319-1.79.058-4.1 0-5.906 0-1.689 0-1.787-.136-1.987-.426-.114-.164-.317-.553.32-1.7.9-1.626 2.274-4.006 3.2-5.6.795-1.377 1.023-1.427 1.375-1.42z" class="cls-6" transform="translate(-1362.578 -500.691)"/>
                <g id="Group_1100" transform="translate(5.657 7.847)">
                    <path id="Path_587" d="M1434.264 589.478h-2.871c-6.545-.406-13.264.09-20.15-.213-4.825-.212-10.168-.007-15.046-.213-1.6-.067-3.44-.162-4.36-.745-.7-.445-.72-1.255-1.17-1.808-.413-.509-.932-.5-1.223-1.169a3.07 3.07 0 0 1 .213-2.552c-.405-.556-1.065-.874-1.117-1.754a3.259 3.259 0 0 1 .851-2.074 1.544 1.544 0 0 1-1.011-1.329c-.032-.972.9-1.666 1.7-2.02 1.6-.706 4.421-.671 6.22-.479-.606-1.18-3.355-1.6-3.136-3.669.151-1.434 2.323-1.318 3.775-.957-.557-5.185-1.181-10.3-1.755-15.472-5.587-.215-11.893.251-17.013-.373-2.61-.318-4.88-.957-6.38-2.339s-2.014-3.787-1.755-6.752a35.715 35.715 0 0 1 1.542-7.125 107.411 107.411 0 0 1 7.763-18.4 12.631 12.631 0 0 1-3.031-4.838c-.565-1.917-.216-5.407 2.18-5.263.88.053 1.263.966 1.436 1.648.126.5.094 1.624.478 2.02a1.726 1.726 0 0 0 2.286-.425 2.534 2.534 0 0 0-.638-2.978c-.885-.76-3.07-.687-3.19-2.179a2.237 2.237 0 0 1 1.223-1.968 4.832 4.832 0 0 1 4.465.053c-.714-2.257-.088-5.093 2.393-4.732.671.1.877.55 1.329.957 1.461-.707 2.3.782 2.552 1.967 3.08-1.246 2.724 2.385 2.6 4.892-.089 1.866-.09 3.268-.212 4.785a50.381 50.381 0 0 1-1.382 8.613 60.97 60.97 0 0 1-5.21 13.451c-.128.239-.417.449-.319.744a164.935 164.935 0 0 1 19.353-.478c2.133.074 4.819.2 6.114-.585 1.439-.875.46-3.768.16-5.21-.332-1.591-.569-2.929-.9-4.359-5.64.145-7.317-3.885-7.071-9.251-.157-.927-1.479-1.734-1.063-3.03.3-.928 1.681-.626 2.445-1.011s1.041-1.493 1.542-2.339a12.3 12.3 0 0 1 1.754-2.18 10.137 10.137 0 0 1 5.051-2.818 7.522 7.522 0 0 1 2.286.638c.747.251 1.579.588 2.127.8 1.04.4 3.11.989 3.3 2.552a3.392 3.392 0 0 1-1.063 2.446c-1.452 1.766-3.174 3.029-3.509 5.742.642.141 1.067-.383 1.808-.319a5 5 0 0 1 1.648-.957 2.887 2.887 0 0 1 3.3 1.595c.984 2.092-.971 4.09-2.127 4.838-.376.243-.976.384-1.063.638-.215.63.441 1.581.319 2.127 3.671-.914 6.706-2.336 8.453-5.21a12.777 12.777 0 0 0 .532-11.059c-1.412-3.069-4.259-4.9-7.816-5.9-1.764-.5-3.723-.632-5.529-1.329a11.446 11.446 0 0 1-3.562-2.393c-.269-.242-.236-.33-.426-.159a2.6 2.6 0 0 0-.425 1.6c.008 1.175.954 2.521 0 3.084h-.106c-1.213.083-1.681-1.383-2.552-1.276a4.969 4.969 0 0 0 .425 1.755c.109.232.792 1.213.053 1.435-.836.252-1.351-1.248-1.542-1.967-.439-1.657.24-3.274 1.914-2.339.278.155.471.473.744.425a6.481 6.481 0 0 1-.159-1.382c.042-.9.725-3.062 1.6-3.084.377-.009.734.469 1.063.8a10 10 0 0 0 3.3 2.286c1.84.754 4.11.907 6.008 1.489 3.91 1.2 6.783 3.348 8.24 6.7a13.989 13.989 0 0 1-.744 12.069c-1.931 3.094-5.214 4.729-9.251 5.688.8 2.965.817 6.61 2.5 8.667 1.3 1.587 4.72 1.02 7.284 1.116a21.049 21.049 0 0 1 5.21.851c9.38 2.8 11.068 12.981 13.239 23.181.7 3.286 1.431 6.74 1.914 10.208.444 3.181.975 7.819.16 11.272-1.603 6.724-9.02 6.951-16.975 7.329zm-44.181-77.411c.12.768.71 2.482-.266 2.5-.8.014-.866-1.881-1.01-2.764-.385-2.357-.593-4.4-1.01-6.646-.171-.918-.436-2.58-1.276-2.552-1.221.04-1.011 1.5-.85 2.711a15.4 15.4 0 0 0 .213 1.808 4.4 4.4 0 0 0 .478.691 8.658 8.658 0 0 1 1.33 4.52c.042.552.177 1.658-.638 1.595-.723-.056-.534-1.435-.638-2.286-.316-2.59-1.492-4.659-3.987-4.891-1.282-.119-1.92.23-2.339 1.17 1.839.707 3.819 1.5 4.04 3.881a3.539 3.539 0 0 1-.319 1.914 2.922 2.922 0 0 1-3.774 1.117c-1.221-.632-.988-2.4-1.648-3.669a1.834 1.834 0 0 0-1.116 1.755c-.3 2.964 1.754 4.944 3.19 6.38.47.47 1.377 1.01 1.329 1.542-.084.95-1.252.324-1.541.053-3.155 6.383-6.6 13.413-8.4 21.427-.589 2.616-1.2 6.256.16 8.4 1.2 1.9 4.065 2.476 6.965 2.765a93.231 93.231 0 0 0 9.464.266 24.285 24.285 0 0 1-1.968-7.6 19.843 19.843 0 0 1 1.382-8.241c-1.407.133-2.687.168-4.253.319-.87.084-3.682.845-3.562-.372.069-.7 1.355-.615 2.127-.691.928-.092 1.753-.18 2.552-.266a61.81 61.81 0 0 0 5.742-13.93 61 61 0 0 0 1.755-12.973 17.6 17.6 0 0 0-.159-4.679 3.354 3.354 0 0 0-.9.213 57.14 57.14 0 0 1 .691 6.965c.02.74.206 1.878-.532 1.914-.879.043-.695-1.788-.744-2.711a28.44 28.44 0 0 0-1.01-7.443c-.132-.37-.338-.944-.851-.851.446 2.375.935 5.85 1.372 8.659zm19.991 12.866a8.93 8.93 0 0 0 5.476-1.648 4.978 4.978 0 0 1 1.276-.745 6.738 6.738 0 0 1 .9.054c2.165-.035 3.922-.956 4.626-2.446a1.725 1.725 0 0 0-1.329-2.552 2.305 2.305 0 0 0-1.542.744c-.563.46-1.372 1.582-1.967.531-1.432.481-2.133-.633-1.914-1.861.359-2.016 2.108-3.967 3.4-5.476.444-.516 1.21-1.307 1.17-1.808-.035-.432-.846-.916-1.222-1.116a23.251 23.251 0 0 0-3.4-1.33c-.585-.2-1.579-.634-2.073-.425-2.556 1.08-4.11 2.033-5.423 4.2a17.052 17.052 0 0 1-1.17 2.073 4.621 4.621 0 0 1-2.818 1.329c.116.836 1.05 1.306 1.17 2.127.084.573-.221 1.124-.107 1.914a8.7 8.7 0 0 0 1.861.107c.982-.11 1.873-1.12 2.5-1.01a.644.644 0 0 1 .478.585c0 .5-.759.844-1.17 1.063a5.159 5.159 0 0 1-3.562.479c.347 3.126 2.027 5.01 4.839 5.212zm6.912-1.117a13.372 13.372 0 0 1-4.678 2.18c.12 2.2 1.7 5.856 1.488 8.454a3.02 3.02 0 0 1-2.658 2.818c-.608 4.746 4.926 4.691 8.453 3.562a15.361 15.361 0 0 0 5.264-3.137c-3.221-.7-3.785-4.106-4.519-7.444-.408-1.85-.812-3.9-1.063-5.741-.034-.248.073-.647-.212-.8a10.065 10.065 0 0 1-2.076.109zm-27.754 13.984a18.313 18.313 0 0 0-1.542 8.188 22.366 22.366 0 0 0 2.127 7.762c1.664.089 3.467.042 5.21.053-.055-.612-.287-1.672.531-1.648.64.018.654 1.124.744 1.914.642 5.631 1.319 11.611 1.914 16.907a16.933 16.933 0 0 1 5 3.3c.473.445.972 1.237 1.435 1.329a11.047 11.047 0 0 0 1.807-.107c9.016-.479 18.538-1.359 27.275-1.808-1.083-4.428-2.2-8.985-3.35-13.4-.149-.572-.429-1.594.373-1.6.727 0 .81 1.383.957 1.967.608 2.415 1.251 4.729 1.807 7.018a23.7 23.7 0 0 0 6.061.851 14.877 14.877 0 0 0 9.251-3.243c-2.42-10.118-3.034-22.068-11.537-25.946-2.8-1.276-6.554-1.667-10.952-1.489a13.088 13.088 0 0 1-4.732 3.456c-4.106 2.015-12.24 2.55-11.7-3.828-6.771.138-14.018-.239-20.679.324zm1.914 41.045c.026.861-1.539 1.035-1.329 2.18.114.622 1.255.556 1.329 1.275.078.761-.987 1.463-.585 2.5.139.359.808.525 1.116.957.35.49.386 1.148.745 1.436.7.564 2.959.59 4.466.638 5.173.162 10.207.16 15.153.159 6.89 0 13.477.213 20.2.213 6.783 0 13.821-.174 16.641-3.775a7.414 7.414 0 0 0 1.329-3.775c.645-5.349-.393-8.944-1.117-13.93 0-.032-.008-.063-.053-.054a16.133 16.133 0 0 1-6.752 2.871 25.421 25.421 0 0 1-8.453-.425c.457 1.421.748 3.009 1.17 4.466.747-.038 1.781-.084 2.818-.16.846-.061 2.244-.366 2.233.532-.008.658-1.116.653-1.648.691-.923.067-1.769.14-2.18.159-4.615.22-9 .584-13.292.851-5.255.327-10.314.767-15.418 1.01a16.387 16.387 0 0 0-2.286.106c-.375.077-.5.326-.9.266-.281-.042-.718-.612-1.01-.9a22.435 22.435 0 0 0-3.137-2.659 8.6 8.6 0 0 0-5.742-1.914c.2 1.214 1.3 1.32 2.18 2.021a8.495 8.495 0 0 1 1.329 1.808c.217.313.445.308.373.691-.129.686-1.269.348-2.021.266-2.51-.275-5.813-.3-6.646 1.276.405.584 1.465.487 1.487 1.22z" class="cls-7" transform="translate(-1369.973 -497.819)"/>
                    <path id="Path_588" d="M1545.37 544c1.072-.155 2.569 1.34 2.712 2.5.126 1.02-.162 2.278-1.011 1.648-.3-.222-.118-.774-.212-1.435a1.993 1.993 0 0 0-.851-1.223c-.369-.228-1.205-.256-1.223-.9-.014-.49.369-.561.585-.59z" class="cls-7" transform="translate(-1503.356 -533.045)"/>
                    <path id="Path_589" d="M1576.289 586.193c.089-.005.519-.054.638.319.207.648-.5.912-1.01 1.17-.492.247-1.929 1.037-1.967 0-.02-.518.689-.745 1.01-.9a3.3 3.3 0 0 1 1.329-.589z" class="cls-7" transform="translate(-1525.609 -565.246)"/>
                </g>
                <g id="Group_1101" transform="translate(26.544 67.648)">
                    <path id="Path_590" d="M1486.255 775.223h-22.987l11.493-19.907z" class="cls-6" transform="translate(-1462.045 -754.092)"/>
                    <path id="Path_591" d="M1470.824 751.377l11.494 19.908h-22.987l11.493-19.908zm0-1.223a1.223 1.223 0 0 0-1.059.612l-11.493 19.908a1.223 1.223 0 0 0 1.059 1.834h22.987a1.223 1.223 0 0 0 1.059-1.834l-11.494-19.908a1.224 1.224 0 0 0-1.059-.612z" transform="translate(-1458.108 -750.154)"/>
                </g>
                <g id="Group_1102" transform="translate(40.919 71.423)">
                    <path id="Path_592" fill="#f5f5f5" fill-rule="evenodd" d="M1533.6 771.24a9.677 9.677 0 1 1-9.678 9.678 9.677 9.677 0 0 1 9.678-9.678z" transform="translate(-1522.703 -770.017)"/>
                    <path id="Path_593" d="M1529.667 767.3a9.678 9.678 0 1 1-9.677 9.678 9.677 9.677 0 0 1 9.677-9.678zm0-1.223a10.9 10.9 0 1 0 10.9 10.9 10.913 10.913 0 0 0-10.9-10.9z" transform="translate(-1518.766 -766.08)"/>
                </g>
                <g id="Group_1103" transform="translate(56.286 77.963)">
                    <path id="Path_594" fill="#ef9a9a" fill-rule="evenodd" d="M1588.769 798.837h12.655v12.656h-12.655z" transform="translate(-1587.546 -797.614)"/>
                    <path id="Path_595" d="M1597.487 794.9v12.655h-12.655V794.9zm0-1.223h-12.655a1.223 1.223 0 0 0-1.223 1.223v12.655a1.223 1.223 0 0 0 1.223 1.223h12.655a1.222 1.222 0 0 0 1.223-1.223V794.9a1.223 1.223 0 0 0-1.223-1.223z" transform="translate(-1583.609 -793.677)"/>
                </g>
                <path id="Path_596" d="M1537.307 556.037a.953.953 0 0 1 .171 1.337l-.578.785a.931.931 0 1 1-1.5-1.1l.578-.785a.953.953 0 0 1 1.329-.237z" class="cls-7" transform="translate(-1490.39 -534.259)"/>
                <path id="Path_597" d="M1496.354 793.487c-.242.144-30.363 1.861-30.363 1.861s-2.309-2.986-4.041-3.935-5.7-2.459-6.381-1.276.538 1.782 1.33 2.339a16.971 16.971 0 0 1 2.286 2.606s-4.227-1.407-6.806.159-.266 2.552-.266 2.552-1.415 1.3-1.064 2.446a1.976 1.976 0 0 0 1.117 1.382 2.042 2.042 0 0 0-.213 2.446 9.158 9.158 0 0 0 1.17 1.435s-1.064 1.612 2.18 1.861 36.958.765 43.23.478 12.809-1.033 13.772-6.806-1.064-16.111-1.064-16.111-2.147 5.906-5.264 7.285a9.125 9.125 0 0 1-4.36.692s-5.022.442-5.263.586z" class="cls-4" transform="translate(-1426.136 -709.037)"/>
                <g id="Group_1104" transform="translate(24.154 66.324)">
                    <path id="Path_598" d="M1493.845 777.743h-2.871c-3.18-.1-6.658-.159-10.1-.159-3.256 0-6.719.112-10.208-.053-4.824-.228-10.351-.037-15.153-.266-1.762-.084-3.431-.158-4.307-.85-.544-.43-.574-1.176-.957-1.648-.289-.357-.958-.5-1.222-1.064a3.348 3.348 0 0 1 .213-2.711c-.376-.421-.816-.642-1.01-1.276a2.572 2.572 0 0 1 .744-2.446c-1.638-.739-.906-2.571.319-3.243 1.545-.847 4.646-.856 6.593-.638-.287-.74-1.351-.984-2.073-1.595a2.564 2.564 0 0 1-1.064-2.18c.216-1.13 1.835-1.257 3.243-.957 3.1.659 5.08 2.372 7.019 4.147.241.221.89 1 1.17 1.063a11.07 11.07 0 0 0 1.914-.107c.623-.029 1.3-.114 1.914-.159 7.9-.584 15.639-1.058 23.287-1.542 1.343-.085 2.706.047 3.828-.106.94-.128 1.773-.233 2.977-.319.779-.056 1.512-.133 1.542.532.033.719-1.019.7-1.595.745-.936.065-1.719.079-2.233.106-8.947.479-17.7 1.139-26.477 1.755a42.831 42.831 0 0 0-4.466.266c-.407.076-.513.3-.9.266-.368-.035-.692-.579-1.01-.9a21.23 21.23 0 0 0-3.19-2.658 8.584 8.584 0 0 0-5.742-1.914c.211 1.225 1.356 1.354 2.233 2.073a5.517 5.517 0 0 1 1.117 1.435c.248.382.636.657.532 1.064-.159.616-1.295.292-2.021.212-2.506-.275-5.746-.284-6.646 1.223.319.626 1.427.55 1.488 1.223.085.93-1.491.978-1.329 2.18.1.714 1.217.551 1.329 1.276.131.847-.95 1.43-.584 2.5.15.438.766.494 1.116.957.378.5.361 1.181.744 1.488.717.574 2.986.591 4.466.638 5.112.161 10.22.16 15.153.16 6.818 0 13.453.213 20.2.213 6.562 0 13.8-.147 16.641-3.775a7.488 7.488 0 0 0 1.329-3.775c.655-5.438-.415-8.994-1.117-13.93a18.078 18.078 0 0 1-13.45 2.711c-.4-.1-.847-.474-1.489-.319a4.324 4.324 0 0 0-.479-1.33 31.463 31.463 0 0 0 5.849.744 15.39 15.39 0 0 0 9.3-3.19c-.591-3.042-1.252-6.014-1.861-9.039a12.345 12.345 0 0 1 1.382.585c.719 3.6 1.572 7.24 2.233 11.006a48.385 48.385 0 0 1 .957 12.175c-.338 4.365-2.245 6.489-5.477 7.762s-7.52 1.511-11.801 1.644z" class="cls-7" transform="translate(-1448.023 -744.567)"/>
                    <path id="Path_599" d="M1627 761.5c-.09-.105-.163-.227-.319-.266-.422.18-.257.948-.691 1.116-.436-1.609-.971-3.657-1.435-5.529-.139-.56-.9-2.634.426-2.286.451.119.6 1.247.691 1.6.462 1.85.908 3.571 1.328 5.365z" class="cls-7" transform="translate(-1582.458 -752.144)"/>
                    <path id="Path_600" d="M1636.209 785.172c.052 0 .042.066.054.107a4.482 4.482 0 0 0 .212.744c-.068.292-.229-.59-.266-.851z" class="cls-7" transform="translate(-1591.611 -775.549)"/>
                </g>
            </g>
        </g>
        <path id="Path_601" stroke="#000" d="M218.854 1579.584l-.929-4.336 2.856 1.652.206-5.265 3.544 2.994 5.128 1.2 5.231 1.617 3.372 3.648 1.445 6.366-2.581 6.366-4.37 2.959-3.82 1.273-.241-2.65 3.648-1.824.413-2.891-1.756-1.887-3.338-.241-1.617 1.583-.791-.31 2.168-3.476 1.962-2.168 1.2-1.755-.757-2.237-4.13-1.514-4.267-.929z" transform="translate(-141.064 -1080.282)"/>
    </g>
</svg>
