<svg xmlns="http://www.w3.org/2000/svg" width="16" height="14.649" viewBox="0 0 16 14.649">
    <defs>
        <style>
            .cls-2{fill:#f05050}
        </style>
    </defs>
    <g id="Group_1746" transform="translate(-7278 -3474)">
        <path id="Union_5" fill="#fff" d="M4.187 13.72l.473-1.89h-.6A4.039 4.039 0 0 1 0 7.833V3.979A4.023 4.023 0 0 1 4.059 0H13a3 3 0 0 1 3 3v5.029a4.031 4.031 0 0 1-4.054 3.8H9.684l-4.333 2.694a.77.77 0 0 1-.419.126.756.756 0 0 1-.745-.929z" transform="translate(7278 3474)"/>
        <g id="Group_1739" transform="translate(7283.009 3477.611)">
            <g id="Group_1478" transform="translate(.031)">
                <path id="Path_505" d="M1078.848 440.514h4.519a.762.762 0 1 0 0-1.514h-4.519a.762.762 0 1 0 0 1.514z" class="cls-2" transform="translate(-1078 -439)"/>
            </g>
            <g id="Group_1479" transform="translate(0 2.844)">
                <path id="Path_506" d="M1085.556 454.584h2.816a.792.792 0 0 0 0-1.584h-2.816a.792.792 0 0 0 0 1.584z" class="cls-2" transform="translate(-1084.782 -453)"/>
            </g>
        </g>
    </g>
</svg>
