<svg xmlns="http://www.w3.org/2000/svg" width="13.708" height="12.55" viewBox="0 0 13.708 12.55">
  <g id="Group_1746" data-name="Group 1746" transform="translate(-7278 -3474)">
    <path id="Union_5" data-name="Union 5" d="M3.587,11.755l.406-1.62H3.478A3.46,3.46,0,0,1,0,6.71v-3.3A3.447,3.447,0,0,1,3.478,0h7.231a3,3,0,0,1,3,3V6.879h0a3.453,3.453,0,0,1-3.473,3.256H8.3L4.585,12.443a.662.662,0,0,1-.36.108A.647.647,0,0,1,3.587,11.755Z" transform="translate(7278 3474)" fill="#f05050"/>
    <g id="Group_1739" data-name="Group 1739" transform="translate(7282.284 3477.09)">
      <g id="Group_1478" data-name="Group 1478" transform="translate(0.027 0)">
        <path id="Path_505" data-name="Path 505" d="M1078.729,440.3h3.883a.655.655,0,1,0,0-1.3h-3.883a.655.655,0,1,0,0,1.3Z" transform="translate(-1078 -439)" fill="#fff"/>
      </g>
      <g id="Group_1479" data-name="Group 1479" transform="translate(0 2.444)">
        <path id="Path_506" data-name="Path 506" d="M1085.447,454.361h2.42a.681.681,0,0,0,0-1.361h-2.42a.681.681,0,0,0,0,1.361Z" transform="translate(-1084.782 -453)" fill="#fff"/>
      </g>
    </g>
  </g>
</svg>
