<svg xmlns="http://www.w3.org/2000/svg" width="16" height="14.649" viewBox="0 0 16 14.649">
    <defs>
        <style>
            .cls-2{fill:#fff}
        </style>
    </defs>
    <g id="Group_1754" transform="translate(-7278 -3474)">
        <path id="Union_5" fill="rgba(0,0,0,0.5)" d="M6.687 13.72l.473-1.89h-.6a4.039 4.039 0 0 1-4.059-4V3.979A4.023 4.023 0 0 1 6.559 0H14.5a4 4 0 0 1 4 4v4.029a4.031 4.031 0 0 1-4.054 3.8h-2.262l-4.332 2.694a.77.77 0 0 1-.419.126.756.756 0 0 1-.746-.929z" transform="translate(7275.5 3474)"/>
        <g id="Group_1739" transform="translate(6122.773 3450.781)">
            <g id="Group_1478" transform="translate(1160.258 26.826)">
                <path id="Path_505" d="M1078.851 440.518h4.532a.764.764 0 1 0 0-1.518h-4.532a.764.764 0 1 0 0 1.518z" class="cls-2" transform="translate(-1078 -439)"/>
            </g>
            <g id="Group_1479" transform="translate(1160.227 29.678)">
                <path id="Path_506" d="M1085.559 454.589h2.824a.795.795 0 0 0 0-1.589h-2.824a.795.795 0 0 0 0 1.589z" class="cls-2" transform="translate(-1084.782 -453)"/>
            </g>
        </g>
    </g>
</svg>
