<svg xmlns="http://www.w3.org/2000/svg" width="99.073" height="99.065" viewBox="0 0 99.073 99.065">
    <defs>
        <linearGradient id="linear-gradient" x1=".5" x2=".5" y2="1" gradientUnits="objectBoundingBox">
            <stop offset="0" stop-color="#f05050"/>
            <stop offset="1" stop-color="#ff9e9e"/>
        </linearGradient>
        <style>
            .cls-2,.cls-4{fill-rule:evenodd}.cls-2{fill:#fff}.cls-5{fill:#0f0f0f}
        </style>
    </defs>
    <g id="Group_1170" transform="translate(-36 -209.435)">
        <path id="Path_492" fill="#ffe1e1" fill-rule="evenodd" d="M362.679 177c10.457 1.5 23.168 1.765 34.808 2.428 10.509.6 22.638 2.571 29.011-4.825 3.9-4.524 5.582-26.616 4.974-48.1-.342-12.105-1.048-20.11-8.04-21.182-17.234-2.641-32.677-1.078-46.881-2.154-15.737-1.193-25 2.5-25.429 9.255-1.019 15.991-4.2 42.2-.672 54.41 1.561 5.398 6.75 9.379 12.229 10.168z" transform="translate(-309.552 121.101)"/>
        <g id="Group_851" transform="translate(36 209.435)">
            <path id="Path_469" d="M386.083 208.953l39.611 4.229s10.343 4.022 16.635 2.488 10.43-7.281 9.17-15.026-8.237-29.449-14.293-35.514-21.367-10.295-21.367-10.295a12.951 12.951 0 0 1-2.44-3.708 11.318 11.318 0 0 1-.586-3.511s2.617-1.708 2.733-3.318.877-1.511.877-1.511 4.561-7.8.049-13.611-5.121-4.733-5.121-4.733l1.562-3.609-2.831 1.317-1.268-4-1.415 3.61s-8.956-2.884-13.853 1.463-5.048 7.207-6.684 7.757a11.082 11.082 0 0 1-3.219.536l1.457 2.783-3.122 1.221s2.906 2.335 4.245 2.682a6.825 6.825 0 0 1 2.44 1.318 40.888 40.888 0 0 0 2.633 9.561 18.521 18.521 0 0 0 4.586 6.293s-7.6.579-10.391 2.586-9.709 8.879-9.709 8.879-.409-3.163-.438-4.928 1.365-6.382.487-6.683a1.841 1.841 0 0 0-1.365-.049l-5.464 6.391s-13.874-4.072-14.83-2.781.1 2.975.1 2.975a17.941 17.941 0 0 0-.292 1.9 5.112 5.112 0 0 0 .39 1.951 2.654 2.654 0 0 0 .195 1.61 10.762 10.762 0 0 0 .829 1.805 6.519 6.519 0 0 0 1.951 5.61c2.528 2.2 5.092 3.62 4.831 4.243s-4.5 8.168-5.758 13.708-2.2 11.611 3.024 14.246 11.763.272 15.319-2.292 10.1-13.708 10.1-13.708z" class="cls-2" transform="translate(-352.985 -117.843)"/>
            <path id="Path_470" fill="url(#linear-gradient)" fill-rule="evenodd" d="M358.909 176.978a6.494 6.494 0 0 0 5.57 2.192 17.91 17.91 0 0 0 6.94-2.877s2.717-6.845 3.288-8.676.639-7.762.639-7.762 6.281-11.415 11.508-13.242a31.438 31.438 0 0 1 10.547-1.644s.3 8.946 9.223 8.311a22.076 22.076 0 0 0 14.337-7.214s11.956 4.147 16.666 11 10.846 20.93 11.4 31.219c.5 9.281-1.315 12.148-6.289 14.213-5.38 2.232-12.01-.366-12.01-.366a23.044 23.044 0 0 0 2.466-7.169 50.3 50.3 0 0 0-.41-8.447l-3.424-1.69-14.474-3.105s-.491-10.352-3.79-12.966a6.53 6.53 0 0 0-6.438-1.234l-6.713.639-1.781 2.6-2.739 7.306 5.16 6.894 9.269 2.785a4.111 4.111 0 0 0 .458 2.877c.821.989 11.874 7.589 13.013 7.945s1.78 2.146 1.78 2.146l-38.08-4.521-.32-18.446s-5.319 11.834-11.369 14.84-15.235 5.234-18.629-2.649c-1.854-4.3 2.694-14.7 2.694-14.7z" transform="translate(-352.753 -105.084)"/>
            <path id="Path_471" d="M378.506 137.634l-4.1-2.635 3.221-.341-1.317-1.9a3.715 3.715 0 0 0 3.073-1.951c1.077-1.957 5.021-9.478 12.342-8.831 5.057.449 5.465 1.123 5.465 1.123l1.463-3.758.633 2.88s3.536-1.7 3.367-1.415-1.317 3.172-1.317 3.172 6.851 5.818 6.586 10.585a29.4 29.4 0 0 1-1.8 8.538s-1.6-2.8-2.927-2.245a4.284 4.284 0 0 0-1.951 2.292l-1.367 1.951-2.488-8.391s-.121-3.169-2.39-3.17-5.17 1.944-8.332 2.857-6.938-.809-6.938-.809z" class="cls-4" transform="translate(-343.166 -117.277)"/>
            <path id="Path_472" d="M387.069 135.677a1.059 1.059 0 0 1 1.294.747l.39 1.458a1.056 1.056 0 1 1-2.04.546l-.391-1.457a1.057 1.057 0 0 1 .747-1.294z" class="cls-4" transform="translate(-337.512 -109.519)"/>
            <path id="Path_473" d="M381.038 135.609a1.058 1.058 0 0 1 1.294.747l.39 1.458a1.056 1.056 0 1 1-2.041.546l-.39-1.457a1.057 1.057 0 0 1 .747-1.294z" class="cls-4" transform="translate(-340.383 -109.551)"/>
            <g id="Group_842" transform="translate(3.133 34.295)">
                <g id="Group_839" transform="translate(.617 .615)">
                    <path id="Path_474" d="M357.436 141.6h12.076a1.575 1.575 0 0 1 1.654 1.479l-1.277 17.021a.715.715 0 0 1-.689.738h-10.7c-.381 0-.229-.667-.229-1.074l-.7-2.034.2-1.805-.906-4.032-1.074-8.822a1.575 1.575 0 0 1 1.645-1.471z" class="cls-2" transform="translate(-355.781 -141.595)"/>
                </g>
                <g id="Group_841">
                    <g id="Group_840">
                        <path id="Path_475" d="M369.4 161.656h-10.7a.828.828 0 0 1-.614-.261 1.507 1.507 0 0 1-.243-1.182c0-.052.007-.1.01-.152l-.716-2.061.2-1.842-.9-3.992-1.079-8.9a2.19 2.19 0 0 1 2.271-2.094h12.076a2.19 2.19 0 0 1 2.271 2.094l-1.276 17.081a1.32 1.32 0 0 1-1.3 1.309zm-10.34-1.234h10.34c.03 0 .074-.047.074-.121l1.277-17.075a.965.965 0 0 0-1.039-.816h-12.078a.973.973 0 0 0-1.038.829l1.066 8.748.922 4.1-.192 1.771.691 2v.1c0 .1-.007.217-.016.337z" class="cls-5" transform="translate(-355.363 -141.178)"/>
                    </g>
                </g>
            </g>
            <path id="Path_476" fill="#f05050" fill-rule="evenodd" d="M356.611 146.514l13.291.14-.58 6.339-11.921-.012z" transform="translate(-351.636 -104.344)"/>
            <g id="Group_843">
                <path id="Path_477" d="M409.9 121.62a8.772 8.772 0 0 0 1.736-.822c.5-.261 2.057-1.293 2.328-.273.156.583-.455 1.421-.731 1.963-.356.7-.636 1.263-.914 1.78 2.742 2.6 5.681 5.64 6.484 10.227.661 3.772-.788 7.4-2.238 9.952-.818 1.441-1.339 2.872-2.875 3.561a8.305 8.305 0 0 0 2.921 6.484 14.47 14.47 0 0 1 4.017 1.049c8.829 3.135 16.333 7.54 21.047 14.883a51.975 51.975 0 0 1 3.47 6.8 92.924 92.924 0 0 1 5.57 14.975 44.368 44.368 0 0 1 1.553 8.72c.4 7.158-1.6 11.666-6.255 14.2a15.86 15.86 0 0 1-8.4 1.873 29.161 29.161 0 0 1-8.583-1.69 81.771 81.771 0 0 1-13.971-6.574c-2.01-1.145-4.508-2.45-6.07-4.2a6.3 6.3 0 0 1-1.6-3.516 12.268 12.268 0 0 1 .456-4.565c-2.4-.562-4.51 1.061-6.848.822-1-.1-2.184-.726-1.872-2.146a2.319 2.319 0 0 1-1.917-3.561c-.608-.646-1.514-.992-1.324-2.373.2-1.448 1.669-2.609 3.012-3.287a14.5 14.5 0 0 1 4.931-1.371c-1.421-.562-3.114.058-4.428-.09-1.784-.2-3.449-2.773-1.461-3.882 1.672-.931 5.186-.908 7.669-.776 4.217.226 7.2 1.262 8.675 4.11a9.767 9.767 0 0 1 .821 3.423 64.019 64.019 0 0 0 1.37 7.123c4.279.9 8.63 1.719 12.966 2.556a89.579 89.579 0 0 0-3.972-12.418c-.233-.6-1.03-2.087.091-2.146.624-.032.8.785 1.051 1.415a95.179 95.179 0 0 1 3.194 9.132 33 33 0 0 1 1.051 3.834 1.484 1.484 0 0 1-.046.776 38.636 38.636 0 0 0 5.479 1.37c.651.109 1.43.146 1.461.776.068 1.37-2.444.313-3.2.275a24.17 24.17 0 0 1 0 8.354 17.716 17.716 0 0 1-2.877 6.3 20.282 20.282 0 0 0 11.459.183 10.471 10.471 0 0 0 6.94-6.255c1.222-3.359.959-7.945.274-11.732-1.352-7.479-3.914-13.533-6.711-19.679a39.083 39.083 0 0 0-4.794-8.4c-3.967-4.871-9.371-8.188-15.57-10.82-1.553 1.356-3.125 2.847-4.93 4.153a26.581 26.581 0 0 1-5.845 3.243 15.355 15.355 0 0 1-7.716 1.1c-4.323-.717-7.313-3.319-7.577-8.264a1.779 1.779 0 0 1 .137-1.049c-.425-.444-1.035-.282-1.6-.275-4.581.058-8.295.946-11.323 2.831a23.491 23.491 0 0 0-6.984 7.3 5.6 5.6 0 0 0-.776 1.234 14.175 14.175 0 0 0-.046 1.871 84.816 84.816 0 0 1-1.734 11.5c-.6 3-1.392 6.161-2.192 9.177-.26.979-.462 3.06-1.553 2.465-.9-.49.444-2.624.412-3.334a21.186 21.186 0 0 1-2.877 1.919 8.348 8.348 0 0 1-3.927.866c-3.034-.078-4.745-1.815-6.528-3.2a31.046 31.046 0 0 0-1.963 6.026 15.25 15.25 0 0 0 .046 7.077c1.218 3.936 5.44 5.722 10.683 4.977 6.732-.959 10.633-5.31 13.834-10.091a35.373 35.373 0 0 0 2.236-3.743 7.873 7.873 0 0 0 .641-1.324 9.527 9.527 0 0 0-.183-1.78c-.3-2.868-.618-5.7-.959-8.676-.118-1.038-.579-3.114.456-3.014.931.092.859 2.317.959 3.288.921 8.848 1.994 18.111 2.877 26.844-.447-.04-.9-.077-1.37-.092-.506-4.654-.987-9.329-1.507-13.97-2.415 4.134-5.173 8.126-9.132 10.912a17.313 17.313 0 0 1-7.167 2.922c-6.42 1.039-11.853-1.492-12.92-6.757a20.156 20.156 0 0 1 .685-8.9c1.21-4.507 3.482-8.212 5.433-12.19a5.771 5.771 0 0 0 .731-1.78c-.068-.589-1.591-1.342-2.192-1.78-2.069-1.511-4-3.454-4.336-6.62-.028-.26.052-.573 0-.868a9.938 9.938 0 0 0-.686-1.278 4.115 4.115 0 0 1-.41-1.507c-.016-.368.13-.615.091-.959a6.9 6.9 0 0 0-.365-.912 3.341 3.341 0 0 1-.137-1.461 7.36 7.36 0 0 0 .273-.959 3.228 3.228 0 0 0-.365-.822c-.643-1.625.1-3.8 1.963-3.88a2.572 2.572 0 0 1 2.648 2.465 14.078 14.078 0 0 0-.044 1.415c.065.353.481.605.638 1.051a3.846 3.846 0 0 1 .183 1.141 6.515 6.515 0 0 0-.091.959c.062.378.527.694.685 1.1a3.408 3.408 0 0 1-.092 2.556 7.523 7.523 0 0 1 .593 1.051c.308.889.5 3.719-.5 3.834-.936.108-.753-.859-.685-1.734a3.4 3.4 0 0 0-.41-2.146 1.435 1.435 0 0 0-1.507-.548c-.931.341-.2 2.546.046 3.1 1.1 2.53 3.043 3.557 5.023 5.16a1.886 1.886 0 0 1 1 1.78 6.434 6.434 0 0 1-.868 2.329c-1.043 2.17-2.167 4.2-3.2 6.346a9.384 9.384 0 0 0 2.922 2.373 6.291 6.291 0 0 0 4.2.868 9.84 9.84 0 0 0 5.067-2.877 5.614 5.614 0 0 0 1.232-1.37 11.6 11.6 0 0 0 .412-1.871 121.332 121.332 0 0 0 2.419-13.286 28.169 28.169 0 0 0-.319-8.309 11.751 11.751 0 0 1-.137-4.109c.205-1.25.645-2.376.776-3.607-2.335.139-2.977 2.462-3.151 4.794a17.58 17.58 0 0 0 0 2.146c.055.884.2 1.77-.593 1.781-.93.013-.872-2.1-.821-3.2.125-2.7.545-4.569 2.007-5.935.76-.707 3.251-1.708 3.836-.137a4.8 4.8 0 0 1-.274 2.6 13.071 13.071 0 0 0-.548 2.465c-.153 2.085.533 3.409.639 5.387 3.917-5.625 8.949-10.135 18.353-10.272-.307-.416-.732-.815-1.141-1.278-2.283-2.589-3.711-6.194-4.521-10.41-.136-.711-.305-1.843.639-1.643.573.12.626 1.041.776 1.734 1.035 4.738 2.893 8.994 6.209 11.323a6.524 6.524 0 0 0 3.653 1.37c3.871.167 6.286-2.291 7.9-4.658.258-.379.68-1.256 1.187-1.278a.717.717 0 0 1 .639.412c.254.677-.615 1.621-.958 2.1a11.572 11.572 0 0 1-5.158 4.155 12.625 12.625 0 0 0 .593 1.461c.245.55.992 1.889-.137 1.919-.627.015-.874-.837-1.1-1.325-.292-.645-.438-1.134-.731-1.643a8.1 8.1 0 0 1-4.2-.092c.142 3.021 1.212 5.207 3.287 6.392a11.316 11.316 0 0 0 8.035.775c4.981-1.269 8.7-4.417 11.871-7.4a20.371 20.371 0 0 0-2.421-.866 9.463 9.463 0 0 0-3.15-.776c-.373-.006-1.17-.933-1.507-1.325a8.968 8.968 0 0 1-2.237-5.8c-.379-.081-.936-.037-1-.593-.093-.762.679-.787 1.232-1.051a4.112 4.112 0 0 0 2.192-2.328 2.954 2.954 0 0 0 .046-1.917 1.316 1.316 0 0 0-2.009-.458c-.525.4-.576 1.11-.822 1.963-.2.7-1.1 2.344-2.1 2.285-1.032-.063-1.141-1.652-1.324-2.832-.2-1.283-.416-2.577-.639-3.516-.461-1.933-1.4-4.81-3.012-5.25a3.5 3.5 0 0 0-2.329.458 35.891 35.891 0 0 1-5.98 2.1 11.117 11.117 0 0 1-4.84 0 6.383 6.383 0 0 1-1.919-.776c-.373-.218-1.393-.6-1.278-1.371.173-1.141 1.483-.047 2.055.274 2.871 1.615 7.16.218 9.725-.822a14.692 14.692 0 0 1 3.561-1.278c2.872-.32 4.1 2.509 4.794 4.429a40.737 40.737 0 0 1 1.415 6.8c.676-.49.54-1.73 1.1-2.694a2.746 2.746 0 0 1 3.743-1.1 2.632 2.632 0 0 1 1.142 1.188 12.068 12.068 0 0 0 .593-9.862 16.75 16.75 0 0 0-3.653-5.387 12.768 12.768 0 0 0-1.553-1.461c-.285-.193-.736-.223-.821-.548-.236-.914 1.014-1.891 1.049-2.6-.887.112-1.78 1.387-2.694 1.049-.654-.242-.449-1.393-.593-2.236-.592.471-.484 1.7-1.278 1.871-.413.089-.644-.2-.959-.32a14.193 14.193 0 0 0-11.551 1.1 11.526 11.526 0 0 0-5.2 5.523c-.844 1.907-1.969 3.452-4.7 3.517.091.846 1.4 1.526 1.278 2.465-.114.872-1.625.723-2.373 1.1a5.381 5.381 0 0 0 1.6 1.1c.2.1 1.591.421 1.6 1.051.012 1.1-1.417.521-2.054.227a8.256 8.256 0 0 1-2.375-1.551c-.305-.282-.825-.762-.821-1.141.012-1.057 1.891-.827 2.648-1.278a8.971 8.971 0 0 0-.822-1.325c-.254-.4-.708-.912-.593-1.414.152-.669 1.043-.471 2.054-.595 2.305-.28 2.683-1.427 3.514-3.2a12.687 12.687 0 0 1 5.753-5.8c3.11-1.734 8.336-2.756 12.51-1.051a10.382 10.382 0 0 0 .914-1.78c.354-.707.859-2.221 1.734-1.461.552.502.247 2.68.547 3.489zm-54.058 37.98c-1.151-.226-1.526 1.259-1.005 2.192a2.793 2.793 0 0 1 1.871-.275c.031-.969-.161-1.774-.866-1.917zm-.412 3.424a1.893 1.893 0 0 0-.41 1.963 4.607 4.607 0 0 1 2.465-.456 1.378 1.378 0 0 0-2.055-1.502zm-.046 3.606c-.251.633.213 1.215.32 1.736a2.65 2.65 0 0 1 2.465-.273c.893-2.046-2.202-2.921-2.785-1.459zm58.716 23.061c-.373-2.195-.319-4.394-1.415-5.845a8.039 8.039 0 0 0-5.433-2.6 19.4 19.4 0 0 0-4.521-.136c-1.584.189-3.3.063-4.336.866.291 1.773 2.736.827 4.565.959a9.353 9.353 0 0 1 2.329.548 18.914 18.914 0 0 0 2.009.868c.9.159 1.82-.2 1.826.683.007.99-1.739.641-2.831.686-3.468.146-6.695.723-8.354 2.511a2 2 0 0 0-.685 1.324c.046.506.5.564.866.914a15.619 15.619 0 0 1 8.447-2.419c1.108-.043 2.95-.255 2.877.775-.041.576-.576.593-1.324.593-3.535 0-5.856.365-8.081 1.507-.853.438-1.948 1.051-1.873 1.963a1.217 1.217 0 0 0 1.553.822c.3-.071.708-.531.914-.685a7.155 7.155 0 0 1 3.424-1.415c1.122-.2 5.458-.59 5.479.639.015.955-1.2.584-2.054.548-2.3-.1-4.676.288-5.936 1.187a2.376 2.376 0 0 0-1.1 1.6 1.512 1.512 0 0 0 1.324.32c1.024-.072 1.988-.531 3.241-.731a12.494 12.494 0 0 1 1.871-.137 5.414 5.414 0 0 1 1.919.092c.878.427.356 1.538.183 2.373a14.049 14.049 0 0 0-.229 1.69c-.35 4.2 2.251 5.521 4.84 7.076a77.637 77.637 0 0 0 16.663 7.991 16.872 16.872 0 0 0 2.968-6.163 22.979 22.979 0 0 0-.137-8.4c-1.572-.308-3.119-1.073-4.7-1.507-1.036-.283-2.161-.413-3.241-.639-3.256-.676-6.561-1.212-9.771-1.917-.489-1.804-.923-3.839-1.277-5.941z" class="cls-4" transform="translate(-353.24 -117.942)"/>
                <path id="Path_478" d="M387.048 131.858a4.929 4.929 0 0 1 3.105.639c.568.338 1.255.751 1.278 1.234a.689.689 0 0 1-.593.729c-.6.047-1.049-.648-1.553-.914a4.84 4.84 0 0 0-3.424-.044c-.618.217-1.714.832-1.781-.183-.044-.673.841-.925 1.187-1.051a6.656 6.656 0 0 1 1.781-.41z" class="cls-4" transform="translate(-338.564 -111.334)"/>
                <path id="Path_479" d="M379.1 132.172c2.741-.337 4.577 1.246 5.935 2.694a8.036 8.036 0 0 1 1.872 7.9c-.136.37-.633 1.145-.592 1.553.06.627.9.424.958 1.141.087 1.132-1.191.636-1.6.32-1.662-1.293.137-3.012.274-4.794a7.058 7.058 0 0 0-1.873-5.114c-.936-1.1-2.508-2.629-4.792-2.373a5.038 5.038 0 0 0-1.827.729c-.342.212-1.161 1.02-1.643.959a.687.687 0 0 1-.549-.593c-.056-.676 1.045-1.247 1.553-1.553a5.534 5.534 0 0 1 2.284-.869z" class="cls-4" transform="translate(-342.759 -111.191)"/>
                <path id="Path_480" d="M388.293 140.975c1.621-.121.623 1.417 0 1.963a4.135 4.135 0 0 1-2.922.959.718.718 0 0 1-.183-1.232c.424-.277 1.216-.164 1.688-.41.725-.378.847-.9 1.325-1.234-.001-.044.057-.036.092-.046z" class="cls-4" transform="translate(-338.165 -106.983)"/>
            </g>
            <g id="Group_844" transform="translate(4.425 28.837)">
                <path id="Path_481" d="M357.355 140.807a.74.74 0 0 1-.762-.714v-.115l.354-.766a1.941 1.941 0 0 1 1.721-1.376H367c.919 0 1.311.691 1.656 1.3l.373.847v.109a.739.739 0 0 1-.76.714z" class="cls-2" transform="translate(-356.069 -137.311)"/>
                <path id="Path_482" d="M367.167 138.529c.614 0 .871.453 1.2 1.035l.3.7a.215.215 0 0 1-.235.189h-10.909a.216.216 0 0 1-.236-.189l.305-.661c.224-.52.629-1.072 1.244-1.072zm0-1.049h-8.33a2.468 2.468 0 0 0-2.208 1.706l-.3.636-.1.21v.23a1.264 1.264 0 0 0 1.286 1.24h10.913a1.265 1.265 0 0 0 1.286-1.24v-.218l-.089-.2-.3-.7c-.424-.759-.936-1.665-2.162-1.665z" class="cls-5" transform="translate(-356.238 -137.48)"/>
            </g>
            <g id="Group_845" transform="translate(1.389 31.496)">
                <path id="Path_483" d="M355.435 144.531a.9.9 0 0 1-.9-.9v-.093l.517-1.41c.543-1.6 1.418-2.487 2.459-2.487h13.177c1.314 0 1.83 1.156 2.378 2.379l.528 1.522v.089a.9.9 0 0 1-.9.9z" class="cls-2" transform="translate(-354.012 -139.113)"/>
                <path id="Path_484" d="M370.858 140.333c.973 0 1.377.9 1.9 2.068l.483 1.4a.375.375 0 0 1-.372.378H355.6a.375.375 0 0 1-.373-.378l.484-1.322c.353-1.039.995-2.142 1.966-2.142zm0-1.051H357.68c-1.283 0-2.335 1.014-2.961 2.854l-.475 1.3-.063.174v.186a1.426 1.426 0 0 0 1.423 1.427h17.262a1.427 1.427 0 0 0 1.423-1.427v-.176l-.059-.167-.481-1.4c-.6-1.348-1.237-2.776-2.891-2.776z" class="cls-5" transform="translate(-354.181 -139.282)"/>
            </g>
            <g id="Group_849" transform="translate(15.21 55.933)">
                <g id="Group_846" transform="translate(.525 .526)">
                    <path id="Path_485" fill="#303030" fill-rule="evenodd" d="M366.4 156.226l30.1 2.942c1.507.148 2.838.787 2.975 1.43l4.716 22.223c.136.642-.976 1.043-2.483.9l-30.1-2.943c-1.507-.146-2.84-.787-2.975-1.43l-4.716-22.223c-.14-.645.97-1.047 2.483-.899z" transform="translate(-363.901 -156.195)"/>
                </g>
                <g id="Group_848">
                    <g id="Group_847">
                        <path id="Path_486" d="M402.487 184.442c-.211 0-.432-.01-.66-.032l-30.106-2.943c-1.545-.151-3.223-.832-3.437-1.843l-4.716-22.224a1.009 1.009 0 0 1 .248-.9 3.44 3.44 0 0 1 2.8-.627l30.106 2.942c1.545.151 3.222.832 3.437 1.843l4.714 22.223a1 1 0 0 1-.248.9 2.9 2.9 0 0 1-2.138.661zm-36.526-27.552a2.024 2.024 0 0 0-1.371.323l4.721 22.194c.05.235.964.865 2.513 1.015l30.1 2.943c1.188.114 1.846-.162 1.923-.3l-4.721-22.192c-.05-.236-.965-.866-2.514-1.017l-30.1-2.942c-.198-.014-.381-.024-.551-.024z" transform="translate(-363.545 -155.839)"/>
                    </g>
                </g>
            </g>
            <path id="Path_487" fill="#f5f5f5" fill-rule="evenodd" d="M377.114 163.722a4.66 4.66 0 0 1 4.451 3.458 2.84 2.84 0 0 1-3.015 3.46 4.66 4.66 0 0 1-4.451-3.46 2.839 2.839 0 0 1 3.015-3.458z" transform="translate(-343.346 -96.154)"/>
            <path id="Path_488" d="M394.853 175.588s.465 1.514.88 3.015h3.967v-10.592h.824a23.659 23.659 0 0 0-1.523-5.4c-1.418-2.667-8.841-2.139-12-2.1s-3.461 1.365-2.976 2.146 3.265.685 4.781.438 4.342 1.805 4.342 1.805a49.607 49.607 0 0 0-5.951.537c-2.673.455-4.772 2.416-4.586 3.659a7.355 7.355 0 0 0 1.122 2.584 2.487 2.487 0 0 0-.1 1.855c.388.818 2.39 1.17 2.39 1.17a1.935 1.935 0 0 0 .294 1.708c.611.648 2.729-.59 4.537-.781a28.07 28.07 0 0 1 3.999-.044z" class="cls-2" transform="translate(-339.268 -97.714)"/>
            <g id="Group_850" transform="translate(42.503 61.654)">
                <path id="Path_489" d="M402.433 173.507c-.388-1.652-.751-3.223-1.005-4.874-.341-2.214-.323-4.056-1.507-5.616-1.489-1.962-4.246-3.023-7.487-3.2a21.172 21.172 0 0 0-3.516-.046c-1.948.233-4.959.13-5.616 1.643-.673 1.554 1.03 2.918 2.283 3.06 1.353.152 3.048-.483 4.428.092a15.069 15.069 0 0 0-4.93 1.324c-1.345.676-2.792 1.888-3.014 3.287-.21 1.319.661 1.756 1.278 2.421a2.35 2.35 0 0 0 1.917 3.56 1.725 1.725 0 0 0 .092 1.051c.866 1.959 3.885.756 5.616.41 1.038-.207 2.648-.421 3.241-.092.571.317.559 1.178.822 1.78.01-1.077.99-2.381.092-3.058-.635-.478-2.967-.193-3.743-.091-1.306.171-2.394.692-3.38.776-.643.056-1.151.028-1.414-.41.911-2.22 3.854-2.913 7.259-2.694.832.053 1.691.323 1.826-.366.193-.99-.888-.891-1.78-.958a10.763 10.763 0 0 0-7.077 1.505c-.366.272-.537.648-.958.731a1.177 1.177 0 0 1-1.507-.868c-.038-.829 1.048-1.535 1.872-1.963a13.671 13.671 0 0 1 6.255-1.46c1.253-.058 3.235.356 3.15-.731-.066-.856-1.844-.677-2.921-.641a15.237 15.237 0 0 0-8.4 2.421c-1.25-.492-.841-1.5-.137-2.238a8.175 8.175 0 0 1 4.155-2.009 21.147 21.147 0 0 1 5.614-.548c.784.037 1.356.032 1.371-.593.021-.942-.855-.534-1.873-.731a6.763 6.763 0 0 1-.958-.456 9.88 9.88 0 0 0-3.378-.959c-1.867-.125-4.206.754-4.567-.914a5.075 5.075 0 0 1 2.785-.822c4.67-.452 9.44.091 11.415 2.512 1.194 1.466 1.138 3.721 1.505 5.843a62.092 62.092 0 0 0 1.324 6.072c.289.063.578.124.869.184z" class="cls-4" transform="translate(-382.037 -159.715)"/>
                <path id="Path_490" d="M390.81 172.81c.14.1-.043.258 0 .412-.122-.013-.081-.192-.183-.229.015-.106.142-.102.183-.183z" class="cls-4" transform="translate(-377.949 -153.483)"/>
            </g>
        </g>
    </g>
</svg>
