<svg xmlns="http://www.w3.org/2000/svg" width="97.059" height="100" viewBox="0 0 97.059 100">
    <defs>
        <linearGradient id="linear-gradient" x1="1" x2="0" y1=".5" y2=".5" gradientUnits="objectBoundingBox">
            <stop offset="0" stop-color="#ef4343"/>
            <stop offset="1" stop-color="#ff9e9e"/>
            <stop offset="1" stop-color="#f05050"/>
        </linearGradient>
        <clipPath id="clip-path">
            <path id="Rectangle_17" fill="#fff" stroke="#707070" d="M0 0H97.059V98H0z"/>
        </clipPath>
        <style>
            .cls-9{fill-rule:evenodd}
        </style>
    </defs>
    <g id="Svg2" transform="translate(-30 -341)">
        <path id="Path_491" fill="rgba(255,225,225,0.5)" fill-rule="evenodd" d="M360.734 166.6c8.988 1.293 19.915 1.517 29.92 2.087 9.033.514 19.46 2.21 24.937-4.148 3.349-3.889 4.8-22.879 4.276-41.344-.294-10.406-.9-17.286-6.911-18.207-14.814-2.27-28.089-.927-40.3-1.852-13.527-1.025-21.488 2.148-21.858 7.955-.876 13.745-3.614 36.275-.578 46.77a12.954 12.954 0 0 0 10.514 8.739z" transform="translate(-307.568 271.72)"/>
        <g id="Mask_Group_2" clip-path="url(#clip-path)" transform="translate(30 341)">
            <g id="Group_838" transform="translate(14.312 4.627)">
                <g id="Group_837">
                    <path id="Path_457" fill="#f5f5f5" fill-rule="evenodd" d="M1467.284 395.753s-.492-15.192-1.229-16.017S1457.7 374 1457.7 374l-5.9 4.174s-2.483 4.362-2.469 5.5-3.1 15.5-3.1 15.5a2.873 2.873 0 0 0 1.551 1.965c1.324.609 19.502-5.386 19.502-5.386z" transform="translate(-1426.096 -370.182)"/>
                    <path id="Path_458" fill="#d6d6d6" fill-rule="evenodd" d="M1359.561 587.461s2.061-4.14-3.07-4.236-25.241-.368-25.241-.368-3.856-.6-4.544 2.21-4.729 18.662-4.729 18.662-1.2 2.182 1.166 2.824 28.434.368 28.434.368 2.416.285 3.316-2.824 1.6-6.63 1.6-6.63-2.918.912-2.948 0 1.044-1.35 1.044-1.35-1.462-.167-.983-1.289a11.29 11.29 0 0 1 1.9-2.578s-1.756-.342-.8-1.6 2.27-2.568 3.07-2.64a6.2 6.2 0 0 0 1.785-.549z" transform="translate(-1290.92 -532.3)"/>
                    <path id="Path_459" fill="#060606" fill-rule="evenodd" d="M1440.138 384.827s.587 5.843 2.088 6.077 8.262-1.041 10.133-.368a10.23 10.23 0 0 0 2.272.675 8.275 8.275 0 0 0-1.965-7.243c-3.024-3.5-3.6-5.163-3.807-5.955s-.614-5.034-.614-5.034 3.279-5.1-.256-7.691c-3.727-2.731-11.145-7.944-18.782-6.551-7.686 1.4-10.506 8.879-9.887 13.935a13.074 13.074 0 0 0 1.9 5.464c1.589 2.544 2.2 4.483 2.027 5.4-.269 1.4-2.762 6.176-3.316 8.349a43.619 43.619 0 0 0-.86 5.279 22.171 22.171 0 0 1 8.045-2.333c5.2-.635 6.609-1.54 6.878-3.069s-2.027-9.761-2.027-9.761-5.106.463-5.527-2.087c-.7-4.23 3.562-2.517 3.562-2.517s5.6-2.02 7.124-5.648a13.314 13.314 0 0 0 .982-6.753 10.064 10.064 0 0 1 5.773 2.7c2.416 2.44 2.027 3.069 2.027 3.069s3.357 8.7-1.044 11.91-4.726 2.152-4.726 2.152z" transform="translate(-1407.546 -358.15)"/>
                    <path id="Path_460" fill="#f05050" fill-rule="evenodd" d="M1502.523 377.685a12.332 12.332 0 0 1-3.808-9.945 9.355 9.355 0 0 1 5.343-7.919 17.271 17.271 0 0 1 3.071-.614 34.7 34.7 0 0 1 5.343.491 10.612 10.612 0 0 0-6.264 1.9c-7.313 5.083-2.7 15.592-2.7 15.592z" transform="translate(-1483.012 -358.682)"/>
                    <path id="Path_461" fill="url(#linear-gradient)" fill-rule="evenodd" d="M1408.751 528.537c-1.19 2.669-4.79 18.232-4.79 18.232s-1.856 3.424 1.29 3.683 10.931.675 10.931.675 7.283 9.46 9.335 15.9c2.75 8.631 4.376 26.772 4.631 29.775h-56.515c.165-1.029 2.508-15.492 4.043-18.786 1.593-3.417 4.729-10.436 4.729-10.436s4.2-.118 10.379-10.006c3.188-5.1 5.674-8.617 6.632-10.682.9-1.939.368-2.578.368-2.578a11.371 11.371 0 0 0 1.413-4.358 7.87 7.87 0 0 1 .614-3.622c.441-1.039 1.995-4.058 1.044-4.358-1.638-.518-4.422 3.867-4.422 3.867l-2.211-1.35s.929-.965.8-1.6-1.289-1.1-1.289-1.1 2.545-2.063 2.026-3.008-2.825 0-2.825 0a5.377 5.377 0 0 1 .553-2.026c.472-.784 1.147-2.748-.123-2.64s-2.429 1.451-3.132 3.867a29.173 29.173 0 0 0-.921 4.3 13.256 13.256 0 0 1-.369 2.762 11.919 11.919 0 0 0-.184 3.254l-1.658-1.35-2.027 7.06s-3.161-2.509-5.589-2.64a21.117 21.117 0 0 0-5.22.553l2.763-17.8s1.534-7.2 5.036-8.963a23.912 23.912 0 0 1 6.632-2.21s9.246 6.354 16.213 2.946c6.121-2.994 5.589-5.157 5.589-5.157s6.134-1.531 8.9 2.763 4.667 12.891 4.667 12.891l-12.59.184s-3.533-.711-4.723 1.958z" transform="translate(-1372.721 -476.139)"/>
                    <g id="Group_834">
                        <path id="Path_462" d="M1359.889 426.939c.343-1.764.808-3.407 1.29-5.033-.288-.05-1.031.011-1.228-.061-.37 1.458-.74 2.522-1.044 3.805-.378 1.6-.515 3.992-1.842 4.726-1.61.89-5.078.737-7.553.737-6.608 0-13.383 0-20.141-.307-1.295-.059-2.956-.367-3.193-.921-.269-.629.213-2.07.43-2.824 1.536-5.331 2.8-10.336 4.176-15.959.348-1.427.756-2.524 1.965-2.946 1.863-.651 5.26-.184 7.614-.184 6.354 0 12.729.33 19.158.552 1.188.041 2.895.005 3.316.614.674.975-.373 2.583-.43 3.622a9.37 9.37 0 0 0 1.289-.061c.39-1.769 1.033-4-.553-4.849-1.236-.659-3.585-.547-5.71-.614-2.218-.07-4.443-.153-6.141-.184-2.213-4.758-2.659-11.249-5.956-15.1-.381-.445-1.369-1.151-1.474-1.534a7.366 7.366 0 0 1 .062-1.534 11.554 11.554 0 0 0-2.886-8.041c-1.355-1.625-2.96-3.156-3.439-5.954a9.149 9.149 0 0 1-.184-2.946 14.472 14.472 0 0 1 1.044-2.149 6.484 6.484 0 0 0 .368-4.665c-.734-1.793-2.656-3.053-4.3-4.051a28.556 28.556 0 0 0-12.834-4.113c-7.6-.446-12.733 2.223-14.8 7.366a16.48 16.48 0 0 0-.552 9.514 16.883 16.883 0 0 0 1.535 3.99c.824 1.5 2.214 2.719 1.965 5.033a10.051 10.051 0 0 1-1.228 3.13 33.133 33.133 0 0 0-2.885 7.979 14.451 14.451 0 0 1-.307 1.842c-.195.469-1.116 1-1.536 1.473-2.427 2.766-3.346 7.092-4.052 11.6-.677 4.321-1.5 8.9-2.395 13.2-.872 4.164-1.926 8.529-2.456 13.2-.6 5.263-.073 9.81 3.193 12.03a9.951 9.951 0 0 0 5.219 1.473c-3.717 7.757-7.055 16.638-7.8 27.805-.043.648-.052 1.463.921 1.289a90.96 90.96 0 0 1 2.886-15.959 78.108 78.108 0 0 1 5.465-13.319c4.712-1.172 7.3-5.012 9.825-9.145 1.709-2.8 3.782-5.769 5.711-8.532a15.579 15.579 0 0 0 1.781-2.946 12.919 12.919 0 0 0 .307-2.21 13.862 13.862 0 0 1 .676-1.657 7.306 7.306 0 0 0 .43-1.841 30.484 30.484 0 0 1-.062-3.315 17.53 17.53 0 0 1 1.474-3.437c.378-.948.919-3.3-.43-3.5-1.045-.157-1.878.874-2.456 1.535a9.511 9.511 0 0 0-1.658 2.333c-.445-.073-.8-.755-1.29-.982 1.032-.639.553-2.491-.491-2.762.852-.508 2.275-2.284 1.289-3.376a2.484 2.484 0 0 0-2.333-.184c.068-1.046 1.376-1.5 1.289-2.762a1.584 1.584 0 0 0-2.149-1.227c-2.117.725-3.453 4.512-3.807 7.243-.061.465.053.936 0 1.412-.052.46-.325 1-.43 1.535a9.609 9.609 0 0 0-.307 3.008 7.994 7.994 0 0 1-1.965-3.99c-.129-.563-.057-1.434-.8-1.35-1 .112-.123 2.208.062 2.762a9.969 9.969 0 0 0 1.167 2.578c-.623 2-1.148 4.09-1.781 6.076a17.453 17.453 0 0 0-4.36-2.148 12.565 12.565 0 0 0-5.895.061c1.425-5.6 1.734-11.7 3.193-17.493a13.256 13.256 0 0 1 3.562-6.813 12.649 12.649 0 0 1 5.1-2.639 6.567 6.567 0 0 1 2.088-.491c.254.05.813.629 1.1.8a20.051 20.051 0 0 0 9.948 3.069c6.3.03 10.531-3.127 12.035-8.409 11.474-1.219 11.232 9.8 14.307 17.186-1.812-.011-3.537-.107-5.342-.123a10.354 10.354 0 0 0-3.562-4.911c-.443-.343-1.1-1.083-1.781-.614-.3.743.521 1.05.921 1.351a8.488 8.488 0 0 1 3.132 4.051c-3.757.62-9.745-1.2-12.219.982-1.083.953-1.542 3.279-2.026 5.217-1 4-1.831 7.595-2.947 11.539-.674 2.383-2.5 6.166.491 7.12 1.781.569 4.323.4 6.816.491s5 .181 7.062.184c9.643 10.534 12.1 28.256 13.509 47.017a1.571 1.571 0 0 0 1.044-.061c-1.034-15.621-3.039-30.8-9.211-41.492 4.606.1 6.38-2.626 7.921-5.586 3.33.056 5.419-1.131 5.772-4.051m10.254-4.174l-55.816-59.6a16.988 16.988 0 0 0 .368 10.864c-1.631-2.011-3.471-4.486-3.561-7.857a11.048 11.048 0 0 1 6.018-9.023 15.5 15.5 0 0 1 4.052-.184 9.235 9.235 0 0 0-6.871 6.191zm1.658-1.043a7.84 7.84 0 0 1 3.746-3.437 13.079 13.079 0 0 1 6.2-1.1 22.932 22.932 0 0 1 5.711 1.9c2.39 1.123 5.026 2.474 6.2 4.48.8 1.365.279 3.392-.245 4.542a9.268 9.268 0 0 0-.983 1.9 10.153 10.153 0 0 0 .062 3.007c.424 3.468 2.255 5.162 3.991 7.3a10.161 10.161 0 0 1 2.395 7.918c-2.473-1.542-6.475-1.317-9.7-.737-.995.179-2.57.588-3.439.184-1.373-.638-1.271-3.768-1.658-5.34 5.711-.516 8.2-6.982 6.14-12.767 2.045.149-.105-2.373-.676-3.13a11.911 11.911 0 0 0-4.851-3.99c-.8-.364-2.543-1.248-3.316-.982-.546.188-.492 1.108-.491 1.9.005 6.14-3 8.857-7.184 10.741a3.282 3.282 0 0 0-2.026-.552c-57.254-63.217-57.377-68.353-55.686-71.446zm-5.956 4.726c.25 3.44 2.316 6.047 3.869 8.1a2.793 2.793 0 0 0-.614 2.332c.505 2.086 3.4 3.218 6.017 2.824.313 1.231.752 2.648 1.044 4.112a17.482 17.482 0 0 1 .553 4.665c-.169 1.907-1.678 2.187-3.5 2.456-3.913.576-7.651 1.027-10.377 2.578a26.546 26.546 0 0 1 1.9-6.445c.87-1.944 2.624-4.132 2.395-6.752-.214-2.451-1.959-3.976-2.825-6.015-2.745-6.47-.548-14.432 4.974-16.45.038 0 .072.009.061.061a9.7 9.7 0 0 0-59.308-51.075zm21.86-.307a4.549 4.549 0 0 0-3.623 4.665 4.865 4.865 0 0 0 1.29 2.885c.134.152 2.116 2.406 2.333.982.091-.6-.976-1.081-1.474-1.658a5.18 5.18 0 0 1-.8-1.227 3.466 3.466 0 0 1 2.763-4.6c.832 2.31 1.763 4.753 1.6 7.427-.257 4.138-3.059 6.543-7.245 6.752-.677.034-1.754-.214-1.781.553-.031.882 1.525.578 2.149.552.51 2.188.374 4.666 1.781 5.892s4.055.261 5.9.123c-1.2 3.7-4.07 6.024-8.352 6.752a17.239 17.239 0 0 1-11.912-2.762c2.735-.569 5.444-.172 6.816-1.842 1.25-1.523.628-4.385.123-6.936-.178-.9-.322-1.772-.614-2.824-.224-.806-.6-2.281-1.044-2.394a5.573 5.573 0 0 0-1.044.123 9.511 9.511 0 0 1-1.474 0c-1.159-.13-3.013-1.061-2.886-2.455a1.843 1.843 0 0 1 1.843-1.473c.542.03 1.024.834 1.658.8.2-.012.488-.314.8-.491s.691-.3.921-.43c4.068-2.218 6.949-5.476 6.632-11.846h.123c-53.592-58.853-51.508-57.95-50.293-56.177zm-16.211 40.081c.509-.986 1.372-2.435 2.394-1.964-.461 1.217-1.381 1.975-1.6 3.437a4.349 4.349 0 0 0-.983.675c-.28.239-.58.677-.8.614a13.015 13.015 0 0 1-54.821-62.37zm3.745 1.841c-.517 2.246-3.33 2.195-4.851 3.437-55.212-61.317-52.917-63.351-50.959-63.045zm-3.07 15.959c.271-.151.212-.57.061-.921a3.592 3.592 0 0 0-.491-.921c-1.337-2.269-3.608-6.8-1.228-9.268.6-.624 3.325-2.4 4.237-.736-.665.535-1.137.424-1.719.736a3.066 3.066 0 0 0-1.474 2.394c-.48 4.937 6.218 4.9 5.956 9.575-.091 1.622-1.272 2.752-2.088 3.928-2.007 2.894-3.661 5.4-5.526 8.471a29.25 29.25 0 0 1-3.868 5.463c-1.433 1.467-3.644 3.12-6.079 3.314a8.11 8.11 0 0 1-4.79-1.1c-3.182-1.9-3.436-6.392-2.886-11.171.508-4.41 1.448-8.371 2.21-12.4 3.988-1.09 8.125.1 10.193 2.21-.32 1.327-.844 2.928-1.289 4.481a32.99 32.99 0 0 1-1.289 4.542c-.156.324-1.977 2.151-.614 2.271.538.047.941-.853 1.29-1.289 2.763-3.461 5.591-6.817 8.289-10.128-55.61-59.555-55.303-58.725-54.705-59.059zm8.289-12.153c-.045 2.3-1.761 3.464-1.965 5.647-.141 1.516.4 3.83-.368 4.91-.545-2.034-4.3-3.3-5.219-5.463-.516-1.215-.03-3.335 1.167-3.192.258.031.731.578.983.8a8.021 8.021 0 0 1 .921.921c-.12.474-.422.766-.369 1.412.845.975 1.186-.48 1.474-1.1a10.18 10.18 0 0 1 3.193-4.113h.184zM1312.669 420c.317.593.441 1.4.737 2.087s.686 1.285.982 1.9c-2.06 2.326-4.137 5.029-6.14 7.366-.076.089-.174.41-.368.307 1.286-4.218 2.39-8.618 3.746-12.767.214.466.788.634 1.043 1.107zm32.483 16.573c-.76-1-1.53-2.246-2.272-3.253-.241-.327-.664-.613-.614-.982 3.453.015 6.879 0 10.193-.123-1.289 2.562-3.232 4.79-7.307 4.361z" class="cls-9" transform="translate(-1294.77 -356.918)"/>
                        <path id="Path_463" d="M1464.594 419.116c-1.668-.271-1.206 2.562-.122 2.7 1.662.213 1.306-2.508.122-2.7z" class="cls-9" transform="translate(-1428.274 -405.195)"/>
                        <path id="Path_464" d="M1495.019 433.8c-1.814-.495-1.323 2.318-.246 2.456 1.579.203 1.287-2.17.246-2.456z" class="cls-9" transform="translate(-1465.331 -416.567)"/>
                        <path id="Path_465" d="M1526.563 448c-.336.66.319.878 1.044 1.166.668.266 1.892.922 1.964 0 .035-.443-.471-.658-.982-.859-.695-.276-1.395-.707-2.026-.307z" class="cls-9" transform="translate(-1506.331 -427.509)"/>
                        <path id="Path_466" d="M1473.736 452.4c-.737-.422-2.53.2-2.947-.8a5.668 5.668 0 0 0 2.763-.245c.327-.121.925-.388.983-.737.226-1.378-1.43-.219-2.211-.123-1.549.191-2.773-.5-3.009.491-.34 1.427 1.951 2.435 2.947 2.455.816.019 1.827-.141 1.474-1.041z" class="cls-9" transform="translate(-1438.521 -429.15)"/>
                    </g>
                    <g id="Group_835" transform="translate(62.086 54.921)">
                        <path id="Path_467" d="M1312.094 607.918c-.614.745-2.148 2.459-.921 3.5-.914.928-.241 2.231 1.167 2.271.938.027 3.145-.711 2.641-1.842-1.047-.323-1.7 1-3.009.614.789-1.462 2.7-1.807 4.052-2.7a1.841 1.841 0 0 1 .614 2.762 3.077 3.077 0 0 1-1.412.92c-.4.159-1.4.346-1.412.859-.026.987 1.71.29 1.965.184a4.872 4.872 0 0 0 1.72-1.166c.552-.685.457-1.4.675-2.21.186-.694.746-1.185.921-1.964.051-.228 0-.444.061-.675.393-1.456 1.648-3.35.491-4.849a3.6 3.6 0 0 0-3.009-1.044 5.268 5.268 0 0 0-3.316 1.534c-.922.837-2.742 2.795-1.228 3.806zm4.605-4.174c1.963-.123 2.7 1.123 2.027 2.885a9.3 9.3 0 0 0-.737-.614 5.445 5.445 0 0 0-.983-.552c-.36-.059-.553.159-.859.245-1.379.389-2.2.767-3.439 1.166a5.1 5.1 0 0 1 3.992-3.129zm-2.456 3.928a18.254 18.254 0 0 1 2.211-.8c1.517-.183 1.857 1.558 1.167 2.762a2.059 2.059 0 0 0-2.026-1.043c-1.484.116-2.363 1.473-3.623 1.719.353-.71 1.288-2.31 2.271-2.637z" class="cls-9" transform="translate(-1310.711 -602.567)"/>
                    </g>
                    <g id="Group_836" transform="translate(66.749 50.134)">
                        <path id="Path_468" d="M1329.4 581.156c-.2.245-.308.592-.737.614.059.309.48.257.614.491a3.951 3.951 0 0 0 .123-1.105z" class="cls-9" transform="translate(-1328.662 -581.156)"/>
                    </g>
                </g>
            </g>
        </g>
    </g>
</svg>
