<svg id="Layer_103" data-name="Layer 103" xmlns="http://www.w3.org/2000/svg" viewBox="0 0 14 14">
  <title>chat icon</title>
  <g>
    <path d="M3.78,17A.93.93,0,0,1,3.49,17,.78.78,0,0,1,3,16.22V3.78A.78.78,0,0,1,3.78,3H16.22a.78.78,0,0,1,.78.78V6.11a.78.78,0,0,1-1.56,0V4.56H4.56v9.7l1.55-1.68a.82.82,0,0,1,.59-.25h8.74V9.22a.78.78,0,1,1,1.56,0v3.89a.78.78,0,0,1-.78.78H7L4.35,16.75A.79.79,0,0,1,3.78,17Z" transform="translate(-3 -3)" style="fill: #383838"/>
    <path d="M13.11,7.67H6.89a.78.78,0,0,1,0-1.56h6.22a.78.78,0,0,1,0,1.56Z" transform="translate(-3 -3)" style="fill: #383838"/>
    <path d="M13.11,10.78H6.89a.78.78,0,0,1,0-1.56h6.22a.78.78,0,0,1,0,1.56Z" transform="translate(-3 -3)" style="fill: #383838"/>
  </g>
</svg>
