<svg id="Layer_98" data-name="Layer 98" xmlns="http://www.w3.org/2000/svg" viewBox="0 0 17.5 14.86">
  <title>icon for wall</title>
  <path d="M15.83,2.57H4.17A2.92,2.92,0,0,0,1.25,5.49v9a2.92,2.92,0,0,0,2.92,2.92H15.83a2.92,2.92,0,0,0,2.92-2.92v-9A2.92,2.92,0,0,0,15.83,2.57ZM4.17,4.16H15.83a1.34,1.34,0,0,1,1.33,1.33V7.3H2.84V5.49A1.34,1.34,0,0,1,4.17,4.16ZM2.84,14.51V8.89H6.61v7H4.17A1.34,1.34,0,0,1,2.84,14.51Zm13,1.33H8.21V8.89h9v5.62A1.34,1.34,0,0,1,15.83,15.84Z" transform="translate(-1.25 -2.57)" style="fill: #2c2e2f"/>
</svg>
