<svg xmlns="http://www.w3.org/2000/svg" xmlns:xlink="http://www.w3.org/1999/xlink" width="112" height="112" viewBox="0 0 112 112">
  <defs>
    <clipPath id="clip-Video_cut">
      <rect width="112" height="112"/>
    </clipPath>
  </defs>
  <g id="Video_cut" data-name="Video cut" clip-path="url(#clip-Video_cut)">
    <rect width="112" height="112" fill="transparent"/>
    <g id="Group_14" data-name="Group 14" transform="translate(-968.433 -2021.96)">
      <path id="Multimedia" d="M1075.664,2041.891l-25.611,12.88V2038.35a5.328,5.328,0,0,0-5.312-5.315H973.9a5.328,5.328,0,0,0-5.312,5.315v58.444a5.328,5.328,0,0,0,5.312,5.312h70.844a5.328,5.328,0,0,0,5.312-5.312v-17.937l25.611,14.4c2.474,0,4.5-2.394,4.5-5.314v-40.733C1080.162,2044.282,1078.138,2041.891,1075.664,2041.891Z" transform="translate(0.271 12.592)" fill="#fff"/>
      <g id="Group_13" data-name="Group 13" transform="translate(968.433 2025.96)">
        <rect id="Rectangle_31" data-name="Rectangle 31" width="11.698" height="118.833" transform="translate(12.867 103.909) rotate(-142.236)" fill="#5a5b5e"/>
        <rect id="Rectangle_32" data-name="Rectangle 32" width="6.612" height="118.833" transform="translate(5.227 97.992) rotate(-142.236)" fill="#fff"/>
      </g>
    </g>
  </g>
</svg>
