<svg xmlns="http://www.w3.org/2000/svg" xmlns:xlink="http://www.w3.org/1999/xlink" width="112" height="112" viewBox="0 0 112 112">
  <defs>
    <clipPath id="clip-audio_cut">
      <rect width="112" height="112"/>
    </clipPath>
  </defs>
  <g id="audio_cut" data-name="audio cut" clip-path="url(#clip-audio_cut)">
    <rect width="112" height="112" fill="transparent"/>
    <g id="Group_12" data-name="Group 12" transform="translate(-912.427 -2193.606)">
      <g id="Multimedia" transform="translate(927.427 2197.238)">
        <ellipse id="Ellipse_21" data-name="Ellipse 21" cx="22.274" cy="33.903" rx="22.274" ry="33.903" transform="translate(18.453)" fill="#fff"/>
        <path id="Path_494" data-name="Path 494" d="M1008.789,2214.457l-10.1-1.261c-2.207,17.646-14.036,29.029-30.135,29.029-16.777,0-28.677-10.46-31.055-27.3l-10.075,1.411c2.771,19.632,16.03,33,34.491,35.583v12.761h-3.335c-4.574,0-8.318,1.806-8.318,4.016s3.738,4.008,8.318,4.008H977.63c4.572,0,8.318-1.806,8.318-4.008s-3.746-4.016-8.318-4.016H975.3v-12.837C993.14,2248.967,1006.258,2234.694,1008.789,2214.457Z" transform="translate(-927.427 -2166.904)" fill="#5a5b5e"/>
      </g>
      <g id="Group_11" data-name="Group 11" transform="translate(928.771 2195.606)">
        <rect id="Rectangle_29" data-name="Rectangle 29" width="11.466" height="116.474" transform="translate(13.54 107.291) rotate(-148.075)" fill="#5a5b5e"/>
        <rect id="Rectangle_30" data-name="Rectangle 30" width="6.481" height="116.474" transform="translate(5.5 102.283) rotate(-148.075)" fill="#fff"/>
      </g>
    </g>
  </g>
</svg>
