<svg xmlns="http://www.w3.org/2000/svg" viewBox="0 0 17 18.01"><defs><style>.cls-1{fill:#fff;}</style></defs><title>article2</title><g id="Layer_120" data-name="Layer 120"><path class="cls-1" d="M16.73,1.83a.86.86,0,0,1,.89.83V14.33a.86.86,0,0,1-.89.83H6.24a.86.86,0,0,1-.89-.83V2.66a.86.86,0,0,1,.89-.83H16.73m0-.83H6.24A1.71,1.71,0,0,0,4.47,2.66V14.33A1.72,1.72,0,0,0,6.24,16H16.73a1.72,1.72,0,0,0,1.77-1.67V2.66A1.71,1.71,0,0,0,16.73,1Z" transform="translate(-1.5 -1)"/><path class="cls-1" d="M2.46,5.19a.48.48,0,0,0-1,0V16.42A2.49,2.49,0,0,0,3.89,19h10.9a.52.52,0,0,0,0-1H3.89a1.49,1.49,0,0,1-1.43-1.55Z" transform="translate(-1.5 -1)"/><path class="cls-1" d="M13.5,10.73H8a.56.56,0,1,0,0,1.11H13.5a.56.56,0,1,0,0-1.11Z" transform="translate(-1.5 -1)"/><path class="cls-1" d="M14.93,7.94H8a.56.56,0,0,0-.56.56A.55.55,0,0,0,8,9.05h6.89a.55.55,0,0,0,.56-.55A.56.56,0,0,0,14.93,7.94Z" transform="translate(-1.5 -1)"/><path class="cls-1" d="M14.93,5.15H8A.56.56,0,0,0,8,6.27h6.89a.56.56,0,1,0,0-1.12Z" transform="translate(-1.5 -1)"/></g></svg>