<svg id="Layer_15" data-name="Layer 15" xmlns="http://www.w3.org/2000/svg" viewBox="0 0 19 19"><title>article</title><path d="M10.24,11.84a.18.18,0,0,0,.11.24.19.19,0,0,0,.18,0l1.79-1.45-1.16-.89Z" style="fill:none"/><polygon points="14.98 4.39 14.33 5.25 11.45 9.03 12.91 10.14 14.33 8.27 15.25 7.05 16.44 5.49 15.25 4.59 14.98 4.39" style="fill:none"/><path d="M13.41,3.26H2.34a1,1,0,0,0-.92,1v11a.91.91,0,0,0,.91.91h11a1,1,0,0,0,1-.92V9.47l-.84,1.11a.7.7,0,0,1-.35.23l-3,2a.38.38,0,0,1-.53-.08.42.42,0,0,1-.05-.36L10.74,9a.68.68,0,0,1,.13-.4l3.44-4.51A.93.93,0,0,0,13.41,3.26ZM8.28,12.48H4.19A.45.45,0,0,1,3.73,12a.46.46,0,0,1,.46-.46H8.28a.47.47,0,0,1,.47.46A.46.46,0,0,1,8.28,12.48ZM9.92,9.72H4.19a.47.47,0,0,1,0-.93H9.92a.47.47,0,0,1,0,.93ZM11.56,7H4.19a.46.46,0,0,1,0-.92h7.37a.46.46,0,1,1,0,.92Z" style="fill:none"/><path d="M17.48,3.52l-.87-.66a.37.37,0,0,0-.51.07h0l-.65.85,1.43,1.13L17.55,4a.37.37,0,0,0-.07-.51Z" style="fill:none"/><path d="M9.92,8.79H4.19a.47.47,0,0,0,0,.93H9.92a.47.47,0,0,0,0-.93Z" style="fill:#fff"/><path d="M14.33,15.25a1,1,0,0,1-1,.92h-11a.91.91,0,0,1-.91-.91v-11a1,1,0,0,1,.92-1H13.41a.93.93,0,0,1,.9.83L15,3.23a1.88,1.88,0,0,0-1.56-.89H2.34A1.92,1.92,0,0,0,.5,4.26v11a1.83,1.83,0,0,0,1.83,1.83h11a1.93,1.93,0,0,0,1.93-1.84v-7l-.92,1.21Z" style="fill:#fff"/><path d="M11.56,6H4.19a.46.46,0,0,0,0,.92h7.37a.46.46,0,1,0,0-.92Z" style="fill:#fff"/><path d="M8.28,11.56H4.19a.46.46,0,0,0-.46.46.45.45,0,0,0,.46.46H8.28A.46.46,0,0,0,8.75,12,.47.47,0,0,0,8.28,11.56Z" style="fill:#fff"/><path d="M18.21,3.16l-1.45-1.1h0a.72.72,0,0,0-1,.14l-.78,1-.65.87L10.87,8.59a.68.68,0,0,0-.13.4L9.6,12.37a.42.42,0,0,0,.05.36.38.38,0,0,0,.53.08l3-2a.7.7,0,0,0,.35-.23l.84-1.11.92-1.21,3.1-4.07A.73.73,0,0,0,18.21,3.16Zm-7.68,8.9a.19.19,0,0,1-.18,0,.18.18,0,0,1-.11-.24l.92-2.12,1.16.89Zm4.72-5-.92,1.21-1.42,1.87L11.45,9l2.88-3.78L15,4.39l.27.2,1.19.9Zm2.3-3-.67.87L15.45,3.78l.65-.85h0a.37.37,0,0,1,.51-.07l.87.66h0A.37.37,0,0,1,17.55,4Z" style="fill:#fff"/></svg>