<svg xmlns="http://www.w3.org/2000/svg" width="15" height="15" viewBox="0 0 100 100">
  <defs>
    <style>
      .cls-1 {
        fill: rgba(255,255,255,1);
        fill-rule: evenodd;
      }
    </style>
  </defs>
  <path id="_7" data-name="7" class="cls-1" d="M72.273,98L50,75.6,27.727,98A12.764,12.764,0,0,1,15,85.2V14.8A12.764,12.764,0,0,1,27.727,2H72.273A12.763,12.763,0,0,1,85,14.8V85.2A12.764,12.764,0,0,1,72.273,98Zm6.364-83.2a6.382,6.382,0,0,0-6.364-6.4H27.727a6.381,6.381,0,0,0-6.363,6.4V85.2a6.382,6.382,0,0,0,6.363,6.4L50,69.2,72.273,91.6a6.382,6.382,0,0,0,6.364-6.4V14.8Z"/>
</svg>
