<svg xmlns="http://www.w3.org/2000/svg" viewBox="0 0 15 18">
	<defs><style>.cls-1{fill:none;}</style></defs><title>question2</title><g id="Layer_122" data-name="Layer 122"><path class="cls-1" d="M16,4H14.09V6H6V4h-2a.51.51,0,0,0-.5.5V17.44a.5.5,0,0,0,.5.5H16a.5.5,0,0,0,.5-.5V4.52A.51.51,0,0,0,16,4Z" transform="translate(-2.5 -1)"/>
<path class="cls-1" d="M16,4H14.09V6H6V4h-2a.51.51,0,0,0-.5.5V17.44a.5.5,0,0,0,.5.5H16a.5.5,0,0,0,.5-.5V4.52A.51.51,0,0,0,16,4Z" transform="translate(-2.5 -1)"/>
<path class="cls-1" d="M16,4H14.09V6H6V4h-2a.51.51,0,0,0-.5.5V17.44a.5.5,0,0,0,.5.5H16a.5.5,0,0,0,.5-.5V4.52A.51.51,0,0,0,16,4Z" transform="translate(-2.5 -1)"/>
<path class="cls-1" d="M10,4.76a1.27,1.27,0,0,0,1.26-1.27A1.19,1.19,0,0,0,11.13,3,1.24,1.24,0,0,0,8.87,3a1.19,1.19,0,0,0-.13.53A1.27,1.27,0,0,0,10,4.76Z" transform="translate(-2.5 -1)"/>
<path d="M16,3H12.42A2.47,2.47,0,0,0,7.58,3H4.05A1.55,1.55,0,0,0,2.5,4.52V17.44A1.55,1.55,0,0,0,4.05,19H16a1.55,1.55,0,0,0,1.55-1.56V4.52A1.55,1.55,0,0,0,16,3ZM8.87,3a1.24,1.24,0,0,1,2.26,0,1.19,1.19,0,0,1,.13.53,1.26,1.26,0,1,1-2.52,0A1.19,1.19,0,0,1,8.87,3Zm7.58,14.48a.5.5,0,0,1-.5.5H4.05a.5.5,0,0,1-.5-.5V4.52a.51.51,0,0,1,.5-.5H6V6h8.06V4H16a.51.51,0,0,1,.5.5Z" transform="translate(-2.5 -1)" style="fill: #f05050;"/>
<rect x="6.9" y="12.79" width="1.21" height="1.21" style="fill: #f05050;"/>
<path d="M12.35,9.57a2.41,2.41,0,0,0-4.76.57h1.2a1.21,1.21,0,1,1,2.42.21,1.28,1.28,0,0,1-1.28,1,.54.54,0,0,0-.53.54v1.28h1.2v-.69a2.44,2.44,0,0,0,1.75-2.92Zm0,0" transform="translate(-2.5 -1)" style="fill: #f05050;"/></g></svg>