<svg xmlns="http://www.w3.org/2000/svg" width="12" height="12" viewBox="0 0 100 100">
  <defs>
    <style>
      .cls-1 {
        fill: #F05050;
        fill-rule: evenodd;
      }
    </style>
  </defs>
  <path id="_8" data-name="8" class="cls-1" d="M80,98H20A12,12,0,0,1,8,86V26A12,12,0,0,1,20,14h9V8h8.081C39.679,4.428,44.462,2,50,2S60.321,4.428,62.92,8H71v6h9A12,12,0,0,1,92,26V86A12,12,0,0,1,80,98ZM65,14H58.333c0-3.313-3.731-6-8.333-6s-8.333,2.686-8.333,6H35V26H65V14ZM86,26a6,6,0,0,0-6-6H71V32H29V20H20a6,6,0,0,0-6,6V86a6,6,0,0,0,6,6H80a6,6,0,0,0,6-6V26ZM71,80H29a3,3,0,0,1,0-6H71A3,3,0,0,1,71,80Zm0-15H29a3,3,0,0,1,0-6H71A3,3,0,0,1,71,65Zm0-15H29a3,3,0,0,1,0-6H71A3,3,0,0,1,71,50Z"/>
</svg>
