<svg xmlns="http://www.w3.org/2000/svg" viewBox="0 0 14 18"><defs><style>.cls-1{fill:none;}</style></defs><title>question</title><g id="Layer_122" data-name="Layer 122"><path class="cls-1" d="M15.55,3.85H13.81v1.9H6.29V3.85H4.45A.48.48,0,0,0,4,4.33v13.2a.47.47,0,0,0,.47.47h11.1a.47.47,0,0,0,.47-.47V4.33A.48.48,0,0,0,15.55,3.85Z" transform="translate(-3 -1)"/><path class="cls-1" d="M15.55,3.85H13.81v1.9H6.29V3.85H4.45A.48.48,0,0,0,4,4.33v13.2a.47.47,0,0,0,.47.47h11.1a.47.47,0,0,0,.47-.47V4.33A.48.48,0,0,0,15.55,3.85Z" transform="translate(-3 -1)"/><path class="cls-1" d="M15.55,3.85H13.81v1.9H6.29V3.85H4.45A.48.48,0,0,0,4,4.33v13.2a.47.47,0,0,0,.47.47h11.1a.47.47,0,0,0,.47-.47V4.33A.48.48,0,0,0,15.55,3.85Z" transform="translate(-3 -1)"/><path class="cls-1" d="M10,4.55a1.18,1.18,0,0,0,1.17-1.2,1.22,1.22,0,0,0-.11-.5,1.16,1.16,0,0,0-2.12,0,1.22,1.22,0,0,0-.11.5A1.18,1.18,0,0,0,10,4.55Z" transform="translate(-3 -1)"/><path d="M15.55,2.85H12.26a2.31,2.31,0,0,0-4.52,0H4.45A1.46,1.46,0,0,0,3,4.33v13.2A1.46,1.46,0,0,0,4.45,19h11.1A1.46,1.46,0,0,0,17,17.53V4.33A1.46,1.46,0,0,0,15.55,2.85Zm-6.61,0a1.16,1.16,0,0,1,2.12,0,1.22,1.22,0,0,1,.11.5,1.17,1.17,0,1,1-2.34,0A1.22,1.22,0,0,1,8.94,2.85ZM16,17.53a.47.47,0,0,1-.47.47H4.45A.47.47,0,0,1,4,17.53V4.33a.48.48,0,0,1,.47-.48H6.29v1.9h7.52V3.85h1.74a.48.48,0,0,1,.47.48Z" transform="translate(-3 -1)"/><rect x="6.44" y="12.75" width="1.13" height="1.15"/><path d="M12.19,9.76a2.25,2.25,0,0,0-4.44.54H8.87a1.13,1.13,0,1,1,2.26.2,1.18,1.18,0,0,1-1.19.95.5.5,0,0,0-.5.51v1.21h1.12v-.65a2.3,2.3,0,0,0,1.63-2.76Zm0,0" transform="translate(-3 -1)"/></g></svg>