<svg id="Capa_1" data-name="Capa 1" xmlns="http://www.w3.org/2000/svg" viewBox="0 0 50 43.34"><defs><style>.cls-1{opacity:0.8;}.cls-2{fill:#1f3f59;}</style></defs><title>Collage</title><g class="cls-1"><path class="cls-2" d="M25.37,24.41a3.61,3.61,0,1,0-3.61-3.61A3.61,3.61,0,0,0,25.37,24.41Zm0-5.77a2.16,2.16,0,1,1-2.16,2.16h0A2.16,2.16,0,0,1,25.37,18.64Z" transform="translate(0 -1.33)"/><path class="cls-2" d="M8.06,31.62h2.88a.72.72,0,0,0,.72-.72V28a.72.72,0,0,0-.72-.72H8.06a.72.72,0,0,0-.72.72V30.9A.72.72,0,0,0,8.06,31.62Zm.72-2.88h1.44v1.44H8.78Z" transform="translate(0 -1.33)"/><path class="cls-2" d="M8.06,37.39h2.88a.72.72,0,0,0,.72-.72V33.78a.72.72,0,0,0-.72-.72H8.06a.72.72,0,0,0-.72.72v2.88A.72.72,0,0,0,8.06,37.39Zm.72-2.88h1.44v1.44H8.78Z" transform="translate(0 -1.33)"/><path class="cls-2" d="M21,30.18h2.88a.72.72,0,0,0,.72-.72V26.57a.72.72,0,0,0-.72-.72H21a.72.72,0,0,0-.72.72v2.88A.72.72,0,0,0,21,30.18Zm.72-2.88h1.44v1.44H21.76Z" transform="translate(0 -1.33)"/><path class="cls-2" d="M26.09,26.57v2.88a.72.72,0,0,0,.72.72H29.7a.72.72,0,0,0,.72-.72V26.57a.72.72,0,0,0-.72-.72H26.81A.72.72,0,0,0,26.09,26.57Zm1.44.72H29v1.44H27.53Z" transform="translate(0 -1.33)"/><path class="cls-2" d="M23.93,35.95a.72.72,0,0,0,.72-.72V32.34a.72.72,0,0,0-.72-.72H21a.72.72,0,0,0-.72.72v2.88a.72.72,0,0,0,.72.72Zm-2.16-2.88h1.44V34.5H21.76Z" transform="translate(0 -1.33)"/><path class="cls-2" d="M29.7,31.62H26.81a.72.72,0,0,0-.72.72v2.88a.72.72,0,0,0,.72.72H29.7a.72.72,0,0,0,.72-.72V32.34A.72.72,0,0,0,29.7,31.62ZM29,34.5H27.53V33.06H29Z" transform="translate(0 -1.33)"/><rect class="cls-2" x="24.65" y="18.75" width="1.44" height="1.44"/><path class="cls-2" d="M39.79,31.62h2.88a.72.72,0,0,0,.72-.72V28a.72.72,0,0,0-.72-.72H39.79a.72.72,0,0,0-.72.72V30.9A.72.72,0,0,0,39.79,31.62Zm.72-2.88H42v1.44H40.51Z" transform="translate(0 -1.33)"/><path class="cls-2" d="M39.79,37.39h2.88a.72.72,0,0,0,.72-.72V33.78a.72.72,0,0,0-.72-.72H39.79a.72.72,0,0,0-.72.72v2.88A.72.72,0,0,0,39.79,37.39Zm.72-2.88H42v1.44H40.51Z" transform="translate(0 -1.33)"/><path class="cls-2" d="M46.23,24.89l0-.07a.72.72,0,0,0-.14-.2h0L41.75,20.3a.72.72,0,0,0-.51-.21H33.3V15a.71.71,0,0,0-.28-.55h0L26.09,8.92V5.66h4.33a.72.72,0,0,0,.72-.72V2.05a.72.72,0,0,0-.72-.72h-5a.72.72,0,0,0-.72.72V8.92l-6.94,5.55h0a.71.71,0,0,0-.28.55v5H9.5a.72.72,0,0,0-.51.21L4.67,24.62h0a.72.72,0,0,0-.14.2l0,.07a.72.72,0,0,0,0,.19s0,0,0,0V43.88a.72.72,0,0,0,.72.72H45.56a.72.72,0,0,0,.72-.72V25.13s0,0,0,0A.72.72,0,0,0,46.23,24.89ZM44.84,38.83H37.63v-13h7.21Zm-1-14.42H38.65l2.59-2.59Zm-4.33-2.88-2.88,2.88H33.3V21.52Zm-9-7.21H20.21l5.16-4.12ZM26.09,2.77H29.7V4.22H26.09ZM17.44,24.41H14.13l-2.88-2.88h6.19ZM13.11,38.83H5.9v-13h7.21Zm-3.61-17,2.59,2.59H6.92ZM5.9,40.27h7.21v2.88H5.9Zm8.65-14.42h2.88V43.16H14.55Zm4.33-.72V15.75h13v27.4H29v-5a.72.72,0,0,0-.72-.72H22.48a.72.72,0,0,0-.72.72v5H18.88Zm4.33,13.7h1.44v4.33H23.21Zm2.88,4.33V38.83h1.44v4.33ZM33.3,25.85h2.88V43.16H33.3Zm4.33,17.31V40.27h7.21v2.88Z" transform="translate(0 -1.33)"/><path class="cls-2" d="M49.47,44.67H.53a.53.53,0,0,1,0-1.07H49.47a.53.53,0,1,1,0,1.07" transform="translate(0 -1.33)"/></g></svg>