<svg xmlns="http://www.w3.org/2000/svg" width="15" height="15" viewBox="0 0 100 100">
  <defs>
    <style>
      .cls-1 {
        fill: rgba(0,0,0,0.44);
        fill-rule: evenodd;
      }
    </style>
  </defs>
  <path id="_2" data-name="2" class="cls-1" d="M50,86a54.814,54.814,0,0,1-8.972-.76L20,98V76.758C9.036,69.06,2,57.257,2,44,2,20.8,23.491,2,50,2S98,20.8,98,44,76.51,86,50,86ZM50,8C26.8,8,8,24.119,8,44c0,12.2,7.1,22.962,17.925,29.472L25.736,87.388,39.859,78.9A48.582,48.582,0,0,0,50,80c23.2,0,42-16.118,42-36S73.2,8,50,8ZM71,41H29a3,3,0,1,1,0-6H71A3,3,0,0,1,71,41ZM35,53H65a3,3,0,1,1,0,6H35A3,3,0,1,1,35,53Z"/>
</svg>
