<svg xmlns="http://www.w3.org/2000/svg" viewBox="0 0 18 18"><title>contact</title><g id="Layer_124" data-name="Layer 124"><path d="M16.36,3.64A9,9,0,1,0,3.64,16.36a9,9,0,0,0,10.63,1.56.53.53,0,0,0,.22-.73.54.54,0,0,0-.73-.22,7.92,7.92,0,1,1,4.16-7,7.72,7.72,0,0,1-.48,2.72,1.78,1.78,0,0,1-1.4,1,1.49,1.49,0,0,1-1.48-1.49V6.5a.55.55,0,0,0-1.09,0v.55a4.56,4.56,0,1,0,.08,5.8A2.58,2.58,0,0,0,16,14.78a2.84,2.84,0,0,0,2.37-1.58A8.7,8.7,0,0,0,19,10,8.94,8.94,0,0,0,16.36,3.64ZM10,13.47A3.47,3.47,0,1,1,13.47,10,3.47,3.47,0,0,1,10,13.47Z" transform="translate(-1 -1)"/></g></svg>