<?xml version="1.0" encoding="utf-8"?>
<!-- Generator: Adobe Illustrator 22.0.1, SVG Export Plug-In . SVG Version: 6.00 Build 0)  -->
<svg version="1.1" id="Layer_1" xmlns="http://www.w3.org/2000/svg" xmlns:xlink="http://www.w3.org/1999/xlink" x="0px" y="0px"
	 viewBox="0 0 703.1 119" style="enable-background:new 0 0 703.1 119;" xml:space="preserve">
<style type="text/css">
	.st0{fill:#FFFFFF;stroke:#8380B4;stroke-miterlimit:10;}
	.st1{fill:none;stroke:#908CB9;stroke-linecap:round;stroke-linejoin:round;stroke-miterlimit:10;}
	.st2{fill:none;stroke:#908CB9;stroke-linecap:round;stroke-miterlimit:10;}
	.st3{fill:none;stroke:#8380B4;stroke-miterlimit:10;}
	.st4{fill:#97E5E8;stroke:#908CB9;stroke-miterlimit:10;}
	.st5{fill:#7AB0E8;stroke:#908CB9;stroke-miterlimit:10;}
	.st6{fill:none;stroke:#8380B4;stroke-width:0.3819;stroke-linecap:round;stroke-linejoin:round;stroke-miterlimit:10;}
	.st7{fill:none;stroke:#8380B4;stroke-width:0.4828;stroke-linecap:round;stroke-linejoin:round;stroke-miterlimit:10;}
	.st8{fill:none;stroke:#8380B4;stroke-width:0.4323;stroke-linecap:round;stroke-linejoin:round;stroke-miterlimit:10;}
	.st9{fill:none;stroke:#8380B4;stroke-width:0.5;stroke-linecap:round;stroke-linejoin:round;stroke-miterlimit:10;}
	.st10{fill:none;stroke:#8380B4;stroke-width:0.6321;stroke-linecap:round;stroke-linejoin:round;stroke-miterlimit:10;}
	.st11{fill:none;stroke:#8380B4;stroke-width:0.566;stroke-linecap:round;stroke-linejoin:round;stroke-miterlimit:10;}
	.st12{fill:none;stroke:#8380B4;stroke-width:0.4266;stroke-linecap:round;stroke-linejoin:round;stroke-miterlimit:10;}
	.st13{fill:none;stroke:#8380B4;stroke-width:0.5393;stroke-linecap:round;stroke-linejoin:round;stroke-miterlimit:10;}
	.st14{fill:none;stroke:#8380B4;stroke-width:0.4829;stroke-linecap:round;stroke-linejoin:round;stroke-miterlimit:10;}
	.st15{fill:none;stroke:#AEACCF;stroke-linecap:round;stroke-miterlimit:10;}
	.st16{fill:none;stroke:#8380B4;stroke-width:0.3566;stroke-linecap:round;stroke-linejoin:round;stroke-miterlimit:10;}
	.st17{fill:none;stroke:#8380B4;stroke-width:0.4507;stroke-linecap:round;stroke-linejoin:round;stroke-miterlimit:10;}
	.st18{fill:none;stroke:#8380B4;stroke-width:0.4037;stroke-linecap:round;stroke-linejoin:round;stroke-miterlimit:10;}
	.st19{fill:#FFFFFF;}
	.st20{fill:#FFFFFF;stroke:#8384B0;stroke-width:0.9945;stroke-miterlimit:10;}
	.st21{fill:none;stroke:#8384B0;stroke-width:0.9945;stroke-linecap:round;stroke-miterlimit:10;}
	.st22{fill:#FFFFFF;stroke:#8788B7;stroke-width:0.9945;stroke-miterlimit:10;}
	.st23{fill:#8788B7;}
	.st24{fill:#8384B0;}
	.st25{fill:#9696BC;}
	.st26{fill:none;stroke:#8887B5;stroke-width:0.9945;stroke-miterlimit:10;}
	.st27{fill:#FFFFFF;stroke:#8788B7;stroke-miterlimit:10;}
	.st28{fill:#FFFFFF;stroke:#8788B7;stroke-linecap:round;stroke-miterlimit:10;}
	.st29{fill:#E56353;stroke:#8788B7;stroke-miterlimit:10;}
	.st30{fill:#44C4A1;stroke:#8788B7;stroke-miterlimit:10;}
	.st31{fill:#FFFFFF;stroke:#8788B7;stroke-width:1.0073;stroke-linecap:round;stroke-linejoin:round;stroke-miterlimit:10;}
	.st32{fill:none;stroke:#8788B7;stroke-linecap:round;stroke-miterlimit:10;}
	.st33{fill:none;stroke:#8788B7;stroke-linecap:round;stroke-linejoin:round;stroke-miterlimit:10;}
	.st34{fill:#F3C3B8;}
	.st35{fill:#EBE2AF;}
	.st36{fill:#A0C9CC;}
	.st37{fill:none;stroke:#8380B4;stroke-linecap:round;stroke-miterlimit:10;}
	.st38{fill:none;stroke:#8380B4;stroke-linecap:round;stroke-miterlimit:10;stroke-dasharray:3.0276,3.0276;}
	.st39{fill:#8380B3;stroke:#8380B3;stroke-width:0.3567;stroke-miterlimit:10;}
	.st40{fill:none;stroke:#A6A3CB;stroke-linecap:round;stroke-miterlimit:10;}
	.st41{fill:#FFFFFF;stroke:#A6A3CB;stroke-miterlimit:10;}
	.st42{fill:none;stroke:#A6A3CB;stroke-miterlimit:10;}
	.st43{fill:#9DCAE3;stroke:#A6A3CB;stroke-miterlimit:10;}
	.st44{fill:#E4DD8E;stroke:#A6A3CB;stroke-miterlimit:10;}
	.st45{fill:#95E3BA;stroke:#A6A3CB;stroke-miterlimit:10;}
	.st46{fill:#D3BCB7;stroke:#A6A3CB;stroke-miterlimit:10;}
	.st47{fill:#5AB2E1;stroke:#A6A3CB;stroke-miterlimit:10;}
	.st48{fill:#BED6F0;stroke:#A6A3CB;stroke-miterlimit:10;}
	.st49{fill:#A6A3CB;}
	.st50{fill:none;stroke:#9A99C3;stroke-linecap:round;stroke-miterlimit:10;}
	.st51{fill:none;stroke:#000000;stroke-width:1.008;stroke-miterlimit:10;}
	.st52{fill:none;stroke:#9A99C3;stroke-miterlimit:10;}
	.st53{fill:#9A99C3;}
	.st54{fill:#8CD6B1;}
	.st55{fill:#F7F8FF;}
	.st56{fill:#D6E166;}
	.st57{fill:#5BAEDB;}
	.st58{fill:#849ECB;}
	.st59{fill:#D3B831;}
</style>
<g>
	<g>
		<polygon class="st0" points="142.1,98.1 142.1,62.5 97,62.5 97,98.3 		"/>
		<polyline class="st1" points="114.1,102.5 127.1,102.5 120.5,102.5 120.5,116.2 		"/>
		<polyline class="st2" points="111.7,115.6 120.6,106.7 129.4,116 		"/>
		<line class="st3" x1="92.9" y1="62.5" x2="147.3" y2="62.5"/>
		<path class="st4" d="M133.9,77.7c0-2.7-1-5.3-3-7.4c-2-2-4.7-3-7.4-3v10.4H133.9z"/>
		<path class="st5" d="M118.2,81.7V69.2c-3.2,0-6.4,1.2-8.8,3.7c-2.4,2.4-3.7,5.6-3.7,8.8c0,3.2,1.2,6.4,3.7,8.8
			c2.4,2.4,5.6,3.7,8.8,3.7c3.2,0,6.4-1.2,8.8-3.7c2.4-2.4,3.7-5.6,3.7-8.8H118.2z"/>
	</g>
	<g>
		<path class="st6" d="M632.8,7.4c-0.2,0-0.4-0.1-0.7-0.1c-1.8,0-3.2,1.4-3.2,3.2"/>
		<path class="st7" d="M640.7,8.5c0.1-0.4,0.2-0.7,0.2-1.1c0-2.2-1.8-4-4-4s-4,1.8-4,4l0,0"/>
		<path class="st6" d="M632.8,7.4"/>
		<path class="st8" d="M646.1,11.6c0-2-1.6-3.6-3.6-3.6c-0.7,0-1.3,0.2-1.8,0.5"/>
		<path class="st7" d="M640.7,8.5"/>
	</g>
	<g>
		<g>
			<path class="st9" d="M417.5,16.8c-0.3-0.1-0.6-0.1-0.9-0.1c-2.3,0-4.2,1.9-4.2,4.2"/>
			<path class="st10" d="M427.9,18.2c0.1-0.5,0.2-0.9,0.2-1.4c0-2.9-2.4-5.3-5.3-5.3s-5.3,2.4-5.3,5.3l0,0"/>
			<path class="st9" d="M417.5,16.8"/>
			<path class="st11" d="M435,22.3c0-2.6-2.1-4.7-4.7-4.7c-0.9,0-1.7,0.2-2.4,0.7"/>
			<path class="st10" d="M427.9,18.2"/>
		</g>
		<g>
			<path class="st12" d="M444.9,11.5c0.2-0.1,0.5-0.1,0.7-0.1c2,0,3.6,1.6,3.6,3.6"/>
			<path class="st13" d="M436,12.7c-0.1-0.4-0.2-0.8-0.2-1.2c0-2.5,2-4.5,4.5-4.5s4.5,2,4.5,4.5l0,0"/>
			<path class="st12" d="M444.9,11.5"/>
			<path class="st14" d="M430,16.2c0-2.2,1.8-4,4-4c0.7,0,1.4,0.2,2,0.6"/>
			<path class="st13" d="M436,12.7"/>
		</g>
	</g>
	<g>
		<g>
			<path class="st15" d="M287.3,11c0.3-0.1,0.6-0.1,0.9-0.1c2.5,0,4.6,2,4.6,4.6"/>
			<path class="st15" d="M276,12.5c-0.1-0.5-0.2-1-0.2-1.6c0-3.2,2.6-5.8,5.8-5.8c3.2,0,5.8,2.6,5.8,5.8l0,0"/>
			<path class="st15" d="M287.3,11"/>
			<path class="st15" d="M268.2,17c0-2.9,2.3-5.2,5.2-5.2c0.9,0,1.8,0.3,2.6,0.7"/>
			<path class="st15" d="M276,12.5"/>
		</g>
	</g>
	<g>
		<path class="st16" d="M41.8,8.9c-0.2,0-0.4-0.1-0.6-0.1c-1.7,0-3,1.3-3,3"/>
		<path class="st17" d="M49.2,9.9c0.1-0.3,0.2-0.7,0.2-1c0-2.1-1.7-3.8-3.8-3.8s-3.8,1.7-3.8,3.8l0,0"/>
		<path class="st16" d="M41.8,8.9"/>
		<path class="st18" d="M54.2,12.8c0-1.9-1.5-3.4-3.4-3.4c-0.6,0-1.2,0.2-1.7,0.5"/>
		<path class="st17" d="M49.2,9.9"/>
	</g>
	<g>
		
			<rect x="18.9" y="81.7" transform="matrix(0.7071 -0.7071 0.7071 0.7071 -54.056 41.6842)" class="st19" width="8.7" height="8.7"/>
		<path class="st20" d="M5.1,81.5v29.7c0,0.6,0.5,1.1,1.1,1.1h23.3V86.5h-5.7c-0.5,0-0.8-0.4-0.8-0.8v-5.3L6.3,80.3
			C5.7,80.3,5.1,80.8,5.1,81.5z"/>
		<line class="st21" x1="15" y1="85.5" x2="19.8" y2="85.5"/>
		<line class="st21" x1="15" y1="87.9" x2="20.6" y2="87.9"/>
		<line class="st21" x1="9" y1="94.5" x2="26" y2="94.5"/>
		<path class="st22" d="M33.9,114.2V98.5c0-1.1-0.9-2-2-2H19c-1.1,0-2,0.9-2,2v15.7c0,1.1,0.9,2,2,2h12.8
			C33,116.2,33.9,115.3,33.9,114.2z"/>
		<path class="st22" d="M31.8,100.5v1.8c0,0.6-0.5,1.2-1.2,1.2H20.1c-0.6,0-1.2-0.5-1.2-1.2v-1.8c0-0.6,0.5-1.2,1.2-1.2h10.5
			C31.2,99.3,31.8,99.9,31.8,100.5z"/>
		<circle class="st23" cx="20.5" cy="107.5" r="1.6"/>
		<circle class="st23" cx="25.2" cy="107.5" r="1.6"/>
		<circle class="st23" cx="30.4" cy="107.5" r="1.6"/>
		<circle class="st23" cx="30.4" cy="112.1" r="1.6"/>
		<circle class="st23" cx="25.1" cy="112.1" r="1.6"/>
		<circle class="st23" cx="20.7" cy="112.1" r="1.6"/>
		<rect x="14.1" y="89.6" class="st24" width="1.8" height="1.8"/>
		<rect x="8.5" y="97.5" class="st24" width="1.8" height="1.8"/>
		<rect x="8.5" y="100.4" class="st24" width="1.8" height="1.8"/>
		<rect x="8.5" y="103.2" class="st24" width="1.8" height="1.8"/>
		<rect x="8.5" y="106.3" class="st24" width="1.8" height="1.8"/>
		<rect x="12.5" y="97.5" class="st24" width="1.8" height="1.8"/>
		<rect x="12.5" y="100.4" class="st24" width="1.8" height="1.8"/>
		<rect x="12.5" y="103.2" class="st24" width="1.8" height="1.8"/>
		<rect x="12.5" y="106.3" class="st24" width="1.8" height="1.8"/>
		<rect x="17.1" y="89.6" class="st24" width="1.8" height="1.8"/>
		<rect x="20.1" y="89.6" class="st24" width="1.8" height="1.8"/>
		<rect x="23.1" y="89.6" class="st24" width="1.8" height="1.8"/>
		<g>
			<g>
				<path class="st25" d="M10.5,92.2v-1.1c-0.6,0-1.2-0.2-1.6-0.5l0.3-0.7c0.4,0.3,0.9,0.4,1.5,0.4c0.7,0,1.2-0.4,1.2-1
					s-0.4-0.9-1.2-1.2C9.6,87.7,9,87.2,9,86.3s0.6-1.5,1.6-1.7v-1h0.6v1c0.6,0,1.1,0.2,1.4,0.4l-0.3,0.7c-0.2-0.1-0.6-0.4-1.3-0.4
					c-0.8,0-1.1,0.5-1.1,0.9c0,0.5,0.4,0.8,1.3,1.2c1.1,0.4,1.6,1,1.6,1.9c0,0.8-0.6,1.6-1.6,1.8v1.1H10.5z"/>
			</g>
		</g>
		<line class="st26" x1="23.2" y1="80.3" x2="29.6" y2="86.3"/>
	</g>
	<g>
		<path class="st27" d="M43.2,74.6h44.7c1.7,0,3,1.3,3,3v32.2H40.2c0,0-0.1-23.6-0.1-32.1C40.2,76,41.5,74.6,43.2,74.6z"/>
		<polyline class="st28" points="52.3,78 87.3,78 87.3,107.3 43.8,107.3 43.8,78 49.9,78 		"/>
		<path class="st29" d="M57.9,93.6c0-0.9-0.4-1.9-1.1-2.6s-1.6-1.1-2.6-1.1v3.6L57.9,93.6z"/>
		<path class="st30" d="M52.4,95v-4.4c-1.1,0-2.2,0.4-3.1,1.3c-0.9,0.9-1.3,2-1.3,3.1s0.4,2.2,1.3,3.1c0.9,0.9,2,1.3,3.1,1.3
			s2.2-0.4,3.1-1.3s1.3-2,1.3-3.1H52.4z"/>
		<polyline class="st28" points="62.7,84.4 62.7,102.6 82.1,102.6 		"/>
		<polyline class="st31" points="65.1,91.9 69.4,88.8 71.8,91.8 78.1,84.6 		"/>
		<line class="st32" x1="48.9" y1="83.2" x2="56" y2="83.2"/>
		<line class="st32" x1="47.9" y1="86.2" x2="56.8" y2="86.2"/>
		<line class="st32" x1="62.7" y1="87" x2="61.3" y2="87"/>
		<line class="st32" x1="62.7" y1="90" x2="61.3" y2="90"/>
		<line class="st32" x1="62.7" y1="93.5" x2="61.3" y2="93.5"/>
		<line class="st32" x1="62.7" y1="96.5" x2="61.3" y2="96.5"/>
		<line class="st32" x1="62.7" y1="100.5" x2="61.3" y2="100.5"/>
		<polyline class="st33" points="75.2,84 78.6,84 78.6,87.2 		"/>
		<g>
			<rect x="65.1" y="93.5" class="st34" width="3.8" height="8.6"/>
			<g>
				<path class="st23" d="M68.5,94v7.6h-2.8V94H68.5 M69.5,93h-4.8v9.6h4.8V93L69.5,93z"/>
			</g>
		</g>
		<g>
			<rect x="70.5" y="96.2" class="st35" width="3.8" height="5.9"/>
			<g>
				<path class="st23" d="M73.8,96.7v4.9H71v-4.9H73.8 M74.8,95.7H70v6.9h4.8V95.7L74.8,95.7z"/>
			</g>
		</g>
		<g>
			<rect x="76.3" y="90.7" class="st36" width="3.8" height="11.4"/>
			<g>
				<path class="st23" d="M79.6,91.2v10.4h-2.8V91.2H79.6 M80.6,90.2h-4.8v12.4h4.8V90.2L80.6,90.2z"/>
			</g>
		</g>
		<path class="st32" d="M74.7,116.2H40.1c-2.6-1.3-3.9-3.2-3.4-6h22.6l1.7,2.9h10.1l1.8-2.9h21.7c0.3,2.1-0.3,4.1-2.5,5.7h-14"/>
	</g>
	<g>
		<g>
			<g>
				<g>
					<path class="st19" d="M142.9,90.5c7.2,1.6,15,0.9,21.8-2s12.7-8,16.6-14.3c1.7-2.8,3.1-6.1,2.3-9.3c-1-4.1-5.7-6.8-9.7-5.5
						s-6.3,6.2-4.8,10.1c1,2.5,3.3,4.3,5.8,5.1c2.5,0.9,5.3,0.8,7.9,0.4c12.1-2.1,21.1-12.1,32-17.8c5.7-3,12-4.8,18.5-5.2"/>
					<g>
						<path class="st37" d="M142.9,90.5c0.5,0.1,1,0.2,1.5,0.3"/>
						<path class="st38" d="M147.4,91.2c5.9,0.5,11.9-0.4,17.3-2.7c6.8-2.9,12.7-8,16.6-14.3c1.7-2.8,3.1-6.1,2.3-9.3
							c-1-4.1-5.7-6.8-9.7-5.5s-6.3,6.2-4.8,10.1c1,2.5,3.3,4.3,5.8,5.1s5.3,0.8,7.9,0.4c12.1-2.1,21.1-12.1,32-17.8
							c4.8-2.5,10.1-4.2,15.5-4.9"/>
						<path class="st37" d="M231.9,52.1c0.5-0.1,1-0.1,1.5-0.1"/>
					</g>
				</g>
				<g>
					<g>
						<path class="st0" d="M238.8,52.8"/>
					</g>
				</g>
			</g>
		</g>
		<g>
			<g>
				<path class="st39" d="M249,47c0-0.1-0.1-0.1-0.2-0.2c0,0,0,0-0.1,0l-17.1,0.1c-0.1,0-0.2,0.1-0.3,0.2c0,0.1,0,0.2,0.1,0.3
					l5.3,3.5l-1.6,4.1c0,0.1,0,0.2,0.1,0.3l0.1,0.1c0.1,0,0.1,0,0.2,0l2.6-1.1l1.2,3.2c0,0.1,0.1,0.2,0.2,0.2l0,0
					c0.1,0,0.2,0,0.3-0.1l9.2-10.3C249,47.2,249,47.1,249,47L249,47z M246.8,47.4l-9.7,3.1l-4.6-3L246.8,47.4z M235.9,54.6l1.2-2.9
					l0.8,2.1L235.9,54.6z M239.6,56.8l-2.1-5.8l10.4-3.3L239.6,56.8z"/>
			</g>
		</g>
	</g>
	<g>
		<g>
			<path class="st39" d="M183.4,115.9c0,0.1,0.1,0.1,0.2,0.2c0,0,0,0,0.1,0l17.1-0.1c0.1,0,0.2-0.1,0.3-0.2c0-0.1,0-0.2-0.1-0.3
				l-5.3-3.5l1.6-4.1c0-0.1,0-0.2-0.1-0.3l-0.1-0.1c-0.1,0-0.1,0-0.2,0l-2.6,1.1l-1.2-3.2c0-0.1-0.1-0.2-0.2-0.2l0,0
				c-0.1,0-0.2,0-0.3,0.1l-9.2,10.3C183.3,115.7,183.3,115.8,183.4,115.9L183.4,115.9z M185.5,115.5l9.7-3.1l4.6,3L185.5,115.5z
				 M196.4,108.4l-1.2,2.9l-0.8-2.1L196.4,108.4z M192.7,106.1l2.1,5.8l-10.4,3.3L192.7,106.1z"/>
		</g>
	</g>
	<g>
		<polyline class="st40" points="589.8,76 589.8,68 642.6,68 642.6,90.3 		"/>
		<polyline class="st40" points="642.7,93.1 642.7,107.9 589.6,107.9 589.6,78.9 		"/>
		<circle class="st41" cx="599.5" cy="79.1" r="2.7"/>
		<circle class="st41" cx="610.7" cy="68.3" r="2.8"/>
		<circle class="st41" cx="621.5" cy="74.9" r="2.8"/>
		<circle class="st41" cx="631.9" cy="65.1" r="2.7"/>
		<line class="st42" x1="601.6" y1="77.2" x2="609" y2="70.6"/>
		<line class="st42" x1="613.5" y1="69.4" x2="618.8" y2="73.2"/>
		<line class="st40" x1="630" y1="67" x2="623.7" y2="73.3"/>
		<line class="st42" x1="589.3" y1="100.4" x2="642.7" y2="100.4"/>
		<rect x="604.2" y="112.5" class="st42" width="25" height="4.2"/>
		<line class="st42" x1="609.5" y1="108" x2="609.5" y2="112.9"/>
		<line class="st42" x1="623.3" y1="107.8" x2="623.3" y2="112.7"/>
		<rect x="593.2" y="90.1" class="st43" width="6.4" height="9.9"/>
		<rect x="603.2" y="82.1" class="st44" width="6.4" height="18"/>
		<rect x="613.3" y="90.8" class="st45" width="5.8" height="9.2"/>
		<rect x="623.3" y="84.1" class="st46" width="5.8" height="15.9"/>
		<rect x="632.8" y="76" class="st47" width="6.2" height="24.1"/>
	</g>
	<g>
		<path class="st40" d="M652.2,84.1l0.1-5.3c0-2.3,2.9-2.3,2.9,0v35h41.6c2.3,0,2.3,3,0,3H652V87"/>
		<path class="st40" d="M658.2,96.2c10.7-1.6,20.8-7.2,27.7-15.5c0.5-0.6,1-1.3,1.5-1.9"/>
		<polyline class="st40" points="682.9,78.6 687.5,78.6 687.5,83 		"/>
		<path class="st40" d="M690.2,95.5v-4c0-3.3-7-3.3-7,0v9.6"/>
		<circle class="st48" cx="687.3" cy="106.9" r="6.8"/>
		<line class="st40" x1="690.2" y1="97" x2="690.2" y2="100.7"/>
		<polyline class="st42" points="658.6,113.9 658.6,101 665.8,101 665.8,114.1 		"/>
		<polyline class="st42" points="671,114.1 671,96.1 677.9,96.1 677.9,113.7 		"/>
		<g>
			<path class="st49" d="M686.9,111.2v-1.1c-0.6,0-1.2-0.2-1.6-0.5l0.3-0.7c0.4,0.3,0.9,0.5,1.5,0.5c0.7,0,1.2-0.4,1.2-1
				s-0.4-0.9-1.2-1.2c-1.1-0.4-1.7-0.9-1.7-1.8s0.6-1.5,1.6-1.7v-1.1h0.7v1c0.6,0,1.1,0.2,1.4,0.4l-0.3,0.7
				c-0.2-0.1-0.7-0.4-1.3-0.4c-0.8,0-1.1,0.5-1.1,0.9c0,0.5,0.4,0.8,1.3,1.2c1.1,0.4,1.6,1,1.6,1.9c0,0.8-0.6,1.6-1.7,1.8v1.1H686.9
				z"/>
		</g>
	</g>
	<g>
		<polyline class="st50" points="541.2,94.5 541.2,87.3 548.5,80 570.9,80 570.9,89.9 		"/>
		<line class="st40" x1="563.8" y1="83.7" x2="569.1" y2="83.7"/>
		<line class="st40" x1="556.9" y1="86.8" x2="568.9" y2="86.8"/>
		<path class="st50" d="M558.1,91.9h19.4v24.8h-19.3C558.2,116.7,558,91.9,558.1,91.9z"/>
		<path class="st51" d="M552.1,94.7"/>
		<line class="st50" x1="559.6" y1="95.1" x2="567.4" y2="95.1"/>
		<line class="st50" x1="569.2" y1="95.1" x2="571.4" y2="95.1"/>
		<line class="st50" x1="558.3" y1="97.1" x2="577.1" y2="97.1"/>
		<line class="st52" x1="562.9" y1="100.2" x2="563.9" y2="100.2"/>
		<line class="st52" x1="565.9" y1="100.3" x2="566.8" y2="100.3"/>
		<line class="st52" x1="568.9" y1="100.2" x2="569.9" y2="100.2"/>
		<line class="st52" x1="571.8" y1="100.2" x2="572.9" y2="100.2"/>
		<g>
			<g>
				<polygon class="st53" points="562.8,102.3 561.4,102.3 561.4,103.8 562.8,103.8 				"/>
			</g>
			<g>
				<polygon class="st53" points="566.7,102.3 565.2,102.3 565.2,103.8 566.7,103.8 				"/>
			</g>
			<g>
				<polygon class="st53" points="570.5,102.3 569.1,102.3 569.1,103.8 570.5,103.8 				"/>
			</g>
			<g>
				<polygon class="st53" points="574.5,102.3 573.1,102.3 573.1,103.8 574.5,103.8 				"/>
			</g>
		</g>
		<g>
			<g>
				<polygon class="st53" points="562.8,112 561.4,112 561.4,113.4 562.8,113.4 				"/>
			</g>
			<g>
				<polygon class="st53" points="566.7,112 565.2,112 565.2,113.4 566.7,113.4 				"/>
			</g>
			<g>
				<polygon class="st53" points="570.5,112 569.1,112 569.1,113.4 570.5,113.4 				"/>
			</g>
			<g>
				<polygon class="st53" points="574.5,112 573.1,112 573.1,113.4 574.5,113.4 				"/>
			</g>
		</g>
		<g>
			<g>
				<polygon class="st53" points="562.8,109.6 561.4,109.6 561.4,111 562.8,111 				"/>
			</g>
			<g>
				<polygon class="st53" points="566.7,109.6 565.2,109.6 565.2,111 566.7,111 				"/>
			</g>
			<g>
				<polygon class="st53" points="570.5,109.6 569.1,109.6 569.1,111 570.5,111 				"/>
			</g>
			<g>
				<polygon class="st53" points="574.5,109.6 573.1,109.6 573.1,111 574.5,111 				"/>
			</g>
		</g>
		<g>
			<g>
				<polygon class="st53" points="562.8,107.2 561.4,107.2 561.4,108.6 562.8,108.6 				"/>
			</g>
			<g>
				<polygon class="st53" points="566.7,107.2 565.2,107.2 565.2,108.6 566.7,108.6 				"/>
			</g>
			<g>
				<polygon class="st53" points="570.5,107.2 569.1,107.2 569.1,108.6 570.5,108.6 				"/>
			</g>
			<g>
				<polygon class="st53" points="574.5,107.2 573.1,107.2 573.1,108.6 574.5,108.6 				"/>
			</g>
		</g>
		<g>
			<g>
				<polygon class="st53" points="562.8,104.8 561.4,104.8 561.4,106.2 562.8,106.2 				"/>
			</g>
			<g>
				<polygon class="st53" points="566.7,104.8 565.2,104.8 565.2,106.2 566.7,106.2 				"/>
			</g>
			<g>
				<polygon class="st53" points="570.5,104.8 569.1,104.8 569.1,106.2 570.5,106.2 				"/>
			</g>
			<g>
				<polygon class="st53" points="574.5,104.8 573.1,104.8 573.1,106.2 574.5,106.2 				"/>
			</g>
		</g>
		<g>
			<rect x="541.3" y="97.4" class="st54" width="8" height="3"/>
			<g>
				<path class="st49" d="M548.9,97.9v2h-7v-2H548.9 M549.9,96.9h-9v4h9V96.9L549.9,96.9z"/>
			</g>
		</g>
		<g>
			<rect x="541.3" y="100.3" class="st55" width="8" height="3"/>
			<g>
				<path class="st49" d="M548.9,100.8v2h-7v-2H548.9 M549.9,99.8h-9v4h9V99.8L549.9,99.8z"/>
			</g>
		</g>
		<g>
			<rect x="541.3" y="103.3" class="st55" width="8" height="3"/>
			<g>
				<path class="st49" d="M548.9,103.8v2h-7v-2H548.9 M549.9,102.8h-9v4h9V102.8L549.9,102.8z"/>
			</g>
		</g>
		<g>
			<rect x="541.3" y="106.3" class="st56" width="8" height="3"/>
			<g>
				<path class="st49" d="M548.9,106.8v2h-7v-2H548.9 M549.9,105.8h-9v4h9V105.8L549.9,105.8z"/>
			</g>
		</g>
		<g>
			<rect x="541.3" y="109.3" class="st55" width="8" height="3"/>
			<g>
				<path class="st49" d="M548.9,109.8v2h-7v-2H548.9 M549.9,108.8h-9v4h9V108.8L549.9,108.8z"/>
			</g>
		</g>
		<g>
			<rect x="541.3" y="112.3" class="st57" width="8" height="3"/>
			<g>
				<path class="st49" d="M548.9,112.8v2h-7v-2H548.9 M549.9,111.8h-9v4h9V111.8L549.9,111.8z"/>
			</g>
		</g>
		<g>
			<rect x="549.3" y="106.3" class="st58" width="7" height="3"/>
			<g>
				<path class="st49" d="M555.9,106.8v2h-6v-2H555.9 M556.9,105.8h-8v4h8V105.8L556.9,105.8z"/>
			</g>
		</g>
		<g>
			<rect x="549.3" y="109.3" class="st55" width="7" height="3"/>
			<g>
				<path class="st49" d="M555.9,109.8v2h-6v-2H555.9 M556.9,108.8h-8v4h8V108.8L556.9,108.8z"/>
			</g>
		</g>
		<g>
			<rect x="549.3" y="112.3" class="st59" width="7" height="3"/>
			<g>
				<path class="st49" d="M555.9,112.8v2h-6v-2H555.9 M556.9,111.8h-8v4h8V111.8L556.9,111.8z"/>
			</g>
		</g>
	</g>
	<g>
		<line class="st40" x1="491" y1="117.9" x2="494" y2="117.9"/>
		<line class="st40" x1="496.4" y1="117.9" x2="527.8" y2="117.9"/>
		<line class="st40" x1="531.9" y1="117.9" x2="536.6" y2="117.9"/>
		<line class="st40" x1="581.2" y1="117.9" x2="600.5" y2="117.9"/>
		<line class="st40" x1="633.4" y1="117.9" x2="696.6" y2="117.9"/>
	</g>
	<g>
		<line class="st40" x1="461" y1="117.9" x2="464" y2="117.9"/>
		<line class="st40" x1="466.4" y1="117.9" x2="497.8" y2="117.9"/>
		<line class="st40" x1="501.9" y1="117.9" x2="506.6" y2="117.9"/>
		<line class="st40" x1="551.2" y1="117.9" x2="570.5" y2="117.9"/>
		<line class="st40" x1="603.4" y1="117.9" x2="666.6" y2="117.9"/>
	</g>
	<g>
		<line class="st40" x1="216.1" y1="117.3" x2="213.1" y2="117.3"/>
		<line class="st40" x1="210.7" y1="117.3" x2="179.3" y2="117.3"/>
		<line class="st40" x1="175.2" y1="117.3" x2="170.5" y2="117.3"/>
		<line class="st40" x1="125.9" y1="117.3" x2="106.6" y2="117.3"/>
		<line class="st40" x1="73.7" y1="117.3" x2="10.5" y2="117.3"/>
	</g>
	<g>
		<line class="st40" x1="286.1" y1="117.3" x2="283.1" y2="117.3"/>
		<line class="st40" x1="280.7" y1="117.3" x2="249.3" y2="117.3"/>
		<line class="st40" x1="245.2" y1="117.3" x2="240.5" y2="117.3"/>
		<line class="st40" x1="195.9" y1="117.3" x2="176.6" y2="117.3"/>
		<line class="st40" x1="143.7" y1="117.3" x2="80.5" y2="117.3"/>
	</g>
</g>
</svg>
