<?xml version="1.0" encoding="utf-8"?>
<!-- Generator: Adobe Illustrator 20.1.0, SVG Export Plug-In . SVG Version: 6.00 Build 0)  -->
<svg version="1.1" id="Layer_1" xmlns="http://www.w3.org/2000/svg" xmlns:xlink="http://www.w3.org/1999/xlink" x="0px" y="0px"
	 viewBox="0 0 435.7 278.3" style="enable-background:new 0 0 435.7 278.3;" xml:space="preserve">
<style type="text/css">
	.st0{fill-rule:evenodd;clip-rule:evenodd;fill:#F6FBFF;}
	.st1{fill:#717290;}
	.st2{fill:#0E4444;}
	.st3{fill:#2C6B6B;}
	.st4{fill:#76BEBF;}
	.st5{fill:#8CC0B9;}
	.st6{fill:#56A5A4;}
	.st7{fill:#408080;}
	.st8{fill:#638F8B;}
	.st9{fill:#4D9594;}
	.st10{fill:#79ACA6;}
	.st11{fill:#2E6666;}
	.st12{fill:#477472;}
	.st13{fill:#3E7D7C;}
	.st14{fill:#588A87;}
	.st15{fill:#538482;}
	.st16{fill:#2A6868;}
	.st17{fill:#141414;}
	.st18{fill:#40BCDF;}
	.st19{fill:#ECEFF0;}
	.st20{fill:#1F2B38;}
	.st21{fill:#89C540;}
	.st22{fill:#A7CE38;}
	.st23{fill:#FFFFFF;}
	.st24{fill:#4F4F73;}
</style>
<path class="st0" d="M28.4,266.5h197.7v-0.4H395c12.8,0,23.2-10.5,23.2-23.2l0,0c0-12.8-10.5-23.2-23.2-23.2h-13.6
	c-3.4,0-6.2-2.8-6.2-6.2l0,0c0-3.4,2.8-6.2,6.2-6.2h1.9c28.9,0,52.6-23.7,52.6-52.6l0,0c0-28.9-23.7-52.6-52.6-52.6h-38.4
	c-6.8,0-12.3-5.6-12.3-12.3l0,0c0-6.8,5.6-12.3,12.3-12.3h7.2c11,0,20.1-9,20.1-20.1l0,0c0-11-9-20.1-20.1-20.1H252
	c-2.3-0.9-4-3.2-4-5.8l0,0c0-3.4,2.8-6.2,6.2-6.2h18.9c6.9,0,12.6-5.7,12.6-12.6v0c0-6.9-5.7-12.6-12.6-12.6H92.6
	c-6.9,0-12.6,5.7-12.6,12.6v0c0,6.9,5.7,12.6,12.6,12.6h60.1c3.4,0,6.2,2.8,6.2,6.2l0,0c0,3.4-2.8,6.2-6.2,6.2H58.1
	c-12.8,0-23.2,10.5-23.2,23.2l0,0C34.8,73.6,45.3,84,58.1,84h5.6c3.4,0,6.2,2.8,6.2,6.2l0,0c0,3.4-2.8,6.2-6.2,6.2H52.6
	C23.7,96.5,0,120.1,0,149l0,0c0,28.9,23.7,52.6,52.6,52.6c6.8,0,12.3,5.6,12.3,12.3l0,0c0,6.8-5.6,12.3-12.3,12.3H28.4
	c-11,0-20.1,9-20.1,20.1l0,0C8.3,257.4,17.4,266.5,28.4,266.5L28.4,266.5z M400.9,76.9c-10.9,0-19.7-8.8-19.7-19.7
	s8.8-19.7,19.7-19.7c10.9,0,19.7,8.8,19.7,19.7S411.8,76.9,400.9,76.9z"/>
<g>
	<g>
		<g>
			<rect x="212.7" y="32.1" class="st1" width="18.4" height="11.8"/>
		</g>
	</g>
	<g>
		<g>
			<polygon class="st2" points="306.3,81.9 352,81.9 362.1,102.6 306.3,102.6 			"/>
		</g>
	</g>
	<g>
		<g>
			<polygon class="st2" points="119,81.9 73.4,81.9 63.3,102.6 119,102.6 			"/>
		</g>
	</g>
	<g>
		<g>
			<polygon class="st3" points="240.9,73.4 305.2,73.4 319.3,102.6 240.9,102.6 			"/>
		</g>
	</g>
	<g>
		<g>
			<polygon class="st3" points="184.5,73.4 120.2,73.4 106,102.6 184.5,102.6 			"/>
		</g>
	</g>
	<g>
		<g>
			<rect x="166.7" y="177.6" class="st4" width="92.1" height="68.8"/>
		</g>
	</g>
	<g>
		<g>
			<rect x="166.7" y="102.6" class="st5" width="92.1" height="75"/>
		</g>
	</g>
	<g>
		<g>
			<rect x="166.7" y="177.6" class="st6" width="87.1" height="68.8"/>
		</g>
	</g>
	<g>
		<g>
			<polygon class="st5" points="258.7,86.4 258.7,102.6 166.7,102.6 166.7,86.4 203.5,49.6 221.9,49.6 			"/>
		</g>
	</g>
	<g>
		<g>
			<rect x="258.7" y="177.6" class="st7" width="55.7" height="68.8"/>
		</g>
	</g>
	<g>
		<g>
			<rect x="258.7" y="102.6" class="st8" width="55.7" height="75"/>
		</g>
	</g>
	<g>
		<g>
			<rect x="263.1" y="177.6" class="st9" width="51.3" height="68.8"/>
		</g>
	</g>
	<g>
		<g>
			<rect x="263.1" y="102.6" class="st10" width="51.3" height="75"/>
		</g>
	</g>
	<g>
		<g>
			<rect x="314.4" y="177.6" class="st11" width="42.8" height="68.8"/>
		</g>
	</g>
	<g>
		<g>
			<rect x="314.4" y="102.6" class="st12" width="42.8" height="75"/>
		</g>
	</g>
	<g>
		<g>
			<rect x="318.3" y="177.6" class="st13" width="38.9" height="68.8"/>
		</g>
	</g>
	<g>
		<g>
			<rect x="318.3" y="102.6" class="st14" width="38.9" height="75"/>
		</g>
	</g>
	<g>
		<g>
			<polygon class="st5" points="336.3,73.4 321.2,91.4 321.2,177.6 336.3,177.6 351.3,177.6 351.3,91.4 			"/>
		</g>
	</g>
	<g>
		<g>
			
				<rect x="111" y="177.6" transform="matrix(-1 -1.224647e-16 1.224647e-16 -1 277.6514 424.0012)" class="st7" width="55.7" height="68.8"/>
		</g>
	</g>
	<g>
		<g>
			
				<rect x="111" y="102.6" transform="matrix(-1 -1.224647e-16 1.224647e-16 -1 277.6514 280.2273)" class="st8" width="55.7" height="75"/>
		</g>
	</g>
	<g>
		<g>
			
				<rect x="111" y="177.6" transform="matrix(-1 -1.224647e-16 1.224647e-16 -1 273.2681 424.0012)" class="st9" width="51.3" height="68.8"/>
		</g>
	</g>
	<g>
		<g>
			
				<rect x="111" y="102.6" transform="matrix(-1 -1.224647e-16 1.224647e-16 -1 273.2681 280.2272)" class="st10" width="51.3" height="75"/>
		</g>
	</g>
	<g>
		<g>
			
				<rect x="68.2" y="177.6" transform="matrix(-1 -1.224647e-16 1.224647e-16 -1 179.1721 424.0012)" class="st11" width="42.8" height="68.8"/>
		</g>
	</g>
	<g>
		<g>
			
				<rect x="68.2" y="102.6" transform="matrix(-1 -1.224647e-16 1.224647e-16 -1 179.1721 280.2273)" class="st12" width="42.8" height="75"/>
		</g>
	</g>
	<g>
		<g>
			
				<rect x="68.2" y="177.6" transform="matrix(-1 -1.224647e-16 1.224647e-16 -1 174.2043 424.0012)" class="st15" width="37.8" height="68.8"/>
		</g>
	</g>
	<g>
		<g>
			
				<rect x="68.2" y="102.6" transform="matrix(-1 -1.224647e-16 1.224647e-16 -1 174.2043 280.2272)" class="st15" width="37.8" height="75"/>
		</g>
	</g>
	<g>
		<g>
			
				<rect x="71.7" y="177.6" transform="matrix(-1 -1.224647e-16 1.224647e-16 -1 177.711 424.0012)" class="st13" width="34.3" height="68.8"/>
		</g>
	</g>
	<g>
		<g>
			
				<rect x="71.7" y="102.6" transform="matrix(-1 -1.224647e-16 1.224647e-16 -1 177.711 280.2272)" class="st14" width="34.3" height="75"/>
		</g>
	</g>
	<g>
		<g>
			<polygon class="st5" points="89.1,73.4 104.1,91.4 104.1,177.6 89.1,177.6 74,177.6 74,91.4 			"/>
		</g>
	</g>
	<g>
		<g>
			<path class="st16" d="M247.9,97.4c0,1.8-0.3,3.5-0.8,5.2h-68.8c-0.5-1.6-0.8-3.4-0.8-5.2c0-9.8,7.9-17.7,17.7-17.7
				c0.3,0,0.6,0,1,0c2.6-6.6,9-11.3,16.5-11.3s13.9,4.7,16.5,11.3c0.3,0,0.6,0,1,0C239.9,79.7,247.9,87.7,247.9,97.4z"/>
		</g>
	</g>
	<g>
		<path class="st17" d="M349.3,249.9H82c-1,0-1.9-0.8-1.9-1.9c0-1,0.8-1.9,1.9-1.9h267.3c1,0,1.9,0.8,1.9,1.9
			C351.1,249.1,350.3,249.9,349.3,249.9z"/>
		<path class="st17" d="M72.6,249.9H42.6c-1,0-1.9-0.8-1.9-1.9c0-1,0.8-1.9,1.9-1.9h29.9c1,0,1.9,0.8,1.9,1.9
			C74.5,249.1,73.6,249.9,72.6,249.9z"/>
		<path class="st18" d="M389.4,249.9h-29.9c-1,0-1.9-0.8-1.9-1.9c0-1,0.8-1.9,1.9-1.9h29.9c1,0,1.9,0.8,1.9,1.9
			C391.3,249.1,390.5,249.9,389.4,249.9z"/>
		<path class="st18" d="M406.2,249.9h-6.4c-1,0-1.9-0.8-1.9-1.9c0-1,0.8-1.9,1.9-1.9h6.4c1,0,1.9,0.8,1.9,1.9
			C408.1,249.1,407.2,249.9,406.2,249.9z"/>
		<path class="st18" d="M31.8,249.9H21.7c-1,0-1.9-0.8-1.9-1.9c0-1,0.8-1.9,1.9-1.9h10.2c1,0,1.9,0.8,1.9,1.9
			C33.7,249.1,32.9,249.9,31.8,249.9z"/>
		<path class="st18" d="M5,249.9H2.4c-1,0-1.9-0.8-1.9-1.9c0-1,0.8-1.9,1.9-1.9H5c1,0,1.9,0.8,1.9,1.9C6.9,249.1,6.1,249.9,5,249.9z
			"/>
	</g>
	<g>
		<g>
			<circle class="st19" cx="212.7" cy="86.2" r="12.7"/>
		</g>
	</g>
	<g>
		<g>
			<path class="st20" d="M212.7,50c-0.2,0-0.4-0.2-0.4-0.4V32.1c0-0.2,0.2-0.4,0.4-0.4c0.2,0,0.4,0.2,0.4,0.4v17.5
				C213.1,49.8,212.9,50,212.7,50z"/>
		</g>
	</g>
	<g>
		<g>
			<path class="st21" d="M261.1,258.5H160c0.6-3.7,3.9-6.5,7.7-6.5c2.8,0,5.2,1.5,6.6,3.6c0-0.2-0.1-0.4-0.1-0.6
				c0-7.5,6.1-13.6,13.6-13.6c5,0,9.4,2.7,11.7,6.8c2.7-6.6,9.2-11.3,16.8-11.3c5.5,0,10.5,2.5,13.8,6.4c1.9-1.2,4.1-1.8,6.5-1.8
				c5.4,0,10,3.5,11.6,8.3c1-0.3,2-0.5,3.1-0.5C256.6,249.2,260.9,253.3,261.1,258.5z"/>
		</g>
	</g>
	<g>
		<g>
			<path class="st22" d="M258,258.5h-72.1c2.3-4.3,6.8-7.3,12-7.3c5,0,9.4,2.7,11.7,6.8c2.7-6.6,9.2-11.3,16.8-11.3
				c5.5,0,10.5,2.5,13.8,6.4c1.9-1.2,4.1-1.8,6.4-1.8C251.8,251.2,256.1,254.2,258,258.5z"/>
		</g>
	</g>
	<g>
		<g>
			<path class="st20" d="M212.7,87h-4.2c-0.5,0-0.9-0.4-0.9-0.9c0-0.5,0.4-0.9,0.9-0.9h3.3v-6c0-0.5,0.4-0.9,0.9-0.9
				s0.9,0.4,0.9,0.9v6.9C213.6,86.6,213.2,87,212.7,87z"/>
		</g>
	</g>
	<g>
		<g>
			<path class="st23" d="M346.7,127.6V169h-20.8v-41.3c0-5.7,4.7-10.4,10.4-10.4C342,117.2,346.7,121.9,346.7,127.6z"/>
		</g>
	</g>
	<g>
		<g>
			<circle class="st23" cx="336.3" cy="97.4" r="4.3"/>
		</g>
	</g>
	<g>
		<g>
			<rect x="329.7" y="198.2" class="st23" width="13.2" height="30.1"/>
		</g>
	</g>
	<g>
		<g>
			<rect x="290.6" y="198.2" class="st23" width="13.2" height="30.1"/>
		</g>
	</g>
	<g>
		<g>
			<rect x="269.3" y="198.2" class="st23" width="13.1" height="30.1"/>
		</g>
	</g>
	<g>
		<g>
			<rect x="290.6" y="125.1" class="st23" width="13.2" height="30.1"/>
		</g>
	</g>
	<g>
		<g>
			<rect x="269.3" y="125.1" class="st23" width="13.1" height="30.1"/>
		</g>
	</g>
	<g>
		<g>
			<path class="st23" d="M99.5,127.6V169H78.7v-41.3c0-5.7,4.7-10.4,10.4-10.4c5.6,0,10.2,4.5,10.4,10.1
				C99.5,127.4,99.5,127.5,99.5,127.6z"/>
		</g>
	</g>
	<g>
		<g>
			<circle class="st23" cx="89.1" cy="97.4" r="4.3"/>
		</g>
	</g>
	<g>
		<g>
			<rect x="82.5" y="198.2" class="st23" width="13.2" height="30.1"/>
		</g>
	</g>
	<g>
		<g>
			<rect x="121.6" y="198.2" class="st23" width="13.1" height="30.1"/>
		</g>
	</g>
	<g>
		<g>
			<path class="st21" d="M88.2,247.1c0,4.9-2.4,9.5-6.4,12.3c-0.1,0.1-0.1,0.1-0.2,0.1c-2.5,1.7-5.4,2.6-8.4,2.6c-3,0-6-0.9-8.6-2.7
				c-4.7-3.2-7.1-8.9-6.3-14.5l7.1-48.8c1.3-8.9,14.1-8.9,15.4,0l0.7,4.5l6.5,44.3C88.2,245.7,88.2,246.4,88.2,247.1z"/>
		</g>
	</g>
	<g>
		<g>
			<path class="st22" d="M88.2,247.1c0,4.9-2.4,9.5-6.4,12.3c-0.1,0.1-0.1,0.1-0.2,0.1c-0.1,0-0.1-0.1-0.2-0.1
				c-4.7-3.2-7.1-8.9-6.3-14.5l6.5-44.3l6.5,44.3C88.2,245.7,88.2,246.4,88.2,247.1z"/>
		</g>
	</g>
	<g>
		<g>
			<rect x="142.9" y="198.2" class="st23" width="13.2" height="30.1"/>
		</g>
	</g>
	<g>
		<g>
			<rect x="121.6" y="125.1" class="st23" width="13.1" height="30.1"/>
		</g>
	</g>
	<g>
		<g>
			<rect x="142.9" y="125.1" class="st23" width="13.2" height="30.1"/>
		</g>
	</g>
	<g>
		<g>
			<rect x="220.6" y="198.2" class="st23" width="18.7" height="30.1"/>
		</g>
	</g>
	<g>
		<g>
			<rect x="186.1" y="198.2" class="st23" width="18.7" height="30.1"/>
		</g>
	</g>
	<g>
		<g>
			<rect x="220.6" y="125.1" class="st23" width="18.7" height="30.1"/>
		</g>
	</g>
	<g>
		<g>
			<rect x="186.1" y="125.1" class="st23" width="18.7" height="30.1"/>
		</g>
	</g>
	<g>
		<g>
			<polygon class="st23" points="289.9,101.8 299.3,101.8 299.3,91.4 294.6,86.7 289.9,91.4 			"/>
		</g>
	</g>
	<g>
		<g>
			<polygon class="st23" points="126,101.8 135.5,101.8 135.5,91.4 130.8,86.7 126,91.4 			"/>
		</g>
	</g>
	<g>
		<g>
			<path class="st24" d="M266.9,278.3H153.5c-3.1,0-5.4-3.1-4.4-6.1l2.5-7.7c1.3-4,5.1-6.7,9.3-6.7h98.6c4.2,0,8,2.7,9.3,6.7
				l2.5,7.7C272.3,275.2,270.1,278.3,266.9,278.3z"/>
		</g>
	</g>
	<g>
		<g>
			<path class="st22" d="M366.1,247.1c0,4.9-2.4,9.5-6.4,12.3c-2.6,1.8-5.6,2.7-8.6,2.7c-2.1,0-4.3-0.5-6.2-1.4
				c-0.8-0.4-1.6-0.8-2.3-1.3c-4.7-3.2-7.1-8.9-6.3-14.5l7.1-48.8c0.2-1.5,0.7-2.7,1.5-3.6c3.7-5,12.8-3.8,13.9,3.6l7.1,48.8
				C366.1,245.7,366.1,246.4,366.1,247.1z"/>
		</g>
	</g>
</g>
</svg>
