<svg id="Layer_1" data-name="Layer 1" xmlns="http://www.w3.org/2000/svg" viewBox="0 0 91.5 94.9"><title>TEACHER SVG</title><path d="M32.31,58.47c11.55-6.71,23.22-6.58,35,0" transform="translate(-4.25 -4.85)"/><path d="M44.76,50.42V56.1c0,3.16,10.92,3.16,10.92,0V50.42" transform="translate(-4.25 -4.85)" style="fill:#fff;stroke:#000;stroke-miterlimit:10;stroke-width:1.5px"/><path d="M65.85,30.28l-.34,0V22.66a12.05,12.05,0,0,0-12.22-11.8H46.6a12.05,12.05,0,0,0-12.22,11.8V30.3l-.34,0a4.29,4.29,0,1,0,0,8.57l.34,0v1A12.05,12.05,0,0,0,46.6,51.59h6.69a12.05,12.05,0,0,0,12.22-11.8v-1l.34,0a4.29,4.29,0,1,0,0-8.57Z" transform="translate(-4.25 -4.85)" style="fill:#fff;stroke:#000;stroke-miterlimit:10;stroke-width:2px"/><path d="M48,35.9s2,3,3.77,0" transform="translate(-4.25 -4.85)" style="fill:none;stroke:#000;stroke-linecap:round;stroke-miterlimit:10"/><ellipse cx="51.53" cy="26.61" rx="1.26" ry="1.76"/><ellipse cx="39.82" cy="26.75" rx="1.26" ry="1.76"/><path d="M47.52,43.58c0,.73,1.09,1.33,2.42,1.33s2.43-.6,2.43-1.33Z" transform="translate(-4.25 -4.85)"/><path d="M59.28,42.91c0-2.95-4-5.34-9-5.34s-9,2.39-9,5.34" transform="translate(-4.25 -4.85)"/><path d="M35.07,30.77H32.31s-.69-8.56-.69-14.57,9.68-5.34,9.68-5.34a13.18,13.18,0,0,1,11.07-6c15.21.67,15.9,12,15.9,12l-.69,13.6H64.82l-.7-10.26s.7-6.68-13.14-7.34-15.21,6.67-15.21,6.67Z" transform="translate(-4.25 -4.85)"/><path d="M48.22,34.23" transform="translate(-4.25 -4.85)" style="stroke:#000;stroke-miterlimit:10"/><path d="M48.22,25.55" transform="translate(-4.25 -4.85)" style="stroke:#000;stroke-miterlimit:10"/><path d="M43.15,37a5.81,5.81,0,1,1,6-5.8A5.92,5.92,0,0,1,43.15,37Zm0-10.5A4.7,4.7,0,1,0,48,31.18,4.79,4.79,0,0,0,43.15,26.48Z" transform="translate(-4.25 -4.85)"/><path d="M56.74,37.3a5.81,5.81,0,1,1,6-5.8A5.92,5.92,0,0,1,56.74,37.3Zm0-10.5a4.7,4.7,0,1,0,4.87,4.7A4.79,4.79,0,0,0,56.74,26.8Z" transform="translate(-4.25 -4.85)"/><rect x="44.24" y="25.45" width="2.86" height="1.11"/><path d="M16.51,54.15H74.88A4.88,4.88,0,0,1,79.75,59V92.76a0,0,0,0,1,0,0H11.64a0,0,0,0,1,0,0V59A4.88,4.88,0,0,1,16.51,54.15Z" style="fill:#fff;stroke:#000;stroke-miterlimit:10;stroke-width:2px"/><line x1="0.75" y1="94.15" x2="90.75" y2="94.15" style="fill:#fff;stroke:#000;stroke-linecap:round;stroke-miterlimit:10;stroke-width:1.5px"/><line x1="14.39" y1="74.05" x2="14.39" y2="90.03" style="fill:#fff;stroke:#000;stroke-linecap:round;stroke-miterlimit:10;stroke-width:1.5px"/><circle cx="45.25" cy="73.65" r="13.5" style="fill:#f05050"/><path d="M56.82,72.4a4,4,0,0,1,.39,1.43,3.13,3.13,0,0,1-.94,2.43c-2.5,2.52-5,5-7.52,7.53a.44.44,0,0,1-.37.15h-1c-.12,0-.15,0-.15-.14q0-.54,0-1.08a.37.37,0,0,1,.17-.3L54.86,75A1.28,1.28,0,0,0,53.2,73L53,73.2c-2.47,2.47-4.94,4.93-7.41,7.41a.5.5,0,0,1-.41.17c-.32,0-.64,0-1,0-.12,0-.18,0-.17-.16,0-.35,0-.71,0-1.06a.3.3,0,0,1,.11-.25c2.56-2.55,5.11-5.12,7.68-7.67a3.15,3.15,0,0,1,3.64-.49l.13,0Z" transform="translate(-4.25 -4.85)" style="fill:#fff"/><path d="M42.55,83.92,44,85.32c0,.06.15.13,0,.18l-2.16.72Z" transform="translate(-4.25 -4.85)" style="fill:#fff"/></svg>