<?xml version="1.0" encoding="utf-8"?>
<!-- Generator: Adobe Illustrator 20.1.0, SVG Export Plug-In . SVG Version: 6.00 Build 0)  -->
<svg version="1.1" id="Layer_1" xmlns="http://www.w3.org/2000/svg" xmlns:xlink="http://www.w3.org/1999/xlink" x="0px" y="0px"
	 viewBox="0 0 435.7 278.3" style="enable-background:new 0 0 435.7 278.3;" xml:space="preserve">
<style type="text/css">
	.st0{fill-rule:evenodd;clip-rule:evenodd;fill:#F6FBFF;}
	.st1{display:none;}
	.st2{display:inline;}
	.st3{fill:#717290;}
	.st4{fill:#0E4444;}
	.st5{fill:#2C6B6B;}
	.st6{fill:#76BEBF;}
	.st7{fill:#8CC0B9;}
	.st8{fill:#56A5A4;}
	.st9{fill:#408080;}
	.st10{fill:#638F8B;}
	.st11{fill:#4D9594;}
	.st12{fill:#79ACA6;}
	.st13{fill:#2E6666;}
	.st14{fill:#477472;}
	.st15{fill:#3E7D7C;}
	.st16{fill:#588A87;}
	.st17{fill:#538482;}
	.st18{fill:#2A6868;}
	.st19{fill:#141414;}
	.st20{fill:#40BCDF;}
	.st21{fill:#ECEFF0;}
	.st22{fill:#1F2B38;}
	.st23{fill:#89C540;}
	.st24{fill:#A7CE38;}
	.st25{fill:#FFFFFF;}
	.st26{fill:#4F4F73;}
	.st27{fill:#ECECEC;}
	.st28{fill:#FBC39D;}
	.st29{fill:#F9AC7F;}
	.st30{fill:#1D1D1B;}
	.st31{fill:#E6E6E6;}
	.st32{fill:#111110;}
	.st33{fill:#262626;}
	.st34{fill:#323232;}
	.st35{fill:#DBDBDB;}
</style>
<path class="st0" d="M28.3,266.5H226v-0.4h168.9c12.8,0,23.2-10.5,23.2-23.2l0,0c0-12.8-10.5-23.2-23.2-23.2h-13.6
	c-3.4,0-6.2-2.8-6.2-6.2l0,0c0-3.4,2.8-6.2,6.2-6.2h1.9c28.9,0,52.6-23.7,52.6-52.6l0,0c0-28.9-23.7-52.6-52.6-52.6h-38.4
	c-6.8,0-12.3-5.6-12.3-12.3l0,0c0-6.8,5.6-12.3,12.3-12.3h7.2c11,0,20.1-9,20.1-20.1l0,0c0-11-9-20.1-20.1-20.1h-100
	c-2.3-0.9-4-3.2-4-5.8l0,0c0-3.4,2.8-6.2,6.2-6.2h18.9c6.9,0,12.6-5.7,12.6-12.6v0C285.6,5.7,280,0,273.1,0H92.5
	C85.6,0,80,5.7,80,12.6v0c0,6.9,5.7,12.6,12.6,12.6h60.1c3.4,0,6.2,2.8,6.2,6.2l0,0c0,3.4-2.8,6.2-6.2,6.2H58
	c-12.8,0-23.2,10.5-23.2,23.2l0,0C34.8,73.6,45.2,84,58,84h5.6c3.4,0,6.2,2.8,6.2,6.2l0,0c0,3.4-2.8,6.2-6.2,6.2H52.5
	c-28.9,0-52.6,23.7-52.6,52.6l0,0c0,28.9,23.7,52.6,52.6,52.6c6.8,0,12.3,5.6,12.3,12.3l0,0c0,6.8-5.6,12.3-12.3,12.3H28.3
	c-11,0-20.1,9-20.1,20.1l0,0C8.2,257.4,17.3,266.5,28.3,266.5L28.3,266.5z M400.8,76.9c-10.9,0-19.7-8.8-19.7-19.7
	s8.8-19.7,19.7-19.7c10.9,0,19.7,8.8,19.7,19.7S411.7,76.9,400.8,76.9z"/>
<g class="st1">
	<g class="st2">
		<g>
			<rect x="212.7" y="32.1" class="st3" width="18.4" height="11.8"/>
		</g>
	</g>
	<g class="st2">
		<g>
			<polygon class="st4" points="306.3,81.9 352,81.9 362.1,102.6 306.3,102.6 			"/>
		</g>
	</g>
	<g class="st2">
		<g>
			<polygon class="st4" points="119,81.9 73.4,81.9 63.3,102.6 119,102.6 			"/>
		</g>
	</g>
	<g class="st2">
		<g>
			<polygon class="st5" points="240.9,73.4 305.2,73.4 319.3,102.6 240.9,102.6 			"/>
		</g>
	</g>
	<g class="st2">
		<g>
			<polygon class="st5" points="184.5,73.4 120.2,73.4 106,102.6 184.5,102.6 			"/>
		</g>
	</g>
	<g class="st2">
		<g>
			<rect x="166.7" y="177.6" class="st6" width="92.1" height="68.8"/>
		</g>
	</g>
	<g class="st2">
		<g>
			<rect x="166.7" y="102.6" class="st7" width="92.1" height="75"/>
		</g>
	</g>
	<g class="st2">
		<g>
			<rect x="166.7" y="177.6" class="st8" width="87.1" height="68.8"/>
		</g>
	</g>
	<g class="st2">
		<g>
			<polygon class="st7" points="258.7,86.4 258.7,102.6 166.7,102.6 166.7,86.4 203.5,49.6 221.9,49.6 			"/>
		</g>
	</g>
	<g class="st2">
		<g>
			<rect x="258.7" y="177.6" class="st9" width="55.7" height="68.8"/>
		</g>
	</g>
	<g class="st2">
		<g>
			<rect x="258.7" y="102.6" class="st10" width="55.7" height="75"/>
		</g>
	</g>
	<g class="st2">
		<g>
			<rect x="263.1" y="177.6" class="st11" width="51.3" height="68.8"/>
		</g>
	</g>
	<g class="st2">
		<g>
			<rect x="263.1" y="102.6" class="st12" width="51.3" height="75"/>
		</g>
	</g>
	<g class="st2">
		<g>
			<rect x="314.4" y="177.6" class="st13" width="42.8" height="68.8"/>
		</g>
	</g>
	<g class="st2">
		<g>
			<rect x="314.4" y="102.6" class="st14" width="42.8" height="75"/>
		</g>
	</g>
	<g class="st2">
		<g>
			<rect x="318.3" y="177.6" class="st15" width="38.9" height="68.8"/>
		</g>
	</g>
	<g class="st2">
		<g>
			<rect x="318.3" y="102.6" class="st16" width="38.9" height="75"/>
		</g>
	</g>
	<g class="st2">
		<g>
			<polygon class="st7" points="336.3,73.4 321.2,91.4 321.2,177.6 336.3,177.6 351.3,177.6 351.3,91.4 			"/>
		</g>
	</g>
	<g class="st2">
		<g>
			
				<rect x="111" y="177.6" transform="matrix(-1 -1.224647e-16 1.224647e-16 -1 277.6514 424.0012)" class="st9" width="55.7" height="68.8"/>
		</g>
	</g>
	<g class="st2">
		<g>
			
				<rect x="111" y="102.6" transform="matrix(-1 -1.224647e-16 1.224647e-16 -1 277.6514 280.2273)" class="st10" width="55.7" height="75"/>
		</g>
	</g>
	<g class="st2">
		<g>
			
				<rect x="111" y="177.6" transform="matrix(-1 -1.224647e-16 1.224647e-16 -1 273.2681 424.0012)" class="st11" width="51.3" height="68.8"/>
		</g>
	</g>
	<g class="st2">
		<g>
			
				<rect x="111" y="102.6" transform="matrix(-1 -1.224647e-16 1.224647e-16 -1 273.2681 280.2272)" class="st12" width="51.3" height="75"/>
		</g>
	</g>
	<g class="st2">
		<g>
			
				<rect x="68.2" y="177.6" transform="matrix(-1 -1.224647e-16 1.224647e-16 -1 179.1721 424.0012)" class="st13" width="42.8" height="68.8"/>
		</g>
	</g>
	<g class="st2">
		<g>
			
				<rect x="68.2" y="102.6" transform="matrix(-1 -1.224647e-16 1.224647e-16 -1 179.1721 280.2273)" class="st14" width="42.8" height="75"/>
		</g>
	</g>
	<g class="st2">
		<g>
			
				<rect x="68.2" y="177.6" transform="matrix(-1 -1.224647e-16 1.224647e-16 -1 174.2043 424.0012)" class="st17" width="37.8" height="68.8"/>
		</g>
	</g>
	<g class="st2">
		<g>
			
				<rect x="68.2" y="102.6" transform="matrix(-1 -1.224647e-16 1.224647e-16 -1 174.2043 280.2272)" class="st17" width="37.8" height="75"/>
		</g>
	</g>
	<g class="st2">
		<g>
			
				<rect x="71.7" y="177.6" transform="matrix(-1 -1.224647e-16 1.224647e-16 -1 177.711 424.0012)" class="st15" width="34.3" height="68.8"/>
		</g>
	</g>
	<g class="st2">
		<g>
			
				<rect x="71.7" y="102.6" transform="matrix(-1 -1.224647e-16 1.224647e-16 -1 177.711 280.2272)" class="st16" width="34.3" height="75"/>
		</g>
	</g>
	<g class="st2">
		<g>
			<polygon class="st7" points="89.1,73.4 104.1,91.4 104.1,177.6 89.1,177.6 74,177.6 74,91.4 			"/>
		</g>
	</g>
	<g class="st2">
		<g>
			<path class="st18" d="M247.9,97.4c0,1.8-0.3,3.5-0.8,5.2h-68.8c-0.5-1.6-0.8-3.4-0.8-5.2c0-9.8,7.9-17.7,17.7-17.7
				c0.3,0,0.6,0,1,0c2.6-6.6,9-11.3,16.5-11.3s13.9,4.7,16.5,11.3c0.3,0,0.6,0,1,0C239.9,79.7,247.9,87.7,247.9,97.4z"/>
		</g>
	</g>
	<g class="st2">
		<path class="st19" d="M349.3,249.9H82c-1,0-1.9-0.8-1.9-1.9c0-1,0.8-1.9,1.9-1.9h267.3c1,0,1.9,0.8,1.9,1.9
			C351.1,249.1,350.3,249.9,349.3,249.9z"/>
		<path class="st19" d="M72.6,249.9H42.6c-1,0-1.9-0.8-1.9-1.9c0-1,0.8-1.9,1.9-1.9h29.9c1,0,1.9,0.8,1.9,1.9
			C74.5,249.1,73.6,249.9,72.6,249.9z"/>
		<path class="st20" d="M389.4,249.9h-29.9c-1,0-1.9-0.8-1.9-1.9c0-1,0.8-1.9,1.9-1.9h29.9c1,0,1.9,0.8,1.9,1.9
			C391.3,249.1,390.5,249.9,389.4,249.9z"/>
		<path class="st20" d="M406.2,249.9h-6.4c-1,0-1.9-0.8-1.9-1.9c0-1,0.8-1.9,1.9-1.9h6.4c1,0,1.9,0.8,1.9,1.9
			C408.1,249.1,407.2,249.9,406.2,249.9z"/>
		<path class="st20" d="M31.8,249.9H21.7c-1,0-1.9-0.8-1.9-1.9c0-1,0.8-1.9,1.9-1.9h10.2c1,0,1.9,0.8,1.9,1.9
			C33.7,249.1,32.9,249.9,31.8,249.9z"/>
		<path class="st20" d="M5,249.9H2.4c-1,0-1.9-0.8-1.9-1.9c0-1,0.8-1.9,1.9-1.9H5c1,0,1.9,0.8,1.9,1.9C6.9,249.1,6.1,249.9,5,249.9z
			"/>
	</g>
	<g class="st2">
		<g>
			<circle class="st21" cx="212.7" cy="86.2" r="12.7"/>
		</g>
	</g>
	<g class="st2">
		<g>
			<path class="st22" d="M212.7,50c-0.2,0-0.4-0.2-0.4-0.4V32.1c0-0.2,0.2-0.4,0.4-0.4c0.2,0,0.4,0.2,0.4,0.4v17.5
				C213.1,49.8,212.9,50,212.7,50z"/>
		</g>
	</g>
	<g class="st2">
		<g>
			<path class="st23" d="M261.1,258.5H160c0.6-3.7,3.9-6.5,7.7-6.5c2.8,0,5.2,1.5,6.6,3.6c0-0.2-0.1-0.4-0.1-0.6
				c0-7.5,6.1-13.6,13.6-13.6c5,0,9.4,2.7,11.7,6.8c2.7-6.6,9.2-11.3,16.8-11.3c5.5,0,10.5,2.5,13.8,6.4c1.9-1.2,4.1-1.8,6.5-1.8
				c5.4,0,10,3.5,11.6,8.3c1-0.3,2-0.5,3.1-0.5C256.6,249.2,260.9,253.3,261.1,258.5z"/>
		</g>
	</g>
	<g class="st2">
		<g>
			<path class="st24" d="M258,258.5h-72.1c2.3-4.3,6.8-7.3,12-7.3c5,0,9.4,2.7,11.7,6.8c2.7-6.6,9.2-11.3,16.8-11.3
				c5.5,0,10.5,2.5,13.8,6.4c1.9-1.2,4.1-1.8,6.4-1.8C251.8,251.2,256.1,254.2,258,258.5z"/>
		</g>
	</g>
	<g class="st2">
		<g>
			<path class="st22" d="M212.7,87h-4.2c-0.5,0-0.9-0.4-0.9-0.9c0-0.5,0.4-0.9,0.9-0.9h3.3v-6c0-0.5,0.4-0.9,0.9-0.9
				s0.9,0.4,0.9,0.9v6.9C213.6,86.6,213.2,87,212.7,87z"/>
		</g>
	</g>
	<g class="st2">
		<g>
			<path class="st25" d="M346.7,127.6V169h-20.8v-41.3c0-5.7,4.7-10.4,10.4-10.4C342,117.2,346.7,121.9,346.7,127.6z"/>
		</g>
	</g>
	<g class="st2">
		<g>
			<circle class="st25" cx="336.3" cy="97.4" r="4.3"/>
		</g>
	</g>
	<g class="st2">
		<g>
			<rect x="329.7" y="198.2" class="st25" width="13.2" height="30.1"/>
		</g>
	</g>
	<g class="st2">
		<g>
			<rect x="290.6" y="198.2" class="st25" width="13.2" height="30.1"/>
		</g>
	</g>
	<g class="st2">
		<g>
			<rect x="269.3" y="198.2" class="st25" width="13.1" height="30.1"/>
		</g>
	</g>
	<g class="st2">
		<g>
			<rect x="290.6" y="125.1" class="st25" width="13.2" height="30.1"/>
		</g>
	</g>
	<g class="st2">
		<g>
			<rect x="269.3" y="125.1" class="st25" width="13.1" height="30.1"/>
		</g>
	</g>
	<g class="st2">
		<g>
			<path class="st25" d="M99.5,127.6V169H78.7v-41.3c0-5.7,4.7-10.4,10.4-10.4c5.6,0,10.2,4.5,10.4,10.1
				C99.5,127.4,99.5,127.5,99.5,127.6z"/>
		</g>
	</g>
	<g class="st2">
		<g>
			<circle class="st25" cx="89.1" cy="97.4" r="4.3"/>
		</g>
	</g>
	<g class="st2">
		<g>
			<rect x="82.5" y="198.2" class="st25" width="13.2" height="30.1"/>
		</g>
	</g>
	<g class="st2">
		<g>
			<rect x="121.6" y="198.2" class="st25" width="13.1" height="30.1"/>
		</g>
	</g>
	<g class="st2">
		<g>
			<path class="st23" d="M88.2,247.1c0,4.9-2.4,9.5-6.4,12.3c-0.1,0.1-0.1,0.1-0.2,0.1c-2.5,1.7-5.4,2.6-8.4,2.6c-3,0-6-0.9-8.6-2.7
				c-4.7-3.2-7.1-8.9-6.3-14.5l7.1-48.8c1.3-8.9,14.1-8.9,15.4,0l0.7,4.5l6.5,44.3C88.2,245.7,88.2,246.4,88.2,247.1z"/>
		</g>
	</g>
	<g class="st2">
		<g>
			<path class="st24" d="M88.2,247.1c0,4.9-2.4,9.5-6.4,12.3c-0.1,0.1-0.1,0.1-0.2,0.1c-0.1,0-0.1-0.1-0.2-0.1
				c-4.7-3.2-7.1-8.9-6.3-14.5l6.5-44.3l6.5,44.3C88.2,245.7,88.2,246.4,88.2,247.1z"/>
		</g>
	</g>
	<g class="st2">
		<g>
			<rect x="142.9" y="198.2" class="st25" width="13.2" height="30.1"/>
		</g>
	</g>
	<g class="st2">
		<g>
			<rect x="121.6" y="125.1" class="st25" width="13.1" height="30.1"/>
		</g>
	</g>
	<g class="st2">
		<g>
			<rect x="142.9" y="125.1" class="st25" width="13.2" height="30.1"/>
		</g>
	</g>
	<g class="st2">
		<g>
			<rect x="220.6" y="198.2" class="st25" width="18.7" height="30.1"/>
		</g>
	</g>
	<g class="st2">
		<g>
			<rect x="186.1" y="198.2" class="st25" width="18.7" height="30.1"/>
		</g>
	</g>
	<g class="st2">
		<g>
			<rect x="220.6" y="125.1" class="st25" width="18.7" height="30.1"/>
		</g>
	</g>
	<g class="st2">
		<g>
			<rect x="186.1" y="125.1" class="st25" width="18.7" height="30.1"/>
		</g>
	</g>
	<g class="st2">
		<g>
			<polygon class="st25" points="289.9,101.8 299.3,101.8 299.3,91.4 294.6,86.7 289.9,91.4 			"/>
		</g>
	</g>
	<g class="st2">
		<g>
			<polygon class="st25" points="126,101.8 135.5,101.8 135.5,91.4 130.8,86.7 126,91.4 			"/>
		</g>
	</g>
	<g class="st2">
		<g>
			<path class="st26" d="M266.9,278.3H153.5c-3.1,0-5.4-3.1-4.4-6.1l2.5-7.7c1.3-4,5.1-6.7,9.3-6.7h98.6c4.2,0,8,2.7,9.3,6.7
				l2.5,7.7C272.3,275.2,270.1,278.3,266.9,278.3z"/>
		</g>
	</g>
	<g class="st2">
		<g>
			<path class="st24" d="M366.1,247.1c0,4.9-2.4,9.5-6.4,12.3c-2.6,1.8-5.6,2.7-8.6,2.7c-2.1,0-4.3-0.5-6.2-1.4
				c-0.8-0.4-1.6-0.8-2.3-1.3c-4.7-3.2-7.1-8.9-6.3-14.5l7.1-48.8c0.2-1.5,0.7-2.7,1.5-3.6c3.7-5,12.8-3.8,13.9,3.6l7.1,48.8
				C366.1,245.7,366.1,246.4,366.1,247.1z"/>
		</g>
	</g>
</g>
<g>
	<g>
		<path class="st27" d="M152.8,213.1l-33.5,39.3c-4.4,5.2-4,13,1.1,17.6l0,0c3.8,3.5,9.4,4.4,14.1,2.1c17.1-8.2,56.3-27.3,55.5-28.6
			c-0.6-1-9.4-16.2-16.5-28.5C169.1,207.4,158.5,206.5,152.8,213.1z"/>
		<path class="st28" d="M213.2,250.3l-76.3,24.9c-7,2.3-14.5-1.5-16.8-8.5l0,0c-2.3-7,1.5-14.5,8.5-16.8L205,225
			c7-2.3,14.5,1.5,16.8,8.5l0,0C224.1,240.5,220.2,248,213.2,250.3z"/>
		<path class="st27" d="M291.9,213.1l33.5,39.3c4.4,5.2,4,13-1.1,17.6l0,0c-3.8,3.5-9.4,4.4-14.1,2.1c-17.1-8.2-56.3-27.3-55.5-28.6
			c0.6-1,9.4-16.2,16.5-28.5C275.7,207.4,286.2,206.5,291.9,213.1z"/>
		<path class="st28" d="M231.5,250.3l76.3,24.9c7,2.3,14.5-1.5,16.8-8.5l0,0c2.3-7-1.5-14.5-8.5-16.8L239.8,225
			c-7-2.3-14.5,1.5-16.8,8.5l0,0C220.7,240.5,224.5,248,231.5,250.3z"/>
		<path class="st27" d="M273.7,219.3l-97.2-2v-12.5c0-20.4,20.7-39.4,41.1-39.4H233c18.1,0,40.7,19.2,40.7,37.3V219.3z"/>
		<g>
			<path class="st28" d="M232,142.4h-14.3c-2.9,0-5.2,2.3-5.2,5.2V170c0,6.8,5.5,12.4,12.4,12.4c6.8,0,12.4-5.5,12.4-12.4v-22.4
				C237.2,144.7,234.9,142.4,232,142.4z"/>
			<path class="st29" d="M212.5,165.4c0,0,1,7.3,12.4,7.3c11.4,0,12.4-7.3,12.4-7.3H212.5z"/>
			<ellipse class="st29" cx="190" cy="116.5" rx="9.2" ry="9.6"/>
			<ellipse class="st29" cx="259.8" cy="116.5" rx="9.2" ry="9.6"/>
			<path class="st28" d="M222,167.8L222,167.8c0.9,0.1,1.9,0.2,2.8,0.2l0,0c2.9,0,5.8-0.4,8.5-1.1c0,0,0-0.1,0-0.1
				c15.1-4,26.3-18.2,26.3-35.1V89.3c0-20-15.6-16.8-34.8-16.8l0,0c-19.2,0-34.8-3.2-34.8,16.8v42.4
				C190,150.8,204.1,166.3,222,167.8z"/>
			<path class="st30" d="M252.6,117.8v11.5h-12.4c0,0-3.1-8.3-15.5-8.3c-12.4,0-15.5,8.3-15.5,8.3H197v-11.5c0-4.5-4.2-6-7-6.5v20.4
				c0,19,14.1,34.6,32,36.1l-0.1,0.1c1,0.1,1.9,0.1,2.9,0.1c1,0,1.9-0.1,2.9-0.1l-0.1-0.1c17.9-1.5,32-17.1,32-36.1v-20.4
				C256.9,111.8,252.6,113.3,252.6,117.8z"/>
			<g>
				<ellipse cx="238.5" cy="106.8" rx="2.4" ry="2.5"/>
				<path d="M243.1,102.8h-8.5c-0.5,0-0.9-0.4-0.9-0.9v-2.2c0-0.5,0.4-0.9,0.9-0.9h8.5c0.5,0,0.9,0.4,0.9,0.9v2.2
					C244,102.4,243.6,102.8,243.1,102.8z"/>
			</g>
			<path class="st31" d="M212.1,135.2h24.1c0,0-2.1,8.2-12.1,8.2C214.2,143.4,212.1,135.2,212.1,135.2z"/>
			<g>
				<path class="st32" d="M227.7,161.2L227.7,161.2c-0.9,0.1-1.9,0.2-2.8,0.2c-1,0-1.9-0.1-2.9-0.1l0.1-0.1
					c-17.9-1.5-32-17.1-32-36.1v6.7c0,19,14.1,34.6,32,36.1l-0.1,0.1c1,0.1,1.9,0.1,2.9,0.1c1,0,1.9-0.1,2.9-0.1l-0.1-0.1
					c17.9-1.5,32-17.1,32-36.1v-6.7C259.7,144.1,245.6,159.7,227.7,161.2z"/>
			</g>
			<g>
				<ellipse cx="209.8" cy="106.8" rx="2.4" ry="2.5"/>
				<path d="M214.4,102.8h-8.5c-0.5,0-0.9-0.4-0.9-0.9v-2.2c0-0.5,0.4-0.9,0.9-0.9h8.5c0.5,0,0.9,0.4,0.9,0.9v2.2
					C215.4,102.4,215,102.8,214.4,102.8z"/>
			</g>
			<path class="st30" d="M250.5,58.6c-9.5-1.3-24.4-1.5-35.2,7.4c-0.3,0.2-0.5,0.4-0.7,0.7H206c-8.8,0-16,6.3-16,14v7.9v18.1v22
				c1.6,0,3-1.4,3-3.1V94.6c0,0,0.5-9.8,9.4-9.8h20.3h0.2H246c9.5,0,10.6,8.6,10.8,9.7v31.1c0,1.7,1.3,3.1,3,3.1v-22V88.5v-7
				l0.1-12.1C259.8,64,255.9,59.3,250.5,58.6z"/>
			<path class="st29" d="M228.2,114.8H220c-1.7,0-3.1,1.4-3.1,3.1c0,1.7,1.4,3.1,3.1,3.1h8.2c1.7,0,3.1-1.4,3.1-3.1
				C231.3,116.2,229.9,114.8,228.2,114.8z"/>
		</g>
		<g>
			<path class="st33" d="M303,276.2H144.9c-3.2,0-5.8-2.6-5.8-5.8v0c0-3.2,2.6-5.8,5.8-5.8H303c3.2,0,5.8,2.6,5.8,5.8v0
				C308.8,273.6,306.2,276.2,303,276.2z"/>
			<path class="st34" d="M285.8,276.2h-122c-5.1,0-9.2-4.1-9.2-9.2v-68.4c0-5.1,4.1-9.2,9.2-9.2h122c5.1,0,9.2,4.1,9.2,9.2V267
				C295,272.1,290.9,276.2,285.8,276.2z"/>
			<path class="st35" d="M223.9,243.4c-5.9,0-10.7-4.8-10.7-10.7c0-5.9,4.8-10.7,10.7-10.7s10.7,4.8,10.7,10.7
				C234.6,238.7,229.8,243.4,223.9,243.4z M223.9,224c-4.8,0-8.8,3.9-8.8,8.8c0,4.8,3.9,8.8,8.8,8.8c4.8,0,8.8-3.9,8.8-8.8
				C232.7,227.9,228.8,224,223.9,224z"/>
		</g>
	</g>
	<path class="st19" d="M362.8,278.1H95.5c-1,0-1.9-0.8-1.9-1.9c0-1,0.8-1.9,1.9-1.9h267.3c1,0,1.9,0.8,1.9,1.9
		C364.7,277.2,363.9,278.1,362.8,278.1z"/>
	<path class="st19" d="M86.2,278.1H56.2c-1,0-1.9-0.8-1.9-1.9c0-1,0.8-1.9,1.9-1.9h29.9c1,0,1.9,0.8,1.9,1.9
		C88,277.2,87.2,278.1,86.2,278.1z"/>
	<path class="st20" d="M403,278.1h-29.9c-1,0-1.9-0.8-1.9-1.9c0-1,0.8-1.9,1.9-1.9H403c1,0,1.9,0.8,1.9,1.9
		C404.9,277.2,404.1,278.1,403,278.1z"/>
	<path class="st20" d="M419.7,278.1h-6.4c-1,0-1.9-0.8-1.9-1.9c0-1,0.8-1.9,1.9-1.9h6.4c1,0,1.9,0.8,1.9,1.9
		C421.6,277.2,420.8,278.1,419.7,278.1z"/>
	<path class="st20" d="M45.4,278.1H35.2c-1,0-1.9-0.8-1.9-1.9c0-1,0.8-1.9,1.9-1.9h10.2c1,0,1.9,0.8,1.9,1.9
		C47.3,277.2,46.4,278.1,45.4,278.1z"/>
	<path class="st20" d="M18.6,278.1h-2.6c-1,0-1.9-0.8-1.9-1.9c0-1,0.8-1.9,1.9-1.9h2.6c1,0,1.9,0.8,1.9,1.9
		C20.5,277.2,19.6,278.1,18.6,278.1z"/>
</g>
</svg>
