<svg id="Layer_1" data-name="Layer 1" xmlns="http://www.w3.org/2000/svg" viewBox="0 0 126.31 88.82"><title>COLLEGE SVG</title><rect x="8.4" y="82.81" width="112.91" height="5.01" style="fill:#fff;stroke:#000;stroke-miterlimit:10;stroke-width:2px"/><rect x="100.71" y="10.97" width="9.23" height="4.22" style="fill:#fff;stroke:#000;stroke-miterlimit:10"/><polyline points="99.99 24.38 99.99 10.97 110.1 10.97 110.1 15.27 100.18 15.27" style="fill:#f05050;stroke:#000;stroke-miterlimit:10"/><path d="M97,88.81V48.7H95.08a.14.14,0,0,1-.1-.24l16.55-17.63a.15.15,0,0,1,.21,0l17.35,17.76a.14.14,0,0,1-.1.24h-2.22V88.69Z" transform="translate(-11.57 -6)" style="fill:#fff;stroke:#000;stroke-miterlimit:10;stroke-width:2px"/><path d="M25.76,88.81V48.7h-1.9a.14.14,0,0,1-.11-.24L40.3,30.83a.15.15,0,0,1,.21,0L57.86,48.58a.14.14,0,0,1-.1.24H55.54V88.69Z" transform="translate(-11.57 -6)" style="fill:#fff;stroke:#000;stroke-miterlimit:10;stroke-width:2px"/><path d="M60.91,88.81H92.18V34.14h8.51a.14.14,0,0,0,.11-.24L76.65,7.05a.13.13,0,0,0-.21,0L52.88,33.79A.15.15,0,0,0,53,34l7.8.11Z" transform="translate(-11.57 -6)" style="fill:#fff;stroke:#000;stroke-miterlimit:10;stroke-width:2px"/><circle cx="64.85" cy="19.55" r="6.13" style="fill:#fff;stroke:#000;stroke-miterlimit:10"/><line x1="43.97" y1="52.57" x2="49.28" y2="52.57" style="fill:#fff;stroke:#000;stroke-miterlimit:10;stroke-width:2px"/><line x1="80.42" y1="52.57" x2="85.72" y2="52.57" style="fill:#fff;stroke:#000;stroke-miterlimit:10;stroke-width:2px"/><polyline points="23.8 43.18 19.74 43.18 19.74 48.67" style="fill:#fff;stroke:#000;stroke-linecap:round;stroke-miterlimit:10;stroke-width:2px"/><polyline points="32.71 43.18 28.65 43.18 28.65 48.67" style="fill:#fff;stroke:#000;stroke-linecap:round;stroke-miterlimit:10;stroke-width:2px"/><polyline points="23.8 53.76 19.74 53.76 19.74 59.25" style="fill:#fff;stroke:#000;stroke-linecap:round;stroke-miterlimit:10;stroke-width:2px"/><polyline points="32.71 53.76 28.65 53.76 28.65 59.25" style="fill:#fff;stroke:#000;stroke-linecap:round;stroke-miterlimit:10;stroke-width:2px"/><polyline points="23.8 64.34 19.74 64.34 19.74 69.83" style="fill:#fff;stroke:#000;stroke-linecap:round;stroke-miterlimit:10;stroke-width:2px"/><polyline points="32.71 64.34 28.65 64.34 28.65 69.83" style="fill:#fff;stroke:#000;stroke-linecap:round;stroke-miterlimit:10;stroke-width:2px"/><polyline points="58.97 34.11 54.91 34.11 54.91 39.6" style="fill:#fff;stroke:#000;stroke-linecap:round;stroke-miterlimit:10;stroke-width:2px"/><polyline points="67.88 34.11 63.82 34.11 63.82 39.6" style="fill:#fff;stroke:#000;stroke-linecap:round;stroke-miterlimit:10;stroke-width:2px"/><polyline points="58.97 44.69 54.91 44.69 54.91 50.18" style="fill:#fff;stroke:#000;stroke-linecap:round;stroke-miterlimit:10;stroke-width:2px"/><polyline points="67.88 44.69 63.82 44.69 63.82 50.18" style="fill:#fff;stroke:#000;stroke-linecap:round;stroke-miterlimit:10;stroke-width:2px"/><polyline points="58.97 55.27 54.91 55.27 54.91 60.76" style="fill:#fff;stroke:#000;stroke-linecap:round;stroke-miterlimit:10;stroke-width:2px"/><polyline points="67.88 55.27 63.82 55.27 63.82 60.76" style="fill:#fff;stroke:#000;stroke-linecap:round;stroke-miterlimit:10;stroke-width:2px"/><polyline points="94.76 42.7 90.7 42.7 90.7 48.19" style="fill:#fff;stroke:#000;stroke-linecap:round;stroke-miterlimit:10;stroke-width:2px"/><polyline points="103.67 42.7 99.61 42.7 99.61 48.19" style="fill:#fff;stroke:#000;stroke-linecap:round;stroke-miterlimit:10;stroke-width:2px"/><polyline points="94.76 53.28 90.7 53.28 90.7 58.77" style="fill:#fff;stroke:#000;stroke-linecap:round;stroke-miterlimit:10;stroke-width:2px"/><polyline points="103.67 53.28 99.61 53.28 99.61 58.77" style="fill:#fff;stroke:#000;stroke-linecap:round;stroke-miterlimit:10;stroke-width:2px"/><polyline points="94.76 63.87 90.7 63.87 90.7 69.36" style="fill:#fff;stroke:#000;stroke-linecap:round;stroke-miterlimit:10;stroke-width:2px"/><polyline points="103.67 63.87 99.61 63.87 99.61 69.36" style="fill:#fff;stroke:#000;stroke-linecap:round;stroke-miterlimit:10;stroke-width:2px"/><polyline points="64.86 16.29 64.86 20.22 68.16 20.22" style="fill:#fff;stroke:#000;stroke-linecap:round;stroke-miterlimit:10"/><path d="M72.5,89V79.41A3.71,3.71,0,0,1,76.42,76h0a3.7,3.7,0,0,1,3.92,3.44V89" transform="translate(-11.57 -6)" style="fill:none;stroke:#000;stroke-miterlimit:10;stroke-width:2px"/><polyline points="28.65 24.38 28.65 10.97 38.76 10.97 38.76 15.27 28.84 15.27" style="fill:#f05050;stroke:#000;stroke-miterlimit:10"/><ellipse cx="8.4" cy="56.55" rx="7.4" ry="14.85" style="fill:#f05050;stroke:#000;stroke-miterlimit:10;stroke-width:2px"/><line x1="8.4" y1="71.85" x2="8.4" y2="83.31" style="fill:#fff;stroke:#000;stroke-miterlimit:10;stroke-width:2px"/><ellipse cx="120.49" cy="60.81" rx="4.82" ry="9.68" style="fill:#f05050;stroke:#000;stroke-miterlimit:10;stroke-width:2px"/><line x1="120.49" y1="70.85" x2="120.49" y2="82.31" style="fill:#fff;stroke:#000;stroke-miterlimit:10;stroke-width:2px"/></svg>