<?xml version="1.0" encoding="iso-8859-1"?>
<!-- Generator: Adobe Illustrator 19.0.0, SVG Export Plug-In . SVG Version: 6.00 Build 0)  -->
<svg version="1.1" id="Capa_1" xmlns="http://www.w3.org/2000/svg" xmlns:xlink="http://www.w3.org/1999/xlink" x="0px" y="0px"
	 viewBox="0 0 480 480" style="enable-background:new 0 0 480 480;" xml:space="preserve">
<path style="fill:#BABDBF;" d="M24,104h432c13.6,0,24,10.4,24,24v224c0,13.6-10.4,24-24,24H24c-13.6,0-24-10.4-24-24V128
	C0,114.4,10.4,104,24,104z"/>
<path style="fill:#737272;" d="M480,168H0v-40c0-13.6,10.4-24,24-24h432c13.6,0,24,10.4,24,24V168z"/>
<rect x="24" y="128" style="fill:#BABDBF;" width="128" height="16"/>
<path style="fill:#DC8729;" d="M128,216c10.4-10.4,24.8-16,40-16c31.2,0,56,24.8,56,56s-24.8,56-56,56c-15.2,0-29.6-5.6-40-16"/>
<rect x="352" y="200" style="fill:#737272;" width="96" height="64"/>
<g>
	<rect x="376" y="200" style="fill:#BABDBF;" width="16" height="64"/>
	<rect x="408" y="200" style="fill:#BABDBF;" width="16" height="64"/>
</g>
<g>
	<rect x="408" y="336" style="fill:#737272;" width="48" height="16"/>
	<rect x="344" y="336" style="fill:#737272;" width="48" height="16"/>
	<rect x="280" y="336" style="fill:#737272;" width="48" height="16"/>
	<rect x="24" y="336" style="fill:#737272;" width="240" height="16"/>
</g>
<circle style="fill:#9F3A37;" cx="88" cy="256" r="56"/>
<g>
	<path style="fill:#CB5940;" d="M80,311.2c5.6,0.8,10.4,0.8,16,0V200.8c-5.6-0.8-10.4-0.8-16,0V311.2z"/>
	<path style="fill:#CB5940;" d="M132.8,222.4c-3.2-4-7.2-8-12-11.2l-8.8,6.4c-6.4,4-14.4,6.4-22.4,6.4h-3.2c-8,0-16-2.4-22.4-6.4
		l-9.6-6.4c-4.8,3.2-8,7.2-12,11.2l0,0l12,8c9.6,6.4,20,9.6,31.2,9.6h3.2c11.2,0,21.6-3.2,31.2-9.6L132.8,222.4L132.8,222.4z"/>
	<path style="fill:#CB5940;" d="M132.8,289.6L132.8,289.6l-12-8c-8.8-6.4-20-9.6-31.2-9.6h-3.2c-11.2,0-21.6,3.2-31.2,9.6l-12,8l0,0
		c3.2,4,7.2,8,11.2,11.2l9.6-6.4c6.4-4,14.4-6.4,22.4-6.4h3.2c8,0,16,2.4,22.4,6.4l9.6,6.4C125.6,297.6,129.6,293.6,132.8,289.6z"/>
</g>
<g>
</g>
<g>
</g>
<g>
</g>
<g>
</g>
<g>
</g>
<g>
</g>
<g>
</g>
<g>
</g>
<g>
</g>
<g>
</g>
<g>
</g>
<g>
</g>
<g>
</g>
<g>
</g>
<g>
</g>
</svg>
