<svg id="Layer_1" data-name="Layer 1" xmlns="http://www.w3.org/2000/svg" viewBox="0 0 66.12 90.99"><title>DOC_ICO</title><circle cx="5.28" cy="26.44" r="4.44" style="fill:#7a8082"/><path d="M22.28,33.31A5.29,5.29,0,1,1,27.57,28,5.29,5.29,0,0,1,22.28,33.31Zm0-8.88A3.59,3.59,0,1,0,25.87,28,3.6,3.6,0,0,0,22.28,24.43Z" transform="translate(-17 -1.59)" style="fill:#231f20"/><path d="M62.25,92.58H23.07a1.28,1.28,0,0,1-1.28-1.29V12.17a1.28,1.28,0,0,1,1.28-1.29H81.83a1.3,1.3,0,0,1,1.29,1.29l-.23,59.57a1.26,1.26,0,0,1-.37.9L63.16,92.2A1.3,1.3,0,0,1,62.25,92.58Z" transform="translate(-17 -1.59)" style="fill:#fff"/><path d="M62.25,92.58H23.07a1.28,1.28,0,0,1-1.28-1.29V12.17a1.28,1.28,0,0,1,1.28-1.29H81.83a1.3,1.3,0,0,1,1.29,1.29l-.23,59.57a1.26,1.26,0,0,1-.37.9L63.16,92.2A1.3,1.3,0,0,1,62.25,92.58ZM24.36,90H61.71l18.61-18.8.22-57.76H24.36Z" transform="translate(-17 -1.59)" style="fill:#2c2e2f"/><path d="M62.25,92.58a1.16,1.16,0,0,1-.49-.1,1.28,1.28,0,0,1-.8-1.19V81.54c0-7.67,3.39-11.09,11-11.09H81.6a1.29,1.29,0,0,1,.92,2.19L63.16,92.2A1.29,1.29,0,0,1,62.25,92.58ZM72,73c-6.14,0-8.42,2.31-8.42,8.52v6.63L78.52,73Z" transform="translate(-17 -1.59)" style="fill:#2c2e2f"/><path d="M22.69,2.43a4.77,4.77,0,0,0-4.77,4.78v20H18a4.78,4.78,0,0,1,4.69-3.86H70.75V2.43Z" transform="translate(-17 -1.59)" style="fill:#2c2e2f"/><path d="M18,28h-.08a.85.85,0,0,1-.85-.85v-20a5.62,5.62,0,0,1,5.62-5.62H70.75a.85.85,0,0,1,.85.84v20.9a.85.85,0,0,1-.85.84H22.69a3.92,3.92,0,0,0-3.85,3.18A.86.86,0,0,1,18,28ZM22.69,3.28a3.93,3.93,0,0,0-3.93,3.93V24.08a5.63,5.63,0,0,1,3.93-1.6H69.9V3.28Z" transform="translate(-17 -1.59)" style="fill:#2c2e2f"/><path d="M26.1,19.83H23V17.12h3.1Zm3,0V5.34H34A5.87,5.87,0,0,1,40.1,11.4v2.41a5.8,5.8,0,0,1-6.07,6ZM32,7.57v10h1.9a2.88,2.88,0,0,0,2.41-1.08,4.08,4.08,0,0,0,.9-2.75v-2.4a4.23,4.23,0,0,0-.9-2.75,3,3,0,0,0-2.41-1Zm21.9,6.31a6.08,6.08,0,0,1-1.69,4.42A5.78,5.78,0,0,1,47.86,20a5.64,5.64,0,0,1-4.27-1.74,6.14,6.14,0,0,1-1.66-4.42V11.27a6.12,6.12,0,0,1,1.62-4.39,6.23,6.23,0,0,1,8.66,0,6,6,0,0,1,1.69,4.39ZM51,11.27a4.41,4.41,0,0,0-.83-2.79,2.73,2.73,0,0,0-2.31-1.12,2.78,2.78,0,0,0-2.27,1.08,4.8,4.8,0,0,0-.79,2.83v2.61a4.75,4.75,0,0,0,.79,2.82,3,3,0,0,0,4.58,0A4.56,4.56,0,0,0,51,13.88Zm16,3.62L67,15a4.67,4.67,0,0,1-1.41,3.69,5.54,5.54,0,0,1-4,1.39,5.61,5.61,0,0,1-4.21-1.67A6,6,0,0,1,55.72,14V11.16a6.08,6.08,0,0,1,1.59-4.35,5.3,5.3,0,0,1,4.07-1.68,5.83,5.83,0,0,1,4.17,1.4A4.65,4.65,0,0,1,67,10.29v0H64.21a3.3,3.3,0,0,0-.69-2.19,2.81,2.81,0,0,0-2.14-.77,2.36,2.36,0,0,0-2,1.08,4.48,4.48,0,0,0-.75,2.69V14a4.4,4.4,0,0,0,.79,2.71,2.58,2.58,0,0,0,2.17,1.05,2.69,2.69,0,0,0,2-.7,3.4,3.4,0,0,0,.62-2.19Z" transform="translate(-17 -1.59)" style="fill:#fefefe"/><path d="M71.48,35.83H34.22a1.22,1.22,0,0,1,0-2.44H71.48a1.22,1.22,0,0,1,0,2.44Z" transform="translate(-17 -1.59)" style="fill:#2c2e2f"/><path d="M71.48,44.44H34.22a1.23,1.23,0,0,1,0-2.45H71.48a1.23,1.23,0,0,1,0,2.45Z" transform="translate(-17 -1.59)" style="fill:#2c2e2f"/><path d="M71.48,53.07H34.22a1.23,1.23,0,0,1,0-2.45H71.48a1.23,1.23,0,0,1,0,2.45Z" transform="translate(-17 -1.59)" style="fill:#2c2e2f"/><path d="M52.85,61.7H34.22a1.23,1.23,0,0,1,0-2.45H52.85a1.23,1.23,0,0,1,0,2.45Z" transform="translate(-17 -1.59)" style="fill:#2c2e2f"/></svg>