<svg id="Layer_7" data-name="Layer 7" xmlns="http://www.w3.org/2000/svg" viewBox="0 0 100 100"><defs><style>.cls-1{fill:#e8e8df;}.cls-2{fill:#f26f9f;}.cls-3{fill:#c7bcb7;}.cls-4{fill:#d8d6c9;}.cls-5{fill:#fefefe;}</style></defs><title>csv</title><path class="cls-1" d="M13.46,1.09H66c.27.13.59.2.64.58a8.3,8.3,0,0,1,.13,1.73c0,5.73,0,11.46,0,17.2,0,1.33,0,1.37,1.34,1.37H85.07a18.87,18.87,0,0,1,2.12.08,1.29,1.29,0,0,1,.67,1.1,13.73,13.73,0,0,1,.22,2.4q0,21.42,0,42.83a2.72,2.72,0,0,1-.31,1.77,2.61,2.61,0,0,1-1.77.33H13.48a3.3,3.3,0,0,1-2-.29,2.31,2.31,0,0,1-.35-1.66c0-3.48,0-7,0-10.43q0-25.8,0-51.6a18.65,18.65,0,0,1,.21-2.89A2.56,2.56,0,0,1,13.46,1.09Z"/><path class="cls-2" d="M11.57,70.15c.41,0,.83-.09,1.24-.09h73.6c.41,0,.83.06,1.24.09a1.31,1.31,0,0,1,.41,1.22q0,12.7,0,25.39c0,.13,0,.25,0,.38-.16,1.82-.74,2.5-2.48,2.92H13.46a2.76,2.76,0,0,1-2.28-2.91q0-.44,0-.87,0-12.25,0-24.52C11.16,71.2,11,70.58,11.57,70.15Z"/><path class="cls-3" d="M49.6,61.2c-9.34,0-18.68,0-28,0-.93,0-1.18-.26-1.18-1.18q0-18.27,0-36.53c0-.93.25-1.19,1.19-1.19q9.51.06,19,0c.87,0,1.11.24,1.08,1.09-.06,1.64,0,3.28,0,4.93,0,.76.22,1,1,1,5,0,10,0,15,0,6.7,0,13.4,0,20.1,0,.84,0,1.09.22,1.08,1.08q0,14.88,0,29.76c0,.86-.24,1.08-1.09,1.08C68.35,61.19,59,61.2,49.6,61.2Z"/><path class="cls-4" d="M66.43,1.48c.19.16.41.31.59.49q9.84,9.82,19.67,19.67c.16.16.29.34.44.51-.29.29-.66.2-1,.2-6.22,0-12.43,0-18.64,0-.87,0-1.09-.26-1.08-1.1C66.44,14.67,66.43,8.07,66.43,1.48Z"/><path class="cls-5" d="M62.31,91.86q1.48-5.19,3-10.38c.37-1.3.77-2.59,1.11-3.9a.77.77,0,0,1,.86-.68c2.67-.11,2.66-.12,1.84,2.42q-2.4,7.38-4.77,14.78c-.18.54-.41.81-1,.76-1-.08-2.23.37-2.91-.18s-.69-1.74-1-2.66c-1.46-4.7-2.9-9.4-4.38-14.09-.26-.81-.14-1.05.76-1,2.25,0,2.26,0,2.83,2.16q1.62,6,3.23,12c.07.26.17.53.25.79Z"/><path class="cls-5" d="M46.57,94.81a7.49,7.49,0,0,1-3.8-.85,1.91,1.91,0,0,1-.08-2.29c.25-.18.43,0,.62.11a9.78,9.78,0,0,0,3.85.75,2.46,2.46,0,0,0,2.48-1.77,2.36,2.36,0,0,0-1-2.85,30.41,30.41,0,0,0-3.19-1.81,5.7,5.7,0,0,1-3-3.25A4.78,4.78,0,0,1,45.7,77a8.76,8.76,0,0,1,5.31.2c.56.18.81.46.41,1a5,5,0,0,0-.46.85c-.2.5-.47.56-1,.34a4.49,4.49,0,0,0-2.94-.14,2.44,2.44,0,0,0-1.93,1.94,2.23,2.23,0,0,0,1,2.34,22.53,22.53,0,0,0,3.38,1.84,4.9,4.9,0,0,1-1.93,9.43C47.22,94.84,46.9,94.81,46.57,94.81Z"/><path class="cls-5" d="M28.89,85.77a8.7,8.7,0,0,0,1.16,4.94,3.78,3.78,0,0,0,5.55,1c.57-.46.91-.47,1.34,0a1.9,1.9,0,0,0,.21.19c1.24,1.13,1.23,1.19-.31,2a7.11,7.11,0,0,1-10.37-4.32,12.58,12.58,0,0,1,.51-9,7.15,7.15,0,0,1,10.75-2.48c.46.38.48.6,0,.92a2,2,0,0,0-.5.45c-.57.69-1,.82-1.85.17a3.8,3.8,0,0,0-5.33,1.13A8.68,8.68,0,0,0,28.89,85.77Z"/><path class="cls-1" d="M58.39,54.06c5.25,0,10.49,0,15.74,0,.94,0,1.21.3,1.2,1.22,0,2.45,0,2.46-2.46,2.46-10,0-20,0-30,0-.91,0-1.21-.22-1.19-1.17.05-2.5,0-2.5,2.54-2.5Z"/><path class="cls-1" d="M58.51,50.57c-5.25,0-10.5,0-15.75,0-.84,0-1.12-.2-1.1-1.07,0-2.43,0-2.43,2.42-2.43q15,0,30.05,0c.92,0,1.23.22,1.2,1.17-.06,2.33,0,2.33-2.33,2.33Z"/><path class="cls-1" d="M58.52,36.46c-5.25,0-10.49,0-15.74,0-.91,0-1.14-.28-1.12-1.15.05-2.36,0-2.36,2.4-2.36q15,0,30,0c1,0,1.29.21,1.25,1.22-.1,2.67.32,2.27-2.33,2.28C68.17,36.47,63.34,36.46,58.52,36.46Z"/><path class="cls-1" d="M58.47,43.43c-5.22,0-10.43,0-15.64,0-.83,0-1.2-.15-1.17-1.1.05-2.4,0-2.4,2.45-2.4H73.94c1.37,0,1.37,0,1.37,1.39,0,2.09,0,2.09-2.07,2.09Z"/><path class="cls-1" d="M31.15,54.06c2,0,4.06,0,6.08,0,.7,0,1,.23,1,1a16,16,0,0,0,0,1.83c0,.68-.28.9-.92.89H24.82c-.65,0-.93-.22-.92-.89.08-3.34-.46-2.71,2.62-2.76C28.06,54,29.61,54.06,31.15,54.06Z"/><path class="cls-1" d="M31.05,29.32c-2.09,0-4.18,0-6.27,0-.67,0-.88-.22-.88-.89,0-2.61-.06-2.61,2.52-2.61,3.6,0,7.2,0,10.8,0,.77,0,1,.22,1,1,0,2.52,0,2.52-2.52,2.52Z"/><path class="cls-1" d="M31.06,50.57c-2.09,0-4.18,0-6.27,0-.67,0-.89-.2-.89-.88,0-2.62-.06-2.62,2.51-2.62,3.6,0,7.21,0,10.81,0,.75,0,1,.21,1,1,0,2.52,0,2.52-2.52,2.52Z"/><path class="cls-1" d="M31,36.46c-2,0-4.05,0-6.08,0-.7,0-1-.23-1-.94C23.84,33,23.82,33,26.38,33c3.6,0,7.2,0,10.8,0,.82,0,1,.26,1,1,0,2.46,0,2.46-2.44,2.46Z"/><path class="cls-1" d="M31,43.43c-2.09,0-4.18,0-6.27,0-.62,0-.85-.19-.84-.82C24,39.39,23.46,40,26.51,40c3.5,0,7,0,10.51,0,.85,0,1.21.2,1.19,1.13,0,2.37,0,2.37-2.38,2.37Z"/></svg>