<svg id="Layer_1" data-name="Layer 1" xmlns="http://www.w3.org/2000/svg" viewBox="0 0 33.17 45.65"><title>DOCICON</title><circle cx="2.65" cy="13.26" r="2.23" style="fill:#0080a8"/><path d="M11.07,18.09a2.65,2.65,0,1,1,2.65-2.65A2.65,2.65,0,0,1,11.07,18.09Zm0-4.45a1.8,1.8,0,1,0,1.8,1.8A1.8,1.8,0,0,0,11.07,13.64Z" transform="translate(-8.42 -2.18)" style="fill:#00a0dc"/><path d="M31.11,47.82H11.46a.64.64,0,0,1-.64-.64V7.49a.65.65,0,0,1,.64-.65H40.94A.68.68,0,0,1,41.4,7a.65.65,0,0,1,.18.46l-.11,29.88a.64.64,0,0,1-.19.45l-9.71,9.81A.6.6,0,0,1,31.11,47.82Z" transform="translate(-8.42 -2.18)" style="fill:#fff"/><path d="M31.11,47.82H11.46a.64.64,0,0,1-.64-.64V7.49a.65.65,0,0,1,.64-.65H40.94A.68.68,0,0,1,41.4,7a.65.65,0,0,1,.18.46l-.11,29.88a.64.64,0,0,1-.19.45l-9.71,9.81A.6.6,0,0,1,31.11,47.82Zm-19-1.29H30.84l9.34-9.43.11-29H12.11Z" transform="translate(-8.42 -2.18)" style="fill:#2c2e2f"/><path d="M31.11,47.82a.67.67,0,0,1-.24,0,.66.66,0,0,1-.4-.6V42.29c0-3.85,1.7-5.56,5.51-5.56h4.85a.64.64,0,0,1,.45,1.09l-9.71,9.81A.62.62,0,0,1,31.11,47.82ZM36,38c-3.08,0-4.22,1.16-4.22,4.28v3.32L39.28,38Z" transform="translate(-8.42 -2.18)" style="fill:#2c2e2f"/><path d="M11.27,2.6A2.39,2.39,0,0,0,8.88,5V15h0a2.39,2.39,0,0,1,2.35-1.94H35.38V2.6Z" transform="translate(-8.42 -2.18)" style="fill:#00a0dc"/><path d="M8.92,15.45h0A.43.43,0,0,1,8.45,15V5a2.82,2.82,0,0,1,2.82-2.82H35.38a.42.42,0,0,1,.42.42V13.08a.42.42,0,0,1-.42.43H11.27A2,2,0,0,0,9.34,15.1.44.44,0,0,1,8.92,15.45ZM11.27,3a2,2,0,0,0-2,2v8.46a2.81,2.81,0,0,1,2-.8H35V3Z" transform="translate(-8.42 -2.18)" style="fill:#00a0dc"/><path d="M15.57,11H14.3V9.84h1.27Zm1.22,0V5h2a2.4,2.4,0,0,1,2.48,2.48v1a2.44,2.44,0,0,1-.7,1.78A2.47,2.47,0,0,1,18.8,11Zm1.18-5V10h.78a1.16,1.16,0,0,0,1-.44,1.71,1.71,0,0,0,.37-1.13v-1a1.74,1.74,0,0,0-.37-1.12,1.18,1.18,0,0,0-1-.43Zm9,2.58a2.48,2.48,0,0,1-.69,1.8,2.35,2.35,0,0,1-1.78.71,2.31,2.31,0,0,1-1.74-.71A2.52,2.52,0,0,1,22,8.52V7.45a2.49,2.49,0,0,1,.66-1.79,2.56,2.56,0,0,1,3.54,0,2.48,2.48,0,0,1,.69,1.79ZM25.74,7.45a1.84,1.84,0,0,0-.34-1.14,1.22,1.22,0,0,0-1.88,0,2,2,0,0,0-.32,1.15V8.52a2,2,0,0,0,.32,1.15,1.1,1.1,0,0,0,.93.44,1.11,1.11,0,0,0,.95-.44,1.89,1.89,0,0,0,.34-1.15Zm6.52,1.48V9a1.87,1.87,0,0,1-.58,1.51,2.59,2.59,0,0,1-3.36-.12,2.45,2.45,0,0,1-.67-1.78V7.41a2.52,2.52,0,0,1,.65-1.78A2.18,2.18,0,0,1,30,5a2.39,2.39,0,0,1,1.7.56,1.9,1.9,0,0,1,.59,1.54v0H31.13a1.35,1.35,0,0,0-.28-.9A1.14,1.14,0,0,0,30,5.86a1,1,0,0,0-.84.44,1.78,1.78,0,0,0-.31,1.09V8.57a1.81,1.81,0,0,0,.33,1.11,1,1,0,0,0,.89.43,1.1,1.1,0,0,0,.81-.28,1.4,1.4,0,0,0,.26-.9Z" transform="translate(-8.42 -2.18)" style="fill:#fefefe"/><path d="M34,21.07H18.39a.52.52,0,0,1,0-1H34a.52.52,0,1,1,0,1Z" transform="translate(-8.42 -2.18)" style="fill:#2c2e2f"/><path d="M34,24.68H18.39a.52.52,0,0,1,0-1H34a.52.52,0,1,1,0,1Z" transform="translate(-8.42 -2.18)" style="fill:#2c2e2f"/><path d="M34,28.3H18.39a.52.52,0,0,1,0-1H34a.52.52,0,1,1,0,1Z" transform="translate(-8.42 -2.18)" style="fill:#2c2e2f"/><path d="M26.2,31.92H18.39a.52.52,0,0,1,0-1H26.2a.52.52,0,0,1,0,1Z" transform="translate(-8.42 -2.18)" style="fill:#2c2e2f"/></svg>