<svg id="Layer_1" data-name="Layer 1" xmlns="http://www.w3.org/2000/svg" viewBox="0 0 100 100"><defs><style>.cls-1{fill:#e8e8df;}.cls-2{fill:#0095e5;}.cls-3{fill:#d8d6c9;}.cls-4{fill:#8596ca;}.cls-5{fill:#8697ca;}.cls-6{fill:#8696ca;}.cls-7{fill:#fefefe;}</style></defs><title>doc</title><path class="cls-1" d="M13.09.2H66.21c.27.13.6.2.64.58A8.55,8.55,0,0,1,67,2.53c0,5.79,0,11.58,0,17.38,0,1.35,0,1.38,1.36,1.38q8.54,0,17.08,0a19.33,19.33,0,0,1,2.15.09,1.29,1.29,0,0,1,.68,1.11,14,14,0,0,1,.22,2.42q0,21.65,0,43.28A2.73,2.73,0,0,1,88.15,70a2.64,2.64,0,0,1-1.78.33H13.1a3.27,3.27,0,0,1-2-.3,2.3,2.3,0,0,1-.36-1.67c0-3.51,0-7,0-10.54q0-26.07,0-52.14A18.81,18.81,0,0,1,11,2.75C11.15,1.46,11.66.45,13.09.2Z"/><path class="cls-2" d="M11.17,70a2.38,2.38,0,0,1,1.15-.12q37.29,0,74.58,0a2.38,2.38,0,0,1,1.15.12c.43.31.41.79.41,1.24q0,12.82,0,25.64c0,.13,0,.26,0,.39-.16,1.83-.75,2.52-2.5,3H13.09a2.81,2.81,0,0,1-2.31-3c0-.29,0-.58,0-.88q0-12.37,0-24.76C10.76,71,10.64,70.42,11.17,70Z"/><path class="cls-3" d="M66.6.59c.2.16.41.31.6.49L87.07,21c.16.16.3.34.45.51-.29.3-.67.2-1,.2-6.27,0-12.55,0-18.83,0-.87,0-1.09-.26-1.09-1.11C66.62,13.92,66.6,7.26,66.6.59Z"/><path class="cls-4" d="M41.5,41.23H22.87c-.33,0-.66,0-1,0a1.79,1.79,0,0,1-1.74-1.66,1.86,1.86,0,0,1,1.39-1.78,3.94,3.94,0,0,1,1-.08q19.08,0,38.15,0c1.48,0,2.23.57,2.26,1.7a1.63,1.63,0,0,1-1.8,1.82c-2.54,0-5.08,0-7.61,0Z"/><path class="cls-4" d="M45.12,46.66c2.93,0,5.86,0,8.78,0a1.74,1.74,0,0,1,1.71,2.58,1.79,1.79,0,0,1-1.71.94q-8.77,0-17.56,0a1.77,1.77,0,1,1,.1-3.52Z"/><path class="cls-5" d="M30,28.73c2.54,0,5.07,0,7.61,0a1.92,1.92,0,0,1,2.07,1.41,1.6,1.6,0,0,1-.8,1.9,3.24,3.24,0,0,1-1.79.34H22.86a6.51,6.51,0,0,1-1.16-.11,1.74,1.74,0,0,1-.06-3.44,6.32,6.32,0,0,1,1.06-.09Z"/><path class="cls-4" d="M69.18,50.19c-2.57,0-5.13,0-7.7,0-1.53,0-2.39-1.16-1.87-2.44a1.6,1.6,0,0,1,1.58-1.08q8,0,16.08,0a1.76,1.76,0,0,1,1.8,1.79,1.83,1.83,0,0,1-1.9,1.72c-1.85,0-3.7,0-5.55,0Z"/><path class="cls-5" d="M36.19,59.16c-2.21,0-4.42,0-6.63,0-1.42,0-2.22-.69-2.22-1.8a1.56,1.56,0,0,1,1.22-1.66,5.05,5.05,0,0,1,1.35-.18H42.6a4.89,4.89,0,0,1,1.25.17A1.72,1.72,0,0,1,44,59a3.58,3.58,0,0,1-1.34.2Z"/><path class="cls-5" d="M59.5,28.73c2.18,0,4.35,0,6.53,0a2.07,2.07,0,0,1,2.08,1,1.69,1.69,0,0,1-1,2.48,4.39,4.39,0,0,1-1.25.17c-4.29,0-8.58,0-12.88,0-1.6,0-2.44-.7-2.36-1.94a1.61,1.61,0,0,1,1.24-1.56,8.89,8.89,0,0,1,2.52-.14C56.05,28.72,57.77,28.73,59.5,28.73Z"/><path class="cls-6" d="M72,41.23c-1.72,0-3.44,0-5.16,0a1.75,1.75,0,0,1-2-1.68,1.8,1.8,0,0,1,2-1.85c3.41,0,6.82,0,10.23,0a1.86,1.86,0,0,1,2.06,1.77,1.82,1.82,0,0,1-2,1.76C75.35,41.24,73.66,41.23,72,41.23Z"/><path class="cls-6" d="M27.34,19.89c1.69,0,3.38,0,5.07,0,1.22,0,2,.66,2,1.68a1.77,1.77,0,0,1-1.94,1.84q-5.11,0-10.23,0a1.79,1.79,0,0,1-1.94-1.3,1.71,1.71,0,0,1,.62-1.9,1.76,1.76,0,0,1,1.29-.32C23.9,19.88,25.62,19.89,27.34,19.89Z"/><path class="cls-6" d="M25.52,46.66c1.14,0,2.28,0,3.41,0a1.82,1.82,0,0,1,1.92,1.67A1.79,1.79,0,0,1,29,50.18q-3.51.06-7,0a1.81,1.81,0,0,1-1.83-1.79A1.78,1.78,0,0,1,22,46.67C23.19,46.64,24.36,46.66,25.52,46.66Z"/><path class="cls-5" d="M75.57,28.72a10.18,10.18,0,0,1,2.13.14,1.76,1.76,0,0,1,1.35,1.7,1.7,1.7,0,0,1-1.45,1.69,12.38,12.38,0,0,1-4.25,0A1.6,1.6,0,0,1,72,30.6a1.7,1.7,0,0,1,1.29-1.73A10.06,10.06,0,0,1,75.57,28.72Z"/><path class="cls-5" d="M45.12,32.26a1.72,1.72,0,0,1-1.75-1.71,1.78,1.78,0,0,1,1.85-1.73,1.68,1.68,0,0,1,1.66,1.78A1.62,1.62,0,0,1,45.12,32.26Z"/><path class="cls-5" d="M23.65,57.29a1.73,1.73,0,0,1-1.75,1.82,1.84,1.84,0,0,1-1.74-1.76,1.74,1.74,0,0,1,1.74-1.71A1.6,1.6,0,0,1,23.65,57.29Z"/><path class="cls-7" d="M27,85.74v-8.1c0-.37-.1-.82.53-.81a42.2,42.2,0,0,1,7.11.24,8.17,8.17,0,0,1,6.88,8.33A10.59,10.59,0,0,1,39.67,92a7.41,7.41,0,0,1-6.15,2.81c-1.89,0-3.78,0-5.66,0-.64,0-.84-.19-.83-.83C27.06,91.27,27,88.5,27,85.74Z"/><path class="cls-7" d="M59.38,85.84c-.08,2.58-.49,5.12-2.45,7a7.17,7.17,0,0,1-12-3.27,12.63,12.63,0,0,1,.51-9,6.67,6.67,0,0,1,6.44-4.09,6.75,6.75,0,0,1,6.44,4.1A12.07,12.07,0,0,1,59.38,85.84Z"/><path class="cls-7" d="M63.24,85.77c0-2.88.59-5.55,2.88-7.57a7.34,7.34,0,0,1,9-.15c.45.37.5.61,0,.93a1.45,1.45,0,0,0-.29.26c-.67.77-1.2,1-2.26.3a3.82,3.82,0,0,0-5.63,2A10.85,10.85,0,0,0,67,90a3.88,3.88,0,0,0,6.26,1.63c.36-.27.58-.34.88,0a5.57,5.57,0,0,0,.51.46c1.18,1,1.18,1.09-.18,1.88a7.26,7.26,0,0,1-10.76-4.51A13,13,0,0,1,63.24,85.77Z"/><path class="cls-2" d="M30,85.81c0-2,0-4,0-6,0-.57.13-.81.75-.79a12.83,12.83,0,0,1,4.05.45,4.89,4.89,0,0,1,3.53,3.91,10.7,10.7,0,0,1-.82,6.84,4.18,4.18,0,0,1-3.21,2.28,22.82,22.82,0,0,1-3.7.16c-.58,0-.59-.34-.59-.76C30,89.9,30,87.85,30,85.81Z"/><path class="cls-2" d="M56.42,85.75a13,13,0,0,1-.73,4.06,4.12,4.12,0,0,1-3.78,2.75A3.92,3.92,0,0,1,48.15,90a11.31,11.31,0,0,1,0-8.37A3.91,3.91,0,0,1,52.2,79c1.92.18,3.29,1.51,3.84,3.73A17.68,17.68,0,0,1,56.42,85.75Z"/></svg>