<svg xmlns="http://www.w3.org/2000/svg" width="15" height="15" viewBox="0 0 100 100">
  <defs>
    <style>
      .cls-1 {
        fill: #fff;
        fill-rule: evenodd;
      }
    </style>
  </defs>
  <path id="_4" data-name="4" class="cls-1" d="M83,32V86A12,12,0,0,1,71,98H29A12,12,0,0,1,17,86V32a6,6,0,0,1-6-6V20a6,6,0,0,1,6-6H35V8a6,6,0,0,1,6-6H59a6,6,0,0,1,6,6v6H83a6,6,0,0,1,6,6v6A6,6,0,0,1,83,32ZM23,32V86a6,6,0,0,0,6,6H71a6,6,0,0,0,6-6V32H23ZM41,14V11a3,3,0,0,1,3-3H56a3,3,0,0,1,3,3v3H41m39,6H20a3,3,0,0,0,0,6H80A3,3,0,0,0,80,20ZM35,44a3,3,0,0,1,3,3V83a3,3,0,0,1-6,0V47A3,3,0,0,1,35,44Zm15,0a3,3,0,0,1,3,3V83a3,3,0,0,1-6,0V47A3,3,0,0,1,50,44Zm15,0a3,3,0,0,1,3,3V83a3,3,0,0,1-6,0V47A3,3,0,0,1,65,44Z"/>
</svg>
