<svg xmlns="http://www.w3.org/2000/svg" width="18" height="18" viewBox="0 0 100 100">
  <defs>
    <style>
      .cls-1 {
        fill: #F05050;
        fill-rule: evenodd;
      }
    </style>
  </defs>
  <path id="_3" data-name="3" class="cls-1" d="M50,98A48,48,0,1,1,98,50,48,48,0,0,1,50,98ZM84.787,73.488A41.65,41.65,0,0,0,91.886,53H67.87a115.284,115.284,0,0,1-1.5,16.223A105.408,105.408,0,0,1,84.787,73.488ZM38.14,53a104.774,104.774,0,0,0,1.544,15.47C43.059,68.174,46.5,68,50,68s6.941,0.174,10.316.47A104.774,104.774,0,0,0,61.86,53H38.14Zm23.72-6a104.79,104.79,0,0,0-1.544-15.47C56.941,31.826,53.505,32,50,32s-6.941-.174-10.316-0.47A104.75,104.75,0,0,0,38.14,47H61.86Zm18.8,31.66a99.594,99.594,0,0,0-15.463-3.523A97.6,97.6,0,0,1,60.3,90.675,42.052,42.052,0,0,0,80.656,78.661ZM47.088,91.853C48.054,91.92,49.017,92,50,92s1.946-.081,2.913-0.147a89.75,89.75,0,0,0,6.152-17.511c-2.983-.26-6.006-0.416-9.065-0.416s-6.082.157-9.065,0.416A89.75,89.75,0,0,0,47.088,91.853ZM39.7,90.675a97.6,97.6,0,0,1-4.891-15.537,99.592,99.592,0,0,0-15.463,3.523A42.052,42.052,0,0,0,39.7,90.675ZM33.635,69.224A115.3,115.3,0,0,1,32.13,53H8.115a41.653,41.653,0,0,0,7.1,20.487A105.411,105.411,0,0,1,33.635,69.224ZM15.213,26.513A41.653,41.653,0,0,0,8.115,47H32.13a115.3,115.3,0,0,1,1.5-16.224A105.4,105.4,0,0,1,15.213,26.513Zm4.131-5.174a99.628,99.628,0,0,0,15.463,3.524A97.606,97.606,0,0,1,39.7,9.326,42.056,42.056,0,0,0,19.344,21.34ZM52.913,8.147C51.946,8.081,50.984,8,50,8s-1.946.081-2.912,0.147a89.755,89.755,0,0,0-6.153,17.511c2.983,0.259,6.006.416,9.065,0.416s6.082-.157,9.065-0.416A89.755,89.755,0,0,0,52.913,8.147ZM60.3,9.326a97.6,97.6,0,0,1,4.892,15.538A99.626,99.626,0,0,0,80.656,21.34,42.055,42.055,0,0,0,60.3,9.326Zm6.064,21.451A115.29,115.29,0,0,1,67.87,47H91.886a41.651,41.651,0,0,0-7.1-20.488A105.372,105.372,0,0,1,66.366,30.777Z"/>
</svg>
