<svg xmlns="http://www.w3.org/2000/svg" width="100" height="100" viewBox="0 0 100 100">
  <defs>
    <style>
      .cls-1 {
        fill: #F05050;
        fill-rule: evenodd;
      }
    </style>
  </defs>
  <path id="_7" data-name="7" class="cls-1" d="M14,14H86A12,12,0,0,1,98,26V74A12,12,0,0,1,86,86H14A12,12,0,0,1,2,74V26A12,12,0,0,1,14,14ZM12.667,79.84L39.74,50.991,50,58.746l9.818-7.8,27.516,28.9C86.9,79.938,13.1,79.938,12.667,79.84ZM8,74a5.932,5.932,0,0,0,.285,1.736L35,47,8,26V74ZM89,20L50,50,11,20H89Zm3,6L65,47,91.715,75.736A5.931,5.931,0,0,0,92,74V26Z"/>
</svg>
