<svg xmlns="http://www.w3.org/2000/svg" width="15" height="18" viewBox="0 0 100 100">
  <defs>
    <style>
      .cls-1 {
        fill: rgba(0,0,0,0.44);
        fill-rule: evenodd;
      }
    </style>
  </defs>
  <path id="_7" data-name="7" class="cls-1" d="M79.715,22.858C66.559,26.608,64.15,37.243,65,44c-9.385-11.032-9-23.721-9-42C25.9,13.349,32.9,46.065,32,56c-7.569-6.2-9-21-9-21-7.992,4.112-12,15.092-12,24a39,39,0,0,0,78,0C89,46.2,79.6,40.294,79.715,22.858ZM74.8,33.4c-4.621,2.028-4.743,13-3.714,19.6-17.973-3.229-22-25.329-20.629-41.781C34.934,21.683,38.275,51.957,38.915,64.314,24.191,65.164,19.683,48.9,20,47c-2.906,3.281-3,6.682-3,10.876C17,75.922,32.446,92,51.5,92c14.253,0,31.271-14.954,31.271-32.543C82.771,49.742,75.3,43.507,74.8,33.4Z"/>
</svg>
