<svg id="Layer_66" data-name="Layer 66" xmlns="http://www.w3.org/2000/svg" viewBox="0 0 16 12.93"><defs><style>.cls-1{fill:#f05050;}</style></defs><title>toggle list view of question</title><path class="cls-1" d="M6.74,6.46H17.39A.62.62,0,0,0,18,5.84V4.15a.61.61,0,0,0-.61-.61H6.74a.61.61,0,0,0-.61.61V5.84A.61.61,0,0,0,6.74,6.46Z" transform="translate(-2 -3.54)"/><path class="cls-1" d="M2.61,6.46h1.7a.62.62,0,0,0,.62-.62V4.15a.61.61,0,0,0-.62-.61H2.61A.61.61,0,0,0,2,4.15V5.84A.62.62,0,0,0,2.61,6.46Z" transform="translate(-2 -3.54)"/><path class="cls-1" d="M2.61,11.46h1.7a.61.61,0,0,0,.62-.61V9.15a.61.61,0,0,0-.62-.61H2.61A.61.61,0,0,0,2,9.15v1.7A.61.61,0,0,0,2.61,11.46Z" transform="translate(-2 -3.54)"/><path class="cls-1" d="M6.74,11.46H17.39a.61.61,0,0,0,.61-.61V9.15a.61.61,0,0,0-.61-.61H6.74a.61.61,0,0,0-.61.61v1.7A.61.61,0,0,0,6.74,11.46Z" transform="translate(-2 -3.54)"/><path class="cls-1" d="M6.74,16.46H17.39a.61.61,0,0,0,.61-.61V14.16a.62.62,0,0,0-.61-.62H6.74a.61.61,0,0,0-.61.62v1.69A.61.61,0,0,0,6.74,16.46Z" transform="translate(-2 -3.54)"/><path class="cls-1" d="M2.61,16.46h1.7a.61.61,0,0,0,.62-.61V14.16a.62.62,0,0,0-.62-.62H2.61a.62.62,0,0,0-.61.62v1.69A.61.61,0,0,0,2.61,16.46Z" transform="translate(-2 -3.54)"/></svg>
