<?xml version="1.0" encoding="utf-8"?>
<!-- Generator: Adobe Illustrator 22.0.1, SVG Export Plug-In . SVG Version: 6.00 Build 0)  -->
<svg version="1.1" xmlns="http://www.w3.org/2000/svg" xmlns:xlink="http://www.w3.org/1999/xlink" x="0px" y="0px"
	 viewBox="0 0 19 19" style="enable-background:new 0 0 19 19;" xml:space="preserve">
<style type="text/css">
	.st0{display:none;}
	.st1{display:inline;fill:#00D063;}
	.st2{display:inline;}
	.st3{fill:none;}
</style>
<g id="Layer_3" class="st0">
	<rect x="0.5" y="0.5" class="st1" width="18" height="18"/>
</g>
<g id="Layer_4" class="st0">
</g>
<g class="st0">
	<path id="_3" class="st2" d="M9.5,18.5c-5,0-9-4-9-9s4-9,9-9s9,4,9,9S14.5,18.5,9.5,18.5z M16,13.9c0.8-1.1,1.2-2.5,1.3-3.8h-4.5
		c0,1-0.1,2-0.3,3C13.7,13.3,14.9,13.5,16,13.9z M7.3,10.1c0,1,0.1,1.9,0.3,2.9c0.6-0.1,1.3-0.1,1.9-0.1s1.3,0,1.9,0.1
		c0.2-1,0.3-1.9,0.3-2.9H7.3z M11.7,8.9c0-1-0.1-1.9-0.3-2.9c-0.6,0.1-1.3,0.1-1.9,0.1S8.2,6.1,7.6,6C7.4,7,7.3,8,7.3,8.9H11.7z
		 M15.2,14.9c-0.9-0.3-1.9-0.5-2.9-0.7c-0.2,1-0.5,2-0.9,2.9C12.9,16.8,14.2,16,15.2,14.9L15.2,14.9z M9,17.3c0.2,0,0.4,0,0.5,0
		s0.4,0,0.5,0c0.5-1.1,0.9-2.2,1.2-3.3c-0.6,0-1.1-0.1-1.7-0.1c-0.6,0-1.1,0-1.7,0.1C8.1,15.2,8.5,16.3,9,17.3z M7.6,17.1
		c-0.4-0.9-0.7-1.9-0.9-2.9c-1,0.1-2,0.4-2.9,0.7C4.8,16,6.1,16.8,7.6,17.1z M6.4,13.1c-0.2-1-0.3-2-0.3-3H1.6
		c0.1,1.4,0.6,2.7,1.3,3.8C4.1,13.5,5.3,13.3,6.4,13.1z M3,5.1C2.2,6.2,1.7,7.6,1.6,8.9h4.5c0-1,0.1-2,0.3-3C5.3,5.7,4.1,5.5,3,5.1z
		 M3.8,4.1c0.9,0.3,1.9,0.5,2.9,0.7c0.2-1,0.5-2,0.9-2.9C6.1,2.2,4.8,3,3.8,4.1L3.8,4.1z M10,1.7c-0.2,0-0.4,0-0.5,0s-0.4,0-0.5,0
		C8.5,2.7,8.1,3.8,7.8,4.9C8.4,5,8.9,5,9.5,5s1.1,0,1.7-0.1C10.9,3.8,10.5,2.7,10,1.7z M11.4,1.9c0.4,0.9,0.7,1.9,0.9,2.9
		c1-0.1,2-0.4,2.9-0.7C14.2,3,12.9,2.2,11.4,1.9z M12.6,5.9c0.2,1,0.3,2,0.3,3h4.5c-0.1-1.4-0.6-2.7-1.3-3.8
		C14.9,5.5,13.7,5.7,12.6,5.9L12.6,5.9z"/>
</g>
<g id="Layer_2" class="st0">
	<path id="_7" class="st2" d="M13.7,18.5l-4.2-4.2l-4.2,4.2c-1.3,0-2.4-1.1-2.4-2.4V2.9c0-1.3,1.1-2.4,2.4-2.4h8.4
		c1.3,0,2.4,1.1,2.4,2.4c0,0,0,0,0,0v13.2C16.1,17.4,15,18.5,13.7,18.5z M14.9,2.9c0-0.7-0.5-1.2-1.2-1.2c0,0,0,0,0,0H5.3
		c-0.7,0-1.2,0.5-1.2,1.2c0,0,0,0,0,0v13.2c0,0.7,0.5,1.2,1.2,1.2l4.2-4.2l4.2,4.2c0.7,0,1.2-0.5,1.2-1.2v0V2.9z"/>
</g>
<g id="Layer_5">
	<path id="_2" d="M14,12l1.1,6.5l-5.6-3.1l-5.6,3.1L5,12L0.5,7.4l6.2-0.9l2.8-5.9l2.8,5.9l6.2,0.9L14,12z M11.6,7.4L9.5,2.9L7.4,7.4
		L2.5,8.1l3.6,3.7l-0.8,4.7l4.2-2.3l4.1,2.4l-0.7-4.7l3.6-3.6L11.6,7.4z"/>
</g>
<g id="Layer_6" class="st0">
	<g class="st2">
		<path class="st3" d="M5.5,9.8C5.5,9.8,5.5,9.8,5.5,9.8C5.5,9.8,5.5,9.8,5.5,9.8c0.6,0,1-0.2,1.3-0.5c0.8-0.9,0.6-2.5,0.6-2.5
			c0,0,0,0,0,0C7.3,5.1,6.2,4.8,5.5,4.8c0,0,0,0,0,0h0C5,4.8,3.7,5,3.6,6.7c0,0,0,0,0,0c0,0-0.2,1.7,0.6,2.5C4.5,9.6,5,9.8,5.5,9.8z
			"/>
		<path class="st3" d="M12.4,9.3C12.4,9.3,12.4,9.3,12.4,9.3C12.4,9.3,12.4,9.3,12.4,9.3c0.7,0,1.2-0.2,1.6-0.6
			c0.9-1.1,0.7-3.1,0.7-3.1c0,0,0,0,0,0c-0.1-2-1.5-2.3-2.3-2.4c0,0,0,0,0,0h0c-0.6,0-2.2,0.2-2.3,2.4c0,0,0,0,0,0
			c0,0-0.2,2.1,0.7,3.1C11.2,9,11.7,9.2,12.4,9.3z"/>
		<path d="M12.3,10.1C12.4,10.1,12.4,10.1,12.3,10.1C12.4,10.1,12.4,10.1,12.3,10.1C12.4,10.1,12.4,10.1,12.3,10.1
			c1,0,1.7-0.3,2.2-0.9c1.1-1.3,1-3.5,0.9-3.7c-0.1-1.6-0.8-2.3-1.4-2.7c-0.5-0.3-1-0.4-1.6-0.4h0c0,0,0,0,0,0h0
			c-0.3,0-1,0.1-1.6,0.4c-0.6,0.4-1.4,1.1-1.5,2.7c0,0.2-0.2,2.4,0.9,3.7C10.8,9.7,11.5,10,12.3,10.1z M10.1,5.5
			C10.1,5.5,10.1,5.5,10.1,5.5c0.1-2.2,1.6-2.4,2.3-2.4h0c0,0,0,0,0,0c0.8,0,2.2,0.3,2.3,2.4c0,0,0,0,0,0c0,0,0.2,2-0.7,3.1
			c-0.4,0.4-0.9,0.6-1.5,0.6c0,0,0,0,0,0c0,0,0,0,0,0c-0.7,0-1.2-0.2-1.5-0.6C9.9,7.6,10.1,5.5,10.1,5.5z"/>
		<path d="M9.4,11.4C9.4,11.4,9.4,11.4,9.4,11.4c0.7-0.3,1.1-0.6,1.2-0.7c0.2-0.1,0.2-0.4,0.1-0.6s-0.4-0.2-0.6-0.1
			c0,0-0.8,0.5-1.8,0.9C8.6,11.2,9,11.3,9.4,11.4C9.4,11.4,9.4,11.4,9.4,11.4z"/>
		<path d="M18.5,13.7C18.5,13.7,18.5,13.7,18.5,13.7C18.5,13.7,18.5,13.7,18.5,13.7c0-0.7-0.1-2.1-1.4-2.5c0,0,0,0,0,0
			c-1.3-0.3-2.5-1.1-2.5-1.1c-0.2-0.1-0.4-0.1-0.6,0.1s-0.1,0.4,0.1,0.6c0.1,0,1.2,0.9,2.7,1.2c0.7,0.2,0.8,1,0.8,1.7
			c0,0,0,0.1,0,0.1c0,0.3,0,0.7-0.1,0.9c-0.5,0.3-2.4,1.2-5.2,1.2c-1.5,0-2.7-0.2-3.6-0.5c-0.4,0.1-0.8,0.3-1.4,0.4
			c1,0.4,2.6,1,4.9,1c3.6,0,5.7-1.4,5.8-1.4c0.1,0,0.1-0.1,0.2-0.2C18.5,14.7,18.5,13.9,18.5,13.7z"/>
		<path d="M7.1,14.7c0-0.2-0.1-0.7-0.1-0.9c0,0,0,0,0-0.1c0-0.7,0.1-1.4,0.8-1.7c0.2-0.1,0.4-0.1,0.6-0.2c-0.4-0.2-0.8-0.3-1-0.5
			c-1.1,0.5-1.2,1.8-1.2,2.3c0,0,0,0.1,0,0.1c0,0,0,0,0,0c0,0.2,0,0.9,0.2,1.3c0,0,0.1,0.1,0.1,0.1c0.5,0,0.9-0.1,1.3-0.2
			C7.5,14.8,7.3,14.7,7.1,14.7z"/>
		<path d="M5.5,10.5C5.5,10.5,5.5,10.5,5.5,10.5C5.5,10.5,5.5,10.5,5.5,10.5C5.5,10.5,5.5,10.5,5.5,10.5c0.8,0,1.4-0.3,1.8-0.7
			C8.2,8.7,8,6.8,8,6.7C8,5.4,7.4,4.7,6.8,4.5C6.5,4.2,6,4.1,5.5,4.1h0c0,0,0,0,0,0h0c-0.3,0-0.8,0-1.3,0.3C3.7,4.7,3,5.4,3,6.7
			c0,0.2-0.2,2,0.8,3C4.2,10.2,4.8,10.4,5.5,10.5z M3.6,6.7C3.6,6.7,3.6,6.7,3.6,6.7c0.1-1.8,1.3-2,1.9-2h0c0,0,0,0,0,0
			c0.7,0,1.8,0.3,1.9,1.9c0,0,0,0,0,0c0,0,0.2,1.7-0.6,2.5C6.5,9.6,6.1,9.8,5.5,9.8c0,0,0,0,0,0s0,0,0,0C5,9.8,4.5,9.6,4.2,9.3
			C3.5,8.4,3.6,6.7,3.6,6.7z"/>
		<path d="M6.5,15.2c-0.3,0-0.6,0.1-1,0.1c-2.3,0-3.9-0.8-4.3-1c0-0.2-0.1-0.5-0.1-0.8c0,0,0,0,0-0.1c0-0.6,0.1-1.2,0.6-1.4
			C3,11.7,4,11.1,4,11c0.1-0.1,0.2-0.3,0.1-0.5c-0.1-0.1-0.3-0.2-0.5-0.1c0,0-0.9,0.6-2,0.9c0,0,0,0,0,0c-1.1,0.4-1.1,1.5-1.1,2
			c0,0,0,0,0,0.1c0,0,0,0,0,0c0,0.1,0,0.8,0.1,1.1c0,0.1,0.1,0.1,0.1,0.2c0.1,0,1.8,1.2,4.8,1.2c0.7,0,1.4-0.1,1.9-0.2
			C6.9,15.5,6.6,15.3,6.5,15.2C6.6,15.2,6.5,15.2,6.5,15.2z"/>
		<path d="M7.7,11.2c0.2-0.1,0.4-0.1,0.6-0.2c-0.6-0.3-0.9-0.5-0.9-0.5c-0.1-0.1-0.4-0.1-0.5,0.1C6.8,10.7,6.8,10.9,7,11
			c0,0,0.2,0.1,0.5,0.3C7.5,11.3,7.6,11.3,7.7,11.2C7.6,11.2,7.6,11.2,7.7,11.2z"/>
		<path d="M7.8,15c-0.4,0.1-0.8,0.2-1.3,0.2c0,0,0,0.1,0.1,0.1c0,0,0.3,0.2,0.9,0.5c0.5-0.1,1-0.2,1.4-0.4C8.4,15.2,8.1,15.1,7.8,15
			z"/>
		<path d="M9.4,11.4C9.4,11.4,9.4,11.4,9.4,11.4C9.4,11.4,9.4,11.4,9.4,11.4C9,11.3,8.6,11.2,8.3,11c-0.2,0.1-0.4,0.1-0.6,0.2
			c0,0,0,0,0,0c-0.1,0-0.1,0.1-0.2,0.1c0.3,0.1,0.6,0.3,1,0.5C8.8,11.7,9.1,11.6,9.4,11.4z"/>
	</g>
</g>
<g id="Layer_7" class="st0">
	<path id="_1" class="st2" d="M14.6,18.5H4.4c-1.2,0-2.3-1-2.3-2.2v0V2.8c0-1.2,1-2.3,2.3-2.2c0,0,0,0,0,0h7.9L16.8,5v11.2
		C16.8,17.5,15.8,18.5,14.6,18.5z M12.3,1.6v2.2c0,0.6,0.5,1.1,1.1,1.1h2.3L12.3,1.6z M15.7,6.1h-2.3c-1.2,0-2.3-1-2.3-2.2
		c0,0,0-0.9,0-2.2H4.4c-0.6,0-1.1,0.5-1.1,1.1c0,0,0,0,0,0v13.5c0,0.6,0.5,1.1,1.1,1.1h10.2c0.6,0,1.1-0.5,1.1-1.1L15.7,6.1
		L15.7,6.1z M12.9,14H6.1c-0.3,0-0.6-0.3-0.6-0.6c0-0.3,0.3-0.6,0.6-0.6h6.8c0.3,0,0.6,0.3,0.6,0.6C13.5,13.7,13.2,14,12.9,14z
		 M12.9,10.6H6.1c-0.3,0-0.6-0.3-0.6-0.6c0-0.3,0.3-0.6,0.6-0.6h6.8c0.3,0,0.6,0.3,0.6,0.6C13.5,10.4,13.2,10.6,12.9,10.6z"/>
</g>
<g id="Layer_8" class="st0">
	<g class="st2">
		<path class="st3" d="M14,5.6c-0.2,0-0.5,0-0.7-0.1c-0.6-0.2-1-0.6-1.2-1.2C12,4,11.9,3.8,11.9,3.5c0,0,0-0.2,0-0.5
			c0-0.4,0-0.9,0-1.6H5.8c-0.5,0-0.9,0.3-1,0.8c0,0.1,0,0.1,0,0.2c0,0,0,0,0,0v0.8v11.4c0,0.6,0.5,1,1,1h8.4H15c0.1,0,0.2,0,0.2,0
			c0.4-0.1,0.8-0.5,0.8-1V5.6h-1.6H14z M7.3,8.6h6.1c0.3,0,0.5,0.2,0.5,0.5s-0.2,0.5-0.5,0.5H7.3c-0.3,0-0.5-0.2-0.5-0.5
			S7.1,8.6,7.3,8.6z M13.5,12.7H7.3c-0.3,0-0.5-0.2-0.5-0.5c0-0.3,0.2-0.5,0.5-0.5h6.1c0.3,0,0.5,0.2,0.5,0.5
			C14,12.4,13.7,12.7,13.5,12.7z"/>
		<path class="st3" d="M3.8,14.7V3.4C3.3,3.5,3,3.9,3,4.3c0,0,0,0,0,0v12.1c0,0.6,0.5,1,1,1h9.2c0.5,0,0.9-0.3,1-0.8H5.8
			C4.7,16.7,3.8,15.8,3.8,14.7z"/>
		<path class="st3" d="M12.9,3.5c0,0.6,0.5,1,1,1h2l-3.1-3V3.5z"/>
		<path d="M7.3,9.6h6.1c0.3,0,0.5-0.2,0.5-0.5s-0.2-0.5-0.5-0.5H7.3c-0.3,0-0.5,0.2-0.5,0.5S7.1,9.6,7.3,9.6z"/>
		<path d="M13.5,11.6H7.3c-0.3,0-0.5,0.2-0.5,0.5c0,0.3,0.2,0.5,0.5,0.5h6.1c0.3,0,0.5-0.2,0.5-0.5C14,11.9,13.7,11.6,13.5,11.6z"/>
		<path d="M12.9,0.5H5.8c0,0,0,0,0,0c-1.1,0-1.9,0.8-2,1.8c-1,0.1-1.8,1-1.8,2v12.1c0,1.1,0.9,2,2,2h9.2c1.1,0,1.9-0.8,2-1.8
			c1-0.1,1.8-1,1.8-2V4.6L12.9,0.5z M13.2,17.5H4c-0.6,0-1-0.5-1-1V4.3c0,0,0,0,0,0c0-0.5,0.3-0.9,0.8-1v11.3c0,1.1,0.9,2,2,2h8.3
			C14,17.1,13.7,17.5,13.2,17.5z M16,14.7c0,0.5-0.3,0.9-0.8,1c-0.1,0-0.2,0-0.2,0h-0.8H5.8c-0.6,0-1-0.5-1-1V3.3V2.5c0,0,0,0,0,0
			c0-0.1,0-0.2,0-0.2c0.1-0.4,0.5-0.8,1-0.8h6.1c0,0.7,0,1.2,0,1.6c0,0.3,0,0.5,0,0.5c0,0.2,0.1,0.5,0.1,0.7c0.2,0.6,0.7,1,1.2,1.2
			c0.2,0.1,0.4,0.1,0.7,0.1h0.5H16V14.7z M14,4.6c-0.6,0-1-0.5-1-1v-2l3.1,3H14z"/>
	</g>
</g>
<g id="Layer_9" class="st0">
	<g class="st2">
		<path class="st3" d="M9.6,14.3h1c0.1,0,0.2,0,0.3,0.1c0.1-0.2,0.2-0.3,0.3-0.5c0,0,0,0,0,0c0.5-0.4,1.1-1.8,1.4-2.4
			c0-0.2,0-0.6,0.1-0.8c0.1-0.1,0.2-0.1,0.3-0.1c0.1,0,0.6,0,0.8,0.4c0.3,0.4,0.3,0.9,0,1.6c-0.2,0.6-0.2,0.9-0.2,1
			c0.1,0,0.2,0,0.3-0.1h0c0,0,0.3-0.1,0.7-0.1V5.6h-2.1c-1.1,0-2.1-0.9-2.1-2.1c0,0,0-0.8,0-2.1H4.5c-0.6,0-1,0.5-1,1c0,0,0,0,0,0
			v12.3c0,0.6,0.5,1,1,1h4.4V15C8.9,14.7,9.2,14.3,9.6,14.3z M6,8.7h6.2c0.3,0,0.5,0.2,0.5,0.5c0,0.3-0.2,0.5-0.5,0.5H6
			c-0.3,0-0.5-0.2-0.5-0.5C5.5,8.9,5.7,8.7,6,8.7z M5.5,12.3c0-0.3,0.2-0.5,0.5-0.5h3.5c0.3,0,0.5,0.2,0.5,0.5
			c0,0.3-0.2,0.5-0.5,0.5H6C5.7,12.8,5.5,12.6,5.5,12.3z"/>
		<path class="st3" d="M12.7,4.6h2.1l-3.1-3.1v2.1C11.7,4.1,12.1,4.6,12.7,4.6z"/>
		<path d="M16.4,16c0.2-0.2,0.2-0.4,0.2-0.7c0-0.3-0.1-0.5-0.2-0.6c0.1-0.3,0.1-0.7-0.2-1c-0.1-0.1-0.2-0.2-0.4-0.2v1.4
			c0,0,0,0,0,0.1c0,0.1,0.1,0.2,0.1,0.3c0,0.1-0.1,0.3-0.2,0.4c-0.1,0.1-0.1,0.2,0,0.2c0,0,0.1,0.1,0.1,0.2c0,0.2-0.1,0.4-0.3,0.5
			c-0.1,0.1-0.1,0.1-0.1,0.2c0,0,0.1,0.2,0,0.4c-0.1,0.2-0.3,0.3-0.7,0.4c-0.3,0.1-0.6,0.1-1.1,0c0,0,0,0,0,0c-1,0-1.9-0.1-1.9-0.1
			h0l-0.2,0c0,0,0-0.1,0-0.1v-0.5h-0.8v0.6c0,0.1-0.1,0.2-0.2,0.2H9.6v0c-0.1,0-0.2-0.1-0.2-0.2v-0.6H8.9v0.8c0,0.4,0.3,0.7,0.7,0.7
			h1c0.1,0,0.3,0,0.4-0.1l0.4,0c0.1,0,1.1,0.1,2.2,0.1c0.2,0,0.4,0,0.6,0c0.3,0,0.6,0,0.8-0.1c0.5-0.1,0.9-0.3,1-0.6
			c0.1-0.2,0.1-0.5,0.1-0.6c0.3-0.3,0.4-0.6,0.4-0.9C16.4,16.2,16.4,16,16.4,16z"/>
		<path d="M9.6,15h0.9c0.1,0,0.2,0.1,0.2,0.2v0.7h0.8V15c0-0.1,0-0.1,0-0.2c0-0.1,0.1-0.3,0.3-0.5c0.7-0.5,1.3-2.3,1.4-2.4
			c0,0,0-0.1,0-0.1c0-0.2,0-0.4,0-0.4c0.1,0,0.3,0,0.4,0.2c0.2,0.2,0.1,0.6,0,1.1c-0.3,0.8-0.3,1.2-0.1,1.3c0.1,0.1,0.2,0.1,0.3,0.1
			c0.1,0,0.2,0,0.3-0.1c0,0,0,0,0,0c0.2,0,0.4-0.1,0.7-0.1v-0.5c-0.4,0-0.7,0.1-0.7,0.1h0c-0.1,0-0.2,0-0.3,0.1c0-0.1,0-0.4,0.2-1
			c0.2-0.7,0.2-1.3,0-1.6c-0.3-0.4-0.7-0.4-0.8-0.4c-0.1,0-0.2,0.1-0.3,0.1c-0.2,0.2-0.2,0.6-0.1,0.8c-0.2,0.6-0.8,2-1.4,2.4
			c0,0,0,0,0,0c-0.2,0.2-0.3,0.3-0.3,0.5c-0.1-0.1-0.2-0.1-0.3-0.1h-1c-0.4,0-0.7,0.3-0.7,0.7v0.9h0.6v-0.7C9.4,15.1,9.5,15,9.6,15z
			"/>
		<path d="M10,12.3c0-0.3-0.2-0.5-0.5-0.5H6c-0.3,0-0.5,0.2-0.5,0.5c0,0.3,0.2,0.5,0.5,0.5h3.5C9.7,12.8,10,12.6,10,12.3z"/>
		<path d="M6,9.7h6.2c0.3,0,0.5-0.2,0.5-0.5c0-0.3-0.2-0.5-0.5-0.5H6c-0.3,0-0.5,0.2-0.5,0.5C5.5,9.5,5.7,9.7,6,9.7z"/>
		<path d="M4.5,15.9c-0.6,0-1-0.5-1-1V2.6c0,0,0,0,0,0c0-0.6,0.5-1,1-1h6.2c0,1.2,0,2.1,0,2.1c0,1.1,0.9,2.1,2.1,2.1h2.1h0h0v7.7
			c0,0,0.1,0,0.1,0c0.4,0,0.7,0,1,0.1V4.6l-4.1-4.1H4.5c0,0,0,0,0,0c-1.1,0-2.1,0.9-2.1,2.1v12.3c0,1.1,0.9,2.1,2.1,2.1h4.4v-1H4.5z
			 M11.7,1.5l3.1,3.1h-2.1c-0.6,0-1-0.5-1-1V1.5z"/>
		<rect x="8.9" y="15.9" width="0.6" height="1"/>
		<path d="M14.8,13.4v0.5c0.4,0,0.7,0,0.9,0.2c0.2,0.2,0.1,0.5,0.1,0.5c-0.1,0.1,0,0.2,0,0.3c0,0,0,0,0.1,0.1c0,0,0,0,0-0.1v-1.4
			C15.5,13.4,15.2,13.4,14.8,13.4C14.8,13.4,14.8,13.4,14.8,13.4z"/>
		<rect x="10.7" y="15.9" width="0.8" height="1"/>
	</g>
</g>
<g id="Layer_10" class="st0">
	<path id="_7_3_" class="st2" d="M16.3,16.8c0,0-3,0.8-6.2,1.7H8.9c-3.1-0.8-6.2-1.7-6.2-1.7c-1.2-0.4-2.3-1-2.3-2.2V2.8
		c0-1.2,1-2.3,2.3-2.3c0,0,3.4,0.9,6.2,1.7c0.4,0,0.7,0,1.1,0c3-0.8,6.2-1.7,6.2-1.7c1.2,0,2.3,1,2.3,2.3v11.8
		C18.5,15.8,17.4,16.5,16.3,16.8z M2.8,1.6c-0.6,0-1.1,0.5-1.1,1.1v11.8c0.1,0.6,0.5,1.1,1.1,1.1c0,0,3.1,0.9,6.2,1.7V3.3L2.8,1.6z
		 M17.4,2.8c0-0.6-0.5-1.1-1.1-1.1l-6.2,1.7v14c3.1-0.8,6.2-1.7,6.2-1.7c0.6-0.2,1.1-0.5,1.1-1.1L17.4,2.8L17.4,2.8z"/>
</g>
<g id="Layer_11" class="st0">
	<path id="_7_4_" class="st2" d="M16.3,16.8c0,0-3,0.8-6.2,1.7H8.9c-3.1-0.8-6.2-1.7-6.2-1.7c-1.2-0.4-2.3-1-2.3-2.2V2.8
		c0-1.2,1-2.3,2.3-2.3c0,0,3.4,0.9,6.2,1.7c0.4,0,0.7,0,1.1,0c3-0.8,6.2-1.7,6.2-1.7c1.2,0,2.3,1,2.3,2.3v11.8
		C18.5,15.8,17.4,16.5,16.3,16.8z M2.8,1.6c-0.6,0-1.1,0.5-1.1,1.1v11.8c0.1,0.6,0.5,1.1,1.1,1.1c0,0,3.1,0.9,6.2,1.7V3.3L2.8,1.6z
		 M17.4,2.8c0-0.6-0.5-1.1-1.1-1.1l-6.2,1.7v14c3.1-0.8,6.2-1.7,6.2-1.7c0.6-0.2,1.1-0.5,1.1-1.1L17.4,2.8L17.4,2.8z"/>
	<path id="_4_1_" class="st2" d="M9.3,12.1c-0.1,0.1-0.2,0.1-0.3,0l-1.6-1.6c-0.5,0.4-1.1,0.6-1.7,0.6c-1.4,0-2.6-1.1-2.6-2.6
		c0-1.4,1.2-2.6,2.6-2.6c1.4,0,2.6,1.1,2.6,2.6c0,0.6-0.2,1.3-0.7,1.7l1.6,1.6C9.3,11.9,9.3,12,9.3,12.1C9.3,12.1,9.3,12.1,9.3,12.1
		z M5.7,6.3c-1.2,0-2.2,1-2.2,2.2c0,1.2,1,2.2,2.2,2.2c1.2,0,2.2-1,2.2-2.2C7.9,7.3,6.9,6.3,5.7,6.3z"/>
</g>
<g id="Layer_12" class="st0">
	<g class="st2">
		<path class="st3" d="M9.5,11.1L7.6,9.7l-5.1,5.4c0.1,0,13.9,0,14,0l-5.2-5.4L9.5,11.1z"/>
		<polygon class="st3" points="16.8,3.9 2.2,3.9 9.5,9.5 		"/>
		<path d="M16.3,2.8H2.8c-1.2,0-2.3,1-2.3,2.3v9c0,1.2,1,2.3,2.3,2.3h13.5c1.2,0,2.3-1,2.3-2.3V5C18.5,3.8,17.5,2.8,16.3,2.8z
			 M16.8,3.9L9.5,9.5L2.2,3.9H16.8z M1.6,14V5l5.1,3.9l-5,5.4C1.6,14.2,1.6,14.1,1.6,14z M2.5,15.1l5.1-5.4l1.9,1.5l1.8-1.5l5.2,5.4
			C16.4,15.1,2.6,15.1,2.5,15.1z M17.4,14c0,0.1,0,0.2-0.1,0.3l-5-5.4L17.4,5V14z"/>
	</g>
</g>
<g id="Layer_13" class="st0">
	<path id="_6" class="st2" d="M12.4,16.1c-0.3,1.6-1.9,2.7-3.6,2.3c-1.2-0.2-2.1-1.2-2.3-2.3H1.1l2.4-4.8V6.5c0-3.3,2.7-6,6-6
		s6,2.7,6,6v4.8l2.4,4.8H12.4z M9.5,17.3c0.8,0,1.4-0.5,1.7-1.2H7.8C8.1,16.8,8.7,17.3,9.5,17.3z M14.3,11.3V6.5
		c0-2.7-2.2-4.8-4.8-4.8c-2.6,0-4.8,2.1-4.8,4.8v4.8l-1.8,3.6h13.2L14.3,11.3z"/>
</g>
<g id="Layer_14" class="st0">
	<g class="st2">
		<g>
			<path d="M9.4,10.2C9.5,10.2,9.5,10.2,9.4,10.2C9.5,10.2,9.5,10.2,9.4,10.2c0.1,0,0.1,0,0.1,0c1.1,0,2-0.4,2.6-1.1
				c1.4-1.6,1.2-4.4,1.2-4.7c-0.1-2-1-2.9-1.8-3.4c-0.6-0.3-1.3-0.5-2-0.5h0c0,0,0,0,0,0h0c-0.4,0-1.2,0.1-2,0.5
				C6.7,1.5,5.7,2.4,5.6,4.4c0,0.3-0.3,3,1.2,4.7C7.5,9.8,8.3,10.2,9.4,10.2z M6.6,4.5C6.6,4.5,6.6,4.5,6.6,4.5c0.1-2.7,2-3,2.8-3h0
				c0,0,0,0,0,0c1,0,2.7,0.4,2.8,3c0,0,0,0,0,0c0,0,0.3,2.6-0.9,3.9C11,8.9,10.3,9.2,9.5,9.2c0,0,0,0,0,0l0,0c0,0,0,0,0,0
				C8.7,9.2,8,8.9,7.6,8.4C6.4,7.1,6.6,4.5,6.6,4.5z"/>
			<path d="M17.2,14.8C17.2,14.8,17.2,14.8,17.2,14.8c0,0,0-0.1,0-0.1c0-0.7-0.1-2.5-1.7-3c0,0,0,0,0,0c-1.7-0.4-3.1-1.4-3.1-1.4
				c-0.2-0.2-0.5-0.1-0.7,0.1c-0.2,0.2-0.1,0.5,0.1,0.7c0.1,0,1.5,1.1,3.4,1.6c0.9,0.3,1,1.2,1,2.1c0,0,0,0.1,0,0.1
				c0,0.3,0,0.9-0.1,1.2c-0.6,0.3-3,1.5-6.6,1.5c-3.6,0-6-1.2-6.6-1.5c-0.1-0.3-0.1-0.8-0.1-1.2c0,0,0-0.1,0-0.1
				c0-0.8,0.1-1.8,1-2.1c1.9-0.5,3.3-1.5,3.4-1.6c0.2-0.2,0.3-0.5,0.1-0.7c-0.2-0.2-0.5-0.3-0.7-0.1c0,0-1.4,1-3.1,1.4c0,0,0,0,0,0
				c-1.6,0.6-1.7,2.3-1.7,3c0,0,0,0.1,0,0.1c0,0,0,0,0,0c0,0.2,0,1.2,0.2,1.7c0,0.1,0.1,0.2,0.2,0.2c0.1,0.1,2.8,1.8,7.3,1.8
				s7.2-1.7,7.3-1.8c0.1-0.1,0.2-0.1,0.2-0.2C17.2,16,17.2,15,17.2,14.8z"/>
		</g>
	</g>
</g>
<g id="Layer_15" class="st0">
	<g class="st2">
		<path class="st3" d="M10.2,11.8c0,0.1,0,0.2,0.1,0.2c0.1,0,0.1,0,0.2,0l1.8-1.5l-1.2-0.9L10.2,11.8z"/>
		<polygon class="st3" points="16.4,5.5 15.2,4.6 15.2,7.1 		"/>
		<polygon class="st3" points="11.5,9 12.9,10.1 14.3,8.3 14.3,5.3 		"/>
		<path class="st3" d="M13.1,10.8l-3,2c-0.2,0.1-0.4,0.1-0.5-0.1c-0.1-0.1-0.1-0.2,0-0.4L10.7,9c0-0.1,0-0.3,0.1-0.4l3.4-4.5
			c-0.1-0.5-0.4-0.8-0.9-0.8H2.3c-0.5,0-0.9,0.5-0.9,1v11c0,0.5,0.4,0.9,0.9,0.9h11c0.5,0,1-0.4,1-0.9V9.5l-0.8,1.1
			C13.4,10.7,13.3,10.8,13.1,10.8z M4.2,6h7.4C11.8,6,12,6.2,12,6.5S11.8,7,11.6,7H4.2C3.9,7,3.7,6.7,3.7,6.5S3.9,6,4.2,6z M4.2,8.8
			h5.7c0.3,0,0.5,0.2,0.5,0.5s-0.2,0.5-0.5,0.5H4.2c-0.3,0-0.5-0.2-0.5-0.5S3.9,8.8,4.2,8.8z M8.3,12.5H4.2c-0.3,0-0.5-0.2-0.5-0.5
			s0.2-0.5,0.5-0.5h4.1c0.3,0,0.5,0.2,0.5,0.5S8.5,12.5,8.3,12.5z"/>
		<path class="st3" d="M17.5,3.5l-0.9-0.7c-0.2-0.1-0.4-0.1-0.5,0.1c0,0,0,0,0,0l-0.6,0.9l1.4,1.1L17.5,4
			C17.7,3.9,17.6,3.6,17.5,3.5C17.5,3.5,17.5,3.5,17.5,3.5z"/>
		<path d="M4.2,9.7h5.7c0.3,0,0.5-0.2,0.5-0.5s-0.2-0.5-0.5-0.5H4.2C3.9,8.8,3.7,9,3.7,9.3S3.9,9.7,4.2,9.7z"/>
		<path d="M14.3,15.2c0,0.5-0.5,0.9-1,0.9h-11c-0.5,0-0.9-0.4-0.9-0.9v-11c0-0.5,0.4-1,0.9-1h11.1c0.5,0,0.8,0.4,0.9,0.8L15,3.2
			c-0.3-0.5-0.9-0.9-1.6-0.9H2.3c-1,0-1.8,0.9-1.8,1.9v11c0,1,0.8,1.8,1.8,1.8h11c1,0,1.9-0.8,1.9-1.8v-7l-0.9,1.2V15.2z"/>
		<path d="M4.2,7h7.4C11.8,7,12,6.7,12,6.5S11.8,6,11.6,6H4.2C3.9,6,3.7,6.2,3.7,6.5S3.9,7,4.2,7z"/>
		<path d="M8.3,11.6H4.2c-0.3,0-0.5,0.2-0.5,0.5s0.2,0.5,0.5,0.5h4.1c0.3,0,0.5-0.2,0.5-0.5S8.5,11.6,8.3,11.6z"/>
		<path d="M11.5,9l2.9-3.8V4.2c0,0,0-0.1,0-0.1l-3.4,4.5c-0.1,0.1-0.1,0.3-0.1,0.4l-1.1,3.4c0,0.1,0,0.3,0,0.4
			c0.1,0.2,0.4,0.2,0.5,0.1l3-2c0.1,0,0.3-0.1,0.3-0.2l0.8-1.1V8.3l-1.4,1.9L11.5,9z M10.5,12.1c-0.1,0-0.1,0-0.2,0
			c-0.1,0-0.1-0.1-0.1-0.2l0.9-2.1l1.2,0.9L10.5,12.1z"/>
		<path d="M18.2,3.2l-1.5-1.1c0,0,0,0,0,0c-0.3-0.2-0.8-0.2-1,0.1l-0.8,1c0.2,0.3,0.3,0.6,0.3,1v0.4l1.2,0.9l-1.2,1.6v1.2l3.1-4.1
			C18.6,3.9,18.5,3.4,18.2,3.2z M17.5,4l-0.7,0.9l-1.4-1.1l0.6-0.9c0,0,0,0,0,0c0.1-0.2,0.4-0.2,0.5-0.1l0.9,0.7c0,0,0,0,0,0
			C17.6,3.6,17.7,3.9,17.5,4z"/>
		<polygon points="14.3,8.3 14.3,9.5 15.2,8.3 15.2,7.1 		"/>
		<path d="M14.3,4.2v1.1L15,4.4l0.3,0.2V4.2c0-0.4-0.1-0.7-0.3-1l-0.7,0.9C14.3,4.1,14.3,4.1,14.3,4.2z"/>
	</g>
</g>
<g id="Layer_16" class="st0">
	<path id="_8" class="st2" d="M15.1,18.5H3.9c-1.2,0-2.3-1-2.3-2.3V5c0-1.2,1-2.3,2.3-2.3h1.7V1.6h1.5C7.6,1,8.5,0.5,9.5,0.5
		s1.9,0.5,2.4,1.1h1.5v1.1h1.7c1.2,0,2.3,1,2.3,2.3v11.3C17.4,17.5,16.4,18.5,15.1,18.5z M12.3,2.8h-1.3c0-0.6-0.7-1.1-1.6-1.1
		S7.9,2.1,7.9,2.8H6.7V5h5.6V2.8z M16.3,5c0-0.6-0.5-1.1-1.1-1.1h-1.7v2.3H5.6V3.9H3.9C3.3,3.9,2.8,4.4,2.8,5v11.3
		c0,0.6,0.5,1.1,1.1,1.1h11.3c0.6,0,1.1-0.5,1.1-1.1V5z M13.4,15.1H5.6c-0.3,0-0.6-0.3-0.6-0.6S5.3,14,5.6,14h7.9
		c0.3,0,0.6,0.3,0.6,0.6S13.7,15.1,13.4,15.1z M13.4,12.3H5.6c-0.3,0-0.6-0.3-0.6-0.6s0.3-0.6,0.6-0.6h7.9c0.3,0,0.6,0.3,0.6,0.6
		S13.7,12.3,13.4,12.3z M13.4,9.5H5.6C5.3,9.5,5,9.2,5,8.9s0.3-0.6,0.6-0.6h7.9c0.3,0,0.6,0.3,0.6,0.6S13.7,9.5,13.4,9.5z"/>
</g>
<g id="Layer_17" class="st0">
	<path id="_7_1_" class="st2" d="M13.7,18.5l-4.2-4.2l-4.2,4.2c-1.3,0-2.4-1.1-2.4-2.4V2.9c0-1.3,1.1-2.4,2.4-2.4h8.4
		c1.3,0,2.4,1.1,2.4,2.4c0,0,0,0,0,0v13.2C16.1,17.4,15,18.5,13.7,18.5z M14.9,2.9c0-0.7-0.5-1.2-1.2-1.2c0,0,0,0,0,0H5.3
		c-0.7,0-1.2,0.5-1.2,1.2c0,0,0,0,0,0v13.2c0,0.7,0.5,1.2,1.2,1.2l4.2-4.2l4.2,4.2c0.7,0,1.2-0.5,1.2-1.2v0V2.9z"/>
</g>
<g id="Layer_18" class="st0">
	<path id="_7_2_" class="st2" d="M13.7,18.5l-4.2-4.2l-4.2,4.2c-1.3,0-2.4-1.1-2.4-2.4V2.9c0-1.3,1.1-2.4,2.4-2.4h8.4
		c1.3,0,2.4,1.1,2.4,2.4c0,0,0,0,0,0v13.2C16.1,17.4,15,18.5,13.7,18.5z"/>
</g>
<g id="Layer_19" class="st0">
	<path id="_4" class="st2" d="M18.2,3.7c0.4-0.5,0.4-1.3-0.1-1.7c-0.5-0.4-1.3-0.4-1.7,0.1c0,0,0,0,0,0l-10,11.9L2.7,9.4
		C2.3,8.8,1.6,8.7,1,9.1c-0.5,0.4-0.7,1.1-0.3,1.6l4.6,6c0.4,0.6,1.1,0.7,1.7,0.4c0,0,0,0,0,0C7.1,17,18.2,3.7,18.2,3.7L18.2,3.7z"
		/>
</g>
<g id="Layer_20" class="st0">
	<path class="st2" d="M18.2,4.8c-0.4-0.3-1-0.3-1.3,0.1c0,0,0,0,0,0l-7.7,9.2L8,12.9c0.1-0.1,0.1-0.1,0.2-0.2
		c2.8-3.3,7.2-8.6,7.2-8.6l0,0c0.4-0.4,0.3-1.1-0.1-1.4c-0.4-0.4-1.1-0.3-1.4,0.1c0,0,0,0,0,0L6.9,11l-1.2,1.5l-0.3,0.3l-3-4
		C2,8.4,1.4,8.3,0.9,8.6C0.5,8.9,0.4,9.5,0.7,10L4.5,15c0.3,0.5,0.9,0.6,1.4,0.3c0,0,0,0,0,0c0,0,0.4-0.4,0.9-1l1.5,1.8
		c0.3,0.4,0.9,0.6,1.3,0.3c0,0,0,0,0,0c0.1-0.1,8.7-10.3,8.7-10.3l0,0C18.6,5.7,18.6,5.1,18.2,4.8z"/>
</g>
<g id="Layer_22" class="st0">
	<g class="st2">
		<path d="M18,7.7l-6.4-7c-0.3-0.3-0.7-0.3-0.9,0c-0.1,0.1-0.2,0.3-0.2,0.5V5c-5.3,0-9.6,4.3-9.6,9.6c0,1.3,0.3,2.6,0.8,3.9
			c0.8-4,4.6-7.1,8.8-7.1c0,0.2,0,3.8,0,3.8c0,0.2,0,0.4,0.2,0.5l0,0c0.2,0.3,0.6,0.3,0.9,0c0,0,0,0,0.1-0.1l6.4-7
			C18.2,8.4,18.2,8,18,7.7z M11.8,13.6v-3.5h0c0,0-1.5,0-1.9,0c-2.7,0-6.3,2.1-7.7,3.9c0-2.4,3.2-7.6,7.7-7.7c0.3,0,1.9,0,1.9,0V2.8
			l4.9,5.4L11.8,13.6z"/>
	</g>
</g>
<g id="Layer_23" class="st0">
	<g class="st2">
		<path id="Ellipse_1_copy_2" d="M7.4,16.4c0-1.1,0.9-2.1,2.1-2.1s2.1,0.9,2.1,2.1s-0.9,2.1-2.1,2.1S7.4,17.6,7.4,16.4z M7.4,9.5
			c0-1.1,0.9-2.1,2.1-2.1s2.1,0.9,2.1,2.1s-0.9,2.1-2.1,2.1S7.4,10.6,7.4,9.5z M7.4,2.6c0-1.1,0.9-2.1,2.1-2.1s2.1,0.9,2.1,2.1
			s-0.9,2.1-2.1,2.1S7.4,3.7,7.4,2.6z"/>
	</g>
</g>
<g id="Layer_24" class="st0">
	<path id="_4_" class="st2" d="M8.9,17.4C6.8,19,3.9,18.8,2,17c-1.8-1.8-2-4.7-0.4-6.8l0,0l8.7-8.6c1.5-1.5,4-1.5,5.5,0
		c1.5,1.5,1.5,3.9,0,5.4c0,0,0,0,0,0l-8.2,8.1c-1,1-2.6,1-3.7,0c-1-1-1-2.6,0-3.6c0,0,0,0,0,0l7.3-7.2l0.9,0.9l-7.3,7.2
		c-0.5,0.5-0.5,1.3,0,1.8c0,0,0,0,0,0c0.5,0.5,1.3,0.5,1.8,0l8.2-8.1c1-1,1-2.6,0-3.6c0,0,0,0,0,0c-1-1-2.6-1-3.7,0l-8.2,8.1
		c-1.5,1.5-1.5,3.9,0,5.4c0,0,0,0,0,0c1.5,1.5,4,1.5,5.5,0l9.2-9L18.5,8L8.9,17.4L8.9,17.4z"/>
</g>
<g id="Layer_21" class="st0">
	<path id="_3_1_" class="st2" d="M9.5,16.3c-0.6,0-1.1,0-1.7-0.1l-3.9,2.4v-4c-2.1-1.4-3.3-3.7-3.4-6.1c0-4.3,4-7.9,9-7.9
		s9,3.5,9,7.9S14.5,16.3,9.5,16.3z M9.5,1.6c-4.3,0-7.9,3-7.9,6.8C1.7,10.7,3,12.8,5,13.9l0,2.6l2.6-1.6c0.6,0.1,1.3,0.2,1.9,0.2
		c4.3,0,7.9-3,7.9-6.8S13.8,1.6,9.5,1.6z M14,9.5c-0.6,0-1.1-0.5-1.1-1.1s0.5-1.1,1.1-1.1s1.1,0.5,1.1,1.1S14.6,9.5,14,9.5z
		 M9.5,9.5C8.9,9.5,8.4,9,8.4,8.4s0.5-1.1,1.1-1.1s1.1,0.5,1.1,1.1S10.1,9.5,9.5,9.5z M5,9.5C4.4,9.5,3.9,9,3.9,8.4S4.4,7.3,5,7.3
		s1.1,0.5,1.1,1.1S5.6,9.5,5,9.5z"/>
</g>
</svg>
