<svg id="Layer_1" data-name="Layer 1" xmlns="http://www.w3.org/2000/svg" viewBox="0 0 313.2 104.31"><defs><style>.cls-1{fill:#F05050;}</style></defs><title>logo png1</title><polygon class="cls-1" points="83.41 10.88 88.89 0 94.34 10.91 83.41 10.88"/><path class="cls-1" d="M106.31,33.13l-4.85-4.85-4.88,4.89V88.54a6.51,6.51,0,0,1-13,0V33.17h0l0,0-4.85-4.85-4.88,4.89V88.54a16.29,16.29,0,0,0,32.57,0V33.17Z" transform="translate(-1.17 -0.52)"/><polygon class="cls-1" points="66.86 32.65 55.46 32.65 45.69 32.65 34.29 32.65 34.29 42.42 45.69 42.42 45.69 104.31 55.46 104.31 55.46 42.42 66.86 42.42 66.86 32.65"/><path class="cls-1" d="M128.37,33.17H112.09v71.66h16.28a16.29,16.29,0,0,0,16.29-16.29V49.46A16.29,16.29,0,0,0,128.37,33.17Zm6.52,55.37a6.51,6.51,0,0,1-6.51,6.51h-6.51V42.94h6.51a6.51,6.51,0,0,1,6.51,6.51Z" transform="translate(-1.17 -0.52)"/><polygon class="cls-1" points="166.3 32.65 159.78 55.05 153.27 32.65 143.5 32.65 155.35 68.48 155.35 104.31 164.22 104.31 164.22 68.48 176.07 32.65 166.3 32.65"/><path class="cls-1" d="M31.31,78q-2.88-6.09-11-14a50.4,50.4,0,0,1-6.12-6.8,16.25,16.25,0,0,1-3.3-7.72,6.51,6.51,0,0,1,13-.19l6-10.19A16.29,16.29,0,0,0,1.17,49.45h0c.54,6.93,5.2,14.27,13.35,22a41.59,41.59,0,0,1,6.4,7.68c1.51,2.65,2.91,5.54,3,8.65A6.51,6.51,0,1,1,11,87.8L4.61,98.53a16.27,16.27,0,0,0,29.13-10c0-.25,0-.49,0-.74A25.65,25.65,0,0,0,31.31,78Z" transform="translate(-1.17 -0.52)"/><path class="cls-1" d="M188.64,87.73c.09-3.11,1.49-6,3-8.65a41.57,41.57,0,0,1,6.4-7.67c8.15-7.74,12.81-15.07,13.35-22h0a16.29,16.29,0,0,0-32.57,0h9.77a6.51,6.51,0,0,1,13,0,16.23,16.23,0,0,1-3.3,7.71,50.38,50.38,0,0,1-6.12,6.79q-8.07,7.94-11,14a25.62,25.62,0,0,0-2.39,9.79V95h0v9.77H211.4V95H188.64Z" transform="translate(-1.17 -0.52)"/><path class="cls-1" d="M240,72.25h-2.3V33H228l-20.5,39.26V82H228v22.63h9.77V82H240Zm-22.8,0L228,52.62V72.25Z" transform="translate(-1.17 -0.52)"/><polygon class="cls-1" points="274.88 32.47 264.48 32.47 258.6 41.99 252.71 32.47 242.31 32.47 253.4 50.39 242.31 68.3 252.71 68.3 258.6 58.79 264.48 68.3 274.88 68.3 263.8 50.39 274.88 32.47"/><polygon class="cls-1" points="280.63 32.47 280.63 42.25 303.43 42.25 280.63 104.13 290.4 104.13 313.2 42.25 313.2 32.47 280.63 32.47"/></svg>