<svg id="Layer_1" data-name="Layer 1" xmlns="http://www.w3.org/2000/svg" viewBox="0 0 176.41 38"><title>beta logo</title><polygon points="28.18 6.93 23.37 6.93 19.25 6.93 14.45 6.93 14.45 11.04 19.25 11.04 19.25 37.13 23.37 37.13 23.37 11.04 28.18 11.04 28.18 6.93" style="fill:#323742"/><path d="M65.39,87.93H58.53v30.19h6.86a6.86,6.86,0,0,0,6.87-6.86h0V94.79A6.86,6.86,0,0,0,65.39,87.93Zm2.75,23.33A2.74,2.74,0,0,1,65.4,114H62.66V92H65.4a2.75,2.75,0,0,1,2.74,2.75Z" transform="translate(-11.79 -81)" style="fill:#323742"/><polygon points="70.08 6.93 67.33 16.37 64.59 6.93 60.47 6.93 65.47 22.03 65.47 37.13 69.2 37.13 69.2 22.03 74.2 6.93 70.08 6.93" style="fill:#323742"/><path d="M24.49,106.82a22.06,22.06,0,0,0-4.63-5.9,20.66,20.66,0,0,1-2.58-2.87,6.81,6.81,0,0,1-1.39-3.25,2.74,2.74,0,0,1,5.48-.08l2.53-4.29a6.87,6.87,0,0,0-12.11,4.36h0c.23,2.92,2.19,6,5.63,9.27a17.87,17.87,0,0,1,2.7,3.24,8.06,8.06,0,0,1,1.26,3.64,2.74,2.74,0,1,1-5.44.69,2.58,2.58,0,0,1,0-.68l-2.7,4.52a6.86,6.86,0,0,0,12.28-4.21v-.32A10.93,10.93,0,0,0,24.49,106.82Z" transform="translate(-11.79 -81)" style="fill:#323742"/><path d="M90.79,110.92a8,8,0,0,1,1.27-3.65A17.69,17.69,0,0,1,94.75,104c3.44-3.26,5.4-6.35,5.63-9.27h0a6.87,6.87,0,0,0-13.73,0h4.12a2.74,2.74,0,0,1,5.48,0A6.81,6.81,0,0,1,94.86,98a21.23,21.23,0,0,1-2.58,2.86,23.11,23.11,0,0,0-4.64,5.9,10.94,10.94,0,0,0-1,4.13V114h0v4.13h13.74V114H90.79Z" transform="translate(-11.79 -81)" style="fill:#323742"/><path d="M112.44,104.4h-1V87.86h-4.09L98.74,104.4v4.1h8.64v9.55h4.12V108.5h.94Zm-9.61,0,4.55-8.28v8.28Z" transform="translate(-11.79 -81)" style="fill:#323742"/><polygon points="115.83 6.85 111.45 6.85 108.97 10.86 106.49 6.85 102.11 6.85 106.78 14.4 102.11 21.95 106.49 21.95 108.97 17.94 111.45 21.95 115.83 21.95 111.17 14.4 115.83 6.85" style="fill:#323742"/><polygon points="118.26 6.85 118.26 10.97 127.87 10.97 118.26 37.05 122.38 37.05 131.98 10.97 131.98 6.85 118.26 6.85" style="fill:#323742"/><polygon points="34.68 4.25 37.28 0 39.87 4.26 34.68 4.25" style="fill:#323843"/><path d="M55.43,90.08l-1.9-2.45-1.91,2.46v21.66a2.55,2.55,0,0,1-5.1,0V90.09h0l-1.93-2.47L42.7,90.09v21.66a6.38,6.38,0,0,0,12.75,0V90.09Z" transform="translate(-11.79 -81)" style="fill:#f05151"/><rect x="134.12" y="20.97" width="42.3" height="17.03" rx="2" ry="2" style="fill:#f05151"/><text transform="translate(139.93 33.74)" style="font-size:12.489568710327148px;fill:#fff;font-family:Lato-Bold, Lato;font-weight:700">BE<tspan x="15.29" y="0" style="letter-spacing:-0.07342064476107762em">T</tspan><tspan x="21.8" y="0">A</tspan></text></svg>