<svg id="Layer_1" data-name="Layer 1" xmlns="http://www.w3.org/2000/svg" viewBox="0 0 176.42 38"><title>beta version</title><polygon points="28.18 6.93 23.37 6.93 19.25 6.93 14.45 6.93 14.45 11.04 19.25 11.04 19.25 37.13 23.37 37.13 23.37 11.04 28.18 11.04 28.18 6.93" style="fill:#323742"/><path d="M53.6,6.93H46.74V37.12H53.6a6.86,6.86,0,0,0,6.87-6.85h0V13.79a6.86,6.86,0,0,0-6.86-6.86Zm2.75,23.33A2.74,2.74,0,0,1,53.61,33H50.87V11h2.74a2.76,2.76,0,0,1,2.74,2.75Z" transform="translate(0)" style="fill:#323742"/><polygon points="70.08 6.93 67.33 16.37 64.59 6.93 60.47 6.93 65.47 22.03 65.47 37.13 69.2 37.13 69.2 22.03 74.2 6.93 70.08 6.93" style="fill:#323742"/><path d="M12.7,25.82a22.11,22.11,0,0,0-4.63-5.9,20.1,20.1,0,0,1-2.58-2.87A6.81,6.81,0,0,1,4.1,13.8a2.74,2.74,0,0,1,5.48-.08h0l2.53-4.29A6.87,6.87,0,0,0,0,13.79H0c.23,2.92,2.19,6,5.63,9.27a18.22,18.22,0,0,1,2.7,3.24,8,8,0,0,1,1.26,3.64,2.74,2.74,0,0,1-5.44.69h0a2.58,2.58,0,0,1,0-.68l-2.7,4.52a6.86,6.86,0,0,0,12.28-4.21v-.32A10.88,10.88,0,0,0,12.7,25.82Z" transform="translate(0)" style="fill:#323742"/><path d="M79,29.92a8,8,0,0,1,1.27-3.65A18,18,0,0,1,83,23c3.44-3.26,5.4-6.35,5.63-9.27h0a6.87,6.87,0,0,0-13.73,0H79a2.74,2.74,0,1,1,5.48,0A6.92,6.92,0,0,1,83.07,17a21.23,21.23,0,0,1-2.58,2.86,22.89,22.89,0,0,0-4.64,5.9,10.94,10.94,0,0,0-1,4.13V33h0v4.13H88.59V33H79Z" transform="translate(0)" style="fill:#323742"/><path d="M100.65,23.4h-1V6.86H95.56L87,23.4v4.1h8.64v9.55h4.12V27.5h.94ZM91,23.4l4.55-8.28V23.4Z" transform="translate(0)" style="fill:#323742"/><polygon points="115.83 6.85 111.45 6.85 108.97 10.86 106.49 6.85 102.11 6.85 106.78 14.4 102.11 21.95 106.49 21.95 108.97 17.94 111.45 21.95 115.83 21.95 111.17 14.4 115.83 6.85" style="fill:#323742"/><polygon points="118.26 6.85 118.26 10.97 127.87 10.97 118.26 37.05 122.38 37.05 131.98 10.97 131.98 6.85 118.26 6.85" style="fill:#323742"/><polygon points="34.68 4.25 37.28 0 39.87 4.26 34.68 4.25" style="fill:#323843"/><path d="M43.64,9.08l-1.9-2.45L39.83,9.09V30.75a2.55,2.55,0,1,1-5.1,0V9.09h0L32.8,6.62,30.91,9.09V30.75a6.38,6.38,0,0,0,12.75,0V9.09Z" transform="translate(0)" style="fill:#f05151"/><rect x="134.12" y="20.97" width="42.3" height="17.03" rx="2" ry="2" style="fill:#2c2e2f;opacity:0.2"/><g style="isolation:isolate"><text transform="translate(139.93 33.74)" style="isolation:isolate;font-size:12.489568710327148px;fill:#fff;font-family:Lato-Bold, Lato;font-weight:700">BE</text><text transform="translate(155.22 33.74)" style="isolation:isolate;font-size:12.489568710327148px;fill:#fff;font-family:Lato-Bold, Lato;font-weight:700;letter-spacing:-0.07299059838601274em">T</text><text transform="translate(161.73 33.74)" style="isolation:isolate;font-size:12.489568710327148px;fill:#fff;font-family:Lato-Bold, Lato;font-weight:700">A</text></g></svg>