<svg id="Layer_1" data-name="Layer 1" xmlns="http://www.w3.org/2000/svg" viewBox="0 0 313.2 88.1"><title>logo</title><polygon points="66.86 16.44 55.46 16.44 45.69 16.44 34.29 16.44 34.29 26.21 45.69 26.21 45.69 88.1 55.46 88.1 55.46 26.21 66.86 26.21 66.86 16.44" style="fill:#323742"/><path d="M127.37,23.17H111.09V94.82h16.28a16.29,16.29,0,0,0,16.29-16.29V39.46A16.29,16.29,0,0,0,127.37,23.17Zm6.52,55.37a6.51,6.51,0,0,1-6.51,6.51h-6.51V32.94h6.51a6.51,6.51,0,0,1,6.51,6.51Z" transform="translate(-0.17 -6.73)" style="fill:#323742"/><polygon points="166.3 16.44 159.78 38.84 153.27 16.44 143.5 16.44 155.35 52.27 155.35 88.1 164.22 88.1 164.22 52.27 176.07 16.44 166.3 16.44" style="fill:#323742"/><path d="M30.31,68q-2.88-6.09-11-14a50.4,50.4,0,0,1-6.12-6.8,16.25,16.25,0,0,1-3.3-7.72,6.51,6.51,0,0,1,13-.19l6-10.19A16.29,16.29,0,0,0,.17,39.45h0c.54,6.93,5.2,14.27,13.35,22a41.59,41.59,0,0,1,6.4,7.68c1.51,2.65,2.91,5.54,3,8.65A6.51,6.51,0,1,1,10,77.8L3.61,88.53a16.27,16.27,0,0,0,29.13-10c0-.25,0-.49,0-.74A25.65,25.65,0,0,0,30.31,68Z" transform="translate(-0.17 -6.73)" style="fill:#323742"/><path d="M187.64,77.73c.09-3.11,1.49-6,3-8.65a41.57,41.57,0,0,1,6.4-7.67c8.15-7.74,12.81-15.07,13.35-22h0a16.29,16.29,0,0,0-32.57,0h9.77a6.51,6.51,0,0,1,13,0,16.23,16.23,0,0,1-3.3,7.71,50.38,50.38,0,0,1-6.12,6.79q-8.07,7.94-11,14a25.62,25.62,0,0,0-2.39,9.79V85h0V94.8H210.4V85H187.64Z" transform="translate(-0.17 -6.73)" style="fill:#323742"/><path d="M239,62.25h-2.3V23H227l-20.5,39.26V72H227V94.65h9.77V72H239Zm-22.8,0L227,42.62V62.25Z" transform="translate(-0.17 -6.73)" style="fill:#323742"/><polygon points="274.88 16.26 264.48 16.26 258.6 25.78 252.71 16.26 242.31 16.26 253.4 34.18 242.31 52.09 252.71 52.09 258.6 42.58 264.48 52.09 274.88 52.09 263.8 34.18 274.88 16.26" style="fill:#323742"/><polygon points="280.63 16.26 280.63 26.04 303.43 26.04 280.63 87.92 290.4 87.92 313.2 26.04 313.2 16.26 280.63 16.26" style="fill:#323742"/><polygon points="82.3 10.09 88.47 0 94.6 10.12 82.3 10.09" style="fill:#323843"/><path d="M103.72,28.27l-4.5-5.81L94.68,28.3V79.7a6,6,0,0,1-12.1,0V28.3h0l0,0L78,22.45,73.52,28.3V79.7a15.12,15.12,0,0,0,30.24,0V28.3Z" transform="translate(-0.17 -6.73)" style="fill:#f05151"/></svg>