<svg id="Layer_1" data-name="Layer 1" xmlns="http://www.w3.org/2000/svg" viewBox="0 0 166.71 36.13"><title>new beta</title><polygon points="28.18 5.93 23.37 5.93 19.25 5.93 14.45 5.93 14.45 10.04 19.25 10.04 19.25 36.13 23.37 36.13 23.37 10.04 28.18 10.04 28.18 5.93" style="fill:#323742"/><path d="M58.14,6.93H51.28V37.12h6.86A6.86,6.86,0,0,0,65,30.27h0V13.79a6.86,6.86,0,0,0-6.86-6.86Zm2.75,23.33A2.74,2.74,0,0,1,58.15,33H55.41V11h2.74a2.76,2.76,0,0,1,2.74,2.75Z" transform="translate(-4.54 -1)" style="fill:#323742"/><polygon points="70.08 5.93 67.33 15.37 64.59 5.93 60.47 5.93 65.47 21.03 65.47 36.13 69.2 36.13 69.2 21.03 74.2 5.93 70.08 5.93" style="fill:#323742"/><path d="M17.24,25.82a22.11,22.11,0,0,0-4.63-5.9A20.1,20.1,0,0,1,10,17.05,6.81,6.81,0,0,1,8.64,13.8a2.74,2.74,0,0,1,5.48-.08h0l2.53-4.29A6.87,6.87,0,0,0,4.54,13.79h0c.23,2.92,2.19,6,5.63,9.27a18.22,18.22,0,0,1,2.7,3.24,8,8,0,0,1,1.26,3.64,2.74,2.74,0,0,1-5.44.69h0a2.58,2.58,0,0,1,0-.68L6,34.47a6.86,6.86,0,0,0,12.28-4.21v-.32A10.88,10.88,0,0,0,17.24,25.82Z" transform="translate(-4.54 -1)" style="fill:#323742"/><path d="M83.54,29.92a8,8,0,0,1,1.27-3.65A17.54,17.54,0,0,1,87.5,23c3.44-3.26,5.4-6.35,5.63-9.27h0a6.87,6.87,0,0,0-13.73,0h4.12a2.74,2.74,0,1,1,5.48,0A6.92,6.92,0,0,1,87.61,17,21.23,21.23,0,0,1,85,19.86a22.89,22.89,0,0,0-4.64,5.9,10.94,10.94,0,0,0-1,4.13V33h0v4.13H93.13V33H83.54Z" transform="translate(-4.54 -1)" style="fill:#323742"/><path d="M105.19,23.4h-1V6.86H100.1L91.49,23.4v4.1h8.64v9.55h4.12V27.5h.94Zm-9.61,0,4.55-8.28V23.4Z" transform="translate(-4.54 -1)" style="fill:#323742"/><polygon points="115.83 5.85 111.45 5.85 108.97 9.86 106.49 5.85 102.11 5.85 106.78 13.4 102.11 20.95 106.49 20.95 108.97 16.94 111.45 20.95 115.83 20.95 111.17 13.4 115.83 5.85" style="fill:#323742"/><polygon points="34.68 4.25 37.28 0 39.87 4.26 34.68 4.25" style="fill:#323843"/><path d="M48.18,9.32l-1.9-2.45L44.37,9.33V31a2.55,2.55,0,0,1-5.1,0V9.33h0L37.34,6.86,35.45,9.33V31A6.38,6.38,0,0,0,48.2,31V9.33Z" transform="translate(-4.54 -1)" style="fill:#f05151"/><path d="M134,20h37.23V33.78A3.25,3.25,0,0,1,168,37.05H126.91l2.93-12.76A4.22,4.22,0,0,1,134,20Z" transform="translate(-4.54 -1)" style="fill:#f05151"/><g style="isolation:isolate"><text transform="translate(131.18 31.79)" style="isolation:isolate;font-size:12.489568710327148px;fill:#fff;font-family:Lato-Bold, Lato;font-weight:700">BE</text><text transform="translate(146.47 31.79)" style="isolation:isolate;font-size:12.489568710327148px;fill:#fff;font-family:Lato-Bold, Lato;font-weight:700;letter-spacing:-0.07299059838601274em">T</text><text transform="translate(152.98 31.79)" style="isolation:isolate;font-size:12.489568710327148px;fill:#fff;font-family:Lato-Bold, Lato;font-weight:700">A</text></g><polygon points="118.26 5.85 118.26 9.97 127.87 9.97 118.26 36.05 122.38 36.05 131.98 9.97 131.98 5.85 118.26 5.85" style="fill:#323742"/></svg>