<svg xmlns="http://www.w3.org/2000/svg" width="66.95" height="50.646" viewBox="0 0 66.95 50.646">
  <g id="noun_menu_2476286" transform="translate(-16.525 -24.677)">
    <path id="Path_1506" data-name="Path 1506" d="M19.935,68.464q30.25.013,60.5.014c3.381.106,4.238,5.373,1.047,6.549-2.373.54-4.872.152-7.3.27q-27.309-.013-54.617-.014c-3.38-.1-4.235-5.363-1.051-6.545a3.462,3.462,0,0,1,1.422-.273Zm0-21.891q30.249.013,60.5.012c3.386.1,4.241,5.374,1.049,6.549-2.373.54-4.872.152-7.3.27q-27.309-.013-54.617-.014c-3.383-.1-4.237-5.376-1.045-6.549a3.487,3.487,0,0,1,1.416-.268Zm0-21.895q30.25.013,60.5.014c3.38.106,4.238,5.37,1.049,6.549-2.373.544-4.873.153-7.3.271-18.206-.009-36.413.017-54.619-.014-3.379-.105-4.233-5.365-1.049-6.547a3.462,3.462,0,0,1,1.422-.273Z" fill="#2c2e2f"/>
  </g>
</svg>
