<svg id="Layer_1" data-name="Layer 1" xmlns="http://www.w3.org/2000/svg" viewBox="0 0 33.42 46"><title>PDFICON</title><circle cx="2.67" cy="13.36" r="2.24" style="fill:#a81826"/><path d="M11,18a2.68,2.68,0,1,1,2.67-2.68A2.68,2.68,0,0,1,11,18Zm0-4.49a1.82,1.82,0,1,0,1.81,1.81A1.82,1.82,0,0,0,11,13.55Z" transform="translate(-8.29 -2)" style="fill:#d81d2a"/><path d="M31.16,48H11.36a.65.65,0,0,1-.65-.65v-40a.65.65,0,0,1,.65-.65h29.7a.64.64,0,0,1,.46.19.66.66,0,0,1,.19.46L41.6,37.47a.64.64,0,0,1-.19.45l-9.79,9.89A.66.66,0,0,1,31.16,48Z" transform="translate(-8.29 -2)" style="fill:#fff"/><path d="M31.16,48H11.36a.65.65,0,0,1-.65-.65v-40a.65.65,0,0,1,.65-.65h29.7a.64.64,0,0,1,.46.19.66.66,0,0,1,.19.46L41.6,37.47a.64.64,0,0,1-.19.45l-9.79,9.89A.66.66,0,0,1,31.16,48ZM12,46.7H30.89l9.41-9.5L40.41,8H12Z" transform="translate(-8.29 -2)" style="fill:#2c2e2f"/><path d="M31.16,48a.74.74,0,0,1-.25,0,.66.66,0,0,1-.4-.6V42.42c0-3.88,1.72-5.6,5.56-5.6H41a.64.64,0,0,1,.6.4.65.65,0,0,1-.14.7l-9.79,9.89A.66.66,0,0,1,31.16,48Zm4.91-9.89c-3.11,0-4.26,1.17-4.26,4.31v3.35l7.58-7.66Z" transform="translate(-8.29 -2)" style="fill:#2c2e2f"/><path d="M11.16,2.43A2.41,2.41,0,0,0,8.75,4.84v10.1h0A2.42,2.42,0,0,1,11.16,13h24.3V2.43Z" transform="translate(-8.29 -2)" style="fill:#d81d2a"/><path d="M8.79,15.37h0a.43.43,0,0,1-.43-.43V4.84A2.84,2.84,0,0,1,11.16,2h24.3a.43.43,0,0,1,.43.43V13a.43.43,0,0,1-.43.43H11.16A2,2,0,0,0,9.22,15,.43.43,0,0,1,8.79,15.37ZM11.16,2.86a2,2,0,0,0-2,2v8.53a2.86,2.86,0,0,1,2-.81H35V2.86Z" transform="translate(-8.29 -2)" style="fill:#d81d2a"/><path d="M15.52,10.77H14.28V9.67h1.24ZM18,8.48v2.29H16.79V4.48h2.48A2.47,2.47,0,0,1,21,5.05a1.86,1.86,0,0,1,.61,1.45A1.9,1.9,0,0,1,21,8a2.55,2.55,0,0,1-1.69.53Zm0-1h1.24a1,1,0,0,0,1.05-1,1,1,0,0,0-.27-.75,1,1,0,0,0-.78-.29H18Zm4.45,3.26V4.48h2.14a2.56,2.56,0,0,1,1.88.75,2.53,2.53,0,0,1,.74,1.89v1a2.53,2.53,0,0,1-2.62,2.62Zm1.26-5.31V9.8h.82a1.31,1.31,0,0,0,1.05-.46A1.82,1.82,0,0,0,26,8.15V7.1a1.77,1.77,0,0,0-.37-1.18,1.28,1.28,0,0,0-1.05-.46Zm8.33,2.7H29.46v2.61H28.21V4.48H32.5v1h-3V7.19h2.61Z" transform="translate(-8.29 -2)" style="fill:#fefefe"/><path d="M31.2,26.93a11,11,0,0,0-1.93.22,18.71,18.71,0,0,1-2.92-4.4c.76-3.27.38-3.73.21-3.94s-.43-.61-.72-.61a2.8,2.8,0,0,0-.58.09,1.16,1.16,0,0,0-.66.71c-.41,1,.16,2.59.72,3.86a38.88,38.88,0,0,1-2.18,6.24c-2.17,1-3.33,2-3.43,2.94a1.39,1.39,0,0,0,.64,1.29.87.87,0,0,0,.55.2c.51,0,1-.39,1.61-1.23a17.23,17.23,0,0,0,1.37-2.46A26.55,26.55,0,0,1,29,28.2a3.8,3.8,0,0,0,2.42,1.33,1.51,1.51,0,0,0,1.27-.7,1.18,1.18,0,0,0,.23-1.24c-.23-.44-.77-.66-1.67-.66ZM20.91,32.55c-.26-.21-.25-.35-.24-.41,0-.32.53-.89,1.76-1.58-.93,1.73-1.43,2-1.52,2Zm4.72-13.3s.6.64.06,1.86a1.38,1.38,0,0,1-.06-1.86Zm-1.18,9.29A43.72,43.72,0,0,0,26,24.16a19.86,19.86,0,0,0,2.19,3.21,30.17,30.17,0,0,0-3.72,1.17Zm7.41-.27a.86.86,0,0,1-.7.25c-.31,0-.42-.18-.88-.55a10,10,0,0,1,1,0A1.16,1.16,0,0,1,32,28a1,1,0,0,1-.12.24Z" transform="translate(-8.29 -2)" style="fill:#2c2e2f"/></svg>