<svg id="Layer_4" data-name="Layer 4" xmlns="http://www.w3.org/2000/svg" viewBox="0 0 100 100"><defs><style>.cls-1{fill:#e8e8df;}.cls-2{fill:#cb4b4c;}.cls-3{fill:#d8d6c9;}.cls-4{fill:#fefefe;}.cls-5{fill:#e8e7de;}.cls-6{fill:#e8e6dd;}</style></defs><title>pdf</title><path class="cls-1" d="M13.09.2H66.21c.27.13.6.2.64.58A8.55,8.55,0,0,1,67,2.53c0,5.79,0,11.58,0,17.38,0,1.35,0,1.38,1.36,1.38q8.54,0,17.08,0a19.33,19.33,0,0,1,2.15.09,1.29,1.29,0,0,1,.68,1.11,14,14,0,0,1,.22,2.42q0,21.65,0,43.28A2.73,2.73,0,0,1,88.15,70a2.64,2.64,0,0,1-1.78.33H13.1a3.27,3.27,0,0,1-2-.3,2.3,2.3,0,0,1-.36-1.67c0-3.51,0-7,0-10.54q0-26.07,0-52.14A18.81,18.81,0,0,1,11,2.75C11.15,1.46,11.66.45,13.09.2Z"/><path class="cls-2" d="M11.17,70a2.54,2.54,0,0,1,1.16-.12H86.89a2.54,2.54,0,0,1,1.16.12,1.35,1.35,0,0,1,.41,1.24q0,12.82,0,25.64c0,.13,0,.26,0,.39-.16,1.83-.75,2.52-2.5,3H13.09a2.81,2.81,0,0,1-2.31-3c0-.29,0-.58,0-.88q0-12.37,0-24.76C10.76,71,10.63,70.42,11.17,70Z"/><path class="cls-2" d="M52.78,17.38a43.44,43.44,0,0,1-1.29,8.56,1.55,1.55,0,0,0,.13,1.12A60.21,60.21,0,0,0,60,39.51a1.18,1.18,0,0,0,1.26.44,27.2,27.2,0,0,1,6.31-.48A8.27,8.27,0,0,1,69.9,40a2.86,2.86,0,0,1,1.81,3.78,5.06,5.06,0,0,1-6.43,3.38,11.89,11.89,0,0,1-4.78-2.93,2.22,2.22,0,0,0-2.33-.61A95.36,95.36,0,0,0,44.46,48a2.08,2.08,0,0,0-1.17,1.07,43.05,43.05,0,0,1-4.48,7.64A14.28,14.28,0,0,1,37,58.64a3.33,3.33,0,0,1-4,.59A4.37,4.37,0,0,1,30.78,55a7.71,7.71,0,0,1,3.11-4.46A26.69,26.69,0,0,1,40,46.77a3.7,3.7,0,0,0,2-2.07,128.28,128.28,0,0,0,5.93-17,2.22,2.22,0,0,0-.1-1.6,26.11,26.11,0,0,1-2.27-7.33,7.69,7.69,0,0,1,.23-3.37,3.64,3.64,0,0,1,3.73-2.85,2.12,2.12,0,0,1,1.53.74A4.77,4.77,0,0,1,52.78,17.38Z"/><path class="cls-3" d="M66.6.59c.2.16.41.31.6.49L87.07,21c.16.16.3.34.45.51-.29.3-.67.2-1,.2-6.27,0-12.55,0-18.83,0-.87,0-1.09-.26-1.09-1.11C66.62,13.92,66.6,7.26,66.6.59Z"/><path class="cls-4" d="M42.6,85.78c0-2.67,0-5.34,0-8,0-.69.13-1,.9-1,2.37.08,4.76-.16,7.1.33a8.22,8.22,0,0,1,6.53,8.62,14.14,14.14,0,0,1-.54,3.65c-1.18,3.53-3.56,5.31-7.36,5.43-2,.06-3.9,0-5.85,0-.61,0-.78-.2-.77-.79C42.61,91.31,42.6,88.54,42.6,85.78Z"/><path class="cls-4" d="M27.73,85.86c0-2.7,0-5.4,0-8.1,0-.69.12-1,.9-1,1.75.09,3.51-.07,5.26.12A6,6,0,0,1,39,81.21a5.78,5.78,0,0,1-2.44,6.13,8.26,8.26,0,0,1-4.7,1c-1.42,0-1.23-.17-1.24,1.25s0,3.06,0,4.58c0,.49-.12.68-.65.71-2.29.12-2.29.13-2.29-2.17Z"/><path class="cls-4" d="M61.37,85.75c0-2.7,0-5.4,0-8.1,0-.64.19-.84.82-.84,3.22,0,6.45,0,9.67,0,.64,0,.9.19.81.83a2.22,2.22,0,0,0,0,.68c.09.6-.15.78-.76.77-2.21,0-4.42,0-6.63,0-.67,0-.92.15-.89.85,0,1.34,0,2.67,0,4,0,.64.18.84.83.83,1.82,0,3.64,0,5.46,0,.68,0,1.27-.16,1.27,1s-.6,1-1.32,1c-1.82,0-3.64,0-5.46,0-.6,0-.79.17-.78.77,0,2.18,0,4.36,0,6.54,0,.63-.17.84-.83.85-2.2,0-2.2,0-2.2-2.18Z"/><path class="cls-1" d="M45.44,44.38a141.25,141.25,0,0,0,4.78-13.49A67,67,0,0,0,57,40.75,95.76,95.76,0,0,0,45.44,44.38Z"/><path class="cls-5" d="M38.79,51a16.69,16.69,0,0,1-3.52,5.09c-.27.24-.53.75-1,.31a1.16,1.16,0,0,1-.37-1.4,3.93,3.93,0,0,1,1-1.38A11.87,11.87,0,0,1,38.79,51Z"/><path class="cls-5" d="M49.3,21.38a3.94,3.94,0,0,1-.17-5.5C50.26,17.07,50.33,19.07,49.3,21.38Z"/><path class="cls-6" d="M63.56,42.63a17.75,17.75,0,0,1,4.57-.11c.78.13.72.48.34,1a2.57,2.57,0,0,1-3,.54A19.19,19.19,0,0,1,63.56,42.63Z"/><path class="cls-2" d="M45.53,85.84c0-2,0-4,0-6,0-.29-.19-.77.31-.78C48,79,50.22,79,52.09,80.46A5.12,5.12,0,0,1,54,84.26a10.7,10.7,0,0,1-1,6.07,4.15,4.15,0,0,1-3.44,2.24c-1.06.11-2.14.07-3.21.14-.63,0-.84-.17-.82-.83C45.56,89.87,45.53,87.85,45.53,85.84Z"/><path class="cls-2" d="M30.66,82.6c0-.94,0-1.89,0-2.83,0-.57.18-.73.72-.69a10.86,10.86,0,0,1,2.9.21c1.55.54,2.28,2,2,4a2.91,2.91,0,0,1-2.84,2.9c-2.8.22-2.8.22-2.8-2.59Z"/></svg>