<svg id="Layer_1" data-name="Layer 1" xmlns="http://www.w3.org/2000/svg" viewBox="0 0 63.03 83.96"><title>PDF_ICON</title><path d="M57.05,89H16.8a1.32,1.32,0,0,1-1.32-1.32V6.32A1.32,1.32,0,0,1,16.8,5H77.18A1.31,1.31,0,0,1,78.5,6.33l-.23,61.19a1.34,1.34,0,0,1-.38.93L58,88.57A1.32,1.32,0,0,1,57.05,89ZM18.12,86.32H56.5L75.63,67l.23-59.33H18.12Z" transform="translate(-15.48 -5)" style="fill:#2c2e2f"/><path d="M57.05,89a1.24,1.24,0,0,1-.5-.1,1.32,1.32,0,0,1-.82-1.22v-10c0-7.9,3.49-11.42,11.3-11.42H77a1.32,1.32,0,0,1,.94,2.25L58,88.57A1.29,1.29,0,0,1,57.05,89ZM67,68.84c-6.31,0-8.66,2.38-8.66,8.78v6.81L73.79,68.84Z" transform="translate(-15.48 -5)" style="fill:#2c2e2f"/><rect x="1.45" y="1.32" width="60.13" height="20.33" style="fill:#2c2e2f"/><path d="M35.73,21H34V19.41h1.77Zm3.6-3.27V21H37.55V12H41.1a3.52,3.52,0,0,1,2.42.81,2.65,2.65,0,0,1,.88,2.07A2.7,2.7,0,0,1,43.52,17a3.65,3.65,0,0,1-2.42.76Zm0-1.39H41.1a1.42,1.42,0,0,0,1.12-.4,1.44,1.44,0,0,0,.38-1.05,1.5,1.5,0,0,0-.38-1.06,1.38,1.38,0,0,0-1.12-.43H39.33ZM45.69,21V12h3.06a3.64,3.64,0,0,1,3.75,3.77v1.47A3.61,3.61,0,0,1,48.75,21Zm1.8-7.6v6.21h1.18a1.83,1.83,0,0,0,1.49-.65,2.59,2.59,0,0,0,.54-1.71V15.74a2.5,2.5,0,0,0-.54-1.69,1.79,1.79,0,0,0-1.49-.67ZM59.4,17.25H55.67V21H53.9V12H60v1.39H55.67v2.48H59.4Z" transform="translate(-15.48 -5)" style="fill:#fefefe"/><path d="M57.38,50.25a21.66,21.66,0,0,0-3.92.44,38.21,38.21,0,0,1-5.94-8.94c1.55-6.64.78-7.58.43-8s-.88-1.24-1.46-1.24a6.14,6.14,0,0,0-1.19.19A2.34,2.34,0,0,0,44,34.12c-.82,2,.32,5.28,1.47,7.85A79.33,79.33,0,0,1,41,54.66c-4.43,2-6.78,4.05-7,6a2.82,2.82,0,0,0,1.3,2.63,1.76,1.76,0,0,0,1.12.39c1,0,2-.78,3.26-2.48a34.29,34.29,0,0,0,2.78-5,55.73,55.73,0,0,1,10.32-3.34c1.83,1.79,3.49,2.71,4.92,2.71a3.07,3.07,0,0,0,2.59-1.42,2.39,2.39,0,0,0,.45-2.53c-.45-.89-1.55-1.33-3.39-1.33ZM36.47,61.67c-.54-.43-.51-.72-.49-.82.06-.66,1.08-1.82,3.58-3.23-1.9,3.53-2.91,4-3.09,4.05Zm9.58-27.05c.07,0,1.23,1.31.13,3.8a2.87,2.87,0,0,1-.13-3.8Zm-2.39,18.9a82.51,82.51,0,0,0,3.11-8.91,41.1,41.1,0,0,0,4.46,6.53,60.75,60.75,0,0,0-7.57,2.38ZM58.72,53a1.77,1.77,0,0,1-1.42.5c-.63,0-.85-.37-1.79-1.12a20.63,20.63,0,0,1,2.11-.1,2.56,2.56,0,0,1,1.36.21,1.93,1.93,0,0,1-.26.51Z" transform="translate(-15.48 -5)" style="fill:#2c2e2f"/></svg>