<svg xmlns="http://www.w3.org/2000/svg" viewBox="0 0 16 18"><defs><style>.cls-1{fill:none;}.cls-2{fill:#f05050;}</style></defs><title>personalinfo2</title><g id="Layer_126" data-name="Layer 126"><path class="cls-1" d="M10,7.42A1.71,1.71,0,1,0,8.27,5.71,1.73,1.73,0,0,0,10,7.42Z" transform="translate(-2 -1)"/><path class="cls-1" d="M10,9.27a8.25,8.25,0,0,1,6.2,3A6.85,6.85,0,0,0,17,8.94a7,7,0,0,0-14,0,6.85,6.85,0,0,0,.83,3.28A8.13,8.13,0,0,1,10,9.27ZM10,3A2.71,2.71,0,1,1,7.27,5.71,2.72,2.72,0,0,1,10,3Z" transform="translate(-2 -1)"/><path class="cls-1" d="M10,10.27A7.25,7.25,0,0,0,4.4,13.09a7,7,0,0,0,11.2,0A7.41,7.41,0,0,0,10,10.27Z" transform="translate(-2 -1)"/><path class="cls-2" d="M18,8.94A8,8,0,1,0,7.89,16.6L10,19l2.1-2.4A8,8,0,0,0,18,8.94ZM10,2a7,7,0,0,1,7,6.94,6.85,6.85,0,0,1-.83,3.28,8.25,8.25,0,0,0-6.2-3,8.13,8.13,0,0,0-6.14,3A6.85,6.85,0,0,1,3,8.94,7,7,0,0,1,10,2Zm0,13.89a7,7,0,0,1-5.6-2.8A7.25,7.25,0,0,1,10,10.27,7.41,7.41,0,0,1,15.6,13.1,7,7,0,0,1,10,15.89Z" transform="translate(-2 -1)"/><path class="cls-2" d="M10,8.42A2.71,2.71,0,1,0,7.27,5.71,2.72,2.72,0,0,0,10,8.42ZM10,4A1.71,1.71,0,1,1,8.27,5.71,1.73,1.73,0,0,1,10,4Z" transform="translate(-2 -1)"/></g></svg>