<svg xmlns="http://www.w3.org/2000/svg" width="12" height="12" viewBox="0 0 100 100">
  <defs>
    <style>
      .cls-1 {
        fill: #fff;
        fill-rule: evenodd;
      }
    </style>
  </defs>
  <path id="_3" data-name="3" class="cls-1" d="M50,86a54.814,54.814,0,0,1-8.972-.76L20,98V76.758C9.036,69.06,2,57.257,2,44,2,20.8,23.491,2,50,2S98,20.8,98,44,76.51,86,50,86ZM50,8C26.8,8,8,24.119,8,44c0,12.2,7.1,22.962,17.925,29.472L25.736,87.388,39.859,78.9A48.579,48.579,0,0,0,50,80c23.2,0,42-16.118,42-36S73.2,8,50,8ZM74,50a6,6,0,1,1,6-6A6,6,0,0,1,74,50ZM50,50a6,6,0,1,1,6-6A6,6,0,0,1,50,50ZM26,50a6,6,0,1,1,6-6A6,6,0,0,1,26,50Z"/>
</svg>
