<svg id="Layer_1" data-name="Layer 1" xmlns="http://www.w3.org/2000/svg" viewBox="0 0 33.54 46.16"><title>PPTICON</title><circle cx="2.68" cy="13.41" r="2.25" style="fill:#bf3a16"/><path d="M10.91,18a2.68,2.68,0,1,1,2.68-2.68A2.68,2.68,0,0,1,10.91,18Zm0-4.5a1.82,1.82,0,1,0,1.82,1.82A1.83,1.83,0,0,0,10.91,13.51Z" transform="translate(-8.23 -1.92)" style="fill:#e64a19"/><path d="M31.18,48.08H11.31a.65.65,0,0,1-.65-.65V7.29a.66.66,0,0,1,.65-.66H41.12a.63.63,0,0,1,.46.2.64.64,0,0,1,.19.46l-.11,30.22a.66.66,0,0,1-.19.46l-9.82,9.92A.68.68,0,0,1,31.18,48.08Z" transform="translate(-8.23 -1.92)" style="fill:#fff"/><path d="M31.18,48.08H11.31a.65.65,0,0,1-.65-.65V7.29a.66.66,0,0,1,.65-.66H41.12a.63.63,0,0,1,.46.2.64.64,0,0,1,.19.46l-.11,30.22a.66.66,0,0,1-.19.46l-9.82,9.92A.68.68,0,0,1,31.18,48.08ZM12,46.78h19l9.44-9.54.11-29.3H12Z" transform="translate(-8.23 -1.92)" style="fill:#2c2e2f"/><path d="M31.18,48.08a.52.52,0,0,1-.24,0,.65.65,0,0,1-.41-.6v-5c0-3.89,1.72-5.62,5.58-5.62H41a.66.66,0,0,1,.6.4.67.67,0,0,1-.14.71l-9.82,9.92A.66.66,0,0,1,31.18,48.08Zm4.93-9.92c-3.12,0-4.27,1.17-4.27,4.32v3.36l7.6-7.68Z" transform="translate(-8.23 -1.92)" style="fill:#2c2e2f"/><path d="M11.11,2.35A2.42,2.42,0,0,0,8.69,4.77V14.91h.05a2.41,2.41,0,0,1,2.37-2H35.5V2.35Z" transform="translate(-8.23 -1.92)" style="fill:#e64a19"/><path d="M8.74,15.34H8.69a.43.43,0,0,1-.43-.43V4.77a2.86,2.86,0,0,1,2.85-2.85H35.5a.43.43,0,0,1,.43.43V13a.43.43,0,0,1-.43.43H11.11A2,2,0,0,0,9.16,15,.44.44,0,0,1,8.74,15.34ZM11.11,2.78a2,2,0,0,0-2,2v8.56a2.84,2.84,0,0,1,2-.81h24V2.78Z" transform="translate(-8.23 -1.92)" style="fill:#e64a19"/><path d="M15.22,10.61h-1.3V9.47h1.3ZM17.7,8.4v2.21H16.49V4.51H18.9a2.34,2.34,0,0,1,1.64.55,1.81,1.81,0,0,1,.6,1.4,1.81,1.81,0,0,1-.6,1.41,2.43,2.43,0,0,1-1.64.53Zm0-.94h1.2a1,1,0,0,0,.76-.28,1,1,0,0,0,.26-.7,1.11,1.11,0,0,0-.25-.73,1,1,0,0,0-.77-.28H17.7Zm5.54.94v2.21H22V4.51h2.41a2.31,2.31,0,0,1,1.64.55,1.81,1.81,0,0,1,.6,1.4,1.81,1.81,0,0,1-.6,1.41,2.39,2.39,0,0,1-1.64.53Zm0-.94h1.19a1,1,0,0,0,.77-.28,1,1,0,0,0,.26-.7,1,1,0,0,0-.26-.73,1,1,0,0,0-.77-.28H23.24Zm8.49-2H30v5.14h-1.2V5.47h-1.7v-1h4.61Z" transform="translate(-8.23 -1.92)" style="fill:#fefefe"/><path d="M20.34,31.25H32V20.73H20.34Zm.84-9.7h10v8.86h-10Z" transform="translate(-8.23 -1.92)" style="fill:#2c2e2f"/><polygon points="7.05 27.39 11.2 27.39 11.2 26.71 7.77 26.71 7.77 21.43 11.2 21.43 11.2 20.75 7.05 20.75 7.05 27.39" style="fill:#2c2e2f"/><polygon points="24.78 20.75 24.78 21.43 28.25 21.43 28.25 26.71 24.78 26.71 24.78 27.39 28.92 27.39 28.92 20.75 24.78 20.75" style="fill:#2c2e2f"/></svg>