<svg id="Layer_1" data-name="Layer 1" xmlns="http://www.w3.org/2000/svg" viewBox="0 0 66.13 91.05"><title>PPT_ICO</title><circle cx="5.29" cy="26.5" r="4.44" style="fill:#7a8082"/><path d="M5.28,31.72a5.29,5.29,0,1,1,5.29-5.31,5.29,5.29,0,0,1-5.29,5.31Zm0-8.88a3.59,3.59,0,1,0,3.59,3.59v0A3.61,3.61,0,0,0,5.28,22.84Z" transform="translate(0.01 0.06)" style="fill:#231f20"/><path d="M45.25,91H6.07a1.28,1.28,0,0,1-1.28-1.28h0V10.58A1.28,1.28,0,0,1,6.06,9.29H64.83a1.31,1.31,0,0,1,1.29,1.29l-.23,59.57a1.26,1.26,0,0,1-.37.9L46.16,90.61A1.3,1.3,0,0,1,45.25,91Z" transform="translate(0.01 0.06)" style="fill:#fff"/><path d="M45.25,91H6.07a1.28,1.28,0,0,1-1.28-1.28h0V10.58A1.28,1.28,0,0,1,6.06,9.29H64.83a1.31,1.31,0,0,1,1.29,1.29l-.23,59.57a1.26,1.26,0,0,1-.37.9L46.16,90.61A1.3,1.3,0,0,1,45.25,91ZM7.36,88.41H44.71l18.61-18.8.22-57.76H7.36Z" transform="translate(0.01 0.06)" style="fill:#2c2e2f"/><path d="M45.25,91a1.16,1.16,0,0,1-.49-.1A1.3,1.3,0,0,1,44,89.7V80c0-7.67,3.39-11.09,11-11.09H64.6a1.29,1.29,0,0,1,1.29,1.29,1.35,1.35,0,0,1-.37.9L46.16,90.61A1.3,1.3,0,0,1,45.25,91ZM55,71.41c-6.14,0-8.42,2.31-8.42,8.52v6.63L61.52,71.41Z" transform="translate(0.01 0.06)" style="fill:#2c2e2f"/><path d="M5.69.84A4.78,4.78,0,0,0,.92,5.61h0v20H1a4.79,4.79,0,0,1,4.69-3.86H53.75V.84Z" transform="translate(0.01 0.06)" style="fill:#2c2e2f"/><path d="M1,26.41H.92a.85.85,0,0,1-.85-.85h0v-20A5.62,5.62,0,0,1,5.69-.06H53.75a.85.85,0,0,1,.85.84v20.9a.85.85,0,0,1-.85.84H5.69A3.91,3.91,0,0,0,1.84,25.7.86.86,0,0,1,1,26.41ZM5.69,1.69A3.93,3.93,0,0,0,1.76,5.62h0V22.49a5.6,5.6,0,0,1,3.93-1.6H52.9V1.69Z" transform="translate(0.01 0.06)" style="fill:#2c2e2f"/><path d="M10.63,18.41H7.56V15.67h3.07Zm5.92-5.28v5.28H13.68V3.86h5.74a5.61,5.61,0,0,1,3.91,1.29A4.34,4.34,0,0,1,24.75,8.5a4.34,4.34,0,0,1-1.42,3.36,5.77,5.77,0,0,1-3.91,1.25Zm0-2.23h2.87a2.32,2.32,0,0,0,1.8-.66,2.46,2.46,0,0,0,.62-1.68,2.63,2.63,0,0,0-.59-1.75,2.38,2.38,0,0,0-1.83-.66H16.55Zm13.21,2.21v5.3h-2.9V3.86H32.6a5.52,5.52,0,0,1,3.91,1.29A4.34,4.34,0,0,1,37.93,8.5a4.34,4.34,0,0,1-1.42,3.36,5.71,5.71,0,0,1-3.91,1.25Zm0-2.23H32.6a2.38,2.38,0,0,0,1.83-.66,2.38,2.38,0,0,0,.63-1.68,2.5,2.5,0,0,0-.63-1.75,2.38,2.38,0,0,0-1.83-.66H29.76ZM50,6.13H45.92V18.41H43.05V6.13H39V3.86H50Z" transform="translate(0.01 0.06)" style="fill:#fefefe"/><path d="M23.87,57.82H46.94V37.07H23.87ZM25.92,39h19V55.85h-19Z" transform="translate(0.01 0.06)" style="fill:#2c2e2f"/><polygon points="13.91 54.05 22.08 54.05 22.08 52.34 15.34 52.35 15.34 42.64 22.08 42.64 22.08 40.96 13.91 40.96 13.91 54.05" style="fill:#2c2e2f"/><polygon points="56.52 40.96 48.35 40.96 48.35 42.67 55.08 42.66 55.08 52.37 48.35 52.37 48.35 54.05 56.52 54.05 56.52 40.96" style="fill:#2c2e2f"/></svg>