<svg id="Layer_1" data-name="Layer 1" xmlns="http://www.w3.org/2000/svg" viewBox="0 0 66.12 90.99"><title>PPT_ICO</title><circle cx="5.28" cy="26.44" r="4.44" style="fill:#7a8082"/><path d="M22.28,33.31A5.29,5.29,0,1,1,27.57,28,5.29,5.29,0,0,1,22.28,33.31Zm0-8.88A3.59,3.59,0,1,0,25.87,28,3.6,3.6,0,0,0,22.28,24.43Z" transform="translate(-17 -1.59)" style="fill:#231f20"/><path d="M62.25,92.58H23.07a1.28,1.28,0,0,1-1.28-1.29V12.17a1.28,1.28,0,0,1,1.28-1.29H81.83a1.3,1.3,0,0,1,1.29,1.29l-.23,59.57a1.26,1.26,0,0,1-.37.9L63.16,92.2A1.3,1.3,0,0,1,62.25,92.58Z" transform="translate(-17 -1.59)" style="fill:#fff"/><path d="M62.25,92.58H23.07a1.28,1.28,0,0,1-1.28-1.29V12.17a1.28,1.28,0,0,1,1.28-1.29H81.83a1.3,1.3,0,0,1,1.29,1.29l-.23,59.57a1.26,1.26,0,0,1-.37.9L63.16,92.2A1.3,1.3,0,0,1,62.25,92.58ZM24.36,90H61.71l18.61-18.8.22-57.76H24.36Z" transform="translate(-17 -1.59)" style="fill:#2c2e2f"/><path d="M62.25,92.58a1.16,1.16,0,0,1-.49-.1,1.28,1.28,0,0,1-.8-1.19V81.54c0-7.67,3.39-11.09,11-11.09H81.6a1.29,1.29,0,0,1,.92,2.19L63.16,92.2A1.29,1.29,0,0,1,62.25,92.58ZM72,73c-6.14,0-8.42,2.31-8.42,8.52v6.63L78.52,73Z" transform="translate(-17 -1.59)" style="fill:#2c2e2f"/><path d="M22.69,2.43a4.77,4.77,0,0,0-4.77,4.78v20H18a4.78,4.78,0,0,1,4.69-3.86H70.75V2.43Z" transform="translate(-17 -1.59)" style="fill:#2c2e2f"/><path d="M18,28h-.08a.85.85,0,0,1-.85-.85v-20a5.62,5.62,0,0,1,5.62-5.62H70.75a.85.85,0,0,1,.85.84v20.9a.85.85,0,0,1-.85.84H22.69a3.92,3.92,0,0,0-3.85,3.18A.86.86,0,0,1,18,28ZM22.69,3.28a3.93,3.93,0,0,0-3.93,3.93V24.08a5.63,5.63,0,0,1,3.93-1.6H69.9V3.28Z" transform="translate(-17 -1.59)" style="fill:#2c2e2f"/><path d="M27.63,20H24.56V17.26h3.07Zm5.92-5.28V20H30.68V5.45h5.74a5.6,5.6,0,0,1,3.91,1.29,4.32,4.32,0,0,1,1.42,3.35,4.33,4.33,0,0,1-1.42,3.36,5.77,5.77,0,0,1-3.91,1.25Zm0-2.23h2.87a2.31,2.31,0,0,0,1.8-.66,2.44,2.44,0,0,0,.62-1.68,2.66,2.66,0,0,0-.59-1.75,2.36,2.36,0,0,0-1.83-.66H33.55ZM46.76,14.7V20h-2.9V5.45H49.6a5.55,5.55,0,0,1,3.91,1.29,4.32,4.32,0,0,1,1.42,3.35,4.33,4.33,0,0,1-1.42,3.36A5.72,5.72,0,0,1,49.6,14.7Zm0-2.23H49.6a2.36,2.36,0,0,0,1.83-.66,2.4,2.4,0,0,0,.63-1.68,2.49,2.49,0,0,0-.63-1.75,2.36,2.36,0,0,0-1.83-.66H46.76ZM67,7.72H62.92V20H60.05V7.72H56V5.45H67Z" transform="translate(-17 -1.59)" style="fill:#fefefe"/><path d="M40.87,59.41H63.94V38.66H40.87ZM42.21,40h20.4V58.07H42.21Z" transform="translate(-17 -1.59)" style="fill:#2c2e2f"/><polygon points="13.9 53.99 22.07 53.99 22.07 52.66 15.23 52.66 15.23 42.23 22.07 42.23 22.07 40.9 13.9 40.9 13.9 53.99" style="fill:#2c2e2f"/><polygon points="48.84 40.9 48.84 42.23 55.67 42.23 55.67 52.66 48.84 52.66 48.84 53.99 57.01 53.99 57.01 40.9 48.84 40.9" style="fill:#2c2e2f"/></svg>