<svg id="Layer_6" data-name="Layer 6" xmlns="http://www.w3.org/2000/svg" viewBox="0 0 100 100"><defs><style>.cls-1{fill:#e8e8df;}.cls-2{fill:#f5712e;}.cls-3{fill:#c7bcb7;}.cls-4{fill:#d8d6c9;}.cls-5{fill:#d2cbc8;}.cls-6{fill:#d6d0cb;}.cls-7{fill:#fefefe;}.cls-8{fill:#fefdfd;}</style></defs><title>pptx</title><path class="cls-1" d="M13.09.2H66.21c.27.13.6.2.64.58A8.55,8.55,0,0,1,67,2.53c0,5.79,0,11.58,0,17.38,0,1.35,0,1.38,1.36,1.38q8.54,0,17.08,0a19.33,19.33,0,0,1,2.15.09,1.29,1.29,0,0,1,.68,1.11,14,14,0,0,1,.22,2.42q0,21.65,0,43.28A2.73,2.73,0,0,1,88.15,70a2.64,2.64,0,0,1-1.78.33H13.1a3.27,3.27,0,0,1-2-.3,2.3,2.3,0,0,1-.36-1.67c0-3.51,0-7,0-10.54q0-26.07,0-52.14A18.81,18.81,0,0,1,11,2.75C11.15,1.46,11.66.45,13.09.2Z"/><path class="cls-2" d="M11.17,70a2.54,2.54,0,0,1,1.16-.12H86.89a2.68,2.68,0,0,1,1.16.12c.43.31.41.79.41,1.24q0,12.82,0,25.64c0,.13,0,.26,0,.39-.16,1.83-.75,2.52-2.5,3H13.09a2.81,2.81,0,0,1-2.31-3c0-.29,0-.58,0-.88q0-12.37,0-24.76C10.76,71,10.64,70.42,11.17,70Z"/><path class="cls-3" d="M59,53.72l3.44,5.7c.72,1.2.7,2.18-.09,2.81a1.68,1.68,0,0,1-2.71-.57c-1.47-2.37-2.92-4.76-4.31-7.18a1.37,1.37,0,0,0-1.4-.77c-3.42,0-6.84,0-10.25,0a1.64,1.64,0,0,0-1.63.93c-1.38,2.36-2.79,4.69-4.19,7a1.78,1.78,0,1,1-3.08-1.76c1-1.74,2.08-3.45,3.12-5.18.53-.9.47-1-.58-1-3,0-6,0-9,0-.78,0-1-.23-1-1q0-13.27,0-26.55c0-.77.22-1,1-1,5.83,0,11.66,0,17.48,0,.84,0,1.16-.19,1.12-1.08A9.5,9.5,0,0,1,47,21.22a1.75,1.75,0,0,1,3.33-.16,7.42,7.42,0,0,1,.19,3c0,.87.22,1.16,1.14,1.16,5.73,0,11.45,0,17.18,0,.94,0,1.28.17,1.28,1.21q-.08,13.08,0,26.17c0,.95-.29,1.19-1.21,1.18C65.68,53.69,62.44,53.72,59,53.72Z"/><path class="cls-4" d="M66.6.59c.2.16.41.31.6.49L87.07,21c.16.16.3.34.45.51-.29.3-.67.2-1,.2-6.27,0-12.55,0-18.83,0-.87,0-1.09-.26-1.09-1.11C66.62,13.92,66.6,7.26,66.6.59Z"/><path class="cls-5" d="M66.41,50.19q-17.23,0-34.47,0c-.86,0-1.1-.23-1.1-1.09,0-6.74,0-13.48,0-20.21a1.76,1.76,0,0,1,1-.1H65.4c1.1,0,1.1,0,1.1,1.1V49.23A1.84,1.84,0,0,1,66.41,50.19Z"/><path class="cls-6" d="M66.41,50.19c0-6.7,0-13.41,0-20.11,0-.94-.27-1.2-1.2-1.19q-17.19,0-34.37,0c.3-.31.68-.19,1-.19,11.2,0,22.4,0,33.59,0,.9,0,1.16.25,1.15,1.15,0,6.44,0,12.89,0,19.33C66.6,49.52,66.71,49.9,66.41,50.19Z"/><path class="cls-7" d="M35.57,85.84c0-2.73,0-5.46,0-8.19,0-.64.19-.86.83-.83,1.76.06,3.51-.07,5.26.11A5.73,5.73,0,0,1,47,82.57a5.65,5.65,0,0,1-5.6,5.71,17.36,17.36,0,0,1-2,0c-.67,0-.92.17-.9.87,0,1.59,0,3.19,0,4.78,0,.64-.13.91-.85.91-2.1,0-2.1,0-2.1-2.1Z"/><path class="cls-7" d="M20.84,85.73c0-2.69,0-5.39,0-8.09,0-.64.18-.85.82-.83,1.78.07,3.57-.07,5.36.13a6,6,0,0,1,5.13,4.29,5.84,5.84,0,0,1-2.37,6.07,7.63,7.63,0,0,1-4.78,1c-.94-.06-1.32.15-1.25,1.19.1,1.53,0,3.06,0,4.58,0,.61-.2.77-.78.79-2.16,0-2.16.07-2.16-2.12Z"/><path class="cls-8" d="M54.75,86.82c0-2.34,0-4.68,0-7,0-.71-.15-1-.91-1-1.27.06-2.54,0-3.8,0-.84,0-.69-.52-.65-1s-.33-1.1.61-1.09q6.2,0,12.39,0c1,0,.61.7.66,1.16s.09,1-.7.91c-1.2-.06-2.41,0-3.61,0-.81,0-1,.19-1,1,0,4.59,0,9.17,0,13.76,0,.94-.16,1.32-1.21,1.26-1.79-.09-1.79,0-1.79-1.82Z"/><path class="cls-2" d="M38.5,82.59c0-.94,0-1.88,0-2.82,0-.32-.06-.7.44-.68a10.66,10.66,0,0,1,3.19.21c1.61.55,2.27,2,2,4.16a2.84,2.84,0,0,1-2.8,2.7c-2.82.21-2.82.21-2.82-2.6Z"/><path class="cls-2" d="M23.77,82.52V79.69c0-.29,0-.62.41-.6a11.48,11.48,0,0,1,3.1.18c1.57.5,2.35,1.9,2.13,3.82S28.27,86,26.52,86.16c-2.75.2-2.75.2-2.75-2.56Z"/><path class="cls-7" d="M71.64,84.42c1.06-2.26,2-4.23,2.91-6.19.24-.48.29-1.24.85-1.34a8.85,8.85,0,0,1,2.72,0c.54.07.13.53,0,.77-1.06,2.05-2,4.16-3.24,6.11-1,1.6-1.18,2.91-.09,4.57,1.19,1.81,2,3.85,3.07,5.77.36.66.22.8-.5.81-2.49,0-2.49,0-3.46-2.3-.62-1.49-1.25-3-1.86-4.45-.45,0-.46.32-.56.54-.82,1.8-1.67,3.6-2.45,5.42a1.17,1.17,0,0,1-1.26.79c-2.51,0-2.51,0-1.35-2.23,1-1.93,2-3.87,3-5.78a1.43,1.43,0,0,0,0-1.53c-1.36-2.52-2.66-5.07-4-7.59-.36-.67-.46-1,.53-1,2.32,0,2.32,0,3.26,2.18C70,80.7,70.77,82.41,71.64,84.42Z"/></svg>