<svg xmlns="http://www.w3.org/2000/svg" width="100" height="100" viewBox="0 0 100 100">
  <defs>
    <style>
      .cls-1, .cls-2 {
        fill: #fff;
      }

      .cls-1 {
        fill-rule: evenodd;
      }
    </style>
  </defs>
  <path id="_6" data-name="6" class="cls-1" d="M50,98H20A18,18,0,0,1,2,80V68A17.943,17.943,0,0,1,14.148,51.057,31.962,31.962,0,0,1,8,32C8,15.432,20.088,2,35,2S62,15.432,62,32a31.962,31.962,0,0,1-6.148,19.057A17.943,17.943,0,0,1,68,68V80A18,18,0,0,1,50,98Zm6-66C56,18.745,46.6,8,35,8S14,18.745,14,32s9.4,24,21,24S56,45.255,56,32Zm6,37.5c0-6.378-4.84-11.691-11.327-13.1a24.722,24.722,0,0,1-31.346,0C12.84,57.809,8,63.123,8,69.5v9C8,85.956,14.594,92,22.727,92H47.273C55.407,92,62,85.956,62,78.5v-9Z"/>
  <rect class="cls-2" x="80" y="2" width="6" height="30" rx="3" ry="3"/>
  <rect id="Rectangle_1_copy" data-name="Rectangle 1 copy" class="cls-2" x="68" y="14" width="30" height="6" rx="3" ry="3"/>
</svg>
