<svg xmlns="http://www.w3.org/2000/svg" xmlns:xlink="http://www.w3.org/1999/xlink" viewBox="0 0 14.76 17.98"><defs><style>.cls-1{fill:none;}.cls-2{clip-path:url(#clip-path);}</style><clipPath id="clip-path" transform="translate(-2.61 -1.01)"><rect class="cls-1" x="6.13" y="6.93" width="7.75" height="6.14"/></clipPath></defs><title>security</title><g id="Layer_125" data-name="Layer 125"><path d="M10,19l-.13,0c-4.81-1.34-7.24-4.67-7.24-9.91V4.17c-.07-.3-.07-.3,4.73-2.14l2.46-.95L10,1l.77.3c6.4,2.45,6.66,2.55,6.6,2.9s0,3.29,0,4.85c0,5.23-2.43,8.56-7.23,9.9ZM3.56,4.5V9.05c0,4.78,2.11,7.71,6.43,9,4.32-1.25,6.41-4.18,6.41-9,0-1.35,0-3.7,0-4.56l-6-2.3L10,2l-2.3.89Z" transform="translate(-2.61 -1.01)"/><g class="cls-2"><path d="M13.63,7.34l-.22-.22a.62.62,0,0,0-.89,0L8.75,10.88,7.42,9.55a.62.62,0,0,0-.89,0l-.22.22a.62.62,0,0,0,0,.89l2,2a.64.64,0,0,0,.89,0l4.43-4.44a.63.63,0,0,0,0-.88Zm0,0" transform="translate(-2.61 -1.01)"/></g></g></svg>