<svg xmlns="http://www.w3.org/2000/svg" width="15" height="15" viewBox="0 0 100 100">
  <defs>
    <style>
      .cls-1 {
        fill: #F05050;
        fill-rule: evenodd;
      }
    </style>
  </defs>
  <path id="_2" data-name="2" class="cls-1" d="M55.17,80.467a3.389,3.389,0,0,0,.936,2.834c0.009,0.009.02,0.011,0.029,0.019a3.314,3.314,0,0,0,5.044-.225l33.85-37.346a3.408,3.408,0,0,0,.978-2.615,3.408,3.408,0,0,0-.978-2.615L60.993,2.97a3.458,3.458,0,0,0-4.887,0A3.39,3.39,0,0,0,55.17,5.8V26.027a51.518,51.518,0,0,0-46.925,72c4.037-21.445,24.379-37.736,46.866-37.736C55.111,61.457,55.17,80.467,55.17,80.467Zm6.823-26.981V71.924L88.086,43.136,61.993,14.348V32.892S53.477,32.8,51.7,32.857c-24.063.751-40.774,28.322-40.881,41.223,7.351-9.5,26.67-20.652,40.881-20.652C53.934,53.428,61.993,53.487,61.993,53.487Z"/>
</svg>
