<?xml version="1.0" encoding="iso-8859-1"?>
<!-- Generator: Adobe Illustrator 19.0.0, SVG Export Plug-In . SVG Version: 6.00 Build 0)  -->
<svg version="1.1" id="Capa_1" xmlns="http://www.w3.org/2000/svg" xmlns:xlink="http://www.w3.org/1999/xlink" x="0px" y="0px"
	 viewBox="0 0 512 512" style="enable-background:new 0 0 512 512;" xml:space="preserve">
<path style="fill:#E89F53;" d="M256,502.154L256,502.154L256,502.154C124.983,448.556,39.385,321.055,39.385,179.498V9.846h433.231
	v169.652C472.615,321.055,387.017,448.556,256,502.154z"/>
<path style="fill:#E25465;" d="M256,459.143c-50.538-23.819-93.435-60.655-124.74-107.285
	c-34.339-51.151-52.491-110.752-52.491-172.36V49.231h354.462v130.268c0,61.608-18.151,121.21-52.491,172.36
	C349.435,398.488,306.538,435.323,256,459.143z"/>
<polygon style="fill:#66BB6A;" points="318.429,180.966 242.076,257.319 193.571,208.816 158.528,243.86 242.076,327.407 
	277.119,292.363 353.472,216.01 "/>
<path d="M472.615,0H39.385c-5.438,0-9.846,4.408-9.846,9.846v169.652c0,71.417,21.041,140.507,60.847,199.8
	c39.807,59.294,95.786,104.928,161.887,131.968c1.194,0.489,2.462,0.734,3.728,0.734c1.266,0,2.533-0.244,3.728-0.734
	c66.1-27.041,122.079-72.674,161.887-131.968c39.806-59.294,60.847-128.384,60.847-199.8V9.846C482.462,4.408,478.053,0,472.615,0z
	 M462.769,179.498c0,136.809-81.025,258.829-206.769,311.992C130.256,438.326,49.231,316.308,49.231,179.498V19.692h413.538V179.498
	z" fill="#fff"/>
<path d="M251.803,468.05c1.329,0.626,2.764,0.939,4.197,0.939s2.869-0.313,4.197-0.939c52.059-24.536,96.568-62.816,128.718-110.704
	c35.433-52.778,54.162-114.276,54.162-177.847V49.231c0-5.438-4.408-9.846-9.846-9.846H78.769c-5.438,0-9.846,4.408-9.846,9.846
	v130.268c0,63.571,18.728,125.069,54.162,177.847C155.234,405.232,199.744,443.513,251.803,468.05z M88.615,108.308h49.231
	c5.438,0,9.846-4.408,9.846-9.846s-4.408-9.846-9.846-9.846H88.615V59.077h334.769v120.421c0,59.647-17.573,117.35-50.82,166.872
	C343.267,390.01,303.036,425.144,256,448.218c-47.036-23.073-87.267-58.208-116.565-101.848
	c-33.247-49.521-50.82-107.225-50.82-166.872V108.308z" fill="#fff"/>
<path d="M235.113,334.369c1.923,1.923,4.443,2.884,6.962,2.884s5.04-0.961,6.962-2.884l111.396-111.396
	c1.846-1.846,2.884-4.351,2.884-6.962s-1.038-5.116-2.884-6.962l-35.043-35.043c-3.844-3.845-10.079-3.844-13.924,0l-69.391,69.391
	l-41.541-41.542c-3.845-3.845-10.08-3.845-13.925,0l-35.043,35.043c-1.846,1.846-2.884,4.351-2.884,6.962s1.038,5.116,2.884,6.962
	L235.113,334.369z M193.571,222.741l41.541,41.542c3.845,3.845,10.08,3.845,13.925,0l69.391-69.391l21.119,21.119l-97.472,97.472
	l-69.623-69.622L193.571,222.741z" fill="#fff"/>
<path d="M158.297,102.233c0.246,0.591,0.551,1.162,0.906,1.694c0.354,0.542,0.768,1.044,1.221,1.497
	c0.453,0.453,0.955,0.866,1.497,1.221c0.532,0.354,1.103,0.66,1.703,0.906c0.591,0.246,1.211,0.443,1.841,0.571
	c0.63,0.128,1.28,0.187,1.92,0.187c0.64,0,1.29-0.059,1.92-0.187c0.63-0.128,1.25-0.325,1.841-0.571
	c0.601-0.246,1.172-0.551,1.703-0.906c0.542-0.354,1.044-0.768,1.497-1.221c0.453-0.453,0.866-0.955,1.221-1.497
	c0.354-0.532,0.66-1.103,0.906-1.694c0.246-0.601,0.443-1.221,0.561-1.851c0.128-0.63,0.197-1.28,0.197-1.92
	c0-0.64-0.069-1.29-0.197-1.92c-0.118-0.63-0.315-1.25-0.561-1.841c-0.246-0.601-0.551-1.172-0.906-1.703
	c-0.354-0.542-0.768-1.044-1.221-1.497c-0.453-0.453-0.955-0.866-1.497-1.221c-0.532-0.354-1.103-0.66-1.703-0.906
	c-0.591-0.246-1.211-0.443-1.841-0.561c-1.27-0.256-2.57-0.256-3.84,0c-0.63,0.118-1.25,0.315-1.841,0.561
	c-0.601,0.246-1.172,0.551-1.703,0.906c-0.542,0.354-1.044,0.768-1.497,1.221c-0.453,0.453-0.866,0.955-1.221,1.497
	c-0.354,0.532-0.66,1.103-0.906,1.703c-0.246,0.591-0.443,1.211-0.561,1.841c-0.128,0.63-0.197,1.28-0.197,1.92
	c0,0.64,0.069,1.29,0.197,1.92C157.854,101.012,158.05,101.632,158.297,102.233z" fill="#fff"/>
<g>
</g>
<g>
</g>
<g>
</g>
<g>
</g>
<g>
</g>
<g>
</g>
<g>
</g>
<g>
</g>
<g>
</g>
<g>
</g>
<g>
</g>
<g>
</g>
<g>
</g>
<g>
</g>
<g>
</g>
</svg>
