<svg id="Capa_1" data-name="Capa 1" xmlns="http://www.w3.org/2000/svg" viewBox="0 0 50 44.33"><defs><style>.cls-1{opacity:0.8;}.cls-2{fill:#fddcc9;}.cls-3{fill:#231f20;}.cls-4{fill:#fff;}.cls-5{fill:#1f3f59;}.cls-6{fill:#b2b8a7;}</style></defs><title>Student</title><g class="cls-1"><path class="cls-2" d="M38.94,43.85h4.62a2.37,2.37,0,0,0-4.62,0" transform="translate(0 -0.84)"/><path class="cls-3" d="M43.88,44.11H38.62l.07-.31a2.63,2.63,0,0,1,5.12,0Zm-4.6-.51h3.93a2.11,2.11,0,0,0-3.93,0Z" transform="translate(0 -0.84)"/><path class="cls-3" d="M38.94,43.85h4.62a2.37,2.37,0,0,0-4.62,0m5.21,1.06h-5.8a.53.53,0,0,1-.53-.53,3.43,3.43,0,1,1,6.85,0,.53.53,0,0,1-.53.53" transform="translate(0 -0.84)"/><path class="cls-3" d="M44.15,45.16h-5.8a.78.78,0,0,1-.78-.78,3.68,3.68,0,1,1,7.37,0A.78.78,0,0,1,44.15,45.16Zm-2.9-4a3.18,3.18,0,0,0-3.17,3.17.27.27,0,0,0,.27.27h5.8a.27.27,0,0,0,.27-.27A3.18,3.18,0,0,0,41.25,41.21Zm2.63,2.9H38.62l.07-.31a2.63,2.63,0,0,1,5.12,0Zm-4.6-.51h3.93a2.11,2.11,0,0,0-3.93,0Z" transform="translate(0 -0.84)"/><path class="cls-4" d="M6,43.85h4.62a2.37,2.37,0,0,0-4.62,0" transform="translate(0 -0.84)"/><path class="cls-3" d="M11,44.11H5.73l.07-.31a2.63,2.63,0,0,1,5.12,0Zm-4.6-.51h3.93a2.11,2.11,0,0,0-3.93,0Z" transform="translate(0 -0.84)"/><path class="cls-5" d="M6,43.85h4.62a2.37,2.37,0,0,0-4.62,0m5.21,1.06H5.46a.53.53,0,0,1-.53-.53,3.43,3.43,0,1,1,6.85,0,.53.53,0,0,1-.53.53" transform="translate(0 -0.84)"/><path class="cls-5" d="M11.26,45.16H5.46a.78.78,0,0,1-.78-.78,3.68,3.68,0,0,1,7.37,0A.78.78,0,0,1,11.26,45.16Zm-2.9-4a3.18,3.18,0,0,0-3.17,3.17.27.27,0,0,0,.27.27h5.8a.27.27,0,0,0,.27-.27A3.18,3.18,0,0,0,8.36,41.21ZM11,44.11H5.73l.07-.31a2.63,2.63,0,0,1,5.12,0Zm-4.6-.51h3.93a2.11,2.11,0,0,0-3.93,0Z" transform="translate(0 -0.84)"/><path class="cls-5" d="M13.26,25.4H36.74a5.87,5.87,0,0,0-3.12-1.85A28.8,28.8,0,0,0,25,22.38a28.8,28.8,0,0,0-8.63,1.17,5.87,5.87,0,0,0-3.12,1.85M38,26.46H12v-.53c0-.95.69-2.3,4-3.39a29.87,29.87,0,0,1,9-1.22,29.87,29.87,0,0,1,9,1.22c3.31,1.09,4,2.44,4,3.39Z" transform="translate(0 -0.84)"/><path class="cls-5" d="M38.22,26.72H11.78v-.78c0-1,.73-2.5,4.18-3.63a30.12,30.12,0,0,1,9-1.23,30.12,30.12,0,0,1,9,1.23c3.46,1.13,4.18,2.6,4.18,3.63ZM12.3,26.2H37.7v-.27c0-.86-.66-2.11-3.83-3.14A29.61,29.61,0,0,0,25,21.58a29.61,29.61,0,0,0-8.88,1.21c-3.16,1-3.83,2.28-3.83,3.14Zm24.9-.55H12.81l.23-.39a6.06,6.06,0,0,1,3.25-2A29.06,29.06,0,0,1,25,22.12a29.06,29.06,0,0,1,8.71,1.18,6.06,6.06,0,0,1,3.25,2ZM13.8,25.15H36.2a7.49,7.49,0,0,0-2.65-1.36A28.55,28.55,0,0,0,25,22.64a28.55,28.55,0,0,0-8.55,1.16A7.49,7.49,0,0,0,13.8,25.15Z" transform="translate(0 -0.84)"/><path class="cls-5" d="M25,4.68a8.59,8.59,0,1,0,8.59,8.59A8.6,8.6,0,0,0,25,4.68m0,18.23a9.64,9.64,0,1,1,9.64-9.64A9.65,9.65,0,0,1,25,22.91" transform="translate(0 -0.84)"/><path class="cls-5" d="M25,23.16a9.9,9.9,0,1,1,9.9-9.9A9.91,9.91,0,0,1,25,23.16ZM25,3.88a9.39,9.39,0,1,0,9.39,9.39A9.4,9.4,0,0,0,25,3.88Zm0,18.23a8.84,8.84,0,1,1,8.84-8.84A8.85,8.85,0,0,1,25,22.11ZM25,4.94a8.33,8.33,0,1,0,8.33,8.33A8.34,8.34,0,0,0,25,4.94Z" transform="translate(0 -0.84)"/><path class="cls-3" d="M22.19,14.27a.66.66,0,1,0-.66.66.66.66,0,0,0,.66-.66" transform="translate(0 -0.84)"/><path class="cls-3" d="M21.52,15.18a.92.92,0,1,1,.92-.92A.92.92,0,0,1,21.52,15.18Zm0-1.32a.41.41,0,1,0,.41.41A.41.41,0,0,0,21.52,13.86Z" transform="translate(0 -0.84)"/><path class="cls-3" d="M28.9,14.27a.66.66,0,1,0-.66.66.66.66,0,0,0,.66-.66" transform="translate(0 -0.84)"/><path class="cls-3" d="M28.24,15.18a.92.92,0,1,1,.92-.92A.92.92,0,0,1,28.24,15.18Zm0-1.32a.41.41,0,1,0,.41.41A.41.41,0,0,0,28.24,13.86Z" transform="translate(0 -0.84)"/><path class="cls-5" d="M24.89,32.27a2.21,2.21,0,1,0,2.21,2.21,2.22,2.22,0,0,0-2.21-2.21m0,5.48a3.27,3.27,0,1,1,3.27-3.27,3.27,3.27,0,0,1-3.27,3.27" transform="translate(0 -0.84)"/><path class="cls-5" d="M24.89,38a3.53,3.53,0,1,1,3.53-3.53A3.53,3.53,0,0,1,24.89,38Zm0-6.54a3,3,0,1,0,3,3A3,3,0,0,0,24.89,31.47Zm0,5.48a2.47,2.47,0,1,1,2.47-2.47A2.47,2.47,0,0,1,24.89,37Zm0-4.43a2,2,0,1,0,2,2A2,2,0,0,0,24.89,32.52Z" transform="translate(0 -0.84)"/><path class="cls-5" d="M11.44,26.46A1.24,1.24,0,0,0,10.2,27.7V42.61a1.24,1.24,0,0,0,1.24,1.24H38.56a1.24,1.24,0,0,0,1.24-1.24V27.7a1.24,1.24,0,0,0-1.24-1.24ZM38.56,44.91H11.44a2.3,2.3,0,0,1-2.3-2.3V27.7a2.3,2.3,0,0,1,2.3-2.3H38.56a2.3,2.3,0,0,1,2.3,2.3V42.61a2.3,2.3,0,0,1-2.3,2.3" transform="translate(0 -0.84)"/><path class="cls-5" d="M38.56,45.16H11.44a2.56,2.56,0,0,1-2.55-2.55V27.7a2.56,2.56,0,0,1,2.55-2.55H38.56a2.56,2.56,0,0,1,2.55,2.55V42.61A2.56,2.56,0,0,1,38.56,45.16ZM11.44,25.66a2,2,0,0,0-2,2V42.61a2,2,0,0,0,2,2H38.56a2,2,0,0,0,2-2V27.7a2,2,0,0,0-2-2ZM38.56,44.11H11.44a1.5,1.5,0,0,1-1.5-1.5V27.7a1.5,1.5,0,0,1,1.5-1.5H38.56a1.5,1.5,0,0,1,1.5,1.5V42.61A1.5,1.5,0,0,1,38.56,44.11ZM11.44,26.72a1,1,0,0,0-1,1V42.61a1,1,0,0,0,1,1H38.56a1,1,0,0,0,1-1V27.7a1,1,0,0,0-1-1Z" transform="translate(0 -0.84)"/><path class="cls-4" d="M31,11.4c-3.23-1.18-5.81-2.79-9.35-3.74-5.24-1.41-3.5,5.29-6.93,7.11.62-2.7-1.9-6.95.41-9.18A3.25,3.25,0,0,1,18,4.76c0-1.37,1.38-2.16,2.62-2.71,2.38-1,4.83,0,6.93,1.06,2.85,1.43,5.05,2.86,5.51-1,7.22,2.75,3.67,11.4-2.11,9.28" transform="translate(0 -0.84)"/><path class="cls-3" d="M14.34,15.25l.13-.55a9.43,9.43,0,0,0-.24-3.56c-.39-2.11-.79-4.29.72-5.74a3.5,3.5,0,0,1,2.87-.94c.21-1.35,1.56-2.12,2.75-2.64,2.47-1.09,5,0,7.15,1.06l.6.3c1.52.78,2.84,1.45,3.62,1,.49-.26.79-1,.93-2.13l0-.32.31.12A6.49,6.49,0,0,1,36.93,5a4.93,4.93,0,0,1,.16,3.87,4.64,4.64,0,0,1-6.18,2.74h0c-1.3-.47-2.5-1-3.67-1.55A36.09,36.09,0,0,0,21.58,7.9a2.71,2.71,0,0,0-2.87.46A7.1,7.1,0,0,0,17.42,11c-.51,1.49-1.08,3.18-2.59,4Zm3-10.31a3,3,0,0,0-2.06.82C14,7,14.37,9.07,14.73,11a12.46,12.46,0,0,1,.32,3.19,7,7,0,0,0,1.88-3.39c.72-2.13,1.47-4.33,4.78-3.44a36.5,36.5,0,0,1,5.73,2.21c1.16.53,2.36,1.07,3.64,1.54h0a4.15,4.15,0,0,0,5.52-2.44c.79-2.12.06-4.84-3.29-6.25a2.75,2.75,0,0,1-1.15,2.2c-1,.54-2.44-.19-4.09-1l-.59-.3c-2.06-1-4.44-2.05-6.71-1.05-1.13.5-2.43,1.23-2.47,2.48v.31L18,5A2.89,2.89,0,0,0,17.36,4.94Z" transform="translate(0 -0.84)"/><path class="cls-5" d="M17.37,5.22A2.72,2.72,0,0,0,15.49,6c-1.2,1.16-.86,3-.49,5a17.19,17.19,0,0,1,.34,2.58,8.69,8.69,0,0,0,1.34-2.82,9.54,9.54,0,0,1,1.14-2.55,2.94,2.94,0,0,1,2.53-1.28,5.6,5.6,0,0,1,1.44.21,36.7,36.7,0,0,1,5.78,2.22c1.15.52,2.35,1.07,3.62,1.53a4.63,4.63,0,0,0,1.59.3,3.67,3.67,0,0,0,2.51-1,4.16,4.16,0,0,0,1.28-2.32c.3-1.65-.36-3.78-3-5-.19.94-.69,2.26-2.16,2.26a8.59,8.59,0,0,1-3.41-1.25,12.13,12.13,0,0,0-5.19-1.73,4.56,4.56,0,0,0-1.88.39c-1.57.69-2.28,1.38-2.31,2.24l0,.64-.62-.14a2.6,2.6,0,0,0-.56-.06M13.94,15.77l.26-1.13A9.26,9.26,0,0,0,14,11.19c-.38-2.08-.82-4.43.8-6a3.79,3.79,0,0,1,2.61-1h.23c.34-1.32,1.68-2.08,2.85-2.6a5.68,5.68,0,0,1,2.31-.48,12.9,12.9,0,0,1,5.67,1.85,8.34,8.34,0,0,0,2.93,1.13c.29,0,1,0,1.22-2l.08-.67.63.24a7,7,0,0,1,3.64,2.84A5.25,5.25,0,0,1,36,11a4.71,4.71,0,0,1-3.22,1.24,5.68,5.68,0,0,1-2-.36c-1.31-.48-2.52-1-3.69-1.56a35.87,35.87,0,0,0-5.61-2.17A4.56,4.56,0,0,0,20.34,8c-1.53,0-2,1.18-2.67,3.11-.52,1.54-1.11,3.28-2.72,4.13Z" transform="translate(0 -0.84)"/><path class="cls-5" d="M13.56,16.26,14,14.58a9.12,9.12,0,0,0-.24-3.35c-.39-2.14-.84-4.57.87-6.22A4,4,0,0,1,17.37,3.9h0a4.94,4.94,0,0,1,2.94-2.57,5.93,5.93,0,0,1,2.41-.5,13.09,13.09,0,0,1,5.78,1.88,8.3,8.3,0,0,0,2.82,1.1c.22,0,.75,0,1-1.8l.12-1,.94.36a7.27,7.27,0,0,1,3.76,2.95,5.5,5.5,0,0,1-1,6.88,5,5,0,0,1-3.39,1.3,5.94,5.94,0,0,1-2-.38c-1.32-.48-2.53-1-3.71-1.57a35.67,35.67,0,0,0-5.58-2.15,4.3,4.3,0,0,0-1.1-.17c-1.29,0-1.73.9-2.42,2.94-.54,1.58-1.15,3.37-2.84,4.27Zm3.8-11.84a3.53,3.53,0,0,0-2.43,1c-1.51,1.46-1.09,3.74-.72,5.76a9.42,9.42,0,0,1,.24,3.56l-.13.58.53-.28c1.51-.8,2.09-2.49,2.59-4,.6-1.76,1.12-3.28,2.91-3.28a4.81,4.81,0,0,1,1.23.18,36.08,36.08,0,0,1,5.65,2.18c1.17.53,2.38,1.08,3.67,1.55a5.43,5.43,0,0,0,1.86.35,4.46,4.46,0,0,0,3-1.17,5,5,0,0,0,.9-6.23A6.77,6.77,0,0,0,33.2,1.86l-.33-.12,0,.35c-.24,2-.91,2.25-1.47,2.25a8.4,8.4,0,0,1-3-1.16,12.71,12.71,0,0,0-5.55-1.82,5.42,5.42,0,0,0-2.2.46c-1.09.48-2.39,1.19-2.71,2.43l-.05.2h-.43Zm-2.26,9.84,0-.67A17,17,0,0,0,14.75,11C14.37,9,14,7,15.31,5.78A3,3,0,0,1,17.37,5,2.85,2.85,0,0,1,18,5l.32.07V4.77c0-1,.79-1.73,2.46-2.47a4.82,4.82,0,0,1,2-.41,12.31,12.31,0,0,1,5.3,1.76,8.47,8.47,0,0,0,3.3,1.22c1,0,1.64-.69,1.91-2.06l.06-.32.3.14a5.67,5.67,0,0,1,2.74,2.49,4.44,4.44,0,0,1-.93,5.3,3.92,3.92,0,0,1-2.68,1,4.88,4.88,0,0,1-1.68-.31c-1.28-.47-2.47-1-3.63-1.54a36.51,36.51,0,0,0-5.74-2.21,5.34,5.34,0,0,0-1.37-.2A2.7,2.7,0,0,0,18,8.36a9.37,9.37,0,0,0-1.1,2.48,8.89,8.89,0,0,1-1.38,2.9Zm2.26-8.78a2.47,2.47,0,0,0-1.7.68C14.56,7.21,14.9,9,15.25,11c.11.62.23,1.26.3,1.88a12.08,12.08,0,0,0,.89-2.16,9.72,9.72,0,0,1,1.17-2.62,3.18,3.18,0,0,1,2.74-1.39,5.85,5.85,0,0,1,1.51.22,36.91,36.91,0,0,1,5.82,2.24c1.15.52,2.34,1.06,3.6,1.52a4.37,4.37,0,0,0,1.5.28A3.42,3.42,0,0,0,35.1,10a3.91,3.91,0,0,0,1.2-2.18c.13-.71.31-3.1-2.6-4.62C33.24,5,32.19,5.38,31.36,5.38a8.72,8.72,0,0,1-3.53-1.27A12,12,0,0,0,22.76,2.4,4.31,4.31,0,0,0,21,2.77c-1.46.65-2.13,1.27-2.15,2l0,.94-.92-.2A2.34,2.34,0,0,0,17.37,5.47Z" transform="translate(0 -0.84)"/><path class="cls-5" d="M49.22,44.91H.78a.53.53,0,0,1,0-1.06H49.22a.53.53,0,1,1,0,1.06" transform="translate(0 -0.84)"/><path class="cls-5" d="M49.22,45.16H.78a.78.78,0,0,1,0-1.57H49.22a.78.78,0,1,1,0,1.57ZM.78,44.11a.27.27,0,0,0,0,.55H49.22a.27.27,0,1,0,0-.55Z" transform="translate(0 -0.84)"/><path class="cls-4" d="M41.25,42a2.38,2.38,0,0,0-.4,0v.57a2.29,2.29,0,0,1-.37,1.24h3.07A2.37,2.37,0,0,0,41.25,42" transform="translate(0 -0.84)"/><path class="cls-3" d="M43.88,44.11H40l.25-.39a2,2,0,0,0,.32-1.1v-.78l.21,0a2.63,2.63,0,0,1,3,2Zm-3-.51h2.3a2.13,2.13,0,0,0-2-1.33h-.14v.34A2.55,2.55,0,0,1,40.91,43.6Z" transform="translate(0 -0.84)"/><path class="cls-5" d="M41.25,41l-.4,0V42a2.37,2.37,0,0,1,2.71,1.81h1.08A3.43,3.43,0,0,0,41.25,41" transform="translate(0 -0.84)"/><path class="cls-5" d="M44.94,44.11H43.36l0-.2a2.13,2.13,0,0,0-2.06-1.64l-.35,0-.3.05v-1.6l.23,0,.43,0a3.69,3.69,0,0,1,3.64,3.12Zm-1.18-.51h.57a3.2,3.2,0,0,0-3.07-2.39h-.14v.55h.14A2.65,2.65,0,0,1,43.76,43.6Z" transform="translate(0 -0.84)"/><path class="cls-5" d="M30,21.66l-.1.55a2.11,2.11,0,0,1-.15.48,22.4,22.4,0,0,1,3.87.86,5.87,5.87,0,0,1,3.12,1.85h1.15c-.25-.88-1.2-2-3.93-2.86A23.3,23.3,0,0,0,30,21.66" transform="translate(0 -0.84)"/><path class="cls-5" d="M38.22,25.66H36.6l-.07-.12a5.73,5.73,0,0,0-3-1.74,22.08,22.08,0,0,0-3.82-.85l-.34,0,.14-.31a1.87,1.87,0,0,0,.13-.43l.14-.79.24,0a23.48,23.48,0,0,1,4,.89c2.37.78,3.75,1.8,4.1,3Zm-1.35-.51h.64c-.45-.91-1.7-1.72-3.64-2.36a22.59,22.59,0,0,0-3.66-.84l-.06.3a2.32,2.32,0,0,1-.05.23,22.09,22.09,0,0,1,3.6.82A6.5,6.5,0,0,1,36.88,25.15Z" transform="translate(0 -0.84)"/><path class="cls-5" d="M34.55,11.92a4.68,4.68,0,0,1-1,.28q0,.37.06.76h.19a.53.53,0,0,1,0,1.06h-.22A8.6,8.6,0,0,1,25,21.85h-.1v1.06H25a9.65,9.65,0,0,0,9.55-11" transform="translate(0 -0.84)"/><path class="cls-5" d="M25,23.16h-.36V21.59H25A8.38,8.38,0,0,0,33.3,14l0-.23h.45a.27.27,0,0,0,0-.55h-.44V13c0-.24,0-.49-.06-.73l0-.25.25,0a4.44,4.44,0,0,0,1-.26l.3-.12,0,.32a10,10,0,0,1,.1,1.38,9.87,9.87,0,0,1-1.37,5,10,10,0,0,1-3.6,3.56A9.84,9.84,0,0,1,25,23.16Zm.15-1.06v.55A9.39,9.39,0,0,0,34.36,14a.78.78,0,0,1-.57.26,8.85,8.85,0,0,1-8.63,7.84Zm8.67-9.41a.78.78,0,0,1,.56.29c0-.24,0-.48,0-.72a5,5,0,0,1-.53.14Q33.81,12.55,33.82,12.7Z" transform="translate(0 -0.84)"/><path class="cls-3" d="M28.24,13.61a.66.66,0,1,0,.66.66.66.66,0,0,0-.66-.66" transform="translate(0 -0.84)"/><path class="cls-3" d="M28.24,15.18a.92.92,0,1,1,.92-.92A.92.92,0,0,1,28.24,15.18Zm0-1.32a.41.41,0,1,0,.41.41A.41.41,0,0,0,28.24,13.86Z" transform="translate(0 -0.84)"/><path class="cls-5" d="M24.9,31.21v1.06a2.21,2.21,0,0,1,0,4.43v1.06a3.27,3.27,0,0,0,0-6.54" transform="translate(0 -0.84)"/><path class="cls-5" d="M24.64,38V36.44h.25a2,2,0,0,0,0-3.92h-.25V31h.26a3.53,3.53,0,0,1,0,7.05Zm.51-1.07v.55a3,3,0,0,0,0-6V32a2.47,2.47,0,0,1,0,4.91Z" transform="translate(0 -0.84)"/><path class="cls-6" d="M38.56,26.46h0l-.7,14.11a1.77,1.77,0,0,1-1.77,1.77l-11.16.9v.61H38.56a1.24,1.24,0,0,0,1.24-1.24V27.7a1.24,1.24,0,0,0-1.24-1.24" transform="translate(0 -0.84)"/><path class="cls-5" d="M38.56,25.4H24.9v1.06H38.56A1.24,1.24,0,0,1,39.8,27.7V42.61a1.24,1.24,0,0,1-1.24,1.24h1.93a2.29,2.29,0,0,0,.37-1.24V27.7a2.3,2.3,0,0,0-2.3-2.3" transform="translate(0 -0.84)"/><path class="cls-5" d="M40.63,44.11H38.56V43.6a1,1,0,0,0,1-1V27.7a1,1,0,0,0-1-1H24.64V25.15H38.56a2.56,2.56,0,0,1,2.55,2.55V42.61A2.54,2.54,0,0,1,40.7,44Zm-.95-.51h.66a2,2,0,0,0,.25-1V27.7a2,2,0,0,0-2-2H25.15v.55h13.4a1.5,1.5,0,0,1,1.5,1.5V42.61A1.49,1.49,0,0,1,39.68,43.6Z" transform="translate(0 -0.84)"/><path class="cls-5" d="M32.66,1.38l-.08.67c-.24,2-.93,2-1.22,2a8.34,8.34,0,0,1-2.93-1.13A20.32,20.32,0,0,0,24.9,1.42V2.53a21.35,21.35,0,0,1,3,1.36,8.59,8.59,0,0,0,3.41,1.25c1.48,0,2-1.32,2.16-2.26a6.05,6.05,0,0,1,2,1.45,4.24,4.24,0,0,1,1,3.6,4.16,4.16,0,0,1-1.28,2.32,3.67,3.67,0,0,1-2.51,1,4.63,4.63,0,0,1-1.59-.3c-1.27-.46-2.46-1-3.62-1.53C26.7,9,25.82,8.58,24.9,8.21V9.35c.76.32,1.5.65,2.23,1,1.17.53,2.39,1.08,3.69,1.56a5.8,5.8,0,0,0,1.65.35h.3a5,5,0,0,0,.75-.06h0a4.68,4.68,0,0,0,1-.28A4.76,4.76,0,0,0,36,11a5.25,5.25,0,0,0,.95-6.56,7,7,0,0,0-3.64-2.84Z" transform="translate(0 -0.84)"/><path class="cls-5" d="M32.77,12.51h-.32a6.07,6.07,0,0,1-1.72-.37c-1.32-.48-2.53-1-3.71-1.57-.72-.33-1.46-.66-2.22-1l-.16-.07V7.83L25,8c.93.37,1.81.78,2.67,1.17h0c1.15.52,2.34,1.06,3.6,1.52a4.38,4.38,0,0,0,1.5.28A3.42,3.42,0,0,0,35.1,10a3.91,3.91,0,0,0,1.2-2.18,4,4,0,0,0-1-3.38A5.63,5.63,0,0,0,33.7,3.24C33.24,5,32.19,5.38,31.36,5.38a8.72,8.72,0,0,1-3.53-1.27,21,21,0,0,0-3-1.34l-.18-.06V1.08l.33.09a20.66,20.66,0,0,1,3.57,1.54,8.3,8.3,0,0,0,2.82,1.1c.22,0,.75,0,1-1.8l.12-1,.94.36a7.27,7.27,0,0,1,3.76,2.95,5.5,5.5,0,0,1-1,6.88,5,5,0,0,1-1.51.95,5,5,0,0,1-1.08.3A5.23,5.23,0,0,1,32.77,12.51ZM25.15,9.18c.71.3,1.4.61,2.07.92,1.17.53,2.38,1.08,3.68,1.55a5.56,5.56,0,0,0,1.58.34,4.77,4.77,0,0,0,1,0,4.44,4.44,0,0,0,1-.26,4.5,4.5,0,0,0,1.36-.85,5,5,0,0,0,.9-6.23A6.77,6.77,0,0,0,33.2,1.86l-.33-.12,0,.35c-.24,2-.91,2.25-1.47,2.25a8.4,8.4,0,0,1-3-1.16,21.93,21.93,0,0,0-3.16-1.41v.58a23,23,0,0,1,2.91,1.31,8.47,8.47,0,0,0,3.3,1.22c1,0,1.64-.69,1.91-2.06l.06-.32.3.14a6.32,6.32,0,0,1,2.07,1.51A4.52,4.52,0,0,1,36.8,8a4.42,4.42,0,0,1-1.36,2.47,3.92,3.92,0,0,1-2.68,1,4.88,4.88,0,0,1-1.68-.31c-1.28-.47-2.47-1-3.63-1.54h0c-.74-.34-1.51-.68-2.3-1Z" transform="translate(0 -0.84)"/><path class="cls-5" d="M49.22,43.85H24.9v1.06H49.22a.53.53,0,1,0,0-1.06" transform="translate(0 -0.84)"/><path class="cls-5" d="M49.22,45.16H24.64V43.6H49.22a.78.78,0,1,1,0,1.57Zm-24.06-.51H49.22a.27.27,0,1,0,0-.55H25.15Z" transform="translate(0 -0.84)"/></g></svg>