<svg id="Layer_1" data-name="Layer 1" xmlns="http://www.w3.org/2000/svg" viewBox="0 0 91.5 93.51"><title>TEACHER SVG</title><path d="M32.31,58.47c11.55-6.71,23.22-6.58,35,0" transform="translate(-4.33 -4.85)"/><path d="M44.76,50.42V56.1c0,3.16,10.92,3.16,10.92,0V50.42" transform="translate(-4.33 -4.85)" style="fill:#fff;stroke:#000;stroke-miterlimit:10;stroke-width:1.5px"/><path d="M65.85,30.28l-.34,0V22.66a12.05,12.05,0,0,0-12.22-11.8H46.6a12.05,12.05,0,0,0-12.22,11.8V30.3l-.34,0a4.29,4.29,0,1,0,0,8.57l.34,0v1A12.05,12.05,0,0,0,46.6,51.59h6.69a12.05,12.05,0,0,0,12.22-11.8v-1l.34,0a4.29,4.29,0,1,0,0-8.57Z" transform="translate(-4.33 -4.85)" style="fill:#fff;stroke:#000;stroke-miterlimit:10;stroke-width:1.5px"/><path d="M48,35.9s2,3,3.77,0" transform="translate(-4.33 -4.85)" style="fill:none;stroke:#000;stroke-linecap:round;stroke-miterlimit:10"/><ellipse cx="51.45" cy="26.61" rx="1.26" ry="1.76"/><ellipse cx="39.74" cy="26.75" rx="1.26" ry="1.76"/><path d="M47.52,43.58c0,.73,1.09,1.33,2.42,1.33s2.43-.6,2.43-1.33Z" transform="translate(-4.33 -4.85)"/><path d="M59.28,42.91c0-2.95-4-5.34-9-5.34s-9,2.39-9,5.34" transform="translate(-4.33 -4.85)"/><path d="M35.07,30.77H32.31s-.69-8.56-.69-14.57,9.68-5.34,9.68-5.34a13.18,13.18,0,0,1,11.07-6c15.21.67,15.9,12,15.9,12l-.69,13.6H64.82l-.7-10.26s.7-6.68-13.14-7.34-15.21,6.67-15.21,6.67Z" transform="translate(-4.33 -4.85)"/><path d="M48.22,34.23" transform="translate(-4.33 -4.85)" style="stroke:#000;stroke-miterlimit:10"/><path d="M48.22,25.55" transform="translate(-4.33 -4.85)" style="stroke:#000;stroke-miterlimit:10"/><path d="M43.15,37a5.81,5.81,0,1,1,6-5.8A5.92,5.92,0,0,1,43.15,37Zm0-10.5A4.7,4.7,0,1,0,48,31.18,4.79,4.79,0,0,0,43.15,26.48Z" transform="translate(-4.33 -4.85)"/><path d="M56.74,37.3a5.81,5.81,0,1,1,6-5.8A5.92,5.92,0,0,1,56.74,37.3Zm0-10.5a4.7,4.7,0,1,0,4.87,4.7A4.79,4.79,0,0,0,56.74,26.8Z" transform="translate(-4.33 -4.85)"/><rect x="44.16" y="25.45" width="2.86" height="1.11"/><path d="M16.43,54.15H74.79A4.88,4.88,0,0,1,79.67,59V92.76a0,0,0,0,1,0,0H11.56a0,0,0,0,1,0,0V59A4.88,4.88,0,0,1,16.43,54.15Z" style="fill:#fff;stroke:#000;stroke-miterlimit:10;stroke-width:1.5px"/><line x1="0.75" y1="92.76" x2="90.75" y2="92.76" style="fill:#fff;stroke:#000;stroke-linecap:round;stroke-miterlimit:10;stroke-width:1.5px"/><line x1="14.3" y1="74.05" x2="14.3" y2="90.03" style="fill:#fff;stroke:#000;stroke-linecap:round;stroke-miterlimit:10;stroke-width:1.5px"/><circle cx="45.17" cy="73.65" r="10.5" style="fill:#f05050"/><path d="M55.19,73.75a3.12,3.12,0,0,1,.31,1.12,2.49,2.49,0,0,1-.73,1.89l-5.85,5.86a.36.36,0,0,1-.29.11h-.79c-.09,0-.11,0-.11-.11v-.84c0-.11.06-.17.13-.23q2.89-2.91,5.81-5.81a1,1,0,0,0,.15-1.3,1,1,0,0,0-1.44-.21l-.15.14-5.76,5.77a.37.37,0,0,1-.31.13H45.4c-.09,0-.14,0-.13-.12v-.83a.27.27,0,0,1,.08-.19l6-6a2.46,2.46,0,0,1,2.84-.39l.1,0Z" transform="translate(-4.33 -4.85)" style="fill:#fff"/><path d="M44.1,82.71l1.09,1.1s.12.09,0,.14l-1.69.55Z" transform="translate(-4.33 -4.85)" style="fill:#fff"/></svg>