<svg id="Layer_2" data-name="Layer 2" xmlns="http://www.w3.org/2000/svg" viewBox="0 0 100 100"><defs><style>.cls-1{fill:#e8e8df;}.cls-2{fill:#94a4a4;}.cls-3{fill:#d8d6c9;}.cls-4{fill:#c7bcb7;}.cls-5{fill:#c7bdb8;}.cls-6{fill:#fefefe;}</style></defs><title>txt</title><path class="cls-1" d="M13.09.2H66.21c.27.13.6.2.64.58A8.55,8.55,0,0,1,67,2.53c0,5.79,0,11.58,0,17.38,0,1.35,0,1.38,1.36,1.38q8.54,0,17.08,0a19.33,19.33,0,0,1,2.15.09,1.29,1.29,0,0,1,.68,1.11,14,14,0,0,1,.22,2.42q0,21.65,0,43.28A2.73,2.73,0,0,1,88.15,70a2.64,2.64,0,0,1-1.78.33H13.1a3.27,3.27,0,0,1-2-.3,2.3,2.3,0,0,1-.36-1.67c0-3.51,0-7,0-10.54q0-26.07,0-52.14A18.81,18.81,0,0,1,11,2.75C11.15,1.46,11.66.45,13.09.2Z"/><path class="cls-2" d="M11.17,70c.42,0,.84-.08,1.26-.08H86.79c.42,0,.84,0,1.26.08.43.31.41.79.41,1.24q0,12.83,0,25.65c0,.13,0,.26,0,.39-.16,1.83-.75,2.52-2.5,3H13.09a2.81,2.81,0,0,1-2.31-3c0-.29,0-.58,0-.88q0-12.37,0-24.77C10.76,71,10.64,70.41,11.17,70Z"/><path class="cls-3" d="M66.6.59c.2.16.41.31.6.49L87.07,21c.16.16.3.34.45.51-.29.3-.67.2-1,.2-6.27,0-12.55,0-18.83,0-.87,0-1.09-.26-1.09-1.11C66.62,13.92,66.6,7.26,66.6.59Z"/><path class="cls-4" d="M41.54,41.22c-6.44,0-12.88,0-19.32,0a1.89,1.89,0,0,1-1.82-.9,1.6,1.6,0,0,1,.1-1.83A1.93,1.93,0,0,1,22,37.7a8.61,8.61,0,0,1,.88,0q18.93,0,37.86,0c1.44,0,2.17.6,2.17,1.77s-.6,1.74-1.85,1.74H41.54Z"/><path class="cls-4" d="M45.22,46.67h8.49c1.24,0,2.11.68,2.14,1.65,0,1.13-.79,1.87-2.14,1.87q-8.58,0-17.17,0a1.87,1.87,0,0,1-2.1-1.72c0-1.08.79-1.79,2.09-1.8Z"/><path class="cls-4" d="M30,28.72h7.61a2,2,0,0,1,2.1,1.4A1.59,1.59,0,0,1,39,32a2.78,2.78,0,0,1-1.76.43H22.69a6.32,6.32,0,0,1-1.05-.15,1.62,1.62,0,0,1-1.45-1.69,1.59,1.59,0,0,1,1.32-1.7,5,5,0,0,1,1.15-.14Z"/><path class="cls-4" d="M69.34,46.67H77c1.29,0,2.15.73,2.13,1.77A1.91,1.91,0,0,1,77,50.19q-7.71,0-15.43,0c-1.28,0-2.15-.77-2.11-1.81s.82-1.7,2.08-1.71Z"/><path class="cls-4" d="M36.17,59.17c-2.17,0-4.35,0-6.53,0-1.47,0-2.29-.68-2.3-1.82a1.54,1.54,0,0,1,1.22-1.66,5.94,5.94,0,0,1,1.63-.22q6,0,12.08,0a6.34,6.34,0,0,1,1.63.22,1.6,1.6,0,0,1,1.21,1.48,1.56,1.56,0,0,1-1,1.72,3.74,3.74,0,0,1-1.52.29C40.46,59.16,38.32,59.17,36.17,59.17Z"/><path class="cls-4" d="M59.53,28.72c2.15,0,4.3,0,6.44,0a2.06,2.06,0,0,1,2.14,1,1.69,1.69,0,0,1-1,2.44,4.4,4.4,0,0,1-1.24.2q-6.49,0-13,0c-1.39,0-2.21-.61-2.31-1.61-.14-1.26.67-2.05,2.21-2.07C55,28.7,57.29,28.72,59.53,28.72Z"/><path class="cls-4" d="M71.94,41.22c-1.76,0-3.51,0-5.27,0a1.68,1.68,0,0,1-1.83-1.6,1.76,1.76,0,0,1,1.77-1.9q5.27,0,10.53,0a1.87,1.87,0,0,1,1.94,1.79,1.81,1.81,0,0,1-2,1.71C75.38,41.23,73.66,41.22,71.94,41.22Z"/><path class="cls-4" d="M27.29,19.91c1.76,0,3.51,0,5.27,0a1.59,1.59,0,0,1,1.81,1.49,1.76,1.76,0,0,1-1.49,2,3,3,0,0,1-.67.06c-3.25,0-6.5,0-9.75,0-.93,0-1.82-.16-2.16-1.26a1.66,1.66,0,0,1,1.54-2.24C23.66,19.89,25.48,19.91,27.29,19.91Z"/><path class="cls-4" d="M25.52,46.67c1.14,0,2.28,0,3.41,0a1.82,1.82,0,0,1,1.92,1.66,1.74,1.74,0,0,1-1.77,1.83c-2.4.06-4.8,0-7.2,0a1.86,1.86,0,0,1-1.74-1.78A1.8,1.8,0,0,1,22,46.68C23.19,46.66,24.36,46.67,25.52,46.67Z"/><path class="cls-4" d="M75.48,28.7a15.66,15.66,0,0,1,2.18.14,1.74,1.74,0,0,1-.11,3.42,12.05,12.05,0,0,1-4.15,0A1.64,1.64,0,0,1,72,30.56a1.75,1.75,0,0,1,1.35-1.71A10.91,10.91,0,0,1,75.48,28.7Z"/><path class="cls-4" d="M45.14,32.24a1.7,1.7,0,0,1-1.77-1.67,1.8,1.8,0,0,1,1.83-1.75,1.69,1.69,0,0,1,1.68,1.77A1.57,1.57,0,0,1,45.14,32.24Z"/><path class="cls-5" d="M21.89,55.66a1.56,1.56,0,0,1,1.75,1.63,1.72,1.72,0,0,1-1.73,1.82,1.86,1.86,0,0,1-1.76-1.74A1.76,1.76,0,0,1,21.89,55.66Z"/><path class="cls-6" d="M48.35,84.42c1.06-2.26,2-4.23,2.91-6.19.24-.48.29-1.24.85-1.34a8.79,8.79,0,0,1,2.71,0c.55.07.14.53,0,.77-1.06,2.05-2,4.16-3.24,6.11-1,1.6-1.18,2.91-.09,4.57,1.19,1.81,2,3.85,3.07,5.77.36.66.22.8-.5.81-2.49,0-2.49,0-3.46-2.3-.62-1.49-1.25-3-1.87-4.45-.44,0-.45.32-.55.54-.83,1.8-1.67,3.6-2.46,5.42a1.16,1.16,0,0,1-1.25.79c-2.51,0-2.51,0-1.35-2.23,1-1.93,2-3.87,3-5.78a1.41,1.41,0,0,0,0-1.53c-1.35-2.52-2.65-5.07-4-7.59-.36-.67-.46-1,.53-1C45,76.82,45,76.78,46,79,46.71,80.7,47.47,82.41,48.35,84.42Z"/><path class="cls-6" d="M63.67,86.82c0-2.37,0-4.74,0-7.12,0-.62-.17-.86-.82-.84-1.27,0-2.54,0-3.81,0-.78,0-.83-.4-.8-1s-.14-1.12.77-1.12q6.09,0,12.19,0c.87,0,.81.5.82,1.07s0,1.07-.87,1c-1.2-.06-2.4,0-3.6,0-.81,0-1,.26-1,1,0,4.65,0,9.3,0,14,0,.85-.21,1.11-1.08,1.09-1.88-.06-1.88,0-1.88-1.93Z"/><path class="cls-6" d="M33.25,86.89c0,2.34,0,4.68,0,7,0,.68-.12,1-.9,1-2.48-.08-2,.29-2.05-2.07q0-6.48,0-13c0-.76-.19-1-1-1-1.2.06-2.41,0-3.61,0-.93,0-.73-.58-.75-1.1s-.06-1,.76-1q6.09,0,12.19,0c1,0,.71.6.74,1.11s.06,1-.76,1c-1.17-.06-2.35,0-3.51,0-1-.07-1.19.29-1.17,1.2C33.29,82.34,33.25,84.61,33.25,86.89Z"/></svg>