<svg xmlns="http://www.w3.org/2000/svg" viewBox="0 0 17.4 14"><title>broadcast</title><g id="Layer_31" data-name="Layer 31"><path d="M14.31,17l-.55-.92a6.8,6.8,0,0,0,0-12.16L14.31,3h0A11.2,11.2,0,0,1,16,4.15a7.89,7.89,0,0,1,2.56,4.4c.06.3.1.61.15.91v1.08c0,.24-.07.47-.11.71a7.79,7.79,0,0,1-3,4.92c-.39.3-.83.55-1.24.83Z" transform="translate(-1.3 -3)" style="fill:#2c2e2f"/><path d="M5.69,3l.55.92a6.8,6.8,0,0,0,0,12.16L5.69,17h0A11.2,11.2,0,0,1,4,15.85a7.89,7.89,0,0,1-2.56-4.4c-.06-.3-.1-.61-.15-.91V9.46c0-.24.07-.47.11-.71a7.79,7.79,0,0,1,3-4.92c.39-.3.83-.55,1.24-.83Z" transform="translate(-1.3 -3)" style="fill:#2c2e2f"/><path d="M10,12.46h0a2.75,2.75,0,0,1-1.87-.72A2.38,2.38,0,0,1,7.35,10,2.56,2.56,0,0,1,10,7.54v0h0a2.7,2.7,0,0,1,1.87.72A2.35,2.35,0,0,1,12.65,10a2.32,2.32,0,0,1-.78,1.75A2.71,2.71,0,0,1,10,12.46Zm0-3.8A1.4,1.4,0,0,0,8.56,10a1.27,1.27,0,0,0,.42.94,1.45,1.45,0,0,0,1,.4h0A1.51,1.51,0,0,0,11,11a1.28,1.28,0,0,0,0-1.9,1.49,1.49,0,0,0-1-.39Z" transform="translate(-1.3 -3)" style="fill:#2c2e2f"/><path d="M7.69,13.74l-.57.91A5.27,5.27,0,0,1,4.2,10,5.3,5.3,0,0,1,7.12,5.35l.57.9a4.18,4.18,0,0,0,0,7.49Z" transform="translate(-1.3 -3)" style="fill:#2c2e2f"/><path d="M12.32,6.26l.57-.93a5.2,5.2,0,0,1,0,9.33l-.28-.46-.29-.46a4.18,4.18,0,0,0,0-7.48Z" transform="translate(-1.3 -3)" style="fill:#2c2e2f"/></g></svg>