<svg id="Layer_28" data-name="Layer 28" xmlns="http://www.w3.org/2000/svg" viewBox="0 0 16.5 16.5"><title>send_icon</title><path d="M2.07,8.54l2.2,1.07L7.76,11.3l.79.38-.23-.23c.36.74.71,1.48,1.07,2.21l1.69,3.48.38.8a.62.62,0,0,0,.64.3.65.65,0,0,0,.53-.45l.15-.41.41-1.11.6-1.64c.25-.67.49-1.33.73-2l.81-2.18.81-2.21.75-2.06c.22-.58.43-1.16.64-1.74L18,3.19c.08-.2.15-.4.22-.6v0a.64.64,0,0,0-.78-.79L17,1.93l-1.11.41-1.64.6-2,.74-2.18.8-2.21.81-2.06.76-1.74.64-1.25.45-.6.22h0a.67.67,0,0,0-.38.3.65.65,0,0,0-.07.49.66.66,0,0,0,.79.45L3,8.46l1.11-.41,1.64-.6,2-.74,2.19-.8,2.2-.81,2.06-.76L15.9,3.7l1.25-.46.6-.22h0L17,2.23l-.15.41c-.14.36-.27.73-.41,1.1l-.6,1.64c-.24.67-.49,1.33-.73,2l-.81,2.19-.81,2.21-.75,2.05c-.22.58-.43,1.16-.64,1.74l-.46,1.26c-.07.19-.15.39-.22.59v0l1.17-.16c-.36-.73-.72-1.47-1.07-2.2l-1.7-3.5c-.12-.26-.24-.52-.37-.77s-.49-.36-.73-.48L5.36,8.72,2.75,7.46l0,0a.64.64,0,0,0-.87.23A.64.64,0,0,0,2.07,8.54Z" transform="translate(-1.75 -1.75)" style="fill:#fff"/><path d="M9.32,11.58l1.23-1.22,1.94-1.95L12.93,8a.63.63,0,0,0,0-.9.65.65,0,0,0-.9,0L10.81,8.29l-2,2c-.14.15-.29.29-.44.44a.64.64,0,0,0,0,.9.63.63,0,0,0,.9,0Z" transform="translate(-1.75 -1.75)" style="fill:#fff"/></svg>