<svg xmlns="http://www.w3.org/2000/svg" xmlns:xlink="http://www.w3.org/1999/xlink" width="83.5" height="106.835" viewBox="0 0 83.5 106.835">
    <defs>
        <style>
            .cls-1{fill:#fff}.cls-2,.cls-3{opacity:.3}.cls-2,.cls-4{fill:url(#linear-gradient)}.cls-3{fill:url(#linear-gradient-2)}.cls-4{opacity:.7}
        </style>
        <linearGradient id="linear-gradient" x2="1" y1=".5" y2=".5" gradientUnits="objectBoundingBox">
            <stop offset="0" stop-color="#f05050"/>
            <stop offset=".281" stop-color="#ec4e4e"/>
            <stop offset=".56" stop-color="#e04a4a"/>
            <stop offset=".838" stop-color="#c44"/>
            <stop offset="1" stop-color="#bd3f3f"/>
        </linearGradient>
        <linearGradient id="linear-gradient-2" x2="1" y1=".5" y2=".5" xlink:href="#linear-gradient"/>
    </defs>
    <g id="Group_91" data-name="Group 91" transform="translate(-493 -314.428)">
        <g id="Group_90" data-name="Group 90" transform="translate(-1482.984 -1007.572)">
            <g id="Group_88" data-name="Group 88" transform="translate(1987.097 1322)">
                <path id="Path_39" d="M2061.921 1417.721v-67.147L2033.347 1322h-43.813v96.4z" class="cls-1" data-name="Path 39" transform="translate(-1989.534 -1322)"/>
                <path id="Path_40" d="M2024.424 1358.327h-19.049a1.905 1.905 0 0 1 0-3.811h19.049a1.905 1.905 0 0 1 0 3.811z" class="cls-2" data-name="Path 40" transform="translate(-1992.04 -1327.848)"/>
                <path id="Path_41" d="M2024.424 1342.068h-19.049a1.9 1.9 0 1 1 0-3.81h19.049a1.9 1.9 0 1 1 0 3.81z" class="cls-3" data-name="Path 41" transform="translate(-1992.04 -1324.924)"/>
                <path id="Path_42" d="M2051.094 1374.586h-45.719a1.9 1.9 0 1 1 0-3.81h45.719a1.9 1.9 0 0 1 0 3.81z" class="cls-2" data-name="Path 42" transform="translate(-1992.04 -1330.772)"/>
                <path id="Path_43" d="M2040.952 1391.586h-35.983a1.96 1.96 0 0 1 0-3.81h35.983a1.96 1.96 0 0 1 0 3.81z" class="cls-2" data-name="Path 43" transform="translate(-1992.04 -1333.83)"/>
                <path id="Path_44" d="M2042.956 1350.574h28.574L2042.956 1322z" class="cls-2" data-name="Path 44" transform="translate(-1999.142 -1322)"/>
            </g>
            <g id="Group_89" data-name="Group 89" transform="translate(1975.984 1387.612)">
                <circle id="Ellipse_10" cx="20.612" cy="20.612" r="20.612" class="cls-4" data-name="Ellipse 10"/>
                <circle id="Ellipse_11" cx="13.792" cy="13.792" r="13.792" class="cls-1" data-name="Ellipse 11" transform="translate(6.82 6.82)"/>
                <path id="Rectangle_68" d="M0 0h10.73v20.389H0z" class="cls-1" data-name="Rectangle 68" transform="rotate(47.08 15.312 44.87)"/>
                <path id="Path_45" d="M1997.809 1414.969l-4.655 3.956 9.79 11.519 18.734-17.1-4.119-4.511-14.059 12.836z" class="cls-4" data-name="Path 45" transform="translate(-1979.072 -1403.228)"/>
            </g>
        </g>
    </g>
</svg>
