<svg xmlns="http://www.w3.org/2000/svg" width="18" height="20.026" viewBox="0 0 18 20.026">
    <defs>
        <style>
            .prefix__cls-1{opacity:.8}.prefix__cls-2{fill:#4b4646}
        </style>
    </defs>
    <g id="prefix__Group_710" data-name="Group 710" transform="translate(-1575 -295.334)">
        <g id="prefix__Group_690" class="prefix__cls-1" data-name="Group 690" transform="translate(1575 295.334)">
            <path id="prefix__Path_488" d="M1307.475 83.34a2.379 2.379 0 01-2.2-1.437l-.953-2.161a.8.8 0 00-.822-.474l-2.347.255a2.409 2.409 0 01-2.2-3.817l1.4-1.905a.8.8 0 000-.949l-1.4-1.9a2.409 2.409 0 012.2-3.817l2.347.255a.8.8 0 00.822-.474l.953-2.16a2.408 2.408 0 014.407 0l.953 2.161a.8.8 0 00.822.474l2.347-.255a2.409 2.409 0 012.2 3.817l-1.4 1.906a.8.8 0 000 .948l1.4 1.9a2.409 2.409 0 01-2.2 3.817l-2.347-.255a.8.8 0 00-.822.474l-.952 2.16a2.379 2.379 0 01-2.208 1.437zm-3.887-5.683a2.4 2.4 0 012.2 1.437l.952 2.161a.8.8 0 001.469 0l.952-2.16a2.4 2.4 0 012.465-1.423l2.347.255a.8.8 0 00.734-1.272l-1.395-1.905a2.4 2.4 0 010-2.845l1.396-1.905a.8.8 0 00-.734-1.272l-2.347.255a2.4 2.4 0 01-2.464-1.423l-.953-2.161a.8.8 0 00-1.469 0l-.952 2.16a2.4 2.4 0 01-2.464 1.423l-2.348-.255a.8.8 0 00-.734 1.272l1.395 1.9a2.4 2.4 0 010 2.846l-1.395 1.905a.8.8 0 00.734 1.272l2.347-.255a2.459 2.459 0 01.264-.009z" class="prefix__cls-2" data-name="Path 488" transform="translate(-1298.474 -63.314)"/>
        </g>
        <g id="prefix__Group_691" class="prefix__cls-1" data-name="Group 691" transform="translate(1580.307 301.977)">
            <path id="prefix__Path_489" d="M1318.693 91.386a3.693 3.693 0 113.693-3.693 3.7 3.7 0 01-3.693 3.693zm0-5.78a2.087 2.087 0 102.087 2.087 2.09 2.09 0 00-2.087-2.087z" class="prefix__cls-2" data-name="Path 489" transform="translate(-1315 -84)"/>
        </g>
    </g>
</svg>
