<svg xmlns="http://www.w3.org/2000/svg" width="13.279" height="18" viewBox="0 0 13.279 18">
    <defs>
        <style>
            .prefix__cls-2{fill:#4b4646}
        </style>
    </defs>
    <g id="prefix__Group_679" data-name="Group 679" transform="translate(-717 -1709)" style="opacity:.8">
        <g id="prefix__Group_677" data-name="Group 677" transform="translate(717 1709)">
            <path id="prefix__Path_479" d="M723.639 1722.389a6.695 6.695 0 116.639-6.695 6.675 6.675 0 01-6.639 6.695zm0-11.868a5.173 5.173 0 105.13 5.173 5.158 5.158 0 00-5.13-5.173z" class="prefix__cls-2" data-name="Path 479" transform="translate(-717 -1709)"/>
        </g>
        <g id="prefix__Group_678" data-name="Group 678" transform="translate(719 1720.095)">
            <path id="prefix__Path_480" d="M729.278 1749.824a1.307 1.307 0 01-.556-.125l-1.129-.531c-.6-.281-1.3-.613-1.681-.789-.377.176-1.077.507-1.671.788l-1.117.528a1.29 1.29 0 01-1.274-.091 1.223 1.223 0 01-.549-1.121l.426-4.95a.688.688 0 01.747-.613.678.678 0 01.632.725l-.409 4.758.936-.443c2.1-.994 2.1-.994 2.278-.994s.176 0 2.286.993l.949.446c-.065-.738-.13-1.372-.2-2.005-.07-.682-.142-1.387-.214-2.219a.677.677 0 01.632-.724.685.685 0 01.747.613c.071.821.142 1.509.212 2.2s.142 1.387.213 2.218a1.222 1.222 0 01-.548 1.12 1.289 1.289 0 01-.71.216z" class="prefix__cls-2" data-name="Path 480" transform="translate(-721.296 -1742.919)"/>
        </g>
    </g>
</svg>
