<svg xmlns="http://www.w3.org/2000/svg" width="18" height="17.593" viewBox="0 0 18 17.593">
    <defs>
        <style>
            .prefix__cls-2{fill:#4b4646}
        </style>
    </defs>
    <g id="prefix__Group_705" data-name="Group 705" transform="translate(-1565 -416.25)" style="opacity:.8">
        <g id="prefix__Group_704" data-name="Group 704" transform="translate(1565 416.25)">
            <g id="prefix__Group_699" data-name="Group 699" transform="translate(0 5.988)">
                <path id="prefix__Path_494" d="M828.059 92.993a3.528 3.528 0 010-6.993c2.185 0 2.185 2.45 2.185 3.5s.001 3.493-2.185 3.493zm0-5.536a2.1 2.1 0 000 4.079c.325 0 .728 0 .728-2.04s-.403-2.039-.728-2.039z" class="prefix__cls-2" data-name="Path 494" transform="translate(-825 -86)"/>
            </g>
            <g id="prefix__Group_700" data-name="Group 700" transform="translate(12.755 5.988)">
                <path id="prefix__Path_495" d="M870.185 92.993c-2.185 0-2.185-2.45-2.185-3.5s0-3.5 2.185-3.5a3.528 3.528 0 010 6.993zm0-5.536c-.325 0-.728 0-.728 2.04s.4 2.04.728 2.04a2.1 2.1 0 000-4.079z" class="prefix__cls-2" data-name="Path 495" transform="translate(-868 -86)"/>
            </g>
            <g id="prefix__Group_701" data-name="Group 701" transform="translate(2.55)">
                <path id="prefix__Path_496" d="M834.495 73.2a.735.735 0 01-.74-.7 7.221 7.221 0 011.809-4.9 6.178 6.178 0 014.6-1.721 6.317 6.317 0 014.744 1.755 6.644 6.644 0 011.669 4.583.742.742 0 01-1.481-.076 5.245 5.245 0 00-1.271-3.513 4.9 4.9 0 00-3.66-1.292 4.751 4.751 0 00-3.528 1.267 5.836 5.836 0 00-1.4 3.842.735.735 0 01-.715.752z" class="prefix__cls-2" data-name="Path 496" transform="translate(-833.753 -65.878)"/>
            </g>
            <g id="prefix__Group_702" data-name="Group 702" transform="translate(8.325 11.622)">
                <path id="prefix__Path_497" d="M853.728 109.956a.728.728 0 110-1.457 5.18 5.18 0 004.585-3.052.729.729 0 011.342.566 6.639 6.639 0 01-5.927 3.943z" class="prefix__cls-2" data-name="Path 497" transform="translate(-853 -105.004)"/>
            </g>
            <g id="prefix__Group_703" data-name="Group 703" transform="translate(7.545 14.388)">
                <circle id="prefix__Ellipse_54" cx="1.603" cy="1.603" r="1.603" class="prefix__cls-2" data-name="Ellipse 54"/>
            </g>
        </g>
    </g>
</svg>
