<svg xmlns="http://www.w3.org/2000/svg" width="16.427" height="18" viewBox="0 0 16.427 18">
    <defs>
        <style>
            .prefix__cls-2{fill:#4b4646}
        </style>
    </defs>
    <g id="prefix__Group_694" data-name="Group 694" transform="translate(-670.325 -1776)" style="opacity:.8">
        <g id="prefix__Group_692" data-name="Group 692" transform="translate(670.325 1779.419)">
            <path id="prefix__Path_490" d="M677.181 1799.185a7.845 7.845 0 01-5.072-1.87 8.819 8.819 0 01-3.055-5.839 9.055 9.055 0 011.7-6.43.891.891 0 011.3-.162 1.026 1.026 0 01.152 1.382 7.012 7.012 0 00-1.316 4.98 6.831 6.831 0 002.363 4.524 6.069 6.069 0 004.691 1.4 6.241 6.241 0 004.261-2.51 7.143 7.143 0 00-.046-8.451 1.027 1.027 0 01.138-1.385.891.891 0 011.3.146 9.224 9.224 0 01.059 10.911 8.059 8.059 0 01-5.5 3.243 7.949 7.949 0 01-.975.061z" class="prefix__cls-2" data-name="Path 490" transform="translate(-668.996 -1784.605)"/>
        </g>
        <g id="prefix__Group_693" data-name="Group 693" transform="translate(677.849 1776)">
            <path id="prefix__Path_491" d="M689.85 1783.838a.85.85 0 01-.85-.85v-7.139a.85.85 0 111.7 0v7.139a.85.85 0 01-.85.85z" class="prefix__cls-2" data-name="Path 491" transform="translate(-689 -1775)"/>
        </g>
    </g>
</svg>
