<svg xmlns="http://www.w3.org/2000/svg" width="15.429" height="13.197" viewBox="0 0 15.429 13.197">
    <path id="prefix__Path_12" d="M18.052 22.458H8.34a.36.36 0 110-.721h8.712a.36.36 0 110 .721zM6.773 15.213a.294.294 0 01.048.078 2.543 2.543 0 002.452 1.865c1.412 0 2.617-3.561 2.973-5.248a.988.988 0 01-.664-.922 1.03 1.03 0 012.057 0 .977.977 0 01-.5.843c.333 1.652 1.555 5.327 2.988 5.327a2.537 2.537 0 002.411-1.756.377.377 0 01.144-.161.963.963 0 01-.31-.705 1.03 1.03 0 111.029.985h-.08a.353.353 0 01-.019.187l-1.692 5.441a1.082 1.082 0 01.583.948 1.121 1.121 0 01-1.14 1.106H8.34a1.118 1.118 0 01-1.14-1.096 1.1 1.1 0 01.595-.967l-1.743-5.571a.367.367 0 01-.015-.049h-.008a.986.986 0 111.029-.985.961.961 0 01-.285.68zM12.58 16.9l1 1.475-1 1.475-1-1.475z" data-name="Path 12" transform="translate(-5 -10)" style="fill:#ffc400;fill-rule:evenodd"/>
</svg>
