<svg xmlns="http://www.w3.org/2000/svg" xmlns:xlink="http://www.w3.org/1999/xlink" width="112" height="112" viewBox="0 0 112 112">
  <defs>
    <clipPath id="clip-svg2">
      <rect width="112" height="112"/>
    </clipPath>
  </defs>
  <g id="svg2" clip-path="url(#clip-svg2)">
    <rect width="112" height="112" fill="#fff"/>
    <g id="Group_714" data-name="Group 714" transform="translate(-8 -7.537)">
      <g id="Group_270" data-name="Group 270" transform="translate(0 0)">
        <g id="Group_269" data-name="Group 269" transform="translate(0)">
          <g id="Group_266" data-name="Group 266" transform="translate(0)">
            <circle id="Ellipse_30" data-name="Ellipse 30" cx="55.364" cy="55.364" r="55.364" transform="translate(0 109.299) rotate(-80.782)" fill="#ffd05d"/>
          </g>
          <g id="Group_267" data-name="Group 267" transform="translate(17.114 16.514)">
            <path id="Path_76" data-name="Path 76" d="M88.1,12.49A54.681,54.681,0,0,1,13.41,88.511,54.68,54.68,0,1,0,88.1,12.49Z" transform="translate(-13.41 -12.49)" fill="#fdc453"/>
          </g>
          <g id="Group_268" data-name="Group 268" transform="translate(10.74 11.099)">
            <path id="Path_77" data-name="Path 77" d="M9.158,58.063a46.589,46.589,0,0,1,83.523-28.4,46.592,46.592,0,1,0-77.329,51.62A46.365,46.365,0,0,1,9.158,58.063Z" transform="translate(-5.69 -6.29)" fill="#ffd77f"/>
          </g>
        </g>
        <path id="Path_78" data-name="Path 78" d="M48.326,102.792a1.658,1.658,0,0,0-2.7,1.807,25.153,25.153,0,0,0,46.515.459,1.654,1.654,0,0,0-2.673-1.825C82.131,110.357,66.542,120.489,48.326,102.792Z" transform="translate(-5.381 -26.398)" fill="#5e4939"/>
      </g>
      <g id="Group_272" data-name="Group 272" transform="translate(16.125 43.613)">
        <path id="Path_79" data-name="Path 79" d="M102.726,52.9l-23.3,1.69c-.276,0-.545.012-.828.035-.209.024-7.714.807-16.075,1.236a4.985,4.985,0,0,1-.592,0c-8.361-.43-15.873-1.213-16.088-1.236-.269-.024-.539-.035-.815-.035l-23.3-1.69c-4.584-.077-7.115,1.9-6.873,5.381.007.135,1.649,8.066,1.649,8.066a15.77,15.77,0,0,0,3.022,7.418,10.424,10.424,0,0,0,4.039,2.95,12.334,12.334,0,0,0,2.524.818,15.067,15.067,0,0,0,2.336.182c.693.035,1.831.082,2.524.082H38.48a18.163,18.163,0,0,0,7.169-1.466,13.338,13.338,0,0,0,6.9-7.047c1.36-2.867,4.073-5.039,6.96-6.694a5.531,5.531,0,0,1,5.426,0A21.622,21.622,0,0,1,69.2,65.745a23.283,23.283,0,0,1,2.423,3.032c.848,1.16,1.393,2.537,2.282,3.715a11.049,11.049,0,0,0,3.245,2.985,17.394,17.394,0,0,0,7.815,2.29c.337.018.673.029,1.01.029H93.5c.693,0,1.831-.047,2.524-.082a15.137,15.137,0,0,0,2.336-.182,12.334,12.334,0,0,0,2.524-.818,10.484,10.484,0,0,0,4.039-2.95,15.934,15.934,0,0,0,3.022-7.418s1.636-7.93,1.649-8.066C109.834,54.794,107.31,52.822,102.726,52.9Z" transform="translate(-14.836 -52.896)" fill="#2d292a"/>
        <g id="Group_271" data-name="Group 271" transform="translate(6.19 4.023)">
          <path id="Path_80" data-name="Path 80" d="M115.3,80.612h6.588c.606,0,1.6-.047,2.208-.082a11.618,11.618,0,0,0,2.043-.183,9.864,9.864,0,0,0,2.208-.818,9.352,9.352,0,0,0,3.532-2.95,17.27,17.27,0,0,0,2.643-7.418s1.431-7.93,1.442-8.066a6.445,6.445,0,0,0-.059-1.366c-9.384,14.53-20.77,18.045-28.082,18.727a13.824,13.824,0,0,0,6.594,2.131C114.7,80.6,115,80.612,115.3,80.612Z" transform="translate(-47.381 -59.73)" fill="#414042"/>
          <path id="Path_81" data-name="Path 81" d="M26.792,85.373A9.855,9.855,0,0,0,29,86.191a11.56,11.56,0,0,0,2.043.183c.606.035,1.6.082,2.208.082h6.588a14.192,14.192,0,0,0,6.27-1.466c3.026-1.507,4.78-4.009,6.034-7.047a12.525,12.525,0,0,1,2.749-4C41.322,82.93,30.025,84.349,25.35,84.5A12.348,12.348,0,0,0,26.792,85.373Z" transform="translate(-25.35 -65.574)" fill="#414042"/>
        </g>
      </g>
    </g>
  </g>
</svg>
