<svg xmlns="http://www.w3.org/2000/svg" xmlns:xlink="http://www.w3.org/1999/xlink" width="112" height="112" viewBox="0 0 112 112">
  <defs>
    <clipPath id="clip-svg3">
      <rect width="112" height="112"/>
    </clipPath>
  </defs>
  <g id="svg3" clip-path="url(#clip-svg3)">
    <rect width="112" height="112" fill="#fff"/>
    <g id="Group_715" data-name="Group 715" transform="translate(-20.333 -19.667)">
      <g id="Group_278" data-name="Group 278" transform="translate(0 0)">
        <g id="Group_277" data-name="Group 277">
          <g id="Group_274" data-name="Group 274">
            <circle id="Ellipse_31" data-name="Ellipse 31" cx="53.741" cy="53.741" r="53.741" transform="translate(0 76) rotate(-45)" fill="#ffd05d"/>
          </g>
          <g id="Group_275" data-name="Group 275" transform="translate(30.714 30.136)">
            <path id="Path_82" data-name="Path 82" d="M86.808,12.49a53.745,53.745,0,0,1-73.4,74.748,53.744,53.744,0,1,0,73.4-74.748Z" transform="translate(-13.41 -12.49)" fill="#fdc453"/>
          </g>
          <g id="Group_276" data-name="Group 276" transform="translate(25.846 26.227)">
            <path id="Path_83" data-name="Path 83" d="M9.4,61.733A49.891,49.891,0,0,1,98.847,31.319,49.9,49.9,0,1,0,16.036,86.6,49.652,49.652,0,0,1,9.4,61.733Z" transform="translate(-5.69 -6.29)" fill="#ffd77f"/>
          </g>
        </g>
      </g>
      <g id="Group_281" data-name="Group 281" transform="translate(37.737 52.055)">
        <g id="Group_279" data-name="Group 279" transform="translate(0 0.005)">
          <circle id="Ellipse_32" data-name="Ellipse 32" cx="12.319" cy="12.319" r="12.319" transform="translate(0 24.321) rotate(-80.782)" fill="#fff"/>
          <path id="Path_84" data-name="Path 84" d="M51.561,53.683A12.27,12.27,0,0,0,36.7,51.842a3.085,3.085,0,0,0-.668,1.6c-.24,2.572,3.077,4.981,7.408,5.39s8.038-1.349,8.278-3.921A2.979,2.979,0,0,0,51.561,53.683Z" transform="translate(-28.789 -48.327)" fill="#303030"/>
        </g>
        <g id="Group_280" data-name="Group 280" transform="translate(48.259 0)">
          <circle id="Ellipse_33" data-name="Ellipse 33" cx="12.319" cy="12.319" r="12.319" transform="translate(0 24.321) rotate(-80.782)" fill="#fff"/>
          <path id="Path_85" data-name="Path 85" d="M128.1,53.683a12.27,12.27,0,0,0-14.86-1.841,3.085,3.085,0,0,0-.668,1.6c-.24,2.572,3.077,4.981,7.408,5.39s8.038-1.349,8.278-3.921A2.782,2.782,0,0,0,128.1,53.683Z" transform="translate(-105.333 -48.322)" fill="#303030"/>
        </g>
      </g>
      <path id="Path_86" data-name="Path 86" d="M93.3,101.176a21.624,21.624,0,0,0-10.157-5.4,27.481,27.481,0,0,0-11.588-.214A29.093,29.093,0,0,0,60.91,99.972a25.166,25.166,0,0,0-7.818,8.221,1.258,1.258,0,0,0,.177,1.488,1.271,1.271,0,0,0,.92.4,1.237,1.237,0,0,0,.555-.132l1.179-.58c2.768-1.368,5.378-2.661,8.032-3.7a49.691,49.691,0,0,1,9.035-2.679,44.593,44.593,0,0,1,9.306-.8,58.671,58.671,0,0,1,9.886,1.122,1.257,1.257,0,0,0,1.116-2.131Z" transform="translate(2.701 -12.861)" fill="#5e4939"/>
    </g>
  </g>
</svg>
