<svg xmlns="http://www.w3.org/2000/svg" id="prefix__Group_71" width="20.329" height="20.301" data-name="Group 71" viewBox="0 0 20.329 20.301">
    <defs>
        <style>
            .prefix__cls-2{fill:#11db7d}
        </style>
    </defs>
    <path id="prefix__Path_15" d="M75.782 1.613L77.752.48A1.055 1.055 0 0179.2.874c.025.025.025.049.049.074l1.009 1.8h2.265A1.051 1.051 0 0183.587 3.8v.025l-.025 2.117 1.945 1.133a1.055 1.055 0 01.393 1.456c0 .025-.025.025-.025.049l-1.108 1.773 1.133 1.97a1.055 1.055 0 01-.394 1.453c-.025.025-.049.025-.074.049l-1.8.96v2.265a1.051 1.051 0 01-1.059 1.059h-.025l-2.117-.025-1.131 1.945a1.055 1.055 0 01-1.453.394c-.025 0-.025-.025-.049-.025l-1.77-1.058-1.97 1.133a1.055 1.055 0 01-1.453-.394c-.025-.025-.025-.049-.049-.074l-1.009-1.8h-2.265a1.051 1.051 0 01-1.059-1.059v-.025l.025-2.117-1.948-1.13a1.055 1.055 0 01-.394-1.453c0-.025.025-.025.025-.049l1.062-1.772-1.133-1.97a1.055 1.055 0 01.394-1.453c.025-.025.049-.025.074-.049l1.8-1.009V3.853a1.051 1.051 0 011.059-1.059h.025l2.117.025L72.458.874A1.14 1.14 0 0173.96.5c.025 0 .025.025.049.025z" data-name="Path 15" transform="translate(-65.716 -.315)" style="fill:#1be587"/>
    <g id="prefix__Group_65" data-name="Group 65" transform="translate(12.061)">
        <path id="prefix__Path_16" d="M269.757 11.982l-1.133-1.97 1.059-1.773c0-.025.025-.025.025-.049a1.054 1.054 0 00-.394-1.453l-1.945-1.133.025-2.117v-.023a1.051 1.051 0 00-1.059-1.064h-2.265L263.06.608c0-.025-.025-.049-.049-.074a1.07 1.07 0 00-1.354-.443 1.02 1.02 0 01.468.443c.025.025.025.049.049.074l1.009 1.8h2.265a1.051 1.051 0 011.059 1.059v.025l-.025 2.117 1.945 1.133a1.055 1.055 0 01.394 1.453c0 .025-.025.025-.025.049l-1.034 1.8 1.133 1.97a1.055 1.055 0 01-.394 1.453c-.025.025-.049.025-.074.049l-1.8.96v2.265a1.042 1.042 0 01-.936 1.034h.763a1.051 1.051 0 001.059-1.059v-2.272l1.8-1.009c.025 0 .049-.025.074-.049a1 1 0 00.37-1.404z" class="prefix__cls-2" data-name="Path 16" transform="translate(-261.657)"/>
        <path id="prefix__Path_17" d="M266.057 288.677l-1.133 1.945a.957.957 0 01-.468.419 1.06 1.06 0 001.354-.419l1.133-1.945z" class="prefix__cls-2" data-name="Path 17" transform="translate(-264.285 -270.908)"/>
    </g>
    <text id="prefix___2" data-name="2" transform="translate(6.906 14.142)" style="fill:#fff;font-size:14px;font-family:SourceSansPro-SemiBold,Source Sans Pro;font-weight:600">
        <tspan x="0" y="0">2</tspan>
    </text>
</svg>
