<svg xmlns="http://www.w3.org/2000/svg" id="prefix__Group_460" width="16" height="13.686" data-name="Group 460" viewBox="0 0 16 13.686">
    <defs>
        <radialGradient id="prefix__radial-gradient" cx=".5" cy=".5" r=".5" gradientUnits="objectBoundingBox">
            <stop offset="0" stop-color="#f05050"/>
            <stop offset="1" stop-color="#cf0404"/>
        </radialGradient>
    </defs>
    <path id="prefix__Path_12" d="M17.5 22.919H8.464a.374.374 0 110-.747H17.5a.374.374 0 110 .747zM6.839 15.406a.3.3 0 01.05.081 2.637 2.637 0 002.543 1.933c1.464 0 2.714-3.693 3.083-5.443a1.025 1.025 0 01-.688-.956 1.068 1.068 0 012.133 0 1.013 1.013 0 01-.514.874c.346 1.714 1.612 5.524 3.1 5.524a2.631 2.631 0 002.493-1.819.39.39 0 01.15-.167 1 1 0 01-.322-.732 1.068 1.068 0 111.067 1.022h-.083a.366.366 0 01-.02.194l-1.755 5.643a1.122 1.122 0 01.6.983 1.162 1.162 0 01-1.176 1.143H8.464a1.16 1.16 0 01-1.182-1.133 1.135 1.135 0 01.617-1l-1.808-5.78a.381.381 0 01-.015-.05h-.009A1.023 1.023 0 117.133 14.7a1 1 0 01-.294.706zm6.022 1.748l1.034 1.529-1.034 1.529-1.034-1.529z" data-name="Path 12" transform="translate(-5 -10)"/>
</svg>
