<svg id="Layer_84" data-name="Layer 84" xmlns="http://www.w3.org/2000/svg" viewBox="0 0 16 14.9">
  <title>my course icon</title>
  <g>
    <path d="M6.55,2.55h-4A.51.51,0,0,0,2,3.06V14.81a.51.51,0,0,0,.51.51H10.4a4,4,0,1,0,7.12-3.83,4.12,4.12,0,0,0-2.31-1.93V3.06a.51.51,0,0,0-.51-.51h-4a.51.51,0,0,0-.51.51V4.93H7.06V3.06a.51.51,0,0,0-.51-.51ZM6,14.3H3V3.57H6ZM11.17,3.57h3v5.8H14a4,4,0,0,0-2.78,1.12ZM14,10.38a3,3,0,1,1-3,3A3,3,0,0,1,14,10.38ZM10.15,6V12A4,4,0,0,0,10,14.3H7.06V6Z" transform="translate(-2 -2.55)" style="fill:#2c2e2f;fill-opacity:.8;"/>
    <rect x="1.47" y="9.54" width="2.13" height="1.02" style="fill:#2c2e2f;fill-opacity:.8;"/>
    <rect x="1.47" y="2.21" width="2.13" height="1.02" style="fill:#2c2e2f;fill-opacity:.8;"/>
    <rect x="5.54" y="9.54" width="2.13" height="1.02" style="fill:#2c2e2f;fill-opacity:.8;"/>
    <rect x="5.54" y="4.58" width="2.13" height="1.02" style="fill:#2c2e2f;fill-opacity:.8;"/>
    <rect x="9.62" y="2.21" width="2.13" height="1.02" style="fill:#2c2e2f;fill-opacity:.8;"/>
    <polygon points="14.25 9.89 13.53 9.17 11.43 11.27 10.26 10.1 9.54 10.82 11.43 12.71 14.25 9.89" style="fill:#2c2e2f;fill-opacity:.8;"/>
  </g>
</svg>
