<svg xmlns="http://www.w3.org/2000/svg" width="16" height="12.8" viewBox="0 0 16 12.8">
    <g>
        <g>
            <path fill="#959696" d="M15.2 2H.8a.756.756 0 0 0-.8.8V14a.756.756 0 0 0 .8.8h14.4a.756.756 0 0 0 .8-.8V2.8a.756.756 0 0 0-.8-.8zM4.8 10.8L4 10l-.8.8V8.24A2.33 2.33 0 0 1 1.6 6 2.357 2.357 0 0 1 4 3.6 2.357 2.357 0 0 1 6.4 6a2.33 2.33 0 0 1-1.6 2.24zm8.8 1.6H6.4a.8.8 0 1 1 0-1.6h7.2a.8.8 0 1 1 0 1.6zm0-3.2H8.8a.756.756 0 0 1-.8-.8.756.756 0 0 1 .8-.8h4.8a.756.756 0 0 1 .8.8.756.756 0 0 1-.8.8zm0-3.2H8.8a.756.756 0 0 1-.8-.8.756.756 0 0 1 .8-.8h4.8a.756.756 0 0 1 .8.8.756.756 0 0 1-.8.8z" transform="translate(0 -2) translate(0 2) translate(0 -2)"/>
        </g>
    </g>
</svg>
