<svg xmlns="http://www.w3.org/2000/svg" id="noun_Briefcase_1078598" width="16" height="16" viewBox="0 0 16 16">
    <defs>
        <style>
            .cls-1{fill:#959696}
        </style>
    </defs>
    <g id="Group_1751">
        <path id="Path_1514" d="M8.3 8a7.2 7.2 0 0 0 6.8-4.8h-3.6V1.6A1.6 1.6 0 0 0 9.9 0H6.7a1.6 1.6 0 0 0-1.6 1.6v1.6H1.5A7.276 7.276 0 0 0 8.3 8zM6.7 3.2V1.6h3.2v1.6H6.7z" class="cls-1" transform="translate(-.3)"/>
        <path id="Path_1515" d="M8 10.72A8.77 8.77 0 0 1 0 5.6v10.72a.86.86 0 0 0 .8.8h14.4a.8.8 0 0 0 .8-.8V5.6a8.77 8.77 0 0 1-8 5.12z" class="cls-1" transform="translate(0 -1.12)"/>
    </g>
</svg>
