<svg xmlns="http://www.w3.org/2000/svg" width="16" height="12.721" viewBox="0 0 16 12.721">
    <defs>
        <style>
            .cls-1{fill:#959696;fill-rule:evenodd}
        </style>
    </defs>
    <g id="noun_Home_2082115" transform="translate(.138)">
        <g id="Group_1763" transform="translate(-.138)">
            <path id="Path_1519" d="M57.715 59L52 63.731v4.731a.669.669 0 0 0 .654.651h3.49v-3.862h3.185v3.863h3.49a.669.669 0 0 0 .654-.651v-4.732z" class="cls-1" transform="translate(-49.737 -56.393)"/>
            <path id="Path_1520" d="M15.725 6.164l-2.135-1.78V.347a.31.31 0 0 0-.349-.3h-1.873a.31.31 0 0 0-.349.3v1.91l-2.4-2A1.246 1.246 0 0 0 7.1.26L0 6.164a.309.309 0 0 0-.044.477l.61.695A.268.268 0 0 0 1 7.379l6.84-5.686 6.883 5.686a.292.292 0 0 0 .436-.043l.61-.695a.307.307 0 0 0-.044-.477z" class="cls-1" transform="translate(.138)"/>
        </g>
    </g>
</svg>
