<?xml version="1.0" encoding="utf-8"?>
<!-- Generator: Adobe Illustrator 16.0.0, SVG Export Plug-In . SVG Version: 6.00 Build 0)  -->
<!DOCTYPE svg PUBLIC "-//W3C//DTD SVG 1.1//EN" "http://www.w3.org/Graphics/SVG/1.1/DTD/svg11.dtd">
<svg version="1.1" xmlns="http://www.w3.org/2000/svg" xmlns:xlink="http://www.w3.org/1999/xlink" x="0px" y="0px" width="150px"
	 height="150px" viewBox="0 0 150 150" enable-background="new 0 0 150 150" xml:space="preserve">
<g id="Layer_1" display="none">
	<text transform="matrix(1 0 0 1 40.8311 59.5142)" display="inline" font-family="'Vijaya'" font-size="46.4033">xyab</text>
	<text transform="matrix(1 0 0 1 38.665 103.0137)" display="inline" font-family="'MinionPro-Regular'" font-size="46.4033">12345</text>
</g>
<g id="Layer_4" display="none">
	<rect x="12" y="12" display="inline" fill-rule="evenodd" clip-rule="evenodd" fill="#5C5C5C" width="126" height="126"/>
</g>
<g id="_x31_" display="none">
	<g id="Layer_2_1_" display="inline">
		<g>
			<path d="M73.155,34.594c1.054,1.134,1.851,2.269,2.391,3.403c0.405,0.784,1.052,2.836,1.946,6.159l2.876-4.296
				c0.757-1.052,1.675-2.051,2.755-2.998c1.078-0.945,2.038-1.581,2.877-1.904c0.512-0.244,1.094-0.365,1.743-0.365
				c0.917,0,1.652,0.257,2.208,0.771c0.552,0.513,0.832,1.12,0.832,1.823c0,0.837-0.165,1.405-0.487,1.701
				c-0.596,0.541-1.283,0.81-2.066,0.81c-0.461,0-0.96-0.094-1.5-0.283c-0.998-0.351-1.674-0.528-2.025-0.528
				c-0.539,0-1.161,0.298-1.864,0.892c-1.352,1.134-2.958,3.321-4.821,6.563l2.675,11.222c0.404,1.729,0.75,2.764,1.032,3.101
				c0.285,0.339,0.56,0.506,0.832,0.506c0.458,0,0.997-0.257,1.621-0.771c1.187-0.999,2.214-2.294,3.078-3.888l1.134,0.568
				c-1.377,2.566-3.119,4.698-5.226,6.402c-1.189,0.944-2.203,1.417-3.039,1.417c-1.215,0-2.189-0.675-2.917-2.025
				c-0.46-0.865-1.406-4.525-2.838-10.981c-3.377,5.888-6.09,9.683-8.143,11.385c-1.324,1.08-2.607,1.621-3.849,1.621
				c-0.864,0-1.661-0.311-2.39-0.932c-0.513-0.485-0.77-1.133-0.77-1.944c0-0.703,0.236-1.297,0.709-1.782
				c0.472-0.487,1.058-0.73,1.761-0.73c0.702,0,1.445,0.351,2.228,1.052c0.568,0.513,1,0.771,1.295,0.771
				c0.27,0,0.608-0.174,1.014-0.527c1.026-0.837,2.417-2.626,4.173-5.369c1.754-2.74,2.902-4.719,3.443-5.935
				c-1.323-5.267-2.039-8.063-2.147-8.386c-0.512-1.404-1.174-2.397-1.985-2.978c-0.809-0.581-1.984-0.871-3.525-0.871
				c-0.513,0-1.093,0.014-1.742,0.04v-1.174L73.155,34.594z"/>
			<path d="M73.681,71.445c0.759,1.27,1.279,2.453,1.562,3.545c0.284,1.093,0.559,3.264,0.832,6.502l1.416,16.045
				c1.323-1.567,3.215-4.052,5.673-7.455c1.216-1.648,2.699-3.902,4.458-6.767c1.052-1.729,1.7-2.945,1.944-3.646
				c0.135-0.351,0.203-0.7,0.203-1.054c0-0.242-0.076-0.439-0.224-0.586c-0.148-0.15-0.548-0.331-1.194-0.549
				c-0.649-0.214-1.185-0.6-1.602-1.153c-0.419-0.554-0.627-1.181-0.627-1.885c0-0.892,0.262-1.613,0.79-2.166
				c0.527-0.554,1.181-0.832,1.964-0.832c0.944,0,1.755,0.399,2.432,1.195c0.676,0.798,1.015,1.899,1.015,3.304
				c0,1.702-0.59,3.661-1.763,5.874c-1.176,2.215-3.438,5.604-6.788,10.17c-3.348,4.564-7.399,9.548-12.155,14.95
				c-3.295,3.699-5.733,6.037-7.311,7.009c-1.582,0.971-2.939,1.459-4.072,1.459c-0.677,0-1.272-0.257-1.786-0.771
				c-0.511-0.514-0.768-1.108-0.768-1.784c0-0.837,0.351-1.606,1.053-2.308c0.704-0.704,1.471-1.055,2.309-1.055
				c0.432,0,0.783,0.095,1.053,0.285c0.191,0.105,0.386,0.418,0.589,0.931s0.397,0.863,0.586,1.055
				c0.107,0.106,0.229,0.16,0.362,0.16c0.136,0,0.368-0.107,0.69-0.322c1.189-0.756,2.58-1.933,4.172-3.525
				c2.108-2.135,3.66-3.874,4.66-5.229l-1.863-20.661c-0.299-3.429-0.75-5.515-1.358-6.26c-0.608-0.742-1.627-1.114-3.06-1.114
				c-0.458,0-1.268,0.067-2.431,0.205l-0.323-1.216L73.681,71.445z"/>
			<path d="M100.887,68.55c0,0.571-0.386,1.034-0.862,1.034H49.977c-0.478,0-0.863-0.463-0.863-1.034l0,0
				c0-0.571,0.386-1.034,0.863-1.034h50.047C100.501,67.516,100.887,67.979,100.887,68.55L100.887,68.55z"/>
		</g>
	</g>
</g>
<g id="_x32_" display="none">
	<g id="Layer_3_1_" display="inline">
		<g>
			<path d="M51.904,104.04c1.141-3.336,2.272-6.634,3.398-9.936C62.004,74.437,68.71,54.771,75.39,35.095
				c0.258-0.761,0.565-1.058,1.429-1.056c15.048,0.032,30.095,0.031,45.142,0.006c0.979-0.001,1.717,0.311,2.319,1.03
				c1.587,1.889,2.673,4.039,3.25,6.429c0.322,1.328,0.166,1.472-1.178,1.472c-14.622,0-29.243,0.006-43.864-0.017
				c-0.802-0.002-1.177,0.201-1.451,1.008c-8.022,23.608-16.076,47.206-24.124,70.805c-0.5,1.466-0.836,1.559-1.91,0.381
				c-1.621-1.776-2.963-3.756-3.995-5.93c-3.556-7.479-7.103-14.962-10.61-22.465c-0.365-0.781-0.787-1.015-1.622-1.003
				c-3.573,0.048-7.146,0.002-10.72,0.034c-0.931,0.009-1.663-0.292-2.252-0.978c-1.676-1.949-2.809-4.179-3.36-6.687
				c-0.265-1.208-0.136-1.323,1.076-1.325c4.262-0.002,8.525,0.032,12.786-0.021c1.18-0.015,2.005,0.45,2.694,1.316
				c0.987,1.24,1.702,2.639,2.375,4.062c3.289,6.955,6.575,13.91,9.875,20.857C51.409,103.353,51.474,103.771,51.904,104.04z"/>
			<path d="M93.211,88.781l-5.705,19.84l-0.653,2.689c-0.051,0.241-0.072,0.446-0.072,0.617c0,0.314,0.097,0.595,0.292,0.835
				c0.144,0.169,0.338,0.255,0.579,0.255s0.57-0.156,0.98-0.471c0.75-0.56,1.77-1.722,3.053-3.489l0.981,0.688
				c-1.331,2.038-2.713,3.582-4.14,4.634c-1.434,1.052-2.751,1.581-3.964,1.581c-0.824,0-1.447-0.207-1.87-0.618
				c-0.426-0.41-0.638-1.017-0.638-1.817c0-0.968,0.218-2.229,0.656-3.779l0.617-2.215c-2.569,3.343-4.918,5.68-7.052,7.013
				c-1.55,0.942-3.063,1.417-4.541,1.417c-1.429,0-2.661-0.587-3.687-1.762c-1.031-1.178-1.544-2.793-1.544-4.853
				c0-3.102,0.925-6.376,2.778-9.828c1.854-3.452,4.223-6.207,7.104-8.268c2.227-1.646,4.335-2.47,6.324-2.47
				c1.209,0,2.209,0.314,2.997,0.945c0.786,0.628,1.385,1.672,1.798,3.125l1.052-3.343L93.211,88.781z M82.785,90.309
				c-1.237,0-2.558,0.593-3.963,1.779c-2.011,1.646-3.791,4.101-5.341,7.359c-1.551,3.256-2.327,6.208-2.327,8.847
				c0,1.308,0.335,2.351,0.999,3.125c0.667,0.776,1.437,1.162,2.308,1.162c2.108,0,4.409-1.573,6.902-4.724
				c3.347-4.166,5.015-8.442,5.015-12.826c0-1.647-0.32-2.847-0.96-3.599C84.775,90.685,83.896,90.309,82.785,90.309z"/>
			<path d="M112.323,73.666l-5.774,20.239c1.863-1.962,3.497-3.306,4.903-4.033c1.403-0.727,2.856-1.09,4.359-1.09
				c2.155,0,3.919,0.716,5.287,2.145c1.369,1.428,2.051,3.367,2.051,5.813c0,3.127-0.901,6.244-2.705,9.357
				c-1.806,3.112-4.058,5.534-6.759,7.268c-2.7,1.732-5.372,2.598-8.013,2.598c-2.953,0-5.981-1.102-9.083-3.309l8.903-30.594
				c0.679-2.374,1.016-3.766,1.016-4.178c0-0.509-0.155-0.884-0.471-1.126c-0.437-0.363-1.091-0.546-1.962-0.546
				c-0.415,0-1.044,0.074-1.888,0.22v-1.127L112.323,73.666z M100.987,112.981c1.962,1.065,3.68,1.6,5.158,1.6
				c1.72,0,3.502-0.624,5.345-1.873c1.839-1.246,3.439-3.364,4.795-6.358c1.357-2.99,2.036-6.001,2.036-9.029
				c0-1.792-0.444-3.195-1.327-4.214c-0.883-1.017-1.933-1.525-3.142-1.525c-1.817,0-3.6,0.728-5.344,2.18
				c-1.746,1.454-2.979,3.476-3.704,6.067L100.987,112.981z"/>
		</g>
	</g>
</g>
<g id="_x34_" display="none">
	<g id="Layer_6" display="inline">
		<path d="M52.131,103.752c1.129-3.303,2.25-6.568,3.364-9.837c6.636-19.472,13.275-38.943,19.889-58.425
			c0.256-0.753,0.56-1.047,1.415-1.045c14.898,0.032,29.796,0.03,44.694,0.006c0.969-0.001,1.699,0.308,2.296,1.02
			c1.571,1.87,2.646,3.999,3.218,6.365c0.319,1.314,0.165,1.457-1.166,1.457c-14.477,0-28.953,0.006-43.43-0.017
			c-0.793-0.002-1.165,0.199-1.437,0.999c-7.943,23.374-15.917,46.738-23.885,70.104c-0.495,1.45-0.828,1.542-1.891,0.376
			c-1.605-1.758-2.934-3.719-3.955-5.87c-3.521-7.405-7.033-14.813-10.505-22.242c-0.362-0.773-0.779-1.005-1.605-0.993
			c-3.538,0.048-7.076,0.002-10.614,0.033c-0.922,0.009-1.646-0.289-2.23-0.967c-1.659-1.93-2.781-4.138-3.327-6.621
			c-0.262-1.196-0.134-1.311,1.065-1.312c4.22-0.002,8.441,0.031,12.659-0.021c1.168-0.015,1.985,0.445,2.667,1.304
			c0.978,1.228,1.686,2.612,2.352,4.021c3.256,6.886,6.51,13.771,9.777,20.65C51.642,103.072,51.706,103.485,52.131,103.752z"/>
		<g>
			<path d="M30.223,60.861l-1.981,6.795c1.852-2.777,3.274-4.604,4.268-5.481c0.993-0.877,1.948-1.315,2.86-1.315
				c0.494,0,0.902,0.167,1.223,0.5c0.32,0.333,0.481,0.759,0.481,1.277c0,0.604-0.142,1.4-0.426,2.388l-1.814,6.278
				c-0.211,0.729-0.316,1.173-0.316,1.333c0,0.137,0.041,0.25,0.12,0.343c0.08,0.092,0.164,0.139,0.25,0.139
				c0.111,0,0.253-0.061,0.426-0.186c0.53-0.419,1.111-1.055,1.741-1.907l0.462,0.278c-0.926,1.32-1.802,2.265-2.629,2.833
				c-0.58,0.383-1.1,0.574-1.555,0.574c-0.37,0-0.664-0.111-0.879-0.333c-0.216-0.222-0.324-0.518-0.324-0.888
				c0-0.482,0.167-1.302,0.5-2.463l1.742-6c0.209-0.74,0.314-1.319,0.314-1.74c0-0.198-0.065-0.358-0.194-0.481
				c-0.129-0.124-0.288-0.186-0.473-0.186c-0.271,0-0.605,0.118-1,0.352c-0.729,0.445-1.49,1.182-2.287,2.213
				c-0.796,1.03-1.638,2.342-2.527,3.934c-0.469,0.852-0.859,1.778-1.167,2.777l-0.741,2.463h-2.24l2.722-9.333
				c0.321-1.123,0.481-1.795,0.481-2.018c0-0.222-0.089-0.417-0.268-0.583c-0.179-0.167-0.392-0.25-0.638-0.25
				c-0.125,0-0.334,0.024-0.63,0.074l-0.574,0.074l-0.093-0.537L30.223,60.861z"/>
		</g>
		<path d="M93.029,88.646l-5.648,19.643l-0.646,2.663c-0.051,0.238-0.072,0.442-0.072,0.61c0,0.313,0.096,0.589,0.289,0.827
			c0.143,0.167,0.335,0.252,0.574,0.252c0.238,0,0.563-0.154,0.971-0.466c0.742-0.554,1.752-1.705,3.022-3.454l0.971,0.682
			c-1.317,2.018-2.685,3.546-4.099,4.588c-1.419,1.041-2.723,1.564-3.924,1.564c-0.816,0-1.433-0.204-1.852-0.611
			c-0.422-0.406-0.631-1.007-0.631-1.8c0-0.958,0.216-2.206,0.649-3.741l0.61-2.193c-2.543,3.31-4.868,5.624-6.981,6.943
			c-1.534,0.934-3.032,1.402-4.496,1.402c-1.415,0-2.634-0.581-3.65-1.744c-1.021-1.165-1.529-2.765-1.529-4.805
			c0-3.07,0.915-6.313,2.75-9.73c1.836-3.418,4.181-6.146,7.034-8.186c2.204-1.629,4.292-2.444,6.262-2.444
			c1.197,0,2.187,0.311,2.967,0.935c0.778,0.623,1.371,1.656,1.78,3.095l1.041-3.31L93.029,88.646z M82.707,90.157
			c-1.226,0-2.532,0.587-3.924,1.762c-1.991,1.63-3.753,4.061-5.288,7.286c-1.536,3.224-2.304,6.146-2.304,8.759
			c0,1.295,0.332,2.327,0.989,3.094c0.661,0.769,1.423,1.151,2.285,1.151c2.087,0,4.365-1.558,6.834-4.678
			c3.313-4.124,4.965-8.358,4.965-12.698c0-1.631-0.317-2.818-0.951-3.563C84.678,90.529,83.807,90.157,82.707,90.157z"/>
		<path d="M111.952,73.679l-5.717,20.039c1.845-1.942,3.463-3.274,4.854-3.994c1.39-0.72,2.828-1.078,4.316-1.078
			c2.134,0,3.88,0.708,5.235,2.122c1.354,1.414,2.03,3.334,2.03,5.756c0,3.096-0.893,6.182-2.679,9.265
			c-1.787,3.081-4.018,5.479-6.692,7.195c-2.673,1.715-5.318,2.571-7.933,2.571c-2.924,0-5.922-1.091-8.993-3.274l8.814-30.292
			c0.672-2.35,1.007-3.729,1.007-4.136c0-0.504-0.154-0.875-0.467-1.115c-0.432-0.359-1.08-0.54-1.942-0.54
			c-0.41,0-1.034,0.073-1.869,0.217v-1.115L111.952,73.679z M100.729,112.605c1.942,1.055,3.644,1.583,5.107,1.583
			c1.703,0,3.467-0.617,5.292-1.854c1.82-1.232,3.405-3.331,4.747-6.295c1.345-2.961,2.017-5.941,2.017-8.939
			c0-1.774-0.44-3.164-1.314-4.172s-1.913-1.511-3.11-1.511c-1.8,0-3.563,0.721-5.291,2.158c-1.729,1.439-2.949,3.441-3.668,6.007
			L100.729,112.605z"/>
	</g>
</g>
<g id="_x35_" display="none">
	<path display="inline" d="M80.38,65.153c0.659-2.076,1.319-3.926,1.81-5.809c0.233-0.885,0.685-1.15,1.506-1.271
		c2.638-0.361,5.269-0.764,7.883-1.214c0.779-0.137,0.854,0.008,0.645,0.731c-3.201,11.062-6.371,22.131-9.558,33.192
		c-1.279,4.448-2.599,8.881-3.612,13.401c-0.201,0.9-0.394,1.795,0.01,2.694c0.498,1.136,1.375,1.474,2.51,0.901
		c1.223-0.611,2.188-1.553,3.113-2.534c1.521-1.601,2.862-3.347,4.158-5.134c0.249-0.346,0.41-0.409,0.797-0.159
		c1.736,1.157,1.754,1.149,0.547,2.854c-2.791,3.926-5.961,7.475-10.248,9.84c-2.084,1.158-4.289,1.85-6.717,1.647
		c-2.711-0.233-4.336-1.914-4.416-4.642c-0.081-2.873,0.579-5.615,1.319-8.352c0.378-1.398,0.772-2.799,1.014-4.279
		c-0.491,0.604-0.974,1.207-1.465,1.812c-3.491,4.263-7.159,8.351-11.681,11.56c-3.057,2.172-6.371,3.678-10.184,3.909
		c-4.723,0.274-7.997-1.979-10.201-5.929c-1.794-3.219-1.954-6.781-1.681-10.354c0.74-9.355,4.545-17.521,9.887-25.051
		c4.078-5.752,9.194-10.41,15.396-13.797c2.695-1.472,5.575-2.357,8.673-2.438c4.642-0.121,7.794,1.883,9.621,6.162
		C79.792,63.568,80.033,64.26,80.38,65.153z M45.732,98.039c0,0.859,0.089,2.164,0.442,3.443c1.054,3.845,4.199,6.072,7.908,5.551
		c1.898-0.266,3.612-1.07,5.205-2.116c3.169-2.083,5.695-4.843,8.036-7.787c5.39-6.757,9.315-14.183,10.353-22.895
		c0.346-2.912,0.49-5.824-0.24-8.704c-0.83-3.242-2.937-5.108-6.244-5.486c-1.817-0.201-3.531,0.249-5.148,1.037
		c-2.799,1.352-5.076,3.403-7.168,5.647c-3.467,3.725-6.033,8.045-8.197,12.614C47.936,85.119,45.901,91.098,45.732,98.039z"/>
	<path display="inline" d="M99.902,50.865c0.886-0.78,1.634-1.488,2.438-2.132c1.528-1.223,3.242-1.939,5.253-2.044
		c3.436-0.173,6.484,2.225,6.581,6.468c0.104,4.569-1.729,8.407-4.649,11.762c-2.461,2.827-5.486,4.763-9.275,5.245
		c-3.273,0.422-6.121-0.765-8.775-2.542c-0.522-0.346-0.192-0.729-0.098-1.063c1.537-5.325,3.105-10.643,4.635-15.973
		c1.215-4.199,2.551-8.362,3.588-12.613c0.33-1.352-0.104-1.911-1.473-2.096c-0.557-0.08-1.086,0.036-1.625,0.064
		c-0.25,0.012-0.539,0.129-0.531-0.306c0-0.318-0.057-0.628,0.41-0.7c2.623-0.41,5.245-0.845,7.876-1.251
		c0.765-0.116,0.41,0.391,0.329,0.688c-1.455,5.14-2.92,10.28-4.384,15.421C100.111,50.093,100.032,50.398,99.902,50.865z
		 M109.919,54.814c0.017-0.169,0.04-0.342,0.04-0.515c-0.008-1.883-0.378-3.628-2.154-4.666c-1.689-0.989-3.34-0.435-4.885,0.419
		c-2.35,1.295-3.771,3.362-4.527,5.896c-1.078,3.644-2.101,7.305-3.187,10.948c-0.179,0.604-0.032,0.845,0.498,1.118
		c4.319,2.236,7.996,0.33,10.192-2.373C108.447,62.514,109.686,58.837,109.919,54.814z"/>
</g>
<g id="_x36_" display="none">
	<g id="Layer_7_1_" display="inline">
		<g>
			<path d="M65.364,34.419c2.498,2.687,4.384,5.376,5.664,8.061c0.959,1.856,2.493,6.717,4.606,14.588l6.813-10.176
				c1.792-2.492,3.964-4.858,6.524-7.098c2.556-2.241,4.829-3.744,6.814-4.511c1.211-0.579,2.59-0.865,4.128-0.865
				c2.174,0,3.914,0.607,5.229,1.824c1.307,1.216,1.971,2.655,1.971,4.319c0,1.983-0.392,3.326-1.154,4.028
				c-1.411,1.282-3.039,1.919-4.895,1.919c-1.092,0-2.272-0.221-3.552-0.67c-2.367-0.83-3.968-1.249-4.798-1.249
				c-1.278,0-2.751,0.707-4.417,2.113c-3.201,2.684-7.004,7.867-11.418,15.542l6.334,26.579c0.959,4.098,1.776,6.545,2.446,7.345
				c0.674,0.802,1.326,1.199,1.971,1.199c1.085,0,2.361-0.608,3.839-1.825c2.813-2.366,5.244-5.434,7.291-9.209l2.688,1.344
				c-3.264,6.078-7.389,11.129-12.379,15.162c-2.818,2.238-5.217,3.356-7.198,3.356c-2.878,0-5.185-1.6-6.909-4.795
				c-1.09-2.051-3.33-10.719-6.722-26.008c-7.998,13.946-14.425,22.934-19.287,26.966c-3.137,2.556-6.175,3.837-9.115,3.837
				c-2.048,0-3.935-0.736-5.662-2.209c-1.215-1.147-1.823-2.682-1.823-4.603c0-1.666,0.561-3.072,1.681-4.222
				c1.118-1.153,2.509-1.729,4.172-1.729c1.662,0,3.423,0.832,5.277,2.493c1.345,1.216,2.366,1.824,3.069,1.824
				c0.641,0,1.439-0.411,2.401-1.248c2.432-1.983,5.726-6.22,9.885-12.716c4.153-6.488,6.874-11.177,8.154-14.057
				c-3.133-12.473-4.83-19.095-5.086-19.863c-1.213-3.324-2.782-5.676-4.701-7.054c-1.918-1.375-4.7-2.061-8.349-2.061
				c-1.216,0-2.59,0.032-4.125,0.093v-2.783L65.364,34.419z"/>
			<g>
				<path d="M117.646,111.226l-1.594,4.355h-13.346v-0.623c1.99-1.802,3.667-3.419,5.031-4.85c1.364-1.433,2.464-2.739,3.297-3.922
					c0.833-1.182,1.436-2.274,1.804-3.276c0.37-1,0.556-1.978,0.556-2.933c0-0.714-0.119-1.371-0.354-1.976
					c-0.235-0.604-0.558-1.126-0.968-1.563c-0.411-0.437-0.886-0.775-1.422-1.018s-1.108-0.364-1.713-0.364
					c-1.129,0-2.131,0.323-3.005,0.97c-0.872,0.645-1.524,1.599-1.955,2.861h-0.605c0.135-1.021,0.387-1.932,0.757-2.733
					c0.367-0.798,0.83-1.468,1.381-2.005c0.552-0.537,1.191-0.946,1.925-1.229c0.733-0.282,1.528-0.424,2.39-0.424
					c0.901,0,1.743,0.161,2.529,0.483c0.787,0.323,1.468,0.76,2.048,1.31c0.576,0.553,1.029,1.188,1.36,1.905
					c0.328,0.72,0.493,1.47,0.493,2.248c0,1.426-0.422,2.895-1.271,4.405c-0.845,1.514-2.022,3.096-3.528,4.748
					c-1.383,1.519-2.505,2.733-3.364,3.638c-0.861,0.909-1.467,1.518-1.816,1.827h5.889c0.765,0,1.4-0.017,1.903-0.051
					c0.504-0.033,0.936-0.113,1.291-0.241c0.355-0.127,0.661-0.312,0.918-0.555c0.255-0.241,0.503-0.571,0.745-0.989H117.646
					L117.646,111.226z"/>
			</g>
		</g>
	</g>
</g>
<g id="_x37_" display="none">
	<g display="inline">
		<path d="M61.056,115.489c0,0-0.103,0-0.308,0.103c-0.205,0-0.41,0.205-0.819,0.205c-0.206,0-0.515,0.103-0.719,0.103
			c-0.308,0-0.513,0-0.82,0s-0.616-0.103-1.026-0.103c-0.308-0.1-0.717-0.205-1.127-0.308c-1.436-0.513-3.18-1.537-4.717-2.871
			c-1.538-1.333-3.078-3.076-4.513-5.127c-1.333-2.049-2.665-4.307-3.691-6.767c-1.128-2.46-2.051-5.127-2.768-7.896
			c-0.41-1.436-0.718-2.871-1.026-4.307c-0.103-0.719-0.307-1.436-0.411-2.152c-0.102-0.718-0.205-1.435-0.307-2.258
			c-0.205-1.537-0.411-2.974-0.411-4.511l-0.102-2.255l-0.104-2.359l0.104-2.152l0.102-2.359c0.103-1.538,0.308-2.974,0.411-4.512
			c0.205-1.538,0.411-2.974,0.718-4.409c0.308-1.435,0.616-2.871,1.026-4.306c0.717-2.769,1.64-5.435,2.768-7.895
			c1.128-2.461,2.359-4.717,3.691-6.768c1.333-2.051,2.871-3.793,4.513-5.127c1.537-1.435,3.281-2.358,4.717-2.872
			c1.435-0.614,2.768-0.512,3.588-0.409c0.821,0.103,1.128,0.308,1.128,0.308v0.922c0,0-0.102,0-0.206,0
			c-0.205,0-0.41,0-0.718,0.103c-0.616,0.103-1.435,0.411-2.358,1.128s-1.948,1.743-2.871,3.178
			c-0.924,1.333-1.743,3.076-2.563,5.024c-1.538,3.896-2.768,8.716-3.486,13.843c-0.41,2.564-0.717,5.333-0.922,7.999
			c-0.206,2.769-0.309,5.537-0.309,8.306c0,5.537,0.309,11.177,1.128,16.405c0.822,5.127,2.052,9.946,3.589,13.738
			c0.82,1.95,1.64,3.591,2.563,5.026c0.923,1.435,1.949,2.459,2.872,3.178c0.923,0.718,1.846,1.025,2.358,1.128
			c0.616,0.104,1.026,0.104,0.922,0.104L61.056,115.489z"/>
		<path d="M88.943,34.562c0,0,0.102,0,0.307-0.104c0.207,0,0.41-0.204,0.822-0.204c0.203,0,0.514-0.103,0.717-0.103
			c0.309,0,0.514,0,0.822,0c0.307,0,0.613,0.103,1.023,0.103c0.309,0.103,0.719,0.204,1.129,0.308
			c1.436,0.512,3.18,1.538,4.717,2.87c1.537,1.333,3.076,3.077,4.512,5.127c1.332,2.052,2.666,4.307,3.691,6.769
			c1.127,2.46,2.051,5.126,2.768,7.895c0.412,1.436,0.719,2.871,1.027,4.306c0.102,0.718,0.307,1.436,0.41,2.154
			c0.102,0.717,0.205,1.436,0.307,2.256c0.41,2.973,0.512,6.049,0.615,9.023l-0.104,2.152l-0.203,2.358
			c-0.104,1.538-0.309,2.975-0.41,4.512c-0.205,1.538-0.41,2.974-0.717,4.409c-0.311,1.436-0.617,2.871-1.025,4.308
			c-0.719,2.769-1.643,5.434-2.771,7.894c-1.127,2.463-2.357,4.719-3.691,6.769c-1.332,2.05-2.869,3.794-4.512,5.128
			c-1.537,1.435-3.281,2.357-4.715,2.871c-1.436,0.614-2.77,0.513-3.588,0.408c-0.822-0.103-1.129-0.309-1.129-0.309v-0.923
			c0,0,0.102,0,0.205,0c0.205,0,0.41,0,0.717-0.101c0.615-0.104,1.438-0.409,2.359-1.128c0.922-0.718,1.949-1.744,2.871-3.179
			c0.922-1.333,1.742-3.076,2.564-5.024c1.641-3.793,2.869-8.613,3.588-13.739c0.41-2.563,0.717-5.332,0.924-8
			c0.203-2.769,0.307-5.535,0.307-8.303c0-5.64-0.307-11.177-1.129-16.407c-0.822-5.127-2.051-9.947-3.588-13.741
			c-0.82-1.947-1.641-3.588-2.564-5.023s-1.949-2.461-2.871-3.179c-0.922-0.718-1.846-1.026-2.357-1.128
			c-0.615-0.103-1.025-0.103-0.924-0.103L88.943,34.562z"/>
		<g>
			<path d="M73.656,69.758l-3.833,13.33l-0.439,1.807c-0.033,0.163-0.049,0.302-0.049,0.415c0,0.212,0.065,0.399,0.195,0.562
				c0.098,0.114,0.228,0.171,0.391,0.171c0.163,0,0.382-0.105,0.659-0.317c0.504-0.374,1.188-1.155,2.051-2.344l0.659,0.464
				c-0.896,1.367-1.823,2.404-2.783,3.113c-0.96,0.707-1.848,1.062-2.661,1.062c-0.554,0-0.973-0.139-1.257-0.415
				c-0.285-0.276-0.427-0.684-0.427-1.221c0-0.65,0.146-1.497,0.439-2.539l0.415-1.489c-1.726,2.246-3.304,3.817-4.736,4.712
				c-1.042,0.635-2.059,0.952-3.052,0.952c-0.96,0-1.787-0.395-2.478-1.185c-0.692-0.789-1.038-1.875-1.038-3.259
				c0-2.083,0.623-4.284,1.868-6.604c1.245-2.318,2.836-4.169,4.773-5.553c1.497-1.106,2.913-1.66,4.248-1.66
				c0.813,0,1.485,0.212,2.014,0.635c0.529,0.423,0.932,1.123,1.208,2.1l0.708-2.246L73.656,69.758z M66.649,70.784
				c-0.83,0-1.717,0.399-2.661,1.196c-1.351,1.107-2.547,2.755-3.589,4.943c-1.042,2.189-1.563,4.172-1.563,5.945
				c0,0.879,0.224,1.579,0.671,2.1c0.447,0.521,0.964,0.781,1.55,0.781c1.416,0,2.962-1.058,4.639-3.174
				c2.246-2.799,3.369-5.672,3.369-8.618c0-1.106-0.216-1.912-0.647-2.417C67.987,71.036,67.397,70.784,66.649,70.784z"/>
			<path d="M86.498,59.602l-3.883,13.599c1.254-1.318,2.352-2.222,3.297-2.71c0.943-0.488,1.92-0.732,2.93-0.732
				c1.447,0,2.633,0.48,3.553,1.44c0.918,0.96,1.379,2.263,1.379,3.906c0,2.099-0.607,4.195-1.818,6.287
				c-1.213,2.091-2.727,3.719-4.541,4.883c-1.816,1.163-3.609,1.745-5.385,1.745c-1.984,0-4.02-0.74-6.103-2.222l5.982-20.556
				c0.455-1.595,0.684-2.531,0.684-2.808c0-0.342-0.105-0.594-0.318-0.757c-0.293-0.244-0.732-0.366-1.318-0.366
				c-0.275,0-0.699,0.049-1.27,0.146v-0.757L86.498,59.602z M78.881,86.018c1.318,0.717,2.473,1.074,3.467,1.074
				c1.154,0,2.352-0.419,3.588-1.257c1.238-0.839,2.313-2.263,3.223-4.273c0.912-2.01,1.367-4.031,1.367-6.066
				c0-1.204-0.297-2.148-0.891-2.832s-1.299-1.025-2.111-1.025c-1.221,0-2.418,0.488-3.59,1.465s-2.002,2.336-2.49,4.077
				L78.881,86.018z"/>
		</g>
	</g>
</g>
<g id="_x38_" display="none">
	<rect x="34.631" y="34.5" display="inline" width="4.811" height="81"/>
	<rect x="110.559" y="34.5" display="inline" width="3.81" height="81"/>
	<g display="inline">
		<g>
			<path d="M66.462,83.605c-0.586,1.891-1.035,3.869-1.576,5.895H48.058v-1.035c2.52-2.475,5.039-5.039,7.289-7.648
				c2.79-3.33,5.625-7.021,5.625-10.891c0-3.779-1.98-5.984-5.311-5.984c-3.059,0-4.949,2.43-6.119,4.186l-0.99-0.9l2.564-3.645
				c1.351-1.485,3.466-2.655,6.076-2.655c3.959,0,7.559,2.88,7.559,7.604c0,3.915-1.799,6.57-5.939,10.98l-6.39,6.703h8.415
				c2.43,0,3.015-0.18,4.364-3.014L66.462,83.605z"/>
		</g>
		<path d="M83.837,73.064l-3.449,11.996l-0.396,1.627c-0.029,0.146-0.043,0.271-0.043,0.373c0,0.19,0.059,0.359,0.176,0.506
			c0.088,0.103,0.205,0.153,0.352,0.153s0.344-0.095,0.593-0.286c0.454-0.336,1.069-1.039,1.846-2.109l0.593,0.418
			c-0.805,1.23-1.641,2.164-2.504,2.802c-0.865,0.637-1.663,0.956-2.396,0.956c-0.498,0-0.876-0.125-1.132-0.374
			s-0.385-0.615-0.385-1.099c0-0.586,0.133-1.348,0.396-2.285l0.373-1.34c-1.553,2.021-2.974,3.435-4.263,4.24
			c-0.938,0.571-1.853,0.857-2.747,0.857c-0.863,0-1.607-0.355-2.229-1.066c-0.623-0.71-0.935-1.688-0.935-2.934
			c0-1.874,0.561-3.855,1.682-5.943c1.12-2.087,2.553-3.754,4.295-4.998c1.348-0.996,2.623-1.494,3.824-1.494
			c0.732,0,1.336,0.189,1.813,0.57c0.476,0.381,0.838,1.012,1.088,1.891l0.637-2.021L83.837,73.064z M77.53,73.986
			c-0.746,0-1.545,0.359-2.395,1.077c-1.216,0.996-2.293,2.479-3.23,4.449c-0.938,1.971-1.406,3.754-1.406,5.351
			c0,0.791,0.201,1.421,0.604,1.89s0.868,0.703,1.396,0.703c1.274,0,2.666-0.952,4.175-2.856c2.021-2.52,3.032-5.104,3.032-7.756
			c0-0.996-0.194-1.722-0.582-2.176C78.735,74.214,78.204,73.986,77.53,73.986z"/>
		<path d="M95.395,63.924l-3.493,12.238c1.127-1.187,2.116-2,2.966-2.439s1.729-0.658,2.637-0.658c1.304,0,2.369,0.432,3.197,1.296
			c0.827,0.864,1.241,2.036,1.241,3.516c0,1.89-0.546,3.775-1.637,5.658c-1.092,1.882-2.454,3.347-4.087,4.395
			c-1.634,1.047-3.249,1.571-4.845,1.571c-1.787,0-3.619-0.667-5.494-2l5.384-18.501c0.41-1.436,0.615-2.278,0.615-2.526
			c0-0.309-0.095-0.535-0.286-0.682c-0.264-0.22-0.658-0.33-1.186-0.33c-0.25,0-0.631,0.045-1.143,0.133v-0.682L95.395,63.924z
			 M88.539,87.697c1.187,0.646,2.227,0.967,3.12,0.967c1.04,0,2.117-0.377,3.23-1.131c1.113-0.755,2.08-2.036,2.9-3.846
			c0.82-1.809,1.23-3.629,1.23-5.46c0-1.084-0.268-1.934-0.803-2.549s-1.168-0.923-1.9-0.923c-1.099,0-2.176,0.439-3.23,1.318
			s-1.801,2.103-2.24,3.67L88.539,87.697z"/>
	</g>
</g>
<g id="_x39_" display="none">
	<g display="inline">
		<polygon points="53.702,115.656 44.68,115.656 44.68,34.344 53.702,34.344 53.702,40.084 49.397,40.084 49.397,109.917 
			53.702,109.917 		"/>
	</g>
	<g display="inline">
		<path d="M74.022,71.353l-3.449,11.996l-0.396,1.627c-0.029,0.146-0.043,0.271-0.043,0.373c0,0.19,0.059,0.359,0.176,0.506
			c0.088,0.103,0.205,0.153,0.352,0.153s0.344-0.095,0.593-0.286c0.454-0.336,1.069-1.039,1.846-2.109l0.593,0.418
			c-0.805,1.23-1.641,2.164-2.504,2.802c-0.865,0.637-1.663,0.956-2.396,0.956c-0.498,0-0.876-0.125-1.132-0.374
			s-0.385-0.615-0.385-1.099c0-0.586,0.133-1.348,0.396-2.285l0.373-1.34c-1.553,2.021-2.974,3.435-4.263,4.24
			c-0.938,0.571-1.853,0.857-2.747,0.857c-0.863,0-1.607-0.355-2.229-1.066c-0.623-0.71-0.935-1.688-0.935-2.934
			c0-1.874,0.561-3.855,1.682-5.943c1.12-2.087,2.553-3.754,4.295-4.998c1.348-0.996,2.623-1.494,3.824-1.494
			c0.732,0,1.336,0.189,1.813,0.57c0.476,0.381,0.838,1.012,1.088,1.891l0.637-2.021L74.022,71.353z M67.716,72.274
			c-0.746,0-1.545,0.359-2.395,1.077c-1.216,0.996-2.293,2.479-3.23,4.449c-0.938,1.971-1.406,3.754-1.406,5.351
			c0,0.791,0.201,1.421,0.604,1.89s0.868,0.703,1.396,0.703c1.274,0,2.666-0.952,4.175-2.856c2.021-2.52,3.032-5.104,3.032-7.756
			c0-0.996-0.194-1.722-0.582-2.176C68.921,72.502,68.39,72.274,67.716,72.274z"/>
		<path d="M85.58,62.212L82.087,74.45c1.127-1.187,2.116-2,2.966-2.439s1.729-0.658,2.637-0.658c1.304,0,2.369,0.432,3.197,1.296
			c0.827,0.864,1.241,2.036,1.241,3.516c0,1.89-0.546,3.775-1.637,5.658c-1.092,1.882-2.454,3.347-4.087,4.395
			c-1.634,1.047-3.249,1.571-4.845,1.571c-1.787,0-3.619-0.667-5.494-2l5.384-18.501c0.41-1.436,0.615-2.278,0.615-2.526
			c0-0.309-0.095-0.535-0.286-0.682c-0.264-0.22-0.658-0.33-1.186-0.33c-0.25,0-0.631,0.045-1.143,0.133V63.2L85.58,62.212z
			 M78.725,85.985c1.187,0.646,2.227,0.967,3.12,0.967c1.04,0,2.117-0.377,3.23-1.131c1.113-0.755,2.08-2.036,2.9-3.846
			c0.82-1.809,1.23-3.629,1.23-5.46c0-1.084-0.268-1.934-0.803-2.549s-1.168-0.923-1.9-0.923c-1.099,0-2.176,0.439-3.23,1.318
			s-1.801,2.103-2.24,3.67L78.725,85.985z"/>
	</g>
	<g display="inline">
		<polygon points="96.68,109.917 100.983,109.917 100.983,40.084 96.68,40.084 96.68,34.344 105.701,34.344 105.701,115.656 
			96.68,115.656 		"/>
	</g>
</g>
<g id="Layer_12">
	<g>
		<path d="M55.222,34.111c0,0-10.222,0-10.222,10.222v20.444C45,64.778,45,75,34.778,75C34.778,75,45,75,45,85.223v20.443
			c0,0,0,10.223,10.222,10.223v-5.111c0,0-5.111,0-5.111-5.111c0-5.11,0-20.443,0-20.443S50.111,75,45,75c0,0,5.111,0,5.111-10.222
			s0-20.444,0-20.444s0-5.111,5.111-5.111V34.111z"/>
		<g>
			<g>
				<path d="M82.84,73.233l-2.352,8.064c2.197-3.297,3.887-5.464,5.066-6.504c1.178-1.04,2.311-1.56,3.395-1.56
					c0.586,0,1.068,0.197,1.449,0.593s0.572,0.901,0.572,1.517c0,0.716-0.17,1.662-0.506,2.833l-2.154,7.449
					c-0.248,0.865-0.373,1.393-0.373,1.582c0,0.162,0.047,0.297,0.143,0.406s0.195,0.164,0.297,0.164
					c0.133,0,0.301-0.072,0.506-0.219c0.629-0.498,1.318-1.252,2.064-2.264l0.551,0.33c-1.1,1.568-2.139,2.688-3.121,3.361
					c-0.688,0.455-1.303,0.682-1.846,0.682c-0.439,0-0.787-0.133-1.043-0.396c-0.258-0.264-0.385-0.615-0.385-1.055
					c0-0.57,0.197-1.545,0.594-2.922l2.064-7.119c0.25-0.879,0.373-1.566,0.373-2.064c0-0.235-0.076-0.425-0.23-0.572
					c-0.152-0.146-0.34-0.22-0.561-0.22c-0.322,0-0.717,0.14-1.186,0.417c-0.865,0.527-1.77,1.404-2.713,2.626
					c-0.945,1.223-1.945,2.779-3,4.668c-0.557,1.012-1.018,2.109-1.385,3.297l-0.879,2.922h-2.658l3.23-11.074
					c0.381-1.332,0.57-2.131,0.57-2.394c0-0.264-0.105-0.495-0.318-0.692c-0.213-0.198-0.465-0.297-0.758-0.297
					c-0.146,0-0.396,0.029-0.748,0.088l-0.68,0.088l-0.111-0.638L82.84,73.233z"/>
			</g>
			<g>
				<path d="M58.889,65.909l1.979-2.834c1.26-1.396,3.33-2.521,5.715-2.521c4.051,0,6.705,2.521,6.705,5.939
					c0,1.306-0.54,2.341-1.395,3.194c-0.676,0.721-1.756,1.531-3.061,2.431v0.09c3.96,0.765,6.255,3.556,6.255,6.838
					c0,7.291-8.55,10.621-11.79,10.621c-2.069,0-3.914-0.99-4.499-1.531c-0.63-0.584-0.81-1.08-0.72-1.619
					c0.045-0.586,0.629-1.17,1.035-1.484c0.359-0.271,0.719-0.316,1.08,0c1.17,1.035,3.014,2.295,5.579,2.295
					c3.194,0,5.444-2.385,5.444-6.84c0-4.141-3.149-5.804-5.715-5.804c-1.08,0-2.16,0.27-2.879,0.494l-0.315-1.305
					c4.14-1.305,7.2-3.061,7.2-6.39c0-2.79-1.891-4.229-4.275-4.229c-2.475,0-4.275,1.89-5.4,3.555L58.889,65.909z"/>
			</g>
		</g>
		<path d="M94.777,39.223c5.111,0,5.111,5.111,5.111,5.111s0,10.222,0,20.444S105,75,105,75c-5.111,0-5.111,10.223-5.111,10.223
			s0,15.333,0,20.443c0,5.111-5.111,5.111-5.111,5.111v5.111C105,115.889,105,105.666,105,105.666V85.223
			C105,75,115.223,75,115.223,75C105,75,105,64.778,105,64.778V44.333c0-10.222-10.223-10.222-10.223-10.222V39.223z"/>
	</g>
</g>
</svg>
