<svg xmlns="http://www.w3.org/2000/svg" width="80" height="80" viewBox="0 0 80 80">
  <g id="Group_2045" data-name="Group 2045" transform="translate(-430 -711)">
    <g id="Ellipse_101" data-name="Ellipse 101" transform="translate(430 711)" fill="#fff" stroke="rgba(240,80,80,0.5)" stroke-width="2">
      <circle cx="40" cy="40" r="40" stroke="none"/>
      <circle cx="40" cy="40" r="39" fill="none"/>
    </g>
    <g id="layers" transform="translate(451.001 725.02)">
      <path id="Path_1644" data-name="Path 1644" d="M40.227,45.319a1.247,1.247,0,0,1-1.179,0L24.681,37.912a.484.484,0,0,1,0-.855l14.094-7.54a1.247,1.247,0,0,1,1.166,0L48.412,32.3l-7.133-3.773a8.919,8.919,0,0,0-8.338,0L21.85,34.39a3.46,3.46,0,0,0-.018,6.111L32.9,46.435a8.919,8.919,0,0,0,8.43,0l3.993-2.142Z" transform="translate(-18.554 -18.566)" fill="#fcdcdc"/>
      <path id="Path_1645" data-name="Path 1645" d="M18.556,30.381a10.356,10.356,0,0,1-4.9-1.234L2.592,23.212a4.91,4.91,0,0,1,.025-8.67L13.709,8.675a10.358,10.358,0,0,1,9.694,0l11.091,5.867a4.91,4.91,0,0,1,.025,8.67L23.456,29.146A10.359,10.359,0,0,1,18.556,30.381Zm0-20.01a7.462,7.462,0,0,0-3.491.867L3.973,17.1a2.01,2.01,0,0,0-.01,3.552l11.063,5.934a7.45,7.45,0,0,0,7.059,0l11.064-5.934a2.01,2.01,0,0,0-.01-3.552L22.047,11.238a7.462,7.462,0,0,0-3.491-.867Zm-4.169-.414h0Zm9.069,32.309,12.891-6.914a1.45,1.45,0,1,0-1.37-2.555L22.085,39.711a7.453,7.453,0,0,1-7.065,0L2.129,32.866A1.45,1.45,0,1,0,.77,35.427l12.886,6.839a10.343,10.343,0,0,0,9.8,0Z" transform="translate(0)" fill="#f05050"/>
      <path id="Path_1646" data-name="Path 1646" d="M18.556,275.361a10.357,10.357,0,0,1-4.9-1.234L.77,267.288a1.45,1.45,0,0,1,1.359-2.561l12.891,6.842a7.453,7.453,0,0,0,7.065,0l12.891-6.914a1.45,1.45,0,1,1,1.37,2.555l-12.891,6.914a10.357,10.357,0,0,1-4.9,1.234Z" transform="translate(0 -238.385)" fill="#f05050"/>
    </g>
  </g>
</svg>
