<svg xmlns="http://www.w3.org/2000/svg" width="80" height="80" viewBox="0 0 80 80">
  <g id="Group_2042" data-name="Group 2042" transform="translate(-803 -711)">
    <g id="Ellipse_100" data-name="Ellipse 100" transform="translate(803 711)" fill="#fff" stroke="rgba(240,80,80,0.5)" stroke-width="2">
      <circle cx="40" cy="40" r="40" stroke="none"/>
      <circle cx="40" cy="40" r="39" fill="none"/>
    </g>
    <g id="video-player" transform="translate(825 733)">
      <path id="Path_1638" data-name="Path 1638" d="M28.36,21.826l-3.323.012A7.037,7.037,0,0,0,18,28.875v19.14a7.037,7.037,0,0,0,7.037,7.037L28.7,55.03a7.037,7.037,0,0,1-6.478-7.015V28.875A7.115,7.115,0,0,1,28.36,21.826Z" transform="translate(-16.733 -20.29)" fill="#fcdcdc"/>
      <path id="Path_1639" data-name="Path 1639" d="M27.585,36.029H8.444A8.454,8.454,0,0,1,0,27.585V8.444A8.454,8.454,0,0,1,8.444,0h19.14a8.454,8.454,0,0,1,8.444,8.444v19.14A8.454,8.454,0,0,1,27.585,36.029ZM8.444,2.815a5.636,5.636,0,0,0-5.63,5.63v19.14a5.636,5.636,0,0,0,5.63,5.63h19.14a5.636,5.636,0,0,0,5.63-5.63V8.444a5.636,5.636,0,0,0-5.63-5.63ZM30.54,26.67a1.407,1.407,0,0,0-1.407-1.407H6.9a1.407,1.407,0,1,0,0,2.815H29.133A1.407,1.407,0,0,0,30.54,26.67Z" fill="#f05050"/>
      <path id="Path_1640" data-name="Path 1640" d="M180.242,136.924a3.249,3.249,0,0,1-1.611-.432,3.186,3.186,0,0,1-1.632-2.8v-5.509a3.186,3.186,0,0,1,1.632-2.8,3.219,3.219,0,0,1,3.273.031l4.635,2.754a3.215,3.215,0,0,1,0,5.535l-4.635,2.754A3.247,3.247,0,0,1,180.242,136.924Zm.224-2.882,4.635-2.754a.4.4,0,0,0,0-.7l-4.635-2.754a.426.426,0,0,0-.443,0,.389.389,0,0,0-.209.352v5.509a.389.389,0,0,0,.209.352A1.337,1.337,0,0,0,180.466,134.042Z" transform="translate(-164.545 -116.162)" fill="#f05050"/>
    </g>
  </g>
</svg>
