<svg xmlns="http://www.w3.org/2000/svg" width="80" height="80" viewBox="0 0 80 80">
  <g id="Group_2047" data-name="Group 2047" transform="translate(-1005 -711)">
    <g id="Group_2043" data-name="Group 2043">
      <g id="Ellipse_102" data-name="Ellipse 102" transform="translate(1005 711)" fill="#fff" stroke="rgba(240,80,80,0.5)" stroke-width="2">
        <circle cx="40" cy="40" r="40" stroke="none"/>
        <circle cx="40" cy="40" r="39" fill="none"/>
      </g>
    </g>
    <g id="pen" transform="translate(1027 731.496)">
      <path id="Path_1649" data-name="Path 1649" d="M205.735,42.325a9.659,9.659,0,0,1-1.623-5.359V24.111a4.1,4.1,0,0,1,2.054-3.556,4.106,4.106,0,0,0-6.161,3.556V37.655a9.659,9.659,0,0,0,1.623,5.359l2.484,3.619L206.4,43.3Z" transform="translate(-185.859 -18.63)" fill="#fcdcdc"/>
      <path id="Path_1650" data-name="Path 1650" d="M18.286,30.169a1.406,1.406,0,0,1-1.159-.61l-2.552-3.717-.011-.016a11.291,11.291,0,0,1-1.9-6.284V5.63a5.625,5.625,0,0,1,11.25,0V19.541a11.291,11.291,0,0,1-1.9,6.284L22,25.841l-2.552,3.717a1.407,1.407,0,0,1-1.16.61ZM16.9,24.257l1.387,2.021,1.387-2.021A8.488,8.488,0,0,0,21.1,19.541V5.63a2.813,2.813,0,0,0-5.625,0V19.541A8.488,8.488,0,0,0,16.9,24.257ZM36.005,34.6A1.406,1.406,0,0,0,34.6,33.193H1.411a1.406,1.406,0,1,0,0,2.812H34.6A1.406,1.406,0,0,0,36.005,34.6Z" transform="translate(-0.005 0)" fill="#f05050"/>
      <path id="Path_1651" data-name="Path 1651" d="M26.76,233.255a1.422,1.422,0,0,1-.985-.392,1.344,1.344,0,0,1-.018-1.936l3.392-3.364a1.433,1.433,0,0,1,1.989-.018,1.344,1.344,0,0,1,.018,1.936l-3.392,3.364A1.421,1.421,0,0,1,26.76,233.255Zm2.367,4.553,5.8-1.36a1.368,1.368,0,0,0,1.038-1.652,1.408,1.408,0,0,0-1.7-1.01l-5.8,1.36A1.368,1.368,0,0,0,27.43,236.8a1.4,1.4,0,0,0,1.366,1.049A1.445,1.445,0,0,0,29.127,237.808Zm3.358-13.342a1.758,1.758,0,1,0,1.758-1.711A1.735,1.735,0,0,0,32.485,224.466Zm-22.259,8.4a1.344,1.344,0,0,0,.018-1.936l-3.392-3.364a1.433,1.433,0,0,0-1.989-.018,1.344,1.344,0,0,0-.018,1.936l3.392,3.364a1.433,1.433,0,0,0,1.989.018ZM8.57,236.8a1.368,1.368,0,0,0-1.038-1.652l-5.8-1.36a1.408,1.408,0,0,0-1.7,1.01,1.368,1.368,0,0,0,1.038,1.652l5.8,1.36a1.444,1.444,0,0,0,.331.038A1.4,1.4,0,0,0,8.57,236.8ZM1.758,222.755a1.712,1.712,0,1,0,0,3.423,1.712,1.712,0,1,0,0-3.423Z" transform="translate(0 -206.55)" fill="#f05050"/>
    </g>
  </g>
</svg>
