<svg xmlns="http://www.w3.org/2000/svg" width="23.747" height="24.92" viewBox="0 0 23.747 24.92">
    <defs>
        <style>
            .cls-1{fill:#ffffff}
        </style>
    </defs>
    <g id="Files" transform="translate(-1139.136 -4673.432)">
        <path id="Path_612" d="M1142.508 4692.029v-1.715h6.059a7.607 7.607 0 0 1 .564-1.716h-6.623v-1.715h7.7a7.748 7.748 0 0 1 1.913-1.637h-9.617v-1.716h11.93v.779a7.5 7.5 0 0 1 3.412.017v-9.957a.938.938 0 0 0-.935-.936h-11.95l-5.828 5.965v16.647a.939.939 0 0 0 .936.936h10.356a7.65 7.65 0 0 1-2-4.952zm6.862-11.93h5.068v1.715h-5.068z" class="cls-1"/>
        <path id="Path_613" d="M1161.95 4691.553a6.466 6.466 0 1 0 6.466 6.466 6.466 6.466 0 0 0-6.466-6.466zm3.134 7.082l-2.613 2.613a.757.757 0 0 1-1.067 0l-2.589-2.589a.754.754 0 1 1 1.067-1.067l1.427 1.427v-3.693a.665.665 0 0 1 .66-.66.661.661 0 0 1 .661.66v3.628l1.386-1.386a.754.754 0 0 1 1.067 1.066z" class="cls-1" transform="translate(-5.533 -6.133)"/>
    </g>
</svg>
