<svg xmlns="http://www.w3.org/2000/svg" width="20.896" height="26.502" viewBox="0 0 20.896 26.502">
    <g>
        <g>
            <path fill="#ffbebe" d="M39.366 42.588a1.152 1.152 0 0 1-.178-.533 6.391 6.391 0 0 0-.979-2.854 2.994 2.994 0 0 1-.623.24l-2.137.587a16.964 16.964 0 0 1-4.184.56 15.787 15.787 0 0 1-4.184-.56l-2.166-.587a2.736 2.736 0 0 1-.5-.187h-.03a6.538 6.538 0 0 0-.979 3.441 7.949 7.949 0 0 0 3.175 6.135.9.9 0 0 1 .386.694V53.6a.641.641 0 0 0 .623.614l6.826.533a.661.661 0 0 0 .742-.614v-2.876a.375.375 0 0 1 .386-.347h2.4a1.268 1.268 0 0 0 1.335-1.2v-2.881a.247.247 0 0 1 .237-.24h1.157a.8.8 0 0 0 .742-1.227z" transform="translate(-14.8 -3.5) translate(14.8 3.5) translate(-20.848 -28.251)"/>
            <path fill="#e9373f" d="M35.247 5.26l-8.665-2.582a5.1 5.1 0 0 0-2.671 0L15.245 5.26a.638.638 0 0 0 0 1.217l.356.089V9.86h-.089a.266.266 0 0 0-.267.267v1.424a.266.266 0 0 0 .267.267h.059l-.445.89a.263.263 0 0 0 .237.386h1.365a.263.263 0 0 0 .237-.386l-.445-.89h.059a.266.266 0 0 0 .267-.267v-1.424a.266.266 0 0 0-.267-.267h-.089V6.833l1.959.594v3.027a1.371 1.371 0 0 0 .979 1.306l2.166.623a12.537 12.537 0 0 0 7.241 0L31 11.759a1.362 1.362 0 0 0 .979-1.306v-3l3.294-.979a.644.644 0 0 0-.026-1.214z" transform="translate(-14.8 -3.5) translate(14.8 3.5) translate(-14.8 -2.5)"/>
        </g>
    </g>
</svg>
