<svg xmlns="http://www.w3.org/2000/svg" width="52" height="52" viewBox="0 0 52 52">
    <defs>
        <filter id="Ellipse_4" width="52" height="52" x="0" y="0" filterUnits="userSpaceOnUse">
            <feOffset/>
            <feGaussianBlur result="blur" stdDeviation="2"/>
            <feFlood flood-opacity=".102"/>
            <feComposite in2="blur" operator="in"/>
            <feComposite in="SourceGraphic"/>
        </filter>
        <style>
            .cls-2{fill:#fff}
        </style>
    </defs>
    <g id="Group_602" transform="translate(6.435 6)">
        <g filter="url(#Ellipse_4)" transform="translate(-6.43 -6)">
            <g id="Ellipse_4-2" fill="#0068b3" stroke="#fff" stroke-width="0.5px" transform="translate(6 6)">
                <circle cx="20" cy="20" r="20" stroke="none"/>
                <circle cx="20" cy="20" r="19.75" fill="none"/>
            </g>
        </g>
        <g id="Group_10" transform="translate(11.551 12.053)">
            <g id="Group_9">
                <path id="Path_13" d="M2135.08 1093.958h3.341v10.356h-3.341z" class="cls-2" transform="translate(-2134.762 -1088.676)"/>
                <path id="Path_14" d="M2149.1 1093.66a4.335 4.335 0 0 0-3.794 1.775v-1.552h-3.078v10.356h3.341v-5.2c0-1.5.691-2.673 2-2.673s1.528 1.456 1.528 3.246v4.629h3.34V1097a3.341 3.341 0 0 0-3.337-3.34z" class="cls-2" transform="translate(-2136.561 -1088.601)"/>
                <path id="Path_15" d="M2138.632 1088.888a1.988 1.988 0 1 1-1.989-1.989 1.989 1.989 0 0 1 1.989 1.989z" class="cls-2" transform="translate(-2134.655 -1086.899)"/>
            </g>
        </g>
    </g>
</svg>
