<svg xmlns="http://www.w3.org/2000/svg" width="80" height="80" viewBox="0 0 80 80">
  <g id="Group_2044" data-name="Group 2044" transform="translate(-632 -711)">
    <g id="Ellipse_97" data-name="Ellipse 97" transform="translate(632 711)" fill="#fff" stroke="rgba(240,80,80,0.5)" stroke-width="2">
      <circle cx="40" cy="40" r="40" stroke="none"/>
      <circle cx="40" cy="40" r="39" fill="none"/>
    </g>
    <g id="monitor" transform="translate(654 733.491)">
      <path id="Path_1635" data-name="Path 1635" d="M25.293,66.58V55.034A7.025,7.025,0,0,1,32.309,48H28.037A7.037,7.037,0,0,0,21,55.037V66.577a7.037,7.037,0,0,0,7.037,7.037h4.273A7.025,7.025,0,0,1,25.293,66.58Z" transform="translate(-19.522 -44.622)" fill="rgba(240,80,80,0.2)"/>
      <path id="Path_1636" data-name="Path 1636" d="M27.585,56.429H8.443A8.452,8.452,0,0,1,0,47.986V36.444A8.454,8.454,0,0,1,8.444,28h9.429a1.407,1.407,0,0,1,0,2.815H8.444a5.636,5.636,0,0,0-5.63,5.63V47.986a5.634,5.634,0,0,0,5.628,5.628H27.585a5.636,5.636,0,0,0,5.63-5.63V42.848a1.407,1.407,0,1,1,2.815,0v5.137A8.454,8.454,0,0,1,27.585,56.429ZM18.366,37.711a4.433,4.433,0,1,0-4.433,4.433A4.438,4.438,0,0,0,18.366,37.711Zm-2.815,0a1.618,1.618,0,1,1-1.618-1.618A1.62,1.62,0,0,1,15.552,37.711Zm10.626,22.94a1.407,1.407,0,0,0-1.407-1.407H11.259a1.407,1.407,0,0,0,0,2.815H24.77A1.407,1.407,0,0,0,26.177,60.651Z" transform="translate(0 -26.03)" fill="#f05050"/>
      <path id="Path_1637" data-name="Path 1637" d="M119.7,24.7a1.407,1.407,0,0,1-1.407-1.407,2.832,2.832,0,0,0-2.843-2.815h-.787a2.832,2.832,0,0,0-2.843,2.815,1.407,1.407,0,0,1-2.815,0,5.65,5.65,0,0,1,5.658-5.63h.787a5.65,5.65,0,0,1,5.658,5.63A1.407,1.407,0,0,1,119.7,24.7Zm6.281-10.768a1.687,1.687,0,0,1,.627.145,8.806,8.806,0,0,0,3.306.771,7.417,7.417,0,1,0-7.4-7.359V13.44a1.407,1.407,0,0,0,1.407,1.408c.931,0,1.227-.916,2.06-.916Zm3.927-1.9a4.549,4.549,0,0,1-2.046-.476,4.187,4.187,0,0,0-2.533-.387V7.483s0-.009,0-.014a4.609,4.609,0,1,1,9.218,0,4.635,4.635,0,0,1-4.634,4.564h0Z" transform="translate(-101.33)" fill="#f05050"/>
    </g>
  </g>
</svg>
