<svg xmlns="http://www.w3.org/2000/svg" width="120.032" height="120.031" viewBox="0 0 120.032 120.031">
    <defs>
        <style>
            .cls-1{fill:#ffa4a4}.cls-6{fill:#fff}.cls-5{fill:rgba(0,0,0,.8)}.cls-6{opacity:.5}
        </style>
    </defs>
    <g id="Group_651" transform="translate(-214.5 -319.388)">
        <path id="Path_614" d="M247.952 359.571l-1.369 12.729 6.452 8.752 8.439-9.321 14.322 2.16-11.367-22.731z" class="cls-1" transform="translate(55.439 54.902)"/>
        <path id="Path_615" d="M265.519 360.046l-7.851 21.483-9.424-12.424-12.619 4.354 10.8-22.245z" class="cls-1" transform="translate(36.503 54.995)"/>
        <circle id="Ellipse_24" cx="22.469" cy="22.469" r="22.469" fill="#fff" transform="rotate(-80.759 378.799 42.99)"/>
        <circle id="Ellipse_25" cx="7.151" cy="7.151" r="7.151" fill="#f77" transform="translate(294.172 384.248)"/>
        <path id="Path_616" fill="#f05050" d="M267.369 379.517l5.115-15.118 12.287-7.161 19.653 1.366v-21.94l-10.4-10.4H232.36l-11.224 11.225v30.031L233 379.388z" transform="translate(11.466 11.882)"/>
        <g id="Group_650" transform="translate(214.5 319.388)">
            <path id="Path_617" d="M217.072 408.781a2.575 2.575 0 0 1-2.572-2.573V321.96a2.575 2.575 0 0 1 2.572-2.572h114.887a2.575 2.575 0 0 1 2.572 2.572v53.613a2.572 2.572 0 1 1-5.145 0v-49.785a1.256 1.256 0 0 0-1.258-1.255H220.9a1.257 1.257 0 0 0-1.258 1.255v76.591a1.258 1.258 0 0 0 1.258 1.258h45.956a2.573 2.573 0 0 1 0 5.145z" class="cls-5" transform="translate(-214.5 -319.388)"/>
            <path id="Path_618" d="M233.919 335.763a2.572 2.572 0 1 1 0-5.145h22.975a2.572 2.572 0 1 1 0 5.145z" class="cls-6" transform="translate(-185.39 -299.983)"/>
            <path id="Path_619" d="M229.706 339.977a2.574 2.574 0 0 1 0-5.148h30.638a2.574 2.574 0 0 1 0 5.148z" class="cls-6" transform="translate(-192.669 -292.706)"/>
            <path id="Path_620" d="M229.706 344.186a2.573 2.573 0 0 1 0-5.145h19.148a2.573 2.573 0 1 1 0 5.145z" class="cls-6" transform="translate(-192.669 -285.428)"/>
            <path id="Path_621" d="M299.278 429.717a2.57 2.57 0 0 1-2.139-1.146l-5.093-7.641a1.258 1.258 0 0 0-1.045-.559h-.079a1.252 1.252 0 0 0-1.045.693l-3.615 7.226a2.589 2.589 0 0 1-2.141 1.419c-.046 0-.1.006-.161.006a2.566 2.566 0 0 1-2.139-1.148l-6.165-9.242a1.259 1.259 0 0 0-1.045-.559 1.3 1.3 0 0 0-.306.035l-12.7 3.175a2.529 2.529 0 0 1-.611.074 2.612 2.612 0 0 1-2.021-.958 2.585 2.585 0 0 1-.292-2.761l11.272-22.541a1.264 1.264 0 0 0-.057-1.225 25.206 25.206 0 0 1-3.533-9.728 1.257 1.257 0 0 0-1.244-1.078h-31.484a2.566 2.566 0 0 1-2.488-1.929 12.694 12.694 0 0 0-9.1-9.1 2.573 2.573 0 0 1-1.931-2.491V338.52a2.573 2.573 0 0 1 1.931-2.488 12.686 12.686 0 0 0 9.1-9.1 2.571 2.571 0 0 1 2.488-1.932h62.356a2.571 2.571 0 0 1 2.491 1.929 12.686 12.686 0 0 0 9.1 9.1 2.568 2.568 0 0 1 1.931 2.488v23.944a1.261 1.261 0 0 0 .357.881 25.38 25.38 0 0 1 3.473 31.222 1.256 1.256 0 0 0-.055 1.225l11.272 22.541a2.575 2.575 0 0 1-2.289 3.726 2.546 2.546 0 0 1-.628-.079l-12.71-3.178a1.275 1.275 0 0 0-.3-.035 1.26 1.26 0 0 0-1.048.559l-6.162 9.245a2.575 2.575 0 0 1-2.145 1.149zm9.731-29.421a1.257 1.257 0 0 0-.818.3 25.662 25.662 0 0 1-10.255 5.319 1.256 1.256 0 0 0-.813.655l-3.3 6.6a1.263 1.263 0 0 0 .079 1.26l4.335 6.5a1.258 1.258 0 0 0 2.092 0l4.471-6.708a2.56 2.56 0 0 1 2.133-1.149 2.524 2.524 0 0 1 .622.079l7.248 1.811a1.3 1.3 0 0 0 .306.038 1.257 1.257 0 0 0 1.124-1.82l-6.1-12.2a1.257 1.257 0 0 0-1.124-.693zM276.3 413.079a2.6 2.6 0 0 1 2.139 1.149l4 6a1.255 1.255 0 0 0 1.045.559h.079a1.252 1.252 0 0 0 1.045-.693l5.824-11.648a1.257 1.257 0 0 0-1.015-1.814 25.33 25.33 0 0 1-14.371-6.032 1.25 1.25 0 0 0-.816-.3 1.3 1.3 0 0 0-.251.025 1.255 1.255 0 0 0-.873.668l-6.1 12.2a1.256 1.256 0 0 0 1.429 1.781l7.24-1.809a2.488 2.488 0 0 1 .625-.086zm15.318-52.3a20.642 20.642 0 1 0 12.669 4.531l-.1-.076a19.022 19.022 0 0 0-1.668-1.234c-.4-.251-.794-.456-1.178-.652l-.663-.347a15.406 15.406 0 0 0-1.52-.734 15.824 15.824 0 0 0-1.686-.537l-.319-.09c-.147-.044-.3-.09-.453-.139a10.651 10.651 0 0 0-1.192-.322 20.075 20.075 0 0 0-3.887-.396zm-55.272-30.635a1.257 1.257 0 0 0-1.151.753 17.766 17.766 0 0 1-9.182 9.182 1.26 1.26 0 0 0-.756 1.151v26.292a1.257 1.257 0 0 0 .756 1.151 17.771 17.771 0 0 1 9.182 9.185 1.261 1.261 0 0 0 1.151.753h28.737a1.257 1.257 0 0 0 1.244-1.075c.022-.15.055-.3.085-.447.027-.131.055-.262.079-.4l.011-.074c.057-.314.112-.63.18-.941.106-.477.232-.941.36-1.4l.082-.289c.06-.215.12-.431.188-.644.147-.461.319-.906.526-1.435l.126-.327c.06-.158.117-.316.185-.472.24-.562.521-1.118.786-1.634.046-.087.093-.185.139-.281.035-.076.071-.153.112-.224.393-.715.81-1.4 1.236-2.035.019-.027.044-.057.065-.087q.074-.094.139-.188c.428-.614.821-1.143 1.206-1.612.1-.117.2-.226.3-.338l.21-.237c.355-.406.7-.8 1.069-1.173.145-.15.289-.284.437-.42l.21-.2c.382-.363.728-.685 1.08-.988.237-.2.488-.393.739-.586.374-.295.747-.581 1.135-.851.267-.188.54-.366.818-.546.382-.245.78-.488 1.184-.717.289-.166.584-.327.878-.483.4-.207.824-.406 1.247-.6.306-.139.611-.276.922-.4.434-.175.878-.333 1.323-.486l.221-.076c.237-.082.475-.164.717-.235.464-.139.93-.251 1.427-.368l.333-.082c.2-.049.4-.1.6-.139.507-.1 1.037-.172 1.629-.248.12-.016.235-.033.352-.052.15-.022.3-.046.453-.06a24.889 24.889 0 0 1 2.5-.128 25.516 25.516 0 0 1 2.753.155c.106.011.21.03.311.046s.21.035.316.049c.818.109 1.481.221 2.09.355.117.025.237.057.355.09l.311.082c.747.185 1.394.371 1.975.567.136.046.27.1.406.147l.237.087c.7.256 1.32.513 1.91.786q.111.049.221.09l.063.025a1.3 1.3 0 0 0 .527.112 1.267 1.267 0 0 0 1.271-1.244v-15.745a1.261 1.261 0 0 0-.753-1.151 17.761 17.761 0 0 1-9.185-9.182 1.254 1.254 0 0 0-1.151-.753z" class="cls-5" transform="translate(-204.797 -309.685)"/>
            <path id="Path_622" d="M252.809 362.313a10.233 10.233 0 1 1 10.23-10.233 10.245 10.245 0 0 1-10.23 10.233zm0-15.32a5.086 5.086 0 1 0 5.085 5.088 5.095 5.095 0 0 0-5.085-5.088z" class="cls-5" transform="translate(-165.985 -280.577)"/>
        </g>
    </g>
</svg>
