<svg xmlns="http://www.w3.org/2000/svg" width="13.639" height="20.133" viewBox="0 0 13.639 20.133">
  <g id="Group_2041" data-name="Group 2041" transform="translate(-34 -785.867)">
    <g id="noun_Mobile_2836666" transform="translate(23 784.867)">
      <g id="Group_2035" data-name="Group 2035" transform="translate(11 1)">
        <path id="Path_1648" data-name="Path 1648" d="M22.041,1H13.6A2.6,2.6,0,0,0,11,3.6V18.535a2.6,2.6,0,0,0,2.6,2.6h8.443a2.6,2.6,0,0,0,2.6-2.6V3.6A2.6,2.6,0,0,0,22.041,1Zm-.649,1.624a.649.649,0,1,1-.649.649A.65.65,0,0,1,21.391,2.624Zm1.3,13.963H12.948V4.9H22.69Z" transform="translate(-11 -1)" fill="#e9373f"/>
      </g>
    </g>
    <rect id="Rectangle_280" data-name="Rectangle 280" width="6" height="1.6" rx="0.8" transform="translate(38 803)" fill="#ffbebe"/>
  </g>
</svg>
