<svg xmlns="http://www.w3.org/2000/svg" xmlns:xlink="http://www.w3.org/1999/xlink" width="154" height="54" viewBox="0 0 154 54">
  <defs>
    <filter id="Rectangle_273" x="0" y="0" width="154" height="54" filterUnits="userSpaceOnUse">
      <feOffset dy="3" input="SourceAlpha"/>
      <feGaussianBlur stdDeviation="3" result="blur"/>
      <feFlood flood-opacity="0.161"/>
      <feComposite operator="in" in2="blur"/>
      <feComposite in="SourceGraphic"/>
    </filter>
    <filter id="Ellipse_94" x="13" y="9" width="32" height="31" filterUnits="userSpaceOnUse">
      <feOffset input="SourceAlpha"/>
      <feGaussianBlur stdDeviation="1" result="blur-2"/>
      <feFlood flood-opacity="0.161"/>
      <feComposite operator="in" in2="blur-2"/>
      <feComposite in="SourceGraphic"/>
    </filter>
  </defs>
  <g id="Group_2032" data-name="Group 2032" transform="translate(-78 -1239)">
    <g transform="matrix(1, 0, 0, 1, 78, 1239)" filter="url(#Rectangle_273)">
      <rect id="Rectangle_273-2" data-name="Rectangle 273" width="136" height="36" rx="18" transform="translate(9 6)" fill="#fff"/>
    </g>
    <g id="Group_692" data-name="Group 692" transform="translate(94.165 1250.573)">
      <g id="Group_2031" data-name="Group 2031" transform="translate(0 0)">
        <g transform="matrix(1, 0, 0, 1, -16.16, -11.57)" filter="url(#Ellipse_94)">
          <g id="Ellipse_94-2" data-name="Ellipse 94" transform="translate(16 12)" fill="#f05050" stroke="#fff" stroke-width="1">
            <ellipse cx="13" cy="12.5" rx="13" ry="12.5" stroke="none"/>
            <ellipse cx="13" cy="12.5" rx="12.5" ry="12" fill="none"/>
          </g>
        </g>
      </g>
      <g id="noun_play_5206" transform="translate(9.2 8.226)">
        <path id="Path_1634" data-name="Path 1634" d="M38.383,34.178c-.216-.217-.769-.217-.769,0V43c0,.218.554.218.771,0l7.245-4.021a.555.555,0,0,0,0-.785Z" transform="translate(-37.614 -34.015)" fill="#fff"/>
      </g>
    </g>
    <text id="Watch_Video" data-name="Watch Video" transform="translate(128 1267)" font-size="12" font-family="Montserrat-Bold, Montserrat" font-weight="700"><tspan x="0" y="0">Watch Video</tspan></text>
  </g>
</svg>
