<svg xmlns="http://www.w3.org/2000/svg" width="24.52" height="24.52" viewBox="0 0 24.52 24.52">
    <g transform="translate(-862.586 -393)">
        <g>
            <g>
                <path fill="#ffbebe" d="M38.063 14.418a.864.864 0 0 0-.789-.789c-2.324-.2-9.971-.1-16.1 8.468 0 0-6.529-1.687-7.581 6.661a.851.851 0 0 0 .9.949 14.978 14.978 0 0 0 4.083-.893.371.371 0 0 1 .5.4 2.775 2.775 0 0 0 .928 2.481 2.775 2.775 0 0 0 2.481.928.372.372 0 0 1 .4.5 14.972 14.972 0 0 0-.893 4.084.85.85 0 0 0 .948.894c8.349-1.052 6.662-7.582 6.662-7.582 8.56-6.13 8.656-13.777 8.461-16.101zm-10.2 9.41a2.745 2.745 0 0 1 0-4.249 2.771 2.771 0 0 1 4.249 0 2.674 2.674 0 0 1 0 4.249c-1.332 1.334-2.744 1.505-4.248.001z" transform="translate(862.586 393) translate(-13.586 -13.586)"/>
                <path fill="#e9373f" d="M22.883 67.447h-.01a.419.419 0 0 0-.52.165 2.674 2.674 0 0 1-2.579 1.25 2.674 2.674 0 0 1 1.25-2.579.419.419 0 0 0 .165-.52v-.01a.434.434 0 0 0-.434-.264c-1.045.084-4.218.733-3.161 5.556 4.823 1.057 5.472-2.116 5.556-3.161a.434.434 0 0 0-.267-.437z" transform="translate(862.586 393) translate(-16.102 -48.01)"/>
            </g>
        </g>
        <circle cx="2" cy="2" r="2" fill="#f05050" transform="translate(877 399)"/>
    </g>
</svg>
