<svg xmlns="http://www.w3.org/2000/svg" width="29.817" height="37.816" viewBox="0 0 29.817 37.816">
    <g>
        <g>
            <path fill="#ffbebe" d="M46.182 44.034a1.644 1.644 0 0 1-.254-.761 9.12 9.12 0 0 0-1.4-4.073 4.272 4.272 0 0 1-.889.343l-3.049.837a24.206 24.206 0 0 1-5.971.8 22.527 22.527 0 0 1-5.971-.8l-3.091-.837a3.9 3.9 0 0 1-.72-.266H24.8a9.329 9.329 0 0 0-1.4 4.91 11.342 11.342 0 0 0 4.531 8.754 1.28 1.28 0 0 1 .55.99v5.823a.914.914 0 0 0 .889.875l9.74.761a.943.943 0 0 0 1.059-.875V56.4a.535.535 0 0 1 .55-.495h3.43a1.809 1.809 0 0 0 1.906-1.705v-4.114a.352.352 0 0 1 .339-.343h1.651a1.139 1.139 0 0 0 1.055-1.751z" transform="translate(-14.8 -3.5) translate(14.8 3.5) translate(-19.758 -23.577)"/>
            <path fill="#e9373f" d="M43.976 6.438L31.611 2.754a7.273 7.273 0 0 0-3.811 0L15.435 6.438a.911.911 0 0 0 0 1.736l.508.127V13h-.127a.38.38 0 0 0-.381.381v2.033a.38.38 0 0 0 .381.381h.084l-.635 1.27a.375.375 0 0 0 .339.55h1.948a.375.375 0 0 0 .339-.55l-.635-1.27h.085a.38.38 0 0 0 .381-.381v-2.031a.38.38 0 0 0-.381-.383h-.127V8.682l2.795.847v4.319a1.956 1.956 0 0 0 1.4 1.863l3.091.889a17.888 17.888 0 0 0 10.332 0l3.091-.889a1.944 1.944 0 0 0 1.4-1.863V9.572l4.7-1.4a.918.918 0 0 0-.047-1.734z" transform="translate(-14.8 -3.5) translate(14.8 3.5) translate(-14.8 -2.5)"/>
        </g>
    </g>
</svg>
