<svg xmlns="http://www.w3.org/2000/svg" width="40" height="40" viewBox="0 0 40 40">
    <g>
        <g transform="translate(-1204 -109) translate(1204.391 109)">
            <circle cx="20" cy="20" r="20" fill="#009ddd" transform="translate(-.391)"/>
        </g>
        <g>
            <path fill="#fff" d="M982.135 452.967a7.341 7.341 0 0 1-2.117.58 3.7 3.7 0 0 0 1.621-2.039 7.38 7.38 0 0 1-2.341.894 3.689 3.689 0 0 0-6.281 3.362 10.462 10.462 0 0 1-7.6-3.851 3.692 3.692 0 0 0 1.141 4.921 3.67 3.67 0 0 1-1.669-.461v.047a3.688 3.688 0 0 0 2.957 3.613 3.675 3.675 0 0 1-.971.129 3.73 3.73 0 0 1-.693-.065 3.689 3.689 0 0 0 3.443 2.559 7.4 7.4 0 0 1-4.578 1.578 7.481 7.481 0 0 1-.879-.052 10.482 10.482 0 0 0 16.137-8.831q0-.24-.011-.477a7.48 7.48 0 0 0 1.839-1.908zm0 0" transform="translate(-1204 -109) translate(1215.15 121.96) translate(-964.17 -451.239)"/>
        </g>
    </g>
</svg>
