<svg xmlns="http://www.w3.org/2000/svg" width="52" height="52" viewBox="0 0 52 52">
    <defs>
        <filter id="eu3oc3adta" width="52" height="52" x="0" y="0" filterUnits="userSpaceOnUse">
            <feOffset/>
            <feGaussianBlur result="blur" stdDeviation="2"/>
            <feFlood flood-opacity=".102"/>
            <feComposite in2="blur" operator="in"/>
            <feComposite in="SourceGraphic"/>
        </filter>
    </defs>
    <g>
        <g filter="url(#eu3oc3adta)" transform="translate(6 6) translate(-6 -6)">
            <g fill="#50b748" stroke="#fff" stroke-width="0.5px" transform="translate(6 6)">
                <circle cx="20" cy="20" r="20" stroke="none"/>
                <circle cx="20" cy="20" r="19.75" fill="none"/>
            </g>
        </g>
        <path fill="#edefee" fill-rule="evenodd" d="M1603.949 441.766c-.208-.114-1.227-.665-1.418-.742s-.331-.118-.48.088-.572.667-.7.8-.253.15-.461.036a5.769 5.769 0 0 1-1.66-1.112 6.35 6.35 0 0 1-1.121-1.507c-.117-.216 0-.327.109-.427s.221-.24.331-.359a1.46 1.46 0 0 0 .224-.344.389.389 0 0 0 0-.37c-.049-.108-.432-1.164-.592-1.593s-.339-.366-.462-.37-.264-.027-.4-.033a.778.778 0 0 0-.573.243 2.37 2.37 0 0 0-.806 1.735 4.107 4.107 0 0 0 .781 2.218 8.671 8.671 0 0 0 3.49 3.326c2.117.927 2.129.645 2.517.624a2.14 2.14 0 0 0 1.464-.952 1.762 1.762 0 0 0 .161-1c-.05-.09-.189-.148-.4-.261zm-3.883 5.012a6.852 6.852 0 0 1-3.791-1.14l-2.649.848.861-2.56a6.889 6.889 0 1 1 5.579 2.852zm0-15.173a8.281 8.281 0 0 0-7.091 12.555l-1.495 4.442 4.584-1.467a8.28 8.28 0 1 0 4-15.53z" transform="translate(6 6) translate(-1579.426 -419.779)"/>
    </g>
</svg>
