<?xml version="1.0" encoding="iso-8859-1"?>
<!-- Generator: Adobe Illustrator 20.1.0, SVG Export Plug-In . SVG Version: 6.00 Build 0)  -->
<svg version="1.1" id="Layer_1" xmlns="http://www.w3.org/2000/svg" xmlns:xlink="http://www.w3.org/1999/xlink" x="0px" y="0px"
	 viewBox="0 0 20 20" style="enable-background:new 0 0 20 20;" xml:space="preserve">
<g>
	<path style="fill:#f05050;stroke:#f05050;stroke-width:0.25;stroke-miterlimit:10;" d="M10,1.393c-4.958,0-9,3.474-9,7.823
		c0,2.524,1.383,4.721,3.506,6.157c-0.003,0.084,0.003,0.221-0.107,0.632c-0.138,0.508-0.416,1.224-0.978,2.03l-0.4,0.573H3.72
		c2.422,0,3.824-1.579,4.042-1.832c0.72,0.169,1.463,0.262,2.238,0.262c4.958,0,9-3.474,9-7.822C19,4.867,14.958,1.393,10,1.393
		L10,1.393z M10,2.122c4.62,0,8.27,3.198,8.27,7.093c0,3.894-3.651,7.093-8.27,7.093c-0.8,0-1.555-0.077-2.263-0.262l-0.227-0.06
		l-0.149,0.183c0,0-1.133,1.279-2.942,1.587c0.328-0.592,0.57-1.144,0.682-1.561c0.158-0.581,0.161-0.974,0.161-0.974V15.02
		l-0.169-0.107C3.021,13.594,1.73,11.553,1.73,9.215C1.73,5.321,5.38,2.122,10,2.122L10,2.122z M6.075,8.43
		c-0.434,0-0.785,0.351-0.785,0.785C5.29,9.649,5.641,10,6.075,10C6.509,10,6.86,9.649,6.86,9.215C6.86,8.781,6.509,8.43,6.075,8.43
		L6.075,8.43z M10,8.43c-0.434,0-0.785,0.351-0.785,0.785C9.215,9.649,9.566,10,10,10s0.785-0.351,0.785-0.785
		C10.785,8.781,10.434,8.43,10,8.43L10,8.43z M13.925,8.43c-0.434,0-0.785,0.351-0.785,0.785c0,0.434,0.351,0.785,0.785,0.785
		c0.434,0,0.785-0.351,0.785-0.785C14.71,8.781,14.359,8.43,13.925,8.43L13.925,8.43z"/>
</g>
</svg>
