<svg xmlns="http://www.w3.org/2000/svg" viewBox="0 0 80 80" width="100" height="100" style="fill: #F05050;">
    <path d="M 57.408203 7 C 52.185822 7 48 11.524071 48 17 C 48 22.475929 52.185822 27 57.408203 27 L 70.591797 27 C 75.814178 27 80 22.475929 80 17 C 80 11.524071 75.814178 7 70.591797 7 L 57.408203 7 z M 57.408203 9 L 70.591797 9 C 74.657416 9 78 12.533929 78 17 C 78 21.466071 74.657416 25 70.591797 25 L 57.408203 25 C 53.342584 25 50 21.466071 50 17 C 50 12.533929 53.342584 9 57.408203 9 z M 57 15 A 2 2 0 0 0 55 17 A 2 2 0 0 0 57 19 A 2 2 0 0 0 59 17 A 2 2 0 0 0 57 15 z M 64 15 A 2 2 0 0 0 62 17 A 2 2 0 0 0 64 19 A 2 2 0 0 0 66 17 A 2 2 0 0 0 64 15 z M 71 15 A 2 2 0 0 0 69 17 A 2 2 0 0 0 71 19 A 2 2 0 0 0 73 17 A 2 2 0 0 0 71 15 z M 15 16 C 9.4886661 16 5 20.488666 5 26 L 5 58 C 5 63.511334 9.4886661 68 15 68 L 65 68 C 70.511334 68 75 63.511334 75 58 L 75 29 L 75 26.921875 C 74.375 27.369875 73.706 27.754406 73 28.066406 L 73 33 L 73 58 C 73 62.430666 69.430666 66 65 66 L 15 66 C 10.569334 66 7 62.430666 7 58 L 7 26 C 7 24.50477 7.4141179 23.112928 8.1230469 21.917969 L 24.783203 38.076172 C 28.738144 41.910472 33.84527 43.892172 38.980469 43.996094 C 44.193289 44.101064 49.448214 42.270514 53.574219 38.498047 L 63.962891 29 L 60.998047 29 L 52.224609 37.021484 A 1.0001 1.0001 0 0 0 52.224609 37.023438 C 52.223212 37.024722 52.222091 37.026053 52.220703 37.027344 C 48.481341 40.44433 43.736985 42.091089 39.019531 41.996094 C 34.37073 41.902014 29.76084 40.116325 26.175781 36.640625 L 9.3515625 20.324219 C 10.79665 18.886078 12.791636 18 15 18 L 44 18 L 46.048828 18 C 46.022828 17.669 46 17.338 46 17 C 46 16.662 46.022828 16.331 46.048828 16 L 44 16 L 15 16 z M 12 31 A 1 1 0 0 0 11 32 A 1 1 0 0 0 12 33 A 1 1 0 0 0 13 32 A 1 1 0 0 0 12 31 z M 68.228516 31 A 1 1 0 0 0 67.228516 32 A 1 1 0 0 0 68.228516 33 A 1 1 0 0 0 69.228516 32 A 1 1 0 0 0 68.228516 31 z M 12 35 A 1 1 0 0 0 11 36 A 1 1 0 0 0 12 37 A 1 1 0 0 0 13 36 A 1 1 0 0 0 12 35 z M 68.228516 35 A 1 1 0 0 0 67.228516 36 A 1 1 0 0 0 68.228516 37 A 1 1 0 0 0 69.228516 36 A 1 1 0 0 0 68.228516 35 z M 12 39 A 1 1 0 0 0 11 40 A 1 1 0 0 0 12 41 A 1 1 0 0 0 13 40 A 1 1 0 0 0 12 39 z M 68.228516 39 A 1 1 0 0 0 67.228516 40 A 1 1 0 0 0 68.228516 41 A 1 1 0 0 0 69.228516 40 A 1 1 0 0 0 68.228516 39 z M 12 43 A 1 1 0 0 0 11 44 A 1 1 0 0 0 12 45 A 1 1 0 0 0 13 44 A 1 1 0 0 0 12 43 z M 68.228516 43 A 1 1 0 0 0 67.228516 44 A 1 1 0 0 0 68.228516 45 A 1 1 0 0 0 69.228516 44 A 1 1 0 0 0 68.228516 43 z M 12 47 A 1 1 0 0 0 11 48 A 1 1 0 0 0 12 49 A 1 1 0 0 0 13 48 A 1 1 0 0 0 12 47 z M 68.228516 47 A 1 1 0 0 0 67.228516 48 A 1 1 0 0 0 68.228516 49 A 1 1 0 0 0 69.228516 48 A 1 1 0 0 0 68.228516 47 z M 12 51 A 1 1 0 0 0 11 52 A 1 1 0 0 0 12 53 A 1 1 0 0 0 13 52 A 1 1 0 0 0 12 51 z M 68.228516 51 A 1 1 0 0 0 67.228516 52 A 1 1 0 0 0 68.228516 53 A 1 1 0 0 0 69.228516 52 A 1 1 0 0 0 68.228516 51 z M 12 55 A 1 1 0 0 0 11 56 A 1 1 0 0 0 12 57 A 1 1 0 0 0 13 56 A 1 1 0 0 0 12 55 z M 68.228516 55 A 1 1 0 0 0 67.228516 56 A 1 1 0 0 0 68.228516 57 A 1 1 0 0 0 69.228516 56 A 1 1 0 0 0 68.228516 55 z M 12.234375 58.765625 A 1 1 0 0 0 11.234375 59.765625 A 1 1 0 0 0 12.234375 60.765625 A 1 1 0 0 0 13.234375 59.765625 A 1 1 0 0 0 12.234375 58.765625 z M 67.994141 58.765625 A 1 1 0 0 0 66.994141 59.765625 A 1 1 0 0 0 67.994141 60.765625 A 1 1 0 0 0 68.994141 59.765625 A 1 1 0 0 0 67.994141 58.765625 z M 16 60 A 1 1 0 0 0 15 61 A 1 1 0 0 0 16 62 A 1 1 0 0 0 17 61 A 1 1 0 0 0 16 60 z M 20 60 A 1 1 0 0 0 19 61 A 1 1 0 0 0 20 62 A 1 1 0 0 0 21 61 A 1 1 0 0 0 20 60 z M 24 60 A 1 1 0 0 0 23 61 A 1 1 0 0 0 24 62 A 1 1 0 0 0 25 61 A 1 1 0 0 0 24 60 z M 28 60 A 1 1 0 0 0 27 61 A 1 1 0 0 0 28 62 A 1 1 0 0 0 29 61 A 1 1 0 0 0 28 60 z M 32 60 A 1 1 0 0 0 31 61 A 1 1 0 0 0 32 62 A 1 1 0 0 0 33 61 A 1 1 0 0 0 32 60 z M 36 60 A 1 1 0 0 0 35 61 A 1 1 0 0 0 36 62 A 1 1 0 0 0 37 61 A 1 1 0 0 0 36 60 z M 40 60 A 1 1 0 0 0 39 61 A 1 1 0 0 0 40 62 A 1 1 0 0 0 41 61 A 1 1 0 0 0 40 60 z M 44 60 A 1 1 0 0 0 43 61 A 1 1 0 0 0 44 62 A 1 1 0 0 0 45 61 A 1 1 0 0 0 44 60 z M 48 60 A 1 1 0 0 0 47 61 A 1 1 0 0 0 48 62 A 1 1 0 0 0 49 61 A 1 1 0 0 0 48 60 z M 52 60 A 1 1 0 0 0 51 61 A 1 1 0 0 0 52 62 A 1 1 0 0 0 53 61 A 1 1 0 0 0 52 60 z M 56 60 A 1 1 0 0 0 55 61 A 1 1 0 0 0 56 62 A 1 1 0 0 0 57 61 A 1 1 0 0 0 56 60 z M 60 60 A 1 1 0 0 0 59 61 A 1 1 0 0 0 60 62 A 1 1 0 0 0 61 61 A 1 1 0 0 0 60 60 z M 64 60 A 1 1 0 0 0 63 61 A 1 1 0 0 0 64 62 A 1 1 0 0 0 65 61 A 1 1 0 0 0 64 60 z"/>
</svg>