<svg id="Layer_112" data-name="Layer 112" xmlns="http://www.w3.org/2000/svg" viewBox="0 0 14 16.14">
  <title>2</title>
  <g>
    <g>
      <path d="M10.82,17.57V15.85a7,7,0,1,0-1.64,0v1.72m-5-8.64A5.81,5.81,0,1,1,10,14.74,5.8,5.8,0,0,1,4.19,8.93Z" transform="translate(-3 -1.93)" style="fill: #858b8e"/>
      <path d="M10,8a2.56,2.56,0,1,0,2.55,2.55A2.56,2.56,0,0,0,10,8Zm0,4a1.41,1.41,0,1,1,1.41-1.41A1.42,1.42,0,0,1,10,12Z" transform="translate(-3 -1.93)" style="fill: #858b8e"/>
      <circle cx="6.18" cy="4.12" r="0.82" style="fill: #858b8e"/>
    </g>
    <rect x="3.3" y="15.09" width="7.39" height="1.06" rx="0.53" style="fill: #858b8e"/>
  </g>
</svg>
