<svg id="Layer_111" data-name="Layer 111" xmlns="http://www.w3.org/2000/svg" viewBox="0 0 16 16">
  <title>3</title>
  <g>
    <path d="M2.33,10.06A7.58,7.58,0,0,0,5.19,16l-1,1L5.3,18l1.17-1.18a7.5,7.5,0,0,0,7,0L14.7,18l1.06-1.06-1-1A7.6,7.6,0,1,0,2.33,10.06ZM9.94,4a6.11,6.11,0,1,1-6.11,6.11A6.11,6.11,0,0,1,9.94,4Z" transform="translate(-2 -2)" style="fill: #757575"/>
    <rect x="2.06" y="2.9" width="3.17" height="1.49" transform="translate(-3.51 1.65) rotate(-44.99)" style="fill: #757575"/>
    <rect x="15.6" y="2.06" width="1.49" height="3.17" transform="translate(0.21 10.63) rotate(-45)" style="fill: #757575"/>
    <polygon points="12.26 5.54 11.21 4.48 7.25 8.44 5.54 6.72 4.48 7.78 7.25 10.55 12.26 5.54" style="fill: #f05050"/>
  </g>
</svg>
