<svg xmlns="http://www.w3.org/2000/svg" xmlns:xlink="http://www.w3.org/1999/xlink" version="1.1" x="0px" y="0px" viewBox="0 0 96 120" style="enable-background:new 0 0 96 96;" xml:space="preserve"><g><g><path d="M27.6,74c3.3,0,6-2.7,6-6c0-1.3-0.5-2.6-1.3-3.7l5-12.4c0.6,0.2,1.2,0.3,1.8,0.3c2.2,0,4.1-1.2,5.2-3l10.9,3.1    c0.3,3,2.9,5.3,6,5.3c3.3,0,6-2.7,6-6c0-1.3-0.4-2.6-1.2-3.6l15.2-21.7c0.4,0.1,0.9,0.2,1.3,0.2c3,0,5.5-2.2,5.9-5.1    c0.1-0.3,0.1-0.6,0.1-0.9c0-3.3-2.7-6-6-6s-6,2.7-6,6c0,1.4,0.5,2.7,1.3,3.7L62.5,45.9c-0.5-0.1-0.9-0.2-1.4-0.2    c-2.1,0-4,1.1-5,2.8l-11-3.2c-0.4-2.9-2.9-5.1-5.9-5.1c-3.3,0-6,2.7-6,6c0,1.1,0.3,2.2,0.9,3.1L29,62.1c-0.4-0.1-0.8-0.2-1.3-0.2    c-3.3,0-6,2.7-6,6S24.3,74,27.6,74z"/><polygon points="8,92 12,92 12,86 92,86 92,82 12,82 12,10 8,10 8,82 3,82 3,86 8,86   "/></g></g></svg>