<svg id="Layer_2" data-name="Layer 2" xmlns="http://www.w3.org/2000/svg" viewBox="0 0 454.92 311.4">
  <title>Opt2</title>
  <g>
    <g>
      <g>
        <rect x="91.8" y="71.35" width="300.81" height="229.8" rx="22.37" style="fill: #f7c6c6"/>
        <path d="M395.78,385.32H139.71a26.91,26.91,0,0,1-26.88-26.88V173.38a26.9,26.9,0,0,1,26.88-26.87H395.78a26.9,26.9,0,0,1,26.87,26.87V358.44A26.9,26.9,0,0,1,395.78,385.32ZM139.71,155.52a17.88,17.88,0,0,0-17.86,17.86V358.44a17.89,17.89,0,0,0,17.86,17.87H395.78a17.89,17.89,0,0,0,17.86-17.87V173.38a17.88,17.88,0,0,0-17.86-17.86Z" transform="translate(-25.54 -79.67)" style="fill: #f05252"/>
      </g>
      <g>
        <rect x="117.4" y="98.13" width="250.42" height="181.08" rx="3.31" style="fill: #fff"/>
        <path d="M390.06,363.38H146.25a7.82,7.82,0,0,1-7.82-7.81V181.11a7.83,7.83,0,0,1,7.82-7.82H390.06a7.82,7.82,0,0,1,7.81,7.82V355.57A7.81,7.81,0,0,1,390.06,363.38Zm-242.61-9H388.86V182.3H147.45Z" transform="translate(-25.54 -79.67)" style="fill: #f05252"/>
      </g>
      <path d="M6.13,276.86H387.82a0,0,0,0,1,0,0v0a33,33,0,0,1-33,33H25.42A19.29,19.29,0,0,1,6.13,290.54V276.86a0,0,0,0,1,0,0Z" style="fill: #fff"/>
      <g style="opacity: 0.1">
        <path d="M340,279.24h51.1a0,0,0,0,1,0,0V295A15.16,15.16,0,0,1,376,310.21h-5a31,31,0,0,1-31-31v0A0,0,0,0,1,340,279.24Z" style="fill: #2d2e2f"/>
      </g>
      <path d="M390.64,390.94H291.06a27.36,27.36,0,0,1-27.33-27.33H34.55v8.49a9.69,9.69,0,0,0,9.68,9.68h95.51a4.51,4.51,0,1,1,0,9H44.23A18.71,18.71,0,0,1,25.54,372.1V362A7.44,7.44,0,0,1,33,354.59H422.48v4.51A31.87,31.87,0,0,1,390.64,390.94Zm-117.9-27.33a18.34,18.34,0,0,0,18.32,18.32h99.58A22.88,22.88,0,0,0,413,363.61Z" transform="translate(-25.54 -79.67)" style="fill: #f05252"/>
      <path d="M137.05,362.91h57.9a8.55,8.55,0,0,1,8.55,8.55v.37a0,0,0,0,1,0,0h-75a0,0,0,0,1,0,0v-.37A8.55,8.55,0,0,1,137.05,362.91Z" transform="translate(306.46 655.07) rotate(180)" style="fill: #f05252"/>
      <rect x="147.52" y="302.71" width="135.18" height="8.69" rx="4.35" style="fill: #f05252"/>
      <g>
        <g style="opacity: 0.6">
          <rect x="143.07" y="118.24" width="100.67" height="10.7" rx="5.35" style="fill: #efbfbd"/>
        </g>
        <g style="opacity: 0.6">
          <rect x="143.07" y="143.79" width="100.67" height="10.7" rx="5.35" style="fill: #efbfbd"/>
        </g>
        <g style="opacity: 0.6">
          <rect x="143.07" y="169.93" width="64.06" height="10.7" rx="5.35" style="fill: #efbfbd"/>
        </g>
        <g style="opacity: 0.6">
          <rect x="143.07" y="196.37" width="197.1" height="10.7" rx="5.35" style="fill: #efbfbd"/>
        </g>
        <g style="opacity: 0.6">
          <rect x="143.07" y="222.52" width="197.1" height="10.7" rx="5.35" style="fill: #efbfbd"/>
        </g>
        <g style="opacity: 0.6">
          <rect x="143.07" y="247.17" width="115.71" height="10.7" rx="5.35" style="fill: #efbfbd"/>
        </g>
        <rect x="267.93" y="117.64" width="68.97" height="61.2" style="fill: #efbfbd"/>
      </g>
      <g>
        <g style="opacity: 0.1">
          <circle cx="112.28" cy="95.61" r="33.91" style="fill: #2d2e2f"/>
        </g>
        <g>
          <circle cx="105.44" cy="88.34" r="32.2" style="fill: #fff"/>
          <path d="M131,203.58A35.58,35.58,0,1,1,166.56,168,35.61,35.61,0,0,1,131,203.58Zm0-64.39A28.82,28.82,0,1,0,159.8,168,28.85,28.85,0,0,0,131,139.19Z" transform="translate(-25.54 -79.67)" style="fill: #f05252"/>
        </g>
        <polygon points="98.41 79.3 98.73 97.39 116.98 88.83 98.41 79.3" style="fill: #f05252"/>
      </g>
      <g>
        <g style="opacity: 0.1">
          <circle cx="112.28" cy="181.76" r="33.91" style="fill: #2d2e2f"/>
        </g>
        <g>
          <circle cx="105.44" cy="174.5" r="32.2" style="fill: #fff"/>
          <path d="M131,289.74a35.58,35.58,0,1,1,35.58-35.57A35.61,35.61,0,0,1,131,289.74Zm0-64.39a28.82,28.82,0,1,0,28.82,28.82A28.85,28.85,0,0,0,131,225.35Z" transform="translate(-25.54 -79.67)" style="fill: #f05252"/>
        </g>
      </g>
    </g>
    <g>
      <path d="M326,210.9A18,18,0,1,1,350,237.76Z" transform="translate(-25.54 -79.67)" style="fill: #fff"/>
      <path d="M401,222.92l45.39,50.94a4.86,4.86,0,0,0,6.87.4l21.84-19.45a4.87,4.87,0,0,0,.39-6.88L430.09,197a4.87,4.87,0,0,0-6.88-.4l-21.83,19.46A4.86,4.86,0,0,0,401,222.92Z" transform="translate(-25.54 -79.67)" style="fill: #f7c6c6"/>
      <path d="M346.64,161.93,301.25,111a4.86,4.86,0,0,1,.4-6.87l21.84-19.46a4.87,4.87,0,0,1,6.87.4L375.75,136a4.88,4.88,0,0,1-.4,6.88l-21.84,19.45A4.87,4.87,0,0,1,346.64,161.93Z" transform="translate(-25.54 -79.67)" style="fill: #f7c6c6"/>
      <g style="opacity: 0.1">
        <path d="M419.48,148.77l19.31,21.67a6.48,6.48,0,0,1-.52,9.14l-64.21,57.2a6.48,6.48,0,0,1-9.14-.52l-19.31-21.68a6.46,6.46,0,0,1,.53-9.13l64.2-57.21A6.47,6.47,0,0,1,419.48,148.77Z" transform="translate(-25.54 -79.67)" style="fill: #383938"/>
      </g>
      <g style="opacity: 0.1">
        <path d="M389.28,174.06,368,193.83a6.46,6.46,0,0,1-9.14-.33l-58.57-63a6.47,6.47,0,0,1,.33-9.14l21.26-19.78a6.48,6.48,0,0,1,9.15.34l58.56,63A6.46,6.46,0,0,1,389.28,174.06Z" transform="translate(-25.54 -79.67)" style="fill: #383938"/>
      </g>
      <path d="M381.58,213.61l-27.92-31.34,41.49-37,27.92,31.34Z" transform="translate(-25.54 -79.67)" style="fill: #f7c6c6"/>
      <path d="M415.64,135.71,435,157.39a6.48,6.48,0,0,1-.52,9.14l-64.21,57.2a6.47,6.47,0,0,1-9.14-.53l-19.31-21.67a6.47,6.47,0,0,1,.53-9.14l64.21-57.2A6.46,6.46,0,0,1,415.64,135.71Z" transform="translate(-25.54 -79.67)" style="fill: #fff"/>
      <path d="M433.84,265.45l9.72,10.91a8.65,8.65,0,0,0,12.18.71l10.92-9.73h0l10.92-9.73a8.62,8.62,0,0,0,.7-12.17L455.58,220h0l-22.69-25.47a8.63,8.63,0,0,0-12.17-.7L412.6,201l-5-5.59,29.3-26.1a10.24,10.24,0,0,0,.84-14.44l-19.32-21.67h0a10.2,10.2,0,0,0-14.43-.83l-29.3,26.1-5-5.59,8.12-7.23a8.62,8.62,0,0,0,.7-12.17l-35.66-40h0l-9.73-10.92a8.62,8.62,0,0,0-12.17-.7l-10.92,9.73h0l-10.92,9.73a8.62,8.62,0,0,0-.7,12.17L321.14,139h0l22.7,25.47a8.63,8.63,0,0,0,12.17.71l8.12-7.24,5,5.59-29.3,26.11a10.22,10.22,0,0,0-1.89,13,21.58,21.58,0,0,0-14.38,5.51,3.75,3.75,0,0,0-.3,5.3l23.93,26.86a3.77,3.77,0,0,0,2.59,1.25,3.71,3.71,0,0,0,2.71-.95,21.57,21.57,0,0,0,7.12-13.64,10.24,10.24,0,0,0,13.14-.39l29.3-26.1,5,5.58-8.12,7.23a8.63,8.63,0,0,0-.7,12.18l35.65,40h0Zm-60.9-127a1.05,1.05,0,0,1,.28.81,1.08,1.08,0,0,1-.37.77l-8.11,7.23-8-9,8.95-8Zm-43.69-1.73,8.94-8,8,9-8.94,8Zm-13-14.55,9-8,8,9-8.95,8Zm31.47-12-8.95,8-8-9,8.95-8Zm-3.95,13.57,8.95-8,8,9-9,8Zm-17-36.61a1.08,1.08,0,0,1,.77.37l7.23,8.11-9,8-8-9L326,87.45A1.08,1.08,0,0,1,326.79,87.18Zm-22.74,21.3a1.1,1.1,0,0,1-.28-.8,1.16,1.16,0,0,1,.37-.77l8.12-7.23,8,8.95-9,8Zm47,51a1.12,1.12,0,0,1-1.58-.09l-7.23-8.12,9-8,8,8.95Zm25.88,7.07h0l17.94-16,22.93,25.73-17.94,16h0l-17.95,16L359,182.58ZM411,137.3a2.74,2.74,0,0,1,1.87.91l19.31,21.68a2.72,2.72,0,0,1-.22,3.83l-8.56,7.63-22.92-25.74L409,138A2.73,2.73,0,0,1,411,137.3Zm-79.31,74.28a14.24,14.24,0,0,1,20.55,13.57,14.19,14.19,0,0,1-2.27,6.94Zm34.1,10a2.67,2.67,0,0,1-1.87-.9L344.57,199a2.73,2.73,0,0,1,.23-3.84l8.55-7.62,22.93,25.73-8.56,7.63A2.71,2.71,0,0,1,365.76,221.61Zm84.18,50.13a1.1,1.1,0,0,1-.77-.37l-7.23-8.12,8.95-8,8,9-8.12,7.23A1.1,1.1,0,0,1,449.94,271.74Zm-21-23,8.95-8,8,9-8.94,8Zm-13-14.55,8.94-8,8,9-8.95,8Zm31.47-12-9,8-8-8.95,8.95-8Zm13,14.56-8.95,8-8-9,8.94-8Zm12.22,13.72a1.09,1.09,0,0,1,.28.81,1,1,0,0,1-.37.76l-8.12,7.24-8-9,8.95-8Zm-47-51a1.12,1.12,0,0,1,1.57.1l7.23,8.11-8.94,8-8-8.94Zm-21.93,21a1.11,1.11,0,0,1,.09-1.57l8.12-7.23,8,8.95-8.95,8Z" transform="translate(-25.54 -79.67)" style="fill: #f05252"/>
      <path d="M331.66,211.58a14.24,14.24,0,0,1,20.55,13.57,14.19,14.19,0,0,1-2.27,6.94Z" transform="translate(-25.54 -79.67)" style="fill: #fff"/>
    </g>
    <g>
      <path d="M131,269.65a14.4,14.4,0,0,0,9.75-25l2.82-2.81-2-2-3.1,3.1a14.24,14.24,0,0,0-6-2v-3h2.94V235h-8.62v2.87h2.81v3A14.42,14.42,0,0,0,131,269.65Zm0-26a11.55,11.55,0,1,1-11.55,11.55A11.56,11.56,0,0,1,131,243.68Z" transform="translate(-25.54 -79.67)" style="fill: #f05252"/>
      <path d="M131,258.1a2.15,2.15,0,0,0,2.15-2.15,2.17,2.17,0,0,0-.71-1.6v-7.6h-2.87v7.6A2.15,2.15,0,0,0,131,258.1Z" transform="translate(-25.54 -79.67)" style="fill: #f05252"/>
    </g>
  </g>
</svg>
