<svg id="Layer_3" data-name="Layer 3" xmlns="http://www.w3.org/2000/svg" viewBox="0 0 463.92 290.82">
  <title>opt3</title>
  <g>
    <g>
      <rect x="98.69" y="26.26" width="331.51" height="253.26" rx="24.65" style="fill: #f7c6c6"/>
      <path d="M423.58,389.08H141.38a29.66,29.66,0,0,1-29.62-29.62V155.51a29.66,29.66,0,0,1,29.62-29.62h282.2a29.66,29.66,0,0,1,29.62,29.62v204A29.66,29.66,0,0,1,423.58,389.08ZM141.38,135.82a19.72,19.72,0,0,0-19.69,19.69v204a19.72,19.72,0,0,0,19.69,19.69h282.2a19.72,19.72,0,0,0,19.69-19.69V155.51a19.71,19.71,0,0,0-19.69-19.69Z" transform="translate(-18.04 -104.59)" style="fill: #f05252"/>
    </g>
    <g>
      <rect x="126.9" y="55.78" width="275.98" height="199.56" rx="3.65" style="fill: #fff"/>
      <path d="M417.28,364.9H148.59a8.62,8.62,0,0,1-8.61-8.61V164a8.62,8.62,0,0,1,8.61-8.61H417.28a8.62,8.62,0,0,1,8.61,8.61V356.29A8.62,8.62,0,0,1,417.28,364.9ZM149.91,355H416V165.34h-266Z" transform="translate(-18.04 -104.59)" style="fill: #f05252"/>
    </g>
    <path d="M6.75,252.75H424.92a0,0,0,0,1,0,0v0a36.34,36.34,0,0,1-36.34,36.34H28A21.26,21.26,0,0,1,6.75,267.83V252.75a0,0,0,0,1,0,0Z" style="fill: #fff"/>
    <g style="opacity: 0.2">
      <path d="M261.58,256H431.84a0,0,0,0,1,0,0v5.08a29,29,0,0,1-29,29H289.46a27.89,27.89,0,0,1-27.89-27.89V256A0,0,0,0,1,261.58,256Z" style="fill: #f05252"/>
    </g>
    <path d="M417.92,395.27H308.18a30.16,30.16,0,0,1-30.12-30.12H28v9.36a10.69,10.69,0,0,0,10.67,10.67H141.42a5,5,0,1,1,0,9.93H38.64A20.62,20.62,0,0,1,18,374.51V363.4a8.19,8.19,0,0,1,8.18-8.18H453v5A35.13,35.13,0,0,1,417.92,395.27ZM288,365.15a20.22,20.22,0,0,0,20.19,20.19H417.92a25.2,25.2,0,0,0,24.67-20.19Z" transform="translate(-18.04 -104.59)" style="fill: #f05252"/>
    <path d="M138.45,364.38h63.81a9.42,9.42,0,0,1,9.42,9.42v.4a0,0,0,0,1,0,0H129a0,0,0,0,1,0,0v-.4A9.42,9.42,0,0,1,138.45,364.38Z" transform="translate(322.67 634) rotate(180)" style="fill: #f05252"/>
    <rect x="160.09" y="281.24" width="148.97" height="9.58" rx="4.79" style="fill: #f05252"/>
    <circle cx="338.48" cy="110.15" r="28.53" style="fill: #efbfbd"/>
    <g style="opacity: 0.1">
      <circle cx="114.53" cy="137.32" r="37.37" style="fill: #2d2e2f"/>
    </g>
    <g style="opacity: 0.1">
      <circle cx="426.55" cy="44.73" r="37.37" style="fill: #2d2e2f"/>
    </g>
    <g style="opacity: 0.6000000000000001">
      <rect x="302.67" y="154.12" width="77.27" height="9.17" rx="4.58" style="fill: #f05252"/>
    </g>
    <g style="opacity: 0.6000000000000001">
      <rect x="302.67" y="171.8" width="42.73" height="9.17" rx="3.41" style="fill: #f05252"/>
    </g>
    <g style="opacity: 0.6000000000000001">
      <rect x="302.67" y="189.97" width="77.27" height="9.17" rx="4.58" style="fill: #f05252"/>
    </g>
    <polygon points="330.6 100.08 330.96 120.01 351.07 110.58 330.6 100.08" style="fill: #f05252"/>
    <g style="opacity: 0.1">
      <ellipse cx="231.73" cy="87.02" rx="55.57" ry="69.47" style="fill: #2d2e2f"/>
    </g>
    <g style="opacity: 0.1">
      <polygon points="252.54 202.9 211.41 202.9 215.52 154.45 248.43 154.45 252.54 202.9" style="fill: #2d2e2f"/>
    </g>
    <g>
      <polygon points="239.25 181.19 198.12 181.19 202.23 132.73 235.14 132.73 239.25 181.19" style="fill: #fff"/>
      <path d="M262.7,290.74H210.75l5-58.39h42Zm-41.14-9.93h30.33l-3.27-38.52H224.83Z" transform="translate(-18.04 -104.59)" style="fill: #f05252"/>
    </g>
    <g>
      <ellipse cx="220.02" cy="79.47" rx="55.57" ry="64.72" style="fill: #fff"/>
      <path d="M238.06,253.12c-33,0-59.92-31-59.92-69.06S205,115,238.06,115,298,146,298,184.06,271.1,253.12,238.06,253.12Zm0-129.44c-28.24,0-51.23,27.09-51.23,60.38s23,60.37,51.23,60.37,51.23-27.08,51.23-60.37S266.31,123.68,238.06,123.68Z" transform="translate(-18.04 -104.59)" style="fill: #f05252"/>
    </g>
    <g style="opacity: 0.1">
      <path d="M172.88,353.09v-20.8c0-32.75,35.4-59.31,79.07-59.31h0c43.67,0,79.07,26.56,79.07,59.31V354" transform="translate(-18.04 -104.59)" style="fill: #2d2e2f"/>
    </g>
    <g>
      <path d="M159.13,352.54V331.75c0-32.76,35.4-59.32,79.07-59.32h0c43.67,0,79.07,26.56,79.07,59.32v21.67" transform="translate(-18.04 -104.59)" style="fill: #fff"/>
      <path d="M317.27,358.38a5,5,0,0,1-5-5V331.75c0-30-33.24-54.35-74.1-54.35s-74.11,24.38-74.11,54.35v20.79a5,5,0,1,1-9.93,0V331.75c0-35.45,37.7-64.28,84-64.28s84,28.83,84,64.28v21.67A5,5,0,0,1,317.27,358.38Z" transform="translate(-18.04 -104.59)" style="fill: #f05252"/>
    </g>
    <path d="M181.83,191.36a3.73,3.73,0,0,1-1.76-7c13.25-7.11,20.83-16.54,23.19-28.84l.58-3h3.08c30.16,0,49.06-22.93,63.56-45.32a3.73,3.73,0,1,1,6.26,4c-15.13,23.36-34.87,47.22-66.83,48.66-3.39,13-12.23,23.49-26.32,31A3.7,3.7,0,0,1,181.83,191.36Z" transform="translate(-18.04 -104.59)" style="fill: #f05252"/>
    <g>
      <path d="M236.73,173.36c-2,8.95,2.09,19.06,10.31,30l-14.24,7.86" transform="translate(-18.04 -104.59)" style="fill: #fff"/>
      <path d="M232.8,213.66a2.48,2.48,0,0,1-1.2-4.65l11.77-6.5c-8-11.35-11-21.08-9.07-29.69a2.49,2.49,0,1,1,4.85,1.09c-1.73,7.68,1.5,16.81,9.87,27.92l1.72,2.28L234,213.35A2.5,2.5,0,0,1,232.8,213.66Z" transform="translate(-18.04 -104.59)" style="fill: #f05252"/>
    </g>
    <g>
      <path d="M252.11,171.4c4.69-5,9.25-5.6,13.76-3.93" transform="translate(-18.04 -104.59)" style="fill: #fff"/>
      <path d="M252.11,174.5a3.1,3.1,0,0,1-2.26-5.22c5.11-5.45,10.86-7,17.1-4.72a3.1,3.1,0,1,1-2.16,5.82c-2.74-1-6.11-1.44-10.41,3.14A3.11,3.11,0,0,1,252.11,174.5Z" transform="translate(-18.04 -104.59)" style="fill: #f05252"/>
    </g>
    <g>
      <path d="M207.42,186.3c4.69-5,9.25-5.6,13.75-3.93" transform="translate(-18.04 -104.59)" style="fill: #fff"/>
      <path d="M207.42,189.4a3.1,3.1,0,0,1-2.26-5.23c5.11-5.44,10.86-7,17.09-4.71a3.1,3.1,0,0,1-2.16,5.82c-2.73-1-6.11-1.44-10.41,3.14A3.09,3.09,0,0,1,207.42,189.4Z" transform="translate(-18.04 -104.59)" style="fill: #f05252"/>
    </g>
    <g>
      <path d="M243.83,225c-5.48,4.11-10.08,3.93-14.23,1.51" transform="translate(-18.04 -104.59)" style="fill: #fff"/>
      <path d="M235.49,231.3a14.66,14.66,0,0,1-7.45-2.15,3.1,3.1,0,1,1,3.13-5.36c2.51,1.47,5.77,2.46,10.79-1.31a3.1,3.1,0,1,1,3.73,5C242.27,230,238.86,231.3,235.49,231.3Z" transform="translate(-18.04 -104.59)" style="fill: #f05252"/>
    </g>
    <g>
      <path d="M224.31,278.18c.65,16.95,22.95,16.42,24.83,0" transform="translate(-18.04 -104.59)" style="fill: #fff"/>
      <path d="M236.11,294.42l-.6,0c-6.9-.26-14.51-5.4-14.92-16.08A3.72,3.72,0,0,1,228,278c.25,6.37,4.17,8.78,7.76,8.92,4.12.18,8.9-2.66,9.65-9.21a3.72,3.72,0,0,1,7.4.85C251.64,289.08,243.62,294.42,236.11,294.42Z" transform="translate(-18.04 -104.59)" style="fill: #f05252"/>
    </g>
    <path d="M239.48,349.46a11.39,11.39,0,0,1-9.72-5.43l-37.51-60.95,8.46-5.21,37.51,60.95a1.42,1.42,0,0,0,1.36.71,1.44,1.44,0,0,0,1.27-.88l28.7-63.74,9.06,4.07-28.7,63.75a11.41,11.41,0,0,1-9.69,6.71Z" transform="translate(-18.04 -104.59)" style="fill: #f05252"/>
    <g>
      <line x1="212.43" y1="188.51" x2="207.76" y2="221.81" style="fill: #fff"/>
      <rect x="211.32" y="306.03" width="33.63" height="7.45" transform="matrix(0.14, -0.99, 0.99, 0.14, -128.31, 388.13)" style="fill: #f05252"/>
    </g>
    <g>
      <line x1="223.13" y1="187.65" x2="235.17" y2="219.82" style="fill: #fff"/>
      <rect x="243.47" y="291.16" width="7.45" height="34.35" transform="translate(-110.39 1.55) rotate(-20.51)" style="fill: #f05252"/>
    </g>
    <g>
      <circle cx="419.02" cy="39.21" r="35.48" style="fill: #fff"/>
      <path d="M437.06,183a39.21,39.21,0,1,1,39.21-39.21A39.25,39.25,0,0,1,437.06,183Zm0-71a31.76,31.76,0,1,0,31.76,31.76A31.8,31.8,0,0,0,437.06,112Z" transform="translate(-18.04 -104.59)" style="fill: #f05252"/>
    </g>
    <g>
      <circle cx="106.86" cy="136.89" r="35.65" style="fill: #fff"/>
      <path d="M124.9,280.85a39.37,39.37,0,1,1,39.37-39.37A39.41,39.41,0,0,1,124.9,280.85Zm0-71.29a31.92,31.92,0,1,0,31.92,31.92A32,32,0,0,0,124.9,209.56Z" transform="translate(-18.04 -104.59)" style="fill: #f05252"/>
    </g>
    <path d="M437.83,122.87a10.5,10.5,0,0,1,6.85,18.34,17,17,0,0,1,10.05,15.47c0,2.71-4.3,2.71-4.3,0a12.67,12.67,0,0,0-12.6-12.76,12.79,12.79,0,0,0-12.76,12.76c0,2.71-4.31,2.71-4.31,0a17,17,0,0,1,10.05-15.47,10.5,10.5,0,0,1,7-18.34Zm0,4.3a6.13,6.13,0,0,0-6.22,6.22,5.88,5.88,0,0,0,1.75,4.31,6.26,6.26,0,0,0,8.77,0,5.89,5.89,0,0,0,1.76-4.31A6.09,6.09,0,0,0,437.83,127.17Z" transform="translate(-18.04 -104.59)" style="fill: #f05252"/>
    <path d="M125,223.56a10.5,10.5,0,0,1,6.85,18.34,17,17,0,0,1,10,15.47c0,2.71-4.3,2.71-4.3,0A12.67,12.67,0,0,0,125,244.61a12.79,12.79,0,0,0-12.76,12.76c0,2.71-4.31,2.71-4.31,0a17,17,0,0,1,10-15.47,10.5,10.5,0,0,1,7-18.34Zm0,4.3a6.13,6.13,0,0,0-6.22,6.22,5.92,5.92,0,0,0,1.75,4.31,6.26,6.26,0,0,0,8.77,0,5.89,5.89,0,0,0,1.76-4.31A6.09,6.09,0,0,0,125,227.86Z" transform="translate(-18.04 -104.59)" style="fill: #f05252"/>
  </g>
</svg>
