<svg id="Layer_1" data-name="Layer 1" xmlns="http://www.w3.org/2000/svg" viewBox="0 0 458.58 344.33">
  <title>OPT1</title>
  <g>
    <rect x="338.6" width="84.13" height="42.26" style="fill: #f05252"/>
    <g>
      <g>
        <polygon points="389.16 337.46 128.26 337.46 128.26 128.96 439.01 128.96 389.16 337.46" style="fill: #fef3f4"/>
        <path d="M415.3,421.86H144.21V202H467.88Zm-259.69-11.4h250.7l47.13-197.1H155.61Z" transform="translate(-21.65 -78.7)" style="fill: #f05252"/>
      </g>
      <g style="opacity: 0.1">
        <polygon points="418.32 136.29 388.45 330.69 174.32 330.69 174.32 136.84 418.32 136.29" style="fill: #2d2e2f"/>
      </g>
    </g>
    <g>
      <path d="M405.13,416.69h-257V113.86a29.3,29.3,0,0,1,29.3-29.3H405.13Z" transform="translate(-21.65 -78.7)" style="fill: #fef3f4"/>
      <path d="M410.82,422.39H142.47V113.86a35,35,0,0,1,35-35H410.82ZM153.87,411H399.43V90.26h-222a23.62,23.62,0,0,0-23.6,23.6Z" transform="translate(-21.65 -78.7)" style="fill: #f05252"/>
    </g>
    <g style="opacity: 0.1">
      <polygon points="133.85 100.26 187.65 100.85 225.7 147.35 368.83 147.29 384.04 320.85 131.03 320.85 133.85 100.26" style="fill: #2d2e2f"/>
    </g>
    <g>
      <polygon points="81.14 337.99 81.14 119.95 171.87 119.95 210.75 165.59 355.57 165.59 392.19 336.3 81.14 337.99" style="fill: #efbfbd"/>
      <path d="M97.1,422.42V193h99.05L235,238.6H381.82l39.07,182.06Zm11.39-218.07V411l298.31-1.63L372.61,250H229.77l-38.88-45.64Z" transform="translate(-21.65 -78.7)" style="fill: #f05252"/>
    </g>
    <g>
      <g>
        <g>
          <rect x="101.65" y="397.58" width="30.96" height="9.97" rx="4.94" transform="translate(498.05 206.73) rotate(90)" style="fill: #cee1f4"/>
          <g style="opacity: 0.1">
            <rect x="72.94" y="154.24" width="45.08" height="23.82" rx="6.83" style="fill: #2d2e2f"/>
          </g>
        </g>
        <g style="opacity: 0.1">
          <path d="M114.88,419.71c-43.91,0-79.63-35-79.63-78.12S71,263.47,114.88,263.47s79.62,35,79.62,78.12S158.78,419.71,114.88,419.71Zm2.25-141.51c-36,0-65.38,28.77-65.38,64.14s29.33,64.15,65.38,64.15,65.38-28.78,65.38-64.15S153.18,278.2,117.13,278.2Z" transform="translate(-21.65 -78.7)" style="fill: #2d2e2f"/>
        </g>
        <path d="M78.19,375.32,63.3,390.65a4.83,4.83,0,0,0,.16,6.92h0a5.05,5.05,0,0,0,7.05-.17l14.9-15.33a4.82,4.82,0,0,0-.17-6.91h0A5.05,5.05,0,0,0,78.19,375.32Z" transform="translate(-21.65 -78.7)" style="fill: #cee1f4"/>
        <g style="opacity: 0.1">
          <path d="M180.74,291.29l-14.61-15.7a5.52,5.52,0,0,1,.37-7.9l1.85-1.66a5.78,5.78,0,0,1,8.05.36l14.6,15.7a5.52,5.52,0,0,1-.36,7.9l-1.85,1.66A5.78,5.78,0,0,1,180.74,291.29Z" transform="translate(-21.65 -78.7)" style="fill: #2d2e2f"/>
        </g>
      </g>
      <g>
        <circle cx="82.26" cy="263.56" r="72.5" style="fill: #fff"/>
        <path d="M103.91,420.46a78.2,78.2,0,1,1,78.2-78.2A78.3,78.3,0,0,1,103.91,420.46Zm0-145a66.81,66.81,0,1,0,66.8,66.8A66.88,66.88,0,0,0,103.91,275.46Z" transform="translate(-21.65 -78.7)" style="fill: #f05252"/>
      </g>
      <g>
        <rect x="6.57" y="260.45" width="31.56" height="9.97" rx="4.99" style="fill: #f05252"/>
        <rect x="126.22" y="260.45" width="31.56" height="9.97" rx="4.99" style="fill: #f05252"/>
      </g>
      <g>
        <rect x="80.48" y="272.8" width="46.85" height="9.97" rx="4.99" transform="translate(360.04 95.17) rotate(90)" style="fill: #f05252"/>
        <rect x="88.13" y="400.09" width="31.56" height="9.97" rx="4.99" transform="translate(487.33 222.47) rotate(90)" style="fill: #f05252"/>
      </g>
      <g>
        <rect x="125.93" y="290.92" width="44.33" height="9.97" rx="4.99" transform="translate(442.8 314.19) rotate(133.63)" style="fill: #f05252"/>
        <rect x="45.35" y="382.15" width="31.56" height="9.97" rx="4.99" transform="translate(361.86 531.31) rotate(133.63)" style="fill: #f05252"/>
      </g>
      <g>
        <rect x="32.71" y="293.31" width="43.88" height="9.97" rx="4.99" transform="translate(199.27 -34.02) rotate(43.63)" style="fill: #f05252"/>
        <rect x="129.93" y="380.12" width="31.56" height="9.97" rx="4.99" transform="translate(284.32 -72.88) rotate(43.63)" style="fill: #f05252"/>
      </g>
      <g>
        <rect x="59.72" y="158.75" width="45.08" height="19.02" rx="6.1" style="fill: #fff"/>
        <path d="M120.35,260.74H87.47a10.39,10.39,0,0,1-10.38-10.37v-6.82a10.39,10.39,0,0,1,10.38-10.37h32.88a10.38,10.38,0,0,1,10.37,10.37v6.82A10.38,10.38,0,0,1,120.35,260.74Zm-32.88-19a1.83,1.83,0,0,0-1.83,1.82v6.82a1.83,1.83,0,0,0,1.83,1.83h32.88a1.83,1.83,0,0,0,1.82-1.83v-6.82a1.83,1.83,0,0,0-1.82-1.82Z" transform="translate(-21.65 -78.7)" style="fill: #f05252"/>
      </g>
      <rect x="19.66" y="273.06" width="33.06" height="13.9" rx="5.7" transform="translate(-200.96 18.89) rotate(-42.39)" style="fill: #f05252"/>
      <rect x="148.81" y="270.59" width="33.06" height="13.9" rx="5.7" transform="translate(237.21 -110.39) rotate(47.61)" style="fill: #f05252"/>
      <circle cx="82.26" cy="265.63" r="12.15" style="fill: #f05252"/>
      <polyline points="69.98 263.75 81.82 227.5 94.59 264.69" style="fill: #f05252"/>
    </g>
    <g style="opacity: 0.6000000000000001">
      <rect x="162.4" y="37.79" width="188.96" height="14.28" rx="7.14" style="fill: #f05252"/>
    </g>
    <g style="opacity: 0.6000000000000001">
      <rect x="193.2" y="72.72" width="158.16" height="14.28" rx="6.53" style="fill: #f05252"/>
    </g>
    <g style="opacity: 0.6000000000000001">
      <rect x="231.14" y="109.16" width="120.21" height="14.28" rx="5.69" style="fill: #f05252"/>
    </g>
    <rect x="11.57" y="329.3" width="435.02" height="15.03" rx="7.51" style="fill: #f05252"/>
    <g>
      <path d="M416.52,8.48h13.67a23.19,23.19,0,0,1,23.19,23.19V82.87a0,0,0,0,1,0,0H393.32a0,0,0,0,1,0,0V31.68A23.19,23.19,0,0,1,416.52,8.48Z" style="fill: #fff"/>
      <g style="opacity: 0.1">
        <path d="M404.24,15H409a16.78,16.78,0,0,1,16.78,16.78V76a0,0,0,0,1,0,0h-38.3a0,0,0,0,1,0,0V31.79A16.78,16.78,0,0,1,404.24,15Z" style="fill: #2d2e2f"/>
      </g>
      <path d="M480.23,167.33H401.65V118a39.29,39.29,0,0,1,78.58,0ZM415.9,153.09H466V118a25,25,0,0,0-50.08,0Z" transform="translate(-21.65 -78.7)" style="fill: #f05252"/>
    </g>
    <polygon points="202.03 217.73 203.16 280.84 266.83 250.98 202.03 217.73" style="fill: #f05252"/>
  </g>
</svg>
