<svg id="Layer_2" data-name="Layer 2" xmlns="http://www.w3.org/2000/svg" viewBox="0 0 156.89 155.01">
  <title>delete course icon</title>
  <g>
    <g>
      <g>
        <path d="M132.21,166.72V150.4H118.36V113.17h27.36v53.55a3.46,3.46,0,0,1-3.46,3.46h-6.6A3.45,3.45,0,0,1,132.21,166.72Z" transform="translate(-20.56 -15.49)" style="fill: #f8e9e9"/>
        <path d="M105.84,167.05V150.73H92V113.17h27.35v53.88a3.45,3.45,0,0,1-3.45,3.46h-6.6A3.46,3.46,0,0,1,105.84,167.05Z" transform="translate(-20.56 -15.49)" style="fill: #f8e9e9"/>
        <path d="M79.48,167.05V150.73H66V113.17H93v53.88a3.46,3.46,0,0,1-3.46,3.46h-6.6A3.45,3.45,0,0,1,79.48,167.05Z" transform="translate(-20.56 -15.49)" style="fill: #f8e9e9"/>
        <path d="M66.16,167.05V150.73H79.67V113.17h-27v53.88a3.46,3.46,0,0,0,3.45,3.46h6.61A3.46,3.46,0,0,0,66.16,167.05Z" transform="translate(-20.56 -15.49)" style="fill: #f8e9e9"/>
      </g>
      <g style="opacity: 0.85">
        <path d="M119.35,113.77h12.86v37.37a2.52,2.52,0,0,1-2.51,2.51h-7.84a2.52,2.52,0,0,1-2.51-2.51V113.77Z" transform="translate(-20.56 -15.49)" style="fill: #de4a4a"/>
        <path d="M93,113.77h12.85v37.37a2.51,2.51,0,0,1-2.51,2.51H95.5A2.51,2.51,0,0,1,93,151.14V113.77Z" transform="translate(-20.56 -15.49)" style="fill: #de4a4a"/>
        <path d="M66.62,113.77H79.48v37.37A2.52,2.52,0,0,1,77,153.65H69.13a2.52,2.52,0,0,1-2.51-2.51V113.77Z" transform="translate(-20.56 -15.49)" style="fill: #de4a4a"/>
      </g>
    </g>
    <path d="M33.87,117.93a13.32,13.32,0,0,1-13.31-13.31v-35A13.32,13.32,0,0,1,33.87,56.33H164.13a13.32,13.32,0,0,1,13.31,13.31v35a13.32,13.32,0,0,1-13.31,13.31Z" transform="translate(-20.56 -15.49)" style="fill: #de4a4a;opacity: 0.85"/>
    <g>
      <path d="M164.13,56.33H153.75a13.32,13.32,0,0,1,13.31,13.31v35a13.32,13.32,0,0,1-13.31,13.31h10.38a13.32,13.32,0,0,0,13.31-13.31v-35A13.32,13.32,0,0,0,164.13,56.33Z" transform="translate(-20.56 -15.49)" style="fill: #de4a4a;opacity: 0.85"/>
      <g style="opacity: 0.5">
        <path d="M146.65,69.94H51.35a7,7,0,0,0,0,14h95.3a7,7,0,0,0,0-14Z" transform="translate(-20.56 -15.49)" style="fill: #fff"/>
      </g>
    </g>
    <path d="M54.59,83.9V39.32L78.41,15.49h54a11.06,11.06,0,0,1,11,11V83.9Z" transform="translate(-20.56 -15.49)" style="fill: #f8e9e9"/>
    <path d="M132.36,15.49H122.15a11.06,11.06,0,0,1,11,11V83.9h10.21V26.54A11.06,11.06,0,0,0,132.36,15.49Z" transform="translate(-20.56 -15.49)" style="fill: #f05050;opacity: 0.35000000000000003"/>
    <g style="opacity: 0.85">
      <path d="M82.76,48.4h6a2.06,2.06,0,0,0,2.26-1.76,2.06,2.06,0,0,0-2.26-1.77h-6a2.06,2.06,0,0,0-2.26,1.77A2.06,2.06,0,0,0,82.76,48.4Z" transform="translate(-20.56 -15.49)" style="fill: #de4a4a;opacity: 0.6000000000000001"/>
      <path d="M97.83,48.4h21.1a2.06,2.06,0,0,0,2.26-1.76,2.06,2.06,0,0,0-2.26-1.77H97.83a2.06,2.06,0,0,0-2.26,1.77A2.06,2.06,0,0,0,97.83,48.4Z" transform="translate(-20.56 -15.49)" style="fill: #de4a4a;opacity: 0.6000000000000001"/>
      <path d="M82.76,52.12H64.68a2.06,2.06,0,0,0-2.26,1.77,2.06,2.06,0,0,0,2.26,1.76H82.76A2.06,2.06,0,0,0,85,53.89,2.06,2.06,0,0,0,82.76,52.12Z" transform="translate(-20.56 -15.49)" style="fill: #de4a4a;opacity: 0.6000000000000001"/>
      <path d="M89.54,53.89a2.06,2.06,0,0,0,2.26,1.76h27.13a2.06,2.06,0,0,0,2.26-1.76,2.06,2.06,0,0,0-2.26-1.77H91.8A2.06,2.06,0,0,0,89.54,53.89Z" transform="translate(-20.56 -15.49)" style="fill: #de4a4a;opacity: 0.6000000000000001"/>
    </g>
    <path d="M51.35,107.72a7,7,0,1,1,7-7A7,7,0,0,1,51.35,107.72Z" transform="translate(-20.56 -15.49)" style="fill: #3e3d43"/>
    <path d="M54.59,39.32,78.41,15.49,78.71,37a2.63,2.63,0,0,1-2.66,2.67Z" transform="translate(-20.56 -15.49)" style="fill: #f05050;opacity: 0.35000000000000003"/>
    <path d="M51.35,93.77a6.84,6.84,0,0,0-3.48.94,7,7,0,0,1,0,12.07,7,7,0,1,0,3.48-13Z" transform="translate(-20.56 -15.49)" style="fill: #2e2d30"/>
  </g>
</svg>
