<svg id="Layer_1" data-name="Layer 1" xmlns="http://www.w3.org/2000/svg" viewBox="0 0 67.47 70.61">
  <title>icon3</title>
  <g>
    <g>
      <path d="M49.36,74.73a10,10,0,1,1,10-10A10,10,0,0,1,49.36,74.73Zm0-16.62A6.61,6.61,0,1,0,56,64.71,6.62,6.62,0,0,0,49.36,58.11Z" transform="translate(-16.27 -27.19)" style="fill: #333"/>
      <path d="M49.36,97.81a33.1,33.1,0,1,1,33.1-33.1A33.13,33.13,0,0,1,49.36,97.81Zm0-62.79A29.69,29.69,0,1,0,79.05,64.71,29.73,29.73,0,0,0,49.36,35Z" transform="translate(-16.27 -27.19)" style="fill: #333"/>
      <path d="M68.61,90.56H65.2a15.84,15.84,0,0,0-31.68,0h-3.4a19.25,19.25,0,0,1,38.49,0Z" transform="translate(-16.27 -27.19)" style="fill: #333"/>
    </g>
    <g>
      <path d="M82,41.33A12.44,12.44,0,1,1,69.59,28.9,12.44,12.44,0,0,1,82,41.33Z" transform="translate(-16.27 -27.19)" style="fill: #fff"/>
      <path d="M69.59,55.47A14.14,14.14,0,1,1,83.73,41.33,14.16,14.16,0,0,1,69.59,55.47Zm0-24.87A10.73,10.73,0,1,0,80.32,41.33,10.74,10.74,0,0,0,69.59,30.6Z" transform="translate(-16.27 -27.19)" style="fill: #333"/>
    </g>
    <polygon points="50.84 20.45 45.85 15.46 48.26 13.06 50.84 15.63 58.84 7.63 61.25 10.04 50.84 20.45" style="fill: #333"/>
  </g>
</svg>
