<svg id="Layer_73" data-name="Layer 73" xmlns="http://www.w3.org/2000/svg" viewBox="0 0 18 18">
  <title>language</title>
  <g style="opacity: 0.7000000000000001">
    <path d="M10,1a9,9,0,1,0,9,9A9,9,0,0,0,10,1ZM9.4,2.51V9.4H5.82C6,6.26,7.5,3.56,9.4,2.51Zm1.2,0C12.5,3.56,14,6.26,14.18,9.4H10.6Zm-3.41.21A10.52,10.52,0,0,0,4.62,9.4H2.22A7.8,7.8,0,0,1,7.19,2.72Zm5.62,0a7.8,7.8,0,0,1,5,6.68h-2.4A10.52,10.52,0,0,0,12.81,2.72ZM2.22,10.6h2.4a10.52,10.52,0,0,0,2.57,6.68A7.8,7.8,0,0,1,2.22,10.6Zm3.6,0H9.4v6.89C7.5,16.44,6,13.74,5.82,10.6Zm4.78,0h3.58c-.17,3.14-1.68,5.84-3.58,6.89Zm4.78,0h2.4a7.8,7.8,0,0,1-5,6.68A10.52,10.52,0,0,0,15.38,10.6Z" transform="translate(-1 -1)" style="fill: #fff"/>
  </g>
</svg>
