<svg id="Layer_77" data-name="Layer 77" xmlns="http://www.w3.org/2000/svg" viewBox="0 0 16 13.71">
  <title>wallet icon</title>
  <path d="M16.29,6.06V4.86a1.69,1.69,0,0,0-1.72-1.72H4a2,2,0,0,0-2,2V14a2.83,2.83,0,0,0,2.86,2.86H16.29A1.69,1.69,0,0,0,18,15.14V7.77A1.68,1.68,0,0,0,16.29,6.06ZM4,4.29H14.57a.54.54,0,0,1,.57.57v1.2H4a.88.88,0,0,1-.8-.92A.83.83,0,0,1,4,4.29ZM16.29,15.71H4.86A1.69,1.69,0,0,1,3.14,14V7A2.3,2.3,0,0,0,4,7.2H16.29a.54.54,0,0,1,.57.57V9.43H14A2.29,2.29,0,1,0,14,14h2.86v1.14A.54.54,0,0,1,16.29,15.71Zm.57-2.85H14a1.15,1.15,0,0,1,0-2.29h2.86Z" transform="translate(-2 -3.14)" style="fill: #f05050"/>
</svg>
