<svg xmlns="http://www.w3.org/2000/svg" xmlns:xlink="http://www.w3.org/1999/xlink" width="112" height="112" viewBox="0 0 112 112">
  <defs>
    <clipPath id="clip-quiz">
      <rect width="112" height="112"/>
    </clipPath>
  </defs>
  <g id="quiz" clip-path="url(#clip-quiz)">
    <rect width="112" height="112" fill="#fff"/>
    <g id="Group_605" data-name="Group 605" transform="translate(-1265.088 -986.02)">
      <path id="Path_255" data-name="Path 255" d="M1293.644,1020.957V993.345h-9.3V1022.1a6.884,6.884,0,0,0-1.712,4.529,6.975,6.975,0,1,0,11.012-5.668Z" transform="translate(31.185 26.736)" fill="#282828"/>
      <path id="Path_256" data-name="Path 256" d="M1354.928,1001.044l-10.235,10.23a46.338,46.338,0,0,0-19.864-6.449v-9.5h9.709v-9.3h-27.9v9.3h8.891v9.616a46.827,46.827,0,1,0,36.707,11.955l9.267-9.272Zm3.269,50.276a37.4,37.4,0,1,1-39.688-37.284h4.567A37.418,37.418,0,0,1,1358.2,1051.32Z" transform="translate(0 0)" fill="#282828"/>
      <path id="Path_257" data-name="Path 257" d="M1286,994.274v10.216a18.69,18.69,0,0,1,9.662,16.3c0,.07-.019.135-.019.2h9.309c0-.066.009-.135.009-.2A28.088,28.088,0,0,0,1286,994.274Z" transform="translate(43.478 30.127)" fill="#282828"/>
    </g>
  </g>
</svg>
