<svg xmlns="http://www.w3.org/2000/svg" width="17.035" height="12.335" viewBox="0 0 17.035 12.335">
    <g id="prefix__Group_103" data-name="Group 103" transform="translate(-1137.477 -2295.683)">
        <path id="prefix__Multimedia" d="M1149.232 2306.194h-9.3a1.421 1.421 0 0 1-1.419-1.419v-7.675a1.42 1.42 0 0 1 1.419-1.419h9.3a1.42 1.42 0 0 1 1.419 1.419v.985l2.318-1.165a.721.721 0 0 1 .324-.077 1.37 1.37 0 0 1 1.312 1.419v5.348a1.37 1.37 0 0 1-1.312 1.419.719.719 0 0 1-.353-.093l-2.288-1.286v1.122a1.421 1.421 0 0 1-1.42 1.422zm-.024-9.093l-9.277.023.024 7.65 9.278-.024-.024-2.331a.721.721 0 0 1 1.075-.629l2.873 1.615.005-4.966-2.907 1.463a.722.722 0 0 1-1.046-.645z" transform="translate(-.093)" style="fill:#5a5b5e"/>
        <circle id="prefix__Ellipse_5" cx="2.761" cy="2.761" r="2.761" data-name="Ellipse 5" transform="translate(1137.977 2301.996)" style="fill:#e9373f;stroke:#fff;stroke-miterlimit:10"/>
    </g>
</svg>
