<?xml version="1.0" encoding="iso-8859-1"?>
<!-- Generator: Adobe Illustrator 20.1.0, SVG Export Plug-In . SVG Version: 6.00 Build 0)  -->
<svg version="1.1" id="Layer_1" xmlns="http://www.w3.org/2000/svg" xmlns:xlink="http://www.w3.org/1999/xlink" x="0px" y="0px"
	 viewBox="0 0 18 18" style="enable-background:new 0 0 20 20;" xml:space="preserve">
<g>
	<path style="fill:#2C2E2F;stroke:#2C2E2F;stroke-width:0.25;stroke-miterlimit:10;" d="M9,1.349c-4.407,0-8,3.088-8,6.953
		c0,2.243,1.229,4.196,3.117,5.473c-0.003,0.075,0.003,0.196-0.095,0.562c-0.123,0.451-0.369,1.088-0.87,1.804l-0.356,0.51h0.621
		c2.153,0,3.399-1.404,3.593-1.629c0.64,0.15,1.3,0.233,1.99,0.233c4.407,0,8-3.088,8-6.953C17,4.437,13.407,1.349,9,1.349L9,1.349z
		 M9,1.998c4.106,0,7.351,2.843,7.351,6.305c0,3.462-3.245,6.305-7.351,6.305c-0.711,0-1.382-0.068-2.012-0.233l-0.202-0.053
		l-0.132,0.162c0,0-1.007,1.137-2.615,1.411c0.292-0.526,0.507-1.017,0.607-1.387c0.14-0.517,0.143-0.865,0.143-0.865v-0.179
		l-0.15-0.095c-1.843-1.172-2.99-2.986-2.99-5.064C1.649,4.841,4.894,1.998,9,1.998L9,1.998z M5.511,7.604
		c-0.386,0-0.698,0.312-0.698,0.698C4.813,8.688,5.125,9,5.511,9c0.386,0,0.698-0.312,0.698-0.698
		C6.209,7.917,5.897,7.604,5.511,7.604L5.511,7.604z M9,7.604c-0.386,0-0.698,0.312-0.698,0.698C8.302,8.688,8.614,9,9,9
		c0.386,0,0.698-0.312,0.698-0.698C9.698,7.917,9.386,7.604,9,7.604L9,7.604z M12.489,7.604c-0.386,0-0.698,0.312-0.698,0.698
		C11.791,8.688,12.103,9,12.489,9c0.386,0,0.698-0.312,0.698-0.698C13.187,7.917,12.875,7.604,12.489,7.604L12.489,7.604z"/>
</g>
</svg>
