<?xml version="1.0" encoding="utf-8"?>
<!-- Generator: Adobe Illustrator 20.1.0, SVG Export Plug-In . SVG Version: 6.00 Build 0)  -->
<svg version="1.1" id="Layer_1" xmlns="http://www.w3.org/2000/svg" xmlns:xlink="http://www.w3.org/1999/xlink" x="0px" y="0px"
	 viewBox="0 0 24 24" style="enable-background:new 0 0 24 24;" xml:space="preserve">
<style type="text/css">
	.st0{opacity:0.7;fill:#2C2E2F;}
	.st1{opacity:0.7;fill:#2C2E2E;}
</style>
<g>
	<g>
		<g>
			<path class="st0" d="M1,21c0-5.7,6.5-4.1,7.3-6.5v-1.6c-0.4-0.2-1.4-1.4-1.5-2.4c-0.3,0-0.7-0.3-0.9-1.3c-0.1-0.6,0.2-0.9,0.4-1
				c0,0-0.4-0.9-0.4-1.8c0-2.7,1.4-4.9,4.9-4.9c1.9,0,2.4,1.2,2.4,1.2c1.7,0,2.4,1.7,2.4,3.7c0,1-0.4,1.8-0.4,1.8
				c0.2,0.1,0.5,0.4,0.4,1c-0.1,1-0.6,1.3-0.9,1.3c-0.1,1-1.2,2.2-1.5,2.4v1.6c0.1,0.4,0.4,0.9,0.8,0.9c-2.7,0-4.3,4-1.1,5.6H1z"/>
			<g>
				<path class="st1" d="M22.5,18.3c0,0.6-0.5,1.1-1.1,1.1H14c-0.6,0-1.1-0.5-1.1-1.1c0-0.6,0.5-1.1,1.1-1.1h7.3
					C22,17.2,22.5,17.7,22.5,18.3L22.5,18.3z"/>
				<path class="st1" d="M17.7,23c-0.6,0-1.1-0.5-1.1-1.1v-7.3c0-0.6,0.5-1.1,1.1-1.1c0.6,0,1.1,0.5,1.1,1.1V22
					C18.8,22.6,18.3,23,17.7,23L17.7,23z"/>
			</g>
		</g>
	</g>
</g>
</svg>
