<svg xmlns="http://www.w3.org/2000/svg" width="15" height="15" viewBox="0 0 100 100">
  <defs>
    <style>
      .cls-1 {
        fill: #000;
        fill-rule: evenodd;
      }
    </style>
  </defs>
  <path id="_4_" data-name="4 " class="cls-1" d="M86,92H14A12,12,0,0,1,2,80V32A12,12,0,0,1,14,20h9l3-6c1.591-3.137,2.686-6,6-6H68c3.314,0,4.232,2.509,6,6l3,6h9A12,12,0,0,1,98,32V80A12,12,0,0,1,86,92Zm0-66a6,6,0,0,1,6,6V80a6,6,0,0,1-6,6H14a6,6,0,0,1-6-6V32a6,6,0,0,1,6-6H26l3-6c2.121-3.49,2.686-6,6-6H65c3.314,0,3.879,2.51,6,6l3,6H86ZM50,80A24,24,0,1,1,74,56,24,24,0,0,1,50,80Zm0-42A18,18,0,1,0,68,56,18,18,0,0,0,50,38Z"/>
</svg>
