<svg xmlns="http://www.w3.org/2000/svg" xmlns:xlink="http://www.w3.org/1999/xlink" viewBox="0 0 64 64" version="1.1" width="100" height="100" style="fill: #2c2e2f;">
<g id="surface1">
<path style=" " d="M 32 4.171875 C 14.355469 4.171875 0 15.652344 0 29.761719 C 0 43.867188 14.355469 55.34375 32 55.34375 C 34.207031 55.34375 36.429688 55.15625 38.621094 54.789063 C 39.902344 56.804688 43.453125 61.121094 51.023438 62.804688 C 51.09375 62.820313 51.167969 62.828125 51.238281 62.828125 C 51.558594 62.828125 51.863281 62.675781 52.050781 62.410156 C 52.285156 62.089844 52.304688 61.65625 52.097656 61.3125 C 49.90625 57.65625 49.265625 53.742188 49.09375 51.394531 C 58.441406 46.675781 64 38.632813 64 29.761719 C 64 15.652344 49.644531 4.171875 32 4.171875 Z M 32 6.171875 C 48.542969 6.171875 62 16.753906 62 29.761719 C 62 38.035156 56.625 45.5625 47.621094 49.890625 C 47.261719 50.066406 47.039063 50.441406 47.058594 50.839844 C 47.148438 52.871094 47.574219 56.527344 49.285156 60.257813 C 43.199219 58.261719 40.675781 54.429688 40.003906 53.203125 C 39.824219 52.878906 39.488281 52.683594 39.125 52.683594 C 39.066406 52.683594 39.003906 52.691406 38.941406 52.703125 C 36.652344 53.128906 34.316406 53.34375 32 53.34375 C 15.457031 53.34375 2 42.765625 2 29.761719 C 2 16.753906 15.457031 6.171875 32 6.171875 Z M 32 10 C 18.238281 10 7.046875 18.972656 7.046875 30 C 7.046875 31.347656 7.210938 32.691406 7.539063 33.996094 C 7.65625 34.449219 8.0625 34.75 8.507813 34.75 C 8.589844 34.75 8.675781 34.742188 8.757813 34.71875 C 9.289063 34.585938 9.613281 34.039063 9.480469 33.503906 C 9.191406 32.359375 9.046875 31.183594 9.046875 30 C 9.046875 20.074219 19.34375 12 32 12 C 36.066406 12 40.0625 12.847656 43.554688 14.449219 C 44.058594 14.679688 44.652344 14.457031 44.878906 13.953125 C 45.109375 13.453125 44.890625 12.859375 44.390625 12.628906 C 40.636719 10.910156 36.351563 10 32 10 Z M 48.054688 15.019531 C 47.800781 15.058594 47.5625 15.199219 47.402344 15.421875 C 47.078125 15.867188 47.171875 16.492188 47.621094 16.816406 C 48.511719 17.46875 49.347656 18.183594 50.105469 18.9375 C 50.296875 19.136719 50.554688 19.234375 50.8125 19.234375 C 51.066406 19.234375 51.324219 19.136719 51.515625 18.941406 C 51.910156 18.550781 51.910156 17.917969 51.519531 17.527344 C 50.695313 16.699219 49.777344 15.914063 48.796875 15.203125 C 48.574219 15.039063 48.308594 14.980469 48.054688 15.019531 Z M 53.472656 20.8125 C 53.347656 20.832031 53.21875 20.875 53.101563 20.945313 C 52.628906 21.230469 52.476563 21.84375 52.761719 22.316406 C 54.21875 24.730469 54.953125 27.3125 54.953125 30 C 54.953125 38.195313 47.894531 45.359375 37.789063 47.421875 C 37.25 47.53125 36.898438 48.0625 37.011719 48.601563 C 37.105469 49.074219 37.523438 49.402344 37.988281 49.402344 C 38.054688 49.402344 38.121094 49.394531 38.1875 49.378906 C 49.238281 47.125 56.953125 39.15625 56.953125 30 C 56.953125 26.945313 56.121094 24.011719 54.472656 21.285156 C 54.257813 20.929688 53.859375 20.757813 53.472656 20.8125 Z M 20 28 C 18.894531 28 18 28.894531 18 30 C 18 31.105469 18.894531 32 20 32 C 21.105469 32 22 31.105469 22 30 C 22 28.894531 21.105469 28 20 28 Z M 32 28 C 30.894531 28 30 28.894531 30 30 C 30 31.105469 30.894531 32 32 32 C 33.105469 32 34 31.105469 34 30 C 34 28.894531 33.105469 28 32 28 Z M 44 28 C 42.894531 28 42 28.894531 42 30 C 42 31.105469 42.894531 32 44 32 C 45.105469 32 46 31.105469 46 30 C 46 28.894531 45.105469 28 44 28 Z M 12.945313 36.8125 C 12.695313 36.769531 12.421875 36.816406 12.199219 36.976563 L 10.558594 38.125 C 10.105469 38.4375 9.996094 39.0625 10.3125 39.515625 C 10.503906 39.792969 10.816406 39.941406 11.128906 39.941406 C 11.328125 39.941406 11.527344 39.882813 11.703125 39.761719 L 13.34375 38.613281 C 13.792969 38.300781 13.90625 37.675781 13.589844 37.222656 C 13.433594 37 13.195313 36.855469 12.945313 36.8125 Z M 16.386719 40.84375 C 16.128906 40.867188 15.882813 40.988281 15.703125 41.199219 L 14.417969 42.726563 C 14.0625 43.148438 14.117188 43.78125 14.539063 44.136719 C 14.726563 44.292969 14.957031 44.371094 15.183594 44.371094 C 15.46875 44.371094 15.75 44.25 15.949219 44.015625 L 17.234375 42.484375 C 17.589844 42.0625 17.539063 41.429688 17.113281 41.074219 C 16.902344 40.898438 16.640625 40.824219 16.386719 40.84375 Z M 21.128906 43.792969 C 20.738281 43.777344 20.359375 43.992188 20.1875 44.363281 L 19.339844 46.175781 C 19.105469 46.679688 19.320313 47.273438 19.820313 47.507813 C 19.957031 47.570313 20.101563 47.601563 20.246094 47.601563 C 20.621094 47.601563 20.980469 47.386719 21.152344 47.027344 L 22 45.214844 C 22.230469 44.714844 22.015625 44.117188 21.515625 43.886719 C 21.390625 43.828125 21.257813 43.796875 21.128906 43.792969 Z M 26.496094 45.457031 C 25.941406 45.355469 25.433594 45.722656 25.335938 46.265625 L 24.984375 48.238281 C 24.886719 48.78125 25.25 49.300781 25.796875 49.394531 C 25.855469 49.40625 25.914063 49.410156 25.96875 49.410156 C 26.445313 49.410156 26.867188 49.070313 26.953125 48.589844 L 27.304688 46.617188 C 27.402344 46.070313 27.039063 45.554688 26.496094 45.457031 Z M 31.707031 45.6875 C 31.160156 45.738281 30.753906 46.222656 30.800781 46.773438 L 30.972656 48.765625 C 31.019531 49.285156 31.453125 49.675781 31.96875 49.675781 C 31.996094 49.675781 32.027344 49.675781 32.058594 49.671875 C 32.605469 49.625 33.011719 49.144531 32.964844 48.59375 L 32.792969 46.597656 C 32.746094 46.050781 32.28125 45.628906 31.707031 45.6875 Z "/>
</g>
</svg>