<?xml version="1.0" encoding="iso-8859-1"?>
<!-- Generator: Adobe Illustrator 20.1.0, SVG Export Plug-In . SVG Version: 6.00 Build 0)  -->
<svg version="1.1" id="Layer_1" xmlns="http://www.w3.org/2000/svg" xmlns:xlink="http://www.w3.org/1999/xlink" x="0px" y="0px"
	 viewBox="0 0 18 18" style="enable-background:new 0 0 18 18;" xml:space="preserve">
<g>
	<path style="fill:#F05050;" d="M9.003,0.221c-4.93,0-8.948,3.464-8.948,7.798c0,2.516,1.375,4.706,3.486,6.138
		c-0.003,0.084,0.003,0.22-0.107,0.63c-0.137,0.506-0.413,1.22-0.972,2.024l-0.398,0.572h0.695c2.408,0,3.802-1.575,4.018-1.827
		c0.716,0.168,1.454,0.261,2.225,0.261c4.93,0,8.948-3.464,8.948-7.798S13.933,0.221,9.003,0.221L9.003,0.221z M9.003,0.949
		c4.593,0,8.222,3.188,8.222,7.07s-3.629,7.07-8.222,7.07c-0.796,0-1.546-0.076-2.25-0.261l-0.226-0.059l-0.148,0.182
		c0,0-1.126,1.275-2.925,1.582c0.326-0.59,0.567-1.14,0.679-1.556c0.157-0.579,0.16-0.97,0.16-0.97v-0.2l-0.168-0.107
		c-2.061-1.315-3.344-3.349-3.344-5.68C0.781,4.137,4.41,0.949,9.003,0.949L9.003,0.949z M5.101,7.237
		c-0.431,0-0.78,0.35-0.78,0.783c0,0.432,0.349,0.783,0.78,0.783c0.431,0,0.78-0.35,0.78-0.783C5.881,7.587,5.532,7.237,5.101,7.237
		L5.101,7.237z M9.003,7.237c-0.431,0-0.78,0.35-0.78,0.783c0,0.432,0.349,0.783,0.78,0.783s0.78-0.35,0.78-0.783
		C9.783,7.587,9.434,7.237,9.003,7.237L9.003,7.237z M12.905,7.237c-0.431,0-0.78,0.35-0.78,0.783c0,0.432,0.349,0.783,0.78,0.783
		c0.431,0,0.78-0.35,0.78-0.783C13.686,7.587,13.336,7.237,12.905,7.237L12.905,7.237z"/>
</g>
</svg>
