<?xml version="1.0" encoding="utf-8"?>
<!-- Generator: Adobe Illustrator 22.0.1, SVG Export Plug-In . SVG Version: 6.00 Build 0)  -->
<svg version="1.1" id="Layer_1" xmlns="http://www.w3.org/2000/svg" xmlns:xlink="http://www.w3.org/1999/xlink" x="0px" y="0px"
	 viewBox="0 0 100 100" style="enable-background:new 0 0 100 100;fill:#ffbb58;" xml:space="preserve">

<g>
	<g>
		<defs>
			<rect id="SVGID_1_" x="0" y="2" width="100" height="96"/>
		</defs>
		<clipPath id="SVGID_2_">
			<use xlink:href="#SVGID_1_"  style="overflow:visible;"/>
		</clipPath>
	</g>
</g>
<g>
	<g>
		<defs>
			<rect id="SVGID_3_" x="0" y="2" width="100" height="96"/>
		</defs>
		<clipPath id="SVGID_4_">
			<use xlink:href="#SVGID_3_"  style="overflow:visible;"/>
		</clipPath>
		<path class="st0" d="M79.6,97.2c-0.4,0-0.8-0.2-1-0.4L50,78.6L21.4,97c-0.6,0.4-1.6,0.4-2.2,0c-0.6-0.4-1-1.4-0.8-2.2L27.2,62
			L0.8,40.4C0,39.8-0.2,39,0,38.2c0.2-0.8,1-1.4,1.8-1.4l34-1.8L48.2,3.2C48.4,2.6,49.2,2,50,2c0.8,0,1.6,0.6,1.8,1.2L64.2,35
			l34,1.8c0.8,0,1.6,0.6,1.8,1.4c0.2,0.8,0,1.6-0.6,2.2L72.8,62l8.6,32.8c0.2,0.8,0,1.6-0.8,2.2C80.4,97,80,97.2,79.6,97.2
			L79.6,97.2z M50,74.2c0,0,0.8,0.2,1,0.4l25.2,16.2l-7.6-29c-0.2-0.8,0-1.6,0.6-2l23.4-19.2l-30-1.6c-0.8,0-1.4-0.6-1.8-1.2L50,9.6
			V74.2z"/>
	</g>
</g>
</svg>
