<?xml version="1.0" encoding="utf-8"?>
<!-- Generator: Adobe Illustrator 22.0.1, SVG Export Plug-In . SVG Version: 6.00 Build 0)  -->
<svg version="1.1" id="Layer_1" xmlns="http://www.w3.org/2000/svg" xmlns:xlink="http://www.w3.org/1999/xlink" x="0px" y="0px"
	 viewBox="0 0 100 100" style="enable-background:new 0 0 100 100;fill:#F05050;" xml:space="preserve">
<style type="text/css">
	.st0{clip-path:url(#SVGID_2_);}
</style>
<g>
	<g>
		<defs>
			<rect id="SVGID_1_" x="0" y="2" width="100" height="96"/>
		</defs>
		<clipPath id="SVGID_2_">
			<use xlink:href="#SVGID_1_"  style="overflow:visible;"/>
		</clipPath>
		<path class="st0" d="M50,2c-0.8,0-1.6,0.5-1.9,1.3L35.8,35.1L1.9,36.8c-1.8,0.1-2.6,2.4-1.2,3.5l26.4,21.6l-8.7,32.8
			c-0.5,1.8,1.5,3.2,3,2.2L50,78.6l28.5,18.3c1.5,1,3.5-0.4,3-2.2l-8.7-32.8l26.4-21.6c1.4-1.2,0.7-3.5-1.2-3.5l-33.9-1.7L51.9,3.3
			C51.6,2.5,50.8,2,50,2L50,2z M50,9.5l10.9,28.2c0.3,0.7,1,1.2,1.8,1.3l30,1.5L69.3,59.7c-0.6,0.5-0.9,1.3-0.7,2.1l7.7,29
			L51.1,74.5c-0.7-0.4-1.5-0.4-2.2,0L23.6,90.7l7.7-29c0.2-0.8-0.1-1.6-0.7-2.1L7.3,40.5l30-1.5c0.8,0,1.5-0.5,1.8-1.3L50,9.5z"/>
	</g>
</g>
</svg>
