<?xml version="1.0" encoding="utf-8"?>
<!-- Generator: Adobe Illustrator 22.0.1, SVG Export Plug-In . SVG Version: 6.00 Build 0)  -->
<svg version="1.1" id="Layer_1" xmlns="http://www.w3.org/2000/svg" xmlns:xlink="http://www.w3.org/1999/xlink" x="0px" y="0px"
	 viewBox="0 0 100 100" style="enable-background:new 0 0 100 100;fill:#2c2e2f;" xml:space="preserve">
<g>
	<g>
		<defs>
			<rect id="SVGID_1_" x="0" y="2" width="100" height="96"/>
		</defs>
		<clipPath id="SVGID_2_">
			<use xlink:href="#SVGID_1_"  style="overflow:visible;"/>
		</clipPath>
	</g>
</g>
<g>
	<g>
		<defs>
			<rect id="SVGID_3_" x="0" y="2" width="100" height="96"/>
		</defs>
		<clipPath id="SVGID_4_">
			<use xlink:href="#SVGID_3_"  style="overflow:visible;"/>
		</clipPath>
	</g>
</g>
<path d="M20.5,97.6c-0.4,0-0.8-0.2-1.2-0.4c-0.6-0.4-1-1.4-0.8-2.2l8.8-32.8L0.9,40.8c-0.8-0.4-1-1.4-0.8-2.2c0.2-0.8,1-1.4,1.8-1.4
	l34-1.8L48.1,3.6c0.4-0.6,1.2-1.2,2-1.2c0.8,0,1.6,0.6,1.8,1.2l12.2,31.8l34,1.8c0.8,0,1.6,0.6,1.8,1.4c0.2,0.8,0,1.6-0.6,2.2
	L72.9,62.2L81.7,95c0.2,0.8,0,1.6-0.8,2.2c-0.6,0.4-1.6,0.6-2.2,0L50.1,78.8L21.5,97.2C21.1,97.6,20.9,97.6,20.5,97.6L20.5,97.6z"/>
</svg>
