<?xml version="1.0" encoding="iso-8859-1"?>
<!-- Generator: Adobe Illustrator 20.1.0, SVG Export Plug-In . SVG Version: 6.00 Build 0)  -->
<svg version="1.1" id="Layer_1" xmlns="http://www.w3.org/2000/svg" xmlns:xlink="http://www.w3.org/1999/xlink" x="0px" y="0px"
	 viewBox="0 0 16 16" style="enable-background:new 0 0 16 16;" xml:space="preserve">
<g>
	<path style="fill:#F05050;" d="M1,2.96v10.08h14V2.96H1z M1.56,3.52h12.88v0.701c-0.119,0.104-5.093,4.438-5.506,4.798
		C8.571,9.336,8.201,9.4,8,9.4c-0.2,0-0.571-0.064-0.934-0.381C6.653,8.659,1.679,4.325,1.56,4.221L1.56,3.52z M1.56,4.963
		c0.683,0.595,4.751,4.141,5.139,4.479C7.175,9.856,7.679,9.96,8,9.96c0.321,0,0.825-0.104,1.301-0.519
		c0.388-0.338,4.457-3.884,5.139-4.479v7.517H1.56L1.56,4.963z"/>
</g>
</svg>
