<svg id="Layer_1" data-name="Layer 1" xmlns="http://www.w3.org/2000/svg" viewBox="0 0 76 76" style="fill: #2c2e2f;"><title>icons8-notification_unfill</title><path d="M50,12A26.59,26.59,0,0,1,76.59,38.6c0,14.29,1.35,18.77,10.29,27.71a3.8,3.8,0,0,1-2.69,6.49H63.1l.19,1.9a13.3,13.3,0,1,1-26.59,0l.19-1.9H15.81a3.8,3.8,0,0,1-2.69-6.49c5-5,7.7-9.2,9-13.6C23.2,49.18,23.4,46.3,23.4,38.6A26.6,26.6,0,0,1,50,12Zm0,3.8A22.8,22.8,0,0,0,27.2,38.6c0,11.4,0,19-11.39,30.4H84.19c-11.4-11.4-11.4-19-11.4-30.4A22.79,22.79,0,0,0,50,15.8Zm9.3,57H40.69l-.19,1.9a9.5,9.5,0,0,0,19,0Z" transform="translate(-12 -12)"/></svg>