<?xml version="1.0" encoding="utf-8"?>
<!-- Generator: Adobe Illustrator 20.1.0, SVG Export Plug-In . SVG Version: 6.00 Build 0)  -->
<svg version="1.1" id="Layer_1" xmlns="http://www.w3.org/2000/svg" xmlns:xlink="http://www.w3.org/1999/xlink" x="0px" y="0px"
	 viewBox="0 0 24 24" style="enable-background:new 0 0 24 24;" xml:space="preserve">
<style type="text/css">
	.st0{opacity:0.7;fill:#2C2E2F;}
</style>
<g>
	<g>
		<path class="st0" d="M10.8,0.6c-3.5,0-4.9,2.2-4.9,4.9c0,0.9,0.4,1.8,0.4,1.8c-0.2,0.1-0.5,0.4-0.4,1c0.1,1,0.6,1.3,0.9,1.3
			c0.1,1,1.2,2.2,1.5,2.4v1.6C7.5,16.1,1,14.4,1,20.1h9.4c-0.3-0.8-0.4-1.6-0.4-2.4c0-2.9,1.7-5.4,4.1-6.6c0.3-0.5,0.6-1,0.7-1.5
			c0.3,0,0.7-0.3,0.9-1.3c0.1-0.6-0.2-0.9-0.4-1c0,0,0.4-0.8,0.4-1.8c0-2-0.8-3.7-2.4-3.7C13.2,1.8,12.6,0.6,10.8,0.6L10.8,0.6z
			 M17.3,12c-3.2,0-5.7,2.6-5.7,5.7c0,3.2,2.6,5.7,5.7,5.7c3.2,0,5.7-2.6,5.7-5.7C23,14.6,20.4,12,17.3,12L17.3,12z M17.3,14.4
			c0.4,0,0.8,0.4,0.8,0.8v1.6h1.6c0.4,0,0.8,0.4,0.8,0.8c0,0.5-0.4,0.8-0.8,0.8h-1.6v1.6c0,0.5-0.4,0.8-0.8,0.8
			c-0.4,0-0.8-0.4-0.8-0.8v-1.6h-1.6c-0.4,0-0.8-0.4-0.8-0.8c0-0.5,0.4-0.8,0.8-0.8h1.6v-1.6C16.5,14.8,16.8,14.4,17.3,14.4
			L17.3,14.4z"/>
	</g>
</g>
</svg>
