<?xml version="1.0" encoding="iso-8859-1"?>
<!-- Generator: Adobe Illustrator 20.1.0, SVG Export Plug-In . SVG Version: 6.00 Build 0)  -->
<svg version="1.1" id="Layer_1" xmlns="http://www.w3.org/2000/svg" xmlns:xlink="http://www.w3.org/1999/xlink" x="0px" y="0px"
	 viewBox="0 0 20 20" style="enable-background:new 0 0 20 20;" xml:space="preserve">
<g>
	<g>
		<defs>
			<rect id="SVGID_1_" x="1.162" y="2.63" width="21.676" height="14.74"/>
		</defs>
		<clipPath id="SVGID_2_">
			<use xlink:href="#SVGID_1_"  style="overflow:visible;"/>
		</clipPath>
		<path style="clip-path:url(#SVGID_2_);fill:#2c2e2f;" d="M17.595,3.05c-0.019,0.003-0.037,0.008-0.054,0.013
			c-0.098,0.024-0.185,0.081-0.244,0.163L6.771,15.853l-4.864-4.864c-0.173-0.173-0.45-0.173-0.623,0s-0.173,0.45,0,0.623
			l5.202,5.202c0.088,0.088,0.21,0.135,0.334,0.127c0.125-0.009,0.24-0.069,0.316-0.168L17.974,3.768
			c0.121-0.136,0.144-0.33,0.059-0.491C17.949,3.118,17.775,3.026,17.595,3.05L17.595,3.05z"/>
	</g>
</g>
</svg>
