<svg id="Layer_113" data-name="Layer 113" xmlns="http://www.w3.org/2000/svg" viewBox="0 0 15.29 16">
  <title>1</title>
  <g>
    <g>
      <path d="M9.86,12.77a2.27,2.27,0,1,1,2.26-2.27A2.27,2.27,0,0,1,9.86,12.77ZM9.86,9a1.5,1.5,0,1,0,1.49,1.5A1.5,1.5,0,0,0,9.86,9Z" transform="translate(-2.36 -2)"  style="fill: #68a9d3"/>
      <path d="M9.86,18a7.5,7.5,0,1,1,7.49-7.5A7.5,7.5,0,0,1,9.86,18Zm0-14.23a6.73,6.73,0,1,0,6.72,6.73A6.74,6.74,0,0,0,9.86,3.77Z" transform="translate(-2.36 -2)" style="fill: #68a9d3"/>
      <path d="M14.22,16.36h-.78a3.59,3.59,0,1,0-7.17,0H5.49a4.37,4.37,0,0,1,8.73,0Z" transform="translate(-2.36 -2)" style="fill: #68a9d3"/>
    </g>
    <g>
      <path d="M17.26,5.2a2.82,2.82,0,1,1-2.82-2.81A2.82,2.82,0,0,1,17.26,5.2Z" transform="translate(-2.36 -2)" style="fill: #edf1f4"/>
      <path d="M14.44,8.41a3.21,3.21,0,1,1,3.2-3.21A3.21,3.21,0,0,1,14.44,8.41Zm0-5.64A2.43,2.43,0,1,0,16.87,5.2,2.43,2.43,0,0,0,14.44,2.77Z" transform="translate(-2.36 -2)" style="fill: #68a9d3"/>
    </g>
    <polygon points="11.52 4.63 10.39 3.5 10.94 2.96 11.52 3.54 13.33 1.73 13.88 2.27 11.52 4.63" style="fill: #68a9d3"/>
  </g>
</svg>
