<?xml version="1.0" encoding="utf-8"?>
<!-- Svg Vector Icons : http://www.onlinewebfonts.com/icon -->
<!DOCTYPE svg PUBLIC "-//W3C//DTD SVG 1.1//EN" "http://www.w3.org/Graphics/SVG/1.1/DTD/svg11.dtd">
<svg version="1.1" xmlns="http://www.w3.org/2000/svg" xmlns:xlink="http://www.w3.org/1999/xlink" x="0px" y="0px" viewBox="0 0 1000 1000" enable-background="new 0 0 1000 1000" xml:space="preserve">
<metadata> Svg Vector Icons : http://www.onlinewebfonts.com/icon </metadata>
<g><g transform="translate(0.000000,511.000000) scale(0.100000,-0.100000)"><path d="M157.3,3570.7l-57.3-57.3V793.7V-1924l47.4-55.3l47.4-55.3l2755.2-5.9l2753.2-4l94.9-185.8c314.3-616.7,903.3-1049.5,1579.2-1158.2c239.2-39.5,691.8-15.8,915.1,45.4c367.6,102.8,658.2,270.8,942.8,543.5c762.9,733.3,883.5,1899.4,286.6,2779c-104.7,154.2-330.1,391.3-488.2,509.9l-128.5,98.8l-9.9,1472.5l-9.9,1472.5l-55.3,47.4l-55.4,47.4H4495.7H214.6L157.3,3570.7z M8579.2,2034.9c0-1207.6-2-1276.8-33.6-1263c-474.4,191.7-1061.4,205.5-1533.7,35.6c-258.9-92.9-585.1-282.6-705.6-411.1c-25.7-27.7-53.4-49.4-61.3-49.4c-19.8,0-810.4,666.1-810.4,681.9c0,7.9,527.7,341.9,1172.1,743.2c644.3,401.2,1201.7,751.1,1235.3,778.7c53.4,41.5,65.2,65.2,65.2,126.5c0,136.4-112.7,189.7-243.1,116.6c-45.5-25.7-794.6-492.1-1664.2-1033.7c-869.7-543.5-1595-986.3-1610.8-986.3c-15.8,0-766.9,464.5-1668.2,1035.7c-901.3,569.2-1660.3,1039.6-1687.9,1043.6c-110.7,21.7-207.5-106.7-156.2-209.5c15.8-35.6,377.5-274.7,1213.6-804.4c654.2-413.1,1199.7-760.9,1209.6-770.8c13.8-13.8-357.7-340-1172.1-1023.8C1473.7-506.9,920.2-975.3,900.5-997c-88.9-98.8,5.9-274.7,132.4-249c35.6,7.9,502,387.4,1304.5,1061.4c687.8,579.1,1261,1051.5,1272.9,1051.5s177.9-98.8,369.6-219.4C4221,493.3,4345.5,426.1,4385,426.1c41.5,0,168,67.2,407.2,215.4l347.9,217.4l434.8-365.7c239.2-201.6,434.8-373.6,434.8-381.5c0-9.9-39.5-75.1-88.9-148.2c-175.9-262.9-300.4-587-345.9-905.2c-23.7-162.1-17.8-513.9,11.9-711.5l11.9-75.1H3007.4H416.2v2520v2520h4081.5h4081.4V2034.9z M8027.7,594.1C8751.1,467.6,9304.5-24.6,9522-734.2c47.4-158.1,53.4-205.5,53.4-500.1c2-282.6-4-347.9-43.5-484.2c-215.4-751.1-838-1286.7-1601-1377.6c-375.5-43.5-786.6,41.5-1128.6,235.2c-332,187.8-656.2,559.3-802.4,919.1c-205.6,508-170,1132.5,92.9,1597C6484.1,349,7264.8,728.5,8027.7,594.1z"/><path d="M7432.8,28.8c-365.7-92.9-660.2-332.1-820.2-660.2c-94.9-191.7-128.5-341.9-128.5-563.3c0-361.7,110.7-628.5,363.7-879.5c268.8-266.8,523.8-373.6,891.4-373.6c367.6,0,622.6,106.7,891.4,373.6c253,251,363.7,519.8,365.7,879.5c0,219.4-35.6,371.6-130.4,563.3C8606.9-103.6,8000.1,177,7432.8,28.8z M8023.8-285.5c134.4-45.4,262.9-116.6,254.9-140.3c-7.9-23.7-1265-1361.8-1278.8-1361.8c-23.7,0-136.4,205.6-170,306.4C6669.9-1001,6940.6-465.3,7430.8-293.4C7602.8-232.1,7857.8-228.2,8023.8-285.5z M8604.9-795.4c162.1-359.7,94.9-757-173.9-1049.5c-280.7-300.4-751.1-387.4-1112.8-201.6l-85,43.5l154.2,164.1c85,88.9,371.6,395.3,638.4,679.9c336,357.8,490.2,509.9,506,496.1C8543.6-672.9,8577.2-732.2,8604.9-795.4z"/></g></g>
</svg>