<svg id="Layer_105" data-name="Layer 105" xmlns="http://www.w3.org/2000/svg" viewBox="0 0 16 11.9">
  <title>exit icon</title>
  <g>
    <path d="M15.52,10.73H7.09a.73.73,0,1,1,0-1.46h8.43l-.94-.94a.72.72,0,0,1,0-1,.74.74,0,0,1,1,0l2.18,2.19,0,0h0l0,0h0a.08.08,0,0,1,0,.05h0a.08.08,0,0,1,0,.05h0a.14.14,0,0,0,0,.06h0s0,0,0,.06v0a.11.11,0,0,0,0,0v.14a.11.11,0,0,0,0,0v0s0,0,0,.06h0a.14.14,0,0,0,0,.06h0a.08.08,0,0,1,0,.05h0a.08.08,0,0,1,0,.05h0l0,0h0l0,0L15.61,12.7a.75.75,0,0,1-.52.21.71.71,0,0,1-.51-.21.72.72,0,0,1,0-1Z" transform="translate(-2 -4.05)" style="fill: #383838"/>
    <path d="M8,4.05a6,6,0,0,1,4.94,2.64.71.71,0,0,1-.2,1,.73.73,0,0,1-1-.19,4.49,4.49,0,1,0,0,5,.73.73,0,0,1,1.2.82A5.95,5.95,0,1,1,8,4.05Z" transform="translate(-2 -4.05)" style="fill: #383838"/>
  </g>
</svg>
