<svg id="Layer_90" data-name="Layer 90" xmlns="http://www.w3.org/2000/svg" viewBox="0 0 16 11.9">
  <title>exit stream</title>
  <g>
    <path d="M15.52,9.27H7.09a.73.73,0,1,0,0,1.46h8.43l-.94.94a.72.72,0,0,0,0,1,.74.74,0,0,0,1,0l2.18-2.19,0,0h0l0,0h0a.08.08,0,0,0,0-.05h0a.08.08,0,0,0,0-.05h0a.14.14,0,0,1,0-.06h0s0,0,0-.06v0a.11.11,0,0,1,0,0V9.93a.11.11,0,0,1,0,0v0s0,0,0-.06h0a.14.14,0,0,1,0-.06h0a.08.08,0,0,0,0-.05h0a.08.08,0,0,0,0-.05h0l0,0h0l0,0L15.61,7.3a.75.75,0,0,0-.52-.21.71.71,0,0,0-.51.21.72.72,0,0,0,0,1Z" transform="translate(-2 -4.05)" style="fill: #f050505"/>
    <path d="M8,16a6,6,0,0,0,4.94-2.64.71.71,0,0,0-.2-1,.73.73,0,0,0-1,.19,4.49,4.49,0,1,1,0-5,.73.73,0,1,0,1.2-.82A5.95,5.95,0,1,0,8,16Z" transform="translate(-2 -4.05)" style="fill: #f050505"/>
  </g>
</svg>
