<svg id="Layer_102" data-name="Layer 102" xmlns="http://www.w3.org/2000/svg" viewBox="0 0 15.13 16">
  <title>notification</title>
  <path d="M7.38,15.38H8.55a1.45,1.45,0,1,0,2.9,0h1.17a2.62,2.62,0,1,1-5.24,0Zm10.18-2v.3A1.16,1.16,0,0,1,16.4,14.8H3.6a1.16,1.16,0,0,1-1.16-1.16v-.3a2,2,0,0,1,1.74-2V7.82a5.82,5.82,0,0,1,11.64,0v3.51A2,2,0,0,1,17.56,13.34Zm-1.16,0a.87.87,0,0,0-.88-.87.87.87,0,0,1-.87-.87V7.82a4.65,4.65,0,1,0-9.3,0V11.6a.88.88,0,0,1-.87.87.87.87,0,0,0-.88.87v.3H16.4Z" transform="translate(-2.44 -2)"/>
</svg>
