<svg id="Layer_86" data-name="Layer 86" xmlns="http://www.w3.org/2000/svg" viewBox="0 0 16 16">
  <title>online</title>
  <g>
    <path d="M7.14,12.29c1.73,0,2.76-1.5,3.19-3.32a8.35,8.35,0,0,0,.24-2.06A3,3,0,0,0,9.5,4.34a3.94,3.94,0,0,0-2.36-.63c-2.27,0-3.43,1.08-3.43,3.2C3.71,9.5,4.79,12.29,7.14,12.29Z" transform="translate(-2 -2)" style="fill: #2c2e2f"/>
    <path d="M9.43,13.43H4.86A2.86,2.86,0,0,0,2,16.29v1.14a.58.58,0,0,0,.57.57h9.14a.58.58,0,0,0,.58-.57V16.29a2.92,2.92,0,0,0-.24-1.15A2.87,2.87,0,0,0,9.43,13.43Z" transform="translate(-2 -2)" style="fill: #2c2e2f"/>
    <path d="M10.81,4a4.44,4.44,0,0,1,.9,2.89,10.17,10.17,0,0,1-.16,1.82A7.75,7.75,0,0,1,11.22,10a2.56,2.56,0,0,0,1.64.56c2.35,0,3.43-2.79,3.43-5.38C16.29,3.07,15.13,2,12.86,2A3.25,3.25,0,0,0,9.91,3.25,3.53,3.53,0,0,1,10.81,4Z" transform="translate(-2 -2)" style="fill: #2c2e2f"/>
    <path d="M15.14,11.71H10.57a.82.82,0,0,0-.22,0,2.72,2.72,0,0,0-1.49.56h.57a3,3,0,0,1,.43,0,3.85,3.85,0,0,1,1.63.55,4,4,0,0,1,1.77,2.28,4,4,0,0,1,.17,1.15h4a.58.58,0,0,0,.57-.58V14.57A2.86,2.86,0,0,0,15.14,11.71Z" transform="translate(-2 -2)" style="fill: #2c2e2f"/>
  </g>
</svg>
