<svg id="Layer_109" data-name="Layer 109" xmlns="http://www.w3.org/2000/svg" viewBox="0 0 15.24 14.52">
  <title>screen share icon</title>
  <path d="M17.61,5.28a2.54,2.54,0,0,0-2.54-2.54H4.92A2.54,2.54,0,0,0,2.38,5.28v6.38A2.55,2.55,0,0,0,4.92,14.2H9.41v1.89H6.48a.59.59,0,0,0,0,1.17h7a.59.59,0,0,0,0-1.17H10.59V14.2h4.49a2.55,2.55,0,0,0,2.54-2.54Zm-1.17,6.38A1.36,1.36,0,0,1,15.08,13H4.92a1.37,1.37,0,0,1-1.37-1.36V5.28A1.37,1.37,0,0,1,4.92,3.91H15.08a1.37,1.37,0,0,1,1.37,1.37Z" transform="translate(-2.38 -2.74)" fill="#000000"/>
</svg>
