<svg id="Layer_89" data-name="Layer 89" xmlns="http://www.w3.org/2000/svg" viewBox="0 0 15.49 15.61">
  <title>share empty state</title>
  <path id="Files" d="M17,2.19H3A.77.77,0,0,0,2.26,3V17a.77.77,0,0,0,.77.78h9.89l4.82-4.94V3A.77.77,0,0,0,17,2.19ZM5.88,6c0-.07.08-.13.18-.13h7.8C14,5.91,14,6,14,6V7.37c0,.07-.08.13-.18.13H6.06c-.1,0-.18-.06-.18-.13Zm0,2.79c0-.07.08-.13.18-.13h7.8c.1,0,.18.06.18.13v1.33c0,.07-.08.13-.18.13H6.06c-.1,0-.18-.06-.18-.13Zm5.63,4a.13.13,0,0,1-.13.13H6a.13.13,0,0,1-.13-.13V11.52A.13.13,0,0,1,6,11.39h5.37a.13.13,0,0,1,.13.13Zm1.37,3.66V12.75h3.76Z" transform="translate(-2.26 -2.19)" style="fill: #6d6e70"/>
</svg>
