<svg id="Layer_1" data-name="Layer 1" xmlns="http://www.w3.org/2000/svg" xmlns:xlink="http://www.w3.org/1999/xlink" viewBox="0 0 348 220.4">
  <defs>
    <linearGradient id="linear-gradient" x1="19.89" y1="107.71" x2="266.8" y2="107.71" gradientUnits="userSpaceOnUse">
      <stop offset="0" stop-color="#f05050"/>
      <stop offset="0.28" stop-color="#ec4f4f"/>
      <stop offset="0.56" stop-color="#e04b4b"/>
      <stop offset="0.84" stop-color="#c44"/>
      <stop offset="1" stop-color="#bd3f3f"/>
    </linearGradient>
    <linearGradient id="linear-gradient-2" x1="26" y1="293.3" x2="311.03" y2="293.3" xlink:href="#linear-gradient"/>
    <linearGradient id="linear-gradient-3" x1="309.89" y1="82.03" x2="348" y2="82.03" xlink:href="#linear-gradient"/>
    <linearGradient id="linear-gradient-4" x1="290" y1="22.37" x2="334.74" y2="22.37" xlink:href="#linear-gradient"/>
    <linearGradient id="linear-gradient-5" x1="102.23" y1="174.81" x2="122.27" y2="174.81" xlink:href="#linear-gradient"/>
    <linearGradient id="linear-gradient-6" x1="223.71" y1="111.86" x2="298.29" y2="111.86" xlink:href="#linear-gradient"/>
  </defs>
  <title>Share empty state</title>
  <g style="opacity: 0.6">
    <rect x="19.89" y="4.97" width="246.91" height="205.49" rx="16.57" style="fill: url(#linear-gradient)"/>
    <path d="M292.8,136.7H62.46a8.58,8.58,0,0,0-8.29,8.85V292.47H286.81V172.1h6Z" transform="translate(-26 -90.3)" style="fill: #fff;opacity: 0.6"/>
    <path d="M31,275.9h94.74a3.35,3.35,0,0,1,2.35,1l5.65,5.66h72.92l4-5.3a3.28,3.28,0,0,1,2.65-1.33h92.8a5,5,0,0,1,5,5v11.6A18.23,18.23,0,0,1,292.8,310.7H44.23A18.23,18.23,0,0,1,26,292.47v-11.6A5,5,0,0,1,31,275.9Z" transform="translate(-26 -90.3)" style="fill: url(#linear-gradient-2)"/>
    <circle cx="41.89" cy="27.34" r="7.09" style="fill: #fff"/>
    <circle cx="62.51" cy="27.34" r="7.09" style="fill: #fff"/>
    <g>
      <rect x="309.89" y="62.97" width="38.11" height="38.11" rx="6.93" style="opacity: 0.6;fill: url(#linear-gradient-3)"/>
      <g style="opacity: 0.6">
        <path d="M355.16,172.33a4.53,4.53,0,0,1-.26,1.43l4,2.31a2.9,2.9,0,1,1-1.25,2.39,2.63,2.63,0,0,1,.09-.7l-3.94-2.28a4.29,4.29,0,0,1-3,1.19,4.34,4.34,0,1,1,0-8.68,4.29,4.29,0,0,1,3,1.18l3.94-2.27a2.74,2.74,0,0,1-.09-.7,2.89,2.89,0,1,1,1.25,2.39l-4,2.3A4.54,4.54,0,0,1,355.16,172.33Z" transform="translate(-26 -90.3)" style="fill: #fff"/>
      </g>
    </g>
    <g>
      <rect x="290" width="44.74" height="44.74" rx="8.14" style="opacity: 0.8;fill: url(#linear-gradient-4)"/>
      <g style="opacity: 0.8">
        <path d="M338.62,112.67a5.16,5.16,0,0,1-.3,1.68l4.68,2.71a3.4,3.4,0,1,1-1.48,2.8,3.76,3.76,0,0,1,.11-.82L337,116.37a5.09,5.09,0,1,1,0-7.4l4.62-2.67a3.76,3.76,0,0,1-.11-.82,3.4,3.4,0,1,1,3.4,3.4,3.45,3.45,0,0,1-1.93-.6l-4.67,2.7A5.27,5.27,0,0,1,338.62,112.67Z" transform="translate(-26 -90.3)" style="fill: #fff"/>
      </g>
    </g>
    <rect x="36.46" y="54.69" width="96.11" height="59.66" rx="4.97" style="fill: #fff;opacity: 0.4"/>
    <rect x="149.14" y="117.66" width="96.11" height="53.03" rx="4.69" style="fill: #fff;opacity: 0.3"/>
    <rect x="36.46" y="122.63" width="96.11" height="9.6" rx="4.8" style="fill: #fff;opacity: 0.4"/>
    <rect x="54.69" y="141.03" width="77.89" height="9.6" rx="4.75" style="fill: #fff;opacity: 0.4"/>
    <rect x="36.46" y="159.43" width="96.11" height="9.6" rx="4.8" style="fill: #fff;opacity: 0.4"/>
    <g>
      <rect x="149.14" y="61.31" width="96.11" height="9.6" rx="4.8" style="fill: #fff;opacity: 0.4"/>
      <rect x="149.14" y="79.71" width="77.89" height="9.6" rx="4.75" style="fill: #fff;opacity: 0.4"/>
      <rect x="149.14" y="98.11" width="96.11" height="9.6" rx="4.8" style="fill: #fff;opacity: 0.4"/>
    </g>
    <path d="M102.23,164.52v20.59a1.65,1.65,0,0,0,2.52,1.41l16.73-10.29a1.67,1.67,0,0,0,0-2.83l-16.73-10.29A1.65,1.65,0,0,0,102.23,164.52Z" transform="translate(-26 -90.3)" style="opacity: 0.6;fill: url(#linear-gradient-5)"/>
    <g>
      <rect x="223.71" y="74.57" width="74.57" height="74.57" rx="13.56" style="fill: url(#linear-gradient-6)"/>
      <g style="opacity: 0.8">
        <path d="M287.42,202.16a8.37,8.37,0,0,1-.51,2.8l7.8,4.52a5.6,5.6,0,0,1,3.2-1,5.67,5.67,0,1,1-5.66,5.66,5.57,5.57,0,0,1,.18-1.36l-7.7-4.46a8.4,8.4,0,0,1-5.8,2.33,8.5,8.5,0,1,1,0-17,8.4,8.4,0,0,1,5.8,2.33l7.7-4.46a5.57,5.57,0,0,1-.18-1.36,5.66,5.66,0,1,1,2.45,4.66l-7.79,4.51A8.49,8.49,0,0,1,287.42,202.16Z" transform="translate(-26 -90.3)" style="fill: #fff"/>
      </g>
    </g>
  </g>
</svg>
