<svg id="Layer_97" data-name="Layer 97" xmlns="http://www.w3.org/2000/svg" viewBox="0 0 16.22 14.46">
  <title>User online</title>
  <g>
    <path d="M8.26,10.35a4,4,0,1,1,4-4A4.05,4.05,0,0,1,8.26,10.35Zm0-6.72A2.68,2.68,0,1,0,10.93,6.3,2.68,2.68,0,0,0,8.26,3.63Z" transform="translate(-1.78 -2.26)" style="fill: #2c2e2f"/>
    <path d="M13,10.16a.68.68,0,0,1-.16-1.35,2.56,2.56,0,0,0,2-2.51,2.59,2.59,0,0,0-2-2.52.67.67,0,0,1-.53-.8.68.68,0,0,1,.8-.54A4,4,0,0,1,16.23,6.3a3.91,3.91,0,0,1-3.05,3.84A.39.39,0,0,1,13,10.16Z" transform="translate(-1.78 -2.26)" style="fill: #2c2e2f"/>
    <path d="M2.47,16.73A.69.69,0,0,1,1.78,16V14.4a3.86,3.86,0,0,1,3.85-3.85h5.26a3.86,3.86,0,0,1,3.85,3.85V16a.69.69,0,0,1-1.37,0V14.4a2.48,2.48,0,0,0-2.48-2.48H5.63A2.49,2.49,0,0,0,3.15,14.4V16A.69.69,0,0,1,2.47,16.73Z" transform="translate(-1.78 -2.26)" style="fill: #2c2e2f"/>
    <path d="M17.32,16.7a.68.68,0,0,1-.69-.68V14.4A2.49,2.49,0,0,0,15,12.05a.68.68,0,1,1,.45-1.29A3.86,3.86,0,0,1,18,14.4V16A.68.68,0,0,1,17.32,16.7Z" transform="translate(-1.78 -2.26)" style="fill: #2c2e2f"/>
  </g>
</svg>
