<svg id="Layer_108" data-name="Layer 108" xmlns="http://www.w3.org/2000/svg" viewBox="0 0 15.48 10">
  <title>video icon</title>
  <path d="M17.39,5.85a.71.71,0,0,0-.69,0L13.85,7.26V7.13A2.13,2.13,0,0,0,11.72,5H4.39A2.14,2.14,0,0,0,2.26,7.13v5.74A2.14,2.14,0,0,0,4.39,15h7.34a2.13,2.13,0,0,0,2.13-2.13h0v-.13l2.85,1.44a.7.7,0,0,0,.95-.31.72.72,0,0,0,.08-.32V6.45A.7.7,0,0,0,17.39,5.85ZM12.7,13a.76.76,0,0,1-.75.75H4.17A.76.76,0,0,1,3.42,13V7a.76.76,0,0,1,.75-.75H12A.76.76,0,0,1,12.7,7Zm4-.27-2.84-1.44V8.67l2.84-1.44Z" transform="translate(-2.26 -5)"/>
</svg>
