<svg id="Layer_13" data-name="Layer 13" xmlns="http://www.w3.org/2000/svg" viewBox="0 0 19 19"><title>noti</title><path id="_6" data-name=" 6" d="M12.47,16.1l0,0a3,3,0,0,1-5.88,0l0,0H1.12s0,0,0,0l2.38-4.74V6.8A6.21,6.21,0,0,1,9.34.5a6,6,0,0,1,6.18,6v4.8l2.38,4.74s0,0,0,0Zm-3,1.2a1.79,1.79,0,0,0,1.69-1.2H7.81A1.79,1.79,0,0,0,9.5,17.3Zm4.86-6c0-.11,0-.22,0-.34,0-.74,0-1.48,0-2.22s0-1.47,0-2.21a4.81,4.81,0,0,0-9.62,0v4.15a2.4,2.4,0,0,1-.3,1.22l-.6,1.2L2.9,14.86s0,0,0,0H16.07s0,0,0,0c-.39-.77-.78-1.54-1.16-2.31A5.76,5.76,0,0,1,14.36,11.29Z" style="fill:#f05050"/></svg>