<svg id="Layer_11" data-name="Layer 11" xmlns="http://www.w3.org/2000/svg" viewBox="0 0 18 18"><title>PROFILE</title><g id="Layer_1" data-name="Layer 1">
<path d="M10,19A9,9,0,1,1,15.72,17,9,9,0,0,1,10,19ZM10,2.5A7.5,7.5,0,1,0,17.5,10,7.5,7.5,0,0,0,10,2.5Z" transform="translate(-1 -1)" style="fill:#2c2e2f;fill-opacity: .5;"/>
<path d="M10,12.66a3.34,3.34,0,0,1-2-.75l-.06,0a6,6,0,0,1-2.12-4.4,4.22,4.22,0,0,1,8.44,0,6,6,0,0,1-2.11,4.39l-.08.06A3.34,3.34,0,0,1,10,12.66Zm0-8.18a3,3,0,0,0-3,3,4.72,4.72,0,0,0,1.64,3.41l0,0a2,2,0,0,0,2.63,0l0,0A4.76,4.76,0,0,0,13,7.48,3,3,0,0,0,10,4.48Z" transform="translate(-1 -1)" style="fill:#2c2e2f;fill-opacity: .5;"/><path d="M10,19A9,9,0,0,1,4.28,17a.57.57,0,0,1-.2-.44,5.92,5.92,0,0,1,4-5.62.6.6,0,0,1,.49.06l.11.09a2.06,2.06,0,0,0,2.68,0l.11-.09a.6.6,0,0,1,.49-.06,5.92,5.92,0,0,1,4,5.6v0a.57.57,0,0,1-.2.44A9,9,0,0,1,10,19ZM5.5,16.17a7.38,7.38,0,0,0,9,0,4.51,4.51,0,0,0-2.77-3.94,2.93,2.93,0,0,1-3.46,0A4.49,4.49,0,0,0,5.5,16.17Zm9.86.34h0Z" transform="translate(-1 -1)" style="fill:#2c2e2f;fill-opacity: .5;"/></g></svg>