<svg id="Layer_11" data-name="Layer 11" xmlns="http://www.w3.org/2000/svg" viewBox="0 0 18 18">
	<title>PROFILE2</title>
	<path d="M1,10.53V9.47l0-.15a15.61,15.61,0,0,1,.34-1.81A8.84,8.84,0,0,1,8.49,1.14c.32-.07.65-.09,1-.14h1.06l.1,0a13.73,13.73,0,0,1,1.7.3A8.84,8.84,0,0,1,18.86,8.5c.07.32.1.65.14,1v1.06l0,.13a15.52,15.52,0,0,1-.3,1.68,8.84,8.84,0,0,1-7.17,6.52c-.32.07-.65.1-1,.14H9.47l-.13,0A7.88,7.88,0,0,1,7,18.48a8.86,8.86,0,0,1-5.9-7C1.07,11.2,1.05,10.86,1,10.53Zm6.83,1.25-.06-.06a3.64,3.64,0,0,1-1-1.42A3.85,3.85,0,0,1,7.9,5.73a3.3,3.3,0,0,1,2.73-.66,3.76,3.76,0,0,1,2.83,4.65,3.85,3.85,0,0,1-1.3,2.06,6.74,6.74,0,0,1,3.93,2.7,7.57,7.57,0,1,0-12.17,0A6.65,6.65,0,0,1,7.83,11.78Zm7.26,3.82-.16-.3a4.93,4.93,0,0,0-2.37-1.88A6.57,6.57,0,0,0,9.4,13a6,6,0,0,0-3.64,1.53,3.43,3.43,0,0,0-.85,1.12A7.56,7.56,0,0,0,15.09,15.6ZM12.15,8.79a2.39,2.39,0,0,0-.6-1.65A2.06,2.06,0,0,0,8.82,6.8a2.48,2.48,0,0,0,0,3.91,2,2,0,0,0,2.46,0A2.32,2.32,0,0,0,12.15,8.79Z" transform="translate(-1 -1)" style="fill:#2e2e2e;fill-opacity: .5;"/></svg>