<?xml version="1.0" encoding="utf-8"?>
<!-- Generator: Adobe Illustrator 23.0.0, SVG Export Plug-In . SVG Version: 6.00 Build 0)  -->
<svg version="1.1" id="Layer_1" xmlns="http://www.w3.org/2000/svg" xmlns:xlink="http://www.w3.org/1999/xlink" x="0px" y="0px"
	 viewBox="0 0 24 24" style="fill:#2c2e2f;" xml:space="preserve">
<title>user, ecommerce</title>
<g>
	<path d="M15.9,11.7c2.9-2.2,3.4-6.2,1.3-9.1s-6.2-3.4-9.1-1.3s-3.4,6.2-1.3,9.1c0.4,0.5,0.8,0.9,1.3,1.3C3.2,13.3,0,17.9,0,23v1h24
		v-1C24,17.9,20.8,13.3,15.9,11.7z M12,2c2.5,0,4.5,2,4.5,4.5S14.5,11,12,11S7.5,9,7.5,6.5C7.5,4,9.5,2,12,2z M2,22
		c0.5-5.1,4.8-9,10-9l0,0c5.2,0,9.5,3.9,10,9H2z"/>
</g>
</svg>
