<svg xmlns="http://www.w3.org/2000/svg" viewBox="0 0 16.75 18.03"><defs><style>.cls-1{fill:#8c8c8c;}</style></defs><title>article</title>
<g id="Layer_121" data-name="Layer 121">
	<path class="cls-1" d="M16.55,1.85a.88.88,0,0,1,.91.86V14.82a.89.89,0,0,1-.91.87H5.73a.89.89,0,0,1-.91-.87V2.71a.88.88,0,0,1,.91-.86H16.55m0-.87H5.73A1.78,1.78,0,0,0,3.91,2.71V14.82a1.77,1.77,0,0,0,1.82,1.73H16.55a1.78,1.78,0,0,0,1.83-1.73V2.71A1.79,1.79,0,0,0,16.55,1Z" transform="translate(-1.63 -0.98)"/>
	<path class="cls-1" d="M2.58,5.18a.48.48,0,0,0-1,0V16.43A2.49,2.49,0,0,0,4,19H14.84a.52.52,0,0,0,0-1H4a1.49,1.49,0,0,1-1.42-1.55Z" transform="translate(-1.63 -0.98)"/>
	<path class="cls-1" d="M13.15,11H7.71a.56.56,0,0,0,0,1.12h5.44a.56.56,0,0,0,0-1.12Z" transform="translate(-1.63 -0.98)"/>
	<path class="cls-1" d="M14.57,8.21H7.71a.56.56,0,0,0,0,1.12h6.86a.56.56,0,0,0,0-1.12Z" transform="translate(-1.63 -0.98)"/>
	<path class="cls-1" d="M14.57,5.42H7.71a.56.56,0,1,0,0,1.11h6.86a.56.56,0,1,0,0-1.11Z" transform="translate(-1.63 -0.98)"/></g>
</svg>