<svg id="plus" xmlns="http://www.w3.org/2000/svg" viewBox="0 0 20 20"><title>MINUS</title><path d="M18.5,9.47v1.06c0,.12,0,.24,0,.35a8.52,8.52,0,0,1-7,7.48c-.34.06-.68.1-1,.14h-1l-.13,0A8,8,0,0,1,5.66,17.3a8.3,8.3,0,0,1-4.14-6.93A7.84,7.84,0,0,1,2.7,5.66,8.33,8.33,0,0,1,9.61,1.51a7.88,7.88,0,0,1,4,.8,8.37,8.37,0,0,1,4.75,6.18C18.42,8.82,18.45,9.15,18.5,9.47ZM10,2.64A7.37,7.37,0,1,0,17.37,10,7.35,7.35,0,0,0,10,2.64Z" style="fill:#2e2e2e"/><path d="M9.44,10.56H6.75a1.18,1.18,0,0,1-.26,0A.53.53,0,0,1,6,10a.55.55,0,0,1,.42-.55,1.1,1.1,0,0,1,.26,0H9.44V6.75a.34.34,0,0,1,0-.1A.57.57,0,0,1,10,6a.56.56,0,0,1,.55.61c0,.7,0,1.39,0,2.09v.71h2.67a1.37,1.37,0,0,1,.29,0A.55.55,0,0,1,14,10a.56.56,0,0,1-.45.52l-.26,0H10.56v.21c0,.8,0,1.61,0,2.42a.65.65,0,0,1,0,.14A.58.58,0,0,1,10,14a.58.58,0,0,1-.56-.63V10.56Z" style="fill:#2e2e2e"/></svg>