<svg xmlns="http://www.w3.org/2000/svg" width="33.309" height="27.929" viewBox="0 0 33.309 27.929">
    <defs>
        <style>
            .cls-2{fill:#f05050}
        </style>
    </defs>
    <g id="Group_822" transform="translate(-145 -2924.851)">
        <path id="Path_1091" fill="rgba(240,80,80,0.2)" d="M8229.869 2928.5l-8.557 5.953 9.952 6.139-3.906 2.046-14.789-8.185 15.161-8.557z" transform="translate(-8066)"/>
        <g id="graduate-student" transform="translate(145 2888.007)">
            <path id="Path_1089" d="M104.839 266.216c0 .532-2.532 2.069-7.365 2.069s-7.363-1.538-7.363-2.069v-5.355l-2.759-1.5v6.855c0 3.17 5.092 4.828 10.121 4.828s10.123-1.659 10.123-4.828v-6.855l-2.759 1.5z" class="cls-2" transform="translate(-80.976 -206.271)"/>
            <path id="Path_1090" d="M33.241 61.482l-1.628-5.188a1.783 1.783 0 0 0-.556-3.06v-4.912l1.221-.664a1.379 1.379 0 0 0 0-2.423l-15.119-8.223a1.377 1.377 0 0 0-1.318 0L.721 45.235a1.38 1.38 0 0 0 0 2.424l15.12 8.221a1.379 1.379 0 0 0 1.318 0l12.709-6.91v4.264a1.784 1.784 0 0 0-.556 3.061l-1.627 5.187a1.47 1.47 0 0 0 1.4 1.911h2.75a1.471 1.471 0 0 0 1.4-1.911zM16.5 53.1L4.267 46.447 16.5 39.794l12.232 6.652z" class="cls-2"/>
        </g>
    </g>
</svg>
