<svg xmlns="http://www.w3.org/2000/svg" width="21.043" height="23.783" viewBox="0 0 21.043 23.783">
    <g>
        <path fill="rgba(255,255,255,0.2)" d="M102.037 25.342a5.344 5.344 0 0 1 3.693-5.082 5.342 5.342 0 1 0 0 10.164 5.344 5.344 0 0 1-3.693-5.082z" transform="translate(-29.5) translate(-66.023 -19.071)"/>
        <path fill="#fff" d="M30.429 23.783a.929.929 0 0 1-.929-.929 8.464 8.464 0 0 1 8.454-8.454h1.394a8.437 8.437 0 0 1 2.784.469.929.929 0 0 1-.612 1.754 6.584 6.584 0 0 0-2.172-.366h-1.394a6.6 6.6 0 0 0-6.6 6.6.929.929 0 0 1-.925.926zm14.4-17.512a6.271 6.271 0 1 0-6.271 6.271 6.278 6.278 0 0 0 6.271-6.271zm-1.858 0a4.413 4.413 0 1 1-4.413-4.413 4.418 4.418 0 0 1 4.413 4.413z" transform="translate(-29.5)"/>
        <path fill="rgba(255,255,255,0.8)" d="M290.861 315.716h-2.787v-2.787a.929.929 0 0 0-1.858 0v2.787h-2.787a.929.929 0 0 0 0 1.858h2.787v2.787a.929.929 0 0 0 1.858 0v-2.787h2.787a.929.929 0 1 0 0-1.858z" transform="translate(-29.5) translate(-241.248 -297.507)"/>
    </g>
</svg>
