<svg xmlns="http://www.w3.org/2000/svg" width="29" height="37.685" viewBox="0 0 29 37.685">
    <g>
        <path fill="rgba(240,80,80,0.2)" d="M133.465 28.464a8.468 8.468 0 0 1 5.852-8.053 8.464 8.464 0 1 0 0 16.106 8.468 8.468 0 0 1-5.852-8.053z" transform="translate(-59) translate(-64.143 -18.528)"/>
        <path fill="#f05050" d="M86.528 37.685a1.472 1.472 0 0 1-1.472-1.472A10.464 10.464 0 0 0 74.6 25.761h-2.2a10.464 10.464 0 0 0-10.456 10.452 1.472 1.472 0 0 1-2.944 0 13.411 13.411 0 0 1 13.4-13.4h2.2a13.411 13.411 0 0 1 13.4 13.4 1.472 1.472 0 0 1-1.472 1.472zM83.289 9.937a9.937 9.937 0 1 0-9.937 9.937 9.948 9.948 0 0 0 9.937-9.937zm-2.944 0a6.992 6.992 0 1 1-6.992-6.992 7 7 0 0 1 6.992 6.992z" transform="translate(-59)"/>
        <path fill="rgba(240,80,80,0.6)" d="M161.434 386.008a1.471 1.471 0 0 1-.739-.2l-5.962-3.459a1.472 1.472 0 0 1-.517-2.042l2.208-3.607a1.472 1.472 0 1 1 2.511 1.537l-1.421 2.321 3.928 2.279 4.03-2.282-1.455-2.3a1.472 1.472 0 0 1 2.488-1.574l2.282 3.607a1.472 1.472 0 0 1-.519 2.068l-6.109 3.459a1.472 1.472 0 0 1-.725.193z" transform="translate(-59) translate(-88.008 -348.323)"/>
    </g>
</svg>
