<svg xmlns="http://www.w3.org/2000/svg" width="36.03" height="36.03" viewBox="0 0 36.03 36.03">
    <path fill="rgba(240,80,80,0.3)" d="M47.289 41.3a4.574 4.574 0 1 1 0-8.115 4.574 4.574 0 0 0 0 8.115zm-24 4.883V27.034A7.026 7.026 0 0 1 30.31 20h-4.273A7.037 7.037 0 0 0 19 27.037v19.141a7.037 7.037 0 0 0 7.037 7.037h4.273a7.026 7.026 0 0 1-7.017-7.034z" transform="translate(-17.663 -18.593)"/>
    <path fill="#f05050" d="M27.515 24.63a5.982 5.982 0 1 1 5.985-5.982 5.988 5.988 0 0 1-5.985 5.982zm0-9.148a3.167 3.167 0 1 0 3.167 3.167 3.17 3.17 0 0 0-3.167-3.167zm-11.189 19.14a1.407 1.407 0 0 0-1.407-1.407H8.443a5.635 5.635 0 0 1-5.628-5.628V8.443a5.635 5.635 0 0 1 5.628-5.628H21.4a5.635 5.635 0 0 1 5.628 5.628 1.407 1.407 0 1 0 2.815 0A8.453 8.453 0 0 0 21.394 0H8.443A8.453 8.453 0 0 0 0 8.443v19.144a8.453 8.453 0 0 0 8.443 8.443h6.476a1.407 1.407 0 0 0 1.407-1.408zm2.322-18.648a1.407 1.407 0 0 0-1.407-1.407h-6.9a1.407 1.407 0 1 0 0 2.815h6.9a1.407 1.407 0 0 0 1.407-1.408zm0 10.767a1.407 1.407 0 0 0-1.407-1.407h-6.9a1.407 1.407 0 1 0 0 2.815h6.9a1.407 1.407 0 0 0 1.407-1.408zm0-5.419a1.407 1.407 0 0 0-1.407-1.407h-6.9a1.407 1.407 0 1 0 0 2.815h6.9a1.407 1.407 0 0 0 1.407-1.408z"/>
    <path fill="rgba(240,80,80,0.6)" d="M152.685 156.882a1.407 1.407 0 0 1-1.407-1.407 5.056 5.056 0 0 0-5.033-5.067h-1.193a5.056 5.056 0 0 0-5.033 5.067 1.407 1.407 0 1 1-2.815 0 7.874 7.874 0 0 1 7.848-7.882h1.193a7.874 7.874 0 0 1 7.848 7.882 1.407 1.407 0 0 1-1.408 1.407zm-13.159-25.474a1.407 1.407 0 0 0-1.407-1.408h-9.711a1.407 1.407 0 0 0 0 2.815h9.711a1.407 1.407 0 0 0 1.407-1.408z" transform="translate(-118.063 -120.852)"/>
</svg>
