<svg xmlns="http://www.w3.org/2000/svg" width="38.152" height="38.152" viewBox="0 0 38.152 38.152">
    <g>
        <path fill="rgba(240,80,80,0.3)" d="M26.9 165.727V155a7.492 7.492 0 0 1 7.5-7.452h-4.318A7.452 7.452 0 0 0 22.63 155v10.73a7.452 7.452 0 0 0 7.452 7.452H34.4a7.492 7.492 0 0 1-7.5-7.455z" transform="translate(0 -.002) translate(-20.944 -136.549)"/>
        <path fill="#f05050" d="M18.853 156.616H8.942A8.952 8.952 0 0 1 0 147.674v-10.73A8.952 8.952 0 0 1 8.942 128H29.21a8.952 8.952 0 0 1 8.942 8.942v.969a1.49 1.49 0 1 1-2.981 0v-.969a5.968 5.968 0 0 0-5.961-5.961H8.942a5.968 5.968 0 0 0-5.961 5.961v10.73a5.968 5.968 0 0 0 5.961 5.961h9.911a1.49 1.49 0 1 1 0 2.981zm.894-11.55a1.49 1.49 0 0 0-1.49-1.49h-2.832a5.147 5.147 0 0 1-5.142-5.142 1.49 1.49 0 0 0-2.981 0 8.131 8.131 0 0 0 8.122 8.122h2.832a1.49 1.49 0 0 0 1.491-1.49zm-.671-9.165a1.863 1.863 0 1 0 1.863 1.863 1.863 1.863 0 0 0-1.863-1.864z" transform="translate(0 -.002) translate(0 -118.462)"/>
        <path fill="rgba(240,80,80,0.6)" d="M170.016 2.983h-3.875a2.163 2.163 0 0 0-2.161 2.161 1.49 1.49 0 0 1-2.981 0A5.147 5.147 0 0 1 166.142 0h3.875a5.147 5.147 0 0 1 5.142 5.142 1.49 1.49 0 0 1-2.981 0 2.163 2.163 0 0 0-2.162-2.159zm16.926 30.8a1.49 1.49 0 0 1-2.045.511l-1.011-.607a6.333 6.333 0 0 1-2.991 1.684v1.3a1.49 1.49 0 0 1-2.981 0v-1.3a6.333 6.333 0 0 1-3.045-1.74l-1.106.664a1.49 1.49 0 1 1-1.534-2.556l1.118-.671a6.332 6.332 0 0 1 0-3.7l-1.118-.671a1.49 1.49 0 0 1 1.534-2.556l1.106.664a6.333 6.333 0 0 1 3.045-1.74v-1.3a1.49 1.49 0 0 1 2.981 0v1.3a6.332 6.332 0 0 1 2.991 1.684l1.011-.607a1.49 1.49 0 0 1 1.534 2.556l-.993.6a6.325 6.325 0 0 1 0 3.853l.993.6a1.49 1.49 0 0 1 .511 2.045zm-4.184-4.567a3.353 3.353 0 1 0-3.353 3.353 3.357 3.357 0 0 0 3.354-3.357z" transform="translate(0 -.002) translate(-149.003)"/>
    </g>
</svg>
