<svg xmlns="http://www.w3.org/2000/svg" id="edit" width="36.457" height="36.457" viewBox="0 0 36.457 36.457">
    <defs>
        <style>
            .cls-1{fill:rgba(240,80,80,.2)}
        </style>
    </defs>
    <g id="Group_847" transform="translate(1.424 1.412)">
        <path id="Path_1106" d="M294.226 301.523l-4.992 4.992a8.875 8.875 0 0 0-2.427 4.536l-.807 4.035 4.035-.806c.136-.027.271-.059.405-.092l1.066-5.808a8.875 8.875 0 0 1 2.427-4.536l1.306-1.306z" class="cls-1" transform="translate(-267.059 -281.465)"/>
        <path id="Path_1107" d="M24.272 46.327V26.959a7.2 7.2 0 0 1 6.211-7.133l-3.363.012A7.12 7.12 0 0 0 20 26.959v19.368a7.12 7.12 0 0 0 7.121 7.121l3.707-.022a7.121 7.121 0 0 1-6.555-7.1z" class="cls-1" transform="translate(-20 -19.826)"/>
    </g>
    <path id="Path_1108" fill="#f05050" d="M14.668 36.457H8.545A8.554 8.554 0 0 1 0 27.913V8.545A8.554 8.554 0 0 1 8.545 0h19.368a8.554 8.554 0 0 1 8.545 8.545v7.121a1.424 1.424 0 1 1-2.848 0V8.545a5.7 5.7 0 0 0-5.7-5.7H8.545a5.7 5.7 0 0 0-5.7 5.7v19.368a5.7 5.7 0 0 0 5.7 5.7h6.124a1.424 1.424 0 1 1 0 2.848zm1.923-26.488a4.272 4.272 0 1 0-4.272 4.272 4.277 4.277 0 0 0 4.272-4.272zm-2.848 0a1.424 1.424 0 1 1-1.424-1.424 1.426 1.426 0 0 1 1.424 1.424zm17.018 3.845a1.424 1.424 0 0 0-1.424-1.424h-8.83a1.424 1.424 0 0 0 0 2.848h8.829a1.424 1.424 0 0 0 1.425-1.424zm-10.539 9.969a1.424 1.424 0 0 0-1.422-1.425H8.4a1.424 1.424 0 0 0 0 2.848h10.4a1.424 1.424 0 0 0 1.422-1.423zm-5.7 4.984a1.424 1.424 0 0 0-1.422-1.424H8.4a1.424 1.424 0 1 0 0 2.848h4.7a1.424 1.424 0 0 0 1.426-1.424zm6.118 7.663l4.035-.806a10.267 10.267 0 0 0 5.264-2.817l4.992-4.992a5.2 5.2 0 1 0-7.351-7.351l-4.992 4.992a10.267 10.267 0 0 0-2.817 5.264l-.806 4.035a1.424 1.424 0 0 0 1.676 1.676zm12.281-13.953a2.35 2.35 0 0 1 0 3.323l-4.992 4.992a7.426 7.426 0 0 1-3.809 2.038l-1.941.388.388-1.941a7.426 7.426 0 0 1 2.038-3.808l4.995-4.992a2.35 2.35 0 0 1 3.323 0z"/>
    <path id="Path_1109" fill="rgba(240,80,80,0.6)" d="M122.216 106.848h-8.829a1.424 1.424 0 1 1 0-2.848h8.829a1.424 1.424 0 1 1 0 2.848zm-12.191 9.218a1.424 1.424 0 0 0-.095-2.012 6.344 6.344 0 0 0-4.28-1.653h-.9a6.344 6.344 0 0 0-4.28 1.653 1.424 1.424 0 0 0 1.917 2.106 3.5 3.5 0 0 1 2.363-.911h.9a3.5 3.5 0 0 1 2.363.911 1.424 1.424 0 0 0 2.012-.095z" transform="translate(-92.879 -96.595)"/>
</svg>
