<svg xmlns="http://www.w3.org/2000/svg" id="chat_1_" width="35.5" height="35.5" viewBox="0 0 35.5 35.5">
    <defs>
        <style>
            .cls-2{fill:#f05050}
        </style>
    </defs>
    <path id="Path_1052" fill="rgba(240,80,80,0.3)" d="M24.161 31.553a11.481 11.481 0 0 1 9.373-11.364A11.659 11.659 0 0 0 31.44 20 11.471 11.471 0 0 0 20 31.553v11.328l.19-.173a5.314 5.314 0 0 1 3.971-1.555z" transform="translate(-18.613 -18.613)"/>
    <g id="Group_773">
        <path id="Path_1053" d="M198.364 184.726a12.916 12.916 0 0 0-5.205-10.453 1.387 1.387 0 0 0-1.653 2.227 10.134 10.134 0 0 1 4.085 8.207v8.728a6.614 6.614 0 0 0-5.508.19 10.19 10.19 0 0 1-12.586-2.982 1.387 1.387 0 1 0-2.223 1.658 12.963 12.963 0 0 0 16.052 3.8 3.878 3.878 0 0 1 4.482.751 1.808 1.808 0 0 0 1.171.58 1.341 1.341 0 0 0 1.386-1.387z" class="cls-2" transform="translate(-162.865 -161.935)"/>
        <path id="Path_1054" d="M12.782 25.654A12.814 12.814 0 1 0 0 12.946v11.322a1.387 1.387 0 0 0 2.322 1.024 4.63 4.63 0 0 1 3-1.372 3.821 3.821 0 0 1 1.715.4 12.667 12.667 0 0 0 5.73 1.33zm-7.455-4.51a6.658 6.658 0 0 0-2.553.51v-8.728a10.054 10.054 0 1 1 20.106 0 10.114 10.114 0 0 1-10.11 9.955 9.922 9.922 0 0 1-4.488-1.036 6.586 6.586 0 0 0-2.956-.7z" class="cls-2"/>
    </g>
    <path id="Path_1055" fill="rgba(240,80,80,0.6)" d="M94.422 162.733A1.733 1.733 0 1 1 92.688 161a1.733 1.733 0 0 1 1.734 1.733zm-5.478 0A1.733 1.733 0 1 1 87.211 161a1.733 1.733 0 0 1 1.733 1.733zm-5.478 0A1.733 1.733 0 1 1 81.733 161a1.733 1.733 0 0 1 1.734 1.733z" transform="translate(-74.453 -149.837)"/>
</svg>
