<svg xmlns="http://www.w3.org/2000/svg" width="20" height="20" viewBox="0 0 20 20">
    <g transform="translate(-736 -1485)">
        <circle cx="7" cy="7" r="7" fill="#f05050" transform="translate(739 1488)"/>
        <g>
            <path fill="#fff" d="M18 28A10 10 0 1 0 8 18a10 10 0 0 0 10 10zm-5-10.02a.84.84 0 0 1 .015-.157.032.032 0 0 1 0-.015.9.9 0 0 1 .048-.165l.022-.05a1.23 1.23 0 0 1 .06-.113l.027-.047a1.222 1.222 0 0 1 .115-.14l4.235-4.23a1.015 1.015 0 0 1 1.27-.153 1 1 0 0 1 .165 1.547l-1.69 1.69a.5.5 0 0 0 .355.852h4.335A1.03 1.03 0 0 1 23 17.9a1 1 0 0 1-1 1.1h-4.378a.5.5 0 0 0-.355.853l1.65 1.65a1.042 1.042 0 0 1 0 1.487 1.012 1.012 0 0 1-.667.26 1 1 0 0 1-.708-.292l-4.25-4.25-.02-.025a1.217 1.217 0 0 1-.088-.1.407.407 0 0 1-.027-.043.812.812 0 0 1-.083-.153.14.14 0 0 0 0-.03.95.95 0 0 1-.04-.137.517.517 0 0 1 0-.055 1.058 1.058 0 0 1 0-.125z" transform="translate(728 1477)"/>
        </g>
    </g>
</svg>
