<svg xmlns="http://www.w3.org/2000/svg" id="calendar_4_" width="16.055" height="16.055" viewBox="0 0 16.055 16.055">
    <defs>
        <style>
            .cls-2{fill:#f05050}
        </style>
    </defs>
    <path id="Path_1038" fill="#f05050" d="M24.429 132.915v-5.237a3.153 3.153 0 0 1 3.155-3.136h-1.818a3.136 3.136 0 0 0-3.136 3.136v5.237a3.136 3.136 0 0 0 3.136 3.136h1.819a3.153 3.153 0 0 1-3.156-3.136z" opacity="0.5" transform="translate(-21.92 -120.638)"/>
    <path id="Path_1039" d="M7.808 120.668H3.763A3.767 3.767 0 0 1 0 116.905v-5.142A3.767 3.767 0 0 1 3.763 108h8.529a3.767 3.767 0 0 1 3.763 3.763v2.509a.627.627 0 0 1-1.254 0v-2.509a2.511 2.511 0 0 0-2.509-2.509H3.763a2.511 2.511 0 0 0-2.509 2.509v5.142a2.511 2.511 0 0 0 2.509 2.509h4.045a.627.627 0 0 1 0 1.254zm-3.7-9.721a.784.784 0 1 0 .784.784.784.784 0 0 0-.784-.783zm2.7 0a.784.784 0 1 0 .784.784.784.784 0 0 0-.792-.783zm2.7 0a.784.784 0 1 0 .784.784.784.784 0 0 0-.792-.783zm-5.393 2.7a.784.784 0 1 0 .784.784.784.784 0 0 0-.791-.787zm0 2.7a.784.784 0 1 0 .784.784.784.784 0 0 0-.791-.79zm2.7-2.7a.784.784 0 1 0 .784.784.784.784 0 0 0-.799-.787zm0 2.7a.784.784 0 1 0 .784.784.784.784 0 0 0-.799-.79zm2.7-2.7a.784.784 0 1 0 .784.784.784.784 0 0 0-.799-.787zm2.7 0a.784.784 0 1 0 .784.784.784.784 0 0 0-.799-.787z" class="cls-2" transform="translate(0 -104.613)"/>
    <path id="Path_1040" d="M85.136 2.509a.627.627 0 0 1-.627-.627.627.627 0 1 0-1.254 0 .627.627 0 0 1-1.254 0 1.881 1.881 0 1 1 3.763 0 .627.627 0 0 1-.628.627zm7.839-.627a1.881 1.881 0 1 0-3.763 0 .627.627 0 1 0 1.254 0 .627.627 0 0 1 1.254 0 .627.627 0 1 0 1.254 0zm-1.349 4.452a.784.784 0 1 0 .784.784.784.784 0 0 0-.784-.784zm.82 9.145l2.855-2.87a.627.627 0 0 0-.889-.884l-2.855 2.871a.688.688 0 0 1-.981 0l-1.515-1.526a.627.627 0 0 0-.89.884l1.514 1.524a1.942 1.942 0 0 0 2.761 0z" class="cls-2" transform="translate(-79.429)"/>
</svg>
