<svg xmlns="http://www.w3.org/2000/svg" width="16" height="16" viewBox="0 0 16 16">
    <defs>
        <style>
            .cls-2{fill:#f05050}
        </style>
    </defs>
    <g id="clock" transform="translate(-6.893 -13.957)">
        <path id="Path_1041" fill="#f05050" d="M92.782 169.1a7.242 7.242 0 0 1 6.229-6.96 8.222 8.222 0 0 0-1.384-.117 7.1 7.1 0 1 0 0 14.154 8.222 8.222 0 0 0 1.384-.117 7.242 7.242 0 0 1-6.229-6.96z" opacity="0.5" transform="translate(-82.197 -147.147)"/>
        <path id="Path_1042" d="M14.893 13.957a8 8 0 1 0 8 8 8.009 8.009 0 0 0-8-8zm0 14.27a6.27 6.27 0 1 1 6.27-6.27 6.277 6.277 0 0 1-6.27 6.27z" class="cls-2"/>
        <path id="Path_1043" d="M238.572 222.306a.919.919 0 0 1-.6-.225l-1.705-1.476a3.456 3.456 0 0 1-1.2-2.615v-3.067a.923.923 0 1 1 1.846 0v3.067a1.612 1.612 0 0 0 .557 1.22l1.705 1.476a.923.923 0 0 1-.6 1.621z" class="cls-2" transform="translate(-221.205 -197.128)"/>
    </g>
</svg>
