<svg xmlns="http://www.w3.org/2000/svg" width="138" height="138" viewBox="0 0 138 138">
    <defs>
        <filter id="Ellipse_120" width="138" height="138" x="0" y="0" filterUnits="userSpaceOnUse">
            <feOffset dy="3"/>
            <feGaussianBlur result="blur" stdDeviation="3"/>
            <feFlood flood-opacity=".161"/>
            <feComposite in2="blur" operator="in"/>
            <feComposite in="SourceGraphic"/>
        </filter>
        <filter id="Path_502" width="70.412" height="112.276" x="33.072" y="24.611" filterUnits="userSpaceOnUse">
            <feOffset/>
            <feGaussianBlur result="blur-2" stdDeviation="1.5"/>
            <feFlood flood-opacity=".078"/>
            <feComposite in2="blur-2" operator="in"/>
            <feComposite in="SourceGraphic"/>
        </filter>
        <linearGradient id="linear-gradient" x1=".5" x2=".5" y2="1" gradientUnits="objectBoundingBox">
            <stop offset="0" stop-color="#f05050"/>
            <stop offset="1" stop-color="#ff9e9e"/>
        </linearGradient>
        <clipPath id="clip-path">
            <circle id="Ellipse_60" cx="60" cy="60" r="60" fill="#fff" stroke="#707070"/>
        </clipPath>
        <style>
            .cls-2{fill:#fff}
        </style>
    </defs>
    <g id="Group_1015" transform="translate(-604 -269)">
        <g filter="url(#Ellipse_120)" transform="translate(604 269)">
            <circle id="Ellipse_120-2" cx="60" cy="60" r="60" class="cls-2" transform="translate(9 6)"/>
        </g>
        <g id="Group_1014" transform="translate(613 275)">
            <circle id="Ellipse_61" cx="60" cy="60" r="60" class="cls-2"/>
            <g id="Mask_Group_356" clip-path="url(#clip-path)">
                <g filter="url(#Path_502)" transform="translate(-9 -6)">
                    <path id="Path_502-2" fill="url(#linear-gradient)" d="M1204.1 110.8a3.026 3.026 0 0 0-1.466.016c.336-3.422.7-9.4-.307-13.252a17.5 17.5 0 0 0-1.158-3.027l-.024-.256-.024-.264c-.024-.236-.051-.481-.081-.731l-.005-.044-.014-.115-.013-.116-.035-.255c0-.033-.009-.069-.013-.1-.958-6.85-4.652-17.844-18.38-19.917a35.222 35.222 0 0 0-3.579-.36H1179c-.141-.006-.276 0-.416-.008-.407-.015-.811-.027-1.2-.024-.211 0-.411.012-.618.019-.308.008-.618.015-.916.033-.218.014-.428.036-.642.054-.274.024-.548.046-.813.078-.214.025-.422.058-.631.089-.249.036-.5.072-.744.116-.208.037-.408.08-.61.123-.232.048-.463.1-.688.151-.2.048-.391.1-.585.153-.215.059-.43.119-.638.183-.188.057-.372.119-.554.181-.2.069-.4.138-.6.212-.177.067-.349.134-.52.2q-.285.117-.562.24-.247.111-.489.226c-.178.085-.352.174-.523.263-.154.081-.307.161-.458.245-.167.094-.329.189-.49.286-.141.085-.284.171-.422.258-.16.1-.311.2-.464.309-.13.088-.262.176-.387.266-.15.108-.292.219-.437.329-.117.091-.238.18-.353.273-.143.117-.279.235-.418.354-.1.088-.209.176-.308.265-.144.13-.279.261-.416.392-.085.081-.174.161-.255.244-.206.2-.4.41-.591.616-.053.058-.1.116-.151.173-.147.164-.291.329-.428.493-.071.086-.137.173-.206.259-.1.128-.207.256-.3.384l-.208.284c-.085.118-.172.234-.253.35l-.194.289c-.064.096-.149.222-.218.332-.062.095-.118.187-.175.28-.066.108-.132.215-.195.322s-.1.18-.155.27-.114.2-.168.3-.093.174-.136.258l-.147.287-.042.079a19 19 0 0 0-2.115 1.107 17.521 17.521 0 0 0-5.161 4.87 19.566 19.566 0 0 0-1.4 2.313c-.205.4-.4.8-.574 1.205a26.674 26.674 0 0 0-1.816 6.237 36.184 36.184 0 0 0-.475 4.809q-.02.57-.023 1.118c0 .364 0 .721.006 1.069a39.156 39.156 0 0 0 .633 6.529l.016.039.016.041c.014.034.031.081.055.138l.007.019v.006c-2.529 1-3.374 5.633-1.869 10.547q.152.492.326.963c.037.1.08.2.118.295.081.21.163.42.251.622.049.112.1.22.152.33.084.182.168.364.257.54.056.11.114.215.173.323.089.167.179.333.271.492l.186.3c.1.154.193.307.291.454.065.095.13.186.2.278q.151.215.308.417.1.128.2.25c.109.131.217.257.327.38l.2.218c.114.119.228.23.342.338.041.038.079.082.12.119-.009-.009-.016-.022-.024-.031 1.309 1.193 2.723 1.738 3.975 1.355.075-.023.143-.06.214-.088 1.5 5.26 3.107 9.511 4.518 11a52.907 52.907 0 0 0 5.745 5.254l-.588 12.671c-6.233 1.273-10.533 3.423-11.159 5.921.034-.053.08-.106.119-.159a2.609 2.609 0 0 0-.2 1c0 4.3 12.1 9.468 25.45 9.468s22.878-5.116 22.878-9.413v-.037c0-2.72-4.338-4.91-10.908-6.3l-.643-13.553q.557-.532 1.083-1.082c2.1-2.193 3.85-4.547 5.39-6.438 1.184-1.454 2.208-4.74 3.057-8.835.157-.757.307-1.542.452-2.348.088.03.171.068.261.09 2.651.656 5.736-2.595 6.89-7.26s-.054-8.99-2.708-9.646z" transform="translate(-1108.27 -43.23)"/>
                </g>
            </g>
        </g>
    </g>
</svg>
