<svg xmlns="http://www.w3.org/2000/svg" width="29.094" height="29.094" viewBox="0 0 29.094 29.094">
    <path fill="rgba(240,80,80,0.2)" d="M73.274 26.535a6.537 6.537 0 0 1 4.517-6.217 6.535 6.535 0 1 0 0 12.434 6.537 6.537 0 0 1-4.517-6.217z" transform="translate(-65.306 -18.864)"/>
    <path fill="#f05050" d="M1.136 29.094A1.136 1.136 0 0 1 0 27.957a10.354 10.354 0 0 1 10.342-10.342h1.136a1.136 1.136 0 1 1 0 2.273h-1.136a8.078 8.078 0 0 0-8.069 8.069 1.136 1.136 0 0 1-1.137 1.137zM18.752 7.671a7.671 7.671 0 1 0-7.671 7.671 7.68 7.68 0 0 0 7.671-7.671zm-2.273 0a5.4 5.4 0 1 1-5.4-5.4 5.4 5.4 0 0 1 5.4 5.4zm2.33 14.888a1.421 1.421 0 1 0 1.421-1.421 1.421 1.421 0 0 0-1.421 1.421z"/>
    <path fill="rgba(240,80,80,0.6)" d="M252.331 246.2a1.136 1.136 0 0 0-1.605-.077l-2.436 2.212a1.137 1.137 0 0 0-.37.767 6.881 6.881 0 0 1-1.427 3.953 15.534 15.534 0 0 0-6.462.391 12.194 12.194 0 0 0 .494-6.431 8.487 8.487 0 0 1 3.493-1.257l1.326 1.327a1.136 1.136 0 1 0 1.608-1.607l-.907-.908 1.729-1.6a1.136 1.136 0 0 0-1.546-1.666l-2.344 2.175a10.659 10.659 0 0 0-5.36 2.177 1.137 1.137 0 0 0-.385 1.262c.7 2.078.354 4.661-1.045 7.895a1.136 1.136 0 0 0 1.458 1.509 14.072 14.072 0 0 1 8.113-.915 1.136 1.136 0 0 0 1.059-.314 8.906 8.906 0 0 0 2.424-5.371l2.106-1.913a1.136 1.136 0 0 0 .077-1.609z" transform="translate(-223.533 -227.306)"/>
</svg>
