<svg xmlns="http://www.w3.org/2000/svg" width="426.682" height="427" viewBox="0 0 426.682 427">
    <defs>
        <filter id="Rectangle_66" width="190" height="192" x="8.241" y="214" filterUnits="userSpaceOnUse">
            <feOffset dx="3" dy="3"/>
            <feGaussianBlur result="blur" stdDeviation="5"/>
            <feFlood flood-opacity=".102"/>
            <feComposite in2="blur" operator="in"/>
            <feComposite in="SourceGraphic"/>
        </filter>
        <filter id="Rectangle_46" width="190" height="192" x="8.241" y="11" filterUnits="userSpaceOnUse">
            <feOffset dx="3" dy="3"/>
            <feGaussianBlur result="blur-2" stdDeviation="5"/>
            <feFlood flood-opacity=".102"/>
            <feComposite in2="blur-2" operator="in"/>
            <feComposite in="SourceGraphic"/>
        </filter>
        <filter id="Rectangle_64" width="191" height="192" x="225.241" y="11" filterUnits="userSpaceOnUse">
            <feOffset dx="3" dy="3"/>
            <feGaussianBlur result="blur-3" stdDeviation="5"/>
            <feFlood flood-opacity=".102"/>
            <feComposite in2="blur-3" operator="in"/>
            <feComposite in="SourceGraphic"/>
        </filter>
        <filter id="Rectangle_67" width="191" height="192" x="225.241" y="213" filterUnits="userSpaceOnUse">
            <feOffset dx="3" dy="3"/>
            <feGaussianBlur result="blur-4" stdDeviation="5"/>
            <feFlood flood-opacity=".102"/>
            <feComposite in2="blur-4" operator="in"/>
            <feComposite in="SourceGraphic"/>
        </filter>
        <style>
            .cls-1{fill:#f05050}.cls-2{opacity:.2}.cls-3,.cls-9{fill:none}.cls-3{stroke:#707070}.cls-4{fill:#fff;stroke:#000;stroke-width:2px}.cls-5{font-size:16px;font-family:Roboto-Medium,Roboto;font-weight:500}.cls-6{fill:rgba(240,80,80,.3)}.cls-7{fill:rgba(240,80,80,.6)}.cls-8{stroke:none}
        </style>
    </defs>
    <g id="Group_857" transform="translate(-770.759 -2021)">
        <rect id="Rectangle_62" width="160" height="161" class="cls-1" rx="5" transform="translate(807 2061)"/>
        <rect id="Rectangle_65" width="160" height="160" class="cls-1" rx="5" transform="translate(807 2264)"/>
        <rect id="Rectangle_63" width="160" height="161" class="cls-1" rx="5" transform="translate(1025 2061)"/>
        <rect id="Rectangle_68" width="160" height="160" class="cls-1" rx="5" transform="translate(1025 2264)"/>
        <g id="Group_781" transform="translate(770.759 2020.963)">
            <g id="Group_779" class="cls-2" transform="translate(33.252 -.152)">
                <g id="Group_775">
                    <path id="Line_20" d="M0 0L0 427" class="cls-3" transform="translate(-.01 .189)"/>
                    <path id="Line_22" d="M0 0L0 427" class="cls-3" transform="translate(102.99 .189)"/>
                    <path id="Line_21" d="M0 0L0 427" class="cls-3" transform="translate(51.99 .189)"/>
                    <path id="Line_23" d="M0 0L0 427" class="cls-3" transform="translate(154.99 .189)"/>
                </g>
                <g id="Group_776" transform="translate(206.767)">
                    <path id="Line_20-2" d="M0 0L0 427" class="cls-3" transform="translate(.224 .189)"/>
                    <path id="Line_22-2" d="M0 0L0 427" class="cls-3" transform="translate(102.224 .189)"/>
                    <path id="Line_21-2" d="M0 0L0 427" class="cls-3" transform="translate(51.224 .189)"/>
                    <path id="Line_23-2" d="M0 0L0 427" class="cls-3" transform="translate(154.223 .189)"/>
                </g>
            </g>
            <g id="Group_780" class="cls-2" transform="translate(0 32.257)">
                <g id="Group_777" transform="rotate(-90 180.47 180.47)">
                    <path id="Line_20-3" d="M0 0L0 426.682" class="cls-3"/>
                    <path id="Line_22-3" d="M0 0L0 426.682" class="cls-3" transform="translate(103.126)"/>
                    <path id="Line_21-3" d="M0 0L0 426.682" class="cls-3" transform="translate(51.563)"/>
                    <path id="Line_23-3" d="M0 0L0 426.682" class="cls-3" transform="translate(154.688)"/>
                </g>
                <g id="Group_778" transform="rotate(-90 77.344 77.344)">
                    <path id="Line_20-4" d="M0 0L0 426.682" class="cls-3"/>
                    <path id="Line_22-4" d="M0 0L0 426.682" class="cls-3" transform="translate(103.126)"/>
                    <path id="Line_21-4" d="M0 0L0 426.682" class="cls-3" transform="translate(51.563)"/>
                    <path id="Line_23-4" d="M0 0L0 426.682" class="cls-3" transform="translate(154.688)"/>
                </g>
            </g>
        </g>
        <g id="Group_774" transform="translate(790.894 2247.437)">
            <g filter="url(#Rectangle_66)" transform="translate(-20.13 -226.44)">
                <g id="Rectangle_66-2" class="cls-4" transform="translate(20.24 226)">
                    <rect width="160" height="162" class="cls-8" rx="5"/>
                    <rect width="158" height="160" x="1" y="1" class="cls-9" rx="4"/>
                </g>
            </g>
            <text id="Teamwork_First" class="cls-5" transform="translate(25.106 123.563)">
                <tspan x="0" y="0">Teamwork First</tspan>
            </text>
        </g>
        <g id="Group_782" transform="translate(790.894 2044)">
            <g filter="url(#Rectangle_46)" transform="translate(-20.13 -23)">
                <g id="Rectangle_46-2" class="cls-4" transform="translate(20.24 23)">
                    <rect width="160" height="162" class="cls-8" rx="5"/>
                    <rect width="158" height="160" x="1" y="1" class="cls-9" rx="4"/>
                </g>
            </g>
            <text id="Result_Driven" class="cls-5" transform="translate(33.106 127)">
                <tspan x="0" y="0">Result Driven</tspan>
            </text>
        </g>
        <g id="Group_783" transform="translate(1008.406 2044)">
            <g filter="url(#Rectangle_64)" transform="translate(-237.65 -23)">
                <g id="Rectangle_64-2" class="cls-4" transform="translate(237.24 23)">
                    <rect width="161" height="162" class="cls-8" rx="5"/>
                    <rect width="159" height="160" x="1" y="1" class="cls-9" rx="4"/>
                </g>
            </g>
            <text id="Promoting_Newbie_s" class="cls-5" transform="translate(83.595 112)">
                <tspan x="-39.535" y="0">Promoting </tspan><tspan x="-31.824" y="23">Newbie&apos;s</tspan>
            </text>
        </g>
        <g id="Group_784" transform="translate(1008.406 2246.437)">
            <g filter="url(#Rectangle_67)" transform="translate(-237.65 -225.44)">
                <g id="Rectangle_67-2" class="cls-4" transform="translate(237.24 225)">
                    <rect width="161" height="162" class="cls-8" rx="5"/>
                    <rect width="159" height="160" x="1" y="1" class="cls-9" rx="4"/>
                </g>
            </g>
            <text id="Result_Driven-2" class="cls-5" transform="translate(32.595 122.563)">
                <tspan x="0" y="0">Result Driven</tspan>
            </text>
        </g>
        <g id="management" transform="translate(1066 2075.968)">
            <path id="Path_1046" d="M27.676 169v-12.66a8.842 8.842 0 0 1 8.85-8.795h-5.1a8.8 8.8 0 0 0-8.795 8.795V169a8.8 8.8 0 0 0 8.795 8.795h5.1a8.842 8.842 0 0 1-8.85-8.795z" class="cls-6" transform="translate(-20.64 -134.567)"/>
            <path id="Path_1047" d="M22.251 161.774h-11.7A10.566 10.566 0 0 1 0 151.22v-12.664A10.566 10.566 0 0 1 10.554 128h23.922a10.566 10.566 0 0 1 10.554 10.556v1.144a1.759 1.759 0 1 1-3.518 0v-1.143a7.044 7.044 0 0 0-7.036-7.036H10.554a7.044 7.044 0 0 0-7.036 7.036v12.663a7.044 7.044 0 0 0 7.036 7.036h11.7a1.759 1.759 0 1 1 0 3.518zm1.055-13.632a1.759 1.759 0 0 0-1.759-1.759h-3.342a6.075 6.075 0 0 1-6.068-6.068 1.759 1.759 0 0 0-3.518 0 9.6 9.6 0 0 0 9.586 9.586h3.342a1.759 1.759 0 0 0 1.759-1.759zm-.792-10.818a2.2 2.2 0 1 0 2.2 2.2 2.2 2.2 0 0 0-2.199-2.199z" class="cls-1" transform="translate(0 -116.743)"/>
            <path id="Path_1048" d="M171.642 3.52h-4.573a2.553 2.553 0 0 0-2.551 2.551 1.759 1.759 0 1 1-3.518 0A6.075 6.075 0 0 1 167.068 0h4.573a6.075 6.075 0 0 1 6.069 6.07 1.759 1.759 0 1 1-3.518 0 2.553 2.553 0 0 0-2.55-2.55zm19.978 36.348a1.758 1.758 0 0 1-2.413.6l-1.193-.716a7.474 7.474 0 0 1-3.53 1.987v1.53a1.759 1.759 0 0 1-3.518 0v-1.53a7.475 7.475 0 0 1-3.594-2.054l-1.305.783a1.759 1.759 0 1 1-1.81-3.017l1.32-.792a7.473 7.473 0 0 1 0-4.371l-1.32-.792a1.759 1.759 0 0 1 1.81-3.017l1.305.783a7.475 7.475 0 0 1 3.594-2.054v-1.53a1.759 1.759 0 0 1 3.518 0v1.53a7.474 7.474 0 0 1 3.53 1.987l1.193-.716a1.759 1.759 0 0 1 1.81 3.017l-1.172.7a7.464 7.464 0 0 1 0 4.548l1.172.7a1.759 1.759 0 0 1 .6 2.413zm-4.938-5.39a3.958 3.958 0 1 0-3.958 3.958 3.962 3.962 0 0 0 3.957-3.958z" class="cls-7" transform="translate(-146.84)"/>
        </g>
        <g id="form_1_" transform="translate(848 2083.97)">
            <path id="Path_1049" d="M56.342 48.114a6.038 6.038 0 1 1 0-10.712 6.037 6.037 0 0 0 0 10.712zm-31.676 6.445V29.285A9.274 9.274 0 0 1 33.929 20h-5.64A9.289 9.289 0 0 0 19 29.289v25.266a9.289 9.289 0 0 0 9.289 9.289h5.64a9.274 9.274 0 0 1-9.263-9.285z" class="cls-6" transform="translate(-17.235 -18.142)"/>
            <path id="Path_1050" d="M36.32 32.511a7.9 7.9 0 1 1 7.9-7.9 7.9 7.9 0 0 1-7.9 7.9zm0-12.076a4.18 4.18 0 1 0 4.18 4.18 4.185 4.185 0 0 0-4.18-4.179zM21.55 45.7a1.858 1.858 0 0 0-1.858-1.858h-8.547a7.438 7.438 0 0 1-7.429-7.429V11.145a7.438 7.438 0 0 1 7.429-7.429h17.1a7.438 7.438 0 0 1 7.429 7.429 1.858 1.858 0 1 0 3.716 0A11.158 11.158 0 0 0 28.24 0h-17.1A11.158 11.158 0 0 0 0 11.145v25.27A11.158 11.158 0 0 0 11.145 47.56h8.548a1.858 1.858 0 0 0 1.857-1.86zm3.065-24.616a1.858 1.858 0 0 0-1.858-1.858h-9.1a1.858 1.858 0 1 0 0 3.716h9.1a1.858 1.858 0 0 0 1.859-1.856zm0 14.212a1.858 1.858 0 0 0-1.858-1.858h-9.1a1.858 1.858 0 0 0 0 3.716h9.1a1.858 1.858 0 0 0 1.859-1.854zm0-7.153a1.858 1.858 0 0 0-1.858-1.858h-9.1a1.858 1.858 0 1 0 0 3.716h9.1a1.858 1.858 0 0 0 1.859-1.855z" class="cls-1"/>
            <path id="Path_1051" d="M160.9 165.484a1.858 1.858 0 0 1-1.858-1.858 6.674 6.674 0 0 0-6.644-6.688h-1.574a6.674 6.674 0 0 0-6.644 6.688 1.858 1.858 0 1 1-3.716 0 10.393 10.393 0 0 1 10.36-10.4h1.576a10.393 10.393 0 0 1 10.36 10.4 1.858 1.858 0 0 1-1.86 1.858zm-17.37-33.626a1.858 1.858 0 0 0-1.853-1.858h-12.819a1.858 1.858 0 0 0 0 3.716h12.819a1.858 1.858 0 0 0 1.857-1.858z" class="cls-7" transform="translate(-115.203 -117.924)"/>
        </g>
        <g id="social-network_1_" transform="translate(843 2282.109)">
            <path id="Path_1056" d="M28.105 13.022a6.511 6.511 0 1 1 6.511-6.511 6.518 6.518 0 0 1-6.511 6.511zm0-8.681a2.17 2.17 0 1 0 2.17 2.17 2.173 2.173 0 0 0-2.17-2.17zm9.658 19.967a8.972 8.972 0 0 0-9.023-8.9h-1.269a8.972 8.972 0 0 0-9.023 8.9 2.17 2.17 0 0 0 4.341 0 4.627 4.627 0 0 1 4.683-4.558h1.268a4.627 4.627 0 0 1 4.683 4.558 2.17 2.17 0 0 0 4.341 0zM9.658 42.1a6.511 6.511 0 1 1 6.511-6.511A6.518 6.518 0 0 1 9.658 42.1zm0-8.681a2.17 2.17 0 1 0 2.17 2.17 2.173 2.173 0 0 0-2.17-2.166zm9.658 19.967a8.972 8.972 0 0 0-9.023-8.9h-1.27A8.972 8.972 0 0 0 0 53.389a2.17 2.17 0 0 0 4.341 0 4.627 4.627 0 0 1 4.683-4.558h1.269a4.627 4.627 0 0 1 4.683 4.558 2.17 2.17 0 0 0 4.341 0zM45.9 42.1a6.511 6.511 0 1 1 6.511-6.511A6.518 6.518 0 0 1 45.9 42.1zm0-8.681a2.17 2.17 0 1 0 2.17 2.17 2.173 2.173 0 0 0-2.17-2.166zm9.66 19.97a8.972 8.972 0 0 0-9.023-8.9h-1.27a8.972 8.972 0 0 0-9.023 8.9 2.17 2.17 0 0 0 4.341 0 4.627 4.627 0 0 1 4.683-4.558h1.269a4.627 4.627 0 0 1 4.683 4.558 2.17 2.17 0 0 0 4.341 0z" class="cls-1"/>
            <path id="Path_1057" d="M98.7 102.115a2.171 2.171 0 0 1-2.108-1.663A18.077 18.077 0 0 0 89.532 90a2.17 2.17 0 1 1 2.529-3.528 22.419 22.419 0 0 1 8.748 12.969 2.172 2.172 0 0 1-2.112 2.678zm-37.239-1.663a18.088 18.088 0 0 1 6.959-10.387 2.17 2.17 0 1 0-2.552-3.511 22.433 22.433 0 0 0-8.628 12.883 2.17 2.17 0 1 0 4.22 1.015zm24.233 23.372a2.17 2.17 0 0 0-1.291-4.144 17.931 17.931 0 0 1-5.377.882 18.141 18.141 0 0 1-5.668-.976 2.17 2.17 0 0 0-1.361 4.122 22.465 22.465 0 0 0 7.029 1.195 22.193 22.193 0 0 0 6.665-1.079z" class="cls-7" transform="translate(-50.972 -76.722)"/>
        </g>
        <g id="chat_1_" transform="translate(1066 2284.5)">
            <path id="Path_1052" d="M25.834 36.2a16.1 16.1 0 0 1 13.144-15.936A16.35 16.35 0 0 0 36.043 20 16.086 16.086 0 0 0 20 36.2v15.885l.266-.243a7.451 7.451 0 0 1 5.568-2.18z" class="cls-6" transform="translate(-18.055 -18.055)"/>
            <g id="Group_773">
                <path id="Path_1053" d="M207.764 189.041a18.112 18.112 0 0 0-7.3-14.658 1.945 1.945 0 1 0-2.318 3.123 14.211 14.211 0 0 1 5.728 11.509v12.24a9.275 9.275 0 0 0-7.724.266 14.289 14.289 0 0 1-17.649-4.182 1.945 1.945 0 1 0-3.118 2.325 18.177 18.177 0 0 0 22.51 5.336 5.438 5.438 0 0 1 6.286 1.053 2.535 2.535 0 0 0 1.641.813 1.88 1.88 0 0 0 1.944-1.945z" class="cls-1" transform="translate(-157.984 -157.082)"/>
                <path id="Path_1054" d="M17.923 35.974A17.969 17.969 0 1 0 0 18.154V34.03a1.945 1.945 0 0 0 3.257 1.435 6.492 6.492 0 0 1 4.21-1.924 5.357 5.357 0 0 1 2.4.568 17.763 17.763 0 0 0 8.034 1.866zM7.469 29.65a9.336 9.336 0 0 0-3.579.715v-12.24a14.1 14.1 0 1 1 28.195 0 14.183 14.183 0 0 1-14.178 13.96 13.913 13.913 0 0 1-6.294-1.453 9.236 9.236 0 0 0-4.145-.981z" class="cls-1"/>
            </g>
            <path id="Path_1055" d="M100.223 163.431a2.431 2.431 0 1 1-2.43-2.431 2.431 2.431 0 0 1 2.43 2.431zm-7.681 0a2.431 2.431 0 1 1-2.43-2.431 2.431 2.431 0 0 1 2.43 2.431zm-7.681 0a2.431 2.431 0 1 1-2.43-2.431 2.431 2.431 0 0 1 2.43 2.431z" class="cls-7" transform="translate(-72.222 -145.346)"/>
        </g>
    </g>
</svg>
