<svg xmlns="http://www.w3.org/2000/svg" width="23.959" height="23.959" viewBox="0 0 23.959 23.959">
    <path fill="rgba(255,255,255,0.2)" d="M37.812 34.163a3.042 3.042 0 1 1 0-5.4 3.041 3.041 0 0 0 0 5.4zM21.854 37.41V24.678A4.672 4.672 0 0 1 26.521 20h-2.842A4.679 4.679 0 0 0 19 24.679v12.729a4.679 4.679 0 0 0 4.679 4.679h2.841a4.672 4.672 0 0 1-4.666-4.677z" transform="translate(-18.111 -19.064)"/>
    <path fill="#fff" d="M18.3 16.378a3.978 3.978 0 1 1 3.974-3.978 3.982 3.982 0 0 1-3.974 3.978zm0-6.083a2.106 2.106 0 1 0 2.1 2.105 2.108 2.108 0 0 0-2.1-2.105zm-7.44 12.728a.936.936 0 0 0-.936-.936h-4.31a3.747 3.747 0 0 1-3.743-3.743V5.614a3.747 3.747 0 0 1 3.743-3.742h8.613a3.747 3.747 0 0 1 3.743 3.742.936.936 0 1 0 1.872 0A5.621 5.621 0 0 0 14.227 0H5.614A5.621 5.621 0 0 0 0 5.614v12.73a5.621 5.621 0 0 0 5.614 5.614h4.307a.936.936 0 0 0 .935-.935zm1.544-12.4a.936.936 0 0 0-.936-.936H6.879a.936.936 0 1 0 0 1.872h4.586a.936.936 0 0 0 .935-.937zm0 7.16a.936.936 0 0 0-.936-.936H6.879a.936.936 0 1 0 0 1.872h4.586a.936.936 0 0 0 .935-.937zm0-3.6a.936.936 0 0 0-.936-.936H6.879a.936.936 0 1 0 0 1.872h4.586a.936.936 0 0 0 .935-.94z"/>
    <path fill="rgba(255,255,255,0.6)" d="M144.08 147.876a.936.936 0 0 1-.936-.936 3.362 3.362 0 0 0-3.347-3.369H139a3.362 3.362 0 0 0-3.347 3.369.936.936 0 1 1-1.872 0A5.236 5.236 0 0 1 139 141.7h.793a5.236 5.236 0 0 1 5.219 5.241.936.936 0 0 1-.932.935zm-8.751-16.94a.936.936 0 0 0-.936-.936h-6.458a.936.936 0 0 0 0 1.872h6.458a.936.936 0 0 0 .936-.936z" transform="translate(-121.057 -123.917)"/>
</svg>
