<svg xmlns="http://www.w3.org/2000/svg" width="58.863" height="58.863" viewBox="0 0 58.863 58.863">
    <path fill="rgba(240,80,80,0.2)" d="M26.9 62.768V31.5A11.5 11.5 0 0 1 38.395 20H31.5A11.5 11.5 0 0 0 20 31.5v31.268a11.5 11.5 0 0 0 11.5 11.5l5.985-.036A11.5 11.5 0 0 1 26.9 62.768z" transform="translate(-17.701 -17.701)"/>
    <path fill="rgba(240,80,80,0.6)" d="M263.106 287.314a2.3 2.3 0 0 1-1.623-3.928l4.172-4.158a2.274 2.274 0 0 0 .006-3.218l-4.162-4.067a2.3 2.3 0 1 1 3.214-3.289l4.172 4.077.016.016a6.872 6.872 0 0 1 0 9.738l-4.172 4.158a2.293 2.293 0 0 1-1.623.671zm-1.265-9.887a2.3 2.3 0 0 0-2.3-2.3H252.3a2.3 2.3 0 1 0 0 4.6h7.243a2.3 2.3 0 0 0 2.299-2.3z" transform="translate(-221.258 -237.188)"/>
    <path fill="#f05050" d="M45.067 58.863H13.8A13.812 13.812 0 0 1 0 45.067V13.8A13.812 13.812 0 0 1 13.8 0h31.267a13.812 13.812 0 0 1 13.8 13.8v31.267a13.812 13.812 0 0 1-13.8 13.796zM13.8 4.6a9.208 9.208 0 0 0-9.2 9.2v31.267a9.208 9.208 0 0 0 9.2 9.2h31.267a9.208 9.208 0 0 0 9.2-9.2V13.8a9.208 9.208 0 0 0-9.2-9.2zm35.87 10.232a2.3 2.3 0 0 0-2.3-2.3H11.5a2.3 2.3 0 1 0 0 4.6h35.87a2.3 2.3 0 0 0 2.296-2.301zm-31.026 25.42A2.3 2.3 0 0 0 18.638 37l-4.172-4.158a2.273 2.273 0 0 1-.006-3.218l4.162-4.067a2.3 2.3 0 0 0-3.214-3.289l-4.172 4.077-.017.016a6.872 6.872 0 0 0 0 9.738l4.172 4.158a2.3 2.3 0 0 0 3.252-.006zm11.478-9.211a2.3 2.3 0 0 0-2.3-2.3h-7.243a2.3 2.3 0 1 0 0 4.6h7.243a2.3 2.3 0 0 0 2.299-2.3z"/>
</svg>
