<svg xmlns="http://www.w3.org/2000/svg" width="50.241" height="56.532" viewBox="0 0 50.241 56.532">
    <g>
        <path fill="rgba(240,80,80,0.1)" d="M77.163 142.521a20.387 20.387 0 0 1 17.077-20.115 20.383 20.383 0 1 0 0 40.229 20.387 20.387 0 0 1-17.077-20.114z" transform="translate(-28.552) translate(-37.373 -108.681)"/>
        <path fill="#f05050" d="M74.1 56.533a22.586 22.586 0 1 1 22.59-22.587A22.612 22.612 0 0 1 74.1 56.533zm0-40.766a18.179 18.179 0 1 0 18.183 18.179A18.2 18.2 0 0 0 74.1 15.767zm-2.38-9.156a2.2 2.2 0 0 1 4.407-.011 2.2 2.2 0 1 0 4.407 0 6.611 6.611 0 0 0-13.221.013 2.2 2.2 0 1 0 4.407 0z" transform="translate(-28.552) translate(-20.435)"/>
        <path fill="rgba(240,80,80,0.6)" d="M62.708 103.9h-6.7a4.553 4.553 0 0 1-4.546-4.547v-6.697a4.541 4.541 0 0 1 5.648-4.412 13.866 13.866 0 0 1 10.009 10.005 4.541 4.541 0 0 1-4.412 5.648zM56 92.51a.105.105 0 0 0-.065.026.142.142 0 0 0-.059.119v6.693a.14.14 0 0 0 .14.14h6.7a.142.142 0 0 0 .119-.059.093.093 0 0 0 .022-.091 9.46 9.46 0 0 0-6.827-6.827.093.093 0 0 0-.026 0zm22.151-7.1a2.2 2.2 0 0 0 0-3.116l-5.509-5.509a2.2 2.2 0 0 0-3.12 3.115l5.509 5.509a2.2 2.2 0 0 0 3.116 0zm-45.834.11l5.509-5.509a2.2 2.2 0 1 0-3.116-3.116L29.2 82.4a2.2 2.2 0 1 0 3.116 3.116z" transform="translate(-28.552) translate(0 -67.749)"/>
    </g>
</svg>
