<svg xmlns="http://www.w3.org/2000/svg" width="135.754" height="38.188" viewBox="0 0 135.754 38.188">
    <defs>
        <style>
            .cls-1{fill:#323742}
        </style>
    </defs>
    <g id="Group_863">
        <g id="Group_2">
            <g id="Group_1">
                <path id="Path_1" d="M32.662 11.364h-14.42v4.326h5.048v27.4h4.325v-27.4h5.047z" class="cls-1" transform="translate(-3.062 -4.904)"/>
                <path id="Path_2" d="M57.742 11.364h-7.208v31.722h7.208a7.212 7.212 0 0 0 7.211-7.212v-17.3a7.212 7.212 0 0 0-7.211-7.21zm2.886 24.514a2.883 2.883 0 0 1-2.882 2.883h-2.881V15.689h2.882a2.883 2.883 0 0 1 2.882 2.883z" class="cls-1" transform="translate(-2.577 -4.904)"/>
                <path id="Path_3" d="M74.358 11.364l-2.887 9.917-2.882-9.917h-4.325l5.246 15.863V43.09h3.927V27.227l5.246-15.863z" class="cls-1" transform="translate(-2.22 -4.904)"/>
                <path id="Path_4" d="M17.137 31.209a23.194 23.194 0 0 0-4.871-6.2A22.385 22.385 0 0 1 9.557 22 7.194 7.194 0 0 1 8.1 18.581a2.882 2.882 0 0 1 5.755-.084l2.656-4.511a7.211 7.211 0 0 0-12.718 4.583c.238 3.068 2.3 6.317 5.91 9.739a18.417 18.417 0 0 1 2.834 3.4 8.406 8.406 0 0 1 1.329 3.83 2.882 2.882 0 1 1-5.721.008L5.315 40.3a7.2 7.2 0 0 0 12.9-4.427v-.328a11.354 11.354 0 0 0-1.078-4.336z" class="cls-1" transform="translate(-3.793 -4.901)"/>
                <path id="Path_5" d="M83 35.512a8.413 8.413 0 0 1 1.328-3.829 18.392 18.392 0 0 1 2.834-3.4c3.608-3.427 5.671-6.672 5.91-9.74a7.212 7.212 0 0 0-14.42 0h4.326a2.882 2.882 0 0 1 5.755 0 7.192 7.192 0 0 1-1.461 3.413 22.283 22.283 0 0 1-2.71 3.006 24.108 24.108 0 0 0-4.87 6.2 11.327 11.327 0 0 0-1.054 4.338V43.069H93.08V38.73H83z" class="cls-1" transform="translate(-1.846 -4.897)"/>
                <path id="Path_6" d="M105.129 28.67h-1.018V11.293h-4.295L90.74 28.674v4.312h9.076v10.028h4.325V32.986h.988zm-10.094 0l4.781-8.692v8.692z" class="cls-1" transform="translate(-1.53 -4.908)"/>
                <path id="Path_7" d="M120.322 11.288h-4.6l-2.6 4.215-2.608-4.215h-4.6l4.91 7.934-4.91 7.929h4.6l2.608-4.21 2.6 4.21h4.6l-4.905-7.929z" class="cls-1" transform="translate(-1.534 -4.344)"/>
                <path id="Path_8" d="M122.05 11.288v4.33h10.094l-10.094 27.4h4.325l10.094-27.4v-4.33z" class="cls-1" transform="translate(-.716 -4.908)"/>
                <path id="Path_9" fill="#323843" d="M38.474 8.9l2.732-4.467 2.714 4.48z" transform="translate(-2.833 -4.436)"/>
                <path id="Path_10" fill="#f05151" d="M48.073 13.637l-1.993-2.572-2.01 2.586v22.756a2.679 2.679 0 0 1-5.357 0V13.651l-2.028-2.59-1.985 2.59v22.756a6.695 6.695 0 0 0 13.389 0V13.651z" transform="translate(-2.983 -4.919)"/>
            </g>
        </g>
    </g>
</svg>
