<svg xmlns="http://www.w3.org/2000/svg" width="22.056" height="26.634" viewBox="0 0 22.056 26.634">
    <defs>
        <style>
            .cls-2{fill:#f05050}
        </style>
    </defs>
    <g id="audit" transform="translate(-44)">
        <path id="Path_675" fill="rgba(240,80,80,0.2)" d="M66.173 39.353V25.2A5.193 5.193 0 0 1 71.36 20H68.2a5.2 5.2 0 0 0-5.2 5.2v14.151a5.2 5.2 0 0 0 5.2 5.2h3.16a5.193 5.193 0 0 1-5.187-5.198z" transform="translate(-18.012 -18.96)"/>
        <path id="Path_676" d="M59.814 26.634h-9.572A6.249 6.249 0 0 1 44 20.391V6.242A6.249 6.249 0 0 1 50.242 0h9.572a6.249 6.249 0 0 1 6.242 6.242v14.149a6.249 6.249 0 0 1-6.242 6.243zM50.242 2.081a4.166 4.166 0 0 0-4.162 4.162v14.148a4.166 4.166 0 0 0 4.162 4.162h9.572a4.166 4.166 0 0 0 4.162-4.162V6.242a4.166 4.166 0 0 0-4.162-4.162zM60.646 5.1a1.04 1.04 0 1 0-2.081 0A1.562 1.562 0 0 1 57 6.658h-3.949a1.562 1.562 0 0 1-1.56-1.558 1.04 1.04 0 1 0-2.081 0 3.645 3.645 0 0 0 3.641 3.641H57A3.645 3.645 0 0 0 60.646 5.1z" class="cls-2"/>
        <path id="Path_677" d="M157.493 249.232a2.442 2.442 0 0 1-1.746-.729l-1.517-1.53a.793.793 0 1 1 1.126-1.116l1.517 1.53a.87.87 0 0 0 1.24 0l3.133-3.153a.793.793 0 1 1 1.125 1.118l-3.133 3.152a2.441 2.441 0 0 1-1.745.728z" class="cls-2" transform="translate(-103 -229.672)"/>
    </g>
</svg>
