<svg id="Layer_1" data-name="Layer 1" xmlns="http://www.w3.org/2000/svg" xmlns:xlink="http://www.w3.org/1999/xlink" viewBox="0 0 71.05 82"><defs><clipPath id="clip-path" transform="translate(-14.48 -9)"><rect x="14.48" y="9" width="59.34" height="70.97" rx="11.7" ry="11.7" style="fill:none"/></clipPath></defs><title>new page</title><g style="opacity:0.6000000000000001"><rect x="18.7" y="19.38" width="52.35" height="62.62" rx="12.83" ry="12.83" style="fill:#fbcece"/></g><g style="opacity:0.75"><g style="clip-path:url(#clip-path)"><path d="M14.48,9V9Z" transform="translate(-14.48 -9)" style="fill:#f05050"/><rect width="1.16" height="70.97" style="fill:#f05050"/><rect x="1.16" width="1.16" height="70.97" style="fill:#f05050"/><rect x="2.33" width="1.16" height="70.97" style="fill:#f05050"/><rect x="3.49" width="1.16" height="70.97" style="fill:#f05050"/><rect x="4.65" width="1.16" height="70.97" style="fill:#f05050"/><rect x="5.82" width="1.16" height="70.97" style="fill:#f05050"/><rect x="6.98" width="1.16" height="70.97" style="fill:#ef5050"/><rect x="8.14" width="1.16" height="70.97" style="fill:#ef5050"/><rect x="9.31" width="1.16" height="70.97" style="fill:#ef5050"/><rect x="10.47" width="1.16" height="70.97" style="fill:#ee4f4f"/><rect x="11.63" width="1.16" height="70.97" style="fill:#ee4f4f"/><rect x="12.8" width="1.16" height="70.97" style="fill:#ee4f4f"/><rect x="13.96" width="1.16" height="70.97" style="fill:#ed4f4f"/><rect x="15.12" width="1.16" height="70.97" style="fill:#ed4f4f"/><rect x="16.29" width="1.16" height="70.97" style="fill:#ec4f4f"/><rect x="17.45" width="1.16" height="70.97" style="fill:#eb4e4e"/><rect x="18.62" width="1.16" height="70.97" style="fill:#eb4e4e"/><rect x="19.78" width="1.16" height="70.97" style="fill:#ea4e4e"/><rect x="20.94" width="1.16" height="70.97" style="fill:#e94e4e"/><rect x="22.11" width="1.16" height="70.97" style="fill:#e94e4e"/><rect x="23.27" width="1.16" height="70.97" style="fill:#e84d4d"/><rect x="24.43" width="1.16" height="70.97" style="fill:#e74d4d"/><rect x="25.6" width="1.16" height="70.97" style="fill:#e64d4d"/><rect x="26.76" width="1.16" height="70.97" style="fill:#e54c4c"/><rect x="27.92" width="1.16" height="70.97" style="fill:#e44c4c"/><rect x="29.09" width="1.16" height="70.97" style="fill:#e34c4c"/><rect x="30.25" width="1.16" height="70.97" style="fill:#e24b4b"/><rect x="31.41" width="1.16" height="70.97" style="fill:#e14b4b"/><rect x="32.58" width="1.16" height="70.97" style="fill:#e04b4b"/><rect x="33.74" width="1.16" height="70.97" style="fill:#df4a4a"/><rect x="34.9" width="1.16" height="70.97" style="fill:#de4a4a"/><rect x="36.07" width="1.16" height="70.97" style="fill:#dc4949"/><rect x="37.23" width="1.16" height="70.97" style="fill:#db4949"/><rect x="38.39" width="1.16" height="70.97" style="fill:#da4949"/><rect x="39.56" width="1.16" height="70.97" style="fill:#d94848"/><rect x="40.72" width="1.16" height="70.97" style="fill:#d74848"/><rect x="41.88" width="1.16" height="70.97" style="fill:#d64747"/><rect x="43.05" width="1.16" height="70.97" style="fill:#d44747"/><rect x="44.21" width="1.16" height="70.97" style="fill:#d34646"/><rect x="45.37" width="1.16" height="70.97" style="fill:#d14646"/><rect x="46.54" width="1.16" height="70.97" style="fill:#cf4545"/><rect x="47.7" width="1.16" height="70.97" style="fill:#ce4545"/><rect x="48.86" width="1.16" height="70.97" style="fill:#c44"/><rect x="50.03" width="1.16" height="70.97" style="fill:#ca4343"/><rect x="51.19" width="1.16" height="70.97" style="fill:#c94343"/><rect x="52.35" width="1.16" height="70.97" style="fill:#c74242"/><rect x="53.52" width="1.16" height="70.97" style="fill:#c54242"/><rect x="54.68" width="1.16" height="70.97" style="fill:#c34141"/><rect x="55.85" width="1.16" height="70.97" style="fill:#c14040"/><rect x="57.01" width="1.16" height="70.97" style="fill:#bf4040"/><rect x="58.17" width="1.16" height="70.97" style="fill:#bd3f3f"/><path d="M73.81,80v0Z" transform="translate(-14.48 -9)" style="fill:#bd3f3f"/></g></g><rect x="9.12" y="18.59" width="37.78" height="3.72" rx="1.86" ry="1.86" style="fill:#fff;opacity:0.7000000000000001"/><rect x="8.5" y="44.6" width="33.44" height="3.72" rx="1.86" ry="1.86" style="fill:#fff;opacity:0.7000000000000001"/><rect x="8.5" y="31.6" width="25.39" height="3.72" rx="1.86" ry="1.86" style="fill:#fff;opacity:0.7000000000000001"/></svg>