<svg id="Layer_1" data-name="Layer 1" xmlns="http://www.w3.org/2000/svg" xmlns:xlink="http://www.w3.org/1999/xlink" viewBox="0 0 73.83 84.65"><defs><style>.cls-1{fill:none;}.cls-2{opacity:0.75;}.cls-3{clip-path:url(#clip-path);}.cls-4{fill:#f05050;}.cls-5{fill:#ef5050;}.cls-6{fill:#ee4f4f;}.cls-7{fill:#ed4f4f;}.cls-8{fill:#ec4f4f;}.cls-9{fill:#eb4e4e;}.cls-10{fill:#ea4e4e;}.cls-11{fill:#e94e4e;}.cls-12{fill:#e84d4d;}.cls-13{fill:#e74d4d;}.cls-14{fill:#e64d4d;}.cls-15{fill:#e54c4c;}.cls-16{fill:#e44c4c;}.cls-17{fill:#e34c4c;}.cls-18{fill:#e24b4b;}.cls-19{fill:#e14b4b;}.cls-20{fill:#e04b4b;}.cls-21{fill:#df4a4a;}.cls-22{fill:#de4a4a;}.cls-23{fill:#dc4949;}.cls-24{fill:#db4949;}.cls-25{fill:#da4949;}.cls-26{fill:#d94848;}.cls-27{fill:#d74848;}.cls-28{fill:#d64747;}.cls-29{fill:#d44747;}.cls-30{fill:#d34646;}.cls-31{fill:#d14646;}.cls-32{fill:#cf4545;}.cls-33{fill:#ce4545;}.cls-34{fill:#c44;}.cls-35{fill:#ca4343;}.cls-36{fill:#c94343;}.cls-37{fill:#c74242;}.cls-38{fill:#c54242;}.cls-39{fill:#c34141;}.cls-40{fill:#c14040;}.cls-41{fill:#bf4040;}.cls-42{fill:#bd3f3f;}.cls-43{opacity:0.5;}.cls-44{clip-path:url(#clip-path-2);}.cls-45{opacity:0.7;}.cls-46{fill:#fff;}.cls-47{opacity:0.6;}.cls-48{fill:url(#radial-gradient);}</style><clipPath id="clip-path" transform="translate(-13.08 -7.68)"><rect class="cls-1" x="13.08" y="15.89" width="60.19" height="71.99" rx="10.71"/></clipPath><clipPath id="clip-path-2" transform="translate(-13.08 -7.68)"><rect class="cls-1" x="18.8" y="20.33" width="60.19" height="71.99" rx="10.71"/></clipPath><radialGradient id="radial-gradient" cx="113.75" cy="-109.25" r="16.25" gradientTransform="translate(-27.11 117.75) scale(0.88)" gradientUnits="userSpaceOnUse"><stop offset="0" stop-color="#636363"/><stop offset="0.28" stop-color="#5f6060"/><stop offset="0.54" stop-color="#545555"/><stop offset="0.79" stop-color="#424344"/><stop offset="1" stop-color="#2c2e2f"/></radialGradient></defs><title>icon1</title><g class="cls-2"><g class="cls-3"><path class="cls-4" d="M13.08,15.89v0Z" transform="translate(-13.08 -7.68)"/><rect class="cls-4" y="8.21" width="1.18" height="71.99"/><rect class="cls-4" x="1.18" y="8.21" width="1.18" height="71.99"/><rect class="cls-4" x="2.36" y="8.21" width="1.18" height="71.99"/><rect class="cls-4" x="3.54" y="8.21" width="1.18" height="71.99"/><rect class="cls-4" x="4.72" y="8.21" width="1.18" height="71.99"/><rect class="cls-4" x="5.9" y="8.21" width="1.18" height="71.99"/><rect class="cls-5" x="7.08" y="8.21" width="1.18" height="71.99"/><rect class="cls-5" x="8.26" y="8.21" width="1.18" height="71.99"/><rect class="cls-5" x="9.44" y="8.21" width="1.18" height="71.99"/><rect class="cls-6" x="10.62" y="8.21" width="1.18" height="71.99"/><rect class="cls-6" x="11.8" y="8.21" width="1.18" height="71.99"/><rect class="cls-6" x="12.98" y="8.21" width="1.18" height="71.99"/><rect class="cls-7" x="14.16" y="8.21" width="1.18" height="71.99"/><rect class="cls-7" x="15.34" y="8.21" width="1.18" height="71.99"/><rect class="cls-8" x="16.52" y="8.21" width="1.18" height="71.99"/><rect class="cls-9" x="17.7" y="8.21" width="1.18" height="71.99"/><rect class="cls-9" x="18.88" y="8.21" width="1.18" height="71.99"/><rect class="cls-10" x="20.06" y="8.21" width="1.18" height="71.99"/><rect class="cls-11" x="21.24" y="8.21" width="1.18" height="71.99"/><rect class="cls-11" x="22.42" y="8.21" width="1.18" height="71.99"/><rect class="cls-12" x="23.6" y="8.21" width="1.18" height="71.99"/><rect class="cls-13" x="24.78" y="8.21" width="1.18" height="71.99"/><rect class="cls-14" x="25.96" y="8.21" width="1.18" height="71.99"/><rect class="cls-15" x="27.14" y="8.21" width="1.18" height="71.99"/><rect class="cls-16" x="28.32" y="8.21" width="1.18" height="71.99"/><rect class="cls-17" x="29.5" y="8.21" width="1.18" height="71.99"/><rect class="cls-18" x="30.68" y="8.21" width="1.18" height="71.99"/><rect class="cls-19" x="31.86" y="8.21" width="1.18" height="71.99"/><rect class="cls-20" x="33.04" y="8.21" width="1.18" height="71.99"/><rect class="cls-21" x="34.22" y="8.21" width="1.18" height="71.99"/><rect class="cls-22" x="35.4" y="8.21" width="1.18" height="71.99"/><rect class="cls-23" x="36.59" y="8.21" width="1.18" height="71.99"/><rect class="cls-24" x="37.77" y="8.21" width="1.18" height="71.99"/><rect class="cls-25" x="38.95" y="8.21" width="1.18" height="71.99"/><rect class="cls-26" x="40.13" y="8.21" width="1.18" height="71.99"/><rect class="cls-27" x="41.31" y="8.21" width="1.18" height="71.99"/><rect class="cls-28" x="42.49" y="8.21" width="1.18" height="71.99"/><rect class="cls-29" x="43.67" y="8.21" width="1.18" height="71.99"/><rect class="cls-30" x="44.85" y="8.21" width="1.18" height="71.99"/><rect class="cls-31" x="46.03" y="8.21" width="1.18" height="71.99"/><rect class="cls-32" x="47.21" y="8.21" width="1.18" height="71.99"/><rect class="cls-33" x="48.39" y="8.21" width="1.18" height="71.99"/><rect class="cls-34" x="49.57" y="8.21" width="1.18" height="71.99"/><rect class="cls-35" x="50.75" y="8.21" width="1.18" height="71.99"/><rect class="cls-36" x="51.93" y="8.21" width="1.18" height="71.99"/><rect class="cls-37" x="53.11" y="8.21" width="1.18" height="71.99"/><rect class="cls-38" x="54.29" y="8.21" width="1.18" height="71.99"/><rect class="cls-39" x="55.47" y="8.21" width="1.18" height="71.99"/><rect class="cls-40" x="56.65" y="8.21" width="1.18" height="71.99"/><rect class="cls-41" x="57.83" y="8.21" width="1.18" height="71.99"/><rect class="cls-42" x="59.01" y="8.21" width="1.18" height="71.99"/><path class="cls-42" d="M73.27,87.88v0Z" transform="translate(-13.08 -7.68)"/></g></g><g class="cls-43"><g class="cls-2"><g class="cls-44"><path class="cls-4" d="M18.8,20.33v0Z" transform="translate(-13.08 -7.68)"/><rect class="cls-4" x="5.72" y="12.66" width="1.18" height="71.99"/><rect class="cls-4" x="6.9" y="12.66" width="1.18" height="71.99"/><rect class="cls-4" x="8.08" y="12.66" width="1.18" height="71.99"/><rect class="cls-4" x="9.26" y="12.66" width="1.18" height="71.99"/><rect class="cls-4" x="10.44" y="12.66" width="1.18" height="71.99"/><rect class="cls-4" x="11.62" y="12.66" width="1.18" height="71.99"/><rect class="cls-5" x="12.8" y="12.66" width="1.18" height="71.99"/><rect class="cls-5" x="13.98" y="12.66" width="1.18" height="71.99"/><rect class="cls-5" x="15.16" y="12.66" width="1.18" height="71.99"/><rect class="cls-6" x="16.34" y="12.66" width="1.18" height="71.99"/><rect class="cls-6" x="17.52" y="12.66" width="1.18" height="71.99"/><rect class="cls-6" x="18.7" y="12.66" width="1.18" height="71.99"/><rect class="cls-7" x="19.88" y="12.66" width="1.18" height="71.99"/><rect class="cls-7" x="21.06" y="12.66" width="1.18" height="71.99"/><rect class="cls-8" x="22.24" y="12.66" width="1.18" height="71.99"/><rect class="cls-9" x="23.42" y="12.66" width="1.18" height="71.99"/><rect class="cls-9" x="24.6" y="12.66" width="1.18" height="71.99"/><rect class="cls-10" x="25.78" y="12.66" width="1.18" height="71.99"/><rect class="cls-11" x="26.96" y="12.66" width="1.18" height="71.99"/><rect class="cls-11" x="28.14" y="12.66" width="1.18" height="71.99"/><rect class="cls-12" x="29.32" y="12.66" width="1.18" height="71.99"/><rect class="cls-13" x="30.5" y="12.66" width="1.18" height="71.99"/><rect class="cls-14" x="31.68" y="12.66" width="1.18" height="71.99"/><rect class="cls-15" x="32.86" y="12.66" width="1.18" height="71.99"/><rect class="cls-16" x="34.04" y="12.66" width="1.18" height="71.99"/><rect class="cls-17" x="35.22" y="12.66" width="1.18" height="71.99"/><rect class="cls-18" x="36.4" y="12.66" width="1.18" height="71.99"/><rect class="cls-19" x="37.58" y="12.66" width="1.18" height="71.99"/><rect class="cls-20" x="38.76" y="12.66" width="1.18" height="71.99"/><rect class="cls-21" x="39.94" y="12.66" width="1.18" height="71.99"/><rect class="cls-22" x="41.12" y="12.66" width="1.18" height="71.99"/><rect class="cls-23" x="42.3" y="12.66" width="1.18" height="71.99"/><rect class="cls-24" x="43.48" y="12.66" width="1.18" height="71.99"/><rect class="cls-25" x="44.66" y="12.66" width="1.18" height="71.99"/><rect class="cls-26" x="45.84" y="12.66" width="1.18" height="71.99"/><rect class="cls-27" x="47.02" y="12.66" width="1.18" height="71.99"/><rect class="cls-28" x="48.2" y="12.66" width="1.18" height="71.99"/><rect class="cls-29" x="49.38" y="12.66" width="1.18" height="71.99"/><rect class="cls-30" x="50.56" y="12.66" width="1.18" height="71.99"/><rect class="cls-31" x="51.74" y="12.66" width="1.18" height="71.99"/><rect class="cls-32" x="52.92" y="12.66" width="1.18" height="71.99"/><rect class="cls-33" x="54.1" y="12.66" width="1.18" height="71.99"/><rect class="cls-34" x="55.28" y="12.66" width="1.18" height="71.99"/><rect class="cls-35" x="56.46" y="12.66" width="1.18" height="71.99"/><rect class="cls-36" x="57.64" y="12.66" width="1.18" height="71.99"/><rect class="cls-37" x="58.82" y="12.66" width="1.18" height="71.99"/><rect class="cls-38" x="60" y="12.66" width="1.18" height="71.99"/><rect class="cls-39" x="61.18" y="12.66" width="1.18" height="71.99"/><rect class="cls-40" x="62.36" y="12.66" width="1.18" height="71.99"/><rect class="cls-41" x="63.54" y="12.66" width="1.18" height="71.99"/><rect class="cls-42" x="64.72" y="12.66" width="1.18" height="71.99"/><path class="cls-42" d="M79,92.32v0Z" transform="translate(-13.08 -7.68)"/></g></g></g><g class="cls-45"><rect class="cls-46" x="9.25" y="27.07" width="38.32" height="3.77" rx="1.88"/></g><g class="cls-45"><rect class="cls-46" x="8.62" y="53.45" width="33.92" height="3.77" rx="1.88"/></g><g class="cls-45"><rect class="cls-46" x="8.62" y="40.26" width="25.76" height="3.77" rx="1.88"/></g><g class="cls-47"><path class="cls-48" d="M72.66,7.68A14.25,14.25,0,1,0,86.92,21.92,14.25,14.25,0,0,0,72.66,7.68Zm1.78,16" transform="translate(-13.08 -7.68)"/></g><path class="cls-46" d="M74.44,24a1.78,1.78,0,1,1-3.55,0V15.1a1.78,1.78,0,1,1,3.55,0Z" transform="translate(-13.08 -7.68)"/><path class="cls-46" d="M72.66,30.54a1.78,1.78,0,1,1,1.78-1.78,1.78,1.78,0,0,1-1.78,1.78Z" transform="translate(-13.08 -7.68)"/></svg>