<svg id="Layer_1" data-name="Layer 1" xmlns="http://www.w3.org/2000/svg" xmlns:xlink="http://www.w3.org/1999/xlink" viewBox="0 0 78.74 78.74"><defs><linearGradient id="linear-gradient" x1="77.86" y1="32.26" x2="10.61" y2="71.09" gradientTransform="translate(0 -8)" gradientUnits="userSpaceOnUse"><stop offset="0" stop-color="#6c6d6d"/><stop offset="0.36" stop-color="#6a6b6b"/><stop offset="0.53" stop-color="#626363"/><stop offset="0.66" stop-color="#565656"/><stop offset="0.78" stop-color="#434444"/><stop offset="0.87" stop-color="#2c2c2c"/><stop offset="0.96" stop-color="#0f0f0f"/><stop offset="1"/></linearGradient><linearGradient id="linear-gradient-2" x1="75.14" y1="799.11" x2="56.56" y2="831.29" gradientTransform="translate(0 -751.9)" xlink:href="#linear-gradient"/><linearGradient id="linear-gradient-3" x1="42.13" y1="774.09" x2="22.74" y2="807.68" gradientTransform="translate(0 -751.9)" xlink:href="#linear-gradient"/><linearGradient id="linear-gradient-4" x1="61.42" y1="779.8" x2="52.64" y2="795" gradientTransform="translate(0 -751.9)" xlink:href="#linear-gradient"/><linearGradient id="linear-gradient-5" x1="43.84" y1="806.97" x2="37.14" y2="818.58" gradientTransform="translate(0 -751.9)" xlink:href="#linear-gradient"/><linearGradient id="linear-gradient-6" x1="48.35" y1="790.08" x2="40.75" y2="803.25" gradientTransform="translate(0 -751.9)" xlink:href="#linear-gradient"/></defs><title>1-01</title><path d="M46.68,84.37H43.42a5.8,5.8,0,0,1-5.74-5.74V78a2.67,2.67,0,0,0-2.17-2.77,51.61,51.61,0,0,1-4.95-1.88A2.81,2.81,0,0,0,27,74l-.3.3a6,6,0,0,1-8.21,0l-2.67-2.57a6,6,0,0,1,0-8.31l.3-.3a3.41,3.41,0,0,0,.59-3.56,34.4,34.4,0,0,1-1.88-4.94,2.68,2.68,0,0,0-2.77-2.18h-.69a5.81,5.81,0,0,1-5.74-5.74V43.42a5.8,5.8,0,0,1,5.74-5.74H12a2.67,2.67,0,0,0,2.77-2.17,51.61,51.61,0,0,1,1.88-4.95A2.81,2.81,0,0,0,16,27l-.3-.3A5.65,5.65,0,0,1,14,22.55a5.68,5.68,0,0,1,1.68-4.16l2.47-2.47a6,6,0,0,1,8.21,0l.3.3a3.41,3.41,0,0,0,3.56.59,34.52,34.52,0,0,1,4.95-1.88,2.68,2.68,0,0,0,2.17-2.77v-.79a5.81,5.81,0,0,1,5.74-5.74h3.27a5.8,5.8,0,0,1,5.73,5.74V12a2.67,2.67,0,0,0,2.18,2.77,52.47,52.47,0,0,1,4.94,1.88A2.82,2.82,0,0,0,62.81,16l.29-.3a6,6,0,0,1,8.21,0l2.48,2.47a6,6,0,0,1,0,8.31l-.3.3a3.43,3.43,0,0,0-.6,3.56,33.37,33.37,0,0,1,1.88,5,2.68,2.68,0,0,0,2.77,2.17h1.09a5.81,5.81,0,0,1,5.74,5.74v.3H81.3v-.3a2.76,2.76,0,0,0-2.77-2.77h-.59A5.73,5.73,0,0,1,72.4,36.3a41.38,41.38,0,0,0-1.88-4.45,5.93,5.93,0,0,1,1.09-6.93l.3-.3a2.78,2.78,0,0,0,.79-1.87,3.12,3.12,0,0,0-.79-1.88l-2.48-2.48a3.06,3.06,0,0,0-4.15,0l-.3.3a6,6,0,0,1-6.92,1.09,28.59,28.59,0,0,0-4.45-1.88,5.91,5.91,0,0,1-4.16-5.54v-.59A2.76,2.76,0,0,0,46.68,9H43.42a2.76,2.76,0,0,0-2.77,2.77v.59a5.72,5.72,0,0,1-4.16,5.54A26.22,26.22,0,0,0,32,19.78a5.92,5.92,0,0,1-6.92-1.09l.1-.1a3.05,3.05,0,0,0-4.16,0l-2.47,2.47a2.82,2.82,0,0,0-.79,1.88,3.12,3.12,0,0,0,.79,1.88l.3.3A6,6,0,0,1,20,32a28.59,28.59,0,0,0-1.88,4.45,5.91,5.91,0,0,1-5.54,4.16H12A2.75,2.75,0,0,0,9.2,43.42v3.26A2.76,2.76,0,0,0,12,49.45h.59a5.73,5.73,0,0,1,5.54,4.16A43.16,43.16,0,0,0,20,58.06c1.08,2.47.79,5.24-1.09,6.92l-.59.4a2.76,2.76,0,0,0-.8,1.88,2.53,2.53,0,0,0,.8,1.88l2.47,2.47a3,3,0,0,0,4.15,0l.3-.3a6,6,0,0,1,6.92-1.09,28.59,28.59,0,0,0,4.45,1.88,5.91,5.91,0,0,1,4.16,5.54v.59A2.75,2.75,0,0,0,43.52,81h3.26a2.76,2.76,0,0,0,2.77-2.77v-.59a5.73,5.73,0,0,1,4.16-5.54H54l.79,2.77H54.5a2.91,2.91,0,0,0-2.18,2.77v.6A5.58,5.58,0,0,1,46.68,84.37Z" transform="translate(-5.63 -5.63)" style="fill:url(#linear-gradient)"/><path d="M73.88,48.07V59.34a1.57,1.57,0,0,1-.79,1.39L68.44,62.9a1.17,1.17,0,0,1-1.38,0l-4.65-2.17a1.41,1.41,0,0,1-.79-1.39V48.07c-6.63,0-10.49,5.54-10.49,12.07S54.89,72.3,61.52,72.3l1.09,8.21a4.47,4.47,0,0,0,4.45,3.86h1.09a4.57,4.57,0,0,0,4.45-3.86l1.08-8.21c6.63,0,10.49-5.54,10.49-12.07S80.51,48.07,73.88,48.07Z" transform="translate(-5.63 -5.63)" style="fill:url(#linear-gradient-2)"/><path d="M26.6,58.45l-.89-1.58A22.91,22.91,0,0,1,40.35,22.74l1.88-.29V34.81l-.79.3A10.49,10.49,0,0,0,34.81,45a12.45,12.45,0,0,0,.79,4.15l.3,1.09ZM39,26.31A19.58,19.58,0,0,0,25.42,45a18.63,18.63,0,0,0,1.87,8.51l4.65-4.45a10.91,10.91,0,0,1-.79-4.46,13.57,13.57,0,0,1,7.42-12.06l.4-6.23Z" transform="translate(-5.63 -5.63)" style="fill:url(#linear-gradient-3)"/><path d="M67.85,45H64.78A19.09,19.09,0,0,0,51.33,26.31v6.62C56,35.11,58.75,40.65,58.75,45H55.68a10.4,10.4,0,0,0-6.62-9.89l-.79-.3V22.45l1.88.3A23.19,23.19,0,0,1,67.85,45Z" transform="translate(-5.63 -5.63)" style="fill:url(#linear-gradient-4)"/><path d="M45,67.55A24,24,0,0,1,32.64,64L31,62.9l8.81-8.5.79.29a10.21,10.21,0,0,0,4.15.8v3.06a14.25,14.25,0,0,1-4.45-.79L35.6,62.41a20,20,0,0,0,9.1,2.18v3.06l.3-.1Z" transform="translate(-5.63 -5.63)" style="fill:url(#linear-gradient-5)"/><path d="M45,52.42a7.42,7.42,0,0,1,0-14.84A7.23,7.23,0,0,1,52.42,45H49.35c0-3.07-1.88-4.45-4.45-4.45a4.45,4.45,0,1,0,0,8.9A29.47,29.47,0,0,1,45,52.42Z" transform="translate(-5.63 -5.63)" style="fill:url(#linear-gradient-6)"/></svg>