<svg id="Layer_1" data-name="Layer 1" xmlns="http://www.w3.org/2000/svg" xmlns:xlink="http://www.w3.org/1999/xlink" viewBox="0 0 82.17 66.25"><defs><linearGradient id="linear-gradient" x1="68.47" y1="782.24" x2="64.65" y2="788.86" gradientTransform="translate(0 -751.9)" gradientUnits="userSpaceOnUse"><stop offset="0" stop-color="#6c6d6d"/><stop offset="0.36" stop-color="#6a6b6b"/><stop offset="0.53" stop-color="#626363"/><stop offset="0.66" stop-color="#565656"/><stop offset="0.78" stop-color="#434444"/><stop offset="0.87" stop-color="#2c2c2c"/><stop offset="0.96" stop-color="#0f0f0f"/><stop offset="1"/></linearGradient><linearGradient id="linear-gradient-2" x1="66.15" y1="772.16" x2="27.17" y2="839.67" xlink:href="#linear-gradient"/><linearGradient id="linear-gradient-3" x1="70.02" y1="810.56" x2="63.78" y2="821.37" xlink:href="#linear-gradient"/></defs><title>7-01</title><path d="M70.21,40.16l-9.39-9.4h7.91a1.4,1.4,0,0,1,1.48,1.49Z" transform="translate(-6.83 -11.88)" style="fill:url(#linear-gradient)"/><path d="M85.74,43.42h-9.4V29.28a4.68,4.68,0,0,0-4.74-4.75H60.82V21.27H57.26l-1.48-5.83A4.82,4.82,0,0,0,51,11.88H32.24a5.07,5.07,0,0,0-4.74,3.56L26,21.27H22.46v3.26H11.58a4.69,4.69,0,0,0-4.75,4.75v44.1a4.68,4.68,0,0,0,4.75,4.74H85.74A3.29,3.29,0,0,0,89,74.86V46.68A3.29,3.29,0,0,0,85.74,43.42Zm0,6.13H48.16V46.29H85.74Zm0,10.87v6.43a9.37,9.37,0,0,0-7.62,7.61H55.78a9.37,9.37,0,0,0-7.62-7.61V60.42a9.36,9.36,0,0,0,7.62-7.61H78.12A9,9,0,0,0,85.74,60.42ZM48.16,52.81h4.45a6.66,6.66,0,0,1-4.45,4.45V52.81Zm-17-36.38a2,2,0,0,1,1.48-1.19H51.43c.59,0,1.48.59,1.48,1.19l1.19,5H51.43v3.26H32.64V21.47H30ZM12,74.86a1.4,1.4,0,0,1-1.49-1.48V53.11h9.4a3.29,3.29,0,0,0,3.26,3.26h3.26a3.3,3.3,0,0,0,3.27-3.26H42.33V49.85H32.94V48.36a4.68,4.68,0,0,0-4.75-4.74H22.06a4.67,4.67,0,0,0-4.74,4.74v1.49H10.59V29.58a1.41,1.41,0,0,1,1.49-1.49H71.7a1.4,1.4,0,0,1,1.48,1.49V43.72h-25A3.29,3.29,0,0,0,44.9,47V75.16H12v-.3Zm17.4-25.31H20V48.07a1.4,1.4,0,0,1,1.48-1.49H27.6a1.4,1.4,0,0,1,1.48,1.49v1.48ZM48.16,74.86V70.41a6.7,6.7,0,0,1,4.45,4.45H48.16Zm33.23,0a6.69,6.69,0,0,1,4.44-4.45v4.45Zm4.35-17.6a6.66,6.66,0,0,1-4.45-4.45h4.45v4.45Z" transform="translate(-6.83 -11.88)" style="fill:url(#linear-gradient-2)"/><path d="M67,70.11A6.15,6.15,0,0,0,73.08,64,6.37,6.37,0,0,0,67,57.85,6.16,6.16,0,0,0,60.82,64,6.09,6.09,0,0,0,67,70.11Zm0-9.39A3.27,3.27,0,1,1,63.69,64C64,62.21,65.17,60.72,67,60.72Z" transform="translate(-6.83 -11.88)" style="fill:url(#linear-gradient-3)"/></svg>