<svg id="Layer_1" data-name="Layer 1" xmlns="http://www.w3.org/2000/svg" xmlns:xlink="http://www.w3.org/1999/xlink" viewBox="0 0 77.68 77.39"><defs><linearGradient id="linear-gradient" x1="56.17" y1="765.5" x2="45.73" y2="783.58" gradientTransform="translate(0 -751.9)" gradientUnits="userSpaceOnUse"><stop offset="0" stop-color="#6c6d6d"/><stop offset="0.36" stop-color="#6a6b6b"/><stop offset="0.53" stop-color="#626363"/><stop offset="0.66" stop-color="#565656"/><stop offset="0.78" stop-color="#434444"/><stop offset="0.87" stop-color="#2c2c2c"/><stop offset="0.96" stop-color="#0f0f0f"/><stop offset="1"/></linearGradient><linearGradient id="linear-gradient-2" x1="69.05" y1="771.88" x2="66.09" y2="777.01" xlink:href="#linear-gradient"/><linearGradient id="linear-gradient-3" x1="35.82" y1="772.09" x2="32.84" y2="777.25" xlink:href="#linear-gradient"/><linearGradient id="linear-gradient-4" x1="53.42" y1="790.76" x2="26.87" y2="836.75" xlink:href="#linear-gradient"/><linearGradient id="linear-gradient-5" x1="65" y1="750.29" x2="36.89" y2="798.97" xlink:href="#linear-gradient"/><linearGradient id="linear-gradient-6" x1="53.16" y1="770.64" x2="48.67" y2="778.42" gradientTransform="translate(-6.16 -758.2)" xlink:href="#linear-gradient"/></defs><title>10-01</title><path d="M50.93,33A10.51,10.51,0,0,1,40.55,22.62a10.38,10.38,0,0,1,20.76,0A10.31,10.31,0,0,1,50.93,33Zm0-17.79a7.42,7.42,0,1,0,7.41,7.41A7.34,7.34,0,0,0,50.93,15.2Z" transform="translate(-6.16 -6.31)" style="fill:url(#linear-gradient)"/><path d="M67.53,25.58a3,3,0,0,1,0-5.93,3.19,3.19,0,0,1,3,3A3,3,0,0,1,67.53,25.58Zm0-3Z" transform="translate(-6.16 -6.31)" style="fill:url(#linear-gradient-2)"/><path d="M34.33,25.58a3,3,0,1,1,3-3C37.59,24.39,36.1,25.58,34.33,25.58Zm0-3Z" transform="translate(-6.16 -6.31)" style="fill:url(#linear-gradient-3)"/><path d="M81.47,55.23a5.18,5.18,0,0,0-5-.89L53.6,60.57A6.38,6.38,0,0,0,48,52.26H34.33c-.6-2.66-2.38-5.93-7.42-5.93H21a4.55,4.55,0,0,0-4.44-4.44H10.61a4.55,4.55,0,0,0-4.45,4.44v24a4.56,4.56,0,0,0,4.45,4.45h5.93A4.56,4.56,0,0,0,21,70.35V69.16L39.07,81.32a14.71,14.71,0,0,0,7.71,2.37,12.43,12.43,0,0,0,7.11-2.07L81.17,65a5.81,5.81,0,0,0,2.67-5v-.59A6.11,6.11,0,0,0,81.47,55.23ZM18,70.65a1.4,1.4,0,0,1-1.48,1.48H15.05V66.2h-3v5.93H10.61a1.4,1.4,0,0,1-1.49-1.48v-24a1.4,1.4,0,0,1,1.49-1.48h5.93A1.4,1.4,0,0,1,18,46.63ZM80.88,60.57a3,3,0,0,1-1.49,2.37L52.11,79.54a10.85,10.85,0,0,1-11.56-.29L20.69,65.9V49.6h5.93A4.3,4.3,0,0,1,31.06,54v1.48H47.67a3,3,0,0,1,0,5.93H32.84v3H50.63L76.72,57.3a4.21,4.21,0,0,1,2.67.3A3.62,3.62,0,0,1,80.58,60v.6Z" transform="translate(-6.16 -6.31)" style="fill:url(#linear-gradient-4)"/><path d="M24,39.22h54a3,3,0,0,0,3-3v-27a3,3,0,0,0-3-3H24a3,3,0,0,0-3,3v27A3.19,3.19,0,0,0,24,39.22Zm0-8.9a7.27,7.27,0,0,1,5.93,5.93H24Zm8.89-21H69a10.09,10.09,0,0,0,8.89,8.9v9.19A10.36,10.36,0,0,0,69,36.25H32.84A10.08,10.08,0,0,0,24,27.36V18.17C28.69,17.28,32.25,14,32.84,9.27ZM72,36.25a7.26,7.26,0,0,1,5.93-5.93v5.93Zm5.93-21.34A7.26,7.26,0,0,1,72,9h5.93Zm-48-5.64A7.26,7.26,0,0,1,24,15.2V9.27Z" transform="translate(-6.16 -6.31)" style="fill:url(#linear-gradient-5)"/><circle cx="44.77" cy="16.31" r="4.45" style="fill:url(#linear-gradient-6)"/></svg>