<svg id="Layer_1" data-name="Layer 1" xmlns="http://www.w3.org/2000/svg" xmlns:xlink="http://www.w3.org/1999/xlink" viewBox="0 0 72.83 64.36"><defs><linearGradient id="linear-gradient" x1="170.29" y1="274.42" x2="243.13" y2="274.42" gradientTransform="matrix(1, 0, 0, -1, -8.58, 402.91)" gradientUnits="userSpaceOnUse"><stop offset="0" stop-color="#6c6d6d"/><stop offset="0.36" stop-color="#6a6b6b"/><stop offset="0.53" stop-color="#626363"/><stop offset="0.66" stop-color="#565656"/><stop offset="0.78" stop-color="#434444"/><stop offset="0.87" stop-color="#2c2c2c"/><stop offset="0.96" stop-color="#0f0f0f"/><stop offset="1"/></linearGradient><linearGradient id="linear-gradient-2" x1="194.59" y1="111.31" x2="202.89" y2="111.31" gradientTransform="matrix(1, 0, 0, -1, -161.71, 152.13)" xlink:href="#linear-gradient"/><linearGradient id="linear-gradient-3" x1="200.5" y1="308.16" x2="214.08" y2="308.16" xlink:href="#linear-gradient"/><linearGradient id="linear-gradient-4" x1="218.59" y1="111.46" x2="226.89" y2="111.46" gradientTransform="matrix(1, 0, 0, -1, -161.71, 152.13)" xlink:href="#linear-gradient"/><linearGradient id="linear-gradient-5" x1="170.8" y1="119.75" x2="179.09" y2="119.75" gradientTransform="matrix(1, 0, 0, -1, -161.71, 152.13)" xlink:href="#linear-gradient"/></defs><title>16</title><path d="M230.54,135.75H212.27V108.89a4.29,4.29,0,0,0-4.14-4.15H188.47a4.31,4.31,0,0,0-4.14,4.15v18.27H165.86a4.32,4.32,0,0,0-4.15,4.15V148.1a4.32,4.32,0,0,0,4.15,4.14h64.49a4.31,4.31,0,0,0,4.14-4.14v-8.6C234.89,137.33,233,135.75,230.54,135.75Zm-43.41-26.86a1.35,1.35,0,0,1,1.32-1.38.08.08,0,0,1,.07,0h19.61a1.34,1.34,0,0,1,1.38,1.31v35.42H187.13ZM184,149.48H165.86a1.36,1.36,0,0,1-1.38-1.32v-1.45h16.88V144H164.48V131.31a1.35,1.35,0,0,1,1.32-1.38.06.06,0,0,1,.06,0h18.27v19.55Zm3.06,0v-2.77h22.42v2.77Zm43.45,0H212.27V138.22h18.27a1.34,1.34,0,0,1,1.39,1.3v4.23H215v2.77h16.89v1.38C231.93,149,231.33,149.48,230.54,149.48Z" transform="translate(-161.71 -87.87)" style="fill:url(#linear-gradient)"/><polygon points="41.18 44.81 38.41 44.81 38.41 33.75 32.88 33.75 32.88 36.52 35.65 36.52 35.65 44.81 32.88 44.81 32.88 47.87 41.18 47.87 41.18 44.81" style="fill:url(#linear-gradient-2)"/><path d="M199.83,88.45l1.09,2.47.79.79,2.76.29a1.24,1.24,0,0,1,1,1.41,1.26,1.26,0,0,1-.44.77l-2,2c-.3.3-.59.79-.3,1.09l.6,2.76a1.16,1.16,0,0,1-.7,1.48,1.2,1.2,0,0,1-1-.09l-2.45-1.37a.78.78,0,0,0-1.11,0l-2.47,1.39c-.79.59-2-.3-1.67-1.39l.59-2.76c0-.6,0-.79-.3-1.09l-2-2a1.29,1.29,0,0,1,.64-2.15l2.76-.29a.85.85,0,0,0,.79-.79l1.09-2.47a1.38,1.38,0,0,1,1.91-.4A1.2,1.2,0,0,1,199.83,88.45Z" transform="translate(-161.71 -87.87)" style="fill:url(#linear-gradient-3)"/><circle cx="61.03" cy="40.66" r="4.15" style="fill:url(#linear-gradient-4)"/><circle cx="13.23" cy="32.37" r="4.15" style="fill:url(#linear-gradient-5)"/></svg>