<svg id="Layer_1" data-name="Layer 1" xmlns="http://www.w3.org/2000/svg" xmlns:xlink="http://www.w3.org/1999/xlink" viewBox="0 0 69.55 60.97"><defs><linearGradient id="linear-gradient" x1="45.55" y1="66.11" x2="45.55" y2="52.96" gradientTransform="matrix(1, 0, 0, -1, 0, 82)" gradientUnits="userSpaceOnUse"><stop offset="0" stop-color="#6c6d6d"/><stop offset="0.36" stop-color="#6a6b6b"/><stop offset="0.53" stop-color="#626363"/><stop offset="0.66" stop-color="#565656"/><stop offset="0.78" stop-color="#434444"/><stop offset="0.87" stop-color="#2c2c2c"/><stop offset="0.96" stop-color="#0f0f0f"/><stop offset="1"/></linearGradient><linearGradient id="linear-gradient-2" x1="-486.3" y1="726.22" x2="-511.29" y2="769.5" gradientTransform="translate(793 -1069.9) scale(1.5)" xlink:href="#linear-gradient"/><linearGradient id="linear-gradient-3" x1="-298.84" y1="559.65" x2="-527.23" y2="788.04" gradientTransform="translate(782.86 -1084.41) scale(1.5)" xlink:href="#linear-gradient"/><linearGradient id="linear-gradient-4" x1="-424.25" y1="662.24" x2="-652.64" y2="890.63" gradientTransform="translate(782.86 -1084.41) scale(1.5)" xlink:href="#linear-gradient"/></defs><title>5-01</title><path d="M32.43,29V21.12a5.2,5.2,0,0,1,5.23-5.23H53.45a5.19,5.19,0,0,1,5.22,5.23V29H53.45v-6.7A1.59,1.59,0,0,0,52,20.83H38.85a1.58,1.58,0,0,0-1.48,1.48V29Z" transform="translate(-10.14 -14.51)" style="fill:url(#linear-gradient)"/><path d="M75.64,27.93H74.16a2.65,2.65,0,0,0-2.66-2.66H66.27a2.65,2.65,0,0,0-2.66,2.66h-4V21.22a6.78,6.78,0,0,0-6.71-6.71H37.07a6.78,6.78,0,0,0-6.71,6.71v6.71H26.22a2.65,2.65,0,0,0-2.66-2.66H18.33a2.65,2.65,0,0,0-2.67,2.66H14.18a4.13,4.13,0,0,0-4,4V71.43a4.12,4.12,0,0,0,4,4H75.64a4.13,4.13,0,0,0,4-4V32A3.83,3.83,0,0,0,75.64,27.93ZM71.89,67.39H66.67V64.72h5.22ZM66.57,70h5.22v2.67H66.57Zm0-42h5.22V62.46H66.57V27.93Zm-33-6.81a4.13,4.13,0,0,1,4-4H53.35a4.12,4.12,0,0,1,4,4v6.71H54.73V22.6a2.65,2.65,0,0,0-2.66-2.66H39.14a2.65,2.65,0,0,0-2.66,2.66v5.23H33.81V21.12ZM52,27.93H38.85V22.7H52ZM31,30.49h33V72.62H27.11V30.49Zm-12,34.24h5.33v2.66H19l-.1-2.66Zm0,5.22h5.33v2.67H19L18.92,70Zm0-42h5.33V62.46H19V29.31l-.1-1.38ZM13.69,71.14V31.68a1.59,1.59,0,0,1,1.48-1.48h1.48V72.32H15.17C14.28,72.62,13.69,72,13.69,71.14Zm63.43,0a1.59,1.59,0,0,1-1.48,1.48H74.16V30.49h1.48A1.59,1.59,0,0,1,77.12,32Z" transform="translate(-10.14 -14.51)" style="fill:url(#linear-gradient-2)"/><rect x="22.29" y="52.88" width="26.34" height="2.66" style="fill:url(#linear-gradient-3)"/><rect x="22.29" y="18.65" width="26.34" height="2.66" style="fill:url(#linear-gradient-4)"/></svg>