<svg id="Layer_1" data-name="Layer 1" xmlns="http://www.w3.org/2000/svg" xmlns:xlink="http://www.w3.org/1999/xlink" viewBox="0 0 66.47 82.79"><defs><linearGradient id="linear-gradient" x1="46.79" y1="763.58" x2="39.88" y2="775.56" gradientTransform="translate(0 -751.9)" gradientUnits="userSpaceOnUse"><stop offset="0" stop-color="#6c6d6d"/><stop offset="0.36" stop-color="#6a6b6b"/><stop offset="0.53" stop-color="#626363"/><stop offset="0.66" stop-color="#565656"/><stop offset="0.78" stop-color="#434444"/><stop offset="0.87" stop-color="#2c2c2c"/><stop offset="0.96" stop-color="#0f0f0f"/><stop offset="1"/></linearGradient><linearGradient id="linear-gradient-2" x1="31.83" y1="780.28" x2="24.11" y2="793.66" xlink:href="#linear-gradient"/><linearGradient id="linear-gradient-3" x1="56.19" y1="756.83" x2="25.81" y2="809.45" xlink:href="#linear-gradient"/><linearGradient id="linear-gradient-4" x1="71.48" y1="761.05" x2="26.88" y2="838.3" xlink:href="#linear-gradient"/></defs><title>11</title><path d="M50.87,14.25l-9.95,10-4.38-4.37A22.38,22.38,0,0,1,50.87,14.25Z" transform="translate(-10.77 -1.02)" style="fill:url(#linear-gradient)"/><path d="M23.91,41.22l10-9.95-4.38-4.38C29.78,26.79,23.91,32.36,23.91,41.22Z" transform="translate(-10.77 -1.02)" style="fill:url(#linear-gradient-2)"/><path d="M40.92,61.52a31.06,31.06,0,0,0,21.39-8.76,29,29,0,0,0,8.76-21.39,31.17,31.17,0,0,0-8.76-21.6C56.74,3.9,49.18,1,40.92,1A30.51,30.51,0,0,0,19.53,9.77a30.17,30.17,0,0,0-8.76,21.4,30.66,30.66,0,0,0,8.76,21.39A29,29,0,0,0,40.92,61.52ZM29.78,22.11l9,9.06-17,17.11C20.12,40,23.31,29.48,29.78,22.11ZM52.06,40l-8.75-8.76,17-17C61.72,22.41,58.53,33,52.06,40Zm-2.28,2.38c-7.07,6.47-17.91,9.65-26.17,8.26l17-17ZM40.92,28.88l-9.06-9.06c7.07-6.46,17.92-9.65,26.17-8.25ZM26.59,54.15h1.49A37.47,37.47,0,0,0,52.16,44.8l6.77,6.77A26.76,26.76,0,0,1,41,58.33,27.85,27.85,0,0,1,26.59,54.15Zm34.33-5-6.76-6.77c6.46-7.06,10-16.71,9.35-25.57a26,26,0,0,1,4.08,14.43A24.16,24.16,0,0,1,60.92,49.18ZM55.35,8.38a38.71,38.71,0,0,0-25.57,9.36L23,11A26.7,26.7,0,0,1,40.92,4.2,28.23,28.23,0,0,1,55.35,8.38Zm-34.63,5,6.77,6.76C21,27.19,17.54,36.84,18.13,45.7a26.12,26.12,0,0,1-4.08-14.43A25.67,25.67,0,0,1,20.72,13.36Z" transform="translate(-10.77 -1.02)" style="fill:url(#linear-gradient-3)"/><path d="M45.3,67.39a36.45,36.45,0,0,0,21.19-62L64.11,7.78A33.42,33.42,0,0,1,16.84,55.05l-2.39,2.39a36.18,36.18,0,0,0,21.1,10.25,4.44,4.44,0,0,0,2.88,3.18v5H35.25a4.61,4.61,0,0,0-4.68,4.67h-8v3.29H57.54V80.62h-8A4.61,4.61,0,0,0,44.9,76H41.72V70.67C44.1,70,45,68.78,45.3,67.39Zm1.79,13.13H34.45A1.41,1.41,0,0,1,35.94,79H45.3A1.43,1.43,0,0,1,47.09,80.52Z" transform="translate(-10.77 -1.02)" style="fill:url(#linear-gradient-4)"/></svg>