<svg id="Layer_1" data-name="Layer 1" xmlns="http://www.w3.org/2000/svg" xmlns:xlink="http://www.w3.org/1999/xlink" viewBox="0 0 75.46 66.9"><defs><linearGradient id="linear-gradient" x1="33.77" y1="800.47" x2="28.31" y2="809.93" gradientTransform="translate(0 -751.9)" gradientUnits="userSpaceOnUse"><stop offset="0" stop-color="#6c6d6d"/><stop offset="0.36" stop-color="#6a6b6b"/><stop offset="0.53" stop-color="#626363"/><stop offset="0.66" stop-color="#565656"/><stop offset="0.78" stop-color="#434444"/><stop offset="0.87" stop-color="#2c2c2c"/><stop offset="0.96" stop-color="#0f0f0f"/><stop offset="1"/></linearGradient><linearGradient id="linear-gradient-2" x1="22.38" y1="788.75" x2="18.02" y2="796.29" gradientTransform="translate(-7.27 -763.45)" xlink:href="#linear-gradient"/><linearGradient id="linear-gradient-3" x1="51.33" y1="800.55" x2="46.97" y2="808.1" gradientTransform="translate(-7.27 -763.45)" xlink:href="#linear-gradient"/><linearGradient id="linear-gradient-4" x1="61.76" y1="808.41" x2="56.3" y2="817.87" xlink:href="#linear-gradient"/><linearGradient id="linear-gradient-5" x1="71.73" y1="800.5" x2="67.38" y2="808.04" gradientTransform="translate(-7.27 -763.45)" xlink:href="#linear-gradient"/><linearGradient id="linear-gradient-6" x1="59.12" y1="767.84" x2="28.46" y2="820.94" xlink:href="#linear-gradient"/></defs><title>17-01</title><path d="M37.73,55.21a7.22,7.22,0,1,0-14.44,0A17.48,17.48,0,0,1,37.73,55.21Z" transform="translate(-7.27 -11.55)" style="fill:url(#linear-gradient)"/><circle cx="12.96" cy="29.03" r="4.35" style="fill:url(#linear-gradient-2)"/><circle cx="41.93" cy="40.79" r="4.35" style="fill:url(#linear-gradient-3)"/><path d="M66.71,59.46a7.22,7.22,0,0,1-14.44,0A17.49,17.49,0,0,0,66.71,59.46Z" transform="translate(-7.27 -11.55)" style="fill:url(#linear-gradient-4)"/><circle cx="62.3" cy="40.79" r="4.35" style="fill:url(#linear-gradient-5)"/><path d="M80.15,28.21c-8.9-4.35-17.8-6-26.7-4.84V20.5a4,4,0,0,0-2.27-3.76c-13.75-6.92-27.89-6.92-41.64,0A4.08,4.08,0,0,0,7.27,20.4V43.34A23.14,23.14,0,0,0,30.51,66.58a24,24,0,0,0,8-1.48,23.2,23.2,0,0,0,44.2-9.89v-23A4.43,4.43,0,0,0,80.15,28.21Zm-.19,4V34a47.22,47.22,0,0,0-5.74-2.28V29c1.68.6,3.46,1.49,5.14,2A1.4,1.4,0,0,1,80,32.17ZM65.22,29.3V26.43A40.39,40.39,0,0,1,71,27.62v2.87C69.28,30.19,67.3,29.6,65.22,29.3Zm-2.87-3.16V29H56.62V26.14h5.73ZM39.11,34V32.27c0-.59.3-1.19.89-1.19a28.21,28.21,0,0,1,5.15-2v2.57A32,32,0,0,0,39.11,34Zm8.61-6a39.19,39.19,0,0,1,5.73-1.19V29.6a39.19,39.19,0,0,0-5.73,1.19ZM30.51,63.82A20.48,20.48,0,0,1,10.14,43.44V25.35a41.78,41.78,0,0,1,33-3.17l.89-2.87c-11.18-3.46-22.65-2.57-33.92,2.87V20.5c0-.59.3-1.19.89-1.19C24,13,37.14,13,50.09,19.31A1.6,1.6,0,0,1,51,20.5V24a49.54,49.54,0,0,0-12.06,4.35,4,4,0,0,0-2.28,3.76V55a29.6,29.6,0,0,0,1.19,7.42A18,18,0,0,1,30.51,63.82Zm29,11.76A20.47,20.47,0,0,1,39.11,55.21V37.11c13.45-6.92,27.3-6.92,40.75,0v18.1A20.34,20.34,0,0,1,59.49,75.58Z" transform="translate(-7.27 -11.55)" style="fill:url(#linear-gradient-6)"/></svg>