<svg id="Layer_1" data-name="Layer 1" xmlns="http://www.w3.org/2000/svg" xmlns:xlink="http://www.w3.org/1999/xlink" viewBox="0 0 54.16 73.88"><defs><linearGradient id="linear-gradient" x1="64.21" y1="-1823.72" x2="49.15" y2="-1849.81" gradientTransform="matrix(1, 0, 0, -1, 0, -1797.9)" gradientUnits="userSpaceOnUse"><stop offset="0" stop-color="#6c6d6d"/><stop offset="0.36" stop-color="#6a6b6b"/><stop offset="0.53" stop-color="#626363"/><stop offset="0.66" stop-color="#565656"/><stop offset="0.78" stop-color="#434444"/><stop offset="0.87" stop-color="#2c2c2c"/><stop offset="0.96" stop-color="#0f0f0f"/><stop offset="1"/></linearGradient><linearGradient id="linear-gradient-2" x1="-822.56" y1="1641.15" x2="-845.46" y2="1680.81" gradientTransform="translate(1305 -2442.55) scale(1.5)" xlink:href="#linear-gradient"/></defs><title>6-01</title><path d="M65.47,40c0,6.42-4.35,13.15-10.18,15.42V20.67C61.12,23.84,65.47,33.53,65.47,40Z" transform="translate(-23.81 -10.68)" style="fill:url(#linear-gradient)"/><path d="M77.74,65.27a15,15,0,0,0-12.27-7.61A25.66,25.66,0,0,0,72.2,40.45c0-11.67-9.6-29.77-21.27-29.77S29.57,28.88,29.57,40.55c0,6.13,2.67,12.26,6.73,17.21A16.17,16.17,0,0,0,24,65.37a1.38,1.38,0,0,0,0,1.49,15.88,15.88,0,0,0,14,7.91,16,16,0,0,0,11.37-4.35V84.56h3V70.32a15.76,15.76,0,0,0,11.37,4.35,15.87,15.87,0,0,0,14-7.91A1.63,1.63,0,0,0,77.74,65.27ZM51.23,13.65c9.89,0,18.4,16.61,18.4,26.8,0,9.3-7.32,20.18-16.92,21V20.67h-3V35.51l-6.13-6.14-2.08,2.08,8.21,8.21v5.83l-6.14-6.13-2.07,2.08,8.21,8.21v12c-9.6-.89-16.92-11.67-16.92-21C32.54,30.26,41,13.65,51.23,13.65ZM38.37,71.7A13,13,0,0,1,27.3,66.16a13.18,13.18,0,0,1,11.07-5.53h1.19a18.51,18.51,0,0,0,10.19,4.05v1.19A13.75,13.75,0,0,1,38.37,71.7Zm25.42,0a13.12,13.12,0,0,1-11.37-6.13V64.38a18.86,18.86,0,0,0,10.18-4h1.19a13.08,13.08,0,0,1,11.08,5.54A12.54,12.54,0,0,1,63.79,71.7Z" transform="translate(-23.81 -10.68)" style="fill:url(#linear-gradient-2)"/></svg>