<svg id="Layer_1" data-name="Layer 1" xmlns="http://www.w3.org/2000/svg" xmlns:xlink="http://www.w3.org/1999/xlink" viewBox="0 0 73.45 65.23"><defs><linearGradient id="linear-gradient" x1="-1133.27" y1="-1785.38" x2="-1135.59" y2="-1789.38" gradientTransform="matrix(1.5, 0, 0, -1.5, 1752.5, -2647.06)" gradientUnits="userSpaceOnUse"><stop offset="0" stop-color="#6c6d6d"/><stop offset="0.36" stop-color="#6a6b6b"/><stop offset="0.53" stop-color="#626363"/><stop offset="0.66" stop-color="#565656"/><stop offset="0.78" stop-color="#434444"/><stop offset="0.87" stop-color="#2c2c2c"/><stop offset="0.96" stop-color="#0f0f0f"/><stop offset="1"/></linearGradient><linearGradient id="linear-gradient-2" x1="-1139.63" y1="-1787.99" x2="-1141.76" y2="-1791.69" xlink:href="#linear-gradient"/><linearGradient id="linear-gradient-3" x1="-1121.42" y1="-1781.3" x2="-1123.11" y2="-1784.23" xlink:href="#linear-gradient"/><linearGradient id="linear-gradient-4" x1="-1127.49" y1="-1783.49" x2="-1129.38" y2="-1786.76" xlink:href="#linear-gradient"/><linearGradient id="linear-gradient-5" x1="-1145.7" y1="-1790.5" x2="-1147.49" y2="-1793.59" xlink:href="#linear-gradient"/><linearGradient id="linear-gradient-6" x1="-1129.01" y1="-1767.9" x2="-1154.68" y2="-1812.36" xlink:href="#linear-gradient"/><linearGradient id="linear-gradient-7" x1="-955.79" y1="-1499.9" x2="-1221.3" y2="-1959.78" gradientTransform="matrix(1.5, 0, 0, -1.5, 1744.35, -2660.53)" xlink:href="#linear-gradient"/></defs><title>12-01</title><path d="M53.1,33.34c.6,1.18-.29,2.66-1.48,3.26s-2.67-.3-3.26-1.49h0c-.59-1.18.3-2.66,1.48-3.26a2.31,2.31,0,0,1,3.26,1.49h0" transform="translate(-8.15 -13.47)" style="fill:url(#linear-gradient)"/><path d="M44,36.5c.59,1.19-.29,2.67-1.48,3.26s-2.67-.3-3.26-1.48h0c-.6-1.19.29-2.67,1.48-3.26A2.85,2.85,0,0,1,44,36.5Z" transform="translate(-8.15 -13.47)" style="fill:url(#linear-gradient-2)"/><path d="M71.29,26.52c.59,1.18-.3,2.67-1.48,3.26s-2.67-.3-3.26-1.48h0C66,27.11,66.84,25.63,68,25a2.45,2.45,0,0,1,3.26,1.49Z" transform="translate(-8.15 -13.47)" style="fill:url(#linear-gradient-3)"/><path d="M62.2,29.78c.59,1.18-.3,2.67-1.48,3.26s-2.67-.3-3.27-1.48h0c-.59-1.19.3-2.67,1.49-3.26s2.66.29,3.26,1.48Z" transform="translate(-8.15 -13.47)" style="fill:url(#linear-gradient-4)"/><path d="M35,40.06c.59,1.18-.3,2.67-1.49,3.26s-2.66-.3-3.26-1.48h0c-.59-1.19.3-2.67,1.49-3.27S34.42,38.87,35,40.06Z" transform="translate(-8.15 -13.47)" style="fill:url(#linear-gradient-5)"/><path d="M81.27,25.43A10.7,10.7,0,0,0,75.44,19a10.54,10.54,0,0,0-8.5-.3L49.05,25.43,30,14a4.2,4.2,0,0,0-3.26-.29l-3.86,1.48a3.16,3.16,0,0,0-1.78,2.08A2,2,0,0,0,22,19.6L34.13,31l-9.39,3.56L18.91,27.8A5.9,5.9,0,0,0,12.19,26l-1.49.59a4,4,0,0,0-2.37,4.95l4.94,14A10.75,10.75,0,0,0,19.1,52a12.52,12.52,0,0,0,4.65,1.18,17.69,17.69,0,0,0,3.85-.59L40,48,37.88,64.67A3.37,3.37,0,0,0,38.77,67c.6.3.89.59,1.49.59a1.12,1.12,0,0,0,.89-.29L45,65.85a3.18,3.18,0,0,0,2.37-2.37l7.51-21.15,22.54-8.5c3.26-1.68,4.94-5.24,3.85-8.4ZM28,16.34h.89L31,17.52,26.22,19.2l-1.78-1.78Zm.2,4.94,5.53-2.08,12.06,7-8.5,3.26Zm16.7,41a.64.64,0,0,1-.59.6l-3.56,1.48.3-2.37,4.64-1.78ZM47,56.76l-5.54,2.08,2.37-17.3c0-.3.3-.59.6-.89l9.39-3.56ZM76.53,31,56.37,38.57l.29-.89a3.64,3.64,0,0,0-.59-3,2.26,2.26,0,0,0-2.67-.59L43.72,38a3.46,3.46,0,0,0-2.38,3.26l-.59,3.27L27,49.74a7.34,7.34,0,0,1-6.13-.29,8.08,8.08,0,0,1-4.35-5l-4.94-14a1.08,1.08,0,0,1,.6-1.48l1.48-.6c1.19-.59,2.67,0,3.85.89l7,8.21L68.72,20.78a7.34,7.34,0,0,1,6.13.3A8.06,8.06,0,0,1,79.2,26,4.52,4.52,0,0,1,76.53,31Z" transform="translate(-8.15 -13.47)" style="fill:url(#linear-gradient-6)"/><rect x="5.72" y="62.26" width="62.07" height="2.96" style="fill:url(#linear-gradient-7)"/></svg>