<svg id="Слой_1" data-name="Слой 1" xmlns="http://www.w3.org/2000/svg" xmlns:xlink="http://www.w3.org/1999/xlink" viewBox="0 0 60 78"><defs><linearGradient id="linear-gradient" x1="-271.67" y1="198.08" x2="-271.67" y2="195.32" gradientTransform="matrix(1.5, 0, 0, -1.5, 437.5, 363.5)" gradientUnits="userSpaceOnUse"><stop offset="0" stop-color="#6c6d6d"/><stop offset="0.36" stop-color="#6a6b6b"/><stop offset="0.53" stop-color="#626363"/><stop offset="0.66" stop-color="#565656"/><stop offset="0.78" stop-color="#434444"/><stop offset="0.87" stop-color="#2c2c2c"/><stop offset="0.96" stop-color="#0f0f0f"/><stop offset="1"/></linearGradient><linearGradient id="linear-gradient-2" x1="-280.17" y1="238.33" x2="-280.17" y2="235.22" xlink:href="#linear-gradient"/><linearGradient id="linear-gradient-3" x1="-263.17" y1="238.33" x2="-263.17" y2="235.22" xlink:href="#linear-gradient"/><linearGradient id="linear-gradient-4" x1="-271.67" y1="243.17" x2="-271.67" y2="188.48" gradientTransform="matrix(1.5, 0, 0, -1.5, 455.5, 372.5)" xlink:href="#linear-gradient"/><linearGradient id="linear-gradient-5" x1="-277.67" y1="243.17" x2="-277.67" y2="188.48" xlink:href="#linear-gradient"/><linearGradient id="linear-gradient-6" x1="-278.17" y1="243.17" x2="-278.17" y2="188.48" xlink:href="#linear-gradient"/><linearGradient id="linear-gradient-7" x1="-266.09" y1="243.17" x2="-266.09" y2="188.48" gradientTransform="matrix(1.5, 0, 0, -1.5, 455.5, 372.5)" xlink:href="#linear-gradient"/><linearGradient id="linear-gradient-8" x1="-278.67" y1="243.17" x2="-278.67" y2="188.48" xlink:href="#linear-gradient"/><linearGradient id="linear-gradient-9" x1="-279.17" y1="243.17" x2="-279.17" y2="188.48" xlink:href="#linear-gradient"/><linearGradient id="linear-gradient-10" x1="-266.67" y1="243.17" x2="-266.67" y2="188.48" xlink:href="#linear-gradient"/></defs><title>test icon grey</title><rect x="9" y="67.5" width="42" height="1.5" style="fill:url(#linear-gradient)"/><rect x="12" y="7.5" width="10.5" height="1.5" style="fill:url(#linear-gradient-2)"/><rect x="37.5" y="7.5" width="10.5" height="1.5" style="fill:url(#linear-gradient-3)"/><path d="M72,18H69V16.5a3,3,0,0,0-3-3H54.86a7.48,7.48,0,0,0-13.72,0H30a3,3,0,0,0-3,3V18H24a6,6,0,0,0-6,6V81a6,6,0,0,0,6,6H72a6,6,0,0,0,6-6V24A6,6,0,0,0,72,18Zm-6-1.5V18H55.5V16.5Zm-22.5,0a4.5,4.5,0,0,1,9,0V27h-9Zm0,13.5h9a3,3,0,0,0,3-3H69V73.5H27V27H40.5A3,3,0,0,0,43.5,30ZM27,76.5H69V78H27Zm3-60H40.5V18H30ZM75,81a3,3,0,0,1-3,3H24a3,3,0,0,1-3-3V24a3,3,0,0,1,3-3H40.5v3H27a3,3,0,0,0-3,3V78a3,3,0,0,0,3,3H69a3,3,0,0,0,3-3V27a3,3,0,0,0-3-3H55.5V21H72a3,3,0,0,1,3,3Z" transform="translate(-18 -9)" style="fill:url(#linear-gradient-4)"/><rect x="15" y="28.5" width="12" height="3" style="fill:url(#linear-gradient-5)"/><rect x="15" y="46.5" width="10.5" height="3" style="fill:url(#linear-gradient-6)"/><path d="M55.13,47.47a3,3,0,0,0,2.12-.88l6.67-6.67L61.8,37.8l-6.68,6.67-4.18-4.19L48.81,42.4,53,46.59A3,3,0,0,0,55.13,47.47Z" transform="translate(-18 -9)" style="fill:url(#linear-gradient-7)"/><rect x="15" y="34.5" width="9" height="3" style="fill:url(#linear-gradient-8)"/><rect x="15" y="52.5" width="7.5" height="3" style="fill:url(#linear-gradient-9)"/><polygon points="40.68 45.7 37.5 48.88 34.32 45.7 32.2 47.82 35.38 51 32.2 54.18 34.32 56.3 37.5 53.12 40.68 56.3 42.8 54.18 39.62 51 42.8 47.82 40.68 45.7" style="fill:url(#linear-gradient-10)"/></svg>