<svg id="Layer_1" data-name="Layer 1" xmlns="http://www.w3.org/2000/svg" xmlns:xlink="http://www.w3.org/1999/xlink" viewBox="0 0 74.95 75.28"><defs><linearGradient id="linear-gradient" x1="-600.19" y1="-626.17" x2="-612.14" y2="-605.46" gradientTransform="matrix(1.5, 0, 0, -1.5, 931.5, -856.9)" gradientUnits="userSpaceOnUse"><stop offset="0" stop-color="#6c6d6d"/><stop offset="0.36" stop-color="#6a6b6b"/><stop offset="0.53" stop-color="#626363"/><stop offset="0.66" stop-color="#565656"/><stop offset="0.78" stop-color="#434444"/><stop offset="0.87" stop-color="#2c2c2c"/><stop offset="0.96" stop-color="#0f0f0f"/><stop offset="1"/></linearGradient><linearGradient id="linear-gradient-2" x1="-576.85" y1="-576.15" x2="-604.67" y2="-624.33" xlink:href="#linear-gradient"/><linearGradient id="linear-gradient-3" x1="-273.66" y1="580.94" x2="-273.66" y2="569.39" gradientTransform="matrix(1.06, 1.06, 1.06, -1.06, -277.4, 942.44)" xlink:href="#linear-gradient"/></defs><title>4-01</title><path d="M12.75,52.32,37,76.85,34.81,79A4.83,4.83,0,0,1,28,79L10.48,61.62a4.84,4.84,0,0,1,0-6.83Z" transform="translate(-7.51 -7.31)" style="fill:url(#linear-gradient)"/><path d="M27.39,45.59,44.31,62.81l-2.18,1.88L25.22,47.47Zm-6.53,6.24L37.78,69,40,67.16,23,50ZM77.94,38.77l-1.09,1.09v.19L36.2,80.71a6.26,6.26,0,0,1-4.65,1.88,6.65,6.65,0,0,1-4.65-1.88l-17.51-18a6.69,6.69,0,0,1,0-9.3L37.78,25a6.24,6.24,0,0,1,4.65-1.88A6.67,6.67,0,0,1,47.08,25l8.21,8.21a10.48,10.48,0,0,0,7.12,3,5.76,5.76,0,0,0,4.06-1.39L69.24,32a6.39,6.39,0,0,0,0-9l-2.48-2.27a6.38,6.38,0,0,0-4.05-1.88,5,5,0,0,0-4.06,1.88l-.79.79a5.54,5.54,0,0,1-9.4-3.86,5.19,5.19,0,0,1,1.68-3.86L52,12a15.07,15.07,0,0,1,21.77,0l4.65,4.65A16.52,16.52,0,0,1,77.94,38.77ZM35.31,77.45,12.75,54.3l-1.38,1.38a4,4,0,0,0-1.09,2.48,3.17,3.17,0,0,0,1.09,2.47l17.7,18a4,4,0,0,0,2.48,1.09A3.17,3.17,0,0,0,34,78.63ZM76,19.08l-4.65-4.65a12.08,12.08,0,0,0-9-3.56,13.36,13.36,0,0,0-9,3.56l-1.88,1.88a2.36,2.36,0,0,0-.79,1.88,2.53,2.53,0,0,0,.79,1.88,2.32,2.32,0,0,0,1.88.79,2.52,2.52,0,0,0,1.88-.79l.79-.79a8.88,8.88,0,0,1,6.23-2.77,7.53,7.53,0,0,1,6.23,2.77l2.48,2.48a9.31,9.31,0,0,1,0,13.05l-2.77,2.77h-.3a9.2,9.2,0,0,1-6,2.18,13,13,0,0,1-9.3-3.86l-8.21-8.21a4.06,4.06,0,0,0-2.48-1.09,3.17,3.17,0,0,0-2.47,1.09L14.63,52.91,37.28,76.06,74.38,39h0l.3-.3.29-.3,1.09-1.09C80.91,31.94,80.91,23.73,76,19.08Z" transform="translate(-7.51 -7.31)" style="fill:url(#linear-gradient-2)"/><path d="M30.76,42.23l9-9a3.89,3.89,0,0,1,5.73,0l8.41,9Z" transform="translate(-7.51 -7.31)" style="fill:url(#linear-gradient-3)"/></svg>