<svg id="Layer_1" data-name="Layer 1" xmlns="http://www.w3.org/2000/svg" xmlns:xlink="http://www.w3.org/1999/xlink" viewBox="0 0 71.9 60.33"><defs><linearGradient id="linear-gradient" x1="75.36" y1="-1154.56" x2="40.41" y2="-1094.04" gradientTransform="matrix(1, 0, 0, -1, -9.89, -1068.51)" gradientUnits="userSpaceOnUse"><stop offset="0" stop-color="#6c6d6d"/><stop offset="0.36" stop-color="#6a6b6b"/><stop offset="0.53" stop-color="#626363"/><stop offset="0.66" stop-color="#565656"/><stop offset="0.78" stop-color="#434444"/><stop offset="0.87" stop-color="#2c2c2c"/><stop offset="0.96" stop-color="#0f0f0f"/><stop offset="1"/></linearGradient><linearGradient id="linear-gradient-2" x1="162.58" y1="-945.91" x2="49.27" y2="-1142.18" gradientTransform="matrix(1, 0, 0, -1, 0, -1051.9)" xlink:href="#linear-gradient"/><linearGradient id="linear-gradient-3" x1="66.99" y1="-1060.31" x2="27.12" y2="-1129.37" gradientTransform="matrix(1, 0, 0, -1, 0, -1051.9)" xlink:href="#linear-gradient"/><linearGradient id="linear-gradient-4" x1="26.08" y1="-1067.56" x2="-9.48" y2="-1129.15" xlink:href="#linear-gradient"/><linearGradient id="linear-gradient-5" x1="29.26" y1="-1069.47" x2="-2.05" y2="-1123.69" xlink:href="#linear-gradient"/><linearGradient id="linear-gradient-6" x1="33.72" y1="-1069.57" x2="3.17" y2="-1122.48" xlink:href="#linear-gradient"/><linearGradient id="linear-gradient-7" x1="37.32" y1="-1069.39" x2="7.86" y2="-1120.41" xlink:href="#linear-gradient"/></defs><title>13-01</title><rect x="27.69" y="54.99" width="41.34" height="2.87" style="fill:url(#linear-gradient)"/><path d="M77.44,69H39a4,4,0,0,0-4,4v4H81.79V73A4.38,4.38,0,0,0,77.44,69Zm1.48,5.44H37.58V73.09A1.3,1.3,0,0,1,39,71.7H77.44a1.31,1.31,0,0,1,1.39,1.39l.09,1.38Z" transform="translate(-9.89 -16.61)" style="fill:url(#linear-gradient-2)"/><path d="M42.92,51h2.87v4a2.94,2.94,0,0,0-2.87,2.87v3a2.93,2.93,0,0,0,2.87,2.87H70.62a2.93,2.93,0,0,0,2.86-2.87V58a2.92,2.92,0,0,0-2.86-2.87v-22a2.93,2.93,0,0,0,2.86-2.87V27.39a2.92,2.92,0,0,0-2.86-2.86H45.79a2.93,2.93,0,0,0-2.87,2.86v2.87a2.93,2.93,0,0,0,2.87,2.87v4H42.92A2.92,2.92,0,0,0,40.06,40H13.85a4,4,0,0,0-4,4,4.26,4.26,0,0,0,4,4H40.06A3,3,0,0,0,42.92,51Zm27.7,9.79H45.79V58H70.62ZM45.79,27.69H70.62v2.87H45.79Zm22,5.44V36H54.1v2.87H67.75v2.86H59.44V44.6h8.31V55.68H48.36v-22H67.75ZM42.92,40h2.87v8.3H42.92ZM13.84,45.69a1.39,1.39,0,0,1,0-2.77H40.05v2.87l-26.21-.1Z" transform="translate(-9.89 -16.61)" style="fill:url(#linear-gradient-3)"/><rect x="3.95" y="15.03" width="2.87" height="5.44" style="fill:url(#linear-gradient-4)"/><rect x="9.69" y="9.69" width="2.87" height="11.08" style="fill:url(#linear-gradient-5)"/><rect x="15.13" y="6.82" width="2.87" height="13.65" style="fill:url(#linear-gradient-6)"/><rect x="20.57" width="2.87" height="20.57" style="fill:url(#linear-gradient-7)"/></svg>