<svg id="Layer_1" data-name="Layer 1" xmlns="http://www.w3.org/2000/svg" xmlns:xlink="http://www.w3.org/1999/xlink" viewBox="0 0 77.71 65.64"><defs><linearGradient id="linear-gradient" x1="-588.3" y1="-600.04" x2="-596.53" y2="-614.28" gradientTransform="matrix(1.5, 0, 0, -1.5, 932, -859.4)" gradientUnits="userSpaceOnUse"><stop offset="0" stop-color="#6c6d6d"/><stop offset="0.36" stop-color="#6a6b6b"/><stop offset="0.53" stop-color="#626363"/><stop offset="0.66" stop-color="#565656"/><stop offset="0.78" stop-color="#434444"/><stop offset="0.87" stop-color="#2c2c2c"/><stop offset="0.96" stop-color="#0f0f0f"/><stop offset="1"/></linearGradient><linearGradient id="linear-gradient-2" x1="-581.31" y1="-581.97" x2="-608.44" y2="-628.96" xlink:href="#linear-gradient"/><linearGradient id="linear-gradient-3" x1="-557.87" y1="-519.43" x2="-713.98" y2="-789.83" gradientTransform="matrix(1.5, 0, 0, -1.5, 925.89, -871.55)" xlink:href="#linear-gradient"/><linearGradient id="linear-gradient-4" x1="-543.52" y1="-498.67" x2="-699.63" y2="-769.06" gradientTransform="matrix(1.5, 0, 0, -1.5, 925.89, -871.55)" xlink:href="#linear-gradient"/><linearGradient id="linear-gradient-5" x1="-563.65" y1="-528.01" x2="-657.01" y2="-689.72" gradientTransform="matrix(1.5, 0, 0, -1.5, 925.89, -871.55)" xlink:href="#linear-gradient"/><linearGradient id="linear-gradient-6" x1="-555.49" y1="-517.76" x2="-648.85" y2="-679.47" gradientTransform="matrix(1.5, 0, 0, -1.5, 925.89, -871.55)" xlink:href="#linear-gradient"/><linearGradient id="linear-gradient-7" x1="-546.88" y1="-507.01" x2="-640.25" y2="-668.72" gradientTransform="matrix(1.5, 0, 0, -1.5, 925.89, -871.55)" xlink:href="#linear-gradient"/><linearGradient id="linear-gradient-8" x1="-538.69" y1="-496.78" x2="-632.05" y2="-658.49" gradientTransform="matrix(1.5, 0, 0, -1.5, 925.89, -871.55)" xlink:href="#linear-gradient"/></defs><title>2-01</title><path d="M48,61.58H38.93a1.4,1.4,0,0,1-1.49-1.48V42.21a1.41,1.41,0,0,1,1.49-1.49H48a1.41,1.41,0,0,1,1.49,1.49v18A1.38,1.38,0,0,1,48,61.58Z" transform="translate(-6.11 -12.15)" style="fill:url(#linear-gradient)"/><path d="M77.19,25.7H60.08V16.6a4.56,4.56,0,0,0-4.45-4.45H10.55A4.56,4.56,0,0,0,6.11,16.6V70.48a7.24,7.24,0,0,0,7.31,7.32H64.93a7.7,7.7,0,0,0,6.82-7.62V66h9.09a3,3,0,0,0,3-3V33.31A7.52,7.52,0,0,0,77.19,25.7Zm-17.11,18h3v15h-3ZM9.17,70.78v-54a1.4,1.4,0,0,1,1.48-1.48H55.73a1.4,1.4,0,0,1,1.49,1.48V70.68a7.29,7.29,0,0,0,1.48,4.45H13.52A4.21,4.21,0,0,1,9.17,70.78ZM68.88,33V70.09a4.79,4.79,0,0,1-4.15,4.74,5.18,5.18,0,0,1-3.56-1.19,4.75,4.75,0,0,1-1.48-3.26V61.29h3a3,3,0,0,0,3-3V43.39a3,3,0,0,0-3-3h-3v-3h5.93v-3H59.69V28.56H70.27A10,10,0,0,0,68.88,33ZM80.94,63.06H71.85V55.75h3v-3h-3v-3h3v-3h-3v-3h3v-3h-3V38h3V35h-3V33.5a4.6,4.6,0,1,1,9.19.3l-.1,29.26Z" transform="translate(-6.11 -12.15)" style="fill:url(#linear-gradient-2)"/><rect x="7.42" y="16.51" width="35.89" height="2.97" style="fill:url(#linear-gradient-3)"/><rect x="7.42" y="22.64" width="35.89" height="2.97" style="fill:url(#linear-gradient-4)"/><rect x="7.42" y="28.57" width="19.48" height="2.97" style="fill:url(#linear-gradient-5)"/><rect x="7.42" y="34.4" width="19.48" height="2.97" style="fill:url(#linear-gradient-6)"/><rect x="7.42" y="40.63" width="19.48" height="2.97" style="fill:url(#linear-gradient-7)"/><rect x="7.42" y="46.56" width="19.48" height="2.97" style="fill:url(#linear-gradient-8)"/></svg>