<svg id="Layer_1" data-name="Layer 1" xmlns="http://www.w3.org/2000/svg" xmlns:xlink="http://www.w3.org/1999/xlink" viewBox="0 0 77.96 66.01"><defs><linearGradient id="linear-gradient" x1="-489.28" y1="-631.33" x2="-513.72" y2="-673.65" gradientTransform="matrix(1.5, 0, 0, -1.5, 793, -934.9)" gradientUnits="userSpaceOnUse"><stop offset="0" stop-color="#6c6d6d"/><stop offset="0.36" stop-color="#6a6b6b"/><stop offset="0.53" stop-color="#626363"/><stop offset="0.66" stop-color="#565656"/><stop offset="0.78" stop-color="#434444"/><stop offset="0.87" stop-color="#2c2c2c"/><stop offset="0.96" stop-color="#0f0f0f"/><stop offset="1"/></linearGradient><linearGradient id="linear-gradient-2" x1="-480.31" y1="-653.74" x2="-490.7" y2="-671.72" xlink:href="#linear-gradient"/><linearGradient id="linear-gradient-3" x1="-481.64" y1="-640.68" x2="-486.03" y2="-648.28" xlink:href="#linear-gradient"/><linearGradient id="linear-gradient-4" x1="-510.14" y1="-632.81" x2="-541.17" y2="-686.55" xlink:href="#linear-gradient"/></defs><title>8-01</title><path d="M43.37,83.73C32.9,83.73,6,63.28,6,37.29a19.6,19.6,0,0,1,37.65-7.61,19.6,19.6,0,0,1,37.64,7.61,44.84,44.84,0,0,1-1.48,10.77l-3-.89a38.53,38.53,0,0,0,1.48-9.88,16.31,16.31,0,0,0-32.61,0h-3a16.36,16.36,0,0,0-32.71,0c0,24.8,26.28,43.48,34.49,43.48,2.37,0,6.71-1.78,11.06-4.64L57.4,78.5C51,81.66,46.33,83.73,43.37,83.73Z" transform="translate(-6.02 -17.73)" style="fill:url(#linear-gradient)"/><path d="M61,71.78a4.34,4.34,0,0,1-4.35-3.26L53.35,57.45l-.89,3.26a2.94,2.94,0,0,1-3,2.08H43.07v-3H49.5l1.18-3.26a3,3,0,0,1,3-2.07,3.22,3.22,0,0,1,3,2.07l3.16,11.07a1.52,1.52,0,0,0,3,0l4.34-18.09a3.5,3.5,0,0,1,3.46-3,3.64,3.64,0,0,1,3.76,2.67l3.26,10.57H84v3H77.56a3.24,3.24,0,0,1-3-2.08L71.33,50.24c-.29-.6-.59-.6-.89-.6s-.59,0-.59.6L65.5,68.32A4.6,4.6,0,0,1,61,71.78Z" transform="translate(-6.02 -17.73)" style="fill:url(#linear-gradient-2)"/><path d="M61.25,23.85A13.58,13.58,0,0,1,74.69,37.29H61.25Z" transform="translate(-6.02 -17.73)" style="fill:url(#linear-gradient-3)"/><path d="M14.81,37.29h-3A13.59,13.59,0,0,1,25.29,23.85v3A10.42,10.42,0,0,0,14.81,37.29Z" transform="translate(-6.02 -17.73)" style="fill:url(#linear-gradient-4)"/></svg>