<svg id="Layer_1" data-name="Layer 1" xmlns="http://www.w3.org/2000/svg" xmlns:xlink="http://www.w3.org/1999/xlink" viewBox="0 0 76.1 76"><defs><linearGradient id="linear-gradient" x1="-480.88" y1="-644.66" x2="-484.5" y2="-650.92" gradientTransform="matrix(1.5, 0, 0, -1.5, 786.05, -942.46)" gradientUnits="userSpaceOnUse"><stop offset="0" stop-color="#6c6d6d"/><stop offset="0.36" stop-color="#6a6b6b"/><stop offset="0.53" stop-color="#626363"/><stop offset="0.66" stop-color="#565656"/><stop offset="0.78" stop-color="#434444"/><stop offset="0.87" stop-color="#2c2c2c"/><stop offset="0.96" stop-color="#0f0f0f"/><stop offset="1"/></linearGradient><linearGradient id="linear-gradient-2" x1="-489.52" y1="-635.3" x2="-493.18" y2="-641.64" xlink:href="#linear-gradient"/><linearGradient id="linear-gradient-3" x1="-502.53" y1="-634.44" x2="-506.24" y2="-640.87" xlink:href="#linear-gradient"/><linearGradient id="linear-gradient-4" x1="-511.96" y1="-643.88" x2="-515.64" y2="-650.26" xlink:href="#linear-gradient"/><linearGradient id="linear-gradient-5" x1="-511.95" y1="-655.93" x2="-515.66" y2="-662.35" xlink:href="#linear-gradient"/><linearGradient id="linear-gradient-6" x1="-486.91" y1="-630.7" x2="-512.61" y2="-675.22" gradientTransform="matrix(1.5, 0, 0, -1.5, 793, -934.9)" xlink:href="#linear-gradient"/></defs><title>14-01</title><circle cx="61.96" cy="29.33" r="5.54" style="fill:url(#linear-gradient)"/><circle cx="49.01" cy="15.29" r="5.54" style="fill:url(#linear-gradient-2)"/><circle cx="29.43" cy="14.11" r="5.54" style="fill:url(#linear-gradient-3)"/><circle cx="15.29" cy="28.24" r="5.54" style="fill:url(#linear-gradient-4)"/><circle cx="15.29" cy="46.34" r="5.54" style="fill:url(#linear-gradient-5)"/><path d="M41.92,58.05a8.51,8.51,0,1,0,8.5,8.51A8.57,8.57,0,0,0,41.92,58.05Zm0,14a5.52,5.52,0,0,1-5.54-5.53A5.8,5.8,0,0,1,41.92,61a5.54,5.54,0,0,1,0,11.07ZM71,17.91A37.35,37.35,0,0,0,42.51,7.63a38,38,0,0,0,2.37,75.93,14.22,14.22,0,0,0,14-14v-3A11.17,11.17,0,0,1,70.1,55.38h3a10,10,0,0,0,10-10A38.38,38.38,0,0,0,71,17.91Zm2,34.6H70A14.23,14.23,0,0,0,56,66.56v3A11.16,11.16,0,0,1,44.79,80.69,33.75,33.75,0,0,1,19.28,69.52a34.65,34.65,0,0,1-9.4-26.4A35.31,35.31,0,0,1,42.71,10.29h2.37a33.49,33.49,0,0,1,24,9.69A35.36,35.36,0,0,1,80.28,45.49,7.52,7.52,0,0,1,73,52.51Z" transform="translate(-6.95 -7.56)" style="fill:url(#linear-gradient-6)"/></svg>