<svg id="Layer_1" data-name="Layer 1" xmlns="http://www.w3.org/2000/svg" xmlns:xlink="http://www.w3.org/1999/xlink" viewBox="0 0 72.83 78.66"><defs><linearGradient id="linear-gradient" x1="-576.11" y1="-575.2" x2="-606.29" y2="-627.48" gradientTransform="matrix(1.5, 0, 0, -1.5, 931.5, -856.9)" gradientUnits="userSpaceOnUse"><stop offset="0" stop-color="#6c6d6d"/><stop offset="0.36" stop-color="#6a6b6b"/><stop offset="0.53" stop-color="#626363"/><stop offset="0.66" stop-color="#565656"/><stop offset="0.78" stop-color="#434444"/><stop offset="0.87" stop-color="#2c2c2c"/><stop offset="0.96" stop-color="#0f0f0f"/><stop offset="1"/></linearGradient><linearGradient id="linear-gradient-2" x1="-573.01" y1="-581.84" x2="-576.66" y2="-588.16" gradientTransform="matrix(1.5, 0, 0, -1.5, 922.97, -862.57)" xlink:href="#linear-gradient"/><linearGradient id="linear-gradient-3" x1="-605.49" y1="-581.84" x2="-609.14" y2="-588.16" gradientTransform="matrix(1.5, 0, 0, -1.5, 922.97, -862.57)" xlink:href="#linear-gradient"/><linearGradient id="linear-gradient-4" x1="-572.75" y1="-613.86" x2="-576.69" y2="-620.69" gradientTransform="matrix(1.5, 0, 0, -1.5, 922.97, -862.57)" xlink:href="#linear-gradient"/><linearGradient id="linear-gradient-5" x1="-605.23" y1="-613.86" x2="-609.17" y2="-620.69" gradientTransform="matrix(1.5, 0, 0, -1.5, 922.97, -862.57)" xlink:href="#linear-gradient"/><linearGradient id="linear-gradient-6" x1="-586.96" y1="-594.4" x2="-594.69" y2="-607.79" xlink:href="#linear-gradient"/></defs><title>3-01</title><path d="M69.31,58.74A9.84,9.84,0,0,0,63,60.91L61.11,59c3.06-3.26,4.64-7.7,5.23-12.35h3.27a5.89,5.89,0,0,0,5.73,4.65,6,6,0,1,0,0-12.06,5.73,5.73,0,0,0-5.73,4.65H66.34a20,20,0,0,0-5.23-12.36L63,29.68a9.76,9.76,0,0,0,6.32,2.18A10.8,10.8,0,0,0,80.08,21.09a10.77,10.77,0,1,0-21.54,0,9.81,9.81,0,0,0,2.17,6.32l-1.88,1.88c-3.26-3.06-7.7-4.65-12.35-5.24V20.79A7.65,7.65,0,0,0,44.8,5.67a7.48,7.48,0,0,0-7.71,7.71,7.65,7.65,0,0,0,6,7.41v3.26a21.39,21.39,0,0,0-13.24,5.73L28,27.91A10.7,10.7,0,0,0,20,10,10.52,10.52,0,0,0,9.33,20.79,10.61,10.61,0,0,0,20.1,31.56a10.32,10.32,0,0,0,5.53-1.68l2.18,2.18a21.31,21.31,0,0,0-4.45,11.56H20.3A5.91,5.91,0,0,0,14.56,39a6,6,0,0,0,0,12.06,5.75,5.75,0,0,0,5.74-4.65h3.26A20.48,20.48,0,0,0,28,57.94l-2.17,2.18a13.41,13.41,0,0,0-5.53-1.68A10.79,10.79,0,0,0,9.52,69.21,10.55,10.55,0,0,0,20.3,80a10.7,10.7,0,0,0,8-17.88l1.88-1.88A20.61,20.61,0,0,0,43.42,66v3.26A7.65,7.65,0,0,0,45.1,84.33a7.48,7.48,0,0,0,7.71-7.71,7.65,7.65,0,0,0-6-7.41V66a20,20,0,0,0,12.35-5.24L61,62.59a9.82,9.82,0,0,0-2.18,6.32A10.8,10.8,0,0,0,69.61,79.69,10.56,10.56,0,0,0,80.38,68.91C80.38,62.79,75.14,58.74,69.31,58.74Zm6.13-16.8A3.06,3.06,0,1,1,72.37,45,3.07,3.07,0,0,1,75.44,41.94ZM14.56,48.06A3.06,3.06,0,1,1,17.63,45,3.07,3.07,0,0,1,14.56,48.06Zm54.75-35A7.66,7.66,0,0,1,77,20.79a7.71,7.71,0,1,1-15.42,0A7.72,7.72,0,0,1,69.31,13.08Zm-28.86,0A4.58,4.58,0,0,1,45.1,8.44a4.4,4.4,0,0,1,4.64,4.64,4.41,4.41,0,0,1-4.64,4.65A4.65,4.65,0,0,1,40.45,13.08ZM12.88,20.49a7.71,7.71,0,0,1,15.42,0,7.48,7.48,0,0,1-7.71,7.71A7.72,7.72,0,0,1,12.88,20.49Zm7.71,56.43a7.66,7.66,0,0,1-7.71-7.71,7.48,7.48,0,0,1,7.71-7.71,7.71,7.71,0,0,1,0,15.42ZM26.72,45A18.14,18.14,0,1,1,63,45a18.14,18.14,0,1,1-36.27,0ZM49.54,76.92a4.57,4.57,0,0,1-4.64,4.64,4.65,4.65,0,1,1,0-9.29A4.64,4.64,0,0,1,49.54,76.92Zm19.77,0a7.66,7.66,0,0,1-7.71-7.71,7.71,7.71,0,1,1,15.42,0A7.66,7.66,0,0,1,69.31,76.92Z" transform="translate(-8.53 -5.67)" style="fill:url(#linear-gradient)"/><circle cx="60.77" cy="14.82" r="4.64" style="fill:url(#linear-gradient-2)"/><circle cx="12.06" cy="14.82" r="4.65" style="fill:url(#linear-gradient-3)"/><circle cx="60.77" cy="63.54" r="4.64" style="fill:url(#linear-gradient-4)"/><circle cx="12.06" cy="63.54" r="4.64" style="fill:url(#linear-gradient-5)"/><path d="M51.22,40.36V37.29H46.58V34.23H43.52v3.06H42.13a3.08,3.08,0,0,0-3.06,3.07v3.06a3.07,3.07,0,0,0,3.06,3.06h6v3.06H39.07v3.07h4.65v3.06h3.06V52.61h1.38a3.07,3.07,0,0,0,3.06-3.06V46.48a3.07,3.07,0,0,0-3.06-3.06h-6V40.36Z" transform="translate(-8.53 -5.67)" style="fill:url(#linear-gradient-6)"/></svg>