<svg id="Layer_1" data-name="Layer 1" xmlns="http://www.w3.org/2000/svg" xmlns:xlink="http://www.w3.org/1999/xlink" viewBox="0 0 73.84 73.84"><defs><linearGradient id="linear-gradient" x1="62.77" y1="766.09" x2="27.23" y2="827.65" gradientTransform="translate(0 -751.9)" gradientUnits="userSpaceOnUse"><stop offset="0" stop-color="#6c6d6d"/><stop offset="0.36" stop-color="#6a6b6b"/><stop offset="0.53" stop-color="#626363"/><stop offset="0.66" stop-color="#565656"/><stop offset="0.78" stop-color="#434444"/><stop offset="0.87" stop-color="#2c2c2c"/><stop offset="0.96" stop-color="#0f0f0f"/><stop offset="1"/></linearGradient><linearGradient id="linear-gradient-2" x1="47.59" y1="791.97" x2="41.9" y2="801.82" gradientTransform="translate(-7.98 -759.88)" xlink:href="#linear-gradient"/><linearGradient id="linear-gradient-3" x1="61.12" y1="768.7" x2="28.54" y2="825.14" xlink:href="#linear-gradient"/></defs><title>9-01</title><path d="M60.24,44.9C69,34.51,75.39,23,70.93,18.87c-4.15-4.16-15.74,2-26,10.69-10.49-8.81-22-15.24-26.23-10.79-4.15,4.16,2,15.74,10.69,26-8.71,10.49-15.14,22-10.69,26.13a5.8,5.8,0,0,0,4,1.39c5.64,0,14.25-5.35,22.47-12.08C53.22,67,61.92,72.32,67.57,72.32a6.58,6.58,0,0,0,4-1.39C75.39,66.77,69,55.29,60.24,44.9ZM69,69c-2,2-10.39-.79-21.87-10.69,1.09-.79,2-2,3.07-2.77l-2-2c-1.09,1.09-2.28,2-3.37,3.07a25.6,25.6,0,0,1-3.07-2.77l-2,2c.8.79,2,1.68,2.78,2.47C31,67.76,22.63,70.83,20.65,69s.79-10.39,10.69-21.87c.79,1.09,2,2,2.77,3.06l2-2c-1.09-1.08-2-2.27-3.07-3.36a31.24,31.24,0,0,1,3.07-3.37l-2-2c-.79,1.09-2,2-2.77,3.07-9.5-11.38-12.67-19.79-10.69-21.77s10.4.79,21.88,10.69c-.79.79-2,1.68-2.77,2.47l2,2c1.09-.79,2-2,3.06-2.77a31.24,31.24,0,0,1,3.37,3.07l2-2c-1.09-.79-2-2-3.07-2.77C58.56,21.94,67,18.87,69,20.75s-.79,10.39-10.69,21.87c-.79-1.09-2-2-2.77-3.06l-2,2c1.09,1.09,2,2.27,3.07,3.36a31.24,31.24,0,0,1-3.07,3.37l2,2c.8-1.09,2-2,2.77-3.07C68.06,58.66,70.83,67.07,69,69Z" transform="translate(-7.98 -7.98)" style="fill:url(#linear-gradient)"/><circle cx="36.82" cy="36.92" r="5.64" style="fill:url(#linear-gradient-2)"/><path d="M81.82,44.9c0-5.84-12.07-9.5-26-10.89C54.4,20,50.74,8,44.9,8S35.4,20.06,34,34C20,35.4,8,39.06,8,44.9s12.08,9.5,26,10.89c1.39,14.05,5.05,26,10.89,26s9.5-12.08,10.89-26C69.75,54.4,81.82,50.74,81.82,44.9Zm-37-34.25c2.77,0,6.73,8.42,8.12,23a70.8,70.8,0,0,0-8.12-.3,73.29,73.29,0,0,0-8.11.3C38.37,19.07,42,10.65,44.8,10.65ZM53.51,44.9A73.32,73.32,0,0,1,53.22,53a73.32,73.32,0,0,1-8.12.29A73.32,73.32,0,0,1,37,53a73.32,73.32,0,0,1-.29-8.12A73.32,73.32,0,0,1,37,36.78a73.32,73.32,0,0,1,8.12-.29,73.32,73.32,0,0,1,8.12.29C53.22,39,53.51,41.83,53.51,44.9Zm-42.66,0c0-2.77,8.42-6.73,23-8.12a70.89,70.89,0,0,0-.3,8.12,73.47,73.47,0,0,0,.3,8.12C19.27,51.63,10.85,47.67,10.85,44.9ZM44.8,78.85c-2.77,0-6.73-8.41-8.11-23a73,73,0,0,0,8.11.29,76,76,0,0,0,8.12-.29C51.53,70.44,47.87,78.85,44.8,78.85ZM56,52.72a73.23,73.23,0,0,0,.29-8.12A75.8,75.8,0,0,0,56,36.49c14.55,1.38,23,5,23,8.11S70.64,51.63,56,52.72Z" transform="translate(-7.98 -7.98)" style="fill:url(#linear-gradient-3)"/></svg>