<svg id="Layer_1" data-name="Layer 1" xmlns="http://www.w3.org/2000/svg" xmlns:xlink="http://www.w3.org/1999/xlink" viewBox="0 0 78.24 77.54"><defs><linearGradient id="linear-gradient" x1="23.76" y1="768.16" x2="17.62" y2="778.8" gradientTransform="translate(0 -751.9)" gradientUnits="userSpaceOnUse"><stop offset="0" stop-color="#6c6d6d"/><stop offset="0.36" stop-color="#6a6b6b"/><stop offset="0.53" stop-color="#626363"/><stop offset="0.66" stop-color="#565656"/><stop offset="0.78" stop-color="#434444"/><stop offset="0.87" stop-color="#2c2c2c"/><stop offset="0.96" stop-color="#0f0f0f"/><stop offset="1"/></linearGradient><linearGradient id="linear-gradient-2" x1="67.33" y1="751.28" x2="18.28" y2="836.24" xlink:href="#linear-gradient"/><linearGradient id="linear-gradient-3" x1="61.64" y1="755.95" x2="28.14" y2="813.98" xlink:href="#linear-gradient"/><linearGradient id="linear-gradient-4" x1="53.22" y1="772.29" x2="38.49" y2="797.8" xlink:href="#linear-gradient"/><linearGradient id="linear-gradient-5" x1="73.3" y1="806.51" x2="70.5" y2="811.35" gradientTransform="translate(-5.88 -758.12)" xlink:href="#linear-gradient"/><linearGradient id="linear-gradient-6" x1="64.15" y1="806.61" x2="61.36" y2="811.45" gradientTransform="translate(-5.88 -758.12)" xlink:href="#linear-gradient"/></defs><title>15</title><path d="M17.93,27.07v-7.6A1.41,1.41,0,0,1,19.41,18H27Z" transform="translate(-5.88 -6.23)" style="fill:url(#linear-gradient)"/><path d="M77.8,6.23H11.71a5.84,5.84,0,0,0-5.83,5.83V57a5.84,5.84,0,0,0,5.83,5.83h24.1V73.4a1.4,1.4,0,0,1-1.48,1.48H28.5a4.56,4.56,0,0,0-4.44,4.45v1.48H16.45v3h57.2v-3H66V79.33a4.56,4.56,0,0,0-4.44-4.45H55.67a1.4,1.4,0,0,1-1.48-1.48V62.93h24.1a5.84,5.84,0,0,0,5.83-5.83V12.16A6.24,6.24,0,0,0,77.8,6.23ZM58.43,77.85h3a1.4,1.4,0,0,1,1.48,1.48v1.48H27V79.33a1.4,1.4,0,0,1,1.48-1.48H58.43Zm-7-2.87H38.78a2.72,2.72,0,0,0,.29-1.48V62.93h12V73.5A2.2,2.2,0,0,0,51.42,75ZM81.05,57a3,3,0,0,1-3,3H12a3,3,0,0,1-3-3V12.16a3,3,0,0,1,3-3H78.09a3,3,0,0,1,3,3V57Z" transform="translate(-5.88 -6.23)" style="fill:url(#linear-gradient-2)"/><path d="M74.83,12.16H15a3,3,0,0,0-3,3V51a3,3,0,0,0,3,3H74.83a3,3,0,0,0,3-3V15A2.88,2.88,0,0,0,74.83,12.16Zm0,39H15V15.32H74.83Z" transform="translate(-5.88 -6.23)" style="fill:url(#linear-gradient-3)"/><path d="M39.07,45H50.93a4.55,4.55,0,0,0,4.44-4.44V35.76a4.45,4.45,0,0,0,3-4.15V25.79a4.56,4.56,0,0,0-4.44-4.45H48.06a4.19,4.19,0,0,0-4.15,3H39.07a4.55,4.55,0,0,0-4.44,4.44V40.6C34.33,43,36.41,45,39.07,45Zm13.44-4.34A1.41,1.41,0,0,1,51,42.09H46.58V36.26h5.83l.1,4.35Zm-4.65-16.5h5.83a1.4,1.4,0,0,1,1.48,1.48v5.83a1.4,1.4,0,0,1-1.48,1.48h-7.6V25.29A2.42,2.42,0,0,1,47.86,24.11ZM37.59,28.55a1.4,1.4,0,0,1,1.48-1.48h4.45V32.9H37.69l-.1-4.35Zm5.83,7.61V42H39.07a1.4,1.4,0,0,1-1.48-1.48V36.06l5.83.1Z" transform="translate(-5.88 -6.23)" style="fill:url(#linear-gradient-4)"/><rect x="63.12" y="49.29" width="5.83" height="2.96" style="fill:url(#linear-gradient-5)"/><rect x="54.03" y="49.29" width="5.83" height="2.96" style="fill:url(#linear-gradient-6)"/></svg>