<svg id="Layer_1" data-name="Layer 1" xmlns="http://www.w3.org/2000/svg" viewBox="0 0 14 18"><title>ABOUT</title><g id="Layer_118" data-name="Layer 118"><path d="M10,4.58A2.26,2.26,0,1,1,7.72,6.84v0A2.26,2.26,0,0,1,10,4.58m0-1.06a3.32,3.32,0,1,0,3.37,3.31h0A3.32,3.32,0,0,0,10,3.52Z" transform="translate(-3 -1)"/><path d="M3,1V19H17V1ZM15.92,2.06V13.23a7.94,7.94,0,0,0-6.08-2.7,7.72,7.72,0,0,0-5.76,2.65V2.06ZM4.08,17.94V15.05h0a6.66,6.66,0,0,1,5.77-3.46,7,7,0,0,1,6.07,3.46h0v2.89Z" transform="translate(-3 -1)"/></g></svg>