<svg id="Layer_48" data-name="Layer 48" xmlns="http://www.w3.org/2000/svg" viewBox="0 0 18 18"><title>post save</title><rect width="18" height="18" style="fill:none"/><path d="M5.39,18.1a.48.48,0,0,1-.2,0,.52.52,0,0,1-.33-.49v-13A2.64,2.64,0,0,1,7.5,1.9h5a2.64,2.64,0,0,1,2.64,2.63v13a.52.52,0,0,1-.33.49.51.51,0,0,1-.57-.12L10,13.71,5.76,17.94A.49.49,0,0,1,5.39,18.1ZM10,12.44a.53.53,0,0,1,.37.15l3.71,3.71V4.53A1.58,1.58,0,0,0,12.5,3h-5A1.58,1.58,0,0,0,5.92,4.53V16.3l3.71-3.71A.53.53,0,0,1,10,12.44Z" transform="translate(-1 -1)" style="fill:#2c2e2f;"/></svg>