<svg id="Layer_1" data-name="Layer 1" xmlns="http://www.w3.org/2000/svg" viewBox="0 0 17.92 18"><title>connection</title>
<path d="M14.34,13a4.5,4.5,0,0,0-4.26-2.88A4.51,4.51,0,0,0,5.73,13l-1.12-.54A6.16,6.16,0,0,1,7.7,9.38,4.5,4.5,0,0,1,7,2.23a4.42,4.42,0,0,1,6.35.24,4.47,4.47,0,0,1-1,6.9,6.24,6.24,0,0,1,3.1,3.08ZM13,5.51a2.83,2.83,0,0,0-2.89-2.93A2.84,2.84,0,0,0,7.11,5.51,2.84,2.84,0,0,0,10,8.43,2.83,2.83,0,0,0,13,5.51ZM5.52,16.34" transform="translate(-1.04 -1)" style="fill:#2c2e2f;fill-opacity:0.8;"/>
<path d="M4.38,19h0A3.37,3.37,0,0,1,2,18,3.25,3.25,0,0,1,1,15.68H1a3.36,3.36,0,0,1,1-2.4,3.32,3.32,0,0,1,2.37-.93h0a3.22,3.22,0,0,1,3.28,3.38,3.28,3.28,0,0,1-.95,2.34A3.33,3.33,0,0,1,4.38,19Zm-2-3.32a1.89,1.89,0,0,0,2,1.95h0a2,2,0,0,0,1.38-.54,2,2,0,0,0,.56-1.38,1.89,1.89,0,0,0-1.93-2A2,2,0,0,0,3,14.26a1.92,1.92,0,0,0-.56,1.42Z" transform="translate(-1.04 -1)" style="fill:#2c2e2f;fill-opacity:0.8;"/>
<path d="M15.66,19h0a3.37,3.37,0,0,1-2.37-1,3.25,3.25,0,0,1-.93-2.36h0a3.22,3.22,0,0,1,3.33-3.33h0A3.23,3.23,0,0,1,19,15.73a3.25,3.25,0,0,1-1,2.34A3.3,3.3,0,0,1,15.66,19Zm-2-3.32a1.9,1.9,0,0,0,2,1.95h0A2,2,0,0,0,17,17.09a1.93,1.93,0,0,0,.55-1.38,1.87,1.87,0,0,0-1.92-2,1.89,1.89,0,0,0-2,2Z" transform="translate(-1.04 -1)" style="fill:#2c2e2f;fill-opacity:0.8;"/>
</svg>