<svg id="Layer_48" data-name="Layer 48" xmlns="http://www.w3.org/2000/svg" viewBox="0 0 18 18">
<rect width="18" height="18" style="fill:none"/>
<path d="M3.94,2.4A.6.6,0,0,0,4,3.6a7.78,7.78,0,0,1,3.5.61A3.2,3.2,0,0,1,8.92,5.59a7.07,7.07,0,0,0-1.66-.72A17.14,17.14,0,0,0,2.6,4.4H2.54A.6.6,0,0,0,2,5v9.8a.6.6,0,0,0,.6.6h0a15.77,15.77,0,0,1,4.32.41,5.65,5.65,0,0,1,2.58,1.54v0a.52.52,0,0,0,.3.2h.32l.15-.06h0a.7.7,0,0,0,.16-.14h0a5.65,5.65,0,0,1,2.6-1.56,15.64,15.64,0,0,1,4.31-.41.6.6,0,0,0,.61-.59h0V5a.6.6,0,0,0-.6-.6,17.14,17.14,0,0,0-4.66.47,7.07,7.07,0,0,0-1.66.72A3.2,3.2,0,0,1,12.5,4.21,7.78,7.78,0,0,1,16,3.6.61.61,0,0,0,16.61,3,.6.6,0,0,0,16,2.4h0A8.75,8.75,0,0,0,12,3.14,4.5,4.5,0,0,0,10,5.1a4.5,4.5,0,0,0-1.95-2A8.75,8.75,0,0,0,4,2.4ZM3.2,5.62A15.42,15.42,0,0,1,6.93,6,5.59,5.59,0,0,1,9.4,7.45v8.26a6.68,6.68,0,0,0-2.14-1.05,15.31,15.31,0,0,0-4.06-.44Zm13.6,0v8.6a15.31,15.31,0,0,0-4.06.44,6.68,6.68,0,0,0-2.14,1.05V7.45A5.57,5.57,0,0,1,13.08,6,15.27,15.27,0,0,1,16.8,5.62Z" transform="translate(-2 -2.4)" style="fill:#2c2e2f;fill-opacity:.8;"/>
</svg>