<svg id="Layer_1" data-name="Layer 1" xmlns="http://www.w3.org/2000/svg" viewBox="0 0 17 14.5"><title>createpage</title><path d="M18,4l-.36-.2L15.17,8.14l.36.2Z" transform="translate(-1 -2.25)" style="fill:#010002"/><path d="M5.05,9.22A3.5,3.5,0,0,1,1.56,5.74,3.48,3.48,0,1,1,5.05,9.22Zm0-6a2.54,2.54,0,1,0,0,5.07A2.46,2.46,0,0,0,6.9,7.46,2.53,2.53,0,0,0,5.2,3.22Z" transform="translate(-1 -2.25)" style="fill:#010002"/><path d="M4.79,16.75a11.08,11.08,0,0,1-3.13-.46.84.84,0,0,1-.58-.77L1,12.85a.81.81,0,0,1,0-.22H1C1.29,10.41,2.56,9,4.49,8.87h.63a6.26,6.26,0,0,1,4.07,1.24l2.46,1.37,1.8-3A1.54,1.54,0,0,1,15.52,8h0A1.52,1.52,0,0,1,16,10.1l-2.55,4.18a1.54,1.54,0,0,1-1.29.71,1.35,1.35,0,0,1-.71-.19L8.69,13.48v2a.84.84,0,0,1-.6.8A13.2,13.2,0,0,1,4.79,16.75ZM2,15.4a10.49,10.49,0,0,0,5.72,0V12L12,14a.77.77,0,0,0,.26.07.58.58,0,0,0,.48-.28L15.25,9.6a.57.57,0,0,0-1-.58L12,12.74l-3.3-1.83A5.39,5.39,0,0,0,5.13,9.82H4.55a3,3,0,0,0-2.61,2.92h0v.08Z" transform="translate(-1 -2.25)" style="fill:#010002"/></svg>