<svg xmlns="http://www.w3.org/2000/svg" viewBox="0 0 16 17"><defs><style>.cls-1{fill:none;}.cls-2{fill:#2c2e2f;}</style></defs><title>createpage</title><g id="Layer_33" data-name="Layer 33"><path class="cls-1" d="M11,7.17,8.52,5.06,3.94,10.51l2.52,2.11Z" transform="translate(-1.5 -1)"/><polygon class="cls-1" points="1.73 10.35 1.14 13.61 4.25 12.46 1.73 10.35"/><path class="cls-1" d="M13.15,4.65c.36-.43.34-.42-.07-.77L11.4,2.48c-.4-.36-.43-.36-.77.06L9.22,4.22l2.52,2.11Z" transform="translate(-1.5 -1)"/><path class="cls-2" d="M2.35,15.8l4.17-1.55,7.82-9.31a1,1,0,0,0-.13-1.54L11.69,1.29a1,1,0,0,0-1.55.13L2.32,10.73,1.51,15.1C1.44,15.7,1.77,16,2.35,15.8ZM10.63,2.54c.34-.42.37-.42.77-.06l1.68,1.4c.41.35.43.34.07.77L11.74,6.33,9.22,4.22ZM8.52,5.06,11,7.17,6.46,12.62,3.94,10.51ZM3.23,11.35l2.52,2.11L2.64,14.61Z" transform="translate(-1.5 -1)"/><path class="cls-2" d="M17,17H2a.52.52,0,0,0-.52.53A.52.52,0,0,0,2,18H17a.52.52,0,0,0,.52-.52A.52.52,0,0,0,17,17Z" transform="translate(-1.5 -1)"/></g></svg>