<svg id="Layer_50" data-name="Layer 50" xmlns="http://www.w3.org/2000/svg" viewBox="0 0 18 18">
	<title>CREATE PAGE</title>
<path d="M10,19h8a.91.91,0,0,0,1-1V15.32c0-2.74,0-5.49,0-8.24a.93.93,0,0,0-.29-.69L13.64,1.3a1,1,0,0,0-.73-.3h-11A.85.85,0,0,0,1,1.92V18.05A.87.87,0,0,0,2,19Z" transform="translate(-1 -1)" style="fill:#fff"/>
<path d="M10,19H2A.87.87,0,0,1,1,18.05V1.92A.85.85,0,0,1,1.92,1h11a1,1,0,0,1,.73.3L18.7,6.39a.93.93,0,0,1,.29.69c0,2.75,0,5.5,0,8.24V18a.91.91,0,0,1-1,1ZM2.73,2.73V17.26H17.26V7.87H13.05a.88.88,0,0,1-1-1V2.73Z" transform="translate(-1 -1)" style="fill:#2c2e2f;fill-opacirty:0.8;"/>
<path d="M12.17,2.5V6.81a.9.9,0,0,0,1,1H17.5V17.5H2.5V2.5" transform="translate(-1 -1)" style="fill:#fff"/>
<path d="M8.94,11.06V8.61A.6.6,0,0,0,8.33,8h0a.61.61,0,0,0-.61.61v2.45H5.28a.6.6,0,0,0-.61.61h0a.61.61,0,0,0,.61.61H7.72v2.44a.61.61,0,0,0,.61.61h0a.6.6,0,0,0,.61-.61V12.28h2.45a.61.61,0,0,0,.61-.61h0a.6.6,0,0,0-.61-.61Z" transform="translate(-1 -1)" style="fill:#2c2e2f;fill-opacirty:0.8;"/></svg>