<svg id="Layer_28" data-name="Layer 28" xmlns="http://www.w3.org/2000/svg" viewBox="0 0 19 19"><title>followed page</title><path d="M12.79,4.93H15L11.68,1.61V3.82A1.11,1.11,0,0,0,12.79,4.93Z" style="fill:none"/><path d="M15,14V6H12.79a2.21,2.21,0,0,1-2.22-2.21s0-.89,0-2.21H3.9a1.1,1.1,0,0,0-1.11,1.1h0V16A1.11,1.11,0,0,0,3.9,17.1H13a2.37,2.37,0,0,1-.16-.84A2.24,2.24,0,0,1,15,14ZM5.57,9.35h6.67a.56.56,0,0,1,0,1.11H5.57a.56.56,0,1,1,0-1.11Zm6.67,4.43H5.57a.56.56,0,1,1,0-1.11h6.67a.56.56,0,0,1,0,1.11Z" style="fill:none"/><path d="M12.24,12.67H5.57a.56.56,0,1,0,0,1.11h6.67a.56.56,0,0,0,0-1.11Z" style="fill:#2c2e2f"/><path d="M5.57,10.46h6.67a.56.56,0,0,0,0-1.11H5.57a.56.56,0,1,0,0,1.11Z" style="fill:#2c2e2f"/><path d="M16.13,14.28V4.93L11.68.5H3.9A2.21,2.21,0,0,0,1.68,2.71V16A2.2,2.2,0,0,0,3.9,18.2H14a2.33,2.33,0,0,0,1.11.3,2.24,2.24,0,0,0,1-4.22ZM11.68,1.61,15,4.93H12.79a1.11,1.11,0,0,1-1.11-1.11ZM13,17.1H3.9A1.11,1.11,0,0,1,2.79,16V2.71h0A1.1,1.1,0,0,1,3.9,1.61h6.65c0,1.32,0,2.21,0,2.21A2.21,2.21,0,0,0,12.79,6H15v8a2.24,2.24,0,0,0-2.18,2.24A2.37,2.37,0,0,0,13,17.1Zm3.4-1.52-1.5,1.65a.24.24,0,0,1-.16.07h0a.24.24,0,0,1-.16-.07l-.81-.82a.22.22,0,0,1,.32-.31l.64.66,1.34-1.47a.22.22,0,1,1,.33.29Z" style="fill:#2c2e2f"/></svg>