<svg id="Layer_1" data-name="Layer 1" xmlns="http://www.w3.org/2000/svg" viewBox="0 0 32 32"><title>FOLLOWED_PAGE-01</title><path d="M9.3,26.06a5.14,5.14,0,1,1,5.14-5.14A5.15,5.15,0,0,1,9.3,26.06Zm0-9.56a4.42,4.42,0,1,0,4.42,4.42A4.42,4.42,0,0,0,9.3,16.5Zm0,0" style="stroke:#000;stroke-miterlimit:10;stroke-width:0.32041554894782986px"/><path d="M14.08,12a.36.36,0,0,1-.36-.35,2.73,2.73,0,0,0-5.3-.93A.35.35,0,0,1,8,11a.36.36,0,0,1-.22-.46,3.45,3.45,0,0,1,6.69,1.16.36.36,0,0,1-.36.36Zm0,0" style="stroke:#000;stroke-miterlimit:10;stroke-width:0.32041554894782986px"/><path d="M14.08,21.28a.36.36,0,0,1-.36-.36V11.69a.36.36,0,0,1,.72,0v9.23a.36.36,0,0,1-.36.36Zm0,0" style="stroke:#000;stroke-miterlimit:10;stroke-width:0.32041554894782986px"/><path d="M4.77,19.76a.27.27,0,0,1-.13,0,.35.35,0,0,1-.21-.46L7.7,10.66a.37.37,0,0,1,.47-.2.36.36,0,0,1,.21.46L5.1,19.53a.34.34,0,0,1-.33.23Zm0,0" style="stroke:#000;stroke-miterlimit:10;stroke-width:0.32041554894782986px"/><path d="M13.31,8.08A.35.35,0,0,1,13,7.72a1.07,1.07,0,0,0-1.07-1.06,1.06,1.06,0,0,0-1,.7.36.36,0,0,1-.68-.24,1.78,1.78,0,0,1,3.45.6.36.36,0,0,1-.36.36Zm0,0" style="stroke:#000;stroke-miterlimit:10;stroke-width:0.32041554894782986px"/><path d="M13.31,9.62A.35.35,0,0,1,13,9.26V7.72a.35.35,0,0,1,.35-.36.36.36,0,0,1,.36.36V9.26a.36.36,0,0,1-.36.36Zm0,0" style="stroke:#000;stroke-miterlimit:10;stroke-width:0.32041554894782986px"/><path d="M10.05,8.94l-.12,0a.35.35,0,0,1-.21-.46l.48-1.27a.36.36,0,1,1,.67.26l-.48,1.27a.37.37,0,0,1-.34.23Zm0,0" style="stroke:#000;stroke-miterlimit:10;stroke-width:0.32041554894782986px"/><path d="M22.7,26.06a5.14,5.14,0,1,1,5.14-5.14,5.15,5.15,0,0,1-5.14,5.14Zm0-9.56a4.42,4.42,0,1,0,4.43,4.42A4.42,4.42,0,0,0,22.7,16.5Zm0,0" style="stroke:#000;stroke-miterlimit:10;stroke-width:0.32041554894782986px"/><path d="M17.92,12a.36.36,0,0,1-.36-.35,3.45,3.45,0,0,1,6.69-1.17A.36.36,0,0,1,24,11a.35.35,0,0,1-.45-.22,2.73,2.73,0,0,0-5.3.93.36.36,0,0,1-.36.35Zm0,0" style="stroke:#000;stroke-miterlimit:10;stroke-width:0.32041554894782986px"/><path d="M17.92,21.28a.36.36,0,0,1-.36-.36V11.69a.36.36,0,1,1,.72,0v9.23a.36.36,0,0,1-.36.36Zm0,0" style="stroke:#000;stroke-miterlimit:10;stroke-width:0.32041554894782986px"/><path d="M27.23,19.76a.34.34,0,0,1-.33-.23l-3.27-8.61a.35.35,0,0,1,.21-.46.36.36,0,0,1,.46.2l3.27,8.62a.35.35,0,0,1-.21.46.27.27,0,0,1-.13,0Zm0,0" style="stroke:#000;stroke-miterlimit:10;stroke-width:0.32041554894782986px"/><path d="M18.69,8.08a.36.36,0,0,1-.36-.36,1.78,1.78,0,0,1,3.45-.6.36.36,0,0,1-.22.46.34.34,0,0,1-.45-.22,1.06,1.06,0,0,0-2.06.36.36.36,0,0,1-.36.36Zm0,0" style="stroke:#000;stroke-miterlimit:10;stroke-width:0.32041554894782986px"/><path d="M18.69,9.62a.36.36,0,0,1-.36-.36V7.72a.36.36,0,0,1,.72,0V9.26a.36.36,0,0,1-.36.36Zm0,0" style="stroke:#000;stroke-miterlimit:10;stroke-width:0.32041554894782986px"/><path d="M22,8.94a.37.37,0,0,1-.34-.23l-.48-1.27a.36.36,0,1,1,.67-.26l.48,1.27a.37.37,0,0,1-.2.47l-.13,0Zm0,0" style="stroke:#000;stroke-miterlimit:10;stroke-width:0.32041554894782986px"/><path d="M17.92,17.1H14.08a.36.36,0,1,1,0-.71h3.48v-3H14.08a.36.36,0,0,1-.36-.35.37.37,0,0,1,.36-.37h3.84a.37.37,0,0,1,.36.37v3.71a.36.36,0,0,1-.36.35Zm0,0" style="stroke:#000;stroke-miterlimit:10;stroke-width:0.32041554894782986px"/></svg>