<svg id="Layer_1" data-name="Layer 1" xmlns="http://www.w3.org/2000/svg" viewBox="0 0 17 14.61"><title>my_page</title><path d="M16.11,2.91H2.89v8.72H16.11ZM5.8,5.06h4.78a.48.48,0,0,1,.48.47.49.49,0,0,1-.48.48H5.8a.48.48,0,0,1-.47-.48A.47.47,0,0,1,5.8,5.06Zm7.4,3.59H5.8a.48.48,0,0,1,0-1h7.4a.48.48,0,0,1,0,1Z" transform="translate(-1 -2.2)" style="fill:none"/><polygon points="4.8 12.22 12 12.22 11.86 10.63 4.94 10.63 4.8 12.22" style="fill:none"/><path d="M17.7,11.63h-.88v-9a.47.47,0,0,0-.47-.46H2.65a.47.47,0,0,0-.47.46v9H1.3a.3.3,0,0,0-.3.3v.57a.31.31,0,0,0,.3.31H5.23l-.3,3.6a.34.34,0,0,0,.32.38h0a.35.35,0,0,0,.35-.32l.11-1.36h7.32l.12,1.36a.35.35,0,0,0,.35.32h0a.34.34,0,0,0,.32-.38l-.31-3.6H17.7a.31.31,0,0,0,.3-.31v-.57A.3.3,0,0,0,17.7,11.63ZM2.89,2.91H16.11v8.72H2.89ZM13,14.42H5.8l.14-1.6h6.92Z" transform="translate(-1 -2.2)" style="fill:#2c2e2f;fill-opacity:.8;"/><path d="M13.2,7.7H5.8a.48.48,0,0,0,0,1h7.4a.48.48,0,0,0,0-1Z" transform="translate(-1 -2.2)" style="fill:#2c2e2f;fill-opacity:.8;"/><path d="M5.8,6h4.78a.49.49,0,0,0,.48-.48.48.48,0,0,0-.48-.47H5.8a.47.47,0,0,0-.47.47A.48.48,0,0,0,5.8,6Z" transform="translate(-1 -2.2) " style="fill:#2c2e2f;fill-opacity:.8;"/></svg>