<svg id="Layer_1" data-name="Layer 1" xmlns="http://www.w3.org/2000/svg" viewBox="0 0 32 32"><title>MY_PAGE</title><path d="M25.33,6.69v13H6.67v-13H25.33m.34-1H6.33a.66.66,0,0,0-.66.66V20.69H26.33V6.35a.66.66,0,0,0-.66-.66Z"/><path d="M27.57,19H4.43a.43.43,0,0,0-.43.43v.81a.43.43,0,0,0,.43.43H27.57a.43.43,0,0,0,.43-.43v-.81a.43.43,0,0,0-.43-.43Z"/><line x1="21.69" y1="25.81" x2="21.19" y2="19.97" style="fill:none;stroke:#000;stroke-linecap:round;stroke-miterlimit:10;stroke-width:1.0000467728812963px"/><line x1="10.04" y1="25.81" x2="10.53" y2="19.97" style="fill:none;stroke:#000;stroke-linecap:round;stroke-miterlimit:10;stroke-width:1.0000467728812963px"/><line x1="10.07" y1="23.44" x2="22.03" y2="23.44" style="fill:none;stroke:#000;stroke-miterlimit:10;stroke-width:1.0000467728812963px"/><line x1="10.78" y1="14.13" x2="21.22" y2="14.13" style="fill:none;stroke:#000;stroke-linecap:round;stroke-miterlimit:10;stroke-width:1.3333956971750618px"/><line x1="10.78" y1="10.4" x2="17.53" y2="10.4" style="fill:none;stroke:#000;stroke-linecap:round;stroke-miterlimit:10;stroke-width:1.3333956971750618px"/></svg>