<svg xmlns="http://www.w3.org/2000/svg" viewBox="0 0 18 18"><title>review</title><g id="Layer_91" data-name="Layer 91"><path d="M10,2.12a7.88,7.88,0,1,1,0,15.75,7.66,7.66,0,0,1-3.4-.77l-.34-.16L5.89,17l-3.62.71L3,14.05,3,13.69l-.15-.33A7.88,7.88,0,0,1,10,2.12M10,1A9,9,0,0,0,1.86,13.84L1.07,18c-.19.73.06,1,.49,1a2.23,2.23,0,0,0,.34,0l4.21-.82A9,9,0,1,0,10,1Z" transform="translate(-1 -1)"/><path d="M10,7.73l.52,1.1.24.51.56.09,1.25.19-.94,1-.37.38.08.53.21,1.29-1-.57L10,11.93l-.51.28-1,.57.21-1.29L8.74,11l-.37-.38-.94-1,1.25-.19.56-.09.24-.51L10,7.73m0-2.49L8.52,8.38l-3.28.5,2.37,2.44-.56,3.44,3-1.62L13,14.76l-.56-3.44,2.37-2.44-3.28-.5L10,5.24Z" transform="translate(-1 -1)"/></g></svg>