<svg xmlns="http://www.w3.org/2000/svg" width="15.583" height="15.559" viewBox="0 0 15.583 15.559">
    <g id="prefix__noun_Share_1823560" transform="translate(-15.744 173.348)">
        <path id="prefix__Path_314" d="M374.3 172.619a2.342 2.342 0 0 1 .064-.546l-6.191-3.155a2.342 2.342 0 1 1-.1-3.024l6.289-3.052a2.347 2.347 0 1 1 .39.851l-6.2 3.008a2.348 2.348 0 0 1 .045 1.382l6.164 3.141a2.361 2.361 0 0 1 .812-.69 2.313 2.313 0 0 1 1.071-.258 2.342 2.342 0 1 1-2.342 2.342zm.937 0a1.405 1.405 0 1 0 1.405-1.405 1.405 1.405 0 0 0-1.403 1.405zm-10.306-5.153a1.405 1.405 0 1 0 1.405-1.405 1.405 1.405 0 0 0-1.403 1.405zm10.306-5.153a1.405 1.405 0 1 0 1.405-1.405 1.405 1.405 0 0 0-1.403 1.405z" data-name="Path 314" transform="translate(-348 -333)" style="fill:#978787;stroke:#978787;stroke-width:.5px"/>
    </g>
</svg>
