<svg id="Layer_387" data-name="Layer 387" xmlns="http://www.w3.org/2000/svg" viewBox="0 0 150 150"><defs><style>.cls-1{fill-rule:evenodd;}</style></defs><title>1</title><path class="cls-1" d="M18,87.83l1.48-4.34q4.39-12.92,8.79-25.81a.55.55,0,0,1,.62-.46H45.6a1.25,1.25,0,0,1,1,.45A6.87,6.87,0,0,1,48,60.48c.14.58.07.64-.52.64-6.39,0-9.78,0-16.18,0a.55.55,0,0,0-.63.44Q25.45,77,20.16,92.52c-.22.64-.37.68-.84.17a10.51,10.51,0,0,1-1.74-2.59q-2.34-4.91-4.64-9.83a.66.66,0,0,0-.71-.44c-1.57,0-3.13,0-4.69,0a1.22,1.22,0,0,1-1-.43A6.63,6.63,0,0,1,5.08,76.5C5,76,5,75.92,5.55,75.92c1.87,0,3.73,0,5.6,0a1.38,1.38,0,0,1,1.17.57,8.63,8.63,0,0,1,1,1.78l4.32,9.12A.84.84,0,0,0,18,87.83Z"/><path d="M44.86,88.63a30.84,30.84,0,0,0,.26,4.3H42.19l-.3-2.26h-.11a6.62,6.62,0,0,1-5.49,2.67,5.12,5.12,0,0,1-5.49-5.16c0-4.34,3.86-6.71,10.8-6.68v-.37c0-1.48-.41-4.19-4.08-4.15a8.72,8.72,0,0,0-4.72,1.33l-.74-2.19A11.74,11.74,0,0,1,38,74.57c5.53,0,6.86,3.74,6.86,7.34Zm-3.19-4.86c-3.56-.08-7.6.55-7.6,4a2.86,2.86,0,0,0,3,3.12,4.52,4.52,0,0,0,4.41-3,3.36,3.36,0,0,0,.15-1Z"/><path d="M110.45,88.4a29.38,29.38,0,0,0,.26,4.3h-2.93l-.3-2.26h-.11a6.64,6.64,0,0,1-5.49,2.67A5.11,5.11,0,0,1,96.39,88c0-4.34,3.86-6.71,10.79-6.67v-.37c0-1.49-.4-4.2-4.08-4.16a8.68,8.68,0,0,0-4.71,1.33l-.74-2.18a11.58,11.58,0,0,1,5.93-1.56c5.53,0,6.87,3.74,6.87,7.34Zm-3.19-4.86c-3.56-.07-7.61.56-7.61,4a2.86,2.86,0,0,0,3,3.12,4.53,4.53,0,0,0,4.42-3,3.34,3.34,0,0,0,.15-1Z"/><path d="M70.74,71.28a30.84,30.84,0,0,0,.26,4.3H68.07l-.29-2.26h-.12A6.62,6.62,0,0,1,62.17,76a5.12,5.12,0,0,1-5.49-5.16c0-4.34,3.86-6.71,10.8-6.67v-.37c0-1.49-.41-4.2-4.08-4.16A8.72,8.72,0,0,0,58.68,61l-.74-2.18a11.64,11.64,0,0,1,5.94-1.56c5.53,0,6.86,3.74,6.86,7.34Zm-3.19-4.86c-3.56-.07-7.6.56-7.6,4a2.86,2.86,0,0,0,3,3.12,4.52,4.52,0,0,0,4.41-3,3.06,3.06,0,0,0,.15-1Z"/><path d="M74.74,74.57H77v7.84h0a4.66,4.66,0,0,1,4.27-2.28c3.11,0,5.28,2.59,5.28,6.37,0,4.5-2.84,6.73-5.64,6.73a4.49,4.49,0,0,1-4.19-2.36h0l-.13,2.07h-2c.08-.85.11-2.12.11-3.23ZM77,87.92a4.41,4.41,0,0,0,.08.83,3.53,3.53,0,0,0,3.42,2.66c2.4,0,3.8-1.94,3.8-4.81,0-2.53-1.29-4.68-3.73-4.68a3.6,3.6,0,0,0-3.44,2.79,3.54,3.54,0,0,0-.13,1Z"/><path d="M111.22,69.88h.94v3.23h0a1.91,1.91,0,0,1,1.76-.93c1.28,0,2.17,1.06,2.17,2.62,0,1.86-1.17,2.78-2.32,2.78a1.84,1.84,0,0,1-1.73-1h0l-.06.86h-.81c0-.35,0-.88,0-1.34Zm.94,5.51a1.87,1.87,0,0,0,0,.34,1.45,1.45,0,0,0,1.41,1.1c1,0,1.56-.8,1.56-2s-.53-1.93-1.53-1.93a1.49,1.49,0,0,0-1.42,1.15,1.62,1.62,0,0,0,0,.4Z"/><path d="M78.28,67.45,68.51,84.07l-1-.6,9.78-16.62Z"/><path d="M144.73,88.4a29.38,29.38,0,0,0,.26,4.3h-2.93l-.3-2.26h-.11a6.64,6.64,0,0,1-5.49,2.67A5.11,5.11,0,0,1,130.67,88c0-4.34,3.85-6.71,10.79-6.67v-.37c0-1.49-.41-4.2-4.08-4.16a8.66,8.66,0,0,0-4.71,1.33l-.74-2.18a11.58,11.58,0,0,1,5.93-1.56c5.53,0,6.87,3.74,6.87,7.34Zm-3.19-4.86c-3.57-.07-7.61.56-7.61,4a2.86,2.86,0,0,0,3,3.12,4.53,4.53,0,0,0,4.42-3,3.34,3.34,0,0,0,.15-1Z"/><path d="M124.93,69.88h.94v3.23h0a1.92,1.92,0,0,1,1.76-.93c1.28,0,2.18,1.06,2.18,2.62,0,1.86-1.18,2.78-2.33,2.78a1.85,1.85,0,0,1-1.73-1h0l0,.86h-.82c0-.35.05-.88.05-1.34Zm.94,5.51a1.87,1.87,0,0,0,0,.34,1.45,1.45,0,0,0,1.41,1.1c1,0,1.57-.8,1.57-2s-.54-1.93-1.54-1.93a1.49,1.49,0,0,0-1.42,1.15,1.62,1.62,0,0,0,0,.4Z"/></svg>