<svg id="Layer_396" data-name="Layer 396" xmlns="http://www.w3.org/2000/svg" viewBox="0 0 150 150"><title>10</title><path d="M58.17,77.21c-.27-4.92-.58-11-.58-15.41h-.11c-1.27,4.13-2.7,8.69-4.5,13.56l-6.3,17.31h-3.5l-5.82-17c-1.7-5-3.07-9.64-4.08-13.88h-.11c-.1,4.45-.37,10.43-.68,15.78l-1,15.31H27.14L29.63,57.2H35.5l6.09,17.26c1.49,4.39,2.65,8.36,3.6,12.07h.11c1-3.6,2.22-7.57,3.81-12.07L55.47,57.2h5.87l2.23,35.69H59Z"/><path d="M71.15,92.89V67.26H75.8V92.89Z"/><path d="M82.9,88.12a13.15,13.15,0,0,0,6.2,1.8c3.33,0,4.92-1.64,4.92-3.81s-1.32-3.39-4.71-4.66c-4.66-1.7-6.83-4.24-6.83-7.26,0-4.13,3.39-7.52,8.84-7.52a11.9,11.9,0,0,1,6.25,1.59L96.46,71.6a10.54,10.54,0,0,0-5.25-1.48c-2.75,0-4.23,1.58-4.23,3.49,0,2.12,1.48,3.07,4.82,4.4,4.39,1.64,6.72,3.86,6.72,7.67,0,4.56-3.55,7.74-9.53,7.74a14.61,14.61,0,0,1-7.2-1.81Z"/><path d="M122.78,91.93a18,18,0,0,1-7.36,1.49c-7.73,0-12.76-5.25-12.76-13.08s5.4-13.67,13.76-13.67a14.62,14.62,0,0,1,6.46,1.38l-1.06,3.55a11.43,11.43,0,0,0-5.4-1.22c-5.87,0-9,4.4-9,9.69,0,5.93,3.81,9.59,8.89,9.59A13.36,13.36,0,0,0,122,88.44Z"/></svg>