<svg id="Layer_397" data-name="Layer 397" xmlns="http://www.w3.org/2000/svg" viewBox="0 0 150 150"><title>11</title><path d="M27.26,73.12H17.87v8.75H28.38v2.62H14.7V60.23H27.84v2.63h-10v7.67h9.39Z"/><path d="M33.82,67.07l2.48,3.74c.65,1,1.19,1.84,1.76,2.85h.11c.58-1,1.15-1.94,1.77-2.88l2.41-3.71H45.8l-5.94,8.42,6.09,9h-3.6l-2.56-3.92c-.68-1-1.26-2-1.87-3h-.07c-.58,1-1.19,2-1.84,3l-2.52,3.92H30l6.19-8.89-5.9-8.53Z"/><path d="M61.28,80.32a29.11,29.11,0,0,0,.25,4.17H58.69L58.4,82.3h-.11A6.41,6.41,0,0,1,53,84.89a5,5,0,0,1-5.33-5c0-4.22,3.74-6.52,10.47-6.48v-.36c0-1.44-.39-4.07-4-4a8.41,8.41,0,0,0-4.58,1.29l-.72-2.12a11.3,11.3,0,0,1,5.76-1.51c5.37,0,6.66,3.63,6.66,7.12ZM58.19,75.6c-3.46-.07-7.38.54-7.38,3.93a2.78,2.78,0,0,0,2.95,3A4.39,4.39,0,0,0,58,79.63a3.15,3.15,0,0,0,.15-1Z"/><path d="M66.36,71.79c0-1.84-.07-3.28-.14-4.72H69l.14,2.81h.11a6,6,0,0,1,5.51-3.2,5.13,5.13,0,0,1,4.89,3.49h.07a6.86,6.86,0,0,1,2-2.27,5.87,5.87,0,0,1,3.82-1.22c2.34,0,5.76,1.51,5.76,7.55V84.49h-3.1V74.63c0-3.38-1.26-5.36-3.78-5.36a4.17,4.17,0,0,0-3.78,2.84,5.74,5.74,0,0,0-.25,1.58v10.8H77.27V74c0-2.77-1.23-4.75-3.64-4.75A4.7,4.7,0,0,0,69.46,74V84.49h-3.1Z"/><path d="M96.38,72.76c0-2.23,0-4-.14-5.69h2.84l.18,3h.07a6.72,6.72,0,0,1,6.16-3.38c4.25,0,7.41,3.56,7.41,8.85,0,6.26-3.85,9.36-7.91,9.36a6.08,6.08,0,0,1-5.37-2.74h-.07v9.47H96.38Zm3.17,4.64a5.57,5.57,0,0,0,.14,1.3,4.86,4.86,0,0,0,4.72,3.71c3.35,0,5.29-2.74,5.29-6.74,0-3.49-1.8-6.47-5.15-6.47a5,5,0,0,0-4.82,3.92,7.81,7.81,0,0,0-.18,1.26Z"/><path d="M116.87,58.94H120V84.49h-3.16Z"/><path d="M127.16,76.36c.07,4.25,2.77,6,5.94,6a11.36,11.36,0,0,0,4.82-.9l.58,2.27a14.29,14.29,0,0,1-5.83,1.11c-5.33,0-8.57-3.56-8.57-8.78s3.13-9.39,8.21-9.39c5.69,0,7.16,5,7.16,8.2a7.12,7.12,0,0,1-.11,1.48Zm9.25-2.27c0-2-.83-5.15-4.35-5.15-3.24,0-4.61,3-4.86,5.15Z"/></svg>