<svg id="Layer_398" data-name="Layer 398" xmlns="http://www.w3.org/2000/svg" viewBox="0 0 150 150"><title>12</title><path d="M63.42,77.63h-31l-.05.07c.09.08.19.15.28.24Q38.67,84,44.74,90.06c.21.21.25.32,0,.54-.91.88-1.8,1.78-2.69,2.68-.17.18-.26.22-.46,0q-8.85-8.86-17.72-17.72c-.22-.21-.13-.3,0-.46L41.54,57.5c.08-.09.22-.14.22-.29h.14a1.64,1.64,0,0,1,.4.29l2.43,2.43c.37.37.38.49,0,.85L32.67,72.85l-.16.15H62.8a.9.9,0,0,1,.62.1Z"/><path d="M111.79,75.12Q103,66.33,94.2,57.53c-.08-.08-.22-.13-.22-.29h-.14a2,2,0,0,0-.4.29L91,60c-.37.38-.38.49,0,.85l8.85,8.85h-1c-7.67,0-27,.1-27,.1v4.53h32.88l1.14,1-1.08,1.06h-5.9c-7.67,0-27,.1-27,.1V81h28.29L91,90c-.21.21-.24.32,0,.54.91.88,1.8,1.78,2.68,2.68.17.17.26.22.46,0q8.84-8.85,17.69-17.68C112,75.37,112,75.28,111.79,75.12Z"/><path d="M126.26,59.84a2.72,2.72,0,0,1-2.9,2.77,2.69,2.69,0,0,1-2.9-2.72,2.75,2.75,0,0,1,2.9-2.77,2.71,2.71,0,0,1,2.9,2.68Zm0,15.35a2.72,2.72,0,0,1-2.9,2.76,2.69,2.69,0,0,1-2.9-2.72,2.74,2.74,0,0,1,2.9-2.76,2.7,2.7,0,0,1,2.9,2.67Zm0,15.34a2.72,2.72,0,0,1-2.9,2.76,2.69,2.69,0,0,1-2.9-2.72,2.74,2.74,0,0,1,2.9-2.76,2.7,2.7,0,0,1,2.9,2.67Z"/></svg>