<svg id="Layer_388" data-name="Layer 388" xmlns="http://www.w3.org/2000/svg" viewBox="0 0 150 150"><defs><style>.cls-1{fill-rule:evenodd;}</style></defs><title>2</title><path class="cls-1" d="M66.18,57.23q.25,3.23.52,6.43c0,.51,0,.5-.45.51-.24,0-.36,0-.4-.32a7.34,7.34,0,0,0-.64-2.34,3.86,3.86,0,0,0-3.3-2.29,12.74,12.74,0,0,0-1.38-.06H45.28c-.05.11,0,.16.09.21q5.7,6.9,11.4,13.8a.31.31,0,0,1,0,.49L44,89.29l-.17.21c.08.1.17,0,.26,0q8.39,0,16.79,0a9.69,9.69,0,0,0,3.36-.61,4.13,4.13,0,0,0,2.27-2,9.11,9.11,0,0,0,.79-2.21c.05-.21.11-.29.36-.22.55.18.56.16.47.73L67,93.12c0,.24-.12.3-.36.3H39.82c-.24,0-.31,0-.32-.3A1.5,1.5,0,0,1,39.9,92q6.72-8.31,13.42-16.63c.15-.19.17-.3,0-.5Q46.5,66.52,39.66,58.18c-.25-.3-.13-.63-.13-1Z"/><path d="M104.84,62.23V82.58c0,5.91.45,8.91,1,10.78H99.53c-.67-1.12-1.2-4.34-1.2-10.18v-21H86.51c-.3,9.58-2.47,25.14-5.09,31.13H75.21c2.69-7.11,4.79-21.48,5-31.13a29.34,29.34,0,0,0-7.34.67L72,59c1.65-1.12,4.57-1.87,10.4-1.87h28.14l-.68,5.09Z"/></svg>