<svg id="Layer_389" data-name="Layer 389" xmlns="http://www.w3.org/2000/svg" viewBox="0 0 150 150"><defs><style>.cls-1{fill-rule:evenodd;}</style></defs><title>3</title><path class="cls-1" d="M21.16,76.19a63.82,63.82,0,0,1,.29-7.44,21.78,21.78,0,0,1,1.88-7.34,7.43,7.43,0,0,1,2.81-3.29,5.44,5.44,0,0,1,4.57-.74,4,4,0,0,1,1.9,1.25,1.84,1.84,0,0,1,.39.64.85.85,0,0,1-.34,1,1.19,1.19,0,0,1-1.77-.22c-.23-.27-.42-.56-.66-.82a2,2,0,0,0-3.05.07A6.92,6.92,0,0,0,25.91,62a30.06,30.06,0,0,0-1,5.72c-.28,2.81-.3,5.63-.3,8.45a42.32,42.32,0,0,1-.79,8.91,15.64,15.64,0,0,1-1.88,5,6.59,6.59,0,0,1-4.36,3.21A4.48,4.48,0,0,1,13.22,92a1.82,1.82,0,0,1-.51-.89.77.77,0,0,1,.08-.52,1.3,1.3,0,0,1,1.9-.31,7.36,7.36,0,0,1,.62.74,2,2,0,0,0,3.53-.1,10.08,10.08,0,0,0,1.32-3.4A39,39,0,0,0,21,81.19C21.12,79.53,21.18,77.86,21.16,76.19Z"/><path d="M62.16,57.17V86.5c0,2.16.05,4.61.2,6.27h-4l-.2-4.21h-.1a8.9,8.9,0,0,1-8.22,4.76c-5.87,0-10.43-5-10.43-12.33-.05-8.13,5-13,10.88-13,3.76,0,6.27,1.75,7.32,3.66h.1V57.17ZM57.75,78.38a8.27,8.27,0,0,0-.2-1.91,6.5,6.5,0,0,0-6.37-5.06c-4.56,0-7.27,4-7.27,9.32,0,5,2.46,9,7.17,9a6.68,6.68,0,0,0,6.47-5.31,7.12,7.12,0,0,0,.2-1.86Z"/><path d="M78.36,57.32h4.47v36H78.36Z"/><path d="M92.47,64.63a2.66,2.66,0,0,1-2.69-2.74,2.77,2.77,0,1,1,2.74,2.74ZM90.34,93.34V68.79H94.8V93.34Z"/><path d="M102.21,75.43c0-2.59-.1-4.61-.2-6.64h3.91l.2,3.95h.15A8.49,8.49,0,0,1,114,68.23a7.24,7.24,0,0,1,6.9,4.92H121a9.63,9.63,0,0,1,2.79-3.2,8.25,8.25,0,0,1,5.37-1.72c3.3,0,8.12,2.13,8.12,10.65V93.34H133V79.44c0-4.77-1.78-7.56-5.33-7.56a5.88,5.88,0,0,0-5.33,4,8,8,0,0,0-.35,2.23V93.34h-4.36V78.58c0-3.91-1.73-6.7-5.13-6.7-2.74,0-4.82,2.23-5.53,4.47a6.23,6.23,0,0,0-.35,2.18V93.34h-4.37Z"/></svg>