<svg id="Layer_391" data-name="Layer 391" xmlns="http://www.w3.org/2000/svg" viewBox="0 0 150 150"><title>5</title><path d="M80.89,69.21a25.4,25.4,0,0,0,.22,3.67H78.62L78.36,71h-.09a5.66,5.66,0,0,1-4.68,2.28,4.36,4.36,0,0,1-4.68-4.4c0-3.7,3.29-5.72,9.2-5.69v-.31c0-1.27-.35-3.58-3.48-3.55a7.33,7.33,0,0,0-4,1.14L70,58.56A9.93,9.93,0,0,1,75,57.23c4.71,0,5.85,3.19,5.85,6.26Zm-2.72-4.14c-3-.06-6.48.47-6.48,3.45a2.43,2.43,0,0,0,2.59,2.65,3.87,3.87,0,0,0,3.77-2.56,3,3,0,0,0,.12-.88Z"/><path d="M70,77.33h2v6.72h0a4,4,0,0,1,3.66-2c2.66,0,4.53,2.22,4.53,5.46,0,3.86-2.44,5.77-4.84,5.77a3.84,3.84,0,0,1-3.59-2h0l-.11,1.78H69.87c.07-.74.09-1.82.09-2.78Zm2,11.45a4.07,4.07,0,0,0,.07.71,3,3,0,0,0,2.93,2.29c2.06,0,3.26-1.67,3.26-4.13,0-2.18-1.11-4-3.19-4A3.09,3.09,0,0,0,72,86a2.89,2.89,0,0,0-.12.82Z"/><path d="M65.2,76H83.64l0,0-1.68,1.68s0,0,0,.07l.37.37s0,0,.06,0l2.46-2.45s0,0,0-.07l-2.44-2.43s0,0,0,0h0l0,0-.34.33s0,.07,0,.12l1.67,1.67,0,0H65.28s-.06,0-.08,0Z"/></svg>