<svg id="Layer_392" data-name="Layer 392" xmlns="http://www.w3.org/2000/svg" viewBox="0 0 150 150"><title>6</title><path d="M91,60.24a33.79,33.79,0,0,1-1.27,3.2c-1.48,3.58-3,7.17-4.62,10.67-.56,1.16-1.14,2.31-1.71,3.47a.66.66,0,0,0-.1.53c.68,2.29,1.19,4.64,2,6.89a10.7,10.7,0,0,0,1.61,3,2.52,2.52,0,0,0,3.51.7,7.7,7.7,0,0,0,1.77-1.45c.27-.27.8-.83.8-.83l2.76,2.33s-2.75,3.12-4.67,4a4.77,4.77,0,0,1-5.86-1.28,19.39,19.39,0,0,1-3.44-6.08c-.34-.87-.63-1.77-.94-2.65,0-.11,0-.29-.18-.31s-.17.16-.23.26a24.55,24.55,0,0,1-7,7.48,12.07,12.07,0,0,1-6.23,2,10.33,10.33,0,0,1-7.22-2.65,15.63,15.63,0,0,1-5.08-9,25.26,25.26,0,0,1-.6-5.62A21.27,21.27,0,0,1,58,63.31a14,14,0,0,1,5.68-5.07,9.14,9.14,0,0,1,10.13,1.25,18.82,18.82,0,0,1,4.74,5.86,39.68,39.68,0,0,1,2.93,6.84c0,.14,0,.31.22.44.28-.63.56-1.25.83-1.87,1.64-3.7,3.15-7.46,4.71-11.19.11-.26.36-.77.36-.77M58,76.12a19,19,0,0,0,.53,4.4,11.44,11.44,0,0,0,3.45,6.19,6.43,6.43,0,0,0,4.21,1.69,9,9,0,0,0,5.33-1.61C74.81,84.57,77.06,81.42,79,78a1.2,1.2,0,0,0,.09-1,41.21,41.21,0,0,0-4.53-10.2,14.54,14.54,0,0,0-4.28-4.45,6.14,6.14,0,0,0-7.51.46,10.38,10.38,0,0,0-2.5,3.09A20.47,20.47,0,0,0,58,76.12Z"/></svg>