<svg id="Layer_393" data-name="Layer 393" xmlns="http://www.w3.org/2000/svg" viewBox="0 0 150 150"><title>7</title><path d="M23,74.61H34V68.05H23v-11H16.41v11h-11v6.56h11V85.36H23Zm0,0"/><path d="M32.91,89H6.47v4.41H32.91m-9.33.33"/><path d="M58.8,66.76l-18.11.06-4.36-9.68-4.78,0L48,93.31h3.6l16.3-36.2H63.26L58.8,66.76Zm-9,20.12L42.63,71,57,70.9l-7.2,16Z"/><path d="M74.43,73.64c-4.48-1-6.76-3.84-6.76-7.19,0-4.63,4.56-9.32,13.74-9.32q6.61,0,10.46,2.56l-1.35,4.19a18.29,18.29,0,0,0-8.61-2.2c-4.84,0-8,2.07-8,5.2,0,3.49,4.2,5,9.54,5h4.2v4.41H83.33c-6.19,0-10.82,1.71-10.82,5.92,0,4,4.27,6.19,9.33,6.19A22,22,0,0,0,92,85.75L93.08,90c-2.63,1.78-7.76,3.13-12.6,3.13C73.58,93.15,66,90.44,66,82.68c0-4.2,3.49-7.83,8.47-8.75Z"/><polygon points="94.98 74.31 94.98 71.36 118.21 61.75 118.21 65.06 99.09 72.81 99.09 72.91 118.21 80.62 118.21 83.97 94.98 74.31"/><path d="M120.73,77.56V74.82h24.08v2.74Zm0-4.82V70h24.08v2.74Z"/></svg>