<svg id="Layer_394" data-name="Layer 394" xmlns="http://www.w3.org/2000/svg" viewBox="0 0 150 150"><title>8</title><path d="M51.85,57.08v5H41.56V88.3H51.85v5H36.35V57.08Z"/><path d="M63.23,79.16a25.4,25.4,0,0,0,.22,3.67H61L60.7,80.9h-.1a5.66,5.66,0,0,1-4.68,2.28,4.37,4.37,0,0,1-4.68-4.4c0-3.7,3.29-5.72,9.2-5.69v-.32c0-1.26-.35-3.57-3.48-3.54a7.33,7.33,0,0,0-4,1.14l-.63-1.86a9.9,9.9,0,0,1,5.06-1.33c4.71,0,5.85,3.19,5.85,6.26ZM60.51,75c-3-.06-6.49.47-6.49,3.45a2.44,2.44,0,0,0,2.6,2.65,3.85,3.85,0,0,0,3.76-2.56,3,3,0,0,0,.13-.89Z"/><path d="M78.85,57.08V93.27H63.35v-5H73.64V62.05H63.35v-5Z"/><path d="M105.42,89.16a26.91,26.91,0,0,0,.22,3.67h-2.49l-.26-1.93h-.09a5.66,5.66,0,0,1-4.68,2.28,4.37,4.37,0,0,1-4.68-4.4c0-3.7,3.29-5.72,9.2-5.69v-.32c0-1.26-.35-3.57-3.48-3.54a7.33,7.33,0,0,0-4,1.14l-.64-1.86a9.93,9.93,0,0,1,5.06-1.33c4.71,0,5.85,3.19,5.85,6.26ZM102.7,85c-3-.06-6.48.47-6.48,3.45a2.43,2.43,0,0,0,2.59,2.65,3.87,3.87,0,0,0,3.77-2.56,3,3,0,0,0,.12-.89Z"/><path d="M85.42,68.84h24.9l0,0-.1.09-4.71,4.7c-.08.08-.09.12,0,.21.35.34.69.69,1,1,.06.07.1.08.18,0q3.42-3.43,6.87-6.86c.08-.09,0-.12,0-.18q-3.41-3.42-6.83-6.83s-.08-.06-.08-.12h-.06a.88.88,0,0,0-.15.12l-.94.94c-.15.14-.15.19,0,.33L110.21,67l.07.06H85.65c-.08,0-.16,0-.23,0Z"/></svg>