<svg id="Layer_395" data-name="Layer 395" xmlns="http://www.w3.org/2000/svg" viewBox="0 0 150 150"><title>9</title><path d="M60.26,57.19v5H50V88.4H60.26v5H44.76V57.19Z"/><path d="M105.26,57.19V93.37H89.76v-5h10.29V62.15H89.76v-5Z"/><path d="M71,70a15.09,15.09,0,0,0,.15,2.34h-1.6l-.16-1.23h-.06a3.62,3.62,0,0,1-3,1.45,2.78,2.78,0,0,1-3-2.8c0-2.37,2.1-3.66,5.88-3.64V66A2,2,0,0,0,67,63.7a4.69,4.69,0,0,0-2.57.73l-.4-1.2a6.38,6.38,0,0,1,3.23-.84c3,0,3.73,2,3.73,4Zm-1.73-2.65c-1.94,0-4.14.31-4.14,2.2a1.56,1.56,0,0,0,1.65,1.7,2.48,2.48,0,0,0,2.41-1.64,1.81,1.81,0,0,0,.08-.56Z"/><path d="M63.41,74.3h1.78v6.11h0a3.63,3.63,0,0,1,3.33-1.77c2.42,0,4.12,2,4.12,5,0,3.52-2.22,5.25-4.4,5.25A3.49,3.49,0,0,1,65,87h0l-.1,1.62H63.33c.06-.67.08-1.66.08-2.52Zm1.78,10.41a3.42,3.42,0,0,0,.06.65,2.76,2.76,0,0,0,2.67,2.08c1.87,0,3-1.52,3-3.76,0-2-1-3.65-2.9-3.65a2.81,2.81,0,0,0-2.69,2.18,2.78,2.78,0,0,0-.1.75Z"/><path d="M87.29,72a7,7,0,0,1-2.81.56,4.64,4.64,0,0,1-4.86-5,5,5,0,0,1,5.24-5.2,5.69,5.69,0,0,1,2.47.52l-.41,1.35a4.37,4.37,0,0,0-2.06-.46,3.68,3.68,0,0,0-.06,7.35A4.94,4.94,0,0,0,87,70.68Z"/><path d="M87.25,74.3V86.11c0,.86,0,1.85.08,2.52h-1.6l-.08-1.7h0a3.57,3.57,0,0,1-3.31,1.92c-2.36,0-4.2-2-4.2-5,0-3.28,2-5.25,4.38-5.25a3.23,3.23,0,0,1,3,1.47h0V74.3Zm-1.78,8.54a3.3,3.3,0,0,0-.08-.77,2.61,2.61,0,0,0-2.56-2C81,80,79.9,81.64,79.9,83.78s1,3.64,2.88,3.64a2.69,2.69,0,0,0,2.61-2.14,2.88,2.88,0,0,0,.08-.75Z"/></svg>