<svg id="Layer_1" data-name="Layer 1" xmlns="http://www.w3.org/2000/svg" xmlns:xlink="http://www.w3.org/1999/xlink" viewBox="0 0 300 134"><defs><clipPath id="clip-path"><path d="M300-.3V132.45c0,.86-1.48,1.55-3.3,1.55H3.3c-1.82,0-3.3-.69-3.3-1.55V.69Z" style="fill:none"/></clipPath></defs><title>Untitled-1</title><g style="opacity:0.8"><g style="clip-path:url(#clip-path)"><path d="M91.3,90.54l.39,2.83a60.91,60.91,0,0,1,17.89-.5l-1.23-3A62,62,0,0,0,91.3,90.54Z" style="fill:#babcbe"/><path d="M207.4,77.56a52.2,52.2,0,0,0-18.05,10.23c-1.27,1.11-2.53,2.32-3.75,3.5a59.25,59.25,0,0,1-6.4,5.6,35.72,35.72,0,0,1-14.51,5.86c-13.81,2.57-24.94-2.53-32.3-5.9l-2.12-1a71.58,71.58,0,0,0-21.92-6l1.23,3a70.58,70.58,0,0,1,20.51,5.77l2.11,1c7,3.2,17.31,7.93,30.11,6.41.91-.11,1.84-.25,2.77-.43a36.76,36.76,0,0,0,14.9-6,59.35,59.35,0,0,0,6.54-5.73c1.21-1.16,2.46-2.36,3.71-3.45a51,51,0,0,1,17-9.79l.91-3.28Z" style="fill:#d1d1d1"/><path d="M228.86,72.55,221.8,74a128.66,128.66,0,0,0-13.63,3.32l-.91,3.28.66-.23a120.06,120.06,0,0,1,14.31-3.55l7-1.43Z" style="fill:#babcbe"/><path d="M22.17,119.12c-2.58-.44-5.15.75-7.36,2.12s-4.37,3-6.92,3.6a45.2,45.2,0,0,1-5.09.48,15.87,15.87,0,0,0-9.7,4.8l-.11.12.27.12a22.6,22.6,0,0,0,10,1.21c9.37-.66,18.16-4.8,23.64-10.78l-.14,0C25.2,120.28,23.78,119.4,22.17,119.12Z" style="fill:#c0c2c4"/><path d="M-9.19,66.08C-3.67,62.81,1,57.66,7.31,56.52c1.64-.3,3.33-.31,5-.6,5-.87,9.31-4.39,11.88-8.73.36-.63.7-1.27,1-1.92-.34-.4-.68-.8-1-1.2A70.28,70.28,0,0,0,.32,26.65c-5.27-2.35-7.93-2.32-12.56.8a29.85,29.85,0,0,0-9.11,9.74c-2.94,5.05-4.36,10.55-5.54,16A136.74,136.74,0,0,0-30,75.73a35,35,0,0,1,3.49-2.09C-21,70.71-14.62,69.3-9.19,66.08Z" style="fill:#c0c2c4"/><path d="M39.72,73.15A72.92,72.92,0,0,0,25.18,45.27c-.31.65-.65,1.29-1,1.92-2.57,4.34-6.87,7.86-11.88,8.73-1.65.29-3.34.3-5,.6-6.32,1.14-11,6.29-16.5,9.56S-21,70.71-26.56,73.64A35,35,0,0,0-30,75.73a84,84,0,0,0,.52,14.61,62.11,62.11,0,0,0,15.76,34.71A20.55,20.55,0,0,0-7,130.24l.11-.12a15.87,15.87,0,0,1,9.7-4.8,45.2,45.2,0,0,0,5.09-.48c2.55-.59,4.7-2.22,6.92-3.6s4.78-2.56,7.36-2.12c1.61.28,3,1.16,4.59,1.63l.14,0a23.31,23.31,0,0,0,3.92-5.74c3.61-7.6,2.4-15.86,1.62-24.06a7,7,0,0,1,4.11-7,6.88,6.88,0,0,0,3.29-3.08C41,78.46,40.43,75.72,39.72,73.15Z" style="fill:#d7dadd"/><path d="M82.78,122.41c-2.31-3.09-6.25-4.51-10-5.39s-7.76-1.41-11.11-3.36c-.39-.22-.76-.47-1.13-.73.78,4.3,1.47,8.76.13,12.91-1,3.19-3.18,5.89-5.28,8.52-4.15,5.17-12.2,12.31-18.23,15.13-14.48,6.77-43.18,1.43-48.09,2-9.52,1.18-10.87-2-20.44-2.66-1.7-.12-3.68-.15-4.79,1.13a5.36,5.36,0,0,0-1,2.49c-.62,3.11.29,9.09-.11,12.24-.31,2.39-.54,4.93.46,7.13,1.13,2.5,8.94,9.27,11.62,10A102.94,102.94,0,0,0,3,184.64c10.66-.43,37.62-2.14,47-7.15,11.11-6,24.68-19.18,31.09-29.94a86.51,86.51,0,0,0,6.42-13.29,16.62,16.62,0,0,1-1.4-3.22C85.18,128.09,84.65,124.9,82.78,122.41Z" style="fill:#d7dadd"/><path d="M93.11,98.29a8.7,8.7,0,0,0-8.49-1.49c-9.28,3.2-17.14,8.89-24.21,15.63l.09.5c.37.26.74.51,1.13.73,3.35,2,7.32,2.48,11.11,3.36s7.73,2.3,10,5.39c1.87,2.49,2.4,5.68,3.35,8.63a16.62,16.62,0,0,0,1.4,3.22A86.78,86.78,0,0,0,93.11,98.29Z" style="fill:#c0c2c4"/><path d="M102.41,78.64a1.9,1.9,0,0,0-.47-1,2.08,2.08,0,0,0-1.16-.41c-1-.13-1.91-.25-2.87-.36l.21,1a13.55,13.55,0,0,1,.43,4.24,4.54,4.54,0,0,1-2.13,3.54c-2,1.07-4.4,0-6.39-1.06a7,7,0,0,1-9.69,0,7.67,7.67,0,0,1-9.17,0,1,1,0,0,0-.75-.32,1.06,1.06,0,0,0-.5.31,5.8,5.8,0,0,1-7.61-.1,12.21,12.21,0,0,1-2.47-4.32,51.66,51.66,0,0,0-2.38-4.91h-.29l-9.66.13c0,.11,0,.22,0,.33a92.49,92.49,0,0,1,1.37,36.34,14.73,14.73,0,0,1-.69,2.86c-.17.43-.37.86-.57,1.29q9.16-.9,18.33-1.9c.83-2.37,1.72-4.73,2.68-7.06a14.06,14.06,0,0,1,2-3.66,1.19,1.19,0,0,1,.8-.52c.58,0,.86.68,1,1.24a32,32,0,0,1,.33,9.27q14.25-1.59,28.47-3.4a2.91,2.91,0,0,0,1.45-.45,2.79,2.79,0,0,0,.82-1.71A61.5,61.5,0,0,0,102.41,78.64Z" style="fill:#ea8686"/><path d="M62.31,84.52a5.8,5.8,0,0,0,7.61.1,1.06,1.06,0,0,1,.5-.31,1,1,0,0,1,.75.32,7.67,7.67,0,0,0,9.17,0,7,7,0,0,0,9.69,0c2,1.06,4.41,2.13,6.39,1.06a4.54,4.54,0,0,0,2.13-3.54,13.55,13.55,0,0,0-.43-4.24l-.21-1-2.41-.27a330.47,330.47,0,0,0-38-1.36,51.66,51.66,0,0,1,2.38,4.91A12.21,12.21,0,0,0,62.31,84.52Z" style="fill:#999"/><path d="M72.31,104.34c-.1-.56-.38-1.26-1-1.24a1.19,1.19,0,0,0-.8.52,14.06,14.06,0,0,0-2,3.66c-1,2.33-1.85,4.69-2.68,7.06l6.74-.73A32,32,0,0,0,72.31,104.34Z" style="fill:#005a84"/><path d="M48.83,112.09a92.49,92.49,0,0,0-1.37-36.34,136.7,136.7,0,0,0,.1,40.49h0c.2-.43.4-.86.57-1.29A14.73,14.73,0,0,0,48.83,112.09Z" style="fill:#e86060"/><path d="M90.53,81a5.27,5.27,0,0,0,1.62,1.88,4.62,4.62,0,0,0,2.14.54,5.34,5.34,0,0,0,3.61-.78,3.87,3.87,0,0,0,1.37-3.29A7.05,7.05,0,0,0,98,75.94a9.2,9.2,0,0,0-7.26-4.26,4.42,4.42,0,0,0-2.79.81C85.1,74.68,89.27,79,90.53,81Z" style="fill:#d7dadd"/><path d="M80.76,81a5.27,5.27,0,0,0,1.62,1.88,4.65,4.65,0,0,0,2.14.54,5.34,5.34,0,0,0,3.61-.78,3.87,3.87,0,0,0,1.37-3.29,7.05,7.05,0,0,0-1.31-3.42,9.2,9.2,0,0,0-7.26-4.26,4.4,4.4,0,0,0-2.78.81C75.33,74.68,79.5,79,80.76,81Z" style="fill:#d7dadd"/><path d="M71,81a5.37,5.37,0,0,0,1.62,1.88,4.65,4.65,0,0,0,2.14.54,5.34,5.34,0,0,0,3.61-.78,3.87,3.87,0,0,0,1.37-3.29,7.05,7.05,0,0,0-1.31-3.42,9.2,9.2,0,0,0-7.26-4.26,4.4,4.4,0,0,0-2.78.81C65.57,74.68,69.74,79,71,81Z" style="fill:#d7dadd"/><path d="M61.22,81a5.37,5.37,0,0,0,1.62,1.88,4.65,4.65,0,0,0,2.14.54,5.38,5.38,0,0,0,3.62-.78A3.86,3.86,0,0,0,70,79.36a7,7,0,0,0-1.31-3.42,9.2,9.2,0,0,0-7.26-4.26,4.4,4.4,0,0,0-2.78.81C55.8,74.68,60,79,61.22,81Z" style="fill:#d7dadd"/><path d="M64.9,99.58c2.23-2.3,5.51-4.19,8.56-3.19s4.56,4.72,3.5,7.67c-.33.91-.86,1.75-1.17,2.67s-.37,1.68-.61,2.5a8.85,8.85,0,0,1-4.73,5.29,14,14,0,0,1-7.18,1.18C54.29,115,61.71,102.88,64.9,99.58Z" style="fill:#d7dadd"/><path d="M18.72,96.73l-5.27-2.06a9.06,9.06,0,0,0-3.3-.82c-2.7,0-4.82,2.53-5.48,5.12a11.39,11.39,0,0,0,3,10.51,14.92,14.92,0,0,0,10.4,4.25A11.29,11.29,0,0,0,26,111.09,10.12,10.12,0,0,0,29,104.9a17.37,17.37,0,0,0-.11-4.61c-.28-2-.19-2.05-1.91-2.06A21.06,21.06,0,0,1,18.72,96.73Z" style="fill:#ab2a40"/><path d="M22.56,70.13A3.33,3.33,0,0,0,20.29,67a3,3,0,0,0-3.36,1.69c-1.14,2.18-.84,5.68,1.93,6.45,2.08.57,3.57-1.18,3.66-3.06a6.31,6.31,0,0,0,0-.75A4.63,4.63,0,0,0,22.56,70.13Z" style="fill:#231f20"/><path d="M-30.93,51.31c3.94-3.67,9.24-6.76,14.54-5.63,2.92.63,5.62,2.52,8.61,2.31A10.48,10.48,0,0,0-4.3,47,11.72,11.72,0,0,0-.82,44.71a22.62,22.62,0,0,0,2.74-4,20.75,20.75,0,0,1,6.8-6.51,7.5,7.5,0,0,1,3-1.14,15.17,15.17,0,0,1,4,.6c4.66.87,9.51-1.28,12.82-4.63a21.51,21.51,0,0,0,2.21-2.66,16.54,16.54,0,0,0,.38-4.75c-.33-3.89-2.44-7.29-4.87-10.1-3.46-4-7.92-7.3-13-7.78S2.59,6.3.81,11.59c-.28.81-.54,1.76-1.25,2.15-.88.48-1.87-.19-2.67-.78-9.45-6.9-23.3-3.76-31.72,5.1-6.93,7.29-13.77,22.46-12,33.18.69,4.19,5.89,5.31,10.09,5.95C-34.8,55.26-32.94,53.19-30.93,51.31Z" style="fill:#777"/><path d="M28.56,29.08c-3.31,3.35-8.16,5.5-12.82,4.63a15.17,15.17,0,0,0-4-.6,7.5,7.5,0,0,0-3,1.14,20.75,20.75,0,0,0-6.8,6.51,22.62,22.62,0,0,1-2.74,4A11.72,11.72,0,0,1-4.3,47a10.48,10.48,0,0,1-3.48,1c-3,.21-5.69-1.68-8.61-2.31-5.3-1.13-10.6,2-14.54,5.63-2,1.88-3.87,3.95-5.83,5.88,1.1.17,2.14.3,3,.45A60.82,60.82,0,0,0-15,58c9-1.24,17.79-4.48,26.37-8,4.27-1.74,8.66-3.66,11.92-7.18,3.07-3.32,4.86-7.77,6.31-12.2a37.3,37.3,0,0,0,1.16-4.17A21.51,21.51,0,0,1,28.56,29.08Z" style="fill:#515151"/><path d="M309.79,110.65c-2.33-.43-4.72.12-7.08.41-3.29.41-6.88.24-9.57-1.68-2-1.43-3.39-3.75-5.68-4.69A15.61,15.61,0,0,0,283,104a13.66,13.66,0,0,1-8.24-3.49c1,3.61,2.37,7.24,4.91,10.06,3.57,4,9,5.83,14.2,7.25a33.69,33.69,0,0,0,10.76,1.58A21.89,21.89,0,0,0,317.3,114l-1.19-.59C314.06,112.37,312.07,111.06,309.79,110.65Z" style="fill:#c0c2c4"/><path d="M277.18,67.33c1.58-2.1,3.2-4.36,5.64-5.37,1.47-.61,3.12-.71,4.58-1.35,2.62-1.17,4.3-4,7.05-4.83,2.54-.79,5.32.31,7.93-.19a26.59,26.59,0,0,0,3.92-1.41,5.23,5.23,0,0,1,4.07-.07c1.65.84,2.23,2.83,3,4.49a25.63,25.63,0,0,0,4.14,5.66L320.86,68a33.36,33.36,0,0,0,3.37,3.46,23.49,23.49,0,0,0,5.68,3.41,47.29,47.29,0,0,0-1.09-8.13,61.9,61.9,0,0,0-7.45-17.45,38.11,38.11,0,0,0-7.18-9.37c-6.85-6.09-18.41-7.8-25.94-2-4.05,3.09-6.79,7.5-9,12a72.23,72.23,0,0,0-6.6,22.58A39.25,39.25,0,0,0,277.18,67.33Z" style="fill:#c0c2c4"/><path d="M324.23,71.47A33.36,33.36,0,0,1,320.86,68l-3.32-3.75a25.63,25.63,0,0,1-4.14-5.66c-.8-1.66-1.38-3.65-3-4.49a5.23,5.23,0,0,0-4.07.07,26.59,26.59,0,0,1-3.92,1.41c-2.61.5-5.39-.6-7.93.19-2.75.85-4.43,3.66-7.05,4.83-1.46.64-3.11.74-4.58,1.35-2.44,1-4.06,3.27-5.64,5.37a39.25,39.25,0,0,1-4.5,5.15,72.1,72.1,0,0,0,2,27.85s0,.1,0,.15A13.66,13.66,0,0,0,283,104a15.61,15.61,0,0,1,4.48.72c2.29.94,3.66,3.26,5.68,4.69,2.69,1.92,6.28,2.09,9.57,1.68,2.36-.29,4.75-.84,7.08-.41s4.27,1.72,6.32,2.8l1.19.59a27.53,27.53,0,0,0,5-5.52c4-5.85,5.76-12.83,6.78-19.76a71.76,71.76,0,0,0,.83-13.88A23.49,23.49,0,0,1,324.23,71.47Z" style="fill:#d7dadd"/><path d="M226.36,105.77c2.07-2.77,5.6-4,9-4.83s6.95-1.26,10-3c.35-.2.68-.42,1-.65-.7,3.84-1.32,7.85-.12,11.56.92,2.87,2.85,5.29,4.74,7.65,3.71,4.63,10.93,11,16.34,13.56,13,6.06,38.71,1.28,43.11,1.82,8.53,1.06,9.74-1.78,18.32-2.38,1.52-.11,3.29-.13,4.29,1a4.7,4.7,0,0,1,.87,2.22c.55,2.79-.26,8.15.1,11,.28,2.14.48,4.42-.41,6.39-1,2.24-8,8.31-10.42,8.93a91.86,91.86,0,0,1-25.28,2.52c-9.56-.38-33.73-1.91-42.14-6.41-10-5.33-22.13-17.19-27.87-26.83a77.88,77.88,0,0,1-5.76-11.92,15,15,0,0,0,1.26-2.88C224.21,110.86,224.68,108,226.36,105.77Z" style="fill:#d7dadd"/><path d="M217.1,84.15a7.82,7.82,0,0,1,7.61-1.34c8.32,2.87,15.37,8,21.7,14,0,.15,0,.3-.08.45-.33.23-.66.45-1,.65-3,1.75-6.57,2.23-10,3s-6.93,2.06-9,4.83c-1.68,2.23-2.15,5.09-3,7.74a15,15,0,0,1-1.26,2.88A77.8,77.8,0,0,1,217.1,84.15Z" style="fill:#c0c2c4"/><path d="M208.76,66.54a1.84,1.84,0,0,1,.42-.85,1.8,1.8,0,0,1,1-.37c.86-.12,1.72-.22,2.58-.32l-.19.88a12.24,12.24,0,0,0-.39,3.8,4.09,4.09,0,0,0,1.92,3.17c1.77,1,3.94,0,5.72-.95a6.25,6.25,0,0,0,8.69,0,6.87,6.87,0,0,0,8.21,0,1,1,0,0,1,.68-.29,1,1,0,0,1,.44.28,5.22,5.22,0,0,0,6.83-.09,11,11,0,0,0,2.21-3.88,46.83,46.83,0,0,1,2.14-4.39h.26l8.66.11c0,.1,0,.2,0,.3a82.72,82.72,0,0,0-1.23,32.57,13.37,13.37,0,0,0,.62,2.57c.15.38.33.77.51,1.15q-8.22-.81-16.43-1.7c-.75-2.13-1.54-4.24-2.4-6.33a12.39,12.39,0,0,0-1.77-3.28,1,1,0,0,0-.71-.47c-.52,0-.77.61-.87,1.11a28.6,28.6,0,0,0-.29,8.31q-12.78-1.42-25.52-3a2.63,2.63,0,0,1-1.3-.41,2.52,2.52,0,0,1-.74-1.53A55.07,55.07,0,0,1,208.76,66.54Z" style="fill:#ea8686"/><path d="M244.71,71.81a5.22,5.22,0,0,1-6.83.09,1,1,0,0,0-.44-.28,1,1,0,0,0-.68.29,6.87,6.87,0,0,1-8.21,0,6.25,6.25,0,0,1-8.69,0c-1.78.95-4,1.91-5.72.95a4.09,4.09,0,0,1-1.92-3.17,12.24,12.24,0,0,1,.39-3.8l.19-.88q1.08-.14,2.16-.24a293.73,293.73,0,0,1,34.1-1.22,46.83,46.83,0,0,0-2.14,4.39A11,11,0,0,1,244.71,71.81Z" style="fill:#999"/><path d="M235.74,89.57c.1-.5.35-1.12.87-1.11a1,1,0,0,1,.71.47,12.39,12.39,0,0,1,1.77,3.28c.86,2.09,1.65,4.2,2.4,6.33-2-.22-4-.43-6-.66A28.6,28.6,0,0,1,235.74,89.57Z" style="fill:#005a84"/><path d="M256.68,96.52A82.72,82.72,0,0,1,257.91,64a122.62,122.62,0,0,1-.1,36.29h0c-.18-.38-.37-.77-.51-1.15A12.67,12.67,0,0,1,256.68,96.52Z" style="fill:#e86060"/><path d="M219.41,68.66A4.75,4.75,0,0,1,218,70.35a4.2,4.2,0,0,1-1.92.48,4.83,4.83,0,0,1-3.24-.7,3.47,3.47,0,0,1-1.22-2.95,6.25,6.25,0,0,1,1.18-3.07,8.26,8.26,0,0,1,6.5-3.82,4.08,4.08,0,0,1,2.5.73C224.28,63,220.54,66.84,219.41,68.66Z" style="fill:#d7dadd"/><path d="M228.17,68.66a4.75,4.75,0,0,1-1.45,1.69,4.23,4.23,0,0,1-1.92.48,4.82,4.82,0,0,1-3.24-.7,3.44,3.44,0,0,1-1.22-2.95,6.24,6.24,0,0,1,1.17-3.07,8.27,8.27,0,0,1,6.5-3.82,4,4,0,0,1,2.5.73C233,63,229.3,66.84,228.17,68.66Z" style="fill:#d7dadd"/><path d="M236.93,68.66a4.78,4.78,0,0,1-1.46,1.69,4.16,4.16,0,0,1-1.91.48,4.82,4.82,0,0,1-3.24-.7,3.47,3.47,0,0,1-1.23-2.95,6.35,6.35,0,0,1,1.18-3.07,8.27,8.27,0,0,1,6.5-3.82,4,4,0,0,1,2.5.73C241.79,63,238.05,66.84,236.93,68.66Z" style="fill:#d7dadd"/><path d="M245.68,68.66a4.75,4.75,0,0,1-1.45,1.69,4.2,4.2,0,0,1-1.92.48,4.83,4.83,0,0,1-3.24-.7,3.47,3.47,0,0,1-1.22-2.95A6.25,6.25,0,0,1,239,64.11a8.26,8.26,0,0,1,6.5-3.82A4.08,4.08,0,0,1,248,61C250.55,63,246.81,66.84,245.68,68.66Z" style="fill:#d7dadd"/><path d="M243.3,89.2c-1.78-1.84-4.4-3.35-6.85-2.55a4.87,4.87,0,0,0-2.79,6.13c.26.74.69,1.41.93,2.15s.3,1.33.49,2a7.08,7.08,0,0,0,3.79,4.24,11.26,11.26,0,0,0,5.74.94C251.79,101.57,245.86,91.84,243.3,89.2Z" style="fill:#d7dadd"/><path d="M272.07,67.82a4.46,4.46,0,0,0-2.72-2.73,3.65,3.65,0,0,0-3.53,1.41,9.42,9.42,0,0,0-1.58,3.62,18.13,18.13,0,0,0-.66,8.32c.58,2.75,2.48,5.38,5.23,6.11a3.24,3.24,0,0,0,2.13,0c1.5-.66,1.74-2.63,1.72-4.25C272.61,76.28,273.74,71.52,272.07,67.82Z" style="fill:#d7dadd"/><path d="M292.81,72.56c-.43-1.38-1.71-2.6-3.25-1.83a4.65,4.65,0,0,0-2,3.35c-.35,1.65-.23,3.56,1.42,4.49A2.92,2.92,0,0,0,293.09,77,4.74,4.74,0,0,0,292.81,72.56Z" style="fill:#231f20"/><path d="M270.18,72a2.54,2.54,0,0,0-.43-.89,1,1,0,0,0-.89-.36c-.64.13-.8.95-.8,1.6l0,1.56a8.07,8.07,0,0,0,.28,2.73c.38,1.09,2.15,2.83,2.69,1.13C271.46,76.31,270.64,73.41,270.18,72Z" style="fill:#c0c2c4"/><path d="M325.44,43.46c-1.92-2.2-3.4-5-6.09-6.18-4.15-1.81-8.75,1.13-12.25,4s-7.88,6-12.17,4.49c-1.66-.58-3-1.8-4.63-2.53a8.74,8.74,0,0,0-11.25,4.51c-.82,2.08-.76,4.37-1.1,6.57s-1.28,4.54-3.3,5.53a5.35,5.35,0,0,1-5-.46,33.38,33.38,0,0,0,1.78,6.87c.86,2.23,2.73,7.81,5.19,5.26,1.93-2,2-5.82,2.9-8.34a16,16,0,0,1,10.85-10.07c3.34-.89,6.89-.69,10.29-1.35a20.32,20.32,0,0,0,9.79-5,60.68,60.68,0,0,0,14.52,23.91,3.08,3.08,0,0,0,4.94-.83,32,32,0,0,0,3-17c-.16-1.59-.44-3.18-.65-4.77A16.74,16.74,0,0,1,325.44,43.46Z" style="fill:#515151"/><path d="M332,43a13.53,13.53,0,0,0-10.42-13.67C314.77,27.71,308,25.05,301,24.69c-4.74-.24-9.46.58-14.13,1.41-4.09.72-8.38,1.53-11.59,4.14-4.75,3.89-5.79,10.61-6.1,16.7a61.6,61.6,0,0,0,.42,12.43,5.35,5.35,0,0,0,5,.46c2-1,3-3.33,3.3-5.53s.28-4.49,1.1-6.57a8.74,8.74,0,0,1,11.25-4.51c1.61.73,3,2,4.63,2.53,4.29,1.48,8.67-1.63,12.17-4.49s8.1-5.79,12.25-4c2.69,1.18,4.17,4,6.09,6.18a16.74,16.74,0,0,0,6.8,4.58c-.05-.41-.1-.82-.14-1.22A30.42,30.42,0,0,1,332,43Z" style="fill:#777"/></g></g></svg>