<svg id="Layer_1" data-name="Layer 1" xmlns="http://www.w3.org/2000/svg" xmlns:xlink="http://www.w3.org/1999/xlink" viewBox="0 0 300 300"><defs><clipPath id="clip-path"><path d="M6,87.27V230.73c0,.82,1.42,1.49,3.17,1.49H290.83c1.75,0,3.17-.67,3.17-1.49V88.93Z" style="fill:none"/></clipPath></defs><title>TWO BOYS2</title><g style="opacity:0.8"><g style="clip-path:url(#clip-path)"><path d="M93.64,190.5l.38,2.72a58.49,58.49,0,0,1,17.18-.48c-.39-1-.79-1.91-1.18-2.85A58.73,58.73,0,0,0,93.64,190.5Z" style="fill:#babcbe"/><path d="M205.1,178a50,50,0,0,0-17.32,9.82c-1.23,1.07-2.44,2.23-3.61,3.36A57.81,57.81,0,0,1,178,196.6a34.35,34.35,0,0,1-13.93,5.62c-13.26,2.47-23.94-2.43-31-5.67-.71-.32-1.39-.64-2-.92a68.41,68.41,0,0,0-21-5.74c.39.94.79,1.89,1.18,2.85a67.86,67.86,0,0,1,19.69,5.54l2,.91c6.71,3.08,16.62,7.62,28.91,6.16.87-.11,1.76-.24,2.66-.41a35.22,35.22,0,0,0,14.3-5.79,57.53,57.53,0,0,0,6.28-5.49c1.16-1.12,2.36-2.27,3.56-3.32A48.93,48.93,0,0,1,205,181c.29-1,.58-2.1.88-3.15C205.6,177.88,205.35,178,205.1,178Z" style="fill:#d1d1d1"/><path d="M225.71,173.22l-6.78,1.39a122.62,122.62,0,0,0-13.08,3.19c-.3,1-.59,2.1-.88,3.15l.63-.22a114.37,114.37,0,0,1,13.74-3.41l6.76-1.38Z" style="fill:#babcbe"/><path d="M27.28,217.94c-2.47-.43-4.94.71-7.07,2s-4.18,2.89-6.63,3.45a41.93,41.93,0,0,1-4.89.47,15.21,15.21,0,0,0-9.31,4.6l-.11.12c.09,0,.17.08.26.12a21.87,21.87,0,0,0,9.6,1.16c9-.63,17.44-4.61,22.7-10.35l-.14,0A37.29,37.29,0,0,0,27.28,217.94Z" style="fill:#c0c2c4"/><path d="M-2.82,167C2.47,163.88,7,158.94,13,157.84c1.58-.29,3.19-.3,4.78-.57,4.81-.84,8.93-4.22,11.4-8.39.35-.6.67-1.21,1-1.84-.33-.39-.65-.77-1-1.15A67.8,67.8,0,0,0,6.31,129.16c-5.06-2.25-7.61-2.23-12.06.77a28.63,28.63,0,0,0-8.74,9.36c-2.83,4.84-4.19,10.12-5.32,15.38a130.13,130.13,0,0,0-3,21.61,33.27,33.27,0,0,1,3.35-2C-14.13,171.46-8,170.11-2.82,167Z" style="fill:#c0c2c4"/><path d="M44.13,173.81a69.88,69.88,0,0,0-14-26.77c-.3.63-.62,1.24-1,1.84-2.47,4.17-6.59,7.55-11.4,8.39-1.59.27-3.2.28-4.78.57-6.07,1.1-10.55,6-15.84,9.18s-11.31,4.44-16.68,7.26a33.27,33.27,0,0,0-3.35,2,81.27,81.27,0,0,0,.5,14A59.65,59.65,0,0,0-7.22,223.63a19.73,19.73,0,0,0,6.49,5l.11-.12a15.21,15.21,0,0,1,9.31-4.6,41.93,41.93,0,0,0,4.89-.47c2.45-.56,4.51-2.12,6.63-3.45s4.6-2.46,7.07-2a37.29,37.29,0,0,1,4.41,1.56l.14,0A22.64,22.64,0,0,0,35.59,214c3.46-7.3,2.3-15.23,1.55-23.1a6.72,6.72,0,0,1,3.94-6.71,6.53,6.53,0,0,0,3.16-3C45.36,178.9,44.82,176.27,44.13,173.81Z" style="fill:#d7dadd"/><path d="M85.47,221.09c-2.22-3-6-4.33-9.64-5.17s-7.45-1.35-10.67-3.22c-.37-.22-.73-.46-1.08-.7.75,4.12,1.41,8.41.13,12.38-1,3.07-3,5.67-5.08,8.19-4,5-11.7,11.82-17.49,14.52-13.9,6.5-41.46,1.37-46.17,2-9.14,1.13-10.44-1.92-19.62-2.56-1.64-.11-3.53-.14-4.6,1.09a5.15,5.15,0,0,0-.93,2.39c-.6,3,.28,8.73-.11,11.75-.3,2.3-.52,4.73.44,6.85,1.09,2.4,8.59,8.9,11.16,9.57a99,99,0,0,0,27.08,2.69C19.12,280.42,45,278.78,54,274c10.68-5.71,23.7-18.41,29.85-28.74A83.31,83.31,0,0,0,90,232.47a15.92,15.92,0,0,1-1.35-3.09C87.77,226.54,87.26,223.48,85.47,221.09Z" style="fill:#d7dadd"/><path d="M95.38,197.94a8.35,8.35,0,0,0-8.15-1.43c-8.91,3.07-16.45,8.53-23.24,15l.09.49c.35.24.71.48,1.08.7,3.22,1.87,7,2.38,10.67,3.22s7.42,2.21,9.64,5.17c1.79,2.39,2.3,5.45,3.21,8.29A15.92,15.92,0,0,0,90,232.47,83.24,83.24,0,0,0,95.38,197.94Z" style="fill:#c0c2c4"/><path d="M104.32,179.07a1.45,1.45,0,0,0-1.57-1.3c-.92-.12-1.84-.24-2.76-.34l.2.94a12.77,12.77,0,0,1,.42,4.07,4.34,4.34,0,0,1-2,3.39c-1.9,1-4.22,0-6.13-1a6.69,6.69,0,0,1-9.31,0,7.37,7.37,0,0,1-8.8,0,.94.94,0,0,0-.71-.31,1,1,0,0,0-.48.3,5.59,5.59,0,0,1-7.32-.1,12,12,0,0,1-2.37-4.15,48.62,48.62,0,0,0-2.28-4.71h-.28c-3.09,0-6.18.08-9.27.12,0,.11,0,.22,0,.32a88.53,88.53,0,0,1,1.31,34.88,13.7,13.7,0,0,1-.66,2.76c-.15.41-.35.82-.54,1.23q8.8-.87,17.59-1.82,1.2-3.42,2.57-6.78a13.77,13.77,0,0,1,1.9-3.52,1.09,1.09,0,0,1,.77-.49c.55,0,.82.65.92,1.18a30.88,30.88,0,0,1,.32,8.9q13.67-1.51,27.32-3.26a2.74,2.74,0,0,0,1.39-.43,2.69,2.69,0,0,0,.8-1.65A59,59,0,0,0,104.32,179.07Z" style="fill:#ea8686"/><path d="M65.81,184.72a5.59,5.59,0,0,0,7.32.1,1,1,0,0,1,.48-.3.94.94,0,0,1,.71.31,7.37,7.37,0,0,0,8.8,0,6.69,6.69,0,0,0,9.31,0c1.91,1,4.23,2,6.13,1a4.34,4.34,0,0,0,2-3.39,12.77,12.77,0,0,0-.42-4.07l-.2-.94c-.77-.1-1.54-.18-2.31-.26a317.69,317.69,0,0,0-36.52-1.31,48.62,48.62,0,0,1,2.28,4.71A12,12,0,0,0,65.81,184.72Z" style="fill:#999"/><path d="M75.42,203.74c-.1-.53-.37-1.2-.92-1.18a1.09,1.09,0,0,0-.77.49,13.77,13.77,0,0,0-1.9,3.52q-1.36,3.36-2.57,6.78l6.48-.71A30.88,30.88,0,0,0,75.42,203.74Z" style="fill:#005a84"/><path d="M52.87,211.18a88.53,88.53,0,0,0-1.31-34.88,131.2,131.2,0,0,0,.1,38.87h0c.19-.41.39-.82.54-1.23A13.7,13.7,0,0,0,52.87,211.18Z" style="fill:#e86060"/><path d="M92.91,181.35a5.23,5.23,0,0,0,1.55,1.81,4.42,4.42,0,0,0,2.06.51,5.13,5.13,0,0,0,3.47-.75,3.69,3.69,0,0,0,1.31-3.16,6.83,6.83,0,0,0-1.26-3.28,8.84,8.84,0,0,0-7-4.09,4.26,4.26,0,0,0-2.67.78C87.7,175.27,91.7,179.39,92.91,181.35Z" style="fill:#d7dadd"/><path d="M83.53,181.35a5.16,5.16,0,0,0,1.56,1.81,4.35,4.35,0,0,0,2,.51,5.13,5.13,0,0,0,3.47-.75,3.69,3.69,0,0,0,1.31-3.16,6.63,6.63,0,0,0-1.26-3.28,8.82,8.82,0,0,0-7-4.09,4.27,4.27,0,0,0-2.68.78C78.32,175.27,82.32,179.39,83.53,181.35Z" style="fill:#d7dadd"/><path d="M74.15,181.35a5.16,5.16,0,0,0,1.56,1.81,4.38,4.38,0,0,0,2.05.51,5.13,5.13,0,0,0,3.47-.75,3.69,3.69,0,0,0,1.31-3.16,6.63,6.63,0,0,0-1.26-3.28,8.82,8.82,0,0,0-7-4.09,4.29,4.29,0,0,0-2.68.78C68.94,175.27,73,179.39,74.15,181.35Z" style="fill:#d7dadd"/><path d="M64.77,181.35a5.26,5.26,0,0,0,1.56,1.81,4.38,4.38,0,0,0,2,.51,5.13,5.13,0,0,0,3.47-.75,3.69,3.69,0,0,0,1.31-3.16,6.63,6.63,0,0,0-1.26-3.28,8.82,8.82,0,0,0-7-4.09,4.29,4.29,0,0,0-2.68.78C59.56,175.27,63.57,179.39,64.77,181.35Z" style="fill:#d7dadd"/><path d="M68.31,199.18c2.14-2.21,5.28-4,8.22-3.07s4.37,4.54,3.35,7.37c-.32.88-.83,1.68-1.12,2.56s-.36,1.61-.59,2.4a8.49,8.49,0,0,1-4.54,5.08,13.54,13.54,0,0,1-6.89,1.14C58.12,214,65.24,202.34,68.31,199.18Z" style="fill:#d7dadd"/><path d="M24,196.44l-5.06-2a8.41,8.41,0,0,0-3.16-.79c-2.6,0-4.63,2.42-5.27,4.91a11,11,0,0,0,2.92,10.09,14.34,14.34,0,0,0,10,4.08A10.79,10.79,0,0,0,31,210.22a9.67,9.67,0,0,0,2.81-5.94,16.79,16.79,0,0,0-.11-4.42c-.27-1.87-.17-2-1.82-2A20.31,20.31,0,0,1,24,196.44Z" style="fill:#ab2a40"/><path d="M27.66,170.9a3.19,3.19,0,0,0-2.18-3,2.9,2.9,0,0,0-3.23,1.63c-1.1,2.08-.8,5.44,1.85,6.18,2,.56,3.43-1.13,3.52-2.93a5.79,5.79,0,0,0,0-.72A4.31,4.31,0,0,0,27.66,170.9Z" style="fill:#231f20"/><path d="M-23.69,152.84c3.78-3.52,8.87-6.49,14-5.4,2.81.6,5.4,2.41,8.27,2.21a9.81,9.81,0,0,0,3.34-1,11.16,11.16,0,0,0,3.35-2.17,22.22,22.22,0,0,0,2.62-3.79,19.91,19.91,0,0,1,6.53-6.25,7.06,7.06,0,0,1,2.92-1.09,13.93,13.93,0,0,1,3.82.58c4.47.82,9.13-1.24,12.31-4.46a19.92,19.92,0,0,0,2.12-2.55,15.51,15.51,0,0,0,.36-4.55c-.31-3.75-2.34-7-4.67-9.71-3.32-3.84-7.6-7-12.47-7.46s-10.27,2.41-12,7.48c-.26.79-.51,1.69-1.19,2.07-.85.46-1.8-.19-2.56-.75-9.08-6.62-22.37-3.6-30.45,4.9-6.66,7-13.23,21.56-11.54,31.85.65,4,5.65,5.1,9.68,5.71C-27.4,156.63-25.62,154.64-23.69,152.84Z" style="fill:#777"/><path d="M33.42,131.49c-3.18,3.22-7.84,5.28-12.31,4.46a13.93,13.93,0,0,0-3.82-.58,7.06,7.06,0,0,0-2.92,1.09,19.91,19.91,0,0,0-6.53,6.25,22.22,22.22,0,0,1-2.62,3.79,11.16,11.16,0,0,1-3.35,2.17,9.81,9.81,0,0,1-3.34,1c-2.87.2-5.46-1.61-8.27-2.21-5.08-1.09-10.17,1.88-13.95,5.4-1.93,1.8-3.71,3.79-5.6,5.64,1.06.16,2.05.29,2.89.44a59.09,59.09,0,0,0,18,.31c8.68-1.2,17.08-4.31,25.32-7.67,4.1-1.68,8.3-3.52,11.43-6.9,2.95-3.19,4.67-7.46,6.07-11.71a36.58,36.58,0,0,0,1.11-4A19.92,19.92,0,0,1,33.42,131.49Z" style="fill:#515151"/><path d="M303.4,209.8c-2.24-.41-4.53.12-6.8.4-3.16.39-6.6.23-9.19-1.61-1.93-1.38-3.25-3.6-5.45-4.51a15.11,15.11,0,0,0-4.3-.69,13.08,13.08,0,0,1-7.91-3.35c1,3.47,2.27,7,4.72,9.66,3.42,3.8,8.6,5.6,13.62,7a32.5,32.5,0,0,0,10.33,1.52,21,21,0,0,0,12.19-5.13c-.39-.17-.77-.36-1.15-.56C307.5,211.46,305.59,210.2,303.4,209.8Z" style="fill:#c0c2c4"/><path d="M272.09,168.22c1.52-2,3.07-4.19,5.42-5.16,1.41-.59,3-.68,4.39-1.3,2.52-1.12,4.14-3.81,6.77-4.63,2.44-.76,5.11.29,7.61-.18a25.72,25.72,0,0,0,3.77-1.36,5.08,5.08,0,0,1,3.9-.07c1.59.81,2.15,2.72,2.91,4.32a24.7,24.7,0,0,0,4,5.43l3.18,3.6a32.78,32.78,0,0,0,3.24,3.32,22.8,22.8,0,0,0,5.45,3.27,44.71,44.71,0,0,0-1-7.8,59.35,59.35,0,0,0-7.15-16.75,36.67,36.67,0,0,0-6.9-9c-6.57-5.84-17.67-7.48-24.9-2-3.89,3-6.52,7.2-8.61,11.54a69.12,69.12,0,0,0-6.33,21.68A37.4,37.4,0,0,0,272.09,168.22Z" style="fill:#c0c2c4"/><path d="M317.26,172.19a32.78,32.78,0,0,1-3.24-3.32l-3.18-3.6a24.7,24.7,0,0,1-4-5.43c-.76-1.6-1.32-3.51-2.91-4.32a5.08,5.08,0,0,0-3.9.07,25.72,25.72,0,0,1-3.77,1.36c-2.5.47-5.17-.58-7.61.18-2.63.82-4.25,3.51-6.77,4.63-1.39.62-3,.71-4.39,1.3-2.35,1-3.9,3.14-5.42,5.16a37.4,37.4,0,0,1-4.31,4.94,69.13,69.13,0,0,0,1.93,26.74.74.74,0,0,1,0,.14,13.08,13.08,0,0,0,7.91,3.35,15.11,15.11,0,0,1,4.3.69c2.2.91,3.52,3.13,5.45,4.51,2.59,1.84,6,2,9.19,1.61,2.27-.28,4.56-.81,6.8-.4s4.1,1.66,6.06,2.69c.38.2.76.39,1.15.56a25.82,25.82,0,0,0,4.79-5.29c3.82-5.62,5.53-12.32,6.52-19a68.42,68.42,0,0,0,.79-13.33A22.8,22.8,0,0,1,317.26,172.19Z" style="fill:#d7dadd"/><path d="M223.3,205.68c2-2.84,5.38-4.15,8.64-5s6.68-1.3,9.57-3.09c.33-.21.65-.44,1-.67-.67,3.95-1.27,8.06-.12,11.87.89,2.93,2.74,5.42,4.55,7.84,3.57,4.75,10.49,11.32,15.69,13.92,12.45,6.22,37.16,1.31,41.38,1.87,8.19,1.09,9.36-1.83,17.59-2.44,1.46-.11,3.16-.14,4.12,1a5,5,0,0,1,.83,2.28c.54,2.87-.25,8.37.1,11.26.27,2.21.46,4.54-.4,6.57-1,2.29-7.69,8.53-10,9.17A83.42,83.42,0,0,1,292,262.93c-9.17-.4-32.38-2-40.45-6.58-9.57-5.47-21.24-17.64-26.76-27.54a81.53,81.53,0,0,1-5.52-12.23,15.18,15.18,0,0,0,1.2-3C221.24,210.91,221.7,208,223.3,205.68Z" style="fill:#d7dadd"/><path d="M214.42,184.4a7.38,7.38,0,0,1,7.31-1.31c8,2.81,14.74,7.81,20.83,13.73,0,.15-.05.3-.08.45-.32.22-.64.44-1,.64-2.89,1.71-6.31,2.18-9.57,3s-6.65,2-8.64,4.73c-1.6,2.19-2.06,5-2.88,7.58a14.31,14.31,0,0,1-1.2,2.83A77.49,77.49,0,0,1,214.42,184.4Z" style="fill:#c0c2c4"/><path d="M206.41,167.46a1.71,1.71,0,0,1,.4-.82,1.86,1.86,0,0,1,1-.35c.83-.11,1.65-.22,2.48-.31l-.18.84a11.58,11.58,0,0,0-.38,3.65,3.89,3.89,0,0,0,1.84,3c1.7.92,3.79,0,5.49-.91a6,6,0,0,0,8.35,0,6.59,6.59,0,0,0,7.88,0,.94.94,0,0,1,.65-.28,1,1,0,0,1,.43.27,5,5,0,0,0,6.55-.08,10.59,10.59,0,0,0,2.13-3.72,44.45,44.45,0,0,1,2-4.23h.26c2.77,0,5.54.06,8.31.1a2.54,2.54,0,0,0,0,.29,79.56,79.56,0,0,0-1.18,31.27,13.25,13.25,0,0,0,.59,2.47c.15.37.32.73.49,1.1q-7.89-.78-15.77-1.63c-.72-2-1.48-4.07-2.3-6.08a12.45,12.45,0,0,0-1.7-3.15,1,1,0,0,0-.69-.45c-.49,0-.74.59-.83,1.07a27.72,27.72,0,0,0-.28,8q-12.25-1.38-24.5-2.93a2.42,2.42,0,0,1-1.24-.39,2.33,2.33,0,0,1-.71-1.47A52.83,52.83,0,0,1,206.41,167.46Z" style="fill:#ea8686"/><path d="M240.92,172.52a5,5,0,0,1-6.55.08,1,1,0,0,0-.43-.27.94.94,0,0,0-.65.28,6.59,6.59,0,0,1-7.88,0,6,6,0,0,1-8.35,0c-1.7.92-3.79,1.83-5.49.91a3.89,3.89,0,0,1-1.84-3,11.58,11.58,0,0,1,.38-3.65l.18-.84,2.07-.23a283.54,283.54,0,0,1,32.73-1.18,44.45,44.45,0,0,0-2,4.23A10.59,10.59,0,0,1,240.92,172.52Z" style="fill:#999"/><path d="M232.31,189.57c.09-.48.34-1.08.83-1.07a1,1,0,0,1,.69.45,12.45,12.45,0,0,1,1.7,3.15c.82,2,1.58,4,2.3,6.08l-5.8-.63A27.72,27.72,0,0,1,232.31,189.57Z" style="fill:#005a84"/><path d="M252.41,196.24A79.56,79.56,0,0,1,253.59,165a117.59,117.59,0,0,1-.09,34.84h0c-.17-.37-.34-.73-.49-1.1A13.25,13.25,0,0,1,252.41,196.24Z" style="fill:#e86060"/><path d="M216.64,169.49a4.49,4.49,0,0,1-1.4,1.62,3.87,3.87,0,0,1-1.84.47,4.64,4.64,0,0,1-3.11-.67,3.31,3.31,0,0,1-1.17-2.84,5.92,5.92,0,0,1,1.13-2.94,7.92,7.92,0,0,1,6.24-3.67,3.89,3.89,0,0,1,2.4.7C221.31,164.05,217.72,167.74,216.64,169.49Z" style="fill:#d7dadd"/><path d="M225,169.49a4.47,4.47,0,0,1-1.39,1.62,3.9,3.9,0,0,1-1.84.47,4.62,4.62,0,0,1-3.11-.67,3.35,3.35,0,0,1-1.18-2.84,6,6,0,0,1,1.13-2.94,7.92,7.92,0,0,1,6.24-3.67,3.87,3.87,0,0,1,2.4.7C229.71,164.05,226.12,167.74,225,169.49Z" style="fill:#d7dadd"/><path d="M233.45,169.49a4.49,4.49,0,0,1-1.4,1.62,3.87,3.87,0,0,1-1.84.47,4.64,4.64,0,0,1-3.11-.67,3.34,3.34,0,0,1-1.17-2.84,5.92,5.92,0,0,1,1.13-2.94,7.92,7.92,0,0,1,6.24-3.67,3.89,3.89,0,0,1,2.4.7C238.12,164.05,234.53,167.74,233.45,169.49Z" style="fill:#d7dadd"/><path d="M241.86,169.49a4.49,4.49,0,0,1-1.4,1.62,3.87,3.87,0,0,1-1.84.47,4.64,4.64,0,0,1-3.11-.67,3.31,3.31,0,0,1-1.17-2.84,5.92,5.92,0,0,1,1.13-2.94,7.92,7.92,0,0,1,6.24-3.67,3.89,3.89,0,0,1,2.4.7C246.53,164.05,242.94,167.74,241.86,169.49Z" style="fill:#d7dadd"/><path d="M239.57,189.21c-1.71-1.76-4.23-3.22-6.58-2.45a4.69,4.69,0,0,0-2.68,5.89c.25.71.66,1.35.9,2.06s.28,1.28.47,1.92a6.79,6.79,0,0,0,3.63,4.06,10.87,10.87,0,0,0,5.52.91C247.72,201.08,242,191.75,239.57,189.21Z" style="fill:#d7dadd"/><path d="M267.19,168.69a4.33,4.33,0,0,0-2.61-2.63,3.52,3.52,0,0,0-3.39,1.36,9.09,9.09,0,0,0-1.52,3.47,17.52,17.52,0,0,0-.64,8,7.56,7.56,0,0,0,5,5.87,3.13,3.13,0,0,0,2.05-.05c1.43-.64,1.66-2.53,1.64-4.08C267.7,176.81,268.79,172.24,267.19,168.69Z" style="fill:#d7dadd"/><path d="M287.1,173.24c-.42-1.33-1.64-2.5-3.13-1.76A4.48,4.48,0,0,0,282,174.7c-.33,1.58-.22,3.42,1.36,4.31a2.8,2.8,0,0,0,4-1.56A4.55,4.55,0,0,0,287.1,173.24Z" style="fill:#231f20"/><path d="M303.6,174.77a3.53,3.53,0,0,0-1.47-2.33,2.25,2.25,0,0,0-2.1-.14,1.78,1.78,0,0,0-1.51,1.15,5.19,5.19,0,0,0-.45,2.74c-.06,1.8.62,3.59,2.62,3.63a1.13,1.13,0,0,0,.32,0,2.13,2.13,0,0,0,1.21-.33C303.68,178.57,303.92,176.29,303.6,174.77Z" style="fill:#231f20"/><path d="M265.37,172.71a2.44,2.44,0,0,0-.41-.86,1,1,0,0,0-.86-.34c-.61.12-.76.92-.77,1.54l0,1.5a7.62,7.62,0,0,0,.27,2.61c.37,1.05,2.07,2.72,2.58,1.09C266.6,176.84,265.81,174.06,265.37,172.71Z" style="fill:#c0c2c4"/><path d="M318.43,145.3c-1.85-2.11-3.27-4.8-5.85-5.93-4-1.74-8.4,1.08-11.76,3.82s-7.57,5.73-11.68,4.31c-1.6-.56-2.91-1.73-4.45-2.42a8.39,8.39,0,0,0-10.81,4.32c-.78,2-.72,4.2-1.05,6.31s-1.23,4.36-3.17,5.31a5.13,5.13,0,0,1-4.83-.45,32,32,0,0,0,1.7,6.6c.83,2.14,2.62,7.5,5,5.05,1.86-1.93,2-5.59,2.79-8a15.39,15.39,0,0,1,10.41-9.67c3.21-.86,6.62-.66,9.88-1.3a19.46,19.46,0,0,0,9.4-4.78,58.08,58.08,0,0,0,13.95,22.95,3,3,0,0,0,4.74-.79,30.77,30.77,0,0,0,2.9-16.35c-.16-1.53-.43-3.05-.63-4.58A16,16,0,0,1,318.43,145.3Z" style="fill:#515151"/><path d="M324.7,144.86a13,13,0,0,0-10-13.13c-6.52-1.55-13-4.1-19.73-4.44a60.31,60.31,0,0,0-13.57,1.34c-3.92.69-8,1.47-11.12,4-4.57,3.74-5.56,10.18-5.86,16a58.83,58.83,0,0,0,.41,11.93,5.13,5.13,0,0,0,4.83.45c1.94-1,2.84-3.2,3.17-5.31s.27-4.32,1.05-6.31a8.39,8.39,0,0,1,10.81-4.32c1.54.69,2.85,1.86,4.45,2.42,4.11,1.42,8.32-1.57,11.68-4.31s7.77-5.56,11.76-3.82c2.58,1.13,4,3.82,5.85,5.93a16,16,0,0,0,6.52,4.4c-.05-.39-.1-.78-.13-1.18A27.93,27.93,0,0,1,324.7,144.86Z" style="fill:#777"/></g></g></svg>