<?xml version="1.0" encoding="utf-8"?>
<!-- Generator: Adobe Illustrator 22.0.1, SVG Export Plug-In . SVG Version: 6.00 Build 0)  -->
<svg version="1.1" id="Layer_1" xmlns="http://www.w3.org/2000/svg" xmlns:xlink="http://www.w3.org/1999/xlink" x="0px" y="0px"
	 viewBox="0 0 19 19" style="enable-background:new 0 0 19 19;" xml:space="preserve" fill="#F05050">
<style type="text/css">
	.st0{display:none;}
	.st1{display:inline;}
</style>
<g class="st0">
	<path class="st1" d="M1.9,8.8l3.9,2.3c0,0,5.4-5.9,5.9-6.3c0.5-0.4,1.1,0.1,0.7,0.6l-6.3,9c-0.1,0.1-0.2,0.2-0.4,0L1,9.9L1.9,8.8z"
		/>
	<path class="st1" d="M9.7,10.3l1.5,0.9l5.9-6.3c0.5-0.5,1.1,0.1,0.7,0.6l-6.2,9c-0.1,0.2-0.3,0.2-0.4,0L8.6,12L9.7,10.3z"/>
</g>
<g>
	<path d="M1.9,8.8l3.9,2.3c0,0,5.4-5.9,5.9-6.3c0.5-0.4,1.1,0.1,0.7,0.6l-6.3,9c-0.1,0.1-0.2,0.2-0.4,0L1,9.9L1.9,8.8z"/>
</g>
<g class="st0">
	<path class="st1" d="M2.4,8.3l5.8,3.5c0,0,8-8.9,8.7-9.6s1.6,0.1,1,0.9L8.5,16.8c-0.1,0.2-0.3,0.3-0.6,0L1,10L2.4,8.3z"/>
</g>
</svg>
