<svg id="Layer_8" data-name="Layer 8" xmlns="http://www.w3.org/2000/svg" viewBox="0 0 19 19"><title>my pages</title><path d="M3.79,14.68V3.36a1,1,0,0,0-.79,1H3V16.48a1,1,0,0,0,1,1h9.16a1,1,0,0,0,1-.79H5.82A2,2,0,0,1,3.79,14.68Z" style="fill:none"/><path d="M14,5.56a1.91,1.91,0,0,1-.68-.12,2,2,0,0,1-1.23-1.22,2.16,2.16,0,0,1-.12-.68s0-.17,0-.47,0-.89,0-1.55H5.82a1,1,0,0,0-1,.78,1,1,0,0,0,0,.23h0V14.68a1,1,0,0,0,1,1H15a.86.86,0,0,0,.23,0,1,1,0,0,0,.79-1V5.56H14Zm-6.61,3h6.1a.51.51,0,0,1,.51.51.5.5,0,0,1-.51.5H7.35a.5.5,0,0,1-.51-.5A.51.51,0,0,1,7.35,8.6Zm6.1,4.05H7.35a.51.51,0,0,1-.51-.51.5.5,0,0,1,.51-.5h6.1a.5.5,0,0,1,.51.5A.51.51,0,0,1,13.45,12.65Z" style="fill:none"/><path d="M12.94,3.54a1,1,0,0,0,1,1h2l-3.06-3Z" style="fill:none"/><path d="M13.45,11.64H7.35a.5.5,0,0,0-.51.5.51.51,0,0,0,.51.51h6.1a.51.51,0,0,0,.51-.51A.5.5,0,0,0,13.45,11.64Z" style="fill:#f05050"/><path d="M7.35,9.61h6.1a.5.5,0,0,0,.51-.5.51.51,0,0,0-.51-.51H7.35a.51.51,0,0,0-.51.51A.5.5,0,0,0,7.35,9.61Z" style="fill:#2c2e2f"/><path d="M12.94.5H5.82a2,2,0,0,0-2,1.82A2,2,0,0,0,2,4.33V16.48a2,2,0,0,0,2,2h9.16a2,2,0,0,0,2-1.82,2,2,0,0,0,1.82-2V4.55Zm.24,17H4a1,1,0,0,1-1-1V4.33H3a1,1,0,0,1,.79-1V14.68a2,2,0,0,0,2,2h8.33A1,1,0,0,1,13.18,17.49ZM16,14.68a1,1,0,0,1-.79,1,.86.86,0,0,1-.23,0H5.82a1,1,0,0,1-1-1V2.53h0a1,1,0,0,1,0-.23,1,1,0,0,1,1-.78h6.09c0,.66,0,1.2,0,1.55s0,.47,0,.47a2.16,2.16,0,0,0,.12.68,2,2,0,0,0,1.23,1.22,1.91,1.91,0,0,0,.68.12h2ZM14,4.55a1,1,0,0,1-1-1v-2l3.06,3Z" style="fill:#f05050"/></svg>