<svg id="Layer_81" data-name="Layer 81" xmlns="http://www.w3.org/2000/svg" viewBox="0 0 18 18">
  <title>arrow</title>
  <path d="M10.94,5a1.05,1.05,0,0,1,.74,1.79L8.52,10l3.17,3.17a1,1,0,0,1-1.48,1.48L6.3,10.74A1,1,0,0,1,6,10a1.07,1.07,0,0,1,.3-.74l3.9-3.91A1.09,1.09,0,0,1,10.94,5Z" transform="translate(-1 -1)" style="fill: #2c2e2f"/>
  <path d="M10,19a9,9,0,1,1,9-9A9,9,0,0,1,10,19ZM10,2.57A7.43,7.43,0,1,0,17.43,10,7.43,7.43,0,0,0,10,2.57Z" transform="translate(-1 -1)" style="fill: #2c2e2f"/>
</svg>
