<svg id="Layer_82" data-name="Layer 82" xmlns="http://www.w3.org/2000/svg" viewBox="0 0 16 16">
  <title>fulscreen</title>
  <path d="M16.54,2A1.46,1.46,0,0,1,18,3.46V16.54A1.46,1.46,0,0,1,16.54,18H3.46A1.46,1.46,0,0,1,2,16.54V3.46A1.46,1.46,0,0,1,3.46,2ZM3.45,3.45h13.1v13.1H3.45V3.45Zm7.92,11.93,4,0,0-4H13.91l0,1.54-2.36-2.35-1,1,2.35,2.36-1.54,0v1.47ZM8.59,4.58l-4,0,0,4H6.05L6,7.06,8.38,9.41l1-1L7.06,6l1.54,0V4.58Z" transform="translate(-2 -2)" style="fill: #2c2e2f;fill-rule: evenodd"/>
</svg>
