<svg id="Layer_80" data-name="Layer 80" xmlns="http://www.w3.org/2000/svg" viewBox="0 0 18 18">
  <title>plus</title>
  <path d="M9.33,15A.33.33,0,0,1,9,14.67V11H5.33A.33.33,0,0,1,5,10.67V9.33A.33.33,0,0,1,5.33,9H9V5.33A.33.33,0,0,1,9.33,5h1.34a.33.33,0,0,1,.33.33V9h3.67a.33.33,0,0,1,.33.33v1.34a.33.33,0,0,1-.33.33H11v3.67a.33.33,0,0,1-.33.33Z" transform="translate(-1 -1)"/>
  <path d="M10,19a9,9,0,1,1,9-9A9,9,0,0,1,10,19ZM10,2.57A7.43,7.43,0,1,0,17.43,10,7.43,7.43,0,0,0,10,2.57Z" transform="translate(-1 -1)"/>
</svg>
