<svg xmlns="http://www.w3.org/2000/svg" id="prefix__Internet" width="12" height="10.032" viewBox="0 0 12 10.032">
    <defs>
        <style>
            .prefix__cls-1{fill:#1e1e1e}
        </style>
    </defs>
    <path id="prefix__Path_63" d="M215.069 376.051h-10.028a.982.982 0 0 0-.986.972v6.48a.982.982 0 0 0 .986.972h10.027a.982.982 0 0 0 .986-.972v-6.48a.982.982 0 0 0-.985-.972zm-4.151 7.452h-1.726v-.382h1.726zm4.315-.81h-10.356v-5.67h10.356z" class="prefix__cls-1" data-name="Path 63" transform="translate(-204.055 -376.051)"/>
    <path id="prefix__Path_64" d="M218.233 404.926h-2.08l-.48.64h-1.68v.213a.458.458 0 0 0 .481.427h5.438a.457.457 0 0 0 .481-.427v-.213h-1.68z" class="prefix__cls-1" data-name="Path 64" transform="translate(-211.193 -396.174)"/>
</svg>
