<svg id="Layer_95" data-name="Layer 95" xmlns="http://www.w3.org/2000/svg" viewBox="0 0 16.97 16.13">
  <title>icon for wall</title>
  <g>
    <path d="M10,13.26c-1.8,0-3.26.54-3.26,1.34a5.28,5.28,0,0,0,.52,2.32,6.24,6.24,0,0,0,.61.94.94.94,0,0,0,.61.21h3a.94.94,0,0,0,.61-.21,6.24,6.24,0,0,0,.61-.94,5.28,5.28,0,0,0,.52-2.32C13.26,13.8,11.8,13.26,10,13.26Z" transform="translate(-1.51 -1.93)" style="fill: #f05050"/>
    <circle cx="8.49" cy="8.49" r="2.13" style="fill: #f05050"/>
    <path d="M9,2A8.48,8.48,0,0,0,5.53,17.63,15.43,15.43,0,0,1,5.43,16a7.18,7.18,0,1,1,9.14,0c0,.56,0,1.12-.1,1.67A8.48,8.48,0,0,0,9,2Z" transform="translate(-1.51 -1.93)" style="fill: #f05050"/>
    <path d="M7.14,13.09a3.92,3.92,0,1,1,5.72,0,3.62,3.62,0,0,1,1,.84,5.22,5.22,0,1,0-7.74,0A3.62,3.62,0,0,1,7.14,13.09Z" transform="translate(-1.51 -1.93)" style="fill: #f05050"/>
  </g>
</svg>
