<svg xmlns="http://www.w3.org/2000/svg" width="8.5" height="12.688" viewBox="0 0 8.5 12.688">
    <g id="prefix__Group_74" data-name="Group 74" transform="translate(-32.092 -15.949)">
        <g id="prefix__Group_73" data-name="Group 73" transform="translate(32.092 15.949)">
            <path id="prefix__Path_65" d="M32.092 27.709V16.9a.958.958 0 0 1 .964-.947.943.943 0 0 1 .561.193l6.659 5.415a.941.941 0 0 1 .316.753.967.967 0 0 1-.316.754l-6.659 5.342a.78.78 0 0 1-.578.228.856.856 0 0 1-.386-.1.934.934 0 0 1-.561-.829zm1.875-1.98l4.189-3.418-4.189-3.47z" data-name="Path 65" transform="translate(-32.092 -15.949)" style="fill:#fff"/>
        </g>
    </g>
</svg>
