<svg xmlns="http://www.w3.org/2000/svg" xmlns:xlink="http://www.w3.org/1999/xlink" viewBox="0 0 12 14">
	<defs>
		<clipPath id="clip-path" transform="translate(-4 -3)">
			<rect x="6.5" y="4.85" width="7" height="8.3" style="fill:none"/>
		</clipPath>
	</defs>
	<title>QUESTION POST</title>
	<g id="question_post" data-name="question post">
		<path d="M4.63,3C4.24,3,4,3.21,4,3.55V16.46c0,.34.23.54.62.54h7.32a.72.72,0,0,0,.49-.18l3.37-3a.52.52,0,0,0,.19-.41c0-1.6,0-3.2,0-4.81v-5q0-.6-.69-.6H4.63Z" transform="translate(-4 -3)" style="fill:#fff"/>
		<path d="M15.31,3Q16,3,16,3.6v5c0,1.61,0,3.21,0,4.81a.52.52,0,0,1-.19.41l-3.37,3a.72.72,0,0,1-.49.18H4.62c-.39,0-.62-.2-.62-.54V3.55c0-.34.24-.55.63-.55H15.31ZM11.4,16V13.55c0-.35.23-.56.64-.56h2.8V7.51H5.16V16Z" transform="translate(-4 -3)" style="fill:#2c2e2f;fill-opacity:0.8;"/>
		<path d="M5,16.12V3.88H15V13H12.1c-.42,0-.65.22-.65.58v2.51" transform="translate(-4 -3)" style="fill:#fff"/>
		<g style="clip-path:url(#clip-path)">
			<path d="M7.84,13.08A1.25,1.25,0,0,0,9,12.13v0c.24-1,.63-2.62.92-3.79h1A.35.35,0,0,0,11.28,8a.34.34,0,0,0-.35-.35h-.86c.1-.37.16-.63.19-.72l0-.1c.11-.37.36-1.25.76-1.25s.42.57.42.59a.36.36,0,0,0,.38.33.36.36,0,0,0,.32-.38c0-.43-.31-1.24-1.12-1.24S9.78,6,9.62,6.6l0,.1c0,.11-.13.45-.24.92H8.12A.34.34,0,0,0,7.77,8a.35.35,0,0,0,.35.35H9.17c-.36,1.47-.82,3.4-.87,3.61s-.17.45-.46.45c-.45,0-.65-.63-.65-.64a.35.35,0,0,0-.44-.24.36.36,0,0,0-.24.44,1.5,1.5,0,0,0,1.33,1.14Zm0,0" transform="translate(-4 -3)" style="fill:#2c2e2f;fill-opacity:0.8;"/>
		</g>
		<path d="M13.05,12.17a.36.36,0,0,0,.38-.38.47.47,0,0,0-.13-.31l-.73-.84.71-.83a.47.47,0,0,0,.11-.29A.37.37,0,0,0,13,9.16a.5.5,0,0,0-.36.22l-.55.72-.54-.72a.45.45,0,0,0-.38-.22.37.37,0,0,0-.38.39.47.47,0,0,0,.13.31l.68.79-.74.88a.42.42,0,0,0-.12.28.37.37,0,0,0,.39.36.47.47,0,0,0,.36-.21l.59-.77.59.77a.46.46,0,0,0,.38.21Zm0,0" transform="translate(-4 -3)" style="fill:#2c2e2f;fill-opacity:0.8;"/>
	</g>
</svg>