<svg xmlns="http://www.w3.org/2000/svg" id="Group_885" width="9.437" height="13.13" data-name="Group 885" viewBox="0 0 9.437 13.13">
    <g id="Group_73" data-name="Group 73">
        <path id="Path_65" fill="#f05050" d="M32.092 28.118v-11.19a1.03 1.03 0 0 1 1.07-.979 1.1 1.1 0 0 1 .623.2l7.393 5.6a.944.944 0 0 1 .351.779.969.969 0 0 1-.351.78l-7.393 5.531a.9.9 0 0 1-.642.236 1 1 0 0 1-.428-.109.969.969 0 0 1-.623-.848zm2.082-2.049l4.65-3.537-4.65-3.591z" data-name="Path 65" transform="translate(-32.092 -15.949)"/>
    </g>
</svg>
