<svg xmlns="http://www.w3.org/2000/svg" viewBox="0 0 17 18.26"><title>review</title><g id="Layer_42" data-name="Layer 42"><path d="M12.6,8.42c-.23,0-.74,0-.74-.34s.65-1,1.68-1.64c.33-.21,1-.53,1-1s-.25-.6-.78-.53a5.12,5.12,0,0,0-2.33,1.29A5.51,5.51,0,0,0,9.33,10.1a2.82,2.82,0,0,0,2.65,3,2.38,2.38,0,0,0,2.44-2.35A2.28,2.28,0,0,0,12.6,8.42Z" transform="translate(-1.5 -0.87)" style="fill:#2c2e2f;fill-opacity:0.8;"/>
<path d="M9.36,7.77a1.65,1.65,0,0,0-.62-.18c-.23,0-.74,0-.74-.34s.65-1,1.68-1.64c.33-.21,1-.53,1-1s-.25-.6-.78-.53A5.12,5.12,0,0,0,7.56,5.4,5.51,5.51,0,0,0,5.47,9.27a2.82,2.82,0,0,0,2.65,3A2.62,2.62,0,0,0,9.2,12a4.08,4.08,0,0,1-.5-1.93A4.9,4.9,0,0,1,9.36,7.77Z" transform="translate(-1.5 -0.87)" style="fill:#2c2e2f;fill-opacity:0.8;"/>
<path d="M16.64.87H3.36A1.86,1.86,0,0,0,1.5,2.73V14.38a1.85,1.85,0,0,0,1.86,1.85H7l.14.17,1.93,2.3a1.22,1.22,0,0,0,1.86,0l1.93-2.3.14-.17h3.64a1.85,1.85,0,0,0,1.86-1.85V2.73A1.86,1.86,0,0,0,16.64.87ZM17.29,14a.85.85,0,0,1-.85.85H12.83a1.3,1.3,0,0,0-1,.49l-.12.16-.14.17L10,17.48,8.45,15.64l-.31-.37a1.28,1.28,0,0,0-1-.45H3.56A.85.85,0,0,1,2.71,14V2.85A.85.85,0,0,1,3.56,2H16.44a.85.85,0,0,1,.85.85Z" transform="translate(-1.5 -0.87)" style="fill:#2c2e2f;fill-opacity:0.8;"/></g></svg>