<svg id="Layer_33" data-name="Layer 33" xmlns="http://www.w3.org/2000/svg" viewBox="0 0 19 19"><title>edit</title><path d="M10.61,7,7.94,4.8,3.09,10.57,5.76,12.8Z" style="fill:none"/><polygon points="2.34 11.46 1.71 14.9 5.01 13.69 2.34 11.46" style="fill:none"/><path d="M12.85,4.37c.39-.46.37-.45-.07-.81L11,2.07c-.42-.38-.46-.38-.82.07L8.69,3.91l2.67,2.24Z" style="fill:none"/><path d="M1.4,16.17l4.42-1.64,8.3-9.86A1.09,1.09,0,0,0,14,3L11.3.81A1.08,1.08,0,0,0,9.67,1L1.37,10.8.51,15.43C.43,16.06.78,16.36,1.4,16.17Zm8.78-14c.36-.45.4-.45.82-.07l1.78,1.49c.44.36.46.35.07.81L11.36,6.15,8.69,3.91ZM7.94,4.8,10.61,7,5.76,12.8,3.09,10.57Zm-5.6,6.65L5,13.69,1.71,14.9Z" style="fill:#f05050"/><path d="M16.92,17.39H1.05a.56.56,0,0,0,0,1.11H16.92a.56.56,0,0,0,0-1.11Z" style="fill:#f05050"/></svg>