<svg  xmlns="http://www.w3.org/2000/svg" 
	 viewBox="0 0 18 1120"   style="width: 512px;height: 512px;" >

<view id="earth" viewBox="0 0 18 18"/>
<view id="earth_h"  viewBox="0 20 18 18"/>
<view id="saved" viewBox="0 40 16 16"/>
<view id="saved_h"  viewBox="0 60 16 16"/>
<view id="interest" viewBox="0 80 18 18"/>
<view id="interest_h"  viewBox="0 100 18 18"/>
<view id="mypage" viewBox="0 120 17 14.62"/>
<view id="mypage_h"  viewBox="0 140 17 14.62"/>
<view id="createpage" viewBox="0 160 18 18"/>
<view id="createpage_h"  viewBox="0 180 18 18"/>
<view id="allcourse" viewBox="0 200 16 15.2"/>
<view id="allcourse_h"  viewBox="0 220 16 15.2"/>
<view id="mycourse" viewBox="0 240 16 14.9"/>
<view id="mycourse_h"  viewBox="0 260 16 14.9"/>
<view id="question" viewBox="0 280 14.86 17.64"/>
<view id="question_h"  viewBox="0 300 14.86 17.64"/>






<style><![CDATA[

  ]]>
  </style>
// earth svg
<g class="earth" transform="translate(0 0)">
<path d="M10,1a9,9,0,1,0,9,9A9,9,0,0,0,10,1ZM9.4,2.51V9.4H5.82C6,6.26,7.5,3.56,9.4,2.51Zm1.2,0C12.5,3.56,14,6.26,14.18,9.4H10.6Zm-3.41.21A10.52,10.52,0,0,0,4.62,9.4H2.23A7.78,7.78,0,0,1,7.19,2.72Zm5.62,0a7.78,7.78,0,0,1,5,6.68H15.38A10.52,10.52,0,0,0,12.81,2.72ZM2.23,10.6H4.62a10.52,10.52,0,0,0,2.57,6.68A7.78,7.78,0,0,1,2.23,10.6Zm3.59,0H9.4v6.89C7.5,16.44,6,13.74,5.82,10.6Zm4.78,0h3.58c-.17,3.14-1.68,5.84-3.58,6.89Zm4.78,0h2.39a7.78,7.78,0,0,1-5,6.68A10.52,10.52,0,0,0,15.38,10.6Z" transform="translate(-1 -1)" style="fill:#2c2e2f;fill-opacity:.8;"/>
</g>
//hover 
<g transform="translate(0 20)">
<path d="M10,1a9,9,0,1,0,9,9A9,9,0,0,0,10,1ZM9.4,2.51V9.4H5.82C6,6.26,7.5,3.56,9.4,2.51Zm1.2,0C12.5,3.56,14,6.26,14.18,9.4H10.6Zm-3.41.21A10.52,10.52,0,0,0,4.62,9.4H2.23A7.78,7.78,0,0,1,7.19,2.72Zm5.62,0a7.78,7.78,0,0,1,5,6.68H15.38A10.52,10.52,0,0,0,12.81,2.72ZM2.23,10.6H4.62a10.52,10.52,0,0,0,2.57,6.68A7.78,7.78,0,0,1,2.23,10.6Zm3.59,0H9.4v6.89C7.5,16.44,6,13.74,5.82,10.6Zm4.78,0h3.58c-.17,3.14-1.68,5.84-3.58,6.89Zm4.78,0h2.39a7.78,7.78,0,0,1-5,6.68A10.52,10.52,0,0,0,15.38,10.6Z" transform="translate(-1 -1)" style="fill:#f05050;fill-opacity:.8;"/>
</g>
// earth svg

// saved svg 
<g transform="translate(0 40)">
<path d="M17.35,2h-3V3.36h2.24V16.64H3.36V3.36H5.61V2h-3A.65.65,0,0,0,2,2.65v14.7a.65.65,0,0,0,.65.65h14.7a.65.65,0,0,0,.65-.65V2.65A.65.65,0,0,0,17.35,2Z" transform="translate(-2 -2)" style="fill:#2c2e2f;fill-opacity:.8;"/>
<path d="M7.33,14.37A.85.85,0,0,1,7,14.28a.82.82,0,0,1-.48-.75V2h7.09V13.51a.84.84,0,0,1-.49.76.91.91,0,0,1-1-.11L10,12.43l-2.1,1.73A.9.9,0,0,1,7.33,14.37Zm0-1Zm.38-10v9.45l1.83-1.5a.8.8,0,0,1,1,0l1.84,1.51V3.39Zm2.44,9h0Z" transform="translate(-2 -2)" style="fill:#2c2e2f;fill-opacity:.8;"/>
</g>
// hover
<g transform="translate(0 60)">
<path d="M17.35,2h-3V3.36h2.24V16.64H3.36V3.36H5.61V2h-3A.65.65,0,0,0,2,2.65v14.7a.65.65,0,0,0,.65.65h14.7a.65.65,0,0,0,.65-.65V2.65A.65.65,0,0,0,17.35,2Z" transform="translate(-2 -2)" style="fill:#f05050;fill-opacity:.8;"/>
<path d="M7.33,14.37A.85.85,0,0,1,7,14.28a.82.82,0,0,1-.48-.75V2h7.09V13.51a.84.84,0,0,1-.49.76.91.91,0,0,1-1-.11L10,12.43l-2.1,1.73A.9.9,0,0,1,7.33,14.37Zm0-1Zm.38-10v9.45l1.83-1.5a.8.8,0,0,1,1,0l1.84,1.51V3.39Zm2.44,9h0Z" transform="translate(-2 -2)" style="fill:#f05050;fill-opacity:.8;"/>
</g>
// saved svg 
//intereat svg
<g transform="translate(0 80)">
<path d="M10.27,1.45a.65.65,0,0,0-.83.31L7,6.69l-5.44.78A.63.63,0,0,0,1,8.19a.65.65,0,0,0,.18.37l3.93,3.85-.94,5.42a.64.64,0,0,0,.52.74.71.71,0,0,0,.41-.06L10,16l4.87,2.57a.64.64,0,0,0,.86-.27.65.65,0,0,0,.07-.41l-.92-5.42,3.95-3.84a.63.63,0,0,0,0-.9.66.66,0,0,0-.37-.19L13,6.7,10.59,1.76a.64.64,0,0,0-.32-.31Zm-.26,2,2,4.07a.64.64,0,0,0,.48.36L17,8.58l-3.26,3.16a.64.64,0,0,0-.18.57l.75,4.47-4-2.12a.68.68,0,0,0-.59,0l-4,2.11.77-4.48a.62.62,0,0,0-.18-.56L3,8.55l4.49-.64A.63.63,0,0,0,8,7.56Z" transform="translate(-1 -1.4)" style="fill:#2c2e2f;fill-opacity:0.8"/>
</g>
//hover
<g transform="translate(0 100)">
<path d="M10.27,1.45a.65.65,0,0,0-.83.31L7,6.69l-5.44.78A.63.63,0,0,0,1,8.19a.65.65,0,0,0,.18.37l3.93,3.85-.94,5.42a.64.64,0,0,0,.52.74.71.71,0,0,0,.41-.06L10,16l4.87,2.57a.64.64,0,0,0,.86-.27.65.65,0,0,0,.07-.41l-.92-5.42,3.95-3.84a.63.63,0,0,0,0-.9.66.66,0,0,0-.37-.19L13,6.7,10.59,1.76a.64.64,0,0,0-.32-.31Zm-.26,2,2,4.07a.64.64,0,0,0,.48.36L17,8.58l-3.26,3.16a.64.64,0,0,0-.18.57l.75,4.47-4-2.12a.68.68,0,0,0-.59,0l-4,2.11.77-4.48a.62.62,0,0,0-.18-.56L3,8.55l4.49-.64A.63.63,0,0,0,8,7.56Z" transform="translate(-1 -1.4)" style="fill:#f05050;fill-opacity:0.8"/>
</g>
//intereat svg
//mypage svg
<g transform="translate(0 120)">
<path d="M15.11.71H1.89V9.43H15.11ZM4.8,2.86H9.58a.48.48,0,0,1,.48.47.5.5,0,0,1-.48.48H4.8a.48.48,0,0,1-.47-.48A.47.47,0,0,1,4.8,2.86Zm7.4,3.59H4.8a.5.5,0,0,1,0-1h7.4a.5.5,0,0,1,0,1Z" transform="translate(0 0.03)" style="fill:none"/>
<polygon points="4.8 12.25 12 12.25 11.86 10.66 4.94 10.66 4.8 12.25" style="fill:none"/>
<path d="M16.7,9.43h-.88v-9A.47.47,0,0,0,15.35,0H1.65a.47.47,0,0,0-.47.46v9H.3a.29.29,0,0,0-.3.3H0v.57a.31.31,0,0,0,.3.31H4.23l-.3,3.6a.34.34,0,0,0,.3.38h0a.36.36,0,0,0,.35-.32l.11-1.36H12l.12,1.36a.36.36,0,0,0,.35.32h0a.34.34,0,0,0,.32-.36v0l-.31-3.6H16.7a.31.31,0,0,0,.3-.31V9.73A.29.29,0,0,0,16.7,9.43ZM1.89.71H15.11V9.43H1.89ZM12,12.22H4.8l.14-1.6h6.92Z" transform="translate(0 0.03)" style="fill:#2c2e2f;fill-opacity:.8;"/>
<path d="M12.2,5.5H4.8a.5.5,0,0,0,0,1h7.4a.5.5,0,0,0,0-1Z" transform="translate(0 0.03)" style="fill:#2c2e2f;fill-opacity:.8;"/><path d="M4.8,3.8H9.58a.5.5,0,0,0,.48-.48.48.48,0,0,0-.48-.47H4.8a.47.47,0,0,0-.47.47A.48.48,0,0,0,4.8,3.8Z" transform="translate(0 0.03)" style="fill:#2c2e2f;fill-opacity:.8;"/>
</g>
//hover
<g transform="translate(0 140)">
<path d="M15.11.71H1.89V9.43H15.11ZM4.8,2.86H9.58a.48.48,0,0,1,.48.47.5.5,0,0,1-.48.48H4.8a.48.48,0,0,1-.47-.48A.47.47,0,0,1,4.8,2.86Zm7.4,3.59H4.8a.5.5,0,0,1,0-1h7.4a.5.5,0,0,1,0,1Z" transform="translate(0 0.03)" style="fill:none"/>
<polygon points="4.8 12.25 12 12.25 11.86 10.66 4.94 10.66 4.8 12.25" style="fill:none"/>
<path d="M16.7,9.43h-.88v-9A.47.47,0,0,0,15.35,0H1.65a.47.47,0,0,0-.47.46v9H.3a.29.29,0,0,0-.3.3H0v.57a.31.31,0,0,0,.3.31H4.23l-.3,3.6a.34.34,0,0,0,.3.38h0a.36.36,0,0,0,.35-.32l.11-1.36H12l.12,1.36a.36.36,0,0,0,.35.32h0a.34.34,0,0,0,.32-.36v0l-.31-3.6H16.7a.31.31,0,0,0,.3-.31V9.73A.29.29,0,0,0,16.7,9.43ZM1.89.71H15.11V9.43H1.89ZM12,12.22H4.8l.14-1.6h6.92Z" transform="translate(0 0.03)" style="fill:#f05050;fill-opacity:.8;"/>
<path d="M12.2,5.5H4.8a.5.5,0,0,0,0,1h7.4a.5.5,0,0,0,0-1Z" transform="translate(0 0.03)" style="fill:#f05050;fill-opacity:.8;"/>
<path d="M4.8,3.8H9.58a.5.5,0,0,0,.48-.48.48.48,0,0,0-.48-.47H4.8a.47.47,0,0,0-.47.47A.48.48,0,0,0,4.8,3.8Z" transform="translate(0 0.03)" style="fill:#f05050;fill-opacity:.8;"/>
</g>
//mypage svg
//create page svg
<g transform="translate(0 160)">
<path d="M10,19h8a.91.91,0,0,0,1-1V15.32c0-2.74,0-5.49,0-8.24a.93.93,0,0,0-.29-.69L13.64,1.3a1,1,0,0,0-.73-.3h-11A.85.85,0,0,0,1,1.92V18.05A.87.87,0,0,0,2,19Z" transform="translate(-1 -1)" style="fill:#fff"/>
<path d="M10,19H2A.87.87,0,0,1,1,18.05V1.92A.85.85,0,0,1,1.92,1h11a1,1,0,0,1,.73.3L18.7,6.39a.93.93,0,0,1,.29.69c0,2.75,0,5.5,0,8.24V18a.91.91,0,0,1-1,1ZM2.73,2.73V17.26H17.26V7.87H13.05a.88.88,0,0,1-1-1V2.73Z" transform="translate(-1 -1)" style="fill:#2c2e2f;fill-opacirty:0.8;"/>
<path d="M12.17,2.5V6.81a.9.9,0,0,0,1,1H17.5V17.5H2.5V2.5" transform="translate(-1 -1)" style="fill:#fff"/>
<path d="M8.94,11.06V8.61A.6.6,0,0,0,8.33,8h0a.61.61,0,0,0-.61.61v2.45H5.28a.6.6,0,0,0-.61.61h0a.61.61,0,0,0,.61.61H7.72v2.44a.61.61,0,0,0,.61.61h0a.6.6,0,0,0,.61-.61V12.28h2.45a.61.61,0,0,0,.61-.61h0a.6.6,0,0,0-.61-.61Z" transform="translate(-1 -1)" style="fill:#2c2e2f;fill-opacirty:0.8;"/>
</g>
//hover
<g transform="translate(0 180)">
<path d="M10,19h8a.91.91,0,0,0,1-1V15.32c0-2.74,0-5.49,0-8.24a.93.93,0,0,0-.29-.69L13.64,1.3a1,1,0,0,0-.73-.3h-11A.85.85,0,0,0,1,1.92V18.05A.87.87,0,0,0,2,19Z" transform="translate(-1 -1)" style="fill:#fff"/>
<path d="M10,19H2A.87.87,0,0,1,1,18.05V1.92A.85.85,0,0,1,1.92,1h11a1,1,0,0,1,.73.3L18.7,6.39a.93.93,0,0,1,.29.69c0,2.75,0,5.5,0,8.24V18a.91.91,0,0,1-1,1ZM2.73,2.73V17.26H17.26V7.87H13.05a.88.88,0,0,1-1-1V2.73Z" transform="translate(-1 -1)" style="fill:#f05050;fill-opacirty:0.8;"/>
<path d="M12.17,2.5V6.81a.9.9,0,0,0,1,1H17.5V17.5H2.5V2.5" transform="translate(-1 -1)" style="fill:#fff"/>
<path d="M8.94,11.06V8.61A.6.6,0,0,0,8.33,8h0a.61.61,0,0,0-.61.61v2.45H5.28a.6.6,0,0,0-.61.61h0a.61.61,0,0,0,.61.61H7.72v2.44a.61.61,0,0,0,.61.61h0a.6.6,0,0,0,.61-.61V12.28h2.45a.61.61,0,0,0,.61-.61h0a.6.6,0,0,0-.61-.61Z" transform="translate(-1 -1)" style="fill:#f05050;fill-opacirty:0.8;"/>
</g>
//create page svg
//all course svg
  <g transform="translate(0 200)" style="opacity: 0.7000000000000001">
    <path d="M3.94,2.4A.6.6,0,0,0,4,3.6a7.78,7.78,0,0,1,3.5.61A3.2,3.2,0,0,1,8.92,5.59a7.07,7.07,0,0,0-1.66-.72A17.14,17.14,0,0,0,2.6,4.4H2.54A.6.6,0,0,0,2,5v9.8a.6.6,0,0,0,.6.6h0a15.77,15.77,0,0,1,4.32.41,5.65,5.65,0,0,1,2.58,1.54v0a.52.52,0,0,0,.3.2h.32l.15-.06h0a.7.7,0,0,0,.16-.14h0a5.65,5.65,0,0,1,2.6-1.56,15.64,15.64,0,0,1,4.31-.41.6.6,0,0,0,.61-.59h0V5a.6.6,0,0,0-.6-.6,17.14,17.14,0,0,0-4.66.47,7.07,7.07,0,0,0-1.66.72A3.2,3.2,0,0,1,12.5,4.21,7.78,7.78,0,0,1,16,3.6.61.61,0,0,0,16.61,3,.6.6,0,0,0,16,2.4h0A8.75,8.75,0,0,0,12,3.14,4.5,4.5,0,0,0,10,5.1a4.5,4.5,0,0,0-1.95-2A8.75,8.75,0,0,0,4,2.4ZM3.2,5.62A15.42,15.42,0,0,1,6.93,6,5.59,5.59,0,0,1,9.4,7.45v8.26a6.68,6.68,0,0,0-2.14-1.05,15.31,15.31,0,0,0-4.06-.44Zm13.6,0v8.6a15.31,15.31,0,0,0-4.06.44,6.68,6.68,0,0,0-2.14,1.05V7.45A5.57,5.57,0,0,1,13.08,6,15.27,15.27,0,0,1,16.8,5.62Z" transform="translate(-2 -2.4)"/>
  </g>
//hover
  <g transform="translate(0 220)" style="opacity: 0.7000000000000001">
    <path d="M3.94,2.4A.6.6,0,0,0,4,3.6a7.78,7.78,0,0,1,3.5.61A3.2,3.2,0,0,1,8.92,5.59a7.07,7.07,0,0,0-1.66-.72A17.14,17.14,0,0,0,2.6,4.4H2.54A.6.6,0,0,0,2,5v9.8a.6.6,0,0,0,.6.6h0a15.77,15.77,0,0,1,4.32.41,5.65,5.65,0,0,1,2.58,1.54v0a.52.52,0,0,0,.3.2h.32l.15-.06h0a.7.7,0,0,0,.16-.14h0a5.65,5.65,0,0,1,2.6-1.56,15.64,15.64,0,0,1,4.31-.41.6.6,0,0,0,.61-.59h0V5a.6.6,0,0,0-.6-.6,17.14,17.14,0,0,0-4.66.47,7.07,7.07,0,0,0-1.66.72A3.2,3.2,0,0,1,12.5,4.21,7.78,7.78,0,0,1,16,3.6.61.61,0,0,0,16.61,3,.6.6,0,0,0,16,2.4h0A8.75,8.75,0,0,0,12,3.14,4.5,4.5,0,0,0,10,5.1a4.5,4.5,0,0,0-1.95-2A8.75,8.75,0,0,0,4,2.4ZM3.2,5.62A15.42,15.42,0,0,1,6.93,6,5.59,5.59,0,0,1,9.4,7.45v8.26a6.68,6.68,0,0,0-2.14-1.05,15.31,15.31,0,0,0-4.06-.44Zm13.6,0v8.6a15.31,15.31,0,0,0-4.06.44,6.68,6.68,0,0,0-2.14,1.05V7.45A5.57,5.57,0,0,1,13.08,6,15.27,15.27,0,0,1,16.8,5.62Z" transform="translate(-2 -2.4)" style="fill:#f05050;"/>
  </g>
//all course svg
//my course svg
<g transform="translate(0 240)">
    <path d="M6.55,2.55h-4A.51.51,0,0,0,2,3.06V14.81a.51.51,0,0,0,.51.51H10.4a4,4,0,1,0,7.12-3.83,4.12,4.12,0,0,0-2.31-1.93V3.06a.51.51,0,0,0-.51-.51h-4a.51.51,0,0,0-.51.51V4.93H7.06V3.06a.51.51,0,0,0-.51-.51ZM6,14.3H3V3.57H6ZM11.17,3.57h3v5.8H14a4,4,0,0,0-2.78,1.12ZM14,10.38a3,3,0,1,1-3,3A3,3,0,0,1,14,10.38ZM10.15,6V12A4,4,0,0,0,10,14.3H7.06V6Z" transform="translate(-2 -2.55)" style="fill:#2c2e2f;fill-opacity:.8;"/>
    <rect x="1.47" y="9.54" width="2.13" height="1.02" style="fill:#2c2e2f;fill-opacity:.8;"/>
    <rect x="1.47" y="2.21" width="2.13" height="1.02" style="fill:#2c2e2f;fill-opacity:.8;"/>
    <rect x="5.54" y="9.54" width="2.13" height="1.02" style="fill:#2c2e2f;fill-opacity:.8;"/>
    <rect x="5.54" y="4.58" width="2.13" height="1.02" style="fill:#2c2e2f;fill-opacity:.8;"/>
    <rect x="9.62" y="2.21" width="2.13" height="1.02" style="fill:#2c2e2f;fill-opacity:.8;"/>
    <polygon points="14.25 9.89 13.53 9.17 11.43 11.27 10.26 10.1 9.54 10.82 11.43 12.71 14.25 9.89" style="fill:#2c2e2f;fill-opacity:.8;"/>
</g>
//hover

<g transform="translate(0 260)">
    <path d="M6.55,2.55h-4A.51.51,0,0,0,2,3.06V14.81a.51.51,0,0,0,.51.51H10.4a4,4,0,1,0,7.12-3.83,4.12,4.12,0,0,0-2.31-1.93V3.06a.51.51,0,0,0-.51-.51h-4a.51.51,0,0,0-.51.51V4.93H7.06V3.06a.51.51,0,0,0-.51-.51ZM6,14.3H3V3.57H6ZM11.17,3.57h3v5.8H14a4,4,0,0,0-2.78,1.12ZM14,10.38a3,3,0,1,1-3,3A3,3,0,0,1,14,10.38ZM10.15,6V12A4,4,0,0,0,10,14.3H7.06V6Z" transform="translate(-2 -2.55)" style="fill: #f05050"/>
    <rect x="1.47" y="9.54" width="2.13" height="1.02" style="fill: #f05050"/>
    <rect x="1.47" y="2.21" width="2.13" height="1.02" style="fill: #f05050"/>
    <rect x="5.54" y="9.54" width="2.13" height="1.02" style="fill: #f05050"/>
    <rect x="5.54" y="4.58" width="2.13" height="1.02" style="fill: #f05050"/>
    <rect x="9.62" y="2.21" width="2.13" height="1.02" style="fill: #f05050"/>
    <polygon points="14.25 9.89 13.53 9.17 11.43 11.27 10.26 10.1 9.54 10.82 11.43 12.71 14.25 9.89" style="fill: #f05050"/>

</g>
//my course svg
// question
<g transform="translate(0 280)">
<defs><clipPath id="clip-path" transform="translate(-2.5 -1.11)"><rect x="2.5" y="1.11" width="15" height="17.79" style="fill:none"/></clipPath></defs>
<title>QUESTION</title>
<g style="clip-path:url(#clip-path)"><path d="M5.36,18.74a2.7,2.7,0,0,0,2.44-2v0c.52-2.17,1.35-5.61,2-8.12H12A.75.75,0,1,0,12,7H10.16c.2-.79.34-1.35.4-1.55l.06-.21c.24-.8.78-2.67,1.63-2.67s.9,1.21.91,1.27a.74.74,0,0,0,.8.69.75.75,0,0,0,.7-.81c-.07-.92-.67-2.65-2.41-2.65-2,0-2.72,2.53-3.07,3.75l-.07.2C9,5.3,8.85,6,8.6,7H6a.75.75,0,1,0,0,1.5H8.23c-.77,3.14-1.77,7.28-1.88,7.74,0,.12-.35,1-1,1-1,0-1.38-1.36-1.38-1.37A.75.75,0,0,0,3,15.36a.74.74,0,0,0-.51.93,3.18,3.18,0,0,0,2.83,2.45Zm0,0" transform="translate(-2.5 -1.11)" style="fill:#8c8c8c;"/></g>
<path d="M16.54,16.8a.79.79,0,0,0,.82-.82,1,1,0,0,0-.29-.67l-1.57-1.8L17,11.73a.94.94,0,0,0,.25-.61.79.79,0,0,0-.83-.77,1,1,0,0,0-.77.46l-1.18,1.54-1.16-1.54a1,1,0,0,0-.83-.46.8.8,0,0,0-.82.82,1.09,1.09,0,0,0,.29.68l1.47,1.68-1.61,1.89a.9.9,0,0,0-.24.61.79.79,0,0,0,.83.77,1,1,0,0,0,.77-.45l1.26-1.66,1.26,1.66a1,1,0,0,0,.83.45Zm0,0" transform="translate(-2.5 -1.11)" style="fill:#8c8c8c;"/>
</g>
//hover
<g transform="translate(0 300)">
<defs><clipPath id="clip-path" transform="translate(-2.5 -1.11)">
<rect x="2.5" y="1.11" width="15" height="17.79" style="fill:none"/></clipPath>
</defs><title>QUESTION</title>
<g style="clip-path:url(#clip-path)"><path d="M5.36,18.74a2.7,2.7,0,0,0,2.44-2v0c.52-2.17,1.35-5.61,2-8.12H12A.75.75,0,1,0,12,7H10.16c.2-.79.34-1.35.4-1.55l.06-.21c.24-.8.78-2.67,1.63-2.67s.9,1.21.91,1.27a.74.74,0,0,0,.8.69.75.75,0,0,0,.7-.81c-.07-.92-.67-2.65-2.41-2.65-2,0-2.72,2.53-3.07,3.75l-.07.2C9,5.3,8.85,6,8.6,7H6a.75.75,0,1,0,0,1.5H8.23c-.77,3.14-1.77,7.28-1.88,7.74,0,.12-.35,1-1,1-1,0-1.38-1.36-1.38-1.37A.75.75,0,0,0,3,15.36a.74.74,0,0,0-.51.93,3.18,3.18,0,0,0,2.83,2.45Zm0,0" transform="translate(-2.5 -1.11)" style="fill:#f05050;"/></g>
<path d="M16.54,16.8a.79.79,0,0,0,.82-.82,1,1,0,0,0-.29-.67l-1.57-1.8L17,11.73a.94.94,0,0,0,.25-.61.79.79,0,0,0-.83-.77,1,1,0,0,0-.77.46l-1.18,1.54-1.16-1.54a1,1,0,0,0-.83-.46.8.8,0,0,0-.82.82,1.09,1.09,0,0,0,.29.68l1.47,1.68-1.61,1.89a.9.9,0,0,0-.24.61.79.79,0,0,0,.83.77,1,1,0,0,0,.77-.45l1.26-1.66,1.26,1.66a1,1,0,0,0,.83.45Zm0,0" transform="translate(-2.5 -1.11)" style="fill:#f05050;"/>
</g>
</svg>