<svg xmlns="http://www.w3.org/2000/svg" width="33" height="39.849" viewBox="0 0 33 39.849">
    <defs>
        <style>
            .cls-3{fill:rgba(240,80,80,.6)}
        </style>
    </defs>
    <g id="document_1_" transform="translate(-44)">
        <g id="Group_848" opacity="0.8" transform="translate(45.479 1.557)">
            <path id="Path_1113" fill="rgba(194,217,239,0.2)" d="M67.748 48.956V27.78A7.77 7.77 0 0 1 75.509 20h-4.726A7.783 7.783 0 0 0 63 27.783v21.17a7.783 7.783 0 0 0 7.783 7.783h4.726a7.77 7.77 0 0 1-7.761-7.78z" transform="translate(-63 -20)"/>
        </g>
        <g id="Group_849" transform="translate(53.089 14.601)">
            <ellipse id="Ellipse_114" cx="2" cy="1.5" class="cls-3" rx="2" ry="1.5" transform="translate(-.089 .248)"/>
        </g>
        <g id="Group_850" transform="translate(44)">
            <path id="Path_1114" fill="#f05050" d="M67.662 39.849H53.338A9.349 9.349 0 0 1 44 30.511V9.338A9.349 9.349 0 0 1 53.338 0h14.324A9.349 9.349 0 0 1 77 9.338v21.173a9.349 9.349 0 0 1-9.338 9.338zM53.338 3.113a6.232 6.232 0 0 0-6.225 6.225v21.173a6.232 6.232 0 0 0 6.225 6.225h14.324a6.232 6.232 0 0 0 6.225-6.225V9.338a6.232 6.232 0 0 0-6.225-6.225z" transform="translate(-44)"/>
        </g>
        <g id="Group_851" transform="translate(61.045 6.226)">
            <path id="Path_1115" d="M271.094 89.651h-2.646A5.454 5.454 0 0 1 263 84.2v-2.643a1.557 1.557 0 1 1 3.113 0V84.2a2.338 2.338 0 0 0 2.335 2.335h2.646a1.557 1.557 0 1 1 0 3.113z" class="cls-3" transform="translate(-263 -80)"/>
        </g>
        <g id="Group_852" transform="translate(52.95 27.63)">
            <path id="Path_1116" d="M171.3 358.113h-10.743a1.557 1.557 0 1 1 0-3.113H171.3a1.557 1.557 0 1 1 0 3.113z" class="cls-3" transform="translate(-159 -355)"/>
        </g>
        <g id="Group_853" transform="translate(52.95 21.637)">
            <path id="Path_1117" d="M171.3 281.113h-10.743a1.557 1.557 0 1 1 0-3.113H171.3a1.557 1.557 0 1 1 0 3.113z" class="cls-3" transform="translate(-159 -278)"/>
        </g>
    </g>
</svg>
