<svg xmlns="http://www.w3.org/2000/svg" id="time-management" width="56.81" height="56.81" viewBox="0 0 56.81 56.81">
    <defs>
        <style>
            .cls-3{fill:rgba(240,80,80,.6)}
        </style>
    </defs>
    <path id="Path_1118" fill="rgba(240,80,80,0.2)" d="M85.938 44.9a12.76 12.76 0 1 1 0-24.279 12.764 12.764 0 0 0 0 24.279zm11.568 14.6a12.765 12.765 0 0 1 8.821-12.139 12.76 12.76 0 1 0 0 24.279 12.765 12.765 0 0 1-8.821-12.14z" transform="translate(-61.557 -17.781)"/>
    <path id="Path_1119" fill="#f05050" d="M74.979 29.958a14.979 14.979 0 1 1 14.979-14.979 15 15 0 0 1-14.979 14.979zm0-25.52A10.541 10.541 0 1 0 85.52 14.979 10.553 10.553 0 0 0 74.979 4.438zM95.173 56.7a14.979 14.979 0 1 1 14.979-14.98A15 15 0 0 1 95.173 56.7zm0-25.52a10.541 10.541 0 1 0 10.541 10.54 10.553 10.553 0 0 0-10.541-10.541z" transform="translate(-53.343)"/>
    <g id="Group_854" transform="translate(0 34.396)">
        <path id="Path_1120" d="M362.99 319.549h-1.552v-2.33a2.219 2.219 0 0 0-4.438 0v4.549a2.219 2.219 0 0 0 2.219 2.219h3.771a2.219 2.219 0 0 0 0-4.438z" class="cls-3" transform="translate(-317.389 -314.445)"/>
        <path id="Path_1121" d="M20.527 310H20.5A20.08 20.08 0 0 0 0 330.194a2.219 2.219 0 0 0 4.438 0c0-8.688 6.657-15.756 16.089-15.756a2.219 2.219 0 1 0 0-4.438z" class="cls-3" transform="translate(0 -310)"/>
    </g>
</svg>
