<svg id="Layer_70" data-name="Layer 70" xmlns="http://www.w3.org/2000/svg" viewBox="0 0 19 19"><title>adduser</title><circle cx="7.97" cy="5.27" r="3.13" style="fill:none"/><path d="M8.87,9.63A6.24,6.24,0,0,0,1.79,14.9h9.29a4.12,4.12,0,0,1,1.75-3A6.16,6.16,0,0,0,8.87,9.63Z" style="fill:none"/><path d="M17.19,15H15.51V13.3a.34.34,0,0,0-.34-.33.3.3,0,0,0-.28.21.26.26,0,0,0-.05.12V15H13.16a.34.34,0,1,0,0,.67h1.68v1.68a.34.34,0,1,0,.67,0V15.65h1.68a.34.34,0,0,0,0-.67Z" style="fill:none"/><path d="M11.25,14.9H1.79a6.23,6.23,0,0,1,11.07-3,4.15,4.15,0,0,1,1.06-.51,6.56,6.56,0,0,0-.72-.86,7.34,7.34,0,0,0-2.81-1.77,4.28,4.28,0,1,0-6-1.11A4.34,4.34,0,0,0,5.54,8.81a7.43,7.43,0,0,0-5,7H11.17a4.7,4.7,0,0,1,.06-.51A2.61,2.61,0,0,1,11.25,14.9ZM4.84,5.27A3.13,3.13,0,1,1,8,8.4,3.13,3.13,0,0,1,4.84,5.27Z" style="fill:#2c2e2f"/><path d="M14.32,9.74a4.54,4.54,0,0,0-2.34.73,4.14,4.14,0,0,0-1.75,3,3,3,0,0,0,0,.42,3.87,3.87,0,0,0,.05.49,4.12,4.12,0,1,0,4.08-4.62Zm2,4.47H14.65v1.68a.34.34,0,0,1-.67,0V14.21H12.3a.34.34,0,0,1-.34-.34.34.34,0,0,1,.34-.34H14V11.86a.29.29,0,0,1,0-.13.31.31,0,0,1,.29-.21.34.34,0,0,1,.33.34v1.67h1.68a.34.34,0,0,1,.34.34A.34.34,0,0,1,16.33,14.21Z" style="fill:#2c2e2f"/></svg>