<svg xmlns="http://www.w3.org/2000/svg" viewBox="0 0 15 18"><title>city2</title><g id="Layer_116" data-name="Layer 116"><path d="M9.77,5.1a2,2,0,1,0-2,2A2,2,0,0,0,9.77,5.1Zm-3.1,0a1.06,1.06,0,0,1,2.12,0,1,1,0,0,1-1.06,1A1.06,1.06,0,0,1,6.67,5.1Z" transform="translate(-2.5 -1)" style="fill:#2c2e2f;fill-opacity:.8;"/>
<path d="M7.73,11.78l.36-.36C8.49,11,12,7.36,12,5.18a4.27,4.27,0,0,0-8.53,0C3.47,7.36,7,11,7.38,11.42ZM7.73,2A3.25,3.25,0,0,1,11,5.18c0,1.37-2.12,4-3.29,5.21C6.57,9.13,4.45,6.55,4.45,5.18A3.25,3.25,0,0,1,7.73,2Z" transform="translate(-2.5 -1)" style="fill:#2c2e2f;fill-opacity:.8;"/>
<rect x="2.78" y="11.78" width="1.64" height="0.88" style="fill:#2c2e2f;fill-opacity:.8;"/>
<rect x="6.09" y="11.78" width="1.64" height="0.88" style="fill:#2c2e2f;fill-opacity:.8;"/>
<rect x="2.78" y="14.48" width="1.64" height="0.88" style="fill:#2c2e2f;fill-opacity:.8;"/>
<rect x="6.09" y="14.48" width="1.64" height="0.88" style="fill:#2c2e2f;fill-opacity:.8;"/>
<rect x="11.54" y="14.42" width="1.64" height="0.88" style="fill:#2c2e2f;fill-opacity:.8;"/>
<path d="M13,12.72V8.53H11.24a.39.39,0,1,0,0,.77h.93v8.92H3.29V9.3h.94a.39.39,0,1,0,0-.77H2.5V19h15V12.72Zm3.74,5.5H13V13.5h3.74Z" transform="translate(-2.5 -1)" style="fill:#2c2e2f;fill-opacity:.8;"/>
</g>
</svg>