<svg id="Layer_93" data-name="Layer 93" xmlns="http://www.w3.org/2000/svg" viewBox="0 0 16 19.69">
  <title>course notification</title>
  <g>
    <path d="M17.73.15H5.29a2.66,2.66,0,0,0-2,.78,2.88,2.88,0,0,0-.8,1.91V17a2.71,2.71,0,0,0,2.79,2.82H17.73a.77.77,0,0,0,.77-.78V.93A.79.79,0,0,0,17.73.15ZM17,18.32H5.29a1.16,1.16,0,0,1-1.24-1.26,1.17,1.17,0,0,1,1.24-1.24H17Zm0-4.05H5.29a2.75,2.75,0,0,0-1.24.26V3A1.44,1.44,0,0,1,4.38,2a1.25,1.25,0,0,1,.91-.34H17Z" transform="translate(-2.5 -0.15)" style="fill: #2c2e2f"/>
    <path d="M7.09,5.68h6.58a.77.77,0,0,0,.78-.78.76.76,0,0,0-.78-.77H7.09a.75.75,0,0,0-.77.77A.78.78,0,0,0,7.09,5.68Z" transform="translate(-2.5 -0.15)" style="fill: #2c2e2f"/>
    <path d="M7.09,9.29h6.58a.78.78,0,1,0,0-1.55H7.09a.76.76,0,0,0-.77.78A.78.78,0,0,0,7.09,9.29Z" transform="translate(-2.5 -0.15)" style="fill: #2c2e2f"/>
  </g>
</svg>
