<svg id="Layer_1" data-name="Layer 1" xmlns="http://www.w3.org/2000/svg" xmlns:xlink="http://www.w3.org/1999/xlink" viewBox="0 0 84.61 72.01"><defs><linearGradient id="linear-gradient" x1="-974.77" y1="1743.95" x2="-916.64" y2="1710.39" gradientTransform="translate(989.92 -1672.19)" gradientUnits="userSpaceOnUse"><stop offset="0" stop-color="#f05050"/><stop offset="0.28" stop-color="#ec4f4f"/><stop offset="0.56" stop-color="#e04b4b"/><stop offset="0.84" stop-color="#c44"/><stop offset="1" stop-color="#bd3f3f"/></linearGradient><radialGradient id="radial-gradient" cx="81.74" cy="24.57" r="10.57" gradientUnits="userSpaceOnUse"><stop offset="0" stop-color="#636363"/><stop offset="0.28" stop-color="#5f6060"/><stop offset="0.54" stop-color="#545555"/><stop offset="0.79" stop-color="#424344"/><stop offset="1" stop-color="#2c2e2f"/></radialGradient></defs><title>empty image</title><rect x="16.64" y="28.03" width="48.34" height="60.76" rx="7" ry="7" transform="translate(91.53 3.6) rotate(90)" style="fill:#f05050;opacity:0.2"/><rect x="13.9" y="31.45" width="48.34" height="60.76" rx="7" ry="7" transform="translate(92.21 9.76) rotate(90)" style="fill:#f05050;opacity:0.1"/><rect x="20.05" y="24.6" width="48.34" height="60.76" rx="7" ry="7" transform="translate(91.51 -3.23) rotate(90)" style="opacity:0.7000000000000001;fill:url(#linear-gradient)"/><circle cx="36.53" cy="42.09" r="12.77" style="fill:none;stroke:#fff;stroke-miterlimit:10;opacity:0.6000000000000001"/><circle cx="39.57" cy="44.53" r="4.56" style="fill:#fff;opacity:0.6000000000000001"/><path d="M89.74,22H84.31V16.57a2.57,2.57,0,0,0-5.14,0V22H73.74a2.57,2.57,0,1,0,0,5.14h5.43v5.42a2.57,2.57,0,1,0,5.14,0V27.14h5.43a2.57,2.57,0,1,0,0-5.14Z" transform="translate(-7.69 -14)" style="opacity:0.6000000000000001;fill:url(#radial-gradient)"/></svg>