<svg id="Layer_1" data-name="Layer 1" xmlns="http://www.w3.org/2000/svg" xmlns:xlink="http://www.w3.org/1999/xlink" viewBox="0 0 61.42 61.42"><defs><clipPath id="clip-path" transform="translate(-9.25 -10.39)"><rect x="9.25" y="8.19" width="61.5" height="63.61" style="fill:none"/></clipPath></defs><title>img1</title><g style="opacity:0.6000000000000001"><g style="clip-path:url(#clip-path)"><path d="M21.86,32.32h3.29a.55.55,0,0,1,.55.55v2.19a.54.54,0,0,1-.55.55H21.86a.55.55,0,0,1-.55-.55V32.87a.55.55,0,0,1,.55-.55Zm0,0" transform="translate(-9.25 -10.39)" style="fill:#dfdfdf"/><path d="M10.35,30.13H38.86V69.61H18a1.09,1.09,0,0,0-1.09,1.1v1.1H63v-1.1a1.1,1.1,0,0,0-1.1-1.1H41.06V30.13H69.57a1.13,1.13,0,0,0,1.1-1.1,1.09,1.09,0,0,0-1.1-1.09H41.06V11.48a1.1,1.1,0,0,0-2.2,0V27.94H10.35a1,1,0,0,0-.76.31,1.06,1.06,0,0,0-.34.78,1.1,1.1,0,0,0,1.1,1.1Zm0,0" transform="translate(-9.25 -10.39)" style="fill:#dfdfdf"/></g><path d="M20.22,27H26.8a1.1,1.1,0,1,0,0-2.19H20.22a1.1,1.1,0,1,0,0,2.19Zm0,0" transform="translate(-9.25 -10.39)" style="fill:#dfdfdf"/><path d="M54.77,32.32h3.29a.55.55,0,0,1,.54.55v2.19a.54.54,0,0,1-.54.55H54.77a.54.54,0,0,1-.55-.55V32.87a.55.55,0,0,1,.55-.55Zm0,0" transform="translate(-9.25 -10.39)" style="fill:#dfdfdf"/><g style="clip-path:url(#clip-path)"><path d="M53.12,27H59.7a1.1,1.1,0,1,0,0-2.19H53.12a1.1,1.1,0,1,0,0,2.19Zm0,0" transform="translate(-9.25 -10.39)" style="fill:#dfdfdf"/><path d="M70.36,58.81A2.84,2.84,0,0,0,70,55.74L59.81,43a5.54,5.54,0,0,1-1.21-3.43V37.81H54.22v1.75A5.48,5.48,0,0,1,53,43L43.25,55.18v4.63a4,4,0,0,0,2.76,1h20.8a3.86,3.86,0,0,0,3.55-2ZM49.11,54.93l-1.7,2.19a1.1,1.1,0,1,1-1.74-1.34l1.71-2.2a1.1,1.1,0,0,1,1.88.26,1.1,1.1,0,0,1-.15,1.09Zm6-7.68-3.41,4.39a1.08,1.08,0,0,1-1,.43,1.09,1.09,0,0,1-.71-1.78l3.41-4.38a1.09,1.09,0,1,1,1.73,1.34Zm0,0" transform="translate(-9.25 -10.39)" style="fill:#dfdfdf"/><path d="M36.67,59.81V55.18L26.91,43a5.48,5.48,0,0,1-1.21-3.43V37.81H21.31v1.75A5.47,5.47,0,0,1,20.11,43L9.89,55.76a2.79,2.79,0,0,0-.33,3.05,3.86,3.86,0,0,0,3.55,2h20.8a4,4,0,0,0,2.76-1ZM16.21,54.93,14.5,57.12a1.1,1.1,0,0,1-1,.42,1.11,1.11,0,0,1-.87-.68,1.08,1.08,0,0,1,.15-1.08l1.71-2.2a1.1,1.1,0,0,1,1.88.26,1.1,1.1,0,0,1-.15,1.09Zm6-7.68-3.41,4.39a1.08,1.08,0,0,1-1,.43A1.09,1.09,0,0,1,17,50.29l3.41-4.38a1.09,1.09,0,1,1,1.73,1.34Zm0,0" transform="translate(-9.25 -10.39)" style="fill:#dfdfdf"/></g></g></svg>