<svg id="Layer_2" data-name="Layer 2" xmlns="http://www.w3.org/2000/svg" viewBox="0 0 68.01 68.62"><title>img2</title><path d="M23.77,7.21a2.61,2.61,0,0,0,0,3.71,8.72,8.72,0,0,1,1.66,2.47L12.81,25.71A8.54,8.54,0,0,1,10.38,24a2.63,2.63,0,0,0-3.76,3.68c4.58,4.67,12.12,5.3,18.61,4.6-2.09,16.26,5.23,25.2,22.82,23.3-.84,6.47-.36,14,4.22,18.7A2.63,2.63,0,1,0,56,70.6a8.72,8.72,0,0,1-1.66-2.47L66.94,55.81a8.48,8.48,0,0,1,2.43,1.72,2.63,2.63,0,0,0,3.76-3.68c-4.58-4.67-12.12-5.31-18.61-4.6C56.61,33,49.29,24.05,31.7,25.94c.83-6.46.36-14-4.22-18.7A2.62,2.62,0,0,0,23.77,7.21Zm6.91,24.17A33.49,33.49,0,0,1,38.1,31l-7.91,7.75A33.89,33.89,0,0,1,30.68,31.38ZM53,62.09a32.91,32.91,0,0,1,.49-7.43,33.73,33.73,0,0,1,7.42-.32Zm-4-11.94a33.49,33.49,0,0,1-7.42.33l7.91-7.74A33.93,33.93,0,0,1,49.07,50.15Zm-.85-13.46L35.63,49a8.29,8.29,0,0,1-4.1-4.19L44.12,32.51A8.31,8.31,0,0,1,48.22,36.69Zm-22-9.84a33.46,33.46,0,0,1-7.42.33l7.91-7.75A32.78,32.78,0,0,1,26.24,26.85Z" transform="translate(-5.87 -6.46)" style="fill:#dedfe2;opacity:0.6000000000000001"/></svg>