<svg id="Layer_3" data-name="Layer 3" xmlns="http://www.w3.org/2000/svg" xmlns:xlink="http://www.w3.org/1999/xlink" viewBox="0 0 56.31 71.54"><defs><clipPath id="clip-path" transform="translate(-11.26 -4.98)"><rect x="11.26" y="5" width="56.34" height="71.53" style="fill:none"/></clipPath></defs><title>img3</title><g style="opacity:0.6000000000000001"><g style="clip-path:url(#clip-path)"><path d="M55.94,47.3l-7.66-5a10.66,10.66,0,0,0-.66-8.59l6.28-5.61a8.95,8.95,0,1,0-3.34-3.75L44.27,30a10.67,10.67,0,0,0-10.13-1.09L26.89,19a8.68,8.68,0,1,0-4.06,3l7.25,10a10.68,10.68,0,0,0,.58,14.48l.23.22-7,12.32a8.94,8.94,0,1,0,4.36,2.48l7-12.31a10.7,10.7,0,0,0,10.3-2.51l7.66,5a7.08,7.08,0,1,0,2.73-4.22ZM18.51,65.6c-.17.19-.33.37-.49.53a2,2,0,0,1-.79.54,1.15,1.15,0,0,1-1.17-.31c-.85-.86-.53-2.47.76-3.76s2.9-1.61,3.75-.76A1.16,1.16,0,0,1,20.89,63a2.25,2.25,0,0,1-.54.8l-.53.48c-.23.2-.46.4-.68.63s-.43.46-.63.68Zm35.13-50c1.29-1.29,2.91-1.62,3.76-.76A1.13,1.13,0,0,1,57.71,16a1.89,1.89,0,0,1-.54.8c-.15.16-.34.32-.53.49s-.45.4-.68.62-.43.46-.62.68a6.52,6.52,0,0,1-.49.53,2,2,0,0,1-.8.54,1.14,1.14,0,0,1-1.17-.31c-.85-.85-.52-2.47.76-3.75ZM16.76,11.75c-.17.19-.32.37-.48.52a2,2,0,0,1-.77.52,1.1,1.1,0,0,1-1.14-.3c-.83-.83-.51-2.4.74-3.66s2.82-1.57,3.66-.74a1.14,1.14,0,0,1,.3,1.14,1.94,1.94,0,0,1-.52.78c-.16.15-.33.31-.52.47s-.44.39-.66.61-.42.45-.61.66ZM32.25,32.84c1.54-1.54,3.47-1.93,4.49-.91a1.37,1.37,0,0,1,.37,1.4,2.38,2.38,0,0,1-.64,1c-.19.19-.41.38-.64.58s-.54.48-.81.75-.51.55-.75.81-.39.45-.58.64a2.38,2.38,0,0,1-.95.64,1.36,1.36,0,0,1-1.39-.37c-1-1-.63-2.95.9-4.49Zm24.89,19a1.54,1.54,0,0,1-.63.43.91.91,0,0,1-.93-.25c-.67-.68-.41-2,.61-3s2.29-1.28,3-.61a.91.91,0,0,1,.25.93A1.54,1.54,0,0,1,59,50l-.42.39c-.17.15-.36.31-.54.49s-.34.36-.49.54l-.39.42Zm0,0" transform="translate(-11.26 -4.98)" style="fill:#dfdfdf"/></g></g></svg>