<svg id="Layer_4" data-name="Layer 4" xmlns="http://www.w3.org/2000/svg" viewBox="0 0 64 64"><title>img4</title><g style="opacity:0.6000000000000001"><path d="M7.58,38.9h30.9V8H7.58Zm8.83-17.66h4.42V16.83a2.21,2.21,0,1,1,4.41,0v4.41h4.41a2.21,2.21,0,0,1,0,4.42H25.24v4.41a2.21,2.21,0,1,1-4.41,0V25.66H16.41a2.21,2.21,0,0,1,0-4.42Zm0,0" transform="translate(-7.58 -8)" style="fill:#dedfe2"/><path d="M40.69,8V38.9H71.58V8ZM62.76,25.66H49.51a2.21,2.21,0,0,1,0-4.42H62.76a2.21,2.21,0,0,1,0,4.42Zm0,0" transform="translate(-7.58 -8)" style="fill:#dedfe2"/><path d="M40.69,72H71.58V41.1H40.69Zm8.82-21H62.76a2.21,2.21,0,0,1,0,4.42H49.51a2.21,2.21,0,0,1,0-4.42Zm0,6.63H62.76a2.21,2.21,0,1,1,0,4.41H49.51a2.21,2.21,0,0,1,0-4.41Zm0,0" transform="translate(-7.58 -8)" style="fill:#dedfe2"/><path d="M7.58,72h30.9V41.1H7.58ZM16,52.6a2.21,2.21,0,0,1,3.12-3.12l4,4,4-4a2.21,2.21,0,0,1,3.12,3.12l-4,3.95,4,4A2.21,2.21,0,1,1,27,63.63l-4-4-4,4a2.22,2.22,0,0,1-1.57.65A2.21,2.21,0,0,1,16,60.51l3.95-4Zm0,0" transform="translate(-7.58 -8)" style="fill:#dedfe2"/></g></svg>