<svg id="Layer_5" data-name="Layer 5" xmlns="http://www.w3.org/2000/svg" xmlns:xlink="http://www.w3.org/1999/xlink" viewBox="0 0 57.93 66"><defs><clipPath id="clip-path" transform="translate(-10.9 -7)"><rect x="10.78" y="7" width="58.44" height="66" style="fill:none"/></clipPath></defs><title>img5</title><g style="opacity:0.6000000000000001"><g style="clip-path:url(#clip-path)"><path d="M66.94,58.89c2.6-3.72.7-10.06-4.27-16.78a62.44,62.44,0,0,1-7.12,6.58,57.23,57.23,0,0,1-2.86,12.78,28.63,28.63,0,0,0,5.9.69c2.76,0,6.46-.57,8.35-3.27Zm0,0" transform="translate(-10.9 -7)" style="fill:#dedfe2"/></g><path d="M53.4,50.33c-1.57,1.16-3.22,2.29-5,3.38a76.42,76.42,0,0,1-6.87,3.8A53.49,53.49,0,0,0,50.78,61,54.45,54.45,0,0,0,53.4,50.33Zm0,0" transform="translate(-10.9 -7)" style="fill:#dedfe2"/><path d="M39.87,73c4,0,7.61-4,10.22-10.23a57.12,57.12,0,0,1-10.68-4.24A59.54,59.54,0,0,1,29.35,62c2.62,6.7,6.4,11,10.52,11Zm0,0" transform="translate(-10.9 -7)" style="fill:#dedfe2"/><g style="clip-path:url(#clip-path)"><path d="M26.29,50a56.2,56.2,0,0,0,2.4,10.22,54.82,54.82,0,0,0,8.57-2.84,74.76,74.76,0,0,1-6.65-4.16c-1.51-1-2.95-2.12-4.32-3.22Zm0,0" transform="translate(-10.9 -7)" style="fill:#dedfe2"/><path d="M21.17,61.19a30.89,30.89,0,0,0,5.59-.56A58.65,58.65,0,0,1,24.14,48.2,62.32,62.32,0,0,1,17,40.91a37.59,37.59,0,0,0-2.4,3.2c-3.69,5.51-4.66,10.26-2.71,13.37s6.11,3.71,9.29,3.71Zm0,0" transform="translate(-10.9 -7)" style="fill:#dedfe2"/></g><path d="M61.42,40.55a59.08,59.08,0,0,0-5.57-5.95C56,36.36,56,38.16,56,40c0,2-.09,4-.23,6a58.8,58.8,0,0,0,5.61-5.44Zm0,0" transform="translate(-10.9 -7)" style="fill:#dedfe2"/><path d="M18.28,39.4a57.8,57.8,0,0,0,5.61,6c-.13-1.76-.19-3.56-.19-5.4,0-2.06.09-4.08.24-6a57,57,0,0,0-5.66,5.44Zm0,0" transform="translate(-10.9 -7)" style="fill:#dedfe2"/><g style="clip-path:url(#clip-path)"><path d="M49.13,26.74c1.5,1.06,2.95,2.14,4.32,3.25a56.93,56.93,0,0,0-2.39-10.23,56,56,0,0,0-8.58,2.83c2.28,1.27,4.5,2.66,6.65,4.15Zm0,0" transform="translate(-10.9 -7)" style="fill:#dedfe2"/><path d="M62.72,39.05c5.31-6.43,7.54-12.68,5.13-16.54-1.92-3.06-6.1-3.71-9.28-3.71a30.69,30.69,0,0,0-5.58.56A59.41,59.41,0,0,1,55.63,31.8a62.25,62.25,0,0,1,7.09,7.25Zm0,0" transform="translate(-10.9 -7)" style="fill:#dedfe2"/></g><path d="M50.41,18C47.78,11.28,44,7,39.87,7c-4,0-7.61,4-10.22,10.23a55.78,55.78,0,0,1,10.68,4.24A58,58,0,0,1,50.41,18Zm0,0" transform="translate(-10.9 -7)" style="fill:#dedfe2"/><g style="clip-path:url(#clip-path)"><path d="M31.3,26.28a77.54,77.54,0,0,1,6.87-3.77A53.35,53.35,0,0,0,29,19,55.17,55.17,0,0,0,26.34,29.7c1.58-1.19,3.24-2.33,5-3.42Zm0,0" transform="translate(-10.9 -7)" style="fill:#dedfe2"/><path d="M24.2,31.32a57.94,57.94,0,0,1,2.85-12.8,28.65,28.65,0,0,0-5.91-.69c-2.75,0-6.44.57-8.32,3.26-2.6,3.74-.69,10.11,4.3,16.81a60.38,60.38,0,0,1,7.08-6.58Zm0,0" transform="translate(-10.9 -7)" style="fill:#dedfe2"/></g></g><circle cx="29.1" cy="33" r="7.97" style="fill:#dedfe2;opacity:0.6000000000000001"/></svg>