<svg id="Layer_5" data-name="Layer 5" xmlns="http://www.w3.org/2000/svg" xmlns:xlink="http://www.w3.org/1999/xlink" viewBox="0 0 200 72"><defs><clipPath id="clip-path"><path id="path8" d="M121.69,69h19.36a4.55,4.55,0,0,0,4.65-4.46V15.1a4.56,4.56,0,0,0-4.64-4.46H60.3a4.56,4.56,0,0,0-4.64,4.46V64.53A4.56,4.56,0,0,0,60.3,69h61.39" style="fill:none"/></clipPath></defs><title>INVITE FRIEND-02</title><path d="M143.12,31.53a10.26,10.26,0,0,0,8.93-5.33c2.92-5.53-2.4-8.73,2.84-12.6s12-1.89,18.88-3.29S183.58,2.45,185,3s1.87,13.62-18.42,16c0,0,9-.36,13.1-1.55s3.51,4.27-2.74,6.81a22.35,22.35,0,0,1-12.7.84s5.22,2.16,9.08,2.12-3.63,8.82-13,2.81c0,0,1.58,1.63,3.25,3.17s-5.27,4.23-9.32-.15c0,0,1.75,2.29,1.64,3.61s-4.76,3-7.61-.93c0,0,.64,2.61-.8,3.16s-3.41,1.14-4.87-2A5.19,5.19,0,0,1,143.12,31.53Z" style="fill:#de4a4a;opacity:0.6000000000000001"/><path d="M56.88,33.22A10.24,10.24,0,0,1,48,27.89c-2.92-5.52,2.4-8.72-2.84-12.6s-12-1.88-18.88-3.28S16.42,4.15,15,4.74s-1.87,13.62,18.42,16c0,0-9-.36-13.1-1.56S16.82,23.49,23.07,26a22.3,22.3,0,0,0,12.7.83S30.55,29,26.69,29s3.63,8.81,13,2.81c0,0-1.58,1.63-3.25,3.17s5.27,4.23,9.32-.15c0,0-1.75,2.29-1.64,3.61s4.76,3,7.61-.93c0,0-.64,2.61.8,3.15s3.41,1.15,4.87-2A5.21,5.21,0,0,0,56.88,33.22Z" style="fill:#de4a4a;opacity:0.6000000000000001"/><g style="clip-path:url(#clip-path)"><g id="g20"><path id="path8-2" data-name="path8" d="M121.67,69l24,0V10.64h-90V69h66" style="fill:#fac2c2"/><path id="path10" d="M121.67,53.5l-66-42.86h90V69" style="fill:#f05050;opacity:0.35000000000000003"/><path id="path12" d="M107.59,37A11.32,11.32,0,0,0,93.5,37L55.65,69h90.07L107.59,37" style="fill:#de4a4a;opacity:0.6"/><path id="path16" d="M55.65,10.64l38,32a11.32,11.32,0,0,0,14.09,0l38-32Z" style="fill:#f8e9e9"/></g></g></svg>