<svg id="Layer_1" data-name="Layer 1" xmlns="http://www.w3.org/2000/svg" xmlns:xlink="http://www.w3.org/1999/xlink" viewBox="0 0 93.84 86.37"><defs><linearGradient id="linear-gradient" y1="43.19" x2="86.37" y2="43.19" gradientUnits="userSpaceOnUse"><stop offset="0" stop-color="#f05050"/><stop offset="0.28" stop-color="#ec4f4f"/><stop offset="0.56" stop-color="#e04b4b"/><stop offset="0.84" stop-color="#c44"/><stop offset="1" stop-color="#bd3f3f"/></linearGradient><radialGradient id="radial-gradient" cx="76.08" cy="-17.2" r="14.37" gradientTransform="translate(11.78 51.64) scale(0.96)" gradientUnits="userSpaceOnUse"><stop offset="0" stop-color="#636363"/><stop offset="0.28" stop-color="#5f6060"/><stop offset="0.54" stop-color="#545555"/><stop offset="0.79" stop-color="#424344"/><stop offset="1" stop-color="#2c2e2f"/></radialGradient></defs><title>pagename</title><circle cx="43.19" cy="43.19" r="43.19" style="opacity:0.8;fill:url(#linear-gradient)"/><ellipse cx="43.19" cy="43.19" rx="16.65" ry="43.19" style="fill:#fff;opacity:0.30000000000000004"/><ellipse cx="43.19" cy="43.19" rx="43.19" ry="10.5" style="fill:#fff;opacity:0.30000000000000004"/><g style="opacity:0.75"><path d="M96.92,31.66c0,9.6-10.83,18.48-10.83,18.48a1.89,1.89,0,0,1-2.3,0S73,41.26,73,31.66a12,12,0,0,1,24,0Z" transform="translate(-3.08 -6.81)" style="fill:url(#radial-gradient)"/><path d="M84.94,37.69a6,6,0,1,1,6-6A6,6,0,0,1,84.94,37.69Z" transform="translate(-3.08 -6.81)" style="fill:#fff;opacity:0.7000000000000001"/></g></svg>