<svg id="Layer_1" data-name="Layer 1" xmlns="http://www.w3.org/2000/svg" viewBox="0 0 131.98 37.13">
  <title>studylogo</title>
  <g>
    <polygon points="28.18 6.93 23.37 6.93 19.25 6.93 14.45 6.93 14.45 11.04 19.25 11.04 19.25 37.13 23.37 37.13 23.37 11.04 28.18 11.04 28.18 6.93" style="fill: #323742"/>
    <path d="M56.61,11.36H49.75v30.2h6.86a6.88,6.88,0,0,0,6.87-6.87h0V18.23A6.88,6.88,0,0,0,56.61,11.36ZM59.36,34.7a2.74,2.74,0,0,1-2.74,2.74H53.87v-22h2.75a2.74,2.74,0,0,1,2.74,2.74Z" transform="translate(-3.01 -4.44)" style="fill: #323742"/>
    <polygon points="70.08 6.93 67.33 16.37 64.59 6.93 60.47 6.93 65.47 22.03 65.47 37.13 69.2 37.13 69.2 22.03 74.2 6.93 70.08 6.93" style="fill: #323742"/>
    <path d="M15.71,30.26a21.77,21.77,0,0,0-4.64-5.9A21.86,21.86,0,0,1,8.5,21.49a6.87,6.87,0,0,1-1.4-3.25,2.74,2.74,0,0,1,5.48-.08l2.53-4.3A6.87,6.87,0,0,0,3,18.22H3c.23,2.92,2.19,6,5.62,9.28a17,17,0,0,1,2.7,3.23,8,8,0,0,1,1.27,3.65,2.75,2.75,0,0,1-5.45.68,2.51,2.51,0,0,1,0-.67L4.46,38.91a6.85,6.85,0,0,0,12.27-4.22v-.31A10.69,10.69,0,0,0,15.71,30.26Z" transform="translate(-3.01 -4.44)" style="fill: #323742"/>
    <path d="M82,34.36a8.14,8.14,0,0,1,1.26-3.65A17.41,17.41,0,0,1,86,27.48c3.43-3.26,5.4-6.35,5.63-9.27h0a6.87,6.87,0,0,0-13.73,0H82a2.74,2.74,0,0,1,5.48,0,7,7,0,0,1-1.39,3.25,22.59,22.59,0,0,1-2.58,2.86,22.88,22.88,0,0,0-4.64,5.9,10.86,10.86,0,0,0-1,4.12v3.08h0v4.13H91.6V37.42H82Z" transform="translate(-3.01 -4.44)" style="fill: #323742"/>
    <path d="M103.65,27.83h-1V11.29H98.59L90,27.84v4.1h8.63v9.55h4.12V31.94h.94Zm-9.61,0,4.55-8.27v8.27Z" transform="translate(-3.01 -4.44)" style="fill: #323742"/>
    <polygon points="115.83 6.85 111.45 6.85 108.97 10.86 106.49 6.85 102.11 6.85 106.78 14.4 102.11 21.95 106.49 21.95 108.97 17.94 111.45 21.95 115.83 21.95 111.17 14.4 115.83 6.85" style="fill: #323742"/>
    <polygon points="118.26 6.85 118.26 10.97 127.87 10.97 118.26 37.05 122.38 37.05 131.98 10.97 131.98 6.85 118.26 6.85" style="fill: #323742"/>
    <polygon points="34.68 4.25 37.28 0 39.87 4.26 34.68 4.25" style="fill: #323843"/>
    <path d="M46.64,13.51l-1.89-2.44-1.91,2.46V35.19a2.55,2.55,0,0,1-5.1,0V13.53h0l-1.93-2.47-1.89,2.47V35.19a6.37,6.37,0,0,0,12.74,0V13.53Z" transform="translate(-3.01 -4.44)" style="fill: #f05151"/>
  </g>
</svg>
