<svg xmlns="http://www.w3.org/2000/svg" viewBox="0 0 18 18"><defs><style>.cls-1{fill:#f05050;}</style></defs><title>STUDY2</title>
<g id="Layer_117" data-name="Layer 117">
<path class="cls-1" d="M13.17,6.16,10.11,10,7.5,8.1a.58.58,0,0,1-.13-.8.58.58,0,0,1,.8-.12L9.9,8.45l2.38-3a.57.57,0,0,1,.89.71Z" transform="translate(-0.94 -1.05)" style="fill:#2c2e2f;fill-opacity:0.8;"/>
<path class="cls-1" d="M15.76,10.81a6.38,6.38,0,1,0-11.1-.28L.94,15.15,4.12,16l1.42,3.09,3.72-5.19a7,7,0,0,0,1,.09,5.37,5.37,0,0,0,.7,0L14,19l1.68-2.95,3.23-.53ZM5.74,17l-.88-1.92-2.09-.53,2.49-3.09a6.3,6.3,0,0,0,2.92,2.13Zm4.62-4.14h-.07a2.85,2.85,0,0,1-.29,0A5.32,5.32,0,0,1,5.41,9.6,5.43,5.43,0,0,1,5,7.5a5.31,5.31,0,1,1,10.61,0,5.41,5.41,0,0,1-.52,2.28A5.31,5.31,0,0,1,10.36,12.85Zm4.69,2.28L14,17l-1.94-3.28a6.45,6.45,0,0,0,3-2l2.06,3.07Z" transform="translate(-0.94 -1.05)" style="fill:#2c2e2f;fill-opacity:0.8;"/>
<path class="cls-1" d="M12.28,5.45l-2.38,3L8.17,7.18a.58.58,0,0,0-.8.12.58.58,0,0,0,.13.8L10.11,10l3.06-3.85a.57.57,0,0,0-.89-.71Z" transform="translate(-0.94 -1.05)" style="fill:#2c2e2f;fill-opacity:0.8;"/>
</g>
</svg>