<svg id="Layer_2" data-name="Layer 2" xmlns="http://www.w3.org/2000/svg" xmlns:xlink="http://www.w3.org/1999/xlink" viewBox="0 0 93.93 56.69"><defs><linearGradient id="linear-gradient" x1="-984.19" y1="1742.39" x2="-910.13" y2="1699.63" gradientTransform="translate(995.77 -1666.47)" gradientUnits="userSpaceOnUse"><stop offset="0" stop-color="#f05050"/><stop offset="0.28" stop-color="#ec4f4f"/><stop offset="0.56" stop-color="#e04b4b"/><stop offset="0.84" stop-color="#c44"/><stop offset="1" stop-color="#bd3f3f"/></linearGradient><linearGradient id="linear-gradient-2" x1="3.03" y1="25.41" x2="96.97" y2="25.41" gradientTransform="translate(24.59 75.41) rotate(-90)" xlink:href="#linear-gradient"/></defs><title>cover image</title><path d="M26.57,7.95H67.88a5.55,5.55,0,0,1,5.55,5.55V96.32a5.55,5.55,0,0,1-5.55,5.55H26.57a0,0,0,0,1,0,0V7.95A0,0,0,0,1,26.57,7.95Z" transform="translate(101.88 -16.75) rotate(90)" style="opacity:0.8;fill:url(#linear-gradient)"/><path d="M51.79-21.56h2a0,0,0,0,1,0,0V72.38a0,0,0,0,1,0,0h-2a5.54,5.54,0,0,1-5.54-5.54V-16a5.54,5.54,0,0,1,5.54-5.54Z" transform="translate(72.38 -46.25) rotate(90)" style="opacity:0.30000000000000004;fill:url(#linear-gradient-2)"/><circle cx="47" cy="33.92" r="11.59" style="fill:#fff;opacity:0.5"/><rect x="55.9" y="71.24" width="9.31" height="2.71" rx="1" ry="1" transform="translate(118.07 123.54) rotate(-180)" style="fill:#fff;opacity:0.5"/><rect x="45.34" y="71.24" width="9.31" height="2.71" rx="1" ry="1" transform="translate(96.97 123.54) rotate(-180)" style="fill:#fff;opacity:0.5"/><rect x="34.79" y="71.24" width="9.31" height="2.71" rx="1" ry="1" transform="translate(75.86 123.54) rotate(-180)" style="fill:#fff;opacity:0.5"/></svg>