<svg id="Layer_1" data-name="Layer 1" xmlns="http://www.w3.org/2000/svg" xmlns:xlink="http://www.w3.org/1999/xlink" viewBox="0 0 176.26 150"><defs><clipPath id="clip-path" transform="translate(-11.87 -25)"><rect x="37.6" y="47.1" width="100.71" height="126.56" rx="7" ry="7" transform="translate(198.33 22.42) rotate(90)" style="fill:none"/></clipPath><clipPath id="clip-path-2" transform="translate(-11.87 -25)"><path d="M182.78,41.66H171.47V30.36a5.36,5.36,0,1,0-10.71,0v11.3H149.45a5.36,5.36,0,0,0,0,10.71h11.31V63.68a5.36,5.36,0,0,0,10.71,0V52.37h11.31a5.36,5.36,0,0,0,0-10.71Z" style="fill:none"/></clipPath></defs><title>upload image</title><g style="opacity:0.2"><rect x="30.51" y="54.23" width="100.71" height="126.56" rx="7" ry="7" transform="translate(186.51 11.65) rotate(90)" style="fill:#f05050"/></g><g style="opacity:0.1"><rect x="24.8" y="61.37" width="100.71" height="126.56" rx="7" ry="7" transform="translate(187.93 24.5) rotate(90)" style="fill:#f05050"/></g><g style="opacity:0.7000000000000001"><g style="clip-path:url(#clip-path)"><polygon points="23.71 35.02 12.81 41.32 12.81 35.02 23.71 35.02" style="fill:#f05050"/><polygon points="29.18 35.02 12.81 44.48 12.81 41.32 23.71 35.02 29.18 35.02" style="fill:#f05050"/><polygon points="34.66 35.02 12.81 47.64 12.81 44.48 29.18 35.02 34.66 35.02" style="fill:#f05050"/><polygon points="40.13 35.02 12.81 50.8 12.81 47.64 34.66 35.02 40.13 35.02" style="fill:#f05050"/><polygon points="45.6 35.02 12.81 53.96 12.81 50.8 40.13 35.02 45.6 35.02" style="fill:#f05050"/><polygon points="51.08 35.02 12.81 57.12 12.81 53.96 45.6 35.02 51.08 35.02" style="fill:#f05050"/><polygon points="56.55 35.02 12.81 60.28 12.81 57.12 51.08 35.02 56.55 35.02" style="fill:#f05050"/><polygon points="62.03 35.02 12.81 63.44 12.81 60.28 56.55 35.02 62.03 35.02" style="fill:#ef5050"/><polygon points="67.5 35.02 12.81 66.6 12.81 63.44 62.03 35.02 67.5 35.02" style="fill:#ef5050"/><polygon points="72.98 35.02 12.81 69.76 12.81 66.6 67.5 35.02 72.98 35.02" style="fill:#ef5050"/><polygon points="78.45 35.02 12.81 72.92 12.81 69.76 72.98 35.02 78.45 35.02" style="fill:#ee4f4f"/><polygon points="83.92 35.02 12.81 76.08 12.81 72.92 78.45 35.02 83.92 35.02" style="fill:#ee4f4f"/><polygon points="89.4 35.02 12.81 79.24 12.81 76.08 83.92 35.02 89.4 35.02" style="fill:#ee4f4f"/><polygon points="94.87 35.02 12.81 82.41 12.81 79.24 89.4 35.02 94.87 35.02" style="fill:#ed4f4f"/><polygon points="100.35 35.02 12.81 85.57 12.81 82.41 94.87 35.02 100.35 35.02" style="fill:#ed4f4f"/><polygon points="105.82 35.02 12.81 88.73 12.81 85.57 100.35 35.02 105.82 35.02" style="fill:#ec4f4f"/><polygon points="111.3 35.02 12.81 91.89 12.81 88.73 105.82 35.02 111.3 35.02" style="fill:#eb4e4e"/><polygon points="116.77 35.02 12.81 95.05 12.81 91.89 111.3 35.02 116.77 35.02" style="fill:#eb4e4e"/><polygon points="122.24 35.02 12.81 98.21 12.81 95.05 116.77 35.02 122.24 35.02" style="fill:#ea4e4e"/><polygon points="127.72 35.02 12.81 101.37 12.81 98.21 122.24 35.02 127.72 35.02" style="fill:#e94e4e"/><polygon points="133.19 35.02 12.81 104.53 12.81 101.37 127.72 35.02 133.19 35.02" style="fill:#e94e4e"/><polygon points="138.67 35.02 12.81 107.69 12.81 104.53 133.19 35.02 138.67 35.02" style="fill:#e84d4d"/><polygon points="139.37 37.78 12.81 110.85 12.81 107.69 138.67 35.02 139.37 35.02 139.37 37.78" style="fill:#e74d4d"/><polygon points="139.37 40.94 12.81 114.01 12.81 110.85 139.37 37.78 139.37 40.94" style="fill:#e64d4d"/><polygon points="139.37 44.1 12.81 117.17 12.81 114.01 139.37 40.94 139.37 44.1" style="fill:#e54c4c"/><polygon points="139.37 47.26 12.81 120.33 12.81 117.17 139.37 44.1 139.37 47.26" style="fill:#e44c4c"/><polygon points="139.37 50.42 12.81 123.49 12.81 120.33 139.37 47.26 139.37 50.42" style="fill:#e34c4c"/><polygon points="139.37 53.58 12.81 126.65 12.81 123.49 139.37 50.42 139.37 53.58" style="fill:#e24b4b"/><polygon points="139.37 56.74 12.81 129.81 12.81 126.65 139.37 53.58 139.37 56.74" style="fill:#e14b4b"/><polygon points="139.37 59.9 12.81 132.97 12.81 129.81 139.37 56.74 139.37 59.9" style="fill:#e04b4b"/><polygon points="139.37 63.06 13.51 135.73 12.81 135.73 12.81 132.97 139.37 59.9 139.37 63.06" style="fill:#df4a4a"/><polygon points="139.37 66.22 18.98 135.73 13.51 135.73 139.37 63.06 139.37 66.22" style="fill:#de4a4a"/><polygon points="139.37 69.39 24.46 135.73 18.98 135.73 139.37 66.22 139.37 69.39" style="fill:#dc4949"/><polygon points="139.37 72.55 29.93 135.73 24.46 135.73 139.37 69.39 139.37 72.55" style="fill:#db4949"/><polygon points="139.37 75.71 35.41 135.73 29.93 135.73 139.37 72.55 139.37 75.71" style="fill:#da4949"/><polygon points="139.37 78.87 40.88 135.73 35.41 135.73 139.37 75.71 139.37 78.87" style="fill:#d94848"/><polygon points="139.37 82.03 46.35 135.73 40.88 135.73 139.37 78.87 139.37 82.03" style="fill:#d74848"/><polygon points="139.37 85.19 51.83 135.73 46.35 135.73 139.37 82.03 139.37 85.19" style="fill:#d64747"/><polygon points="139.37 88.35 57.3 135.73 51.83 135.73 139.37 85.19 139.37 88.35" style="fill:#d44747"/><polygon points="139.37 91.51 62.78 135.73 57.3 135.73 139.37 88.35 139.37 91.51" style="fill:#d34646"/><polygon points="139.37 94.67 68.25 135.73 62.78 135.73 139.37 91.51 139.37 94.67" style="fill:#d14646"/><polygon points="139.37 97.83 73.72 135.73 68.25 135.73 139.37 94.67 139.37 97.83" style="fill:#cf4545"/><polygon points="139.37 100.99 79.2 135.73 73.72 135.73 139.37 97.83 139.37 100.99" style="fill:#ce4545"/><polygon points="139.37 104.15 84.67 135.73 79.2 135.73 139.37 100.99 139.37 104.15" style="fill:#c44"/><polygon points="139.37 107.31 90.15 135.73 84.67 135.73 139.37 104.15 139.37 107.31" style="fill:#ca4343"/><polygon points="139.37 110.47 95.62 135.73 90.15 135.73 139.37 107.31 139.37 110.47" style="fill:#c94343"/><polygon points="139.37 113.63 101.1 135.73 95.62 135.73 139.37 110.47 139.37 113.63" style="fill:#c74242"/><polygon points="139.37 116.79 106.57 135.73 101.1 135.73 139.37 113.63 139.37 116.79" style="fill:#c54242"/><polygon points="139.37 119.95 112.05 135.73 106.57 135.73 139.37 116.79 139.37 119.95" style="fill:#c34141"/><polygon points="139.37 123.11 117.52 135.73 112.05 135.73 139.37 119.95 139.37 123.11" style="fill:#c14040"/><polygon points="139.37 126.28 122.99 135.73 117.52 135.73 139.37 123.11 139.37 126.28" style="fill:#bf4040"/><polygon points="139.37 129.44 128.47 135.73 122.99 135.73 139.37 126.28 139.37 129.44" style="fill:#bd3f3f"/><polygon points="128.47 135.73 139.37 129.44 139.37 135.73 128.47 135.73" style="fill:#bd3f3f"/></g></g><g style="opacity:0.6000000000000001"><path d="M87.9,140.37a27.8,27.8,0,1,1,5.53-.56A28,28,0,0,1,87.9,140.37ZM88,87.13a26,26,0,0,0-5.11.51A25.47,25.47,0,1,0,88,87.13Z" transform="translate(-11.87 -25)" style="fill:#fff"/></g><g style="opacity:0.6000000000000001"><circle cx="82.44" cy="92.76" r="9.51" style="fill:#fff"/></g><g style="opacity:0.6000000000000001"><g style="clip-path:url(#clip-path-2)"><rect x="132.23" width="44.04" height="44.03" style="fill:#2c2e2f"/><circle cx="154.25" cy="22.02" r="22.02" style="fill:#2c2e2f"/><circle cx="154.25" cy="22.02" r="21.62" style="fill:#2e3031"/><circle cx="154.25" cy="22.02" r="21.22" style="fill:#303233"/><circle cx="154.25" cy="22.02" r="20.82" style="fill:#323435"/><circle cx="154.25" cy="22.02" r="20.42" style="fill:#343637"/><circle cx="154.25" cy="22.02" r="20.02" style="fill:#363839"/><circle cx="154.25" cy="22.02" r="19.62" style="fill:#383a3b"/><circle cx="154.25" cy="22.02" r="19.22" style="fill:#3a3c3c"/><circle cx="154.25" cy="22.02" r="18.82" style="fill:#3c3d3e"/><circle cx="154.25" cy="22.02" r="18.41" style="fill:#3e3f40"/><circle cx="154.25" cy="22.02" r="18.01" style="fill:#404142"/><circle cx="154.25" cy="22.02" r="17.61" style="fill:#414343"/><circle cx="154.25" cy="22.02" r="17.21" style="fill:#434445"/><circle cx="154.25" cy="22.02" r="16.81" style="fill:#454646"/><circle cx="154.25" cy="22.02" r="16.41" style="fill:#464748"/><circle cx="154.25" cy="22.02" r="16.01" style="fill:#484949"/><circle cx="154.25" cy="22.02" r="15.61" style="fill:#494a4b"/><circle cx="154.25" cy="22.02" r="15.21" style="fill:#4b4c4c"/><circle cx="154.25" cy="22.02" r="14.81" style="fill:#4c4d4d"/><circle cx="154.25" cy="22.02" r="14.41" style="fill:#4d4e4f"/><circle cx="154.25" cy="22.02" r="14.01" style="fill:#4f4f50"/><circle cx="154.25" cy="22.02" r="13.61" style="fill:#505151"/><circle cx="154.25" cy="22.02" r="13.21" style="fill:#515252"/><circle cx="154.25" cy="22.02" r="12.81" style="fill:#525353"/><circle cx="154.25" cy="22.02" r="12.41" style="fill:#535454"/><circle cx="154.25" cy="22.02" r="12.01" style="fill:#555"/><circle cx="154.25" cy="22.02" r="11.61" style="fill:#565656"/><circle cx="154.25" cy="22.02" r="11.21" style="fill:#575757"/><circle cx="154.25" cy="22.02" r="10.81" style="fill:#585858"/><circle cx="154.25" cy="22.02" r="10.41" style="fill:#595959"/><circle cx="154.25" cy="22.02" r="10.01" style="fill:#595a5a"/><circle cx="154.25" cy="22.02" r="9.61" style="fill:#5a5b5b"/><circle cx="154.25" cy="22.02" r="9.21" style="fill:#5b5b5b"/><circle cx="154.25" cy="22.02" r="8.81" style="fill:#5c5c5c"/><circle cx="154.25" cy="22.02" r="8.41" style="fill:#5d5d5d"/><circle cx="154.25" cy="22.02" r="8.01" style="fill:#5d5d5e"/><circle cx="154.25" cy="22.02" r="7.61" style="fill:#5e5e5e"/><circle cx="154.25" cy="22.02" r="7.21" style="fill:#5e5f5f"/><circle cx="154.25" cy="22.02" r="6.81" style="fill:#5f5f5f"/><circle cx="154.25" cy="22.02" r="6.41" style="fill:#606060"/><circle cx="154.25" cy="22.02" r="6" style="fill:#606060"/><circle cx="154.25" cy="22.02" r="5.6" style="fill:#606161"/><circle cx="154.25" cy="22.02" r="5.2" style="fill:#616161"/><circle cx="154.25" cy="22.02" r="4.8" style="fill:#616161"/><circle cx="154.25" cy="22.02" r="4.4" style="fill:#626262"/><circle cx="154.25" cy="22.02" r="4" style="fill:#626262"/><circle cx="154.25" cy="22.02" r="3.6" style="fill:#626262"/><circle cx="154.25" cy="22.02" r="3.2" style="fill:#626262"/><circle cx="154.25" cy="22.02" r="2.8" style="fill:#636363"/><circle cx="154.25" cy="22.02" r="2.4" style="fill:#636363"/><circle cx="154.25" cy="22.02" r="2" style="fill:#636363"/><circle cx="154.25" cy="22.02" r="1.6" style="fill:#636363"/><circle cx="154.25" cy="22.02" r="1.2" style="fill:#636363"/><circle cx="154.25" cy="22.02" r="0.8" style="fill:#636363"/><circle cx="154.25" cy="22.02" r="0.4" style="fill:#636363"/></g></g></svg>