<svg xmlns="http://www.w3.org/2000/svg" width="121" height="118" viewBox="0 0 121 118">
    <defs>
        <clipPath id="prefix__clip-path">
            <ellipse id="prefix__Ellipse_5" cx="60.5" cy="59" fill="#fff" stroke="#707070" data-name="Ellipse 5" rx="60.5" ry="59" transform="translate(131.359 389.359)"/>
        </clipPath>
        <style>
            .prefix__cls-4{opacity:.4}.prefix__cls-5,.prefix__cls-7{fill:#f05050}.prefix__cls-6,.prefix__cls-7{opacity:.5}.prefix__cls-7{stroke:#f05050;stroke-miterlimit:10;stroke-width:.6px}.prefix__cls-8{fill:#231f20;opacity:.25;mix-blend-mode:multiply;isolation:isolate}
        </style>
    </defs>
    <g id="prefix__Group_51" data-name="Group 51" transform="translate(-123 -388)">
        <circle id="prefix__Ellipse_6" cx="42" cy="42" r="42" fill="rgba(240,80,80,0.15)" data-name="Ellipse 6" transform="translate(138 417)"/>
        <g id="prefix__Mask_Group_2" clip-path="url(#prefix__clip-path)" data-name="Mask Group 2" transform="translate(-8.359 -1.359)">
            <g id="prefix__Group_45" data-name="Group 45" transform="translate(95.708 397.457)">
                <g id="prefix__Group_30" class="prefix__cls-4" data-name="Group 30" transform="translate(100.085 36.8)">
                    <path id="prefix__Path_1517" d="M275.489 264.563c-.545.067-1.09.146-1.629.243-.706.124-1.408.275-2.1.446a31.649 31.649 0 0 0-4.34 1.407l-.242.121a.106.106 0 0 1-.061.079 12.735 12.735 0 0 0-1.339.738c-.157.1-.31.216-.466.317a30.763 30.763 0 0 1 6.743-2.458c.951-.227 1.915-.41 2.884-.547.569-.082 1.138-.15 1.707-.2.507-.042 1.017-.084 1.527-.091l1.314-.015-.043-.056a1.087 1.087 0 0 0-.213-.212c-.78-.013-1.555.032-2.334.088-.473.03-.941.077-1.408.14z" class="prefix__cls-5" data-name="Path 1517" transform="translate(-265.012 -261.42)"/>
                    <path id="prefix__Path_1518" d="M276.02 262.649c-.316.033-.635.051-.951.089-.474.057-.947.119-1.421.194-.613.1-1.223.211-1.83.343a31.41 31.41 0 0 0-3.607 1.016c-.127.044-.255.089-.383.136-.166.078-.329.159-.494.24-.4.193-.812.351-1.215.532a6.918 6.918 0 0 0-1.221.658c-.1.074-.2.168-.3.254.036-.016.068-.031.1-.05a28.532 28.532 0 0 1 2.776-1.219 31.31 31.31 0 0 1 3.834-1.176c.535-.126 1.07-.244 1.612-.338.337-.057.676-.117 1.013-.168s.679-.1 1.019-.139c.277-.032.555-.055.832-.081q.939-.089 1.885-.112c.379-.01.761-.011 1.141 0a3.815 3.815 0 0 0-.943-.264c-.284.005-.564.01-.848.025-.334.011-.668.027-.999.06z" class="prefix__cls-5" data-name="Path 1518" transform="translate(-264.601 -260.387)"/>
                    <path id="prefix__Path_1519" d="M275.716 266.36c-.435.056-.867.118-1.3.192-.658.111-1.316.246-1.967.4a31.748 31.748 0 0 0-4.415 1.376.111.111 0 0 1-.056.025h-.015l-.021.01c-.24.1-.48.194-.72.3l-.186.111c-.278.167-.568.313-.845.483a5.538 5.538 0 0 0-.894.585.355.355 0 0 0-.03.031.288.288 0 0 0 .071-.028c.05-.025.1-.05.148-.078a30.021 30.021 0 0 1 3.46-1.5 32.4 32.4 0 0 1 3.454-1.031q.954-.229 1.919-.395c.417-.073.834-.141 1.251-.188s.823-.1 1.234-.142c.459-.042.921-.086 1.384-.1l1.194-.022h.239a.244.244 0 0 0 .069-.013.065.065 0 0 0 .029-.033.344.344 0 0 0 0-.165.066.066 0 0 0-.049-.047.786.786 0 0 0-.12-.01c-.836 0-1.671.034-2.506.1-.444.036-.884.079-1.328.139z" class="prefix__cls-5" data-name="Path 1519" transform="translate(-264.989 -262.458)"/>
                    <path id="prefix__Path_1520" d="M274.2 261.014c-.426.056-.852.117-1.275.191-.572.1-1.143.216-1.708.346-.97.221-1.926.491-2.87.8a.1.1 0 0 1-.082.058 2.474 2.474 0 0 0-.3.068l-.294.1c-.222.091-.442.2-.667.291a9.771 9.771 0 0 0-1.23.505 7.515 7.515 0 0 0-1.07.742c.044-.018.089-.04.133-.059.589-.287 1.184-.549 1.792-.791a31.081 31.081 0 0 1 5.53-1.645c.774-.152 1.551-.283 2.334-.376l.569-.064c.426-.047.856-.085 1.285-.107.247-.013.493-.024.7-.034.334-.006.63-.015.922-.017.262 0 .526 0 .791.006a2.549 2.549 0 0 0-.361-.1 5.778 5.778 0 0 0-.737-.166h-.1c-.687 0-1.37.043-2.053.1-.44.05-.875.096-1.309.152z" class="prefix__cls-5" data-name="Path 1520" transform="translate(-264.66 -259.341)"/>
                    <path id="prefix__Path_1521" d="M276.075 259.124c-.262.032-.525.048-.784.08-.551.07-1.1.149-1.653.246-.676.121-1.345.259-2.011.421q-1.427.345-2.81.822c-.3.122-.587.263-.886.378a5.554 5.554 0 0 0-1.143.546c-.248.169-.5.33-.753.487a.784.784 0 0 1 .071-.034c.409-.175.815-.363 1.227-.532a30.249 30.249 0 0 1 4.15-1.356c.595-.149 1.193-.282 1.8-.39.351-.063.706-.127 1.06-.184.3-.047.6-.086.9-.124.253-.032.507-.054.76-.08q.7-.076 1.4-.107c.3-.012.606-.02.907-.026.433-.008.869-.013 1.3 0l-.2-.086a3.163 3.163 0 0 0-1.231-.175c-.122 0-.245 0-.367-.005-.182.007-.364.016-.546.025-.398.028-.794.045-1.191.094z" class="prefix__cls-5" data-name="Path 1521" transform="translate(-265.437 -258.318)"/>
                    <path id="prefix__Path_1522" d="M277.539 268.046c-.5.048-1 .108-1.493.177s-.977.15-1.462.243c-.663.126-1.323.276-1.981.444a32.252 32.252 0 0 0-4.277 1.424.123.123 0 0 1-.053.04 9.944 9.944 0 0 0-1.806.98 3.172 3.172 0 0 0-.359.292 1.229 1.229 0 0 0 .133-.063 29.915 29.915 0 0 1 3.7-1.593 31.964 31.964 0 0 1 3.669-1.056c.473-.1.949-.2 1.428-.29.36-.063.723-.121 1.084-.173s.742-.091 1.115-.135c.444-.053.888-.088 1.333-.111.486-.027.97-.056 1.457-.057h.071c.071 0 .1-.029.1-.1a.519.519 0 0 0-.005-.1.052.052 0 0 0-.043-.051.781.781 0 0 0-.143-.006l-.994.018c-.537.043-1.005.071-1.474.117z" class="prefix__cls-5" data-name="Path 1522" transform="translate(-265.478 -263.503)"/>
                    <path id="prefix__Path_1523" d="M272.972 257.7c-.589.1-1.173.216-1.755.347-.836.189-1.665.411-2.481.668a.1.1 0 0 1-.121.1 2.274 2.274 0 0 0-.938.326 9.745 9.745 0 0 0-1.263.638 6.308 6.308 0 0 1-.683.345.115.115 0 0 0 .015 0c.039-.013.074-.031.11-.047a30.023 30.023 0 0 1 4.537-1.552c.672-.171 1.347-.324 2.029-.448.369-.066.735-.13 1.107-.188q.474-.072.948-.125c.268-.032.54-.055.808-.081.477-.051.951-.081 1.428-.1a25.646 25.646 0 0 1 2.629.018.256.256 0 0 0 .051 0 2.174 2.174 0 0 0-.681-.143 7.308 7.308 0 0 0-1.178-.059 14.172 14.172 0 0 1-1.509-.041c-.576.038-1.151.093-1.726.16-.445.043-.889.107-1.327.182z" class="prefix__cls-5" data-name="Path 1523" transform="translate(-265.258 -257.356)"/>
                    <path id="prefix__Path_1524" d="M278.393 269.834c-.411.043-.823.09-1.234.145s-.819.114-1.227.184c-.714.124-1.422.275-2.127.444a32.016 32.016 0 0 0-4.471 1.44.1.1 0 0 1-.089.034c-.243.1-.486.2-.729.307-.03.013-.059.026-.089.041a7.775 7.775 0 0 0-.94.548 5.161 5.161 0 0 0-.589.46.666.666 0 0 0 .21-.094 30.964 30.964 0 0 1 5.577-2.173q1.471-.417 2.977-.693c.58-.107 1.161-.2 1.748-.272.182-.021.363-.046.545-.064.31-.033.617-.068.927-.089.533-.037 1.064-.08 1.6-.084a.417.417 0 0 0 .119-.014.079.079 0 0 0 .047-.046.248.248 0 0 0 .01-.094c0-.071-.029-.1-.095-.106s-.129 0-.191 0c-.349.012-.7.025-1.051.043-.308.026-.621.049-.928.083z" class="prefix__cls-5" data-name="Path 1524" transform="translate(-265.939 -264.549)"/>
                    <path id="prefix__Path_1525" d="M280.892 271.535c-.444.032-.889.049-1.333.09s-.871.085-1.305.144c-.521.066-1.04.151-1.557.244q-1.094.2-2.169.468a31.787 31.787 0 0 0-5.347 1.857c-.174.108-.342.225-.5.318a3.887 3.887 0 0 0-.7.543c.018-.006.038-.016.065-.028l.172-.084c.674-.339 1.364-.652 2.064-.937a31.991 31.991 0 0 1 6.029-1.8c.649-.125 1.3-.236 1.956-.317.182-.022.363-.046.545-.067.277-.032.554-.067.832-.087.477-.036.951-.081 1.432-.086h.1a.121.121 0 0 0 .045-.013.071.071 0 0 0 .032-.034c.036-.186.026-.225-.159-.216-.077-.003-.139.001-.202.005z" class="prefix__cls-5" data-name="Path 1525" transform="translate(-266.569 -265.607)"/>
                </g>
                <g id="prefix__Group_31" class="prefix__cls-4" data-name="Group 31" transform="translate(107.189 45.748)">
                    <path id="prefix__Path_1526" d="M289.334 283.966c-.334.184-.665.376-.987.578-.422.262-.836.541-1.24.832a21.967 21.967 0 0 0-2.433 2.031l-.125.141a.073.073 0 0 1-.019.066 8.774 8.774 0 0 0-.672.823c-.074.108-.144.219-.218.325a21.363 21.363 0 0 1 3.71-3.33c.554-.393 1.128-.76 1.717-1.1.346-.2.695-.391 1.05-.569.316-.158.633-.317.961-.454l.843-.35c-.015-.01-.03-.017-.042-.026a.771.771 0 0 0-.192-.081c-.506.194-.994.423-1.481.661-.297.14-.585.294-.872.453z" class="prefix__cls-5" data-name="Path 1526" transform="translate(-282.79 -281.15)"/>
                    <path id="prefix__Path_1527" d="M289.171 282.722c-.2.1-.4.2-.589.3-.291.159-.58.322-.866.493-.371.221-.734.453-1.091.695a21.822 21.822 0 0 0-2.062 1.589c-.071.062-.141.123-.211.187-.087.093-.171.188-.257.282-.208.228-.432.436-.645.658a4.824 4.824 0 0 0-.617.74c-.046.074-.083.16-.125.241.019-.019.036-.038.054-.059a19.957 19.957 0 0 1 1.473-1.5 21.744 21.744 0 0 1 2.165-1.748c.312-.22.627-.434.952-.635.2-.124.405-.251.609-.371s.412-.24.621-.353c.17-.092.343-.179.515-.268q.582-.3 1.186-.561c.241-.1.487-.2.735-.3a2.651 2.651 0 0 0-.676.074c-.181.077-.361.153-.54.236-.214.099-.426.193-.631.3z" class="prefix__cls-5" data-name="Path 1527" transform="translate(-282.248 -280.717)"/>
                    <path id="prefix__Path_1528" d="M290.01 284.9c-.266.149-.528.3-.787.46-.4.241-.784.5-1.164.766a22.1 22.1 0 0 0-2.49 2.03.071.071 0 0 1-.03.031s-.005 0-.009.006l-.011.012c-.129.124-.259.249-.387.378l-.091.12c-.136.18-.285.349-.419.53a3.863 3.863 0 0 0-.425.609.242.242 0 0 0-.011.028.2.2 0 0 0 .038-.037c.026-.029.052-.058.076-.089a20.791 20.791 0 0 1 1.841-1.864 22.56 22.56 0 0 1 1.959-1.559q.556-.394 1.135-.751c.249-.155.5-.307.757-.445s.5-.281.758-.411c.285-.146.572-.294.867-.421l.764-.323.154-.063a.178.178 0 0 0 .041-.027.045.045 0 0 0 .01-.029.239.239 0 0 0-.041-.107.045.045 0 0 0-.043-.018.567.567 0 0 0-.08.025q-.809.323-1.589.716c-.279.133-.552.279-.823.433z" class="prefix__cls-5" data-name="Path 1528" transform="translate(-283.108 -281.655)"/>
                    <path id="prefix__Path_1529" d="M287.5 282.2c-.26.146-.519.3-.772.453-.343.211-.681.435-1.011.665q-.852.59-1.643 1.26a.066.066 0 0 1-.038.059 1.73 1.73 0 0 0-.176.122l-.162.143c-.12.116-.234.241-.354.36a6.782 6.782 0 0 0-.662.644 5.267 5.267 0 0 0-.5.755c.024-.023.047-.049.071-.073.305-.337.621-.66.95-.974a21.581 21.581 0 0 1 3.139-2.492c.459-.3.926-.584 1.407-.847l.351-.189c.262-.14.529-.276.8-.4.156-.073.311-.143.443-.2.214-.09.4-.173.59-.25.169-.069.34-.133.512-.2a1.734 1.734 0 0 0-.259.026 3.9 3.9 0 0 0-.518.084l-.067.028c-.442.18-.872.383-1.3.6-.262.138-.53.281-.801.426z" class="prefix__cls-5" data-name="Path 1529" transform="translate(-281.945 -280.091)"/>
                    <path id="prefix__Path_1530" d="M288.131 280.667c-.161.088-.326.167-.485.254-.337.188-.673.382-1 .587-.4.253-.8.515-1.187.792q-.83.592-1.6 1.257c-.16.155-.31.321-.473.473a3.849 3.849 0 0 0-.6.648c-.116.173-.236.342-.359.509.012-.014.024-.028.037-.04.219-.219.431-.444.653-.66a20.957 20.957 0 0 1 2.324-1.948c.345-.25.7-.491 1.057-.716.21-.132.422-.264.635-.393.18-.108.363-.211.548-.313.155-.086.312-.166.469-.248q.432-.231.878-.432c.191-.085.385-.17.578-.251.277-.117.556-.233.84-.335h-.155a2.191 2.191 0 0 0-.838.206c-.079.031-.158.063-.238.092-.115.051-.231.1-.346.157-.244.113-.496.226-.738.361z" class="prefix__cls-5" data-name="Path 1530" transform="translate(-282.087 -279.398)"/>
                    <path id="prefix__Path_1531" d="M291.614 285.636q-.466.241-.917.5t-.879.535c-.395.253-.782.521-1.161.8a22.34 22.34 0 0 0-2.388 2.025.086.086 0 0 1-.024.039 6.936 6.936 0 0 0-.91 1.1 2.26 2.26 0 0 0-.156.281.926.926 0 0 0 .07-.075 20.749 20.749 0 0 1 1.975-1.986 22.12 22.12 0 0 1 2.091-1.631c.278-.19.559-.377.846-.557.216-.134.435-.265.654-.391s.454-.251.683-.376c.272-.149.55-.287.83-.417.307-.143.61-.287.924-.414l.046-.019c.045-.021.056-.044.04-.091a.358.358 0 0 0-.028-.061.036.036 0 0 0-.041-.021.526.526 0 0 0-.094.033l-.636.269c-.339.167-.639.307-.925.457z" class="prefix__cls-5" data-name="Path 1531" transform="translate(-283.686 -282.328)"/>
                    <path id="prefix__Path_1532" d="M285.644 280.5c-.354.216-.7.443-1.041.678-.49.338-.966.7-1.426 1.074a.072.072 0 0 1-.051.1c-.215.066-.363.3-.52.453a6.831 6.831 0 0 0-.649.738 4.349 4.349 0 0 1-.351.4l.009-.006c.021-.018.039-.039.058-.059a20.869 20.869 0 0 1 2.527-2.178c.389-.284.785-.558 1.192-.814.221-.138.44-.274.665-.408q.287-.169.578-.326c.165-.09.334-.175.5-.261.294-.156.592-.3.9-.433a17.849 17.849 0 0 1 1.7-.669.183.183 0 0 0 .031-.015 1.51 1.51 0 0 0-.475.084 5.087 5.087 0 0 0-.775.267 9.829 9.829 0 0 1-.983.364c-.361.173-.718.358-1.071.551-.285.145-.554.301-.818.46z" class="prefix__cls-5" data-name="Path 1532" transform="translate(-281.606 -278.775)"/>
                    <path id="prefix__Path_1533" d="M292.625 286.692c-.254.135-.507.271-.757.413s-.5.285-.743.437c-.428.265-.846.546-1.256.837a22.227 22.227 0 0 0-2.509 2.085.065.065 0 0 1-.048.045c-.13.128-.261.255-.39.387l-.047.049a5.391 5.391 0 0 0-.464.6 3.622 3.622 0 0 0-.26.449.469.469 0 0 0 .112-.115 21.526 21.526 0 0 1 3.032-2.845q.84-.65 1.739-1.217c.347-.219.7-.43 1.056-.628.112-.061.223-.124.335-.183.191-.1.38-.2.575-.3.334-.162.665-.327 1.009-.468a.305.305 0 0 0 .073-.04.056.056 0 0 0 .018-.042.166.166 0 0 0-.018-.063c-.018-.047-.046-.06-.089-.044s-.083.033-.122.052l-.666.3c-.195.099-.388.19-.58.291z" class="prefix__cls-5" data-name="Path 1533" transform="translate(-284.252 -283.007)"/>
                    <path id="prefix__Path_1534" d="M294.657 287.315c-.278.136-.56.262-.836.4s-.539.28-.8.431c-.319.178-.631.366-.941.561q-.653.412-1.276.863a22.043 22.043 0 0 0-2.965 2.582c-.084.114-.162.233-.241.335a2.718 2.718 0 0 0-.309.531l.034-.035.089-.1c.347-.393.711-.773 1.088-1.138a22.212 22.212 0 0 1 3.421-2.72c.385-.249.777-.489 1.178-.711.112-.061.222-.124.334-.184.17-.093.34-.187.513-.272.3-.147.592-.3.9-.427.021-.009.04-.017.061-.028a.087.087 0 0 0 .025-.02.047.047 0 0 0 .012-.03c-.025-.129-.042-.152-.158-.1-.05.024-.086.047-.129.062z" class="prefix__cls-5" data-name="Path 1534" transform="translate(-284.913 -283.699)"/>
                </g>
                <g id="prefix__Group_32" class="prefix__cls-6" data-name="Group 32" transform="translate(44.065 77.209)">
                    <path id="prefix__Path_1535" d="M156.3 362.091v.02c.02.2-.3.2-.32 0-.032-.343-.8-.665-1.07-.828a15.122 15.122 0 0 1-1.55-1.055c-.148-.076-.3-.147-.443-.219a2.391 2.391 0 0 0-.236-.1.148.148 0 0 0-.092 0 .265.265 0 0 0-.16.147.077.077 0 0 0 .008.06 1.422 1.422 0 0 0 .16.1 18.1 18.1 0 0 1 2.832 1.64c.244.171.479.346.719.526l.275-.191a.994.994 0 0 0-.123-.1z" class="prefix__cls-7" data-name="Path 1535" transform="translate(-143.273 -357.473)"/>
                    <path id="prefix__Path_1536" d="M161.715 356.418a.532.532 0 0 0-.268.044c-.04.016-.08.024-.132.04.016.032.02.071.04.079l.332.152a.262.262 0 0 1 .028-.315z" class="prefix__cls-7" data-name="Path 1536" transform="translate(-148.444 -355.441)"/>
                    <path id="prefix__Path_1537" d="M164.384 358.108a3.893 3.893 0 0 0-1.558-.649 19.219 19.219 0 0 1 3.02 1.8c.008.008.016.012.024.02a5.738 5.738 0 0 0-1.486-1.171z" class="prefix__cls-7" data-name="Path 1537" transform="translate(-149.323 -356.049)"/>
                    <path id="prefix__Path_1538" d="M166.808 357.01c-.048-.032-.1-.064-.152-.1-.22-.127-.439-.251-.663-.366a1.118 1.118 0 0 0-.823-.1.239.239 0 0 1-.088.016c.164.076.328.151.487.235a19.634 19.634 0 0 1 2.76 1.707c.068.052.136.1.208.147.008 0 .012.008.02.008a6.833 6.833 0 0 0-1.749-1.547z" class="prefix__cls-7" data-name="Path 1538" transform="translate(-150.637 -355.433)"/>
                    <path id="prefix__Path_1539" d="M158.249 361.008a.166.166 0 0 1-.292.036 3.732 3.732 0 0 0-1-.912 17.2 17.2 0 0 0-2.313-1.234c-.1.044-.184.08-.267.124a.059.059 0 0 0-.024.051.067.067 0 0 0 .032.048 1.24 1.24 0 0 0 .144.068 16.332 16.332 0 0 1 1.781.919 20.837 20.837 0 0 1 1.737 1.154 2.391 2.391 0 0 1 .3-.179c-.035-.024-.066-.047-.098-.075z" class="prefix__cls-7" data-name="Path 1539" transform="translate(-144.39 -356.887)"/>
                    <path id="prefix__Path_1540" d="M161.433 358.532c-.228-.183-.463-.354-.7-.526a5.775 5.775 0 0 0-.579-.41c-.052-.028-.1-.052-.156-.08a.87.87 0 0 0-.3-.071.156.156 0 0 1-.152-.143c-.084-.04-.168-.08-.251-.116a.264.264 0 0 0-.124-.024.723.723 0 0 0-.323.115c-.008 0 0 .048 0 .056a1.134 1.134 0 0 0 .168.087c.307.143.619.283.919.434a18.87 18.87 0 0 1 2.5 1.529c-.327-.29-.658-.576-1.002-.851z" class="prefix__cls-7" data-name="Path 1540" transform="translate(-147.007 -355.876)"/>
                    <path id="prefix__Path_1541" d="M168.241 362.1a.473.473 0 0 0-.088-.088c-.128-.1-.256-.187-.384-.279.1.084.2.167.292.251a.152.152 0 0 1-.1.263c.06.008.128-.02.287-.092-.003-.012.005-.039-.007-.055z" class="prefix__cls-7" data-name="Path 1541" transform="translate(-152.202 -358.54)"/>
                    <path id="prefix__Path_1542" d="M160.958 360.28q-.084-.078-.168-.143a.063.063 0 0 1-.02-.016.159.159 0 0 1-.26.171 10.241 10.241 0 0 0-1.418-1.059 4.12 4.12 0 0 0-1.362-.919.135.135 0 0 1-.108-.107c-.108-.052-.22-.1-.328-.151-.068-.028-.136-.052-.2-.072l-.144.048a.123.123 0 0 1 .032.02c.248.2.508.39.759.581a19.571 19.571 0 0 1 2.632 1.6c.088.064.172.124.259.183a.121.121 0 0 0 .088.02.507.507 0 0 0 .223-.107.05.05 0 0 0 .015-.049z" class="prefix__cls-7" data-name="Path 1542" transform="translate(-145.905 -356.354)"/>
                    <path id="prefix__Path_1543" d="M183.574 355.582a4.975 4.975 0 0 0-.771-.513 1.658 1.658 0 0 0-.791-.343.27.27 0 0 1-.191-.454l-.1-.068c-.056-.036-.108-.068-.164-.1a.151.151 0 0 0-.092-.02 1.1 1.1 0 0 0-.343.052c-.008 0-.02.016-.02.024a.083.083 0 0 0 .012.056.934.934 0 0 0 .132.087 24.746 24.746 0 0 1 3.068 2.225c.048.04.1.079.148.123a.164.164 0 0 0 .044.028 7.283 7.283 0 0 0-.932-1.097z" class="prefix__cls-7" data-name="Path 1543" transform="translate(-159.962 -354.084)"/>
                    <path id="prefix__Path_1544" d="M152.774 364.834c-.172-.235-.315-.49-.479-.733a21.062 21.062 0 0 0-2.193-1.445c-.192-.112-.391-.215-.587-.319-.036-.02-.08-.032-.112-.048h-.036a.356.356 0 0 0-.175.175.066.066 0 0 0 .02.052c.064.04.124.076.192.112.452.235.891.489 1.322.76a21.966 21.966 0 0 1 1.965 1.405c.044.036.088.068.132.1.008-.008.016-.012.02-.02a.111.111 0 0 1-.069-.039z" class="prefix__cls-7" data-name="Path 1544" transform="translate(-141.384 -358.862)"/>
                    <path id="prefix__Path_1545" d="M171.445 357.59q-.743-.573-1.53-1.087a18.837 18.837 0 0 0-1.761-1.019.488.488 0 0 0-.363-.064 2.245 2.245 0 0 1-.284.036.037.037 0 0 0-.024.016v.024a5.9 5.9 0 0 1 .843.446l.124.076a20.686 20.686 0 0 1 2.492 1.608l.18.131a.2.2 0 0 0 .148.044c.072-.008.148-.016.22-.028.028 0 .052-.032.08-.048-.017-.068-.077-.099-.125-.135z" class="prefix__cls-7" data-name="Path 1545" transform="translate(-152.035 -354.854)"/>
                    <path id="prefix__Path_1546" d="M173.361 356.52c-.252-.267-.5-.53-.767-.776-.355-.219-.715-.43-1.082-.629a.475.475 0 0 0-.335-.068c-.072.012-.148.02-.22.032a.271.271 0 0 0-.08.044.263.263 0 0 0 .148.116 20.494 20.494 0 0 1 2.892 1.815c-.096-.184-.448-.419-.556-.534z" class="prefix__cls-7" data-name="Path 1546" transform="translate(-154.011 -354.64)"/>
                    <path id="prefix__Path_1547" d="M179.609 360.09a1.041 1.041 0 0 0-.14-.127l-.275-.207a1.182 1.182 0 0 1 .02.123.2.2 0 0 1-.124.211l.084.06a.208.208 0 0 0 .116.044.761.761 0 0 0 .312-.048.038.038 0 0 0 .007-.056z" class="prefix__cls-7" data-name="Path 1547" transform="translate(-158.793 -357.386)"/>
                    <path id="prefix__Path_1548" d="M151.162 366.171a1.7 1.7 0 0 0-.363-.673 21.276 21.276 0 0 0-2.433-1.64c-.092-.052-.188-.1-.28-.151a.329.329 0 0 0-.06-.016c-.012 0-.02 0-.032.008a.367.367 0 0 0-.156.155.056.056 0 0 0 .008.056.919.919 0 0 0 .128.087 21.117 21.117 0 0 1 3.12 2.138.769.769 0 0 0 .072.056.05.05 0 0 0-.004-.02z" class="prefix__cls-7" data-name="Path 1548" transform="translate(-140.594 -359.678)"/>
                    <path id="prefix__Path_1549" d="M156.252 369.284c0 .02.012.04.016.06a.165.165 0 0 1-.192.2l.084.071c.052-.044.1-.088.16-.127l.072-.076c-.044-.049-.092-.088-.14-.128z" class="prefix__cls-7" data-name="Path 1549" transform="translate(-145.393 -362.934)"/>
                    <path id="prefix__Path_1550" d="M154.817 363.548a8.483 8.483 0 0 0-.575-.625 19.3 19.3 0 0 0-2.453-1.513c-.064-.036-.132-.064-.228-.112a1.454 1.454 0 0 0-.16.127.105.105 0 0 0 .02.143l.164.1c.232.127.472.246.7.378a20.282 20.282 0 0 1 2.4 1.616l.1.076c.084-.068.172-.131.26-.2l-.008-.008a.133.133 0 0 1-.22.018z" class="prefix__cls-7" data-name="Path 1550" transform="translate(-142.66 -358.285)"/>
                    <path id="prefix__Path_1551" d="M180.2 355.835c-.231-.223-.759-.784-1.126-.657-.268.091-.407-.231-.279-.418l-.116-.072c-.219-.135-.183-.147-.507-.087a.357.357 0 0 0-.092.028c-.016.008-.024.028-.032.044s0 .024.012.028c.052.036.1.071.16.1a23.345 23.345 0 0 1 2.72 1.895 4.137 4.137 0 0 0-.74-.861z" class="prefix__cls-7" data-name="Path 1551" transform="translate(-158.185 -354.365)"/>
                    <path id="prefix__Path_1552" d="M186.213 359.92a.521.521 0 0 0-.068-.064c-.048-.04-.1-.079-.147-.119a.3.3 0 0 1-.224.246.227.227 0 0 0 .132.044h.132l.152-.012c.028 0 .044-.016.04-.04a.09.09 0 0 0-.017-.055z" class="prefix__cls-7" data-name="Path 1552" transform="translate(-162.684 -357.375)"/>
                    <path id="prefix__Path_1553" d="M149.336 367.047c-.1-.12-.2-.231-.3-.343q-.509-.4-1.043-.764c-.367-.251-.747-.486-1.122-.724a1.178 1.178 0 0 0-.168-.1.1.1 0 0 0-.12.012c-.04.035-.076.076-.112.111a.067.067 0 0 0 .008.088c.052.036.1.072.16.1q.671.4 1.306.848c.591.418 1.162.864 1.713 1.33a1.164 1.164 0 0 0-.322-.558z" class="prefix__cls-7" data-name="Path 1553" transform="translate(-139.792 -360.501)"/>
                    <path id="prefix__Path_1554" d="M154.89 370.876c-.044-.04-.088-.076-.136-.115a.692.692 0 0 1 .016.223.171.171 0 0 1-.08.127c.02.016.04.028.06.044.06-.08.116-.163.18-.243-.012-.012-.03-.024-.04-.036z" class="prefix__cls-7" data-name="Path 1554" transform="translate(-144.586 -363.794)"/>
                    <path id="prefix__Path_1555" d="M148.563 369.046c-.1-.1-.2-.187-.307-.279 0 .024.008.044.012.068.02.2-.3.2-.32 0a1.142 1.142 0 0 0-.275-.561l-.3-.239a21.2 21.2 0 0 0-1.965-1.405.451.451 0 0 0-.2-.1.315.315 0 0 0-.188.207c.068.048.136.1.2.139.308.207.619.406.923.621a23.193 23.193 0 0 1 1.969 1.561c.072.063.144.127.219.183a.1.1 0 0 0 .088 0 .289.289 0 0 0 .164-.143c0-.016-.004-.041-.02-.052z" class="prefix__cls-7" data-name="Path 1555" transform="translate(-138.958 -361.331)"/>
                    <path id="prefix__Path_1556" d="M175.382 355.4c.228.135.455.271.679.41.472.294.927.613 1.37.943-.176-.191-.356-.374-.543-.549a3.091 3.091 0 0 0-1.314-.951.2.2 0 0 1-.172-.171h-.012l-.287.06c.092.082.188.166.279.258z" class="prefix__cls-7" data-name="Path 1556" transform="translate(-156.471 -354.662)"/>
                    <path id="prefix__Path_1557" d="M183 359.876a1.007 1.007 0 0 0-.092-.088c-.1-.084-.2-.163-.3-.243.056.068.112.135.164.2a.252.252 0 0 1 .048.215c.052-.008.108-.008.164-.012.008 0 .024-.008.024-.016a.1.1 0 0 0-.008-.056z" class="prefix__cls-7" data-name="Path 1557" transform="translate(-160.841 -357.264)"/>
                    <path id="prefix__Path_1558" d="M187.98 356.428a2.7 2.7 0 0 0-.755-.808c-.184-.139-.36-.287-.543-.43a3.377 3.377 0 0 0-.515-.374c-.124-.024-.251-.04-.379-.056a.7.7 0 0 0-.128 0c-.008 0-.016.008-.02.016a.032.032 0 0 0 0 .032.984.984 0 0 0 .124.1 25.914 25.914 0 0 1 2.4 1.835c-.064-.104-.124-.211-.184-.315z" class="prefix__cls-7" data-name="Path 1558" transform="translate(-162.603 -354.477)"/>
                    <path id="prefix__Path_1559" d="M146.65 370.559a2.324 2.324 0 0 0-.531-.844 23.466 23.466 0 0 0-2.073-1.576c-.072-.048-.144-.092-.216-.135-.016-.012-.04-.008-.06-.016a.188.188 0 0 0-.056.024 1.48 1.48 0 0 0-.112.112.067.067 0 0 0 .008.084c.032.024.064.052.1.076a24.436 24.436 0 0 1 2.876 2.249l.092.08a.236.236 0 0 1-.028-.054z" class="prefix__cls-7" data-name="Path 1559" transform="translate(-138.124 -362.18)"/>
                    <path id="prefix__Path_1560" d="M145.057 371.959a3.3 3.3 0 0 0-.236-.5c-.216-.2-.435-.39-.655-.581-.555-.477-1.134-.923-1.734-1.345-.068-.048-.14-.092-.216-.135a.078.078 0 0 0-.06 0 .307.307 0 0 0-.184.155c.036.076.108.1.168.147.376.279.755.549 1.122.836.563.434 1.095.9 1.618 1.385.056.051.112.1.168.143a.065.065 0 0 0 .06.008.25.25 0 0 0 .048-.02.149.149 0 0 1-.099-.093z" class="prefix__cls-7" data-name="Path 1560" transform="translate(-137.182 -362.998)"/>
                    <path id="prefix__Path_1561" d="M143.356 373.257a2.991 2.991 0 0 0-.535-.729l-.5-.454c-.488-.426-.995-.824-1.518-1.206a1.784 1.784 0 0 0-.188-.115.064.064 0 0 0-.06 0 1.324 1.324 0 0 0-.136.127.068.068 0 0 0 0 .056.446.446 0 0 0 .088.088c.2.147.391.291.587.438a27.325 27.325 0 0 1 2.1 1.8 1.014 1.014 0 0 0 .252.211 1.731 1.731 0 0 0 .147-.107.078.078 0 0 0 .024-.1.147.147 0 0 1-.261-.009z" class="prefix__cls-7" data-name="Path 1561" transform="translate(-136.272 -363.786)"/>
                    <path id="prefix__Path_1562" d="M140.969 373.767c-.316-.287-.635-.565-.967-.832-.264-.215-.531-.422-.8-.633a.271.271 0 0 0-.176-.084c-.056.052-.136.092-.152.207.239.191.5.378.739.581s.491.406.731.613.488.442.731.661c.16.143.307.3.463.442-.162-.33-.513-.589-.569-.955z" class="prefix__cls-7" data-name="Path 1562" transform="translate(-135.379 -364.642)"/>
                    <path id="prefix__Path_1563" d="M134.838 380.616c-.216-.267-.387-.565-.607-.828a.166.166 0 0 1-.036-.139q-.785-.806-1.63-1.552c-.048-.044-.1-.084-.148-.123a.12.12 0 0 0-.119-.02 1.289 1.289 0 0 0-.144.071.062.062 0 0 0-.008.084c.036.036.072.076.112.111a30.525 30.525 0 0 1 2.436 2.385c.036.04.072.076.112.115a.09.09 0 0 0 .116 0 .547.547 0 0 0 .072-.064.114.114 0 0 1-.156-.04z" class="prefix__cls-7" data-name="Path 1563" transform="translate(-131.453 -367.977)"/>
                    <path id="prefix__Path_1564" d="M139.144 375.075c-.475-.434-.963-.852-1.47-1.25a.244.244 0 0 0-.08-.052.111.111 0 0 0-.088.008.251.251 0 0 0-.132.175c.052.044.108.1.164.139.188.155.379.307.567.462.619.518 1.206 1.067 1.778 1.636a.381.381 0 0 0 .04.036 8.348 8.348 0 0 0-.779-1.154z" class="prefix__cls-7" data-name="Path 1564" transform="translate(-134.505 -365.545)"/>
                    <path id="prefix__Path_1565" d="M190.242 355.211h-.2a.037.037 0 0 0-.028.012.03.03 0 0 0-.008.032c.008.06.06.084.1.112.563.414 1.11.852 1.638 1.305a5.162 5.162 0 0 0-1.502-1.461z" class="prefix__cls-7" data-name="Path 1565" transform="translate(-165.148 -354.74)"/>
                    <path id="prefix__Path_1566" d="M132.36 380.973a.126.126 0 0 1-.028-.068c-.487-.506-.991-1-1.518-1.469a.92.92 0 0 0-.1-.08.072.072 0 0 0-.088 0c-.008.008-.016.012-.024.02l-.048.044c-.064.064-.068.1-.008.159.147.135.3.271.443.41q.976.913 1.869 1.9c.064.072.132.139.2.2a.058.058 0 0 0 .036.012 7.881 7.881 0 0 0-.734-1.128z" class="prefix__cls-7" data-name="Path 1566" transform="translate(-130.504 -368.791)"/>
                    <path id="prefix__Path_1567" d="M137.705 376.759q-.779-.753-1.61-1.441a1.748 1.748 0 0 0-.148-.108.377.377 0 0 0-.208.155.281.281 0 0 0 .12.143c.284.243.567.477.847.724.5.442.978.907 1.45 1.385.024.024.052.048.076.076a3.047 3.047 0 0 0-.527-.934z" class="prefix__cls-7" data-name="Path 1567" transform="translate(-133.553 -366.384)"/>
                    <path id="prefix__Path_1568" d="M194.3 355.454a2.9 2.9 0 0 0-.391-.243h-.176a.327.327 0 0 0-.064 0 .118.118 0 0 0-.048.027c-.02.016-.008.052.028.08a1.039 1.039 0 0 0 .1.08c.455.35.9.72 1.334 1.1a4.248 4.248 0 0 0-.783-1.044z" class="prefix__cls-7" data-name="Path 1568" transform="translate(-167.246 -354.74)"/>
                    <path id="prefix__Path_1569" d="M136.662 379.15a2.675 2.675 0 0 0-.279-.565c-.068-.072-.136-.143-.208-.211-.507-.51-1.034-1-1.582-1.473a2.426 2.426 0 0 0-.2-.155.078.078 0 0 0-.06 0 .328.328 0 0 0-.152.151.243.243 0 0 0 .1.123 29.694 29.694 0 0 1 2.321 2.213.479.479 0 0 0 .1.084.068.068 0 0 0 .088-.008l.052-.052a.157.157 0 0 1-.18-.107z" class="prefix__cls-7" data-name="Path 1569" transform="translate(-132.645 -367.275)"/>
                    <path id="prefix__Path_1570" d="M198.117 355.874a3.787 3.787 0 0 0-.567-.506c-.08-.056-.164-.115-.247-.163-.016-.008-.048-.02-.08-.032-.048 0-.092.012-.14.016 0 0-.008.02-.008.028.012.06.06.084.1.116q.677.543 1.318 1.122a2.4 2.4 0 0 0-.376-.581z" class="prefix__cls-7" data-name="Path 1570" transform="translate(-169.265 -354.718)"/>
                    <path id="prefix__Path_1571" d="M201.526 355.93c-.2-.263-.368-.546-.583-.788l-.044-.012a.991.991 0 0 0-.16 0l-.152.02a.038.038 0 0 0-.024.016c0 .02 0 .044.008.056a.388.388 0 0 0 .068.068c.439.366.867.744 1.286 1.13-.135-.164-.271-.32-.399-.49z" class="prefix__cls-7" data-name="Path 1571" transform="translate(-171.295 -354.691)"/>
                </g>
                <g id="prefix__Group_33" class="prefix__cls-4" data-name="Group 33" transform="translate(78.672 69.68)">
                    <path id="prefix__Path_1572" d="M234.069 337c-.853-.339-1.716-.645-2.593-.906a.886.886 0 0 0-.124-.027.155.155 0 0 0-.072.018c-.023.051-.049.108-.071.163a.057.057 0 0 0 .017.054.759.759 0 0 0 .146.061 31.512 31.512 0 0 1 3 1.067 1.581 1.581 0 0 0 .151.054.076.076 0 0 0 .059-.007.221.221 0 0 0 .05-.052 4.4 4.4 0 0 0-.563-.425z" class="prefix__cls-5" data-name="Path 1572" transform="translate(-223.745 -336.063)"/>
                    <path id="prefix__Path_1573" d="M230.557 343.178a3.108 3.108 0 0 0-1.28-.483.148.148 0 0 1-.14-.175c-.3-.11-.6-.22-.9-.32a.609.609 0 0 0-.123-.033.13.13 0 0 0-.059.007c-.009.009-.021.011-.025.021-.027.045-.052.092-.078.14a.061.061 0 0 0 .033.077c.071.027.139.056.208.079.622.213 1.241.44 1.848.7.331.139.666.284 1 .423a.938.938 0 0 0 .148.047.054.054 0 0 0 .052-.021c-.241-.129-.458-.329-.684-.462z" class="prefix__cls-5" data-name="Path 1573" transform="translate(-221.846 -339.616)"/>
                    <path id="prefix__Path_1574" d="M229.431 345.14q-1.132-.494-2.294-.907c-.048-.016-.1-.03-.151-.045a.212.212 0 0 0-.071.009 1.456 1.456 0 0 0-.08.163.055.055 0 0 0 .017.053.705.705 0 0 0 .141.068q1.485.521 2.917 1.177a.958.958 0 0 0 .12.043.089.089 0 0 0 .071-.009 2.6 2.6 0 0 0-.67-.552z" class="prefix__cls-5" data-name="Path 1574" transform="translate(-221.197 -340.793)"/>
                    <path id="prefix__Path_1575" d="M231.884 341.109c-.848-.358-1.714-.686-2.593-.972a1.385 1.385 0 0 0-.152-.036.306.306 0 0 0-.121.188.054.054 0 0 0 .021.051c.068.029.135.058.2.081.481.171.96.33 1.437.512s.924.375 1.385.561a1.489 1.489 0 0 0 .21.074.071.071 0 0 0 .082-.032c.005-.007.007-.013.013-.02a2.61 2.61 0 0 0-.482-.407z" class="prefix__cls-5" data-name="Path 1575" transform="translate(-222.47 -338.414)"/>
                    <path id="prefix__Path_1576" d="M232.435 338.858a.276.276 0 0 1-.045-.036c-.65-.252-1.3-.485-1.971-.693l-.123-.033a.264.264 0 0 0-.063.009.072.072 0 0 0-.027.018 1.426 1.426 0 0 0-.074.138.078.078 0 0 0 .035.08.9.9 0 0 0 .119.043c1 .313 1.991.679 2.959 1.09.05.02.1.04.147.056a.087.087 0 0 0 .082-.023c-.341-.216-.684-.442-1.039-.649z" class="prefix__cls-5" data-name="Path 1576" transform="translate(-223.118 -337.247)"/>
                    <path id="prefix__Path_1577" d="M228.011 347.078c-.648-.284-1.308-.549-1.974-.789a1.321 1.321 0 0 0-.153-.049.073.073 0 0 0-.082.031.749.749 0 0 0-.064.142.056.056 0 0 0 .018.053.618.618 0 0 0 .112.056c.986.357 1.951.76 2.9 1.2l.087.041a.36.36 0 0 0 .061.015.08.08 0 0 0 .03 0h.007a8.153 8.153 0 0 0-.942-.7z" class="prefix__cls-5" data-name="Path 1577" transform="translate(-220.56 -341.987)"/>
                    <path id="prefix__Path_1578" d="M225.878 349.014c.028.013.061.023.087.033a.125.125 0 0 0 .12-.019.689.689 0 0 0 .09-.089.067.067 0 0 0-.007-.086.512.512 0 0 0-.078-.05l-1.18-.47a.205.205 0 0 0-.091-.022.111.111 0 0 0-.079.039.2.2 0 0 0-.059.179.743.743 0 0 0 .105.051c.363.146.728.29 1.092.434z" class="prefix__cls-5" data-name="Path 1578" transform="translate(-219.943 -343.194)"/>
                    <path id="prefix__Path_1579" d="M224.521 350.992a.21.21 0 0 0 .089.028.1.1 0 0 0 .09-.02.644.644 0 0 0 .089-.128.054.054 0 0 0-.018-.053.325.325 0 0 0-.081-.049c-.344-.137-.685-.279-1.029-.416a.323.323 0 0 0-.089-.018.231.231 0 0 0-.127.213c.036.018.069.041.109.058.317.124.646.257.967.385z" class="prefix__cls-5" data-name="Path 1579" transform="translate(-219.223 -344.371)"/>
                    <path id="prefix__Path_1580" d="M223.21 353a.1.1 0 0 0 .031.008.119.119 0 0 0 .113-.042c.029-.041.054-.089.083-.139a1 1 0 0 0-.115-.071c-.31-.132-.621-.258-.933-.384a.282.282 0 0 0-.093-.025.135.135 0 0 0-.082.032.434.434 0 0 0-.056.076c-.038.058-.028.107.028.129.338.137.682.274 1.024.416z" class="prefix__cls-5" data-name="Path 1580" transform="translate(-218.462 -345.544)"/>
                    <path id="prefix__Path_1581" d="M229.767 350.312l-.032-.011a.088.088 0 0 0-.077.043.276.276 0 0 0-.037.187l.1.059c.278.13.555.259.831.385a.365.365 0 0 0 .055.022 3.58 3.58 0 0 0-.84-.685z" class="prefix__cls-5" data-name="Path 1581" transform="translate(-222.818 -344.353)"/>
                    <path id="prefix__Path_1582" d="M222.011 354.958c.015-.016.023-.034.038-.05.048-.073.038-.121-.031-.153l-.961-.405a.529.529 0 0 0-.089-.018.3.3 0 0 0-.125.217c.358.148.706.3 1.054.44a.1.1 0 0 0 .114-.031z" class="prefix__cls-5" data-name="Path 1582" transform="translate(-217.71 -346.7)"/>
                    <path id="prefix__Path_1583" d="M228.768 352.516a.079.079 0 0 0-.056.023.357.357 0 0 0-.049.082c-.04.082-.029.121.046.155l.891.426a.21.21 0 0 0 .069.015 3.115 3.115 0 0 0-.901-.701z" class="prefix__cls-5" data-name="Path 1583" transform="translate(-222.25 -345.643)"/>
                    <path id="prefix__Path_1584" d="M220.251 356.843a4.147 4.147 0 0 0 .525-.064c-.233-.112-.478-.212-.721-.315-.078-.032-.16-.063-.236-.092a.078.078 0 0 0-.084.028.353.353 0 0 0-.036.053c-.052.092-.038.139.051.175.165.072.334.146.501.215z" class="prefix__cls-5" data-name="Path 1584" transform="translate(-217.026 -347.886)"/>
                    <path id="prefix__Path_1585" d="M228.523 355.312c-.168-.161-.33-.325-.5-.487-.094-.047-.188-.094-.286-.139a.138.138 0 0 0-.061-.005.035.035 0 0 0-.027.009.216.216 0 0 0-.08.163c0 .027.032.056.057.07.215.112.436.216.653.322.076.038.151.072.229.1a.232.232 0 0 0 .071 0 .146.146 0 0 1-.056-.033z" class="prefix__cls-5" data-name="Path 1585" transform="translate(-221.628 -346.903)"/>
                    <path id="prefix__Path_1586" d="M222.96 363.119a.089.089 0 0 0-.109.041.179.179 0 0 0-.049.144 7.18 7.18 0 0 0 .729.4c.116 0 .231-.047.351-.057a.262.262 0 0 0 0-.052c-.224-.12-.455-.246-.69-.37l-.232-.106z" class="prefix__cls-5" data-name="Path 1586" transform="translate(-218.85 -351.812)"/>
                    <path id="prefix__Path_1587" d="M220.578 367.369a.572.572 0 0 0-.089-.036.21.21 0 0 0-.064.005c-.018.026-.038.05-.052.074a.109.109 0 0 0-.013.109 3.549 3.549 0 0 0 1.021.292.157.157 0 0 1-.027-.018c-.254-.143-.514-.284-.776-.426z" class="prefix__cls-5" data-name="Path 1587" transform="translate(-217.423 -354.269)"/>
                    <path id="prefix__Path_1588" d="M222.574 365.674c-.251-.138-.5-.272-.754-.409a.534.534 0 0 0-.085-.038.244.244 0 0 0-.063 0 .206.206 0 0 0-.1.155c-.005.034.019.057.05.074.263.145.528.286.789.427a1.172 1.172 0 0 0 .211-.015c.06-.092.05-.14-.048-.194z" class="prefix__cls-5" data-name="Path 1588" transform="translate(-218.136 -353.042)"/>
                    <path id="prefix__Path_1589" d="M227.135 357.066c-.19-.1-.379-.19-.58-.274a.066.066 0 0 0-.084.028.5.5 0 0 0-.049.082.091.091 0 0 0 .038.132c.283.14.564.286.85.424.025.014.061.005.089.009a.348.348 0 0 0 .065-.112 2.987 2.987 0 0 0-.329-.289z" class="prefix__cls-5" data-name="Path 1589" transform="translate(-220.951 -348.129)"/>
                    <path id="prefix__Path_1590" d="M224.217 361.036l-.018-.009c-.064-.031-.111-.008-.154.067a.5.5 0 0 0-.033.087.218.218 0 0 0 .115.107c.238.122.475.25.713.372a5.644 5.644 0 0 0-.623-.624z" class="prefix__cls-5" data-name="Path 1590" transform="translate(-219.556 -350.59)"/>
                    <path id="prefix__Path_1591" d="M219.291 369.455a.089.089 0 0 0-.109.041l-.018.026c-.042.079-.035.128.027.164.16.09.318.176.477.262a2.938 2.938 0 0 0 .53.054.153.153 0 0 0-.005-.046c-.224-.138-.466-.267-.706-.4-.066-.035-.132-.07-.196-.101z" class="prefix__cls-5" data-name="Path 1591" transform="translate(-216.717 -355.502)"/>
                    <path id="prefix__Path_1592" d="M225.342 358.914h-.031a.743.743 0 0 0-.056.067c-.054.089-.046.133.043.178.2.1.393.2.594.3l.255.128a.075.075 0 0 0 .1-.03c-.306-.214-.612-.419-.905-.643z" class="prefix__cls-5" data-name="Path 1592" transform="translate(-220.26 -349.368)"/>
                    <path id="prefix__Path_1593" d="M218.072 371.574a.088.088 0 0 0-.109.04c-.069.1-.064.152.031.207.123.068.244.142.366.21a1.785 1.785 0 0 0 .6.09c-.014-.02-.021-.043-.035-.053-.282-.168-.567-.329-.853-.494z" class="prefix__cls-5" data-name="Path 1593" transform="translate(-216.006 -356.735)"/>
                    <path id="prefix__Path_1594" d="M219.173 358.935a1.116 1.116 0 0 0 .442-.071.2.2 0 0 0-.048-.043c-.262-.115-.523-.231-.788-.344a.1.1 0 0 0-.03-.007.1.1 0 0 0-.054.026.266.266 0 0 0-.06.176c.016.015.03.034.05.038.162.079.324.155.488.225z" class="prefix__cls-5" data-name="Path 1594" transform="translate(-216.424 -349.109)"/>
                    <path id="prefix__Path_1595" d="M216.9 373.738a.155.155 0 0 0-.06-.023.072.072 0 0 0-.084.028l-.018.027c-.056.094-.053.137.027.182.176.1.355.206.53.307l.236.017c.045-.009.093-.019.136-.032l.011-.032a.524.524 0 0 0-.066-.061c-.23-.138-.47-.273-.712-.413z" class="prefix__cls-5" data-name="Path 1595" transform="translate(-215.3 -357.983)"/>
                    <path id="prefix__Path_1596" d="M215.719 375.89a.164.164 0 0 0-.059-.02c-.018 0-.044 0-.055.014-.1.106-.1.176 0 .233l.331.192a1.7 1.7 0 0 0 .38-.05.285.285 0 0 0-.049-.046c-.183-.107-.367-.213-.548-.323z" class="prefix__cls-5" data-name="Path 1596" transform="translate(-214.618 -359.241)"/>
                    <path id="prefix__Path_1597" d="M218.339 361.134a1.914 1.914 0 0 0 .288-.119v-.009a2.825 2.825 0 0 0-.566-.272.074.074 0 0 0-.071.044.4.4 0 0 0-.015.06c-.015.088 0 .129.065.159a3.153 3.153 0 0 0 .299.137z" class="prefix__cls-5" data-name="Path 1597" transform="translate(-216.038 -350.427)"/>
                    <path id="prefix__Path_1598" d="M214.5 378.051a.067.067 0 0 0-.081.035c-.07.092-.058.153.027.208.064.04.132.077.2.117a2.059 2.059 0 0 0 .272-.063v-.034c0-.013-.005-.02-.012-.025a1.4 1.4 0 0 0-.406-.238z" class="prefix__cls-5" data-name="Path 1598" transform="translate(-213.945 -360.508)"/>
                    <path id="prefix__Path_1599" d="M213.407 380.262a.123.123 0 0 0-.06.132c0 .007.009.018.018.018a.127.127 0 0 0 .149-.078.133.133 0 0 0 0-.026.14.14 0 0 0-.107-.046z" class="prefix__cls-5" data-name="Path 1599" transform="translate(-213.344 -361.797)"/>
                </g>
                <g id="prefix__Group_44" data-name="Group 44">
                    <g id="prefix__Group_35" data-name="Group 35">
                        <path id="prefix__Path_1600" d="M253.277 216.648c-.078-.082-.132-.148-.164-.189a1.937 1.937 0 0 1 .164.189z" class="prefix__cls-8" data-name="Path 1600" transform="translate(-157.827 -196.744)"/>
                        <g id="prefix__Group_34" data-name="Group 34">
                            <path id="prefix__Path_1601" fill="#f05050" stroke="#f05050" stroke-miterlimit="10" stroke-width="0.6px" d="M25.023 307.432h.5c4.274-6.119 11.087-15.687 16.968-23.1 4.091-5.158 11.954-12.7 19.559-19.983 9.976-9.561 20.292-19.448 22.405-24.26a18.642 18.642 0 0 1 4.309-6.239 11.722 11.722 0 0 0 2.909-4.063 4.182 4.182 0 0 0 .434.58 4.83 4.83 0 0 0 .835.74 3.611 3.611 0 0 0 .427.265 3.614 3.614 0 0 1-.387-.315 4.687 4.687 0 0 1-.713-.818 3.881 3.881 0 0 1-.442-.851l.009-.023c2.918 1.74 6.284 3.659 9.537 5.394a1.591 1.591 0 0 1-.257.035 4.3 4.3 0 0 1-.558.04c-.207-.009-.432.007-.669-.023s-.49-.038-.747-.095a12.728 12.728 0 0 1-1.6-.378c-.272-.075-.538-.167-.8-.257s-.517-.191-.766-.281c-.493-.193-.948-.388-1.333-.566-.772-.354-1.269-.627-1.269-.627a23.772 23.772 0 0 0 4.106 1.928 12.944 12.944 0 0 0 1.615.458c.26.069.522.089.766.133s.482.037.7.056a4.567 4.567 0 0 0 .6-.016 2.067 2.067 0 0 0 .462-.061l.292-.061c2.547 1.348 5 2.57 7.1 3.489-.4-.02-.9-.058-1.469-.112-.382-.037-.795-.079-1.231-.138s-.894-.132-1.368-.206-.959-.18-1.454-.276c-.49-.117-.993-.215-1.488-.351s-.993-.254-1.47-.421-.954-.3-1.4-.482-.886-.33-1.285-.516-.79-.333-1.127-.519l-.934-.48c-.271-.155-.5-.3-.694-.416-.084-.055-.163-.1-.231-.14.069.042.142.092.23.142.192.117.421.264.691.422l.93.489c.335.19.724.345 1.124.53s.833.357 1.282.529.918.338 1.4.5.973.3 1.464.452.993.262 1.482.394c.493.111.978.225 1.451.318.946.183 1.833.34 2.6.446s1.406.175 1.855.219c.353.036.588.051.673.056a18.261 18.261 0 0 0 3.761 1.219 10.839 10.839 0 0 1 1.814.441c-4.718 6.9-27.523 50.674-35.886 66.8h.465c8.456-16.3 31.386-60.286 35.82-66.662a14.71 14.71 0 0 1 5.7 4.454 13.574 13.574 0 0 0 2.614 2.471c2.333 1.463 4.831 4.983 7.637 10.764.467.961 1.036 2.159 1.7 3.554 4.839 10.18 14.274 30.025 25.111 45.419h.505c-10.887-15.4-20.386-35.373-25.245-45.6-.664-1.4-1.234-2.6-1.7-3.558-2.841-5.851-5.389-9.428-7.789-10.932a13.3 13.3 0 0 1-2.527-2.4c-1.815-2.024-4.91-4.96-8.991-5.586-5.516-.847-25.142-12.638-28.61-15.254l-.084-.123c-.073-.1-.178-.258-.29-.452a4.425 4.425 0 0 1-.355-.729 2.14 2.14 0 0 1-.124-1 2.6 2.6 0 0 1 .48-1.117 10.314 10.314 0 0 1 .919-1.1c.046-.052.078-.079.136-.153l.116-.153.117-.154c.034-.059.062-.13.093-.195l.088-.2c.02-.068.028-.138.043-.207l.038-.208v-.21a5.1 5.1 0 0 0-.383-1.593c-.189-.508-.389-1.006-.534-1.511a5.406 5.406 0 0 1-.251-1.512v-.371l.05-.36a3.932 3.932 0 0 1 .164-.683 3.98 3.98 0 0 1 .59-1.144 7.851 7.851 0 0 1 1.351-1.4l.424-.346c.1-.079.146-.127.146-.127s-.049.046-.149.124l-.433.336a7.911 7.911 0 0 0-1.392 1.372 4.239 4.239 0 0 0-.813 1.847l-.06.369-.011.381a5.557 5.557 0 0 0 .22 1.557c.136.518.327 1.028.5 1.535a4.887 4.887 0 0 1 .333 1.525v.187l-.038.18c-.014.059-.021.121-.039.177l-.074.156c-.025.052-.043.1-.073.156l-.12.151-.119.15c-.019.027-.082.086-.12.128a10.563 10.563 0 0 0-.973 1.112 2.928 2.928 0 0 0-.565 1.248 2.5 2.5 0 0 0 .114 1.171c.016.044.033.079.049.121a15.6 15.6 0 0 1-3.537-7.168 8.633 8.633 0 0 1 .4-4.891l.717.977c.549.748 1.277 1.748 1.971 2.77a22.4 22.4 0 0 1 1.743 2.909 1.965 1.965 0 0 1 .261 1.063.323.323 0 0 1-.084.152c-.046.021-.081.055-.118.056l-.109.017.111-.013c.038 0 .074-.032.123-.053a.335.335 0 0 0 .094-.155 1.994 1.994 0 0 0-.219-1.093 22.515 22.515 0 0 0-1.631-3c-.654-1.054-1.342-2.086-1.859-2.857l-.858-1.276c-.029-.048-2.058-3.384-1.876-6.49.161-2.735 2.946-4.359 3.556-4.683.373.359 1.661 1.615 2.845 2.983a19.537 19.537 0 0 1 1.79 2.328 3.281 3.281 0 0 1 .411.87.734.734 0 0 1 .023.267l-.027.092.031-.091a.747.747 0 0 0-.01-.272 3.3 3.3 0 0 0-.373-.9 19.656 19.656 0 0 0-1.687-2.426c-1.04-1.323-2.177-2.56-2.623-3.037l.046-.022-.264-.205c-1.656-1.288-3.577-5.334-1.746-8.08a7.047 7.047 0 0 1 5.171-2.838c.133.127.449.428.859.834a26.033 26.033 0 0 1 1.924 2.08c.157.2.319.4.458.615s.272.42.394.627a5.8 5.8 0 0 1 .291.628 3.6 3.6 0 0 1 .178.594 3.95 3.95 0 0 1 .079.521c.01.157.009.295.012.407l-.021.356.039-.355c0-.113.011-.252.008-.41a3.94 3.94 0 0 0-.053-.531 3.668 3.668 0 0 0-.151-.615 5.945 5.945 0 0 0-.265-.656c-.114-.217-.231-.442-.37-.659s-.284-.433-.434-.648a26.3 26.3 0 0 0-1.838-2.2c-.435-.476-.752-.808-.851-.911a5.653 5.653 0 0 1 1.261-6.045 6.121 6.121 0 0 1 4.31-1.795 5.786 5.786 0 0 1 1.909.322c1.915.669 4.837 1.437 7.5 2.087a7.359 7.359 0 0 0-1 .224c-.138.038-.272.088-.4.138s-.257.112-.378.166a3.226 3.226 0 0 0-.613.4c-.082.069-.145.145-.206.205a.9.9 0 0 0-.137.176l-.109.16.122-.15a.912.912 0 0 1 .15-.16c.066-.053.133-.122.219-.181a3.128 3.128 0 0 1 .626-.33c.124-.041.246-.1.379-.127s.264-.073.4-.1a7.883 7.883 0 0 1 1.512-.147c.356 0 .6.015.667.02l.1.024a3.547 3.547 0 0 0-.257.52l-.05.039.015.058a2.792 2.792 0 0 0 .106 2.217 3.291 3.291 0 0 0 1.525 1.445c-.045-.005-.087-.007-.132-.014a4.27 4.27 0 0 1-.729-.165c-.117-.048-.241-.084-.353-.142a2.423 2.423 0 0 1-.323-.178 1.878 1.878 0 0 1-.28-.2 1.7 1.7 0 0 1-.227-.214l-.175-.2-.111-.173-.1-.152.082.161.1.186.157.221a1.812 1.812 0 0 0 .212.242 1.99 1.99 0 0 0 .27.24 2.513 2.513 0 0 0 .32.219c.111.073.236.123.356.186a4.51 4.51 0 0 0 .751.249 5.332 5.332 0 0 0 .683.118 4.85 4.85 0 0 0 .683.026c.1.022.214.036.322.054a1.928 1.928 0 0 0-.4 2.034 3.429 3.429 0 0 0 1.583 1.617l-.032-.01c-.226-.091-.46-.17-.674-.282a5.937 5.937 0 0 1-.622-.339 5.019 5.019 0 0 1-.538-.388 4.957 4.957 0 0 1-.437-.4 4 4 0 0 1-.315-.394 2.609 2.609 0 0 1-.2-.333 1.945 1.945 0 0 1-.1-.229l-.034-.083.03.084a1.888 1.888 0 0 0 .091.235 2.675 2.675 0 0 0 .187.346 4.056 4.056 0 0 0 .3.415 4.915 4.915 0 0 0 .423.434 5.066 5.066 0 0 0 .528.424 6.058 6.058 0 0 0 .618.38c.213.126.447.219.676.325.236.086.467.189.706.253a6.858 6.858 0 0 0 .7.19c.229.059.454.1.668.132s.416.068.605.084c.252.031.471.047.655.058.264.02.534.034.815.034a12.923 12.923 0 0 0 2.791-.322l-.016.06-.076-.035a2.731 2.731 0 0 0-.114.333 3.723 3.723 0 0 0-.087.386 3.3 3.3 0 0 0-.048.51 3.118 3.118 0 0 0 .039.6l.069.324c.031.108.078.215.118.325a1.456 1.456 0 0 0 .158.318 2.392 2.392 0 0 0 .194.306 3.206 3.206 0 0 0 .505.529l.281.234.308.187c.1.06.2.127.3.179l.315.136a4.06 4.06 0 0 0 .6.232l.554.165a4.481 4.481 0 0 0 .476.1l.369.071.321.061-.317-.079-.363-.09a4.509 4.509 0 0 1-.467-.129l-.54-.193a3.918 3.918 0 0 1-.581-.26l-.3-.149c-.1-.056-.189-.126-.284-.189l-.287-.2-.254-.236a2.967 2.967 0 0 1-.444-.518 2.117 2.117 0 0 1-.162-.29 1.236 1.236 0 0 1-.127-.295c-.03-.1-.068-.2-.091-.3s-.031-.2-.046-.294c-.009-.115-.014-.226-.014-.333.482 1.72 2.613 3.082 6.047 3.082a16.2 16.2 0 0 0 3.358-.378l.068-.015a1.448 1.448 0 0 0-.115.351 1.432 1.432 0 0 0 .553 1.322 6.643 6.643 0 0 0 5.146 1.658l-.292.044a7.312 7.312 0 0 1-.954.09 9.7 9.7 0 0 1-.991-.015 9.807 9.807 0 0 1-.985-.134c-.325-.051-.636-.142-.941-.218-.6-.179-1.152-.388-1.619-.578s-.855-.357-1.134-.453c-.137-.055-.251-.077-.326-.1l-.117-.033.115.038c.074.027.187.054.322.114.274.106.655.286 1.114.5s1 .439 1.606.643c.3.088.617.193.945.257a8.409 8.409 0 0 0 2.014.229 7.448 7.448 0 0 0 .984-.055l.47-.053.442-.09.42-.086c.135-.033.262-.076.386-.112.246-.076.478-.138.673-.208l.494-.2.431-.17c1.18-.353 2.315-.806 3.338-1.214a20.041 20.041 0 0 1 3.107-1.072l.129.011c.1.012.246.032.432.063l.294.051.013.007c.613.437.793 1.714.952 2.842.031.217.062.428.095.636-.023.5-.048 1.02-.075 1.552-.025.5-.051 1.009-.075 1.535l-.02.335c-.224 5.039-.271 11.078 1.864 13.888a2.359 2.359 0 0 1-.392-.306 6.42 6.42 0 0 1-.561-.546 7.779 7.779 0 0 1-.564-.676l-.28-.374-.262-.4c-.183-.267-.34-.556-.5-.841-.32-.575-.607-1.171-.853-1.739s-.457-1.107-.626-1.574-.3-.859-.391-1.135l-.146-.432.129.437c.08.278.195.676.347 1.15s.34 1.023.566 1.6.49 1.191.791 1.785c.155.3.3.594.478.874l.251.42.272.394a8.082 8.082 0 0 0 .555.72 6.642 6.642 0 0 0 .565.594 4.679 4.679 0 0 0 .537.446c.084.062.157.127.234.175l.218.122.361.2c.266.311.528.607.787.9 1.629 1.826 3.167 3.55 4.564 8.565.762 2.74 9.559 12.346 20.7 24.508 16.561 18.086 39.1 42.7 44.526 55.476h.445c-5.342-12.8-28.02-37.572-44.668-55.753-10.659-11.642-19.865-21.7-20.6-24.34-1.422-5.107-2.991-6.867-4.653-8.729-.484-.542-.983-1.1-1.482-1.754-2.1-2.738-2.011-8.85-1.78-13.879a20.117 20.117 0 0 0 3.066-4.21c.566-1.29.833-6.422-.147-7.808a9.347 9.347 0 0 0-3.271-2.258c.445-2.546-.755-3.818-2.021-5.149-.147-.155-.3-.312-.446-.473a5.522 5.522 0 0 0-4.665-2.234 6.458 6.458 0 0 0-3.233-5.208 8.452 8.452 0 0 0-3.686-1.4c-1.528-2.278-4.323-5.395-7.97-4.928-1.925.245-4.744 2.715-7.271 5.278-.863-.158-1.576-.295-2-.386a5.5 5.5 0 0 0-2.693.749 7.258 7.258 0 0 0-.574-1.946 2.808 2.808 0 0 0-2.377-.591c-1.01.14-2.88.829-4.048 3.861a9.4 9.4 0 0 0-.623 3.125c-.734.481-1.339.889-1.741 1.162-.964-.274-1.852-.546-2.588-.8a6.457 6.457 0 0 0-6.646 1.57 6.019 6.019 0 0 0-1.43 6.257 7.306 7.306 0 0 0-5.311 3.007c-1.874 2.81-.1 6.874 1.595 8.429-.873.482-3.472 2.146-3.636 4.95a13.2 13.2 0 0 0 1.873 6.625 8.48 8.48 0 0 0-.534 5.344c.624 3.952 3.324 7.038 4.212 8.053a61.59 61.59 0 0 0 7.669 5.055l.007.018c.02.061.053.142.093.23a11.116 11.116 0 0 1-2.944 4.259 19.017 19.017 0 0 0-4.391 6.362c-2.08 4.737-12.366 14.6-22.313 24.129m80.603-72.834c.846 1.2.692 6.072.107 7.405a23.368 23.368 0 0 1-2.657 3.784l.144-2.456v-.046c-.043-.254-.081-.522-.119-.794a6.96 6.96 0 0 0-.724-2.688c.14.02.283.039.427.054a5.059 5.059 0 0 0 .745.028 2.089 2.089 0 0 0 .343-.036 1.843 1.843 0 0 0 .3-.077 1.4 1.4 0 0 0 .231-.123.946.946 0 0 0 .146-.137l.094-.145-.107.133a.931.931 0 0 1-.153.117 1.364 1.364 0 0 1-.23.094 1.781 1.781 0 0 1-.292.043 2.023 2.023 0 0 1-.33 0 4.847 4.847 0 0 1-.715-.1c-.256-.053-.508-.119-.744-.183-.037-.033-.069-.071-.109-.1a1.334 1.334 0 0 0-.792-.243 1.927 1.927 0 0 0-.369.038 19.972 19.972 0 0 0-3.2 1.1c-1.055.421-2.187.872-3.342 1.22h-.007c-2.7.812-5.516 1.054-7.762-.993a1.037 1.037 0 0 1-.424-.95c.226-1.335 3.468-2.721 5.21-3.466l.358-.154a22.091 22.091 0 0 0 2.621-1.5c1.991-1.253 4.475-2.808 6.23-2.618a10.577 10.577 0 0 1 5.12 2.793zm-5.7-7.839c.15.163.3.321.45.478 1.218 1.281 2.291 2.419 1.93 4.694a6.9 6.9 0 0 0-1.76-.536 3.707 3.707 0 0 0-.9.023c.034-.067.07-.142.106-.229a3.469 3.469 0 0 0 .182-.559 2.676 2.676 0 0 0 .074-.666 2.127 2.127 0 0 0-.1-.656 1.521 1.521 0 0 0-.112-.282 1.2 1.2 0 0 0-.132-.235 1.831 1.831 0 0 0-.243-.317l-.1-.113.086.124a1.816 1.816 0 0 1 .2.337 1.1 1.1 0 0 1 .1.24 1.367 1.367 0 0 1 .074.278 1.959 1.959 0 0 1 .026.615 2.432 2.432 0 0 1-.139.6 3.131 3.131 0 0 1-.223.485 2.732 2.732 0 0 1-.288.422l.052.039a20.815 20.815 0 0 0-5.571 2.577 21.913 21.913 0 0 1-2.565 1.475l-.357.153a13.14 13.14 0 0 0-4.612 2.936l-.463.1c-5.224 1.113-8.458-.419-8.952-2.506-.3-1.283.517-2.868 3-3.581-.692.447-1.364.952-1.794 1.286l-.106.082.033.13c.567 2.269 3.4 2.42 4.137 2.42h.177l.084-.005.056-.062a3.489 3.489 0 0 0 1.094-2.625 3.146 3.146 0 0 0-1.2-2.1.9.9 0 0 0-.806 0c.265-.166.569-.361.907-.579.07.069.165.164.277.284a9.074 9.074 0 0 1 .8.97 5 5 0 0 1 .355.569c.055.093.093.188.135.278a2.39 2.39 0 0 1 .1.259 1.534 1.534 0 0 1 .058.227.731.731 0 0 1 .025.179l.009.159.009-.159a.733.733 0 0 0 0-.184 1.535 1.535 0 0 0-.033-.238 2.364 2.364 0 0 0-.07-.276c-.033-.1-.061-.2-.106-.3a5.224 5.224 0 0 0-.3-.623 9.768 9.768 0 0 0-.92-1.357l.414-.267c3.461-2.24 9.252-5.989 11.959-6.06h.349a5.172 5.172 0 0 1 4.59 2.092zm-18.019 5.339a2.726 2.726 0 0 1 1.048 1.808 3.049 3.049 0 0 1-.93 2.25c-.5.01-3.175-.034-3.773-1.981 1.706-1.316 3.399-2.277 3.655-2.077zm10.194-12.717a6.073 6.073 0 0 1 3.07 4.862h-.218a10.2 10.2 0 0 0-3.6 1.1 11.023 11.023 0 0 0 .363-1.857 5.553 5.553 0 0 0 .025-.869 3.027 3.027 0 0 0-.117-.749 1.383 1.383 0 0 0-.107-.282.723.723 0 0 0-.112-.2l-.117-.164.1.173a.7.7 0 0 1 .093.208 1.339 1.339 0 0 1 .079.284 2.936 2.936 0 0 1 .05.734 5.41 5.41 0 0 1-.1.839 10.216 10.216 0 0 1-.422 1.527c-.1.276-.181.481-.225.587-2.043 1.32-5.747 2.936-8.08 4.447-1.445.935-2.695 2.1-3.022 2.182a4.712 4.712 0 0 0-3.267 2.293c-4.4 1.058-7.612-.376-8.211-1.913-.362-.927.2-1.832 1.527-2.5-.168.126-.32.243-.45.344l-.106.082.033.13c.567 2.269 3.4 2.42 4.137 2.42h.261l.056-.062a3.487 3.487 0 0 0 1.093-2.625 3.145 3.145 0 0 0-1.2-2.1.939.939 0 0 0-.84.013q.271-.2.536-.407c.071.043.168.1.284.18a6.939 6.939 0 0 1 .842.663 4.221 4.221 0 0 1 .692.823 2.532 2.532 0 0 1 .167.316l.056.125-.039-.131a2.564 2.564 0 0 0-.127-.34 4.36 4.36 0 0 0-.6-.933 7.2 7.2 0 0 0-.78-.8c-.067-.059-.127-.109-.182-.154a52.873 52.873 0 0 0 4.114-3.816 25.348 25.348 0 0 1 3.933-3.153l.221-.143c1.715-1.107 3.429-2.481 5.943-2.481a7.692 7.692 0 0 1 4.247 1.345zm-18.725 9.2a2.728 2.728 0 0 1 1.048 1.808 3.051 3.051 0 0 1-.93 2.25c-.506.007-3.175-.034-3.773-1.981 1.704-1.316 3.395-2.281 3.654-2.079zm7.346-15.461a5.238 5.238 0 0 1 .657-.042c2.941 0 5.3 2.512 6.715 4.524a8.48 8.48 0 0 0-3.748.8 6.024 6.024 0 0 0 .216-1.348 3.365 3.365 0 0 0-.038-.676 2.226 2.226 0 0 0-.172-.563c-.037-.077-.085-.142-.119-.2a.731.731 0 0 0-.112-.14l-.106-.114.092.125a.672.672 0 0 1 .094.148c.028.063.066.129.093.207a2.122 2.122 0 0 1 .1.553 3.155 3.155 0 0 1-.037.643 5.651 5.651 0 0 1-.317 1.166c-.077.2-.142.345-.18.427a25.753 25.753 0 0 0-2.594 1.528l-.221.143a25.36 25.36 0 0 0-3.584 3.208c-2.22 2.217-4.735 4.731-7.677 6.116a4.935 4.935 0 0 0-1.135.72 3.64 3.64 0 0 1-3.011-1.737 2.305 2.305 0 0 1-.217-1.348c.879 1.68 3.233 1.807 3.9 1.807h.177l.084-.005.056-.062a3.843 3.843 0 0 0 1.078-2.093 4.122 4.122 0 0 0 .114-.573 4.023 4.023 0 0 0 .029-.651 3.111 3.111 0 0 0-.111-.737 2.373 2.373 0 0 0-.133-.355 1.64 1.64 0 0 0-.179-.318 1.352 1.352 0 0 0-.211-.264 1.177 1.177 0 0 0-.22-.2 1.829 1.829 0 0 0-.371-.246l-.147-.081.137.1a1.79 1.79 0 0 1 .338.279 1.114 1.114 0 0 1 .19.218 1.245 1.245 0 0 1 .173.27 1.518 1.518 0 0 1 .135.312 2.175 2.175 0 0 1 .088.339 2.814 2.814 0 0 1 .028.71 3.4 3.4 0 0 0-1.049-1.425c-.543-.423-2.29.7-3.5 1.584a5.517 5.517 0 0 1 1.873-1.523 18.22 18.22 0 0 0 2.41-2.446c2.87-3.164 7.682-8.434 10.411-8.782zm-15.1 13.553c1.705-1.314 3.4-2.279 3.655-2.077a2.727 2.727 0 0 1 1.044 1.802 3.05 3.05 0 0 1-.93 2.25c-.504.015-3.176-.034-3.773-1.977zm5.7-8.667c.38.082.993.2 1.739.338-1.122 1.153-2.175 2.306-3.05 3.264l-.637.7c-.162-1.218-.366-2.484-.574-3.536a5.377 5.377 0 0 1 2.513-.768zm-9.221 1.819c1.092-2.835 2.8-3.474 3.721-3.6a3.512 3.512 0 0 1 .487-.034 2.145 2.145 0 0 1 1.5.465 30.606 30.606 0 0 1 1.2 6.046 9.662 9.662 0 0 1-1.3 1.269 5.954 5.954 0 0 0-2 1.623c-1.294-.306-2.716-.653-4.1-1.013a9.274 9.274 0 0 1 .483-4.757zM97.85 179.9a10.521 10.521 0 0 0 .09 1.166c-.445-.118-.884-.236-1.311-.355.371-.248.778-.522 1.221-.811z" data-name="Path 1601" transform="translate(-25.023 -169.266)"/>
                            <path id="prefix__Path_1602" d="M266.026 226.974a1.672 1.672 0 0 0-.122-.249 1.433 1.433 0 0 0-.132-.208 2.161 2.161 0 0 0-.231-.283l-.092-.1.079.113a2.11 2.11 0 0 1 .19.306 1.334 1.334 0 0 1 .1.215 1.583 1.583 0 0 1 .084.249 1.776 1.776 0 0 1 .062.557 1.88 1.88 0 0 1-.084.473 2.578 2.578 0 0 0-.926-1.476c-.53-.414-2.353.879-3.391 1.689l-.105.082.032.13c.447 1.788 2.586 1.926 3.234 1.926h.183l.084-.005.056-.062a3.486 3.486 0 0 0 .739-1.176 1.031 1.031 0 0 1 .042-.109c.03-.071.09-.191.147-.337a2.487 2.487 0 0 0 .193-1.137 1.942 1.942 0 0 0-.142-.598zm-4.1 1.523a7.462 7.462 0 0 1 2.776-1.6 2.084 2.084 0 0 1 .8 1.381 2.331 2.331 0 0 1-.7 1.71c-.43.007-2.402-.052-2.876-1.488z" class="prefix__cls-5" data-name="Path 1602" transform="translate(-162.686 -202.376)"/>
                            <path id="prefix__Path_1603" d="M176.477 224.294a4.886 4.886 0 0 0 .622-1.247 8.5 8.5 0 0 0 .314-1.236c.073-.4.125-.774.161-1.122a16.164 16.164 0 0 0 .081-1.687c0-.407-.019-.639-.019-.639l-.061.635c-.039.404-.118.978-.23 1.66-.056.341-.13.708-.224 1.09a11.4 11.4 0 0 1-.362 1.176 4.927 4.927 0 0 1-.6 1.13c-.255.311-.637.624-.955.975a9.041 9.041 0 0 0-1.55 2.3 6.97 6.97 0 0 0-.433 1.2 7.712 7.712 0 0 0-.19 1.129l-.022.508.028.456c.018.286.076.53.1.732.1.4.166.619.166.619l-.086-.631c-.006-.2-.038-.446-.028-.725l.017-.444c.006-.156.036-.318.054-.488a7.354 7.354 0 0 1 .248-1.072 8.711 8.711 0 0 1 .471-1.131 9.4 9.4 0 0 1 .674-1.123 10.33 10.33 0 0 1 .853-1.053c.303-.341.647-.615.971-1.012z" class="prefix__cls-5" data-name="Path 1603" transform="translate(-111.188 -197.852)"/>
                            <path id="prefix__Path_1604" fill="#404041" d="M192.144 325.336l-.028-.017z" data-name="Path 1604" transform="translate(-122.312 -260.127)"/>
                            <path id="prefix__Path_1605" d="M213.174 273.754c-.625-.383-1.492-.971-2.545-1.655l-3.586-2.364-4.133-2.678-4.18-2.606c-1.341-.822-2.613-1.554-3.706-2.179s-2.031-1.1-2.684-1.433l-1.045-.486 1.01.557 1.139.669 1.464.891c1.073.653 2.3 1.449 3.634 2.283l4.148 2.649 4.161 2.632c1.326.843 2.584 1.6 3.655 2.259.537.327 1.033.621 1.476.877s.827.481 1.153.652.576.313.76.387l.275.122-.266-.142c-.178-.084-.417-.246-.73-.435z" class="prefix__cls-5" data-name="Path 1605" transform="translate(-121.833 -222.301)"/>
                            <path id="prefix__Path_1606" d="M182.458 288.466c.579.295 1.191.607 1.79.963.576.368 1.15.849 1.742 1.3l1.788 1.387 3.559 2.679c1.138.853 2.224 1.617 3.152 2.275s1.727 1.173 2.292 1.523a7.657 7.657 0 0 0 .674.377.89.89 0 0 0 .258.087.893.893 0 0 1-.248-.107c-.152-.091-.37-.233-.64-.424-.545-.376-1.293-.958-2.2-1.643l-6.6-5.094-1.805-1.364c-.6-.444-1.163-.9-1.79-1.3a20.379 20.379 0 0 0-1.845-.928l-1.666-.768a20.157 20.157 0 0 1-2.42-1.277 4.987 4.987 0 0 1-.615-.456l-.2-.185.185.2a2.517 2.517 0 0 0 .239.225 3.41 3.41 0 0 0 .347.28 11.73 11.73 0 0 0 1 .664c.4.238.854.5 1.362.754z" class="prefix__cls-5" data-name="Path 1606" transform="translate(-113.91 -236.949)"/>
                        </g>
                        <path id="prefix__Path_1607" d="M168.936 234.233c.272.127.415.214.23.177a.452.452 0 0 1-.23-.177z" class="prefix__cls-8" data-name="Path 1607" transform="translate(-108.816 -207.093)"/>
                    </g>
                    <g id="prefix__Group_36" class="prefix__cls-6" data-name="Group 36" transform="translate(84.33 4.26)">
                        <path id="prefix__Path_1608" d="M227.46 198.6c.283.375.562.754.829 1.143.035.053.075.1.11.147.028 0 .056 0 .067-.013.056-.064.111-.127.162-.195a.1.1 0 0 0 0-.119l-.05-.08c-.535-.764-1.1-1.507-1.679-2.237 0 0 0-.008-.008-.007.056.216.118.419.173.574a4.108 4.108 0 0 0 .396.787z" class="prefix__cls-5" data-name="Path 1608" transform="translate(-226.888 -189.813)"/>
                        <path id="prefix__Path_1609" d="M230.944 195.245c.282.375.561.754.829 1.143.035.053.075.1.11.148.028 0 .056 0 .067-.013.056-.064.111-.127.162-.195a.1.1 0 0 0 0-.119c-.018-.027-.032-.053-.049-.08-.535-.764-1.1-1.507-1.679-2.236 0 0 0-.008-.008-.008.055.216.118.419.173.574a4.108 4.108 0 0 0 .395.786z" class="prefix__cls-5" data-name="Path 1609" transform="translate(-228.917 -187.86)"/>
                        <path id="prefix__Path_1610" d="M232.557 193.89c.282.375.561.754.829 1.143.036.053.075.1.111.148.028 0 .056 0 .067-.013.056-.063.111-.127.162-.195a.1.1 0 0 0 0-.119c-.018-.027-.032-.053-.049-.08-.535-.764-1.1-1.507-1.679-2.236 0 0 0-.008-.008-.008.055.216.118.419.173.574a4.108 4.108 0 0 0 .394.786z" class="prefix__cls-5" data-name="Path 1610" transform="translate(-229.856 -187.071)"/>
                        <path id="prefix__Path_1611" d="M228.2 195.478c.359.477.714.959 1.054 1.453.045.068.1.13.14.188.036 0 .071 0 .086-.016.071-.081.141-.163.206-.248a.13.13 0 0 0-.005-.152c-.023-.034-.041-.068-.063-.1-.679-.971-1.392-1.916-2.134-2.842-.005 0-.005-.01-.011-.009.071.274.15.532.22.73a5.217 5.217 0 0 0 .507.996z" class="prefix__cls-5" data-name="Path 1611" transform="translate(-227.228 -187.781)"/>
                        <path id="prefix__Path_1612" d="M244.538 184.446c.211.269.421.538.628.811.039.049.083.1.122.147a.524.524 0 0 0 .26-.189.11.11 0 0 0 0-.088 1.875 1.875 0 0 0-.129-.183c-.267-.345-.527-.69-.8-1.03-.328-.405-.663-.8-1-1.2a4.123 4.123 0 0 0 .251.753c.22.333.471.657.668.979z" class="prefix__cls-5" data-name="Path 1612" transform="translate(-236.63 -181.356)"/>
                        <path id="prefix__Path_1613" d="M241.471 184.638c.151.217.317.425.46.639.31.39.617.784.917 1.183.057.076.118.147.179.219a.08.08 0 0 0 .057.016.661.661 0 0 0 .253-.173.247.247 0 0 0-.07-.147c-.617-.836-1.269-1.649-1.943-2.437a1.24 1.24 0 0 0 .045.432q.046.13.102.268z" class="prefix__cls-5" data-name="Path 1613" transform="translate(-235.292 -182.069)"/>
                        <path id="prefix__Path_1614" d="M239.228 186.037c.424.53.845 1.064 1.246 1.611a.651.651 0 0 0 .086.086c.081-.049.147-.086.208-.126a.1.1 0 0 0 .045-.039.078.078 0 0 0 .016-.057.356.356 0 0 0-.063-.107q-.986-1.345-2.07-2.612a.508.508 0 0 0-.086-.078v.115a1.47 1.47 0 0 0 .313.769c.104.141.203.29.305.438z" class="prefix__cls-5" data-name="Path 1614" transform="translate(-233.712 -182.521)"/>
                        <path id="prefix__Path_1615" d="M250.51 180.91c.176.224.351.449.524.677.033.041.069.081.1.123a.44.44 0 0 0 .217-.158.092.092 0 0 0 0-.073 1.651 1.651 0 0 0-.108-.153c-.223-.288-.44-.576-.669-.86-.274-.338-.554-.668-.833-1a3.412 3.412 0 0 0 .21.628c.186.279.394.548.559.816z" class="prefix__cls-5" data-name="Path 1615" transform="translate(-240.196 -179.464)"/>
                        <path id="prefix__Path_1616" d="M247.951 181.07c.126.181.264.355.383.533q.389.487.765.987c.048.064.1.123.15.183a.068.068 0 0 0 .047.013.547.547 0 0 0 .211-.144.2.2 0 0 0-.059-.122c-.515-.7-1.059-1.377-1.621-2.034a1.029 1.029 0 0 0 .038.361q.035.112.086.223z" class="prefix__cls-5" data-name="Path 1616" transform="translate(-239.079 -180.059)"/>
                        <path id="prefix__Path_1617" d="M246.078 182.238c.354.442.7.888 1.04 1.345a.542.542 0 0 0 .072.071c.067-.041.122-.071.173-.1a.089.089 0 0 0 .038-.032.066.066 0 0 0 .013-.048.3.3 0 0 0-.053-.089q-.823-1.123-1.728-2.18a.417.417 0 0 0-.071-.065v.1a1.232 1.232 0 0 0 .261.642c.087.108.169.233.255.356z" class="prefix__cls-5" data-name="Path 1617" transform="translate(-237.76 -180.437)"/>
                        <path id="prefix__Path_1618" d="M238.494 189.216c.018.026.039.049.057.076a.1.1 0 0 0 .114.025.619.619 0 0 0 .216-.178c0-.012 0-.028-.006-.036-.032-.054-.067-.107-.1-.161-.579-.8-1.188-1.575-1.82-2.33-.039-.049-.086-.094-.13-.143a2.555 2.555 0 0 0 .406 1.089c.435.549.857 1.099 1.263 1.658z" class="prefix__cls-5" data-name="Path 1618" transform="translate(-232.672 -183.543)"/>
                        <path id="prefix__Path_1619" d="M235.591 189.558c.4.515.8 1.039 1.175 1.568a.654.654 0 0 0 .083.094.059.059 0 0 0 .057.008.515.515 0 0 0 .229-.227c-.031-.05-.063-.108-.1-.157q-.836-1.164-1.744-2.271a2.542 2.542 0 0 0 .163.691c.04.101.087.198.137.294z" class="prefix__cls-5" data-name="Path 1619" transform="translate(-231.779 -184.766)"/>
                        <path id="prefix__Path_1620" d="M234.221 191.952c.282.376.559.756.826 1.145.035.053.075.1.11.148.028 0 .056 0 .067-.013.056-.064.111-.127.163-.195a.1.1 0 0 0 0-.119c-.018-.027-.032-.053-.049-.08-.533-.766-1.092-1.51-1.674-2.24 0 0 0-.008-.008-.008.055.216.117.419.171.575a4.1 4.1 0 0 0 .394.787z" class="prefix__cls-5" data-name="Path 1620" transform="translate(-230.826 -185.942)"/>
                    </g>
                    <g id="prefix__Group_37" class="prefix__cls-6" data-name="Group 37" transform="translate(60.563 16.604)">
                        <path id="prefix__Path_1621" d="M171.374 209.445c-.4.244-.807.483-1.22.711-.057.03-.109.064-.158.1 0 .028-.006.056.006.069.058.061.116.123.178.18a.1.1 0 0 0 .119.008c.028-.015.056-.026.085-.041.814-.456 1.609-.939 2.393-1.448 0 0 .008 0 .008-.007-.22.033-.429.075-.589.114a4.1 4.1 0 0 0-.822.314z" class="prefix__cls-5" data-name="Path 1621" transform="translate(-169.995 -209.012)"/>
                        <path id="prefix__Path_1622" d="M174.364 213.247c-.4.244-.807.483-1.22.711-.056.03-.109.064-.158.095 0 .028-.006.056.006.069.058.061.116.123.178.181a.1.1 0 0 0 .119.007c.028-.015.056-.026.085-.041.814-.455 1.609-.939 2.393-1.447 0 0 .008 0 .008-.008-.22.033-.429.076-.589.114a4.136 4.136 0 0 0-.822.319z" class="prefix__cls-5" data-name="Path 1622" transform="translate(-171.736 -211.225)"/>
                        <path id="prefix__Path_1623" d="M175.551 214.987c-.4.244-.807.483-1.22.711-.056.03-.109.064-.158.1 0 .028-.006.056.006.068.058.061.116.123.178.181a.1.1 0 0 0 .119.008c.028-.015.056-.027.085-.042.814-.455 1.609-.939 2.393-1.447 0 0 .008 0 .008-.008-.22.034-.429.076-.589.114a4.136 4.136 0 0 0-.822.315z" class="prefix__cls-5" data-name="Path 1623" transform="translate(-172.427 -212.238)"/>
                        <path id="prefix__Path_1624" d="M173.352 210.493c-.51.31-1.025.614-1.55.9-.072.038-.139.082-.2.121 0 .036-.008.071.008.087.074.078.147.156.226.23a.129.129 0 0 0 .152.01c.036-.019.072-.033.108-.053 1.035-.579 2.045-1.194 3.041-1.84.005 0 .01 0 .01-.01-.279.043-.545.1-.749.145a5.234 5.234 0 0 0-1.046.41z" class="prefix__cls-5" data-name="Path 1624" transform="translate(-170.928 -209.553)"/>
                        <path id="prefix__Path_1625" d="M179.283 221.36c-.028.015-.053.034-.081.05a.1.1 0 0 0-.036.111.616.616 0 0 0 .156.233c.012 0 .028.005.036 0 .056-.026.114-.057.17-.086.853-.5 1.686-1.025 2.5-1.578.053-.034.1-.076.155-.115a2.551 2.551 0 0 0-1.125.3c-.589.373-1.178.737-1.775 1.085z" class="prefix__cls-5" data-name="Path 1625" transform="translate(-175.331 -215.393)"/>
                        <path id="prefix__Path_1626" d="M179.531 218.438q-.83.525-1.677 1.013a.634.634 0 0 0-.1.073.059.059 0 0 0-.014.056.515.515 0 0 0 .2.25c.053-.026.113-.052.166-.082q1.241-.716 2.434-1.508a2.566 2.566 0 0 0-.7.094c-.107.027-.208.066-.309.104z" class="prefix__cls-5" data-name="Path 1626" transform="translate(-174.502 -214.382)"/>
                        <path id="prefix__Path_1627" d="M177.308 216.836c-.4.243-.808.481-1.221.708-.056.03-.109.064-.158.095 0 .028-.006.056.005.068.058.062.116.123.177.181a.1.1 0 0 0 .119.008c.028-.015.056-.026.085-.041.815-.454 1.611-.935 2.4-1.442 0 0 .008 0 .008-.008-.22.033-.429.074-.589.113a4.14 4.14 0 0 0-.826.318z" class="prefix__cls-5" data-name="Path 1627" transform="translate(-173.449 -213.317)"/>
                    </g>
                    <g id="prefix__Group_38" class="prefix__cls-6" data-name="Group 38" transform="translate(54.061 36.189)">
                        <path id="prefix__Path_1628" d="M155.976 256.007c-.448.142-.9.278-1.354.4-.062.016-.122.037-.176.055-.008.027-.019.053-.01.068.041.074.083.147.129.218a.1.1 0 0 0 .114.036c.031-.008.061-.012.092-.02.9-.249 1.786-.531 2.668-.838 0 0 .009 0 .01-.006-.222-.02-.434-.028-.6-.028a4.109 4.109 0 0 0-.873.115z" class="prefix__cls-5" data-name="Path 1628" transform="translate(-154.433 -255.892)"/>
                        <path id="prefix__Path_1629" d="M157.978 260.409c-.448.142-.9.278-1.354.4-.062.016-.122.036-.176.055-.007.027-.019.053-.01.068.042.074.084.147.13.218a.1.1 0 0 0 .114.036c.031-.008.061-.013.092-.02.9-.249 1.786-.531 2.668-.838 0 0 .009 0 .01-.005-.221-.02-.434-.028-.6-.029a4.16 4.16 0 0 0-.874.115z" class="prefix__cls-5" data-name="Path 1629" transform="translate(-155.599 -258.455)"/>
                        <path id="prefix__Path_1630" d="M158.718 262.382c-.448.142-.9.278-1.354.4-.062.016-.122.037-.176.055-.008.027-.019.053-.011.068.042.074.084.147.13.218a.1.1 0 0 0 .114.036c.031-.008.061-.012.092-.02.9-.249 1.786-.531 2.668-.838 0 0 .009 0 .01-.005-.221-.02-.434-.028-.6-.028a4.1 4.1 0 0 0-.873.114z" class="prefix__cls-5" data-name="Path 1630" transform="translate(-156.029 -259.604)"/>
                        <path id="prefix__Path_1631" d="M157.533 257.733c-.569.18-1.142.353-1.72.51-.079.02-.155.047-.223.07-.01.034-.024.067-.013.086.053.094.106.187.165.277a.129.129 0 0 0 .145.046c.04-.01.078-.015.117-.025 1.142-.317 2.27-.674 3.391-1.065.006 0 .011 0 .012-.007-.282-.025-.552-.036-.762-.036a5.223 5.223 0 0 0-1.112.144z" class="prefix__cls-5" data-name="Path 1631" transform="translate(-155.096 -256.879)"/>
                        <path id="prefix__Path_1632" d="M160.752 269.494c-.031.008-.06.021-.091.029a.1.1 0 0 0-.061.1.619.619 0 0 0 .1.263c.012 0 .026.012.036.006.061-.012.124-.028.185-.043.946-.28 1.881-.6 2.8-.939.06-.021.117-.05.178-.075a2.551 2.551 0 0 0-1.163.02c-.663.228-1.322.445-1.984.639z" class="prefix__cls-5" data-name="Path 1632" transform="translate(-158.023 -263.393)"/>
                        <path id="prefix__Path_1633" d="M161.75 266.616q-.931.313-1.87.586a.652.652 0 0 0-.117.047.06.06 0 0 0-.027.051.519.519 0 0 0 .138.291c.058-.013.123-.024.181-.04q1.376-.4 2.723-.887a2.555 2.555 0 0 0-.706-.076c-.108.002-.214.012-.322.028z" class="prefix__cls-5" data-name="Path 1633" transform="translate(-157.521 -262.116)"/>
                        <path id="prefix__Path_1634" d="M159.989 264.594c-.448.14-.9.276-1.355.4-.062.016-.122.036-.176.055-.008.027-.019.053-.01.068.041.074.083.147.129.218a.1.1 0 0 0 .114.036c.031-.008.061-.012.092-.02.9-.247 1.787-.526 2.67-.832 0 0 .009 0 .01-.005-.221-.02-.434-.03-.6-.03a4.1 4.1 0 0 0-.874.11z" class="prefix__cls-5" data-name="Path 1634" transform="translate(-156.769 -260.893)"/>
                    </g>
                    <g id="prefix__Group_39" class="prefix__cls-6" data-name="Group 39" transform="translate(54.572 46.143)">
                        <path id="prefix__Path_1635" d="M157.2 279.836c-.447.142-.9.278-1.354.4-.062.016-.122.037-.176.055-.008.027-.019.053-.01.068.042.074.083.147.13.218a.1.1 0 0 0 .114.036c.031-.008.061-.012.092-.02.9-.249 1.786-.531 2.668-.838 0 0 .009 0 .01-.005-.222-.02-.434-.028-.6-.028a4.108 4.108 0 0 0-.874.114z" class="prefix__cls-5" data-name="Path 1635" transform="translate(-155.655 -279.721)"/>
                        <path id="prefix__Path_1636" d="M159.2 284.238c-.448.142-.9.278-1.354.4-.062.016-.122.037-.176.055-.007.027-.019.053-.01.068.042.074.084.147.13.218a.1.1 0 0 0 .114.035c.031-.008.061-.012.092-.02.9-.249 1.786-.53 2.668-.838 0 0 .009 0 .01-.005-.221-.02-.434-.029-.6-.029a4.129 4.129 0 0 0-.874.116z" class="prefix__cls-5" data-name="Path 1636" transform="translate(-156.82 -282.284)"/>
                        <path id="prefix__Path_1637" d="M159.941 286.21c-.448.142-.9.278-1.354.4-.062.015-.122.036-.176.055-.008.027-.019.053-.01.068.041.074.083.147.13.218a.1.1 0 0 0 .114.036c.031-.008.061-.013.092-.02q1.348-.374 2.668-.838s.009 0 .01-.005c-.222-.02-.434-.028-.6-.029a4.159 4.159 0 0 0-.874.115z" class="prefix__cls-5" data-name="Path 1637" transform="translate(-157.252 -283.432)"/>
                        <path id="prefix__Path_1638" d="M158.755 281.562c-.569.18-1.142.353-1.72.51-.079.02-.155.046-.223.07-.01.034-.024.067-.013.086.053.094.106.187.165.277a.129.129 0 0 0 .145.046c.04-.01.078-.015.117-.025 1.142-.317 2.27-.674 3.391-1.065.006 0 .011 0 .012-.007-.282-.025-.552-.036-.762-.036a5.246 5.246 0 0 0-1.112.144z" class="prefix__cls-5" data-name="Path 1638" transform="translate(-156.318 -280.708)"/>
                        <path id="prefix__Path_1639" d="M161.974 293.323c-.031.008-.06.02-.091.029a.1.1 0 0 0-.061.1.615.615 0 0 0 .1.263c.011 0 .026.011.036.006.061-.012.124-.028.185-.043.946-.28 1.881-.6 2.8-.94.06-.021.117-.05.178-.075a2.557 2.557 0 0 0-1.163.02c-.663.229-1.322.443-1.984.64z" class="prefix__cls-5" data-name="Path 1639" transform="translate(-159.245 -287.222)"/>
                        <path id="prefix__Path_1640" d="M162.973 290.445q-.931.313-1.87.586a.688.688 0 0 0-.117.046.06.06 0 0 0-.026.051.516.516 0 0 0 .137.291c.058-.013.123-.024.181-.04q1.375-.4 2.722-.888h.005a2.561 2.561 0 0 0-.706-.076c-.112.003-.219.015-.326.03z" class="prefix__cls-5" data-name="Path 1640" transform="translate(-158.743 -285.945)"/>
                        <path id="prefix__Path_1641" d="M161.211 288.423c-.448.14-.9.276-1.355.4-.062.015-.122.036-.176.055-.008.027-.019.053-.01.068.041.074.083.147.129.218a.1.1 0 0 0 .114.036l.092-.02c.9-.247 1.787-.526 2.67-.832 0 0 .009 0 .01-.005-.221-.02-.434-.03-.6-.03a4.108 4.108 0 0 0-.874.11z" class="prefix__cls-5" data-name="Path 1641" transform="translate(-157.991 -284.722)"/>
                    </g>
                    <g id="prefix__Group_40" class="prefix__cls-6" data-name="Group 40" transform="translate(55.034 25.462)">
                        <path id="prefix__Path_1642" d="M158.087 230.736c-.386.268-.776.532-1.174.785-.054.033-.105.071-.152.1 0 .028 0 .056.01.068.061.058.123.115.188.17a.1.1 0 0 0 .119 0c.028-.017.055-.03.082-.047.784-.5 1.548-1.036 2.3-1.592 0 0 .008 0 .007-.008-.217.047-.423.1-.581.151a4.1 4.1 0 0 0-.799.373z" class="prefix__cls-5" data-name="Path 1642" transform="translate(-156.761 -230.216)"/>
                        <path id="prefix__Path_1643" d="M161.3 234.346c-.386.268-.775.532-1.174.785-.054.033-.105.071-.152.1 0 .028 0 .056.01.068.062.058.123.116.188.17a.1.1 0 0 0 .119 0c.028-.017.055-.03.082-.046.785-.5 1.548-1.036 2.3-1.592 0 0 .008 0 .008-.008-.217.047-.423.1-.581.15a4.127 4.127 0 0 0-.8.373z" class="prefix__cls-5" data-name="Path 1643" transform="translate(-158.635 -232.318)"/>
                        <path id="prefix__Path_1644" d="M162.6 236.01c-.386.268-.776.532-1.174.785-.055.033-.105.071-.152.1 0 .028 0 .056.01.068.061.058.123.116.188.17a.1.1 0 0 0 .119 0c.028-.017.055-.03.082-.046.784-.5 1.548-1.036 2.3-1.592 0 0 .007 0 .007-.008-.218.047-.423.1-.581.15a4.1 4.1 0 0 0-.799.373z" class="prefix__cls-5" data-name="Path 1644" transform="translate(-159.387 -233.287)"/>
                        <path id="prefix__Path_1645" d="M160.154 231.6c-.49.341-.985.676-1.492 1-.069.043-.134.09-.193.133 0 .035 0 .071.013.086.079.074.157.147.24.216a.128.128 0 0 0 .152 0c.035-.021.07-.038.1-.059 1-.641 1.968-1.317 2.922-2.023.005-.005.01-.005.01-.01-.277.06-.538.129-.738.191a5.221 5.221 0 0 0-1.014.466z" class="prefix__cls-5" data-name="Path 1645" transform="translate(-157.756 -230.635)"/>
                        <path id="prefix__Path_1646" d="M166.734 242.123c-.027.017-.051.038-.078.055a.1.1 0 0 0-.029.112.619.619 0 0 0 .17.223h.036c.055-.03.11-.064.165-.1.82-.548 1.619-1.126 2.4-1.729.051-.037.1-.082.147-.124a2.55 2.55 0 0 0-1.1.364c-.571.414-1.137.815-1.711 1.199z" class="prefix__cls-5" data-name="Path 1646" transform="translate(-162.5 -236.238)"/>
                        <path id="prefix__Path_1647" d="M166.786 239.209q-.8.575-1.612 1.114a.663.663 0 0 0-.1.079.059.059 0 0 0-.01.056.517.517 0 0 0 .218.237c.051-.03.11-.059.161-.093q1.2-.79 2.337-1.655a2.555 2.555 0 0 0-.7.137c-.097.035-.195.078-.294.125z" class="prefix__cls-5" data-name="Path 1647" transform="translate(-161.595 -235.298)"/>
                        <path id="prefix__Path_1648" d="M164.464 237.747c-.386.267-.777.53-1.176.782-.055.033-.105.071-.152.1 0 .028 0 .056.01.068.061.058.123.116.188.17a.1.1 0 0 0 .119 0c.028-.017.055-.03.082-.046 1-.643 1.375-.9 2.3-1.586 0 0 .008 0 .008-.008-.217.047-.423.1-.581.149a4.115 4.115 0 0 0-.798.371z" class="prefix__cls-5" data-name="Path 1648" transform="translate(-160.473 -234.3)"/>
                    </g>
                    <g id="prefix__Group_41" class="prefix__cls-6" data-name="Group 41" transform="translate(90.9 10.925)">
                        <path id="prefix__Path_1649" d="M243.005 211.5c.231.409.459.821.673 1.241.028.057.061.111.091.16.028 0 .056.008.068 0 .063-.056.127-.112.186-.172a.1.1 0 0 0 .011-.119l-.039-.086c-.431-.827-.89-1.637-1.374-2.436 0 0 0-.008-.008-.008.027.221.063.431.1.592a4.113 4.113 0 0 0 .292.828z" class="prefix__cls-5" data-name="Path 1649" transform="translate(-242.614 -203.95)"/>
                        <path id="prefix__Path_1650" d="M246.9 208.622c.231.409.459.821.673 1.241.028.057.061.111.091.161.028 0 .056.008.069 0 .063-.056.126-.112.186-.172a.1.1 0 0 0 .011-.119l-.039-.086c-.431-.828-.89-1.637-1.374-2.436 0 0 0-.008-.007-.009.027.221.062.431.1.592a4.115 4.115 0 0 0 .29.828z" class="prefix__cls-5" data-name="Path 1650" transform="translate(-244.88 -202.276)"/>
                        <path id="prefix__Path_1651" d="M248.671 207.488c.231.409.459.821.674 1.241.028.057.061.111.09.161.028 0 .056.008.069 0 .063-.056.126-.112.186-.172a.1.1 0 0 0 .012-.119l-.039-.086c-.431-.828-.89-1.637-1.374-2.436 0 0 0-.008-.008-.008.027.221.062.43.1.592a4.115 4.115 0 0 0 .29.827z" class="prefix__cls-5" data-name="Path 1651" transform="translate(-245.913 -201.617)"/>
                        <path id="prefix__Path_1652" d="M244.144 208.5c.294.519.583 1.044.856 1.577.036.073.077.142.114.2.036 0 .071.01.087 0 .08-.071.16-.142.236-.219a.128.128 0 0 0 .014-.151c-.018-.037-.031-.073-.049-.109-.547-1.051-1.131-2.08-1.747-3.1 0-.005 0-.01-.01-.011.034.281.079.547.123.753a5.252 5.252 0 0 0 .376 1.06z" class="prefix__cls-5" data-name="Path 1652" transform="translate(-243.215 -201.98)"/>
                        <path id="prefix__Path_1653" d="M261.778 199.681c.173.294.347.588.517.886.033.053.069.108.1.162a.525.525 0 0 0 .282-.154.108.108 0 0 0 .013-.087 1.876 1.876 0 0 0-.1-.2c-.22-.376-.433-.753-.661-1.126-.272-.444-.554-.88-.834-1.321a4.144 4.144 0 0 0 .151.779c.171.364.377.716.532 1.061z" class="prefix__cls-5" data-name="Path 1653" transform="translate(-253.373 -196.83)"/>
                        <path id="prefix__Path_1654" d="M258.679 199.474c.121.235.259.463.373.693.257.427.51.857.756 1.292.047.082.1.161.149.24a.08.08 0 0 0 .054.023.653.653 0 0 0 .273-.139.249.249 0 0 0-.051-.155c-.5-.909-1.044-1.8-1.61-2.669a1.233 1.233 0 0 0-.011.434c.018.094.041.187.067.281z" class="prefix__cls-5" data-name="Path 1654" transform="translate(-251.92 -197.363)"/>
                        <path id="prefix__Path_1655" d="M256.28 200.569c.351.58.7 1.165 1.026 1.759a.644.644 0 0 0 .074.1c.086-.038.157-.066.223-.1a.106.106 0 0 0 .05-.033.08.08 0 0 0 .023-.055.364.364 0 0 0-.049-.115q-.8-1.461-1.714-2.859a.533.533 0 0 0-.074-.089c-.007.036-.009.075-.015.115a1.472 1.472 0 0 0 .21.8c.086.155.166.316.246.477z" class="prefix__cls-5" data-name="Path 1655" transform="translate(-250.303 -197.606)"/>
                        <path id="prefix__Path_1656" d="M268.158 196.951c.145.245.29.49.432.739.027.045.058.09.085.135a.438.438 0 0 0 .236-.128.092.092 0 0 0 .011-.072 1.522 1.522 0 0 0-.087-.165c-.184-.315-.361-.629-.552-.94-.227-.371-.462-.734-.7-1.1a3.42 3.42 0 0 0 .126.65c.148.299.32.593.449.881z" class="prefix__cls-5" data-name="Path 1656" transform="translate(-257.154 -195.417)"/>
                        <path id="prefix__Path_1657" d="M265.572 196.777c.1.2.216.386.311.579q.323.534.631 1.078c.039.069.082.135.124.2a.069.069 0 0 0 .045.02.55.55 0 0 0 .228-.116.206.206 0 0 0-.042-.129c-.42-.759-.871-1.5-1.344-2.228a1.031 1.031 0 0 0-.009.363q.023.117.056.233z" class="prefix__cls-5" data-name="Path 1657" transform="translate(-255.941 -195.862)"/>
                        <path id="prefix__Path_1658" d="M263.57 197.692c.294.485.584.972.857 1.468a.548.548 0 0 0 .061.081c.072-.032.131-.055.186-.082a.087.087 0 0 0 .041-.027.068.068 0 0 0 .02-.046.291.291 0 0 0-.041-.1q-.67-1.22-1.43-2.386a.44.44 0 0 0-.062-.074c-.005.03-.008.063-.013.1a1.225 1.225 0 0 0 .175.671c.073.127.136.261.206.395z" class="prefix__cls-5" data-name="Path 1658" transform="translate(-254.592 -196.066)"/>
                        <path id="prefix__Path_1659" d="M255.162 203.625c.015.029.033.054.047.083a.1.1 0 0 0 .109.039.614.614 0 0 0 .238-.149c0-.012.006-.028 0-.036-.024-.057-.053-.115-.081-.173-.47-.867-.973-1.716-1.5-2.547-.033-.054-.073-.1-.11-.158a2.552 2.552 0 0 0 .261 1.133c.359.602.706 1.201 1.036 1.808z" class="prefix__cls-5" data-name="Path 1659" transform="translate(-249.162 -198.484)"/>
                        <path id="prefix__Path_1660" d="M252.24 203.587q.5.845.962 1.707a.621.621 0 0 0 .07.1.059.059 0 0 0 .055.015.517.517 0 0 0 .256-.2c-.025-.053-.049-.115-.077-.169q-.677-1.262-1.434-2.479a2.569 2.569 0 0 0 .072.706c.025.117.056.218.096.32z" class="prefix__cls-5" data-name="Path 1660" transform="translate(-248.117 -199.581)"/>
                        <path id="prefix__Path_1661" d="M250.572 205.783c.231.409.457.822.67 1.242.028.058.061.112.09.161.028 0 .056.008.069 0 .064-.056.127-.112.187-.172a.1.1 0 0 0 .012-.119l-.039-.086c-.429-.828-.886-1.639-1.368-2.439 0 0 0-.008-.008-.008.026.221.061.431.1.592a4.118 4.118 0 0 0 .287.829z" class="prefix__cls-5" data-name="Path 1661" transform="translate(-247.022 -200.623)"/>
                    </g>
                    <g id="prefix__Group_42" class="prefix__cls-6" data-name="Group 42" transform="translate(98.157 16.851)">
                        <path id="prefix__Path_1662" d="M260.29 224.185c.207.422.409.847.6 1.279.025.059.054.114.081.166.028 0 .055.011.069 0 .066-.052.133-.1.2-.16a.1.1 0 0 0 .018-.118c-.013-.03-.021-.058-.033-.088-.381-.852-.791-1.687-1.227-2.513 0 0 0-.008-.007-.009.014.222.036.434.061.6a4.141 4.141 0 0 0 .238.843z" class="prefix__cls-5" data-name="Path 1662" transform="translate(-259.985 -217.252)"/>
                        <path id="prefix__Path_1663" d="M264.345 221.548c.207.422.409.847.6 1.279.025.059.054.115.081.166.028 0 .055.011.069 0 .066-.052.133-.1.2-.161a.1.1 0 0 0 .018-.118c-.012-.03-.021-.058-.034-.088-.38-.851-.791-1.687-1.227-2.513 0 0 0-.008-.007-.009.013.222.036.434.061.6a4.106 4.106 0 0 0 .239.844z" class="prefix__cls-5" data-name="Path 1663" transform="translate(-262.346 -215.717)"/>
                        <path id="prefix__Path_1664" d="M266.184 220.522c.207.422.409.847.6 1.279.025.059.054.115.081.166.028 0 .055.011.069 0 .066-.052.133-.1.2-.161a.1.1 0 0 0 .019-.118c-.013-.03-.021-.059-.034-.089-.381-.851-.791-1.687-1.227-2.513 0 0 0-.008-.007-.009.014.222.037.434.061.6a4.106 4.106 0 0 0 .238.845z" class="prefix__cls-5" data-name="Path 1664" transform="translate(-263.417 -215.119)"/>
                        <path id="prefix__Path_1665" d="M261.606 221.26c.263.536.52 1.077.761 1.625.031.075.069.146.1.211.035 0 .07.014.087 0 .085-.066.169-.133.249-.2a.129.129 0 0 0 .023-.15c-.016-.038-.027-.074-.043-.112-.484-1.082-1.005-2.144-1.559-3.194 0-.005 0-.01-.009-.011.017.282.046.551.078.759a5.235 5.235 0 0 0 .313 1.072z" class="prefix__cls-5" data-name="Path 1665" transform="translate(-260.703 -215.321)"/>
                        <path id="prefix__Path_1666" d="M279.733 213.511c.156.3.312.608.464.915.029.055.062.112.091.168a.529.529 0 0 0 .291-.137.109.109 0 0 0 .018-.086 2.006 2.006 0 0 0-.092-.2c-.2-.389-.387-.777-.593-1.163-.246-.459-.5-.912-.754-1.368a4.125 4.125 0 0 0 .1.787c.158.367.342.731.475 1.084z" class="prefix__cls-5" data-name="Path 1666" transform="translate(-271.149 -210.786)"/>
                        <path id="prefix__Path_1667" d="M276.628 213.122c.107.241.231.477.331.714q.347.662.678 1.334c.041.085.088.167.134.249a.083.083 0 0 0 .053.027.658.658 0 0 0 .281-.122.244.244 0 0 0-.041-.157c-.448-.937-.935-1.859-1.448-2.761a1.239 1.239 0 0 0-.037.433q.021.14.049.283z" class="prefix__cls-5" data-name="Path 1667" transform="translate(-269.643 -211.235)"/>
                        <path id="prefix__Path_1668" d="M274.174 214.071c.316.6.629 1.2.919 1.818a.643.643 0 0 0 .068.1c.089-.033.16-.056.228-.084a.1.1 0 0 0 .051-.03.079.079 0 0 0 .027-.053.358.358 0 0 0-.042-.117q-.714-1.507-1.54-2.956a.522.522 0 0 0-.069-.093c-.009.035-.013.074-.022.113a1.472 1.472 0 0 0 .161.814c.079.158.145.323.219.488z" class="prefix__cls-5" data-name="Path 1668" transform="translate(-268.02 -211.38)"/>
                        <path id="prefix__Path_1669" d="M286.266 211.167c.13.254.26.508.386.764l.077.14a.439.439 0 0 0 .243-.114.092.092 0 0 0 .015-.071 1.549 1.549 0 0 0-.077-.17c-.165-.325-.323-.649-.5-.971-.2-.383-.417-.761-.629-1.142a3.445 3.445 0 0 0 .087.657c.132.309.286.612.398.907z" class="prefix__cls-5" data-name="Path 1669" transform="translate(-275.008 -209.602)"/>
                        <path id="prefix__Path_1670" d="M283.674 210.842c.089.2.193.4.276.6q.29.553.566 1.114c.035.071.074.14.112.208a.07.07 0 0 0 .044.023.549.549 0 0 0 .234-.1.209.209 0 0 0-.034-.132c-.374-.782-.78-1.552-1.208-2.3a1.027 1.027 0 0 0-.031.361c.01.068.024.147.041.226z" class="prefix__cls-5" data-name="Path 1670" transform="translate(-273.751 -209.976)"/>
                        <path id="prefix__Path_1671" d="M281.626 211.634c.264.5.524 1.005.767 1.517a.484.484 0 0 0 .056.084c.074-.028.134-.047.19-.07a.09.09 0 0 0 .043-.025.066.066 0 0 0 .022-.044.3.3 0 0 0-.035-.1q-.6-1.258-1.285-2.467a.433.433 0 0 0-.058-.077c-.007.029-.011.062-.018.095a1.228 1.228 0 0 0 .135.679c.066.133.122.274.183.408z" class="prefix__cls-5" data-name="Path 1671" transform="translate(-272.396 -210.098)"/>
                        <path id="prefix__Path_1672" d="M273.368 217.957c.013.03.029.056.042.085a.1.1 0 0 0 .107.046.62.62 0 0 0 .246-.134c0-.012.008-.028 0-.036-.021-.058-.046-.118-.071-.177-.418-.894-.869-1.771-1.347-2.632-.029-.056-.067-.108-.1-.165a2.556 2.556 0 0 0 .193 1.147c.327.621.637 1.241.93 1.866z" class="prefix__cls-5" data-name="Path 1672" transform="translate(-267.118 -212.712)"/>
                        <path id="prefix__Path_1673" d="M270.45 217.745q.448.874.858 1.762a.629.629 0 0 0 .064.108.057.057 0 0 0 .054.019.514.514 0 0 0 .267-.18c-.021-.055-.042-.117-.067-.173q-.6-1.3-1.283-2.56a2.553 2.553 0 0 0 .03.709c.018.107.045.211.077.315z" class="prefix__cls-5" data-name="Path 1673" transform="translate(-266.006 -213.745)"/>
                        <path id="prefix__Path_1674" d="M268.184 218.934c.206.422.407.848.6 1.28.025.059.054.115.08.166.028 0 .055.011.069 0 .066-.052.133-.1.2-.16a.1.1 0 0 0 .019-.118c-.013-.03-.021-.059-.033-.089-.378-.852-.787-1.689-1.221-2.516 0 0 0-.008-.007-.009.013.222.036.434.06.6a4.142 4.142 0 0 0 .233.846z" class="prefix__cls-5" data-name="Path 1674" transform="translate(-264.584 -214.194)"/>
                    </g>
                    <g id="prefix__Group_43" class="prefix__cls-6" data-name="Group 43" transform="translate(103.153 24.722)">
                        <path id="prefix__Path_1675" d="M272.022 235.532c.107.367.208.736.3 1.11.012.051.028.1.041.144.022.007.043.016.055.01.061-.033.121-.065.18-.1a.083.083 0 0 0 .031-.092c-.006-.025-.009-.05-.014-.075-.185-.736-.4-1.464-.628-2.188v-.008c-.02.18-.032.353-.035.487a3.361 3.361 0 0 0 .07.712z" class="prefix__cls-5" data-name="Path 1675" transform="translate(-271.946 -231.871)"/>
                        <path id="prefix__Path_1676" d="M275.644 234.991c.107.367.208.736.3 1.11.012.051.028.1.041.144.022.007.043.017.055.01.061-.033.121-.065.18-.1a.083.083 0 0 0 .031-.092c-.006-.025-.009-.05-.014-.075-.185-.736-.4-1.464-.628-2.187v-.008c-.02.18-.032.353-.035.487a3.359 3.359 0 0 0 .07.711z" class="prefix__cls-5" data-name="Path 1676" transform="translate(-274.055 -231.556)"/>
                        <path id="prefix__Path_1677" d="M277.263 234.429c.106.367.208.737.3 1.109.012.051.027.1.041.145.022.006.043.016.055.01.061-.032.121-.065.18-.1a.082.082 0 0 0 .032-.092c-.006-.025-.009-.05-.015-.076-.185-.736-.4-1.463-.628-2.187v-.008c-.021.18-.032.353-.036.487a3.335 3.335 0 0 0 .071.712z" class="prefix__cls-5" data-name="Path 1677" transform="translate(-274.998 -231.229)"/>
                        <path id="prefix__Path_1678" d="M273.476 234.373c.135.467.264.936.38 1.41.015.064.035.127.053.183.028.008.054.021.07.013.077-.041.154-.083.229-.129a.1.1 0 0 0 .04-.117c-.007-.033-.011-.064-.018-.1q-.352-1.4-.8-2.78c0-.005 0-.009-.005-.01-.026.229-.041.448-.045.619a4.286 4.286 0 0 0 .096.911z" class="prefix__cls-5" data-name="Path 1678" transform="translate(-272.78 -231.007)"/>
                        <path id="prefix__Path_1679" d="M288.731 230.3c.082.266.164.531.242.8l.05.147a.429.429 0 0 0 .253-.068.091.091 0 0 0 .027-.066 1.564 1.564 0 0 0-.045-.176c-.68-2.233-.871-2.73-.311-1.016-.132-.4-.272-.8-.411-1.2a3.354 3.354 0 0 0-.028.645c.069.317.166.634.223.934z" class="prefix__cls-5" data-name="Path 1679" transform="translate(-281.586 -228.603)"/>
                        <path id="prefix__Path_1680" d="M286.647 229.979c.052.209.118.415.164.619.123.386.242.775.355 1.165.021.074.047.146.073.218a.066.066 0 0 0 .038.029.532.532 0 0 0 .242-.059.2.2 0 0 0-.011-.132c-.227-.814-.486-1.622-.77-2.417a1.008 1.008 0 0 0-.091.342c-.003.079-.003.156 0 .235z" class="prefix__cls-5" data-name="Path 1680" transform="translate(-280.504 -229.003)"/>
                        <path id="prefix__Path_1681" d="M284.557 230.392c.169.526.334 1.054.48 1.587a.547.547 0 0 0 .041.09c.076-.014.136-.023.195-.036a.087.087 0 0 0 .045-.016.068.068 0 0 0 .029-.039.3.3 0 0 0-.017-.1q-.36-1.308-.817-2.587a.454.454 0 0 0-.042-.084c-.012.027-.021.058-.034.088a1.2 1.2 0 0 0 .015.675c.039.137.07.279.105.422z" class="prefix__cls-5" data-name="Path 1681" transform="translate(-279.194 -228.888)"/>
                        <path id="prefix__Path_1682" d="M294.691 229.765c.069.221.137.443.2.667l.042.123a.357.357 0 0 0 .211-.058.074.074 0 0 0 .023-.055 1.32 1.32 0 0 0-.038-.147c-.086-.284-.168-.566-.26-.848-.11-.336-.227-.669-.343-1a2.813 2.813 0 0 0-.023.538c.06.263.141.528.188.78z" class="prefix__cls-5" data-name="Path 1682" transform="translate(-285.079 -228.443)"/>
                        <path id="prefix__Path_1683" d="M292.629 229.145c.043.175.1.347.137.517l.3.972c.018.062.039.122.061.183a.054.054 0 0 0 .032.024.44.44 0 0 0 .2-.048.168.168 0 0 0-.009-.11c-.189-.68-.406-1.354-.643-2.017a.846.846 0 0 0-.076.285c-.004.063-.004.128-.002.194z" class="prefix__cls-5" data-name="Path 1683" transform="translate(-283.988 -228.572)"/>
                        <path id="prefix__Path_1684" d="M290.884 229.489c.141.439.279.88.4 1.324a.452.452 0 0 0 .034.075c.063-.012.114-.019.163-.03a.067.067 0 0 0 .038-.013c.011-.008.024-.021.024-.033a.236.236 0 0 0-.014-.084q-.3-1.092-.682-2.159a.333.333 0 0 0-.035-.07c-.01.023-.018.048-.028.073a1 1 0 0 0 .012.564c.034.117.06.235.088.353z" class="prefix__cls-5" data-name="Path 1684" transform="translate(-282.894 -228.477)"/>
                        <path id="prefix__Path_1685" d="M283.362 233.388c.006.025.016.049.022.074a.078.078 0 0 0 .079.052.5.5 0 0 0 .216-.073c0-.01.01-.021.006-.029-.009-.05-.021-.1-.032-.152-.209-.775-.447-1.542-.708-2.3-.016-.049-.038-.1-.057-.146a2.073 2.073 0 0 0-.007.946c.173.546.334 1.086.481 1.628z" class="prefix__cls-5" data-name="Path 1685" transform="translate(-278.283 -229.824)"/>
                        <path id="prefix__Path_1686" d="M281.031 232.807c.157.509.3 1.021.439 1.533a.494.494 0 0 0 .036.1.047.047 0 0 0 .041.023.421.421 0 0 0 .24-.107c-.01-.047-.017-.1-.029-.148q-.3-1.127-.668-2.233a2.072 2.072 0 0 0-.076.573 2.624 2.624 0 0 0 .017.259z" class="prefix__cls-5" data-name="Path 1686" transform="translate(-277.224 -230.495)"/>
                        <path id="prefix__Path_1687" d="M279.089 233.438c.105.367.206.737.3 1.11.012.051.027.1.041.145.022.007.043.016.055.01.061-.032.122-.065.18-.1a.082.082 0 0 0 .031-.092c-.005-.026-.008-.05-.014-.076q-.274-1.1-.623-2.189v-.008c-.021.18-.033.353-.037.487a3.359 3.359 0 0 0 .067.713z" class="prefix__cls-5" data-name="Path 1687" transform="translate(-276.061 -230.652)"/>
                    </g>
                </g>
                <path id="prefix__Path_1688" d="M281.054 253.5c-.167-.007-.333-.02-.5-.021-.564-.006-1.126-.012-1.69.005-.492.016-.985.038-1.473.075-.68.048-1.357.121-2.036.215a32.294 32.294 0 0 0-5.1 1.117 6.453 6.453 0 0 0-1.3.67l-.081.058c.065-.021.127-.045.192-.066a31.622 31.622 0 0 1 5.575-1.411q1.153-.186 2.316-.288c.434-.036.87-.06 1.306-.084.271-.016.54-.023.81-.027.4-.007.794-.013 1.191-.008.373.006.746.009 1.117.042a1.593 1.593 0 0 0 .167 0 .077.077 0 0 0 .063-.063c0-.038.008-.08.008-.119a.076.076 0 0 0-.08-.074c-.169-.011-.327-.021-.485-.021z" class="prefix__cls-5" data-name="Path 1688" transform="translate(-167 -218.293)"/>
            </g>
        </g>
    </g>
</svg>
