<svg xmlns="http://www.w3.org/2000/svg" width="14" height="8.381" viewBox="0 0 14 8.381">
    <path d="M13.879.164a.479.479 0 0 0-.413-.162l-2.788.251a.463.463 0 0 0-.413.31.483.483 0 0 0 .1.516l.575.634-3.363 3.083L5.87 2.937a.772.772 0 0 0-.531-.265.847.847 0 0 0-.678.221L.266 6.915a.855.855 0 0 0-.045 1.2.974.974 0 0 0 .295.206c.044.015.1.029.162.044a.408.408 0 0 0 .133.015.833.833 0 0 0 .6-.221l3.776-3.466 1.716 1.873a.842.842 0 0 0 1.195.044l3.982-3.658.575.634a.534.534 0 0 0 .5.147.5.5 0 0 0 .339-.383l.487-2.758a.439.439 0 0 0-.102-.428z" data-name="Path 1706"/>
</svg>
