<?xml version="1.0" encoding="iso-8859-1"?>
<!-- Generator: Adobe Illustrator 20.1.0, SVG Export Plug-In . SVG Version: 6.00 Build 0)  -->
<svg version="1.1" id="Layer_1" xmlns="http://www.w3.org/2000/svg" xmlns:xlink="http://www.w3.org/1999/xlink" x="0px" y="0px"
	 viewBox="0 0 18 18" style="enable-background:new 0 0 18 18;" xml:space="preserve">
<g>
	<path style="fill:#F05050;" d="M8.953,1c-1.758,0.04-2.871,0.751-3.35,1.851c-0.455,1.047-0.36,2.366-0.035,3.736
		C5.394,6.792,5.25,7.081,5.287,7.512v0.023C5.35,7.993,5.488,8.315,5.662,8.543c0.083,0.108,0.202,0.114,0.305,0.176
		c0.091,0.511,0.294,0.999,0.527,1.382c0.012,0.056,0.035,0.107,0.07,0.152c0,0,0.038,0.048,0.047,0.059
		c0.117,0.176,0.176,0.42,0.176,0.691c0,0.288-0.004,0.556-0.035,0.855c-0.113,0.284-0.394,0.511-0.843,0.738
		c-0.47,0.237-1.085,0.455-1.71,0.726c-0.625,0.271-1.259,0.596-1.769,1.113c-0.51,0.517-0.874,1.233-0.925,2.167L1.48,17h15.04
		l-0.023-0.398c-0.051-0.934-0.407-1.649-0.914-2.167c-0.507-0.518-1.143-0.842-1.769-1.113c-0.625-0.271-1.245-0.488-1.722-0.726
		c-0.463-0.231-0.753-0.467-0.878-0.761c-0.029-0.354-0.035-0.634-0.035-0.949c0-0.201,0.069-0.382,0.187-0.562
		c0.003-0.004,0.009-0.007,0.012-0.012c0.001-0.003,0.023-0.023,0.023-0.023c0.047-0.048,0.079-0.11,0.094-0.176
		c0.227-0.389,0.416-0.884,0.504-1.382c0.117-0.062,0.249-0.069,0.34-0.187c0.18-0.236,0.286-0.571,0.328-1.031
		c0.034-0.397-0.081-0.685-0.258-0.902c0.195-0.6,0.426-1.561,0.351-2.542c-0.041-0.539-0.183-1.076-0.504-1.523
		c-0.29-0.404-0.758-0.681-1.347-0.808C10.512,1.208,9.792,1,8.965,1L8.953,1z M8.965,1.75c0.004,0,0.007,0,0.012,0
		c0.748,0.003,1.227,0.214,1.382,0.48l0.094,0.164l0.187,0.023c0.515,0.072,0.798,0.271,1.007,0.562
		c0.209,0.291,0.329,0.698,0.363,1.148c0.069,0.9-0.192,1.956-0.363,2.436L11.53,6.88l0.293,0.152
		c-0.003,0.01,0.12,0.135,0.105,0.41c0,0.006,0,0.006,0,0.012c-0.035,0.353-0.126,0.552-0.187,0.633
		c-0.063,0.082-0.095,0.07-0.082,0.07h-0.328l-0.047,0.328c-0.064,0.486-0.312,1.098-0.527,1.406h-0.012
		c-0.022,0.032-0.038,0.07-0.059,0.105c-0.098,0.114-0.246,0.265-0.457,0.445C9.88,10.739,9.416,11.003,9,11.003
		c-0.413,0-0.881-0.277-1.242-0.586c-0.312-0.268-0.498-0.498-0.55-0.562c-0.001-0.003,0.001-0.009,0-0.012
		C6.987,9.524,6.734,8.965,6.669,8.485L6.634,8.157H6.329c-0.013-0.006-0.048-0.025-0.082-0.07C6.182,8,6.088,7.798,6.037,7.454
		c0-0.007,0-0.004,0-0.012c-0.001-0.006,0.001-0.006,0-0.012c-0.006-0.284,0.17-0.442,0.141-0.422l0.211-0.152L6.329,6.599
		c-0.346-1.366-0.4-2.603-0.035-3.444C6.659,2.318,7.397,1.788,8.965,1.75L8.965,1.75z M7.536,11.202
		c0.395,0.291,0.89,0.551,1.464,0.551c0.562,0,1.044-0.246,1.429-0.527c0.001,0.228,0.009,0.463,0.035,0.75v0.047l0.023,0.047
		c0.066,0.173,0.16,0.319,0.269,0.457c-0.004,0.015-0.009,0.031-0.012,0.047c0,0-0.089,0.246-0.351,0.515
		C10.132,13.357,9.725,13.627,9,13.627c-0.722,0-1.143-0.281-1.417-0.562c-0.274-0.281-0.363-0.539-0.363-0.539
		c0.108-0.141,0.198-0.291,0.258-0.469l0.023-0.07C7.533,11.703,7.536,11.447,7.536,11.202L7.536,11.202z M11.343,13.041
		c0.132,0.085,0.268,0.164,0.41,0.234c0.548,0.272,1.168,0.483,1.757,0.738c0.589,0.255,1.138,0.543,1.534,0.949
		c0.316,0.324,0.507,0.754,0.609,1.288H2.347c0.102-0.534,0.291-0.965,0.609-1.288c0.398-0.406,0.958-0.694,1.546-0.949
		c0.589-0.255,1.203-0.464,1.745-0.738c0.135-0.069,0.272-0.141,0.398-0.223c0.083,0.151,0.212,0.347,0.398,0.539
		C7.426,13.985,8.073,14.376,9,14.376c0.924,0,1.558-0.387,1.933-0.773C11.138,13.392,11.262,13.196,11.343,13.041L11.343,13.041z"
		/>
</g>
</svg>
