<?xml version="1.0" encoding="iso-8859-1"?>
<!-- Generator: Adobe Illustrator 20.1.0, SVG Export Plug-In . SVG Version: 6.00 Build 0)  -->
<svg version="1.1" id="Layer_2" xmlns="http://www.w3.org/2000/svg" xmlns:xlink="http://www.w3.org/1999/xlink" x="0px" y="0px"
	 viewBox="0 0 20 20" style="enable-background:new 0 0 20 20;" xml:space="preserve">
<g>
	<g>
		<defs>
			<rect id="SVGID_1_" x="1" y="0.786" width="18" height="18.429"/>
		</defs>
		<clipPath id="SVGID_2_">
			<use xlink:href="#SVGID_1_"  style="overflow:visible;"/>
		</clipPath>
		<path style="clip-path:url(#SVGID_2_);fill:#2c2e2f;" d="M9.946,0.96c-2.002,0.037-3.281,0.846-3.83,2.103
			C5.592,4.259,5.709,5.771,6.089,7.335C5.885,7.574,5.723,7.896,5.781,8.38c0.064,0.527,0.21,0.902,0.415,1.165
			C6.31,9.688,6.459,9.702,6.598,9.772c0.075,0.449,0.201,0.897,0.389,1.272c0.107,0.216,0.229,0.415,0.348,0.576
			c0.054,0.072,0.131,0.114,0.188,0.174c0.003,0.529,0.005,0.969-0.04,1.527c-0.139,0.336-0.464,0.608-0.991,0.87
			c-0.544,0.271-1.252,0.522-1.968,0.831c-0.717,0.308-1.453,0.683-2.036,1.272c-0.583,0.589-0.995,1.398-1.058,2.464l-0.027,0.455
			h17.196l-0.027-0.455c-0.063-1.067-0.477-1.875-1.058-2.464c-0.581-0.59-1.309-0.964-2.022-1.272
			c-0.713-0.308-1.413-0.559-1.955-0.831c-0.521-0.261-0.849-0.525-0.991-0.857c-0.047-0.564-0.044-1.006-0.04-1.54
			c0.057-0.062,0.134-0.102,0.187-0.174c0.117-0.162,0.229-0.361,0.335-0.576c0.183-0.375,0.315-0.825,0.389-1.272
			c0.134-0.07,0.278-0.087,0.388-0.228c0.206-0.263,0.351-0.638,0.415-1.165c0.057-0.469-0.101-0.779-0.295-1.018
			c0.21-0.68,0.477-1.778,0.388-2.907c-0.048-0.616-0.206-1.23-0.576-1.741c-0.338-0.469-0.888-0.81-1.581-0.951
			c-0.45-0.584-1.26-0.804-2.196-0.804L9.946,0.96z M9.96,1.817c0.005,0,0.009,0,0.014,0c0.862,0.003,1.421,0.256,1.58,0.536
			l0.107,0.174l0.201,0.027c0.596,0.082,0.937,0.323,1.179,0.656c0.241,0.333,0.375,0.799,0.415,1.313
			c0.081,1.028-0.216,2.225-0.402,2.786l-0.107,0.335l0.294,0.174c-0.018-0.012,0.164,0.112,0.121,0.469
			c-0.05,0.42-0.151,0.638-0.228,0.737c-0.077,0.099-0.117,0.094-0.12,0.094l-0.361,0.027l-0.04,0.348
			c-0.04,0.37-0.189,0.824-0.362,1.179c-0.087,0.178-0.176,0.333-0.255,0.442c-0.078,0.109-0.161,0.169-0.12,0.147l-0.228,0.12
			v0.254c0,0.621-0.025,1.13,0.04,1.848v0.054l0.027,0.054c0.244,0.658,0.81,1.068,1.433,1.38c0.623,0.311,1.338,0.54,2.009,0.83
			c0.672,0.29,1.286,0.636,1.741,1.098c0.362,0.366,0.589,0.852,0.71,1.46H2.393c0.12-0.606,0.347-1.093,0.71-1.46
			c0.457-0.462,1.08-0.809,1.755-1.098s1.384-0.519,2.009-0.83c0.624-0.312,1.202-0.722,1.446-1.38l0.027-0.107
			c0.065-0.718,0.04-1.227,0.04-1.848V11.38l-0.228-0.12c0.038,0.02-0.054-0.039-0.134-0.147c-0.08-0.109-0.179-0.264-0.268-0.442
			c-0.177-0.355-0.323-0.812-0.362-1.179l-0.04-0.348L6.987,9.116c-0.003,0-0.044,0.005-0.12-0.094
			C6.789,8.923,6.688,8.706,6.638,8.286c-0.042-0.357,0.139-0.48,0.121-0.469L7.04,7.643L6.96,7.335
			C6.556,5.781,6.486,4.37,6.906,3.411C7.325,2.455,8.179,1.854,9.96,1.817L9.96,1.817z"/>
	</g>
</g>
</svg>
