<?xml version="1.0" encoding="iso-8859-1"?>
<!-- Generator: Adobe Illustrator 20.1.0, SVG Export Plug-In . SVG Version: 6.00 Build 0)  -->
<svg version="1.1" id="Layer_2" xmlns="http://www.w3.org/2000/svg" xmlns:xlink="http://www.w3.org/1999/xlink" x="0px" y="0px"
	 viewBox="0 0 20 20" style="enable-background:new 0 0 20 20;" xml:space="preserve">
<g>
	<path style="fill:#2c2e2f;" d="M9.944,1C7.839,1.044,6.508,1.845,5.935,3.082C5.39,4.26,5.504,5.744,5.893,7.286
		c-0.209,0.231-0.38,0.555-0.336,1.041v0.026c0.075,0.514,0.24,0.876,0.449,1.133c0.1,0.122,0.242,0.128,0.364,0.198
		C6.478,10.259,6.721,10.807,7,11.239c0.014,0.063,0.042,0.12,0.084,0.171c0,0,0.046,0.054,0.056,0.066
		c0.14,0.198,0.21,0.473,0.21,0.777c0,0.324-0.005,0.626-0.042,0.962c-0.135,0.32-0.471,0.575-1.009,0.83
		c-0.562,0.267-1.298,0.512-2.047,0.817c-0.748,0.305-1.507,0.67-2.117,1.252c-0.61,0.581-1.046,1.387-1.107,2.438L1,19h18
		l-0.028-0.448c-0.061-1.051-0.487-1.855-1.093-2.438c-0.606-0.583-1.369-0.947-2.117-1.252c-0.748-0.305-1.49-0.549-2.061-0.817
		c-0.554-0.26-0.901-0.525-1.051-0.856c-0.035-0.399-0.042-0.713-0.042-1.067c0-0.226,0.082-0.43,0.224-0.633
		c0.003-0.005,0.01-0.008,0.014-0.013c0.002-0.003,0.028-0.026,0.028-0.026c0.056-0.054,0.095-0.124,0.112-0.198
		c0.272-0.438,0.498-0.995,0.603-1.555c0.14-0.069,0.298-0.077,0.407-0.211c0.216-0.265,0.342-0.642,0.393-1.16
		c0.04-0.446-0.096-0.771-0.308-1.015c0.233-0.675,0.51-1.756,0.421-2.859c-0.049-0.606-0.219-1.211-0.603-1.713
		C13.55,2.285,12.99,1.973,12.285,1.83C11.81,1.234,10.948,1,9.958,1L9.944,1z M9.958,1.843c0.005,0,0.009,0,0.014,0
		c0.895,0.003,1.468,0.24,1.654,0.54l0.112,0.184l0.224,0.026c0.617,0.081,0.955,0.305,1.206,0.633
		c0.251,0.328,0.394,0.786,0.435,1.291c0.082,1.013-0.23,2.201-0.435,2.741l-0.14,0.356l0.35,0.171
		c-0.003,0.012,0.144,0.152,0.126,0.461c0,0.007,0,0.007,0,0.013c-0.042,0.397-0.151,0.621-0.224,0.712
		c-0.075,0.092-0.114,0.079-0.098,0.079H12.79L12.734,9.42c-0.077,0.547-0.373,1.235-0.631,1.581h-0.014
		c-0.026,0.036-0.046,0.079-0.07,0.119c-0.117,0.128-0.294,0.298-0.547,0.501c-0.419,0.336-0.974,0.633-1.472,0.633
		c-0.494,0-1.055-0.311-1.486-0.659c-0.373-0.301-0.596-0.56-0.659-0.633c-0.002-0.003,0.002-0.01,0-0.013
		C7.591,10.59,7.287,9.96,7.21,9.42L7.168,9.051H6.804C6.788,9.045,6.746,9.023,6.706,8.972C6.627,8.875,6.515,8.648,6.453,8.261
		c0-0.008,0-0.005,0-0.013c-0.002-0.007,0.002-0.007,0-0.013C6.446,7.915,6.657,7.737,6.622,7.76l0.252-0.171l-0.07-0.29
		C6.39,5.762,6.325,4.37,6.762,3.425C7.198,2.482,8.081,1.886,9.958,1.843L9.958,1.843z M8.248,12.477
		c0.473,0.328,1.065,0.619,1.752,0.619c0.673,0,1.249-0.277,1.71-0.593c0.002,0.257,0.01,0.52,0.042,0.843V13.4l0.028,0.053
		c0.079,0.194,0.191,0.359,0.322,0.514c-0.005,0.016-0.01,0.035-0.014,0.053c0,0-0.107,0.277-0.421,0.58
		c-0.314,0.303-0.801,0.606-1.668,0.606c-0.864,0-1.369-0.316-1.696-0.633c-0.328-0.316-0.435-0.606-0.435-0.606
		c0.13-0.158,0.237-0.328,0.308-0.527l0.028-0.079C8.244,13.041,8.248,12.752,8.248,12.477L8.248,12.477z M12.804,14.546
		c0.158,0.096,0.321,0.184,0.491,0.264c0.655,0.306,1.398,0.544,2.103,0.83c0.704,0.287,1.362,0.611,1.836,1.067
		c0.379,0.364,0.606,0.848,0.729,1.449H2.037c0.123-0.601,0.349-1.085,0.729-1.449c0.477-0.456,1.146-0.781,1.85-1.067
		c0.704-0.287,1.44-0.522,2.089-0.83c0.161-0.077,0.326-0.158,0.477-0.25c0.1,0.17,0.254,0.39,0.477,0.606
		c0.457,0.443,1.232,0.883,2.341,0.883c1.106,0,1.864-0.435,2.313-0.87C12.558,14.941,12.707,14.721,12.804,14.546L12.804,14.546z"
		/>
</g>
</svg>
