<?xml version="1.0" encoding="utf-8"?>
<!-- Generator: Adobe Illustrator 20.1.0, SVG Export Plug-In . SVG Version: 6.00 Build 0)  -->
<svg version="1.1" id="Layer_2" xmlns="http://www.w3.org/2000/svg" xmlns:xlink="http://www.w3.org/1999/xlink" x="0px" y="0px"
	 viewBox="0 0 20 20" style="enable-background:new 0 0 20 20;" xml:space="preserve">
<style type="text/css">
	.st0{fill:#F05050;}
</style>
<g>
	<path class="st0" d="M1,3v14c0,0.6,0.4,1,1,1h16c0.6,0,1-0.4,1-1V3c0-0.6-0.4-1-1-1H2C1.4,2,1,2.5,1,3z M2.7,2.9h14.6
		c0.4,0,0.8,0.4,0.8,0.8l0,1.9c-0.2,0.1-6.4,5.7-6.9,6.2c-0.5,0.4-0.9,0.5-1.2,0.5c-0.3,0-0.7-0.1-1.2-0.5c-0.5-0.5-6.8-6-6.9-6.2
		l0-1.9C1.9,3.3,2.2,2.9,2.7,2.9z M1.9,6.9c0.9,0.8,5.9,5.3,6.4,5.8c0.6,0.5,1.3,0.7,1.7,0.7s1.1-0.1,1.7-0.7c0.5-0.4,5.6-5,6.5-5.8
		v9.4c0,0.4-0.4,0.8-0.8,0.8H2.7c-0.4,0-0.8-0.4-0.8-0.8V6.9z"/>
</g>
</svg>
