<?xml version="1.0" encoding="UTF-8"?>
<svg width="19px" height="18px" viewBox="0 0 19 18" version="1.1" xmlns="http://www.w3.org/2000/svg" xmlns:xlink="http://www.w3.org/1999/xlink">
    <!-- Generator: Sketch 49.3 (51167) - http://www.bohemiancoding.com/sketch -->
    <title>Group 2</title>
    <desc>Created with Sketch.</desc>
    <defs></defs>
    <g id="update" stroke="none" stroke-width="1" fill="none" fill-rule="evenodd">
        <g id="12" transform="translate(-81.000000, -1140.000000)" fill="#2c2e2f" fill-rule="nonzero">
            <g id="Group" transform="translate(0.000000, 1120.000000)">
                <g id="Group-4">
                    <g id="profile" transform="translate(74.750000, 20.000000)">
                        <g id="Group-2" transform="translate(7.000000, 0.000000)">
                            <path d="M9,9.05921053 C11.4846787,9.05921053 13.5,7.02748829 13.5,4.52265617 C13.5,2.01782405 11.4846488,0 9,0 C6.51535115,0 4.5,2.03172223 4.5,4.52265617 C4.5,7.01359011 6.51532131,9.05921053 9,9.05921053 Z M9,1.18284993 C10.8220758,1.18284993 12.312895,2.6857492 12.312895,4.52265617 C12.312895,6.35956314 10.8220758,7.86243233 9,7.86243233 C7.17792418,7.86243233 5.68710503,6.35953306 5.68710503,4.52262609 C5.68710503,2.68571912 7.17789434,1.18284993 9,1.18284993 Z" id="Shape"></path>
                            <path d="M0.635461371,17.1118421 L17.3645386,17.1118421 C17.7192162,17.1118421 18,16.8156632 18,16.4415389 C18,12.9340983 15.2955753,10.0657895 11.9556573,10.0657895 L6.04434269,10.0657895 C2.71921623,10.0657895 0,12.9184957 0,16.4415389 C0,16.8156632 0.280783771,17.1118421 0.635461371,17.1118421 Z M6.04434269,11.4063959 L11.9556573,11.4063959 C14.3792982,11.4063959 16.3743677,13.3082226 16.6847346,15.7712019 L1.31526543,15.7712019 C1.62560034,13.3238251 3.62070177,11.4063959 6.04434269,11.4063959 Z" id="Shape"></path>
                        </g>
                    </g>
                </g>
            </g>
        </g>
    </g>
</svg>