<svg xmlns="http://www.w3.org/2000/svg" width="22.5" height="21.318" viewBox="0 0 22.5 21.318">
    <g id="prefix__noun_call_670482" transform="translate(-.5 -.629)">
        <path id="prefix__Path_122" d="M9.444 6.871V2.425a1.8 1.8 0 0 0-1.8-1.8H2.3a1.8 1.8 0 0 0-1.8 1.8v3.037c0 .153.194 15.326 17.052 16.485h3.654A1.8 1.8 0 0 0 23 20.15v-5.1a1.8 1.8 0 0 0-1.794-1.8h-4.758a1.149 1.149 0 0 0-1.031.648l-2.386 4.947a13.628 13.628 0 0 1-9.138-8.231l4.96-2.748a1.14 1.14 0 0 0 .591-.995zm7.724 8.677h3.54v4.108h-3.076a22.841 22.841 0 0 1-2.315-.273zM7.152 6.2L3.191 8.4a13.873 13.873 0 0 1-.4-2.929V2.92h4.361z" data-name="Path 122" style="fill:#f26c6c"/>
    </g>
</svg>
