<svg xmlns="http://www.w3.org/2000/svg" width="27" height="24.652" viewBox="0 0 27 24.652">
    <defs>
        <style>
            .prefix__cls-1{fill:#fff}
        </style>
    </defs>
    <g id="prefix__Group_831" data-name="Group 831" transform="translate(-648 -508)">
        <path id="prefix__Path_16" d="M655.043 529.624v2.7h7.044v-2.348h1.174v2.348h7.039V528.5a8.249 8.249 0 0 0 3.523-6.737 8.167 8.167 0 0 0-.947-3.818 3.522 3.522 0 0 0 2.124-3.229h-2.348a1.175 1.175 0 0 1-1.174 1.174v.129a8.188 8.188 0 0 0-5.87-2.477h-4.955c-.525-1.606-1.98-3.123-5.48-3.515l-1.3-.146v4.482a8.233 8.233 0 0 0-3.892 3.874H648v6.6l2.362 1.181a8.286 8.286 0 0 0 4.681 3.606zm-4.7-9.038h1.244l.277-.783a5.876 5.876 0 0 1 2.034-2.739h2.314v-4.471c2 .521 2.335 1.582 2.345 2.6v.7h7.046a5.866 5.866 0 0 1 2.932 10.949l-.586.338v2.8h-2.347v-2.348h-5.87v2.348h-2.348v-2.28l-.979-.164a5.92 5.92 0 0 1-4.18-2.976l-.175-.324-1.709-.856z" class="prefix__cls-1" data-name="Path 16" transform="translate(0 .327)"/>
        <circle id="prefix__Ellipse_2" cx="2.5" cy="2.5" r="2.5" class="prefix__cls-1" data-name="Ellipse 2" transform="translate(662 508)"/>
    </g>
</svg>
