<svg id="Layer_3" data-name="Layer 3" xmlns="http://www.w3.org/2000/svg" xmlns:xlink="http://www.w3.org/1999/xlink" viewBox="0 0 65.08 65.07"><defs><style>.cls-1{fill:none;}.cls-2{opacity:0.6;}.cls-3{fill:#939393;}.cls-4{clip-path:url(#clip-path);}</style><clipPath id="clip-path" transform="translate(0.1 0.09)"><rect class="cls-1" width="65" height="65"/></clipPath></defs><title>accuracy</title><g class="cls-2"><path class="cls-3" d="M33.24,29.83a3.35,3.35,0,0,1,2.33,1l3.68,3.67a4.19,4.19,0,0,1,2.89,1.25l.43.42a10.42,10.42,0,0,0,.67-3.67A10.82,10.82,0,1,0,32.39,43.26a10.64,10.64,0,0,0,4.09-.79L36,42a4.33,4.33,0,0,1-1.31-2.7l-3.77-3.77a3.37,3.37,0,0,1,.23-4.77,3.33,3.33,0,0,1,2.12-.87Z" transform="translate(0.1 0.09)"/><g class="cls-4"><path class="cls-3" d="M50.38,44a21.32,21.32,0,1,0-6.19,6.27l-3.25-3.2a16.9,16.9,0,1,1,6.19-6.27Z" transform="translate(0.1 0.09)"/><path class="cls-3" d="M47,56.58v-.15A28.19,28.19,0,1,1,56.46,47h.22a3.14,3.14,0,0,1,1-.19,3.38,3.38,0,0,1,2.35,1l.68.68A32.07,32.07,0,0,0,65,32.5,32.55,32.55,0,1,0,48.53,60.72L47.82,60A3.31,3.31,0,0,1,47,56.62Z" transform="translate(0.1 0.09)"/></g><path class="cls-3" d="M58.56,49.25a1,1,0,0,0-.78-.32,1,1,0,0,0-.34,0l-3.87,1.3-13-13a2.2,2.2,0,0,0-1.52-.61,2.74,2.74,0,0,0-.64.09L34,32.31a1.11,1.11,0,0,0-1.57,1.56l4.46,4.44a2.18,2.18,0,0,0,.56,2l13,13-1.33,3.9a1.08,1.08,0,0,0,.27,1.13l5.07,5.08a1.19,1.19,0,0,0,.78.32h.25a1.1,1.1,0,0,0,.78-.71L58,57.87l5.19-1.69a1.17,1.17,0,0,0,.73-.8,1.07,1.07,0,0,0-.31-1Z" transform="translate(0.1 0.09)"/></g></svg>