<svg id="Layer_2" data-name="Layer 2" xmlns="http://www.w3.org/2000/svg" xmlns:xlink="http://www.w3.org/1999/xlink" viewBox="0 0 65 59"><defs><style>.cls-1{fill:none;}.cls-2{opacity:0.6;}.cls-3{fill:#d1d1d1;}.cls-4{fill:#939393;}.cls-5{clip-path:url(#clip-path);}.cls-6{fill:#fff;}</style><clipPath id="clip-path" transform="translate(0 -3)"><rect class="cls-1" x="24.37" y="6.86" width="33.17" height="25.41"/></clipPath></defs><title>attempted</title><g class="cls-2"><path class="cls-3" d="M57.54,32.5A28.2,28.2,0,1,1,29.34,4.16h0A28.27,28.27,0,0,1,57.54,32.5Z" transform="translate(0 -3)"/><path class="cls-4" d="M29.34,62A29.5,29.5,0,1,1,58.69,32.5,29.42,29.42,0,0,1,29.34,62Zm0-56.69A27.19,27.19,0,1,0,56.4,32.5,27.13,27.13,0,0,0,29.34,5.31Z" transform="translate(0 -3)"/><g class="cls-5"><path d="M24.74,20.83" transform="translate(0 -3)"/></g><path class="cls-6" d="M15.14,29.46a1.86,1.86,0,0,1-.05-2.62l.05-.05,2.66-2.66a1.81,1.81,0,0,1,2.57-.08l.08.08.19.19L31.12,35.49a.87.87,0,0,0,1.24.14.47.47,0,0,0,.14-.14L57.9,9h.19A1.82,1.82,0,0,1,60.68,9l.07.07,2.65,2.66a1.84,1.84,0,0,1,.07,2.6l-.07.08L33,46a1.88,1.88,0,0,1-2.7,0L15.52,30Z" transform="translate(0 -3)"/><path class="cls-4" d="M31.63,47.71a2.87,2.87,0,0,1-2.13-.91L14.58,30.62l-.34-.49A3,3,0,0,1,14.33,26L17,23.28a3,3,0,0,1,2.14-.91h0a3,3,0,0,1,2.14.91l.2.21L31.74,34.55,57.3,7.86h.28a3,3,0,0,1,3.87.34l2.66,2.67a3,3,0,0,1,0,4.25l0,0L33.79,46.79A2.86,2.86,0,0,1,31.63,47.71ZM16.39,29.25l14.73,16a.53.53,0,0,0,.47.2.61.61,0,0,0,.53-.23L62.47,13.54a.69.69,0,0,0,.06-1l-.06-.06L59.82,9.82a.67.67,0,0,0-1-.06l-.07.06-.35.33h-.16L33.22,36.3a2,2,0,0,1-1.48.64h0a2.09,2.09,0,0,1-1.47-.62L19.63,24.87a.73.73,0,0,0-.5-.23h0a.73.73,0,0,0-.52.24L16,27.56a.69.69,0,0,0-.07,1l.07.07.14.18Z" transform="translate(0 -3)"/></g></svg>