<svg id="Layer_1" data-name="Layer 1" xmlns="http://www.w3.org/2000/svg" viewBox="0 0 65 65"><defs><style>.cls-1{opacity:0.6;}.cls-2{fill:#939393;}</style></defs><title>Untitled-2</title><g class="cls-1"><path class="cls-2" d="M32.84,65a32.9,32.9,0,0,1-4.09-.25l.62-5a26.83,26.83,0,0,0,3.47.22Z"/><path class="cls-2" d="M20.4,62.59a33.25,33.25,0,0,1-7.48-4.24L16,54.43A28.36,28.36,0,0,0,22.3,58ZM6.83,52.35A31.85,31.85,0,0,1,2.51,45l4.67-1.93a27.8,27.8,0,0,0,3.65,6.23ZM.33,36.78A34.11,34.11,0,0,1,0,32.5a33.47,33.47,0,0,1,.33-4.23l5,.65A26.73,26.73,0,0,0,5,32.5a27.25,27.25,0,0,0,.24,3.61ZM7.15,22,2.48,20a32.1,32.1,0,0,1,4.33-7.31l4,3A27.84,27.84,0,0,0,7.15,22ZM16,10.64l-3.1-4a32.58,32.58,0,0,1,7.46-4.24L22.3,7.05A28.4,28.4,0,0,0,16,10.64Z"/><path class="cls-2" d="M29.37,5.22l-.62-5A34.94,34.94,0,0,1,32.84,0V5A26.83,26.83,0,0,0,29.37,5.22Z"/><path class="cls-2" d="M32.84,65A33.18,33.18,0,0,1,12,57.6l3.22-3.86A28,28,0,0,0,54.32,50a27.28,27.28,0,0,0-3.82-38.7A28,28,0,0,0,32.84,5V0A32.67,32.67,0,0,1,65,33.2,32.67,32.67,0,0,1,32.84,65Z"/><path class="cls-2" d="M29.88,27.35a10.28,10.28,0,0,1-1.64,6.33,5.74,5.74,0,0,1-4.81,2.11,5.62,5.62,0,0,1-4.72-2.16,10.19,10.19,0,0,1-1.65-6.28c0-5.57,2.11-8.34,6.37-8.34a5.63,5.63,0,0,1,4.78,2.17A9.88,9.88,0,0,1,29.88,27.35Zm-8.18,0a10.47,10.47,0,0,0,.43,3.47c.28.77.72,1.14,1.34,1.14q1.77,0,1.77-4.61c0-3.05-.59-4.56-1.77-4.56-.61,0-1.06.38-1.34,1.13a9.75,9.75,0,0,0-.45,3.48Zm20.9-8-15,26.76H23.16l15-26.76ZM48.79,38a10.19,10.19,0,0,1-1.64,6.3,5.75,5.75,0,0,1-4.82,2.12,5.61,5.61,0,0,1-4.7-2.18A10.17,10.17,0,0,1,36,38q0-8.37,6.37-8.35a5.68,5.68,0,0,1,4.8,2.18A9.9,9.9,0,0,1,48.79,38Zm-8.17,0A10.27,10.27,0,0,0,41,41.48c.27.76.71,1.14,1.35,1.14,1.18,0,1.77-1.47,1.77-4.59s-.59-4.58-1.77-4.58A1.48,1.48,0,0,0,41,34.59a9.68,9.68,0,0,0-.42,3.47Z"/></g></svg>