<svg id="Layer_6" data-name="Layer 6" xmlns="http://www.w3.org/2000/svg" viewBox="0 0 37 65"><defs><style>.cls-1{fill:#939393;opacity:0.6;isolation:isolate;}</style></defs><title>speed</title><path class="cls-1" d="M15.14,65c-.21,0-.44,0-.53-.1a1.07,1.07,0,0,1-.44-1.31L26.33,34.66H15.14a1.25,1.25,0,0,1-1-.53.93.93,0,0,1,0-1.08L30.46.53a1.13,1.13,0,0,1,1-.53h17.4a1.15,1.15,0,0,1,1,.53,1,1,0,0,1,0,1.09l-12.71,20H49.91a1,1,0,0,1,1,.65,1.14,1.14,0,0,1-.11,1.19L16,64.68A1.29,1.29,0,0,1,15.14,65Zm1.73-32.5H28a1.27,1.27,0,0,1,.86.44,1,1,0,0,1,.11,1L19,57.75,47.63,23.83H35a1.17,1.17,0,0,1-1-.54,1,1,0,0,1,0-1.08l12.83-20H32.1Z" transform="translate(-14 0)"/></svg>