<svg id="Layer_5" data-name="Layer 5" xmlns="http://www.w3.org/2000/svg" viewBox="0 0 54 65"><defs><style>.cls-1{fill:#d2d4d6;}</style></defs><title>time taken</title><path class="cls-1" d="M32.5,33.6a4.37,4.37,0,0,0-4.17,3.29H26v2.17h2.3a4.36,4.36,0,0,0,8.34,0H47.61V36.89H36.67A4.37,4.37,0,0,0,32.5,33.6Zm0,6.51a2.17,2.17,0,1,1,2.16-2.17h0A2.17,2.17,0,0,1,32.5,40.11Z" transform="translate(-5.5)"/><path class="cls-1" d="M36.85,11.22V6.55h1.08A1.1,1.1,0,0,0,39,5.46V1.09A1.09,1.09,0,0,0,37.93,0H27.1A1.08,1.08,0,0,0,26,1.09V5.46A1.09,1.09,0,0,0,27.1,6.55h1v4.67A26.37,26.37,0,0,0,16.71,16l-3.33-3.33a1,1,0,0,0-.75-.33,1.11,1.11,0,0,0-.77.33L7.3,17.27a1.1,1.1,0,0,0,0,1.53h0l3.32,3.33A27,27,0,1,0,36.85,11.22Zm-8.7-9h8.7V4.38h-8.7Zm2.16,4.37h4.35v4.36c-.71,0-1.45-.1-2.16-.1a17.34,17.34,0,0,0-2.16.09ZM12.66,15l2.42,2.36A26.88,26.88,0,0,0,12,20.4L9.59,18ZM32.5,62.84A24.92,24.92,0,0,1,7.66,37.94a24.62,24.62,0,0,1,5.23-15.27h0a24.26,24.26,0,0,1,4.35-4.36h0A24.39,24.39,0,0,1,32.5,13a24.9,24.9,0,0,1,0,49.8Z" transform="translate(-5.5)"/><path class="cls-1" d="M32.5,15.21A22.73,22.73,0,1,0,55.17,37.94h0A22.7,22.7,0,0,0,32.5,15.21ZM53,39a20.58,20.58,0,0,1-4.73,12.1l-2-2L44.8,50.55l2,2.07a20.44,20.44,0,0,1-13.19,5.82V55.26H31.43v3.18a20.44,20.44,0,0,1-13.2-5.82l2.06-2.07L18.75,49.1l-2,2A20.58,20.58,0,0,1,12,39h2.11V36.89H12a20.56,20.56,0,0,1,5.24-12.65l1.45,1.46,1.54-1.53-1.45-1.45a20.39,20.39,0,0,1,12.63-5.26v2.11h2.15V17.42a20.38,20.38,0,0,1,12.63,5.25l-1.45,1.46,1.45,1.53,1.45-1.46A20.49,20.49,0,0,1,53,36.89H50.86v2.17Z" transform="translate(-5.5)"/></svg>