<?xml version="1.0" encoding="iso-8859-1"?>
<!-- Generator: Adobe Illustrator 20.1.0, SVG Export Plug-In . SVG Version: 6.00 Build 0)  -->
<svg version="1.1" id="Layer_2" xmlns="http://www.w3.org/2000/svg" xmlns:xlink="http://www.w3.org/1999/xlink" x="0px" y="0px"
	 viewBox="0 0 20 20" style="enable-background:new 0 0 20 20;" xml:space="preserve">
<g>
	<defs>
		<rect id="SVGID_1_" x="2.039" y="1" width="15.922" height="18"/>
	</defs>
	<clipPath id="SVGID_2_">
		<use xlink:href="#SVGID_1_"  style="overflow:visible;"/>
	</clipPath>
	<path style="clip-path:url(#SVGID_2_);fill:#F05050;" d="M3.356,1C2.631,1,2.039,1.592,2.039,2.317v15.762
		c0,0.333,0.184,0.633,0.48,0.784c0.297,0.149,0.65,0.12,0.918-0.075l6.303-3.937c0.156-0.113,0.365-0.113,0.521,0l6.303,3.937
		c0.156,0.113,0.338,0.17,0.52,0.17c0.135,0,0.273-0.031,0.398-0.094c0.297-0.151,0.48-0.451,0.48-0.784V2.317
		C17.961,1.592,17.369,1,16.644,1H3.356z M3.356,1.878h13.288c0.242,0,0.439,0.197,0.439,0.439v15.762l-6.304-3.936
		c-0.233-0.171-0.506-0.257-0.779-0.257s-0.545,0.086-0.779,0.257l-6.304,3.936V2.317C2.917,2.075,3.114,1.878,3.356,1.878
		L3.356,1.878z"/>
</g>
</svg>
