<?xml version="1.0" encoding="iso-8859-1"?>
<!-- Generator: Adobe Illustrator 20.1.0, SVG Export Plug-In . SVG Version: 6.00 Build 0)  -->
<svg version="1.1" id="Layer_1" xmlns="http://www.w3.org/2000/svg" xmlns:xlink="http://www.w3.org/1999/xlink" x="0px" y="0px"
	 viewBox="0 0 500 500" style="enable-background:new 0 0 500 500;" xml:space="preserve">
<g>
	<path style="fill:#F05050;" d="M253.609,241.6c-1.564,0-2.809,1.364-2.809,3s1.245,3,2.809,3h3.581c1.564,0,2.809-1.364,2.809-3
		s-1.245-3-2.809-3H253.609z M253.609,242.4h3.581c1.098,0,2.009,0.964,2.009,2.2s-0.912,2.2-2.009,2.2h-3.581
		c-1.098,0-2.009-0.964-2.009-2.2S252.512,242.4,253.609,242.4L253.609,242.4z M253.4,244c-0.331,0-0.6,0.269-0.6,0.6
		s0.269,0.6,0.6,0.6s0.6-0.269,0.6-0.6S253.731,244,253.4,244L253.4,244z M255.4,244c-0.331,0-0.6,0.269-0.6,0.6s0.269,0.6,0.6,0.6
		s0.6-0.269,0.6-0.6S255.731,244,255.4,244L255.4,244z M257.4,244c-0.331,0-0.6,0.269-0.6,0.6s0.269,0.6,0.6,0.6s0.6-0.269,0.6-0.6
		S257.731,244,257.4,244L257.4,244z M242.4,244.4c-1.321,0-2.4,1.079-2.4,2.4v9.2c0,1.321,1.079,2.4,2.4,2.4h14.4
		c1.321,0,2.4-1.079,2.4-2.4v-8.244c-0.248,0.176-0.516,0.319-0.8,0.423V256c0,0.888-0.712,1.6-1.6,1.6h-14.4
		c-0.888,0-1.6-0.712-1.6-1.6v-9.2c0-0.298,0.086-0.573,0.226-0.811l4.838,4.799c1.048,1.04,2.416,1.612,3.848,1.612h0.064
		c1.46-0.016,2.841-0.624,3.885-1.712l2.204-2.288h-1.112l-1.668,1.736c-0.892,0.928-2.073,1.448-3.316,1.464h-0.056
		c-1.22,0-2.388-0.488-3.284-1.38l-4.838-4.795c0.238-0.14,0.512-0.225,0.81-0.225h7.596l0.004-0.8H242.4z"/>
</g>
</svg>
