<?xml version="1.0" encoding="iso-8859-1"?>
<!-- Generator: Adobe Illustrator 20.1.0, SVG Export Plug-In . SVG Version: 6.00 Build 0)  -->
<svg version="1.1" id="Layer_1" xmlns="http://www.w3.org/2000/svg" xmlns:xlink="http://www.w3.org/1999/xlink" x="0px" y="0px"
	 viewBox="175 360.5 63.5 67.5" style="enable-background:new 175 360.5 63.5 67.5;" xml:space="preserve">
<path d="M206.999,386c4.252,0,7.699,3.447,7.699,7.7c0,4.135,0.389,5.434,2.977,8.022c0.693,0.693,0.202,1.878-0.778,1.878h-6.104
	l0.055,0.55c0,2.126-1.723,3.85-3.849,3.85s-3.849-1.724-3.849-3.85l0.055-0.55H197.1c-0.98,0-1.47-1.185-0.778-1.878
	c1.446-1.447,2.229-2.665,2.611-3.938c0.307-1.022,0.366-1.854,0.366-4.084C199.3,389.447,202.747,386,206.999,386z"/>
</svg>
