<?xml version="1.0" encoding="iso-8859-1"?>
<!-- Generator: Adobe Illustrator 20.1.0, SVG Export Plug-In . SVG Version: 6.00 Build 0)  -->
<svg version="1.1" id="Layer_1" xmlns="http://www.w3.org/2000/svg" xmlns:xlink="http://www.w3.org/1999/xlink" x="0px" y="0px"
	 viewBox="183.333 367 46.167 57.5" style="enable-background:new 183.333 367 46.167 57.5;" xml:space="preserve">
<path d="M206.999,386c4.252,0,7.699,3.447,7.699,7.7c0,4.135,0.389,5.434,2.977,8.022c0.693,0.693,0.202,1.878-0.778,1.878h-6.104
	l0.055,0.55c0,2.126-1.723,3.85-3.849,3.85s-3.849-1.724-3.849-3.85l0.055-0.55H197.1c-0.98,0-1.47-1.185-0.778-1.878
	c1.446-1.447,2.229-2.665,2.611-3.938c0.307-1.022,0.366-1.854,0.366-4.084C199.3,389.447,202.747,386,206.999,386z M206.999,387.1
	c-3.644,0-6.599,2.955-6.599,6.6c0,3.3,0,5.5-3.299,8.8h19.796c-3.299-3.3-3.299-5.5-3.299-8.8
	C213.597,390.055,210.643,387.1,206.999,387.1z M209.693,403.6h-5.388l-0.055,0.55c0,1.518,1.231,2.75,2.75,2.75
	c1.518,0,2.75-1.232,2.75-2.75L209.693,403.6z"/>
</svg>
