<?xml version="1.0" encoding="iso-8859-1"?>
<!-- Generator: Adobe Illustrator 20.1.0, SVG Export Plug-In . SVG Version: 6.00 Build 0)  -->
<svg version="1.1" id="Layer_1" xmlns="http://www.w3.org/2000/svg" xmlns:xlink="http://www.w3.org/1999/xlink" x="0px" y="0px"
	 viewBox="0 0 127 78.333" style="enable-background:new 0 0 127 78.333;" xml:space="preserve">
<g>
	<g>
		<g>
			<defs>
				<rect id="SVGID_1_" x="46" y="21.115" width="34" height="38.437"/>
			</defs>
			<clipPath id="SVGID_2_">
				<use xlink:href="#SVGID_1_"  style="overflow:visible;"/>
			</clipPath>
			<path style="clip-path:url(#SVGID_2_);fill:#F05050;" d="M48.813,21.115c-1.549,0-2.813,1.263-2.813,2.813v33.658
				c0,0.71,0.392,1.351,1.025,1.674c0.634,0.319,1.388,0.256,1.959-0.161l13.459-8.408c0.333-0.242,0.78-0.242,1.113,0l13.459,8.408
				c0.333,0.242,0.722,0.363,1.11,0.363c0.289,0,0.582-0.066,0.85-0.201C79.608,58.937,80,58.296,80,57.586V23.927
				c0-1.549-1.263-2.813-2.813-2.813L48.813,21.115L48.813,21.115z M48.813,22.99h28.375c0.516,0,0.938,0.421,0.938,0.938v33.658
				l-13.462-8.405c-0.498-0.366-1.08-0.549-1.663-0.549s-1.165,0.183-1.663,0.549l-13.462,8.405V23.927
				C47.875,23.411,48.296,22.99,48.813,22.99L48.813,22.99z M52.625,24.865c-0.52,0-0.938,0.417-0.938,0.938v1.875
				c0,0.52,0.417,0.938,0.938,0.938s0.938-0.417,0.938-0.938v-1.875C53.563,25.282,53.145,24.865,52.625,24.865L52.625,24.865z
				 M57.313,24.865c-0.52,0-0.938,0.417-0.938,0.938v1.875c0,0.52,0.417,0.938,0.938,0.938s0.938-0.417,0.938-0.938v-1.875
				C58.25,25.282,57.833,24.865,57.313,24.865L57.313,24.865z M63,24.865c-0.52,0-0.938,0.417-0.938,0.938v1.875
				c0,0.52,0.417,0.938,0.938,0.938c0.52,0,0.938-0.417,0.938-0.938v-1.875C63.938,25.282,63.52,24.865,63,24.865L63,24.865z
				 M68.688,24.865c-0.52,0-0.938,0.417-0.938,0.938v1.875c0,0.52,0.417,0.938,0.938,0.938s0.938-0.417,0.938-0.938v-1.875
				C69.625,25.282,69.208,24.865,68.688,24.865L68.688,24.865z M73.375,24.865c-0.52,0-0.938,0.417-0.938,0.938v1.875
				c0,0.52,0.417,0.938,0.938,0.938c0.52,0,0.938-0.417,0.938-0.938v-1.875C74.313,25.282,73.895,24.865,73.375,24.865
				L73.375,24.865z"/>
		</g>
	</g>
</g>
</svg>
